<svg xmlns="http://www.w3.org/2000/svg" viewBox="0 0 512 512" width="512" height="512">
  <defs>
    <linearGradient id="bg" x1="0" y1="0" x2="1" y2="1">
      <stop offset="0" stop-color="#4285F4"/>
      <stop offset="1" stop-color="#1a56db"/>
    </linearGradient>
  </defs>
  <rect width="512" height="512" rx="112" fill="url(#bg)"/>
  <!-- chip pins -->
  <g fill="#fff">
    <rect x="187" y="120" width="18" height="30" rx="6"/><rect x="247" y="120" width="18" height="30" rx="6"/><rect x="307" y="120" width="18" height="30" rx="6"/>
    <rect x="187" y="362" width="18" height="30" rx="6"/><rect x="247" y="362" width="18" height="30" rx="6"/><rect x="307" y="362" width="18" height="30" rx="6"/>
    <rect x="120" y="187" width="30" height="18" rx="6"/><rect x="120" y="247" width="30" height="18" rx="6"/><rect x="120" y="307" width="30" height="18" rx="6"/>
    <rect x="362" y="187" width="30" height="18" rx="6"/><rect x="362" y="247" width="30" height="18" rx="6"/><rect x="362" y="307" width="30" height="18" rx="6"/>
  </g>
  <!-- chip die -->
  <rect x="150" y="150" width="212" height="212" rx="34" fill="#fff"/>
  <!-- node cluster -->
  <g stroke="#1a56db" stroke-width="9">
    <line x1="214" y1="224" x2="298" y2="224"/>
    <line x1="214" y1="224" x2="256" y2="300"/>
    <line x1="298" y1="224" x2="256" y2="300"/>
  </g>
  <g fill="#1a56db">
    <circle cx="214" cy="224" r="18"/><circle cx="298" cy="224" r="18"/><circle cx="256" cy="300" r="18"/>
  </g>
</svg>
