<svg version="1.1" xmlns="http://www.w3.org/2000/svg" viewBox="0 0 1250 1110" width="1250" height="1110">
  <!-- svg-source:gen-whiteboards.js -->
  <defs><style class="style-fonts">
@font-face{font-family:"Virgil";src:url("https://unpkg.com/@excalidraw/excalidraw@0.17.6/dist//dist/excalidraw-assets/Virgil.woff2");}
</style></defs>
  <rect x="0" y="0" width="1250" height="1110" fill="#ffffff"></rect>
  <text x="24" y="26" font-family="Virgil, Segoe UI Emoji" font-size="22px" fill="#1e1e1e" text-anchor="start" dominant-baseline="central" style="white-space:pre">E-commerce Platform (Amazon / Flipkart) — how you'd draw it live on the whiteboard</text>
  <text x="24" y="58" font-family="Virgil, Segoe UI Emoji" font-size="13px" fill="#868e96" text-anchor="start" dominant-baseline="central" style="white-space:pre">green = client   ·   grey = edge / LB   ·   blue = service   ·   red = datastore   ·   orange = queue / stream   ·   violet = 3rd-party</text>
  <g transform="translate(0 84)"><g transform="translate(20 70)"><path d="M18 0 C405.84 0.81, 792.27 0.13, 1192.07 -0.22 C1201.2 0.13, 1209.65 8.4, 1210 18 C1210.82 124, 1210.26 231.24, 1210.44 341.66 C1210.7 351.54, 1202.02 359.83, 1192 360 C805.14 360.28, 416.28 359.69, 18.28 359.72 C7.5 359.17, -0.78 352.62, 0 342 C0.24 234.42, 0.61 127.75, 0.38 17.58 C0.1 7.62, 7.59 0.2, 18 0" stroke="#495057" stroke-width="1.8" fill="none" stroke-linecap="round" stroke-dasharray="8 9"></path></g><g transform="translate(20 560)"><path d="M18 0 C406.08 0.93, 793.36 -0.71, 1192.22 -0.04 C1202.19 -0.33, 1209.31 7.55, 1210 18 C1209.15 137.58, 1210.6 259.23, 1210.45 382.1 C1210.43 392.68, 1201.95 400.29, 1192 400 C804.47 400.94, 417.92 400.9, 18 399.66 C7.9 399.81, 0.07 392.07, 0 382 C0.11 262.15, 0.01 141.84, 0.07 18.37 C0.4 8.23, 7.57 -0.94, 18 0" stroke="#495057" stroke-width="1.8" fill="none" stroke-linecap="round" stroke-dasharray="8 9"></path></g><path d="M250 117 C273.24 118.07, 295.84 117.62, 320.32 117.16" stroke="#1e1e1e" stroke-width="1.6" fill="none" stroke-linecap="round"></path><path d="M320 117 L309.96 121.49 M320 117 L309.96 112.51" stroke="#1e1e1e" stroke-width="1.6" fill="none" stroke-linecap="round"></path><path d="M425 144 C424.2 154.33, 424.3 162.86, 424.85 171.69 C415.21 172.48, 406.18 172.15, 394.86 172.29 C395.73 182.08, 395 189.66, 395.34 199.55" stroke="#1e1e1e" stroke-width="1.6" fill="none" stroke-linecap="round"></path><path d="M395 200 L390.51 189.96 M395 200 L399.49 189.96" stroke="#1e1e1e" stroke-width="1.6" fill="none" stroke-linecap="round"></path><path d="M425 144 C425.62 152.71, 425.04 161.89, 424.89 172.17 C500.52 172.39, 577.09 170.98, 654.71 172.37 C655.98 181.89, 655.51 191.1, 655.54 200.45" stroke="#1e1e1e" stroke-width="1.6" fill="none" stroke-linecap="round"></path><path d="M655 200 L650.51 189.96 M655 200 L659.49 189.96" stroke="#1e1e1e" stroke-width="1.6" fill="none" stroke-linecap="round"></path><path d="M425 144 C425.39 152.64, 425.89 163.2, 425.06 171.55 C586.4 171.71, 748.55 171.21, 914.85 172.4 C914.74 180.6, 915.08 191.03, 914.66 200.3" stroke="#1e1e1e" stroke-width="1.6" fill="none" stroke-linecap="round"></path><path d="M915 200 L910.51 189.96 M915 200 L919.49 189.96" stroke="#1e1e1e" stroke-width="1.6" fill="none" stroke-linecap="round"></path><path d="M425 144 C425.58 152.86, 424.43 163.45, 424.71 171.46 C655.87 171.97, 887.82 171.36, 1124.45 172.29 C1125.25 181.01, 1124.81 190.96, 1125.41 199.92" stroke="#1e1e1e" stroke-width="1.6" fill="none" stroke-linecap="round"></path><path d="M1125 200 L1120.51 189.96 M1125 200 L1129.49 189.96" stroke="#1e1e1e" stroke-width="1.6" fill="none" stroke-linecap="round"></path><path d="M395 258 C394.92 271.02, 394.61 285.99, 395.25 300.2" stroke="#1e1e1e" stroke-width="1.6" fill="none" stroke-linecap="round"></path><path d="M395 300 L390.51 289.96 M395 300 L399.49 289.96" stroke="#1e1e1e" stroke-width="1.6" fill="none" stroke-linecap="round"></path><path d="M655 258 C654.84 271.96, 656.04 285.09, 654.64 299.8" stroke="#1e1e1e" stroke-width="1.6" fill="none" stroke-linecap="round"></path><path d="M655 300 L650.51 289.96 M655 300 L659.49 289.96" stroke="#1e1e1e" stroke-width="1.6" fill="none" stroke-linecap="round"></path><path d="M915 300 C915.92 285.14, 915.5 271.66, 914.86 257.86" stroke="#1e1e1e" stroke-width="1.6" fill="none" stroke-linecap="round"></path><path d="M915 258 L919.49 268.04 M915 258 L910.51 268.04" stroke="#1e1e1e" stroke-width="1.6" fill="none" stroke-linecap="round"></path><path d="M1125 300 C1124.83 286.66, 1124.02 271.57, 1125.37 258.35" stroke="#1e1e1e" stroke-width="1.6" fill="none" stroke-linecap="round"></path><path d="M1125 258 L1129.49 268.04 M1125 258 L1120.51 268.04" stroke="#1e1e1e" stroke-width="1.6" fill="none" stroke-linecap="round"></path><path d="M155 358 C153.95 395.85, 154.49 432.27, 155.01 470.22" stroke="#1e1e1e" stroke-width="1.6" fill="none" stroke-linecap="round"></path><path d="M155 470 L150.51 459.96 M155 470 L159.49 459.96" stroke="#1e1e1e" stroke-width="1.6" fill="none" stroke-linecap="round"></path><path d="M395 470 C394.51 432.63, 394.32 396.31, 394.85 357.81" stroke="#1e1e1e" stroke-width="1.6" fill="none" stroke-linecap="round"></path><path d="M395 358 L399.49 368.04 M395 358 L390.51 368.04" stroke="#1e1e1e" stroke-width="1.6" fill="none" stroke-linecap="round"></path><path d="M915 470 C914.2 433.15, 914.97 395.92, 914.86 358.33" stroke="#1e1e1e" stroke-width="1.6" fill="none" stroke-linecap="round"></path><path d="M915 358 L919.49 368.04 M915 358 L910.51 368.04" stroke="#1e1e1e" stroke-width="1.6" fill="none" stroke-linecap="round"></path><path d="M250 607 C273.04 607.39, 295.76 607.69, 319.9 607.46" stroke="#1e1e1e" stroke-width="1.6" fill="none" stroke-linecap="round"></path><path d="M320 607 L309.96 611.49 M320 607 L309.96 602.51" stroke="#1e1e1e" stroke-width="1.6" fill="none" stroke-linecap="round"></path><path d="M425 634 C426.07 645.3, 425.64 654.26, 425.16 665.21 C411.4 665.1, 397.55 664.4, 385.16 665.09 C385.09 674.28, 384.2 682.07, 385.32 689.97" stroke="#1e1e1e" stroke-width="1.6" fill="none" stroke-linecap="round"></path><path d="M385 690 L380.51 679.96 M385 690 L389.49 679.96" stroke="#1e1e1e" stroke-width="1.6" fill="none" stroke-linecap="round"></path><path d="M480 719 C502.81 718.24, 525.73 719.48, 549.85 719.28" stroke="#1e1e1e" stroke-width="1.6" fill="none" stroke-linecap="round"></path><path d="M550 719 L539.96 723.49 M550 719 L539.96 714.51" stroke="#1e1e1e" stroke-width="1.6" fill="none" stroke-linecap="round"></path><path d="M740 719 C763.04 719.43, 786.39 719.6, 809.78 719" stroke="#1e1e1e" stroke-width="1.6" fill="none" stroke-linecap="round"></path><path d="M810 719 L799.96 723.49 M810 719 L799.96 714.51" stroke="#1e1e1e" stroke-width="1.6" fill="none" stroke-linecap="round"></path><path d="M980 719 C1004.45 718.72, 1029.02 719.28, 1054.55 719.24" stroke="#1e1e1e" stroke-width="1.6" fill="none" stroke-linecap="round"></path><path d="M1055 719 L1044.96 723.49 M1055 719 L1044.96 714.51" stroke="#1e1e1e" stroke-width="1.6" fill="none" stroke-linecap="round"></path><path d="M385 748 C385.92 764.44, 385.94 782.15, 384.91 800.43" stroke="#1e1e1e" stroke-width="1.6" fill="none" stroke-linecap="round"></path><path d="M385 800 L380.51 789.96 M385 800 L389.49 789.96" stroke="#1e1e1e" stroke-width="1.6" fill="none" stroke-linecap="round"></path><path d="M645 748 C645.84 764.85, 644.17 782.25, 644.52 799.57" stroke="#1e1e1e" stroke-width="1.6" fill="none" stroke-linecap="round"></path><path d="M645 800 L640.51 789.96 M645 800 L649.49 789.96" stroke="#1e1e1e" stroke-width="1.6" fill="none" stroke-linecap="round"></path><path d="M895 748 C895.83 765.86, 895.59 781.77, 894.95 799.89" stroke="#1e1e1e" stroke-width="1.6" fill="none" stroke-linecap="round"></path><path d="M895 800 L890.51 789.96 M895 800 L899.49 789.96" stroke="#1e1e1e" stroke-width="1.6" fill="none" stroke-linecap="round"></path><path d="M1142.5 748 C1143.3 764.32, 1141.62 781.67, 1142.62 799.99" stroke="#1e1e1e" stroke-width="1.6" fill="none" stroke-linecap="round"></path><path d="M1142.5 800 L1138.01 789.96 M1142.5 800 L1146.99 789.96" stroke="#1e1e1e" stroke-width="1.6" fill="none" stroke-linecap="round"></path><path d="M1142.5 858 C1142.71 869.69, 1141.79 881.33, 1142.03 895.27" stroke="#1e1e1e" stroke-width="1.6" fill="none" stroke-linecap="round"></path><path d="M1142.5 895 L1138.01 884.96 M1142.5 895 L1146.99 884.96" stroke="#1e1e1e" stroke-width="1.6" fill="none" stroke-linecap="round"></path><path d="M1000 923 C1019.02 923.22, 1037.22 923.97, 1055.44 923.35" stroke="#1e1e1e" stroke-width="1.6" fill="none" stroke-linecap="round"></path><path d="M1055 923 L1044.96 927.49 M1055 923 L1044.96 918.51" stroke="#1e1e1e" stroke-width="1.6" fill="none" stroke-linecap="round"></path><path d="M1142.5 690 C1142.31 636.36, 1141.48 581.25, 1142.99 525.85" stroke="#1e1e1e" stroke-width="1.6" fill="none" stroke-linecap="round"></path><path d="M1142.5 526 L1146.99 536.04 M1142.5 526 L1138.01 536.04" stroke="#1e1e1e" stroke-width="1.6" fill="none" stroke-linecap="round"></path><path d="M120 498 C95.22 497.11, 69.58 496.97, 45.36 498.35 C45.57 637.77, 45.56 779.44, 45.11 922.75 C126.5 922.1, 205.68 923.57, 289.54 923.34" stroke="#1e1e1e" stroke-width="1.6" fill="none" stroke-linecap="round"></path><path d="M290 923 L279.96 927.49 M290 923 L279.96 918.51" stroke="#1e1e1e" stroke-width="1.6" fill="none" stroke-linecap="round"></path><g transform="translate(60 90)"><path d="M16 0 C68.57 0.24, 120.75 0.2, 174.04 0.1 C182.74 0.24, 190.57 7.29, 190 16 C189.43 22.95, 189.54 29.99, 190.08 37.99 C190.09 46.67, 183.31 53.58, 174 54 C122.2 53.77, 69.7 54.39, 16.28 53.81 C7.3 53.51, -0.17 46.47, 0 38 C0.53 30.83, -0.16 23.44, -0.1 16.3 C0.21 7.02, 7.77 -0.57, 16 0 Z" stroke="none" fill="#b2f2bb"></path><path d="M16 0 C68.92 -0.82, 120.58 -0.7, 174.25 0.5 C182.63 0.55, 191.06 8.07, 190 16 C189.81 24.15, 190.8 30.09, 189.56 38.26 C189.84 46.46, 183.77 52.82, 174 54 C120.75 53.02, 70.42 54.38, 16.35 54.61 C8.25 53.03, 0.32 47.7, 0 38 C-1.26 29.95, -0.17 22.86, -0.67 16.29 C-0.21 5.99, 6.62 1.16, 16 0 M16 0 C67.27 1.35, 120.47 0.93, 174.5 -0.1 C183.24 1.28, 191.01 7.28, 190 16 C190.71 23.33, 189.29 31.31, 190.33 38.04 C188.99 45.41, 183.23 52.91, 174 54 C122.88 52.96, 69.27 55.21, 16.6 53.48 C8.39 55.17, -1.1 47.18, 0 38 C-1.4 32.01, -1.3 22.49, 0.34 15.78 C0.21 6.74, 7.48 0.77, 16 0" stroke="#2f9e44" stroke-width="1.7" fill="none" stroke-linecap="round"></path></g><text x="155" y="108" font-family="Virgil, Segoe UI Emoji" font-size="15px" fill="#1e1e1e" text-anchor="middle" dominant-baseline="central" style="white-space:pre">User</text><text x="155" y="127" font-family="Virgil, Segoe UI Emoji" font-size="12px" fill="#495057" text-anchor="middle" dominant-baseline="central" style="white-space:pre">browse · search</text><g transform="translate(320 90)"><path d="M16 0 C74.41 -0.22, 133.67 -0.34, 194.24 -0.06 C202.77 0.25, 210.02 7.59, 210 16 C210.34 23.71, 209.55 30.41, 210.09 38.21 C209.82 47.05, 202.6 53.9, 194 54 C135.58 54.37, 76.77 54.53, 15.73 54.17 C7.01 54.56, 0.35 47.19, 0 38 C-0.31 30.55, -0.27 23.2, 0.04 16.27 C0.44 6.71, 7.13 0.38, 16 0 Z" stroke="none" fill="#dee2e6"></path><path d="M16 0 C74.79 1.11, 133.14 -0.2, 194.42 0.37 C203.21 0.86, 210.1 8.22, 210 16 C209.77 23.72, 211.27 31, 209.8 37.78 C209.06 46.13, 202.25 53.04, 194 54 C135.01 53.43, 77.43 54.69, 15.36 53.56 C6.86 53.2, -1.02 46.22, 0 38 C1.23 31.94, 0.12 23.53, 0.52 15.93 C-0.66 6.23, 5.85 0.01, 16 0 M16 0 C75.56 0.36, 134.17 -0.64, 194.37 -0.57 C202.37 0.58, 211.27 8.58, 210 16 C210.13 22.26, 208.77 29.91, 209.66 38.45 C210.05 47.36, 201.58 54.16, 194 54 C134.95 54.06, 76.59 55.05, 16.28 53.83 C6.83 53.14, -0.84 46.32, 0 38 C0.08 31.92, -0.63 23.72, -0.67 15.88 C1.39 7.32, 6.78 -0.83, 16 0" stroke="#495057" stroke-width="1.7" fill="none" stroke-linecap="round"></path></g><text x="425" y="108" font-family="Virgil, Segoe UI Emoji" font-size="15px" fill="#1e1e1e" text-anchor="middle" dominant-baseline="central" style="white-space:pre">API Gateway + LB</text><text x="425" y="127" font-family="Virgil, Segoe UI Emoji" font-size="12px" fill="#495057" text-anchor="middle" dominant-baseline="central" style="white-space:pre">auth · TLS · routing</text><g transform="translate(300 200)"><path d="M16 0 C67.6 -0.11, 120.02 -0.51, 174.17 -0.22 C182.75 0.56, 190.33 7.74, 190 16 C190.05 24.4, 189.65 33.32, 190.02 41.91 C189.96 51.06, 183.11 57.94, 174 58 C121.84 58.37, 69.84 57.42, 16.04 58.05 C7.42 57.47, 0.18 50.46, 0 42 C-0.55 33.23, -0.05 24.91, 0.12 16.26 C-0.35 7.61, 7.71 -0.47, 16 0 Z" stroke="none" fill="#a5d8ff"></path><path d="M16 0 C67.25 0.84, 119.95 -0.81, 174.02 0.57 C182.16 0.25, 190.36 8.51, 190 16 C190.06 24.6, 189.67 34.49, 189.4 41.63 C190.04 50.38, 183.62 58.35, 174 58 C121.15 57.63, 70.42 58.6, 16 58.13 C8.58 58.22, 0.31 51.53, 0 42 C0.32 32.44, 0.03 23.58, 0.31 15.62 C-0.84 7.64, 5.99 0.78, 16 0 M16 0 C68.18 1.29, 119.84 -1.18, 173.63 0.46 C181.44 -0.27, 190.19 7.47, 190 16 C189.65 25.31, 190.51 33.19, 190.08 41.79 C188.77 50.64, 183.13 58.24, 174 58 C121.85 58.14, 70.8 58.35, 15.65 57.42 C7.21 56.71, 1.01 49.83, 0 42 C0.56 34.09, -0.69 25.46, 0.5 16.25 C1.34 7.16, 7.76 1.22, 16 0" stroke="#1971c2" stroke-width="1.7" fill="none" stroke-linecap="round"></path></g><text x="395" y="220" font-family="Virgil, Segoe UI Emoji" font-size="15px" fill="#1e1e1e" text-anchor="middle" dominant-baseline="central" style="white-space:pre">Search Service</text><text x="395" y="239" font-family="Virgil, Segoe UI Emoji" font-size="12px" fill="#495057" text-anchor="middle" dominant-baseline="central" style="white-space:pre">query parse · ranking</text><g transform="translate(300 300)"><path d="M16 0 C68.48 0.3, 120.79 -0.33, 173.93 -0.26 C182.55 -0.18, 190.31 7.26, 190 16 C190.28 24.19, 190.19 32.67, 190.1 41.81 C189.58 50.27, 183.39 57.69, 174 58 C122.12 57.53, 69.65 57.81, 16.25 58.19 C7 57.75, 0.54 50.87, 0 42 C-0.27 33.86, 0.36 24.62, -0.12 16.3 C0.21 7.53, 7.56 -0.14, 16 0 Z" stroke="none" fill="#ffc9c9"></path><path d="M16 0 C68.36 -0.62, 121.19 1.18, 174.19 0.33 C183.04 1.33, 190.25 6.6, 190 16 C189.04 25.63, 189.59 32.81, 190.05 42.14 C190.76 52.07, 181.7 58.11, 174 58 C123 58.19, 68.59 58.23, 15.68 58.39 C7.86 57.18, 0.02 50.65, 0 42 C1.35 34.55, -1.13 25.65, 0.59 15.87 C0.96 8.2, 7.61 -0.96, 16 0 M16 0 C67.35 0.32, 120.03 -0.86, 174.33 0.06 C184.1 -0.97, 189.84 8.51, 190 16 C190.11 24.71, 190.1 32.78, 189.46 41.42 C190.57 50.25, 182.37 57.68, 174 58 C121.07 58.02, 69.16 58.15, 16.52 58.51 C6.49 58.42, 0.1 50.92, 0 42 C1.04 34.7, -0.46 23.85, 0.43 15.88 C0.13 7.09, 8.08 -0.12, 16 0" stroke="#e03131" stroke-width="1.7" fill="none" stroke-linecap="round"></path></g><text x="395" y="320" font-family="Virgil, Segoe UI Emoji" font-size="15px" fill="#1e1e1e" text-anchor="middle" dominant-baseline="central" style="white-space:pre">Elasticsearch</text><text x="395" y="339" font-family="Virgil, Segoe UI Emoji" font-size="12px" fill="#495057" text-anchor="middle" dominant-baseline="central" style="white-space:pre">inverted index</text><g transform="translate(560 200)"><path d="M16 0 C68.3 0.53, 120.79 0.03, 174.07 -0.23 C182.23 0.36, 189.97 7.19, 190 16 C189.96 24.45, 189.89 33.03, 189.85 42.09 C190.07 50.38, 183.4 57.79, 174 58 C122.23 57.82, 69.29 57.73, 16.24 57.75 C7 57.92, 0.5 50.74, 0 42 C0.31 33.36, 0.23 24.78, -0.1 16.26 C-0.52 6.95, 7.2 -0.47, 16 0 Z" stroke="none" fill="#a5d8ff"></path><path d="M16 0 C66.9 -0.16, 120.84 0.56, 174.38 -0.37 C182.89 0.31, 190.11 6.14, 190 16 C188.86 24.6, 189.15 33.44, 190.2 41.57 C189.52 50.09, 183.19 59.21, 174 58 C122.53 57.8, 69.08 59.21, 15.81 57.94 C6.41 58.4, -0.47 51.56, 0 42 C-0.11 32.28, -0.53 24.47, 0.07 15.93 C0.31 6.78, 7.06 0.11, 16 0 M16 0 C68.89 0.8, 121.49 -0.85, 174.31 -0.48 C181.42 0.45, 191.28 6.39, 190 16 C188.88 23.82, 190.29 33.68, 190.32 42.44 C191.07 51.78, 183.91 58.31, 174 58 C121.42 58.13, 69 56.69, 16.16 58.37 C6.81 58.07, -1.21 51.56, 0 42 C-1.09 32.93, -1.25 24.42, 0.42 16.63 C0.39 8.29, 8.25 1.3, 16 0" stroke="#1971c2" stroke-width="1.7" fill="none" stroke-linecap="round"></path></g><text x="655" y="220" font-family="Virgil, Segoe UI Emoji" font-size="15px" fill="#1e1e1e" text-anchor="middle" dominant-baseline="central" style="white-space:pre">Item / Catalog Service</text><text x="655" y="239" font-family="Virgil, Segoe UI Emoji" font-size="12px" fill="#495057" text-anchor="middle" dominant-baseline="central" style="white-space:pre">product detail</text><g transform="translate(560 300)"><path d="M16 0 C68.48 0.21, 120.67 0.13, 174.08 0.12 C182.81 -0.43, 190.51 6.62, 190 16 C190.41 24.34, 190.07 33.15, 190.02 41.75 C189.86 51.32, 182.51 58.25, 174 58 C121.3 58.38, 69.18 57.81, 15.85 57.99 C7.16 58.22, 0.12 50.32, 0 42 C0.44 32.99, 0.06 24.58, -0.22 15.86 C0.2 6.85, 7.77 -0.26, 16 0 Z" stroke="none" fill="#ffc9c9"></path><path d="M16 0 C68 1.3, 120.9 0.01, 174.39 0.56 C183.89 0.07, 188.67 7.9, 190 16 C189.85 25.97, 188.83 33.57, 189.78 42.31 C190.98 50.73, 183.18 59.02, 174 58 C122.81 59.36, 70.2 56.79, 15.76 58.31 C7.75 56.93, 0.73 51.53, 0 42 C0.04 32.67, -0.98 24.22, 0.06 16.41 C-0.87 8.3, 7.24 -0.16, 16 0 M16 0 C67.65 0.57, 120.19 0.54, 174.64 -0.3 C181.48 1.4, 190.88 8.32, 190 16 C189.32 23.8, 188.79 32.42, 189.43 42.24 C189.57 51.99, 183.35 58.03, 174 58 C122.25 59.26, 70.36 58.48, 16.4 58.18 C7.9 58.92, -0.56 50.32, 0 42 C-0.25 32.74, -0.8 23.82, 0.38 16.44 C-1.27 8.42, 8.33 -0.66, 16 0" stroke="#e03131" stroke-width="1.7" fill="none" stroke-linecap="round"></path></g><text x="655" y="320" font-family="Virgil, Segoe UI Emoji" font-size="15px" fill="#1e1e1e" text-anchor="middle" dominant-baseline="central" style="white-space:pre">MongoDB</text><text x="655" y="339" font-family="Virgil, Segoe UI Emoji" font-size="12px" fill="#495057" text-anchor="middle" dominant-baseline="central" style="white-space:pre">polymorphic catalog</text><g transform="translate(820 200)"><path d="M16 0 C68.26 -0.33, 120.18 -0.33, 174.03 0.17 C182.51 0.09, 189.56 6.83, 190 16 C190.56 24.51, 189.41 33.58, 189.73 41.86 C190.49 50.74, 182.22 58.34, 174 58 C122.41 57.95, 70.04 58.31, 15.73 58.24 C7.2 57.42, -0.39 50.5, 0 42 C0.56 33.35, 0.27 24.4, 0.28 15.95 C0.37 6.89, 7.73 0.47, 16 0 Z" stroke="none" fill="#a5d8ff"></path><path d="M16 0 C68.2 -0.39, 121.21 1.04, 173.8 0.66 C182.66 -0.88, 189.98 7.23, 190 16 C189.72 24.5, 190.62 32.29, 190.47 41.82 C189 51.16, 182.55 58.71, 174 58 C120.97 58.5, 68.73 56.92, 16.44 57.63 C5.99 59.07, 0.7 50.44, 0 42 C0.06 33.33, -1.09 24.82, -0.33 16.23 C-1.28 6.74, 6.16 0.29, 16 0 M16 0 C68.41 0.31, 120.4 -1.09, 174.49 -0.63 C181.87 1.32, 191.15 5.95, 190 16 C189.02 23.56, 189.51 34.18, 189.65 41.72 C189.82 49.47, 182.42 57.6, 174 58 C121.58 57.87, 70.77 58.12, 15.95 57.98 C7.16 58.4, 1.12 51.96, 0 42 C0.69 34.8, 0.89 24.87, 0.35 15.58 C-0.6 8.46, 8.19 -1.06, 16 0" stroke="#1971c2" stroke-width="1.7" fill="none" stroke-linecap="round"></path></g><text x="915" y="220" font-family="Virgil, Segoe UI Emoji" font-size="15px" fill="#1e1e1e" text-anchor="middle" dominant-baseline="central" style="white-space:pre">Recommendation Service</text><text x="915" y="239" font-family="Virgil, Segoe UI Emoji" font-size="12px" fill="#495057" text-anchor="middle" dominant-baseline="central" style="white-space:pre">related · personalized</text><g transform="translate(820 300)"><path d="M16 0 C67.86 0.19, 120.77 -0.44, 174.13 0 C182.98 -0.03, 189.74 6.89, 190 16 C189.87 24.48, 189.52 33.26, 189.74 42.12 C190.45 50.71, 183.28 58.56, 174 58 C121.74 58.2, 69.76 58.08, 16.02 57.75 C7.24 58.26, -0.31 51.34, 0 42 C-0.05 33.8, 0.03 25.38, 0.24 16.23 C-0.31 6.9, 7.17 -0.42, 16 0 Z" stroke="none" fill="#ffd8a8"></path><path d="M16 0 C67.58 0.57, 120.38 -1.28, 173.58 0.4 C182.96 -1.3, 189.32 5.81, 190 16 C190.64 23.89, 189.51 33.92, 190.22 41.38 C189.91 49.43, 182.83 59.31, 174 58 C122.83 57.92, 70.53 58.92, 15.76 58.49 C8.26 57.38, -0.32 50.99, 0 42 C-1.04 33.73, 0.64 24.63, 0.38 16.11 C-0.26 6.22, 8.57 0.38, 16 0 M16 0 C67.52 1.36, 118.88 -0.47, 174.48 0.04 C182.16 -0.85, 189.59 7.65, 190 16 C188.81 24.72, 189.68 33.03, 189.4 41.78 C190.56 50.71, 182.62 57.03, 174 58 C121.43 58.87, 69.44 57.86, 15.38 57.7 C7.41 57.83, 0.69 51.43, 0 42 C-1.28 32.19, -1.35 23.95, -0.66 16.47 C0.98 6.49, 7.44 1.2, 16 0" stroke="#e8590c" stroke-width="1.7" fill="none" stroke-linecap="round"></path></g><text x="915" y="320" font-family="Virgil, Segoe UI Emoji" font-size="13.9px" fill="#1e1e1e" text-anchor="middle" dominant-baseline="central" style="white-space:pre">Spark Streaming / Hadoop</text><text x="915" y="339" font-family="Virgil, Segoe UI Emoji" font-size="12px" fill="#495057" text-anchor="middle" dominant-baseline="central" style="white-space:pre">offline recsys</text><g transform="translate(1040 200)"><path d="M16 0 C61.06 0.49, 107.57 -0.15, 154.18 0.12 C162.83 -0.07, 169.63 6.79, 170 16 C169.84 24.55, 169.67 32.63, 170.3 42.21 C169.98 50.72, 162.84 58.19, 154 58 C108.76 58.34, 62.78 57.53, 16.11 57.83 C7.79 57.54, -0.1 50.3, 0 42 C-0.04 33.04, -0.41 24.87, -0.03 16.24 C0.59 6.91, 7.43 -0.11, 16 0 Z" stroke="none" fill="#a5d8ff"></path><path d="M16 0 C61.5 -0.58, 106.2 -1.03, 153.8 0.47 C163.29 -0.91, 169.46 7.91, 170 16 C170.32 24.13, 169.72 32.06, 170.14 42.62 C169.77 50.52, 164.13 58.39, 154 58 C108.15 58.49, 63.64 58.14, 15.69 58.33 C6.27 56.65, -1.03 52.19, 0 42 C0.57 32.25, -0.38 23.65, -0.14 16 C0.71 7.66, 6.41 0.06, 16 0 M16 0 C62.71 -1.24, 106.94 0.13, 154.59 0.28 C161.58 1.31, 169.51 6.64, 170 16 C169.98 23.65, 170.4 34.12, 169.58 42.63 C168.79 49.78, 162.11 58.78, 154 58 C107.26 58.38, 62.21 57.82, 15.76 58.63 C7.13 59.04, 0.73 51.42, 0 42 C-1.15 34.81, 1.1 26.15, 0.24 15.6 C-1.11 6.97, 6.75 -0.19, 16 0" stroke="#1971c2" stroke-width="1.7" fill="none" stroke-linecap="round"></path></g><text x="1125" y="220" font-family="Virgil, Segoe UI Emoji" font-size="14.8px" fill="#1e1e1e" text-anchor="middle" dominant-baseline="central" style="white-space:pre">Serviceability / TAT</text><text x="1125" y="239" font-family="Virgil, Segoe UI Emoji" font-size="12px" fill="#495057" text-anchor="middle" dominant-baseline="central" style="white-space:pre">delivery ETA · offline</text><g transform="translate(1040 300)"><path d="M16 0 C61.97 -0.45, 106.73 -0.27, 153.78 -0.16 C162.51 -0.59, 169.84 6.98, 170 16 C170.44 24.4, 170.47 33.52, 169.95 42.12 C169.93 50.8, 162.92 58.25, 154 58 C109 57.53, 62.58 57.57, 15.82 58.27 C7.46 58.02, -0.58 50.38, 0 42 C0.35 33.1, -0.28 24.86, -0.29 15.9 C-0.24 7.36, 7.74 0.55, 16 0 Z" stroke="none" fill="#ffc9c9"></path><path d="M16 0 C62.63 0.17, 105.77 -1.38, 154.4 0.41 C163.03 1.02, 171.37 6.12, 170 16 C170.24 23.53, 169.58 31.93, 169.48 42.69 C170.48 52.14, 163.65 57.12, 154 58 C109.22 57.86, 62 58.14, 15.4 57.79 C6.66 56.75, -0.69 50, 0 42 C-0.38 34.11, 0.54 24.6, -0.26 15.78 C-0.05 7.94, 6.96 -0.62, 16 0 M16 0 C61.54 -0.1, 107.77 -0.95, 154.2 -0.24 C162.25 0.66, 169.81 7.13, 170 16 C168.63 24.41, 169.63 34.13, 170.16 42.46 C170.03 51.92, 161.65 58.44, 154 58 C107.63 57.16, 63.63 57.67, 16.05 57.39 C6.07 57.06, -0.08 50.97, 0 42 C-1.31 33.92, 0.26 25.14, -0.19 15.76 C-0.55 6.48, 8.29 1.3, 16 0" stroke="#e03131" stroke-width="1.7" fill="none" stroke-linecap="round"></path></g><text x="1125" y="320" font-family="Virgil, Segoe UI Emoji" font-size="14.1px" fill="#1e1e1e" text-anchor="middle" dominant-baseline="central" style="white-space:pre">Warehouse + Logistics</text><text x="1125" y="339" font-family="Virgil, Segoe UI Emoji" font-size="12px" fill="#495057" text-anchor="middle" dominant-baseline="central" style="white-space:pre">inventory · routes</text><g transform="translate(60 300)"><path d="M16 0 C67.89 -0.37, 120.44 -0.57, 173.82 0.22 C182.98 0.5, 190.02 7.75, 190 16 C189.76 24.75, 190.33 33.39, 190.28 42.27 C190.07 51.09, 183.32 58.18, 174 58 C122.25 57.44, 69.93 57.65, 16.02 57.72 C7.63 58.11, 0.3 50.95, 0 42 C-0.08 33, 0.03 25.05, 0.1 16.3 C-0.59 7.26, 6.79 0.33, 16 0 Z" stroke="none" fill="#a5d8ff"></path><path d="M16 0 C68.98 1, 118.96 0.75, 174.67 -0.67 C183.1 -0.01, 191.03 6.68, 190 16 C189.81 23.96, 190.32 33.03, 189.66 41.94 C189.05 51.96, 184.12 58.73, 174 58 C121.4 58.12, 69.83 57.67, 16.42 57.57 C8.53 57.55, -0.03 51.87, 0 42 C0.68 32.11, -1.28 24.48, -0.15 15.53 C1.08 7.91, 6.09 -0.28, 16 0 M16 0 C67.17 -0.56, 120.85 -1.28, 173.99 0.25 C183.51 0.49, 190.54 7.19, 190 16 C189.91 23.33, 189.36 33.87, 189.37 42.15 C188.88 50.22, 182.5 59.39, 174 58 C122.02 57.44, 69.35 57.06, 16.4 57.52 C7.67 56.84, -0.99 50.8, 0 42 C0.21 32.27, 0.41 24.07, -0.02 16.23 C1.24 7.23, 7.98 0.49, 16 0" stroke="#1971c2" stroke-width="1.7" fill="none" stroke-linecap="round"></path></g><text x="155" y="320" font-family="Virgil, Segoe UI Emoji" font-size="15px" fill="#1e1e1e" text-anchor="middle" dominant-baseline="central" style="white-space:pre">Supplier Onboarding</text><text x="155" y="339" font-family="Virgil, Segoe UI Emoji" font-size="12px" fill="#495057" text-anchor="middle" dominant-baseline="central" style="white-space:pre">inbound catalog feed</text><g transform="translate(120 470)"><path d="M16 0 C348.66 -0.49, 681.78 0.03, 1023.92 0.13 C1032.51 -0.14, 1039.72 7.62, 1040 16 C1040.03 24.35, 1040.35 31.93, 1040.04 39.8 C1040.29 49.25, 1032.42 56.48, 1024 56 C691.36 55.75, 359.15 56.34, 15.9 56.05 C7.28 55.45, -0.51 49.2, 0 40 C-0.13 31.81, 0.46 23.65, 0.14 15.76 C-0.44 7.46, 6.96 0.02, 16 0 Z" stroke="none" fill="#ffd8a8"></path><path d="M16 0 C348.35 -0.49, 681.49 0.5, 1023.8 -0.32 C1031.78 -0.2, 1039.47 7.08, 1040 16 C1038.61 22.95, 1040.55 31.41, 1040.66 40.65 C1040.42 48.95, 1032.46 55, 1024 56 C690.08 57.37, 358.65 56.51, 15.72 56.19 C6.57 55.83, 0.18 49.82, 0 40 C-0.73 31.23, -1.39 23.95, -0.05 16.06 C0.76 6.49, 8.27 0.14, 16 0 M16 0 C347.51 0.84, 680.9 -0.46, 1023.98 -0.07 C1033.28 -1.09, 1039.17 7.53, 1040 16 C1038.85 23.24, 1040.42 30.87, 1040.14 40.22 C1038.74 49.62, 1032.67 56.75, 1024 56 C690.34 54.84, 359.46 57.26, 16.52 56.66 C7.24 57.36, -0.33 47.84, 0 40 C0.37 33.28, -0.51 22.97, 0.07 16.23 C0.41 8.59, 7.57 -0.77, 16 0" stroke="#e8590c" stroke-width="1.7" fill="none" stroke-linecap="round"></path></g><text x="640" y="489" font-family="Virgil, Segoe UI Emoji" font-size="15px" fill="#1e1e1e" text-anchor="middle" dominant-baseline="central" style="white-space:pre">Apache Kafka</text><text x="640" y="508" font-family="Virgil, Segoe UI Emoji" font-size="12px" fill="#495057" text-anchor="middle" dominant-baseline="central" style="white-space:pre">shared event spine · search ingest · order &amp; rec events</text><g transform="translate(60 580)"><path d="M16 0 C67.63 0.2, 120.27 -0.18, 174.1 0.09 C183.31 0.54, 190.38 6.72, 190 16 C190.49 23.23, 190.42 30.25, 189.8 37.86 C189.73 46.99, 183.01 53.65, 174 54 C121.96 53.47, 69.91 53.75, 15.99 53.95 C7.19 53.71, -0.57 47.25, 0 38 C-0.54 30.75, -0.23 23.21, -0.28 15.96 C0.31 7.23, 7.65 0.07, 16 0 Z" stroke="none" fill="#b2f2bb"></path><path d="M16 0 C66.93 1.18, 121.57 -0.42, 173.65 0.19 C182.7 -0.64, 190.31 6.41, 190 16 C190.13 21.92, 189.02 30.48, 189.35 37.69 C189.97 48.1, 183.07 54.68, 174 54 C122.86 54.98, 68.73 53.3, 15.42 53.57 C8.2 53.52, 1.07 46.45, 0 38 C-0.11 31.39, 0.77 22.9, 0.03 16.3 C-0.74 8.03, 6.42 -0.99, 16 0 M16 0 C67.14 0.57, 120.63 -1.16, 173.63 0.53 C182.29 -0.95, 190.48 7.2, 190 16 C190.98 24.14, 188.77 30, 189.72 37.7 C189.07 46.24, 183.41 53.95, 174 54 C122.48 53.59, 69.45 52.89, 15.99 54.08 C6.75 55.24, -0.39 46.3, 0 38 C-1.1 29.92, 0.75 24.12, -0.29 16.55 C-0.76 8.14, 7.93 -0.04, 16 0" stroke="#2f9e44" stroke-width="1.7" fill="none" stroke-linecap="round"></path></g><text x="155" y="598" font-family="Virgil, Segoe UI Emoji" font-size="15px" fill="#1e1e1e" text-anchor="middle" dominant-baseline="central" style="white-space:pre">User</text><text x="155" y="617" font-family="Virgil, Segoe UI Emoji" font-size="12px" fill="#495057" text-anchor="middle" dominant-baseline="central" style="white-space:pre">cart · checkout</text><g transform="translate(320 580)"><path d="M16 0 C74.33 -0.32, 133.79 -0.08, 194.08 0.24 C202.28 0.35, 210.3 7.37, 210 16 C210.45 23.63, 210.56 30.38, 209.82 38.19 C209.81 47.04, 202.2 54.21, 194 54 C135 53.69, 76.04 53.84, 15.7 54.15 C7.51 53.67, -0.54 46.86, 0 38 C-0.18 30.62, 0.54 23.47, -0.06 16.24 C0.34 7.04, 7.58 0.35, 16 0 Z" stroke="none" fill="#dee2e6"></path><path d="M16 0 C75.52 -1.24, 133.38 -0.83, 193.44 -0.4 C203.97 -1.35, 209.1 6.28, 210 16 C209.11 22.61, 210.41 29.64, 210.51 38.01 C209.53 45.71, 203.22 52.89, 194 54 C134.65 52.99, 75.56 54.74, 15.9 53.73 C6.92 52.86, 0.15 48.12, 0 38 C-1.32 31.89, 1.18 22.16, 0.05 15.82 C-1.23 6.7, 8.46 -1.1, 16 0 M16 0 C73.77 0.99, 132.44 -1.35, 193.47 0.28 C203.04 -0.28, 209.16 7.8, 210 16 C211.04 24.46, 209.12 29.77, 210.29 37.74 C210.88 46.34, 203.76 54.81, 194 54 C134.84 52.76, 77.39 54.35, 16.68 54.64 C8.3 54.84, -1.24 48.13, 0 38 C-0.21 29.78, -0.88 22.09, 0.13 15.59 C-1.24 5.96, 6.46 -0.82, 16 0" stroke="#495057" stroke-width="1.7" fill="none" stroke-linecap="round"></path></g><text x="425" y="598" font-family="Virgil, Segoe UI Emoji" font-size="15px" fill="#1e1e1e" text-anchor="middle" dominant-baseline="central" style="white-space:pre">API Gateway + LB</text><text x="425" y="617" font-family="Virgil, Segoe UI Emoji" font-size="12px" fill="#495057" text-anchor="middle" dominant-baseline="central" style="white-space:pre">auth · TLS · routing</text><g transform="translate(290 690)"><path d="M16 0 C68.56 0.18, 120.16 0.38, 174.29 -0.22 C183.34 -0.57, 189.52 7.38, 190 16 C190.59 24.28, 190.43 33.55, 190.14 42.18 C190.26 50.94, 182.42 57.69, 174 58 C121.94 58.2, 69.57 58.32, 15.83 57.92 C7.16 58.37, -0.19 50.24, 0 42 C0.52 33.56, -0.08 25.25, -0.22 15.73 C-0.39 7.68, 7.63 0.36, 16 0 Z" stroke="none" fill="#a5d8ff"></path><path d="M16 0 C68.15 0.86, 120.71 1.18, 173.77 0.07 C184.12 -0.07, 190.84 7.44, 190 16 C191.03 23.43, 189.6 33.57, 190.31 41.49 C190.07 50.92, 181.96 58.41, 174 58 C121.5 57, 69.09 59.21, 16.16 58.45 C6.76 59.03, 0.93 51.5, 0 42 C0.14 34.8, 0.85 24.89, -0.37 16.22 C0.56 6.29, 6.65 0.83, 16 0 M16 0 C67.73 -1.33, 118.92 0.16, 174.05 -0.18 C183.87 0.19, 189.92 6.71, 190 16 C189.26 25.73, 190.69 33.46, 190.3 41.35 C190.47 51.91, 182.49 57.54, 174 58 C121.72 59.2, 70.8 58.86, 16.37 58.04 C6.89 56.95, -0.08 52.07, 0 42 C0.97 33.55, -1.23 24.6, -0.3 16.57 C-0.12 6.87, 6.1 0.99, 16 0" stroke="#1971c2" stroke-width="1.7" fill="none" stroke-linecap="round"></path></g><text x="385" y="710" font-family="Virgil, Segoe UI Emoji" font-size="15px" fill="#1e1e1e" text-anchor="middle" dominant-baseline="central" style="white-space:pre">Order-Taking Service</text><text x="385" y="729" font-family="Virgil, Segoe UI Emoji" font-size="12px" fill="#495057" text-anchor="middle" dominant-baseline="central" style="white-space:pre">cart · MySQL</text><g transform="translate(550 690)"><path d="M16 0 C68.32 -0.5, 120.59 0.37, 174.08 -0.09 C182.9 0.05, 189.94 7.41, 190 16 C190.44 24.61, 190.34 33.63, 190.28 41.88 C189.59 51.08, 183.17 57.58, 174 58 C122.04 57.65, 69.46 57.52, 15.87 57.86 C7.69 57.64, -0.21 51.14, 0 42 C0.21 33.68, 0.2 24.31, -0.15 16.04 C0.09 7.54, 7.21 -0.37, 16 0 Z" stroke="none" fill="#a5d8ff"></path><path d="M16 0 C68.58 0.2, 121.25 -1.14, 174.25 -0.19 C182.77 -0.62, 190.75 8.04, 190 16 C189.96 24.04, 190.53 31.85, 190.25 41.77 C191.04 51.18, 183.24 58.74, 174 58 C120.68 57.89, 71.09 57.52, 16.48 57.79 C6.8 58.61, -0.3 51.1, 0 42 C0 33.42, -0.84 23.54, 0.32 16.46 C0.18 7.25, 8.08 -0.19, 16 0 M16 0 C68.61 -0.63, 120.44 0.28, 174.59 -0.01 C183.46 0.48, 190.9 6.85, 190 16 C189.46 24.75, 189.66 32.54, 190.47 42.52 C191.35 49.85, 184.08 58.53, 174 58 C121.53 57.24, 69.99 57.05, 16.22 58.45 C8.03 58.08, 1.13 50.72, 0 42 C1.26 34.25, -1.09 23.47, 0.02 16.25 C0.06 8.09, 6.98 -0.55, 16 0" stroke="#1971c2" stroke-width="1.7" fill="none" stroke-linecap="round"></path></g><text x="645" y="710" font-family="Virgil, Segoe UI Emoji" font-size="15px" fill="#1e1e1e" text-anchor="middle" dominant-baseline="central" style="white-space:pre">Inventory Service</text><text x="645" y="729" font-family="Virgil, Segoe UI Emoji" font-size="12px" fill="#495057" text-anchor="middle" dominant-baseline="central" style="white-space:pre">reserve · atomic</text><g transform="translate(810 690)"><path d="M16 0 C61.57 -0.31, 107.5 -0.39, 153.89 -0.08 C162.27 -0.14, 169.75 6.67, 170 16 C170.2 24.65, 169.44 33.05, 170.06 42.03 C169.59 50.76, 162.61 57.58, 154 58 C108.73 57.62, 62.46 58.26, 16.03 58.1 C7.12 58.01, 0.53 50.28, 0 42 C0.03 33.76, -0.18 25.1, 0.26 16.03 C0.5 7.41, 7.11 0.26, 16 0 Z" stroke="none" fill="#a5d8ff"></path><path d="M16 0 C60.74 -0.7, 107.2 1.39, 154.3 0.67 C163.44 0.49, 171.1 5.99, 170 16 C171.12 25.04, 171.35 32.26, 170.1 42.17 C170.68 49.66, 163.21 58.48, 154 58 C109.72 58.61, 63 57.2, 16.61 58.59 C5.85 58.82, -0.62 50.09, 0 42 C0.12 33.82, 0.82 24.89, -0.59 15.34 C-0.84 7.7, 7.26 0.38, 16 0 M16 0 C61.28 -0.74, 107.05 -0.07, 153.69 0.29 C161.81 -0.45, 171.37 8.12, 170 16 C168.97 23.3, 170.82 34.52, 170.14 41.34 C168.81 50.13, 163.35 58.52, 154 58 C107.55 58.25, 62.43 59.16, 15.54 57.51 C5.9 57.91, -0.37 50, 0 42 C0.75 32.03, 0.93 25.36, 0.49 16.58 C0.07 6.91, 6.94 0.39, 16 0" stroke="#1971c2" stroke-width="1.7" fill="none" stroke-linecap="round"></path></g><text x="895" y="710" font-family="Virgil, Segoe UI Emoji" font-size="15px" fill="#1e1e1e" text-anchor="middle" dominant-baseline="central" style="white-space:pre">Payment Service</text><text x="895" y="729" font-family="Virgil, Segoe UI Emoji" font-size="12px" fill="#495057" text-anchor="middle" dominant-baseline="central" style="white-space:pre">idempotent · orchestrate</text><g transform="translate(1055 690)"><path d="M16 0 C63.42 0, 109.86 0.32, 159.29 -0.03 C167.39 0.1, 175.19 7.17, 175 16 C175.1 24.21, 174.41 32.9, 174.71 41.94 C175.11 51.1, 167.56 57.49, 159 58 C111.5 57.95, 65.06 58.21, 16.19 58 C7.51 57.73, -0.05 50.43, 0 42 C-0.17 32.95, -0.51 24.49, 0.01 16.03 C0.17 6.63, 7.41 -0.33, 16 0 Z" stroke="none" fill="#a5d8ff"></path><path d="M16 0 C64.57 -1.17, 109.31 0.95, 159.24 0.56 C166.84 -0.93, 174.99 6.94, 175 16 C176.26 24.04, 175.98 32.13, 175.52 42.1 C176.38 50.41, 167.22 57.12, 159 58 C111.36 58.06, 63.55 56.78, 16.05 58.46 C8.41 58.93, 0.73 51.8, 0 42 C-0.44 33.76, -0.55 24.23, 0.61 15.6 C-0.95 6.14, 7.68 -0.53, 16 0 M16 0 C63.87 -0.75, 110.61 -0.56, 159.68 0.69 C167.78 -0.45, 176.29 6.52, 175 16 C174.42 24.44, 174.89 32.9, 174.73 41.43 C174.45 50.04, 168.92 58.78, 159 58 C111.95 56.65, 64.62 58.6, 15.99 58.1 C6.89 58.31, -0.41 50.67, 0 42 C0.48 33.23, 1.03 23.47, -0.29 15.45 C-0.93 6.99, 5.82 -0.71, 16 0" stroke="#1971c2" stroke-width="1.7" fill="none" stroke-linecap="round"></path></g><text x="1142.5" y="710" font-family="Virgil, Segoe UI Emoji" font-size="15px" fill="#1e1e1e" text-anchor="middle" dominant-baseline="central" style="white-space:pre">Order-Processing</text><text x="1142.5" y="729" font-family="Virgil, Segoe UI Emoji" font-size="12px" fill="#495057" text-anchor="middle" dominant-baseline="central" style="white-space:pre">state machine</text><g transform="translate(290 800)"><path d="M16 0 C67.71 -0.33, 120.16 0.35, 174.17 0 C182.42 0.14, 190.54 7.18, 190 16 C189.86 24.63, 190.05 32.73, 189.78 42.03 C189.48 50.42, 182.83 58.57, 174 58 C121.63 58.58, 69.44 57.43, 16.24 58.21 C7.06 57.6, 0.09 50.46, 0 42 C-0.26 33.14, -0.04 25.22, 0.14 15.7 C0.05 7.26, 6.69 -0.47, 16 0 Z" stroke="none" fill="#ffc9c9"></path><path d="M16 0 C68.88 -0.03, 120.75 -0.26, 174.55 -0.19 C182.52 0.43, 190.7 6.81, 190 16 C189.92 25.1, 190.96 33.81, 189.73 42.69 C190.64 50.19, 182.95 58.09, 174 58 C121.45 57.48, 68.9 57.76, 16.26 57.37 C7.3 58.57, 1.02 51.18, 0 42 C0.36 32.25, 0.01 26.14, -0.44 15.7 C0.22 6.08, 6.78 0.84, 16 0 M16 0 C67.21 0.3, 120.88 -1.14, 173.56 -0.32 C182.08 1.2, 190.43 8.44, 190 16 C191.03 24.9, 190.15 32, 190.48 41.47 C188.64 50.29, 183.78 58.71, 174 58 C121.54 56.67, 70.64 59.16, 16.23 57.48 C7.9 57.35, 1.28 52.13, 0 42 C0.55 34.65, -1.28 23.58, -0.06 16.05 C-0.41 7.15, 8.42 -1.32, 16 0" stroke="#e03131" stroke-width="1.7" fill="none" stroke-linecap="round"></path></g><text x="385" y="820" font-family="Virgil, Segoe UI Emoji" font-size="15px" fill="#1e1e1e" text-anchor="middle" dominant-baseline="central" style="white-space:pre">Order DB</text><text x="385" y="839" font-family="Virgil, Segoe UI Emoji" font-size="12px" fill="#495057" text-anchor="middle" dominant-baseline="central" style="white-space:pre">MySQL · orders</text><g transform="translate(550 800)"><path d="M16 0 C68.55 0.27, 119.88 -0.44, 173.76 -0.13 C182.27 -0.22, 189.92 6.71, 190 16 C190.53 24.03, 189.76 32.77, 190.17 41.73 C190.57 50.81, 183.26 57.42, 174 58 C122.35 58.34, 70.23 58.58, 16.3 58.15 C6.88 58.37, -0.25 51.15, 0 42 C-0.2 33.7, 0.48 24.38, -0.29 16.13 C0.11 7.23, 7.46 -0.36, 16 0 Z" stroke="none" fill="#ffc9c9"></path><path d="M16 0 C67.87 -1.38, 120.44 0.58, 173.63 -0.41 C181.51 0.69, 191.14 5.9, 190 16 C189.27 25.25, 190.82 34.23, 189.44 42.63 C191.23 49.56, 181.55 57.69, 174 58 C121.21 57.62, 69.18 56.61, 15.77 57.58 C8 58.67, -1.02 51.19, 0 42 C0.8 34.6, 1.26 25.36, -0.57 15.87 C1.12 8.05, 7.95 0.05, 16 0 M16 0 C66.89 0.1, 120.94 -0.23, 173.84 -0.69 C184.18 -0.91, 190.44 6.52, 190 16 C189.4 23.97, 189.56 32.96, 189.66 42.2 C190.08 49.62, 182.74 58.88, 174 58 C120.94 58.14, 70.91 57.4, 15.59 57.6 C7.78 59.3, 0.2 50.24, 0 42 C0.6 33.5, -0.06 25.11, -0.43 16.48 C-0.61 7.68, 6.08 0.46, 16 0" stroke="#e03131" stroke-width="1.7" fill="none" stroke-linecap="round"></path></g><text x="645" y="820" font-family="Virgil, Segoe UI Emoji" font-size="15px" fill="#1e1e1e" text-anchor="middle" dominant-baseline="central" style="white-space:pre">Inventory DB</text><text x="645" y="839" font-family="Virgil, Segoe UI Emoji" font-size="9.6px" fill="#495057" text-anchor="middle" dominant-baseline="central" style="white-space:pre">MySQL · qty&gt;=0 · DECR · reservation</text><g transform="translate(810 800)"><path d="M16 0 C61.54 0.1, 107.06 -0.09, 154.21 0.17 C163.34 0.5, 169.5 7.54, 170 16 C170.25 25.16, 169.53 33.61, 170.22 42.05 C169.56 50.88, 162.68 57.93, 154 58 C108.3 58.51, 62.71 58.51, 16.1 58.18 C6.89 57.85, 0 50.25, 0 42 C-0.51 33.23, 0.08 25.29, 0.08 15.82 C0.44 7.66, 7.41 0.45, 16 0 Z" stroke="none" fill="#d0bfff"></path><path d="M16 0 C61.85 1.19, 106.56 -0.66, 154.35 0.56 C161.82 -1.22, 170.08 7.59, 170 16 C168.99 23.53, 168.91 32.77, 170.43 41.46 C171.4 51.85, 163.44 57.07, 154 58 C107.19 58.33, 62.9 57, 16.59 58.32 C6.76 57.3, -0.45 51.45, 0 42 C-0.77 34.03, 0.61 25.75, 0.56 15.38 C-0.33 7.09, 5.9 0.97, 16 0 M16 0 C61.57 0.42, 108.03 -0.99, 153.59 -0.41 C163.82 1.19, 169.91 7.7, 170 16 C169.48 24.38, 169.17 32.65, 170.62 42.62 C170.58 50.33, 162.18 58.28, 154 58 C107.62 58.2, 63.58 57.48, 16.39 58.68 C6.39 58.88, 1.36 50, 0 42 C-1.31 32.94, -0.36 24.99, 0.13 15.45 C0.86 6.55, 8.46 -0.13, 16 0" stroke="#7048e8" stroke-width="1.7" fill="none" stroke-linecap="round"></path></g><text x="895" y="820" font-family="Virgil, Segoe UI Emoji" font-size="15px" fill="#1e1e1e" text-anchor="middle" dominant-baseline="central" style="white-space:pre">Payment Gateway</text><text x="895" y="839" font-family="Virgil, Segoe UI Emoji" font-size="12px" fill="#495057" text-anchor="middle" dominant-baseline="central" style="white-space:pre">cards · UPI · wallets</text><g transform="translate(1055 800)"><path d="M16 0 C63.19 -0.45, 109.8 0.37, 159.04 0.15 C167.35 -0.51, 174.79 6.64, 175 16 C174.69 24.4, 174.97 33.72, 174.77 42.15 C175.16 51.33, 168.17 58.13, 159 58 C111.65 57.78, 65.05 57.77, 15.96 58.21 C7.35 58.59, -0.41 50.99, 0 42 C-0.6 33.61, -0.1 24.96, -0.2 16.18 C0.32 7.47, 7.25 -0.02, 16 0 Z" stroke="none" fill="#a5d8ff"></path><path d="M16 0 C62.76 1.15, 110.09 -0.92, 158.8 0.55 C167.98 0.77, 174.55 8.2, 175 16 C174.76 25.36, 174.77 34.3, 174.99 41.68 C174.52 51.22, 168.56 58.37, 159 58 C112.68 58.58, 64.38 57.97, 15.85 58.28 C5.99 58.89, -0.92 51.39, 0 42 C-0.18 34.64, -0.99 24.18, -0.63 16.52 C-1.32 7.16, 8.08 -1.15, 16 0 M16 0 C62.47 0.97, 110.52 0.23, 158.7 -0.28 C168.99 1.33, 175.68 8.07, 175 16 C174.48 25.44, 175.61 32.32, 175 42.04 C174.48 52.07, 167.39 56.88, 159 58 C113.04 56.91, 63.91 57.88, 15.96 58.46 C7.08 57.48, -0.77 49.7, 0 42 C0.96 33.49, -0.2 24.98, -0.69 15.99 C-1.04 7.47, 7.2 -0.16, 16 0" stroke="#1971c2" stroke-width="1.7" fill="none" stroke-linecap="round"></path></g><text x="1142.5" y="820" font-family="Virgil, Segoe UI Emoji" font-size="15px" fill="#1e1e1e" text-anchor="middle" dominant-baseline="central" style="white-space:pre">Archival Service</text><text x="1142.5" y="839" font-family="Virgil, Segoe UI Emoji" font-size="12px" fill="#495057" text-anchor="middle" dominant-baseline="central" style="white-space:pre">completed orders</text><g transform="translate(290 895)"><path d="M16 0 C68.21 -0.38, 120.7 -0.34, 174.05 0.04 C182.38 0.28, 190.42 7.45, 190 16 C190.41 24.22, 190.45 32.15, 189.72 40.18 C189.54 48.83, 182.38 56.53, 174 56 C121.96 55.51, 69.67 55.48, 15.91 56.1 C6.95 55.97, -0.31 49.21, 0 40 C0 32.59, -0.37 24.1, -0.21 16.12 C0.06 7.64, 7.17 0.33, 16 0 Z" stroke="none" fill="#d0bfff"></path><path d="M16 0 C67.23 -1.24, 119.85 -0.28, 174.44 0.3 C183.22 1.34, 191.27 7.71, 190 16 C188.94 25.19, 190.12 31.23, 190.29 39.99 C191 47.9, 183.86 56.16, 174 56 C120.75 55.19, 69.15 56.32, 16.04 56.05 C8.34 56.47, -0.23 49.2, 0 40 C-0.58 30.83, -0.81 24.51, 0.51 15.79 C-1.15 6.86, 5.94 0.66, 16 0 M16 0 C67.55 -0.47, 120.87 1.3, 173.83 0.23 C184.18 0.77, 191.09 7.41, 190 16 C189.81 24.35, 190.29 32.03, 190.48 40.04 C191.04 48.9, 183.23 55.2, 174 56 C121.43 57.03, 69.45 54.91, 16.62 56.06 C7.34 57.17, 0.75 47.77, 0 40 C0.67 32.1, -1.31 22.97, -0.26 16.02 C1.18 8.33, 6.31 0.91, 16 0" stroke="#7048e8" stroke-width="1.7" fill="none" stroke-linecap="round"></path></g><text x="385" y="914" font-family="Virgil, Segoe UI Emoji" font-size="15px" fill="#1e1e1e" text-anchor="middle" dominant-baseline="central" style="white-space:pre">Notification Service</text><text x="385" y="933" font-family="Virgil, Segoe UI Emoji" font-size="12px" fill="#495057" text-anchor="middle" dominant-baseline="central" style="white-space:pre">email · SMS · push</text><g transform="translate(810 895)"><path d="M16 0 C68.72 0.47, 120.29 -0.54, 174.05 0.28 C182.55 0.17, 189.49 7.74, 190 16 C190.36 23.33, 189.49 31.36, 189.85 39.98 C190.56 48.76, 183.29 56.11, 174 56 C122.1 55.43, 70.02 55.8, 16.06 55.95 C7.25 56.4, -0.18 48.63, 0 40 C-0.14 32.17, 0.51 24.43, -0.04 15.87 C0.58 6.86, 6.72 0.21, 16 0 Z" stroke="none" fill="#a5d8ff"></path><path d="M16 0 C67.27 0.39, 119.27 0.77, 174.28 -0.69 C182.34 -0.71, 189.69 7.68, 190 16 C190.4 24.85, 189.29 31.84, 189.62 40.23 C190.53 48.26, 183.09 56.31, 174 56 C121.75 56.45, 69.22 56.63, 15.66 55.97 C6.79 57.34, 1.06 49.54, 0 40 C-0.02 31.86, 0.63 25.02, -0.57 16.6 C-0.28 7.78, 7.93 -0.8, 16 0 M16 0 C69.27 -0.35, 121.36 1.2, 173.64 0.18 C182.17 -1.06, 190.6 6, 190 16 C189.59 24.28, 190.63 31.26, 190.21 39.39 C189.3 49.43, 183.35 55.97, 174 56 C122.14 56.4, 70.21 56.14, 15.87 56 C8.56 56.37, -1.3 48.4, 0 40 C-0.83 33.11, 0.88 25.29, 0.42 16.62 C0.24 7.33, 8.51 -0.8, 16 0" stroke="#1971c2" stroke-width="1.7" fill="none" stroke-linecap="round"></path></g><text x="905" y="914" font-family="Virgil, Segoe UI Emoji" font-size="13.9px" fill="#1e1e1e" text-anchor="middle" dominant-baseline="central" style="white-space:pre">Historical-Order Service</text><text x="905" y="933" font-family="Virgil, Segoe UI Emoji" font-size="12px" fill="#495057" text-anchor="middle" dominant-baseline="central" style="white-space:pre">reads archive</text><g transform="translate(1055 895)"><path d="M16 0 C63.76 0.41, 110.56 0.08, 158.9 0.17 C167.84 0.13, 174.42 7.75, 175 16 C175.11 24.21, 174.55 31.88, 174.99 40.04 C174.6 49.4, 167.66 55.69, 159 56 C111.52 55.9, 64.53 55.84, 15.98 56.02 C7.25 55.63, 0 48.52, 0 40 C0.33 32.29, -0.52 24.71, 0.17 15.97 C0.31 7.63, 6.72 0.13, 16 0 Z" stroke="none" fill="#ffc9c9"></path><path d="M16 0 C63.02 -1.34, 111.27 0.95, 158.37 0.12 C168.93 1.17, 175.04 8.4, 175 16 C176.22 23.35, 174.87 31.06, 175.12 39.34 C173.9 49.61, 166.59 56.76, 159 56 C110.97 55.05, 63.38 57.1, 16.32 56.24 C6.43 55.58, -0.22 49.72, 0 40 C-1.38 31.63, 1.29 24.73, -0.59 15.46 C-0.9 8.28, 7.66 0.21, 16 0 M16 0 C62.99 -0.66, 109.8 -1.35, 159.58 0.39 C167.62 -0.49, 175.86 6.81, 175 16 C174.97 24.35, 175.48 31.83, 174.32 40.04 C175.34 48.46, 166.89 57.05, 159 56 C112.93 56.1, 65.94 56.5, 16.25 55.77 C8.13 56.61, -0.62 49.68, 0 40 C-1.03 31.82, -1.38 24.69, -0.1 15.99 C-0.94 6.15, 6.17 -0.12, 16 0" stroke="#e03131" stroke-width="1.7" fill="none" stroke-linecap="round"></path></g><text x="1142.5" y="914" font-family="Virgil, Segoe UI Emoji" font-size="15px" fill="#1e1e1e" text-anchor="middle" dominant-baseline="central" style="white-space:pre">Cassandra</text><text x="1142.5" y="933" font-family="Virgil, Segoe UI Emoji" font-size="12px" fill="#495057" text-anchor="middle" dominant-baseline="central" style="white-space:pre">completed-order archive</text><rect x="33" y="61" width="127" height="18" fill="#ffffff" stroke="none"></rect><text x="38" y="70" font-family="Virgil, Segoe UI Emoji" font-size="12.5px" fill="#495057" text-anchor="start" dominant-baseline="central" style="white-space:pre">Home / Search (AP)</text><rect x="33" y="551" width="146.5" height="18" fill="#ffffff" stroke="none"></rect><text x="38" y="560" font-family="Virgil, Segoe UI Emoji" font-size="12.5px" fill="#495057" text-anchor="start" dominant-baseline="central" style="white-space:pre">Checkout / Order (CP)</text><rect x="254.09" y="107.5" width="61.82" height="18" rx="6" ry="6" fill="#ffffff" fill-opacity="0.82" stroke="none"></rect><text x="285" y="116.5" font-family="Virgil, Segoe UI Emoji" font-size="11.5px" fill="#27313a" text-anchor="middle" dominant-baseline="central" style="white-space:pre">① request</text><rect x="367.08" y="176.5" width="55.84" height="18" rx="6" ry="6" fill="#ffffff" fill-opacity="0.82" stroke="none"></rect><text x="395" y="185.5" font-family="Virgil, Segoe UI Emoji" font-size="11.5px" fill="#27313a" text-anchor="middle" dominant-baseline="central" style="white-space:pre">② search</text><rect x="633.06" y="176.5" width="43.88" height="18" rx="6" ry="6" fill="#ffffff" fill-opacity="0.82" stroke="none"></rect><text x="655" y="185.5" font-family="Virgil, Segoe UI Emoji" font-size="11.5px" fill="#27313a" text-anchor="middle" dominant-baseline="central" style="white-space:pre">browse</text><rect x="896.05" y="176.5" width="37.9" height="18" rx="6" ry="6" fill="#ffffff" fill-opacity="0.82" stroke="none"></rect><text x="915" y="185.5" font-family="Virgil, Segoe UI Emoji" font-size="11.5px" fill="#27313a" text-anchor="middle" dominant-baseline="central" style="white-space:pre">recos</text><rect x="1112.03" y="176.5" width="25.94" height="18" rx="6" ry="6" fill="#ffffff" fill-opacity="0.82" stroke="none"></rect><text x="1125" y="185.5" font-family="Virgil, Segoe UI Emoji" font-size="11.5px" fill="#27313a" text-anchor="middle" dominant-baseline="central" style="white-space:pre">ETA</text><rect x="370.07" y="269.5" width="49.86" height="18" rx="6" ry="6" fill="#ffffff" fill-opacity="0.82" stroke="none"></rect><text x="395" y="278.5" font-family="Virgil, Segoe UI Emoji" font-size="11.5px" fill="#27313a" text-anchor="middle" dominant-baseline="central" style="white-space:pre">③ query</text><rect x="639.04" y="269.5" width="31.92" height="18" rx="6" ry="6" fill="#ffffff" fill-opacity="0.82" stroke="none"></rect><text x="655" y="278.5" font-family="Virgil, Segoe UI Emoji" font-size="11.5px" fill="#27313a" text-anchor="middle" dominant-baseline="central" style="white-space:pre">read</text><rect x="869.14" y="269.5" width="91.72" height="18" rx="6" ry="6" fill="#ffffff" fill-opacity="0.82" stroke="none"></rect><text x="915" y="278.5" font-family="Virgil, Segoe UI Emoji" font-size="11.5px" fill="#27313a" text-anchor="middle" dominant-baseline="central" style="white-space:pre">offline recsys</text><rect x="1085.12" y="269.5" width="79.76" height="18" rx="6" ry="6" fill="#ffffff" fill-opacity="0.82" stroke="none"></rect><text x="1125" y="278.5" font-family="Virgil, Segoe UI Emoji" font-size="11.5px" fill="#27313a" text-anchor="middle" dominant-baseline="central" style="white-space:pre">delivery ETA</text><rect x="112.13" y="404.5" width="85.74" height="18" rx="6" ry="6" fill="#ffffff" fill-opacity="0.82" stroke="none"></rect><text x="155" y="413.5" font-family="Virgil, Segoe UI Emoji" font-size="11.5px" fill="#27313a" text-anchor="middle" dominant-baseline="central" style="white-space:pre">supplier feed</text><rect x="376.05" y="404.5" width="37.9" height="18" rx="6" ry="6" fill="#ffffff" fill-opacity="0.82" stroke="none"></rect><text x="395" y="413.5" font-family="Virgil, Segoe UI Emoji" font-size="11.5px" fill="#27313a" text-anchor="middle" dominant-baseline="central" style="white-space:pre">index</text><rect x="893.06" y="404.5" width="43.88" height="18" rx="6" ry="6" fill="#ffffff" fill-opacity="0.82" stroke="none"></rect><text x="915" y="413.5" font-family="Virgil, Segoe UI Emoji" font-size="11.5px" fill="#27313a" text-anchor="middle" dominant-baseline="central" style="white-space:pre">stream</text><rect x="251.1" y="597.5" width="67.8" height="18" rx="6" ry="6" fill="#ffffff" fill-opacity="0.82" stroke="none"></rect><text x="285" y="606.5" font-family="Virgil, Segoe UI Emoji" font-size="11.5px" fill="#27313a" text-anchor="middle" dominant-baseline="central" style="white-space:pre">① checkout</text><rect x="415.07" y="655.5" width="49.86" height="18" rx="6" ry="6" fill="#ffffff" fill-opacity="0.82" stroke="none"></rect><text x="440" y="664.5" font-family="Virgil, Segoe UI Emoji" font-size="11.5px" fill="#27313a" text-anchor="middle" dominant-baseline="central" style="white-space:pre">② order</text><rect x="484.09" y="709.5" width="61.82" height="18" rx="6" ry="6" fill="#ffffff" fill-opacity="0.82" stroke="none"></rect><text x="515" y="718.5" font-family="Virgil, Segoe UI Emoji" font-size="11.5px" fill="#27313a" text-anchor="middle" dominant-baseline="central" style="white-space:pre">③ reserve</text><rect x="747.08" y="709.5" width="55.84" height="18" rx="6" ry="6" fill="#ffffff" fill-opacity="0.82" stroke="none"></rect><text x="775" y="718.5" font-family="Virgil, Segoe UI Emoji" font-size="11.5px" fill="#27313a" text-anchor="middle" dominant-baseline="central" style="white-space:pre">④ charge</text><rect x="986.59" y="709.5" width="61.82" height="18" rx="6" ry="6" fill="#ffffff" fill-opacity="0.82" stroke="none"></rect><text x="1017.5" y="718.5" font-family="Virgil, Segoe UI Emoji" font-size="11.5px" fill="#27313a" text-anchor="middle" dominant-baseline="central" style="white-space:pre">⑤ process</text><rect x="366.05" y="764.5" width="37.9" height="18" rx="6" ry="6" fill="#ffffff" fill-opacity="0.82" stroke="none"></rect><text x="385" y="773.5" font-family="Virgil, Segoe UI Emoji" font-size="11.5px" fill="#27313a" text-anchor="middle" dominant-baseline="central" style="white-space:pre">MySQL</text><rect x="629.04" y="764.5" width="31.92" height="18" rx="6" ry="6" fill="#ffffff" fill-opacity="0.82" stroke="none"></rect><text x="645" y="773.5" font-family="Virgil, Segoe UI Emoji" font-size="11.5px" fill="#27313a" text-anchor="middle" dominant-baseline="central" style="white-space:pre">DECR</text><rect x="864.09" y="764.5" width="61.82" height="18" rx="6" ry="6" fill="#ffffff" fill-opacity="0.82" stroke="none"></rect><text x="895" y="773.5" font-family="Virgil, Segoe UI Emoji" font-size="11.5px" fill="#27313a" text-anchor="middle" dominant-baseline="central" style="white-space:pre">authorize</text><rect x="1117.57" y="764.5" width="49.86" height="18" rx="6" ry="6" fill="#ffffff" fill-opacity="0.82" stroke="none"></rect><text x="1142.5" y="773.5" font-family="Virgil, Segoe UI Emoji" font-size="11.5px" fill="#27313a" text-anchor="middle" dominant-baseline="central" style="white-space:pre">archive</text><rect x="1123.55" y="866.5" width="37.9" height="18" rx="6" ry="6" fill="#ffffff" fill-opacity="0.82" stroke="none"></rect><text x="1142.5" y="875.5" font-family="Virgil, Segoe UI Emoji" font-size="11.5px" fill="#27313a" text-anchor="middle" dominant-baseline="central" style="white-space:pre">store</text><rect x="1011.54" y="913.5" width="31.92" height="18" rx="6" ry="6" fill="#ffffff" fill-opacity="0.82" stroke="none"></rect><text x="1027.5" y="922.5" font-family="Virgil, Segoe UI Emoji" font-size="11.5px" fill="#27313a" text-anchor="middle" dominant-baseline="central" style="white-space:pre">read</text><rect x="1102.62" y="535.5" width="79.76" height="18" rx="6" ry="6" fill="#ffffff" fill-opacity="0.82" stroke="none"></rect><text x="1142.5" y="544.5" font-family="Virgil, Segoe UI Emoji" font-size="11.5px" fill="#27313a" text-anchor="middle" dominant-baseline="central" style="white-space:pre">order events</text><rect x="145.06" y="895.5" width="43.88" height="18" rx="6" ry="6" fill="#ffffff" fill-opacity="0.82" stroke="none"></rect><text x="167" y="904.5" font-family="Virgil, Segoe UI Emoji" font-size="11.5px" fill="#27313a" text-anchor="middle" dominant-baseline="central" style="white-space:pre">notify</text></g>
</svg>
