<?xml version="1.0" encoding="UTF-8"?>
<svg data-enhanced="1" id="diagram" viewBox="0 0 1250 1026" xmlns="http://www.w3.org/2000/svg" width="1250" height="1026"><title>E-commerce Platform (Amazon / Flipkart) — high-level architecture (HLD)</title><desc>High-level architecture diagram. Rounded boxes are stateless services or datastores; solid arrows mark the critical/synchronous request path and dashed arrows mark asynchronous or secondary flows; dashed rounded containers group a service boundary. Colour denotes role: blue = service, teal = datastore, orange = queue/stream, green = external/3rd-party, indigo = gateway/load balancer.</desc><style>@media (prefers-color-scheme:dark){.dgm-bg{fill:#0b1220}rect[fill="#fff"]{fill:#1f2937}rect[fill="#ffffff"]:not(.dgm-bg):not(.dgm-leg){fill:#1f2937}rect[fill="#f8fafc"]{fill:#111827}[fill="#3c454d"]{fill:#cbd5e1}[fill="#27313a"]{fill:#e5e7eb}path[stroke="#55606a"]{stroke:#94a3b8}polygon[fill="#55606a"]{fill:#94a3b8}[stroke="#dde2e7"]{stroke:#3b4657}}</style><rect class="dgm-bg" x="0" y="0" width="1250" height="1026" fill="#ffffff"></rect><g><rect x="20" y="70" width="1210" height="360" rx="14" ry="14" fill="#f8fafc" stroke="#64748b" stroke-width="1.6" stroke-dasharray="7 5"></rect><rect x="34" y="47" width="138" height="22" rx="7" ry="7" fill="#475569"></rect><text x="103" y="58" fill="#fff" font-size="11.5" font-weight="700" text-anchor="middle" dominant-baseline="central">▢ Home / Search (AP)</text><rect x="20" y="560" width="1210" height="400" rx="14" ry="14" fill="#f8fafc" stroke="#64748b" stroke-width="1.6" stroke-dasharray="7 5"></rect><rect x="34" y="537" width="158.7" height="22" rx="7" ry="7" fill="#475569"></rect><text x="113.35" y="548" fill="#fff" font-size="11.5" font-weight="700" text-anchor="middle" dominant-baseline="central">▢ Checkout / Order (CP)</text></g><g><path d="M250,117 L320,117" fill="none" stroke="#55606a" stroke-width="1.9" stroke-linejoin="round" stroke-linecap="round"></path><polygon points="320,117 311.326,120.874 311.326,113.126" fill="#55606a"></polygon><path d="M425,144 L425,172 L395,172 L395,200" fill="none" stroke="#55606a" stroke-width="1.9" stroke-linejoin="round" stroke-linecap="round"></path><polygon points="395,200 391.126,191.326 398.874,191.326" fill="#55606a"></polygon><path d="M425,144 L425,172 L655,172 L655,200" fill="none" stroke="#55606a" stroke-width="1.9" stroke-linejoin="round" stroke-linecap="round"></path><polygon points="655,200 651.126,191.326 658.874,191.326" fill="#55606a"></polygon><path d="M425,144 L425,172 L915,172 L915,200" fill="none" stroke="#55606a" stroke-width="1.9" stroke-linejoin="round" stroke-linecap="round"></path><polygon points="915,200 911.126,191.326 918.874,191.326" fill="#55606a"></polygon><path d="M425,144 L425,172 L1125,172 L1125,200" fill="none" stroke="#55606a" stroke-width="1.9" stroke-linejoin="round" stroke-linecap="round"></path><polygon points="1125,200 1121.126,191.326 1128.874,191.326" fill="#55606a"></polygon><path d="M395,258 L395,300" fill="none" stroke="#55606a" stroke-width="1.9" stroke-linejoin="round" stroke-linecap="round"></path><polygon points="395,300 391.126,291.326 398.874,291.326" fill="#55606a"></polygon><path d="M655,258 L655,300" fill="none" stroke="#55606a" stroke-width="1.9" stroke-linejoin="round" stroke-linecap="round"></path><polygon points="655,300 651.126,291.326 658.874,291.326" fill="#55606a"></polygon><path d="M915,300 L915,258" fill="none" stroke="#aab2bb" stroke-width="1.6" stroke-linejoin="round" stroke-linecap="round" stroke-dasharray="6 5"></path><polygon points="915,258 911.126,266.674 918.874,266.674" fill="#aab2bb"></polygon><path d="M1125,300 L1125,258" fill="none" stroke="#aab2bb" stroke-width="1.6" stroke-linejoin="round" stroke-linecap="round" stroke-dasharray="6 5"></path><polygon points="1125,258 1121.126,266.674 1128.874,266.674" fill="#aab2bb"></polygon><path d="M155,358 L155,470" fill="none" stroke="#aab2bb" stroke-width="1.6" stroke-linejoin="round" stroke-linecap="round" stroke-dasharray="6 5"></path><polygon points="155,470 151.126,461.326 158.874,461.326" fill="#aab2bb"></polygon><path d="M395,470 L395,358" fill="none" stroke="#aab2bb" stroke-width="1.6" stroke-linejoin="round" stroke-linecap="round" stroke-dasharray="6 5"></path><polygon points="395,358 391.126,366.674 398.874,366.674" fill="#aab2bb"></polygon><path d="M915,470 L915,358" fill="none" stroke="#aab2bb" stroke-width="1.6" stroke-linejoin="round" stroke-linecap="round" stroke-dasharray="6 5"></path><polygon points="915,358 911.126,366.674 918.874,366.674" fill="#aab2bb"></polygon><path d="M250,607 L320,607" fill="none" stroke="#55606a" stroke-width="1.9" stroke-linejoin="round" stroke-linecap="round"></path><polygon points="320,607 311.326,610.874 311.326,603.126" fill="#55606a"></polygon><path d="M425,634 L425,665 L385,665 L385,690" fill="none" stroke="#55606a" stroke-width="1.9" stroke-linejoin="round" stroke-linecap="round"></path><polygon points="385,690 381.126,681.326 388.874,681.326" fill="#55606a"></polygon><path d="M480,719 L550,719" fill="none" stroke="#55606a" stroke-width="1.9" stroke-linejoin="round" stroke-linecap="round"></path><polygon points="550,719 541.326,722.874 541.326,715.126" fill="#55606a"></polygon><path d="M740,719 L810,719" fill="none" stroke="#55606a" stroke-width="1.9" stroke-linejoin="round" stroke-linecap="round"></path><polygon points="810,719 801.326,722.874 801.326,715.126" fill="#55606a"></polygon><path d="M980,719 L1055,719" fill="none" stroke="#55606a" stroke-width="1.9" stroke-linejoin="round" stroke-linecap="round"></path><polygon points="1055,719 1046.326,722.874 1046.326,715.126" fill="#55606a"></polygon><path d="M385,748 L385,800" fill="none" stroke="#55606a" stroke-width="1.9" stroke-linejoin="round" stroke-linecap="round"></path><polygon points="385,800 381.126,791.326 388.874,791.326" fill="#55606a"></polygon><path d="M645,748 L645,800" fill="none" stroke="#55606a" stroke-width="1.9" stroke-linejoin="round" stroke-linecap="round"></path><polygon points="645,800 641.126,791.326 648.874,791.326" fill="#55606a"></polygon><path d="M895,748 L895,800" fill="none" stroke="#55606a" stroke-width="1.9" stroke-linejoin="round" stroke-linecap="round"></path><polygon points="895,800 891.126,791.326 898.874,791.326" fill="#55606a"></polygon><path d="M1142.5,748 L1142.5,800" fill="none" stroke="#55606a" stroke-width="1.9" stroke-linejoin="round" stroke-linecap="round"></path><polygon points="1142.5,800 1138.626,791.326 1146.374,791.326" fill="#55606a"></polygon><path d="M1142.5,858 L1142.5,895" fill="none" stroke="#55606a" stroke-width="1.9" stroke-linejoin="round" stroke-linecap="round"></path><polygon points="1142.5,895 1138.626,886.326 1146.374,886.326" fill="#55606a"></polygon><path d="M1000,923 L1055,923" fill="none" stroke="#55606a" stroke-width="1.9" stroke-linejoin="round" stroke-linecap="round"></path><polygon points="1055,923 1046.326,926.874 1046.326,919.126" fill="#55606a"></polygon><path d="M1142.5,690 L1142.5,526" fill="none" stroke="#aab2bb" stroke-width="1.6" stroke-linejoin="round" stroke-linecap="round" stroke-dasharray="6 5"></path><polygon points="1142.5,526 1138.626,534.674 1146.374,534.674" fill="#aab2bb"></polygon><path d="M120,498 L45,498 L45,923 L290,923" fill="none" stroke="#aab2bb" stroke-width="1.6" stroke-linejoin="round" stroke-linecap="round" stroke-dasharray="6 5"></path><polygon points="290,923 281.326,926.874 281.326,919.126" fill="#aab2bb"></polygon></g><g><rect x="60" y="90" width="190" height="54" rx="9" ry="9" fill="#fff" stroke="#6c757d" stroke-width="1.7" filter="url(#sh)"></rect><path d="M60,114.84 V99 Q60,90 69,90 H241 Q250,90 250,99 V114.84 Z" fill="#6c757d"></path><text x="155" y="102.92" fill="#fff" font-weight="700" font-size="12.5" text-anchor="middle" dominant-baseline="central">User</text><text x="155" y="129.42" fill="#3c454d" font-size="10.8" text-anchor="middle" dominant-baseline="central">browse · search</text><rect x="320" y="90" width="210" height="54" rx="9" ry="9" fill="#fff" stroke="#4338ca" stroke-width="1.7" filter="url(#sh)"></rect><path d="M320,114.84 V99 Q320,90 329,90 H521 Q530,90 530,99 V114.84 Z" fill="#4f46e5"></path><text x="425" y="102.92" fill="#fff" font-weight="700" font-size="12.5" text-anchor="middle" dominant-baseline="central">API Gateway + LB</text><text x="425" y="129.42" fill="#3c454d" font-size="10.8" text-anchor="middle" dominant-baseline="central">auth · TLS · routing</text><rect x="300" y="200" width="190" height="58" rx="9" ry="9" fill="#fff" stroke="#0F5BB5" stroke-width="1.7" filter="url(#sh)"></rect><path d="M300,226 V209 Q300,200 309,200 H481 Q490,200 490,209 V226 Z" fill="#0078D4"></path><text x="395" y="213.5" fill="#fff" font-weight="700" font-size="12.5" text-anchor="middle" dominant-baseline="central">Search Service</text><text x="395" y="242" fill="#3c454d" font-size="10.8" text-anchor="middle" dominant-baseline="central">query parse · ranking</text><rect x="300" y="300" width="190" height="58" rx="9" ry="9" fill="#fff" stroke="#0A6E80" stroke-width="1.7" filter="url(#sh)"></rect><path d="M300,326 V309 Q300,300 309,300 H481 Q490,300 490,309 V326 Z" fill="#0C8599"></path><text x="395" y="313.5" fill="#fff" font-weight="700" font-size="12.5" text-anchor="middle" dominant-baseline="central">Elasticsearch</text><text x="395" y="342" fill="#3c454d" font-size="10.8" text-anchor="middle" dominant-baseline="central">inverted index</text><rect x="560" y="200" width="190" height="58" rx="9" ry="9" fill="#fff" stroke="#0F5BB5" stroke-width="1.7" filter="url(#sh)"></rect><path d="M560,226 V209 Q560,200 569,200 H741 Q750,200 750,209 V226 Z" fill="#0078D4"></path><text x="655" y="213.5" fill="#fff" font-weight="700" font-size="12.5" text-anchor="middle" dominant-baseline="central">Item / Catalog Service</text><text x="655" y="242" fill="#3c454d" font-size="10.8" text-anchor="middle" dominant-baseline="central">product detail</text><rect x="560" y="300" width="190" height="58" rx="9" ry="9" fill="#fff" stroke="#0A6E80" stroke-width="1.7" filter="url(#sh)"></rect><path d="M560,326 V309 Q560,300 569,300 H741 Q750,300 750,309 V326 Z" fill="#0C8599"></path><text x="655" y="313.5" fill="#fff" font-weight="700" font-size="12.5" text-anchor="middle" dominant-baseline="central">MongoDB</text><text x="655" y="342" fill="#3c454d" font-size="10.8" text-anchor="middle" dominant-baseline="central">polymorphic catalog</text><rect x="820" y="200" width="190" height="58" rx="9" ry="9" fill="#fff" stroke="#0F5BB5" stroke-width="1.7" filter="url(#sh)"></rect><path d="M820,226 V209 Q820,200 829,200 H1001 Q1010,200 1010,209 V226 Z" fill="#0078D4"></path><text x="915" y="213.5" fill="#fff" font-weight="700" font-size="12.5" text-anchor="middle" dominant-baseline="central">Recommendation Service</text><text x="915" y="242" fill="#3c454d" font-size="10.8" text-anchor="middle" dominant-baseline="central">related · personalized</text><rect x="820" y="300" width="190" height="58" rx="9" ry="9" fill="#fff" stroke="#C8590B" stroke-width="1.7" filter="url(#sh)"></rect><path d="M820,326 V309 Q820,300 829,300 H1001 Q1010,300 1010,309 V326 Z" fill="#F7630C"></path><text x="915" y="313.5" fill="#fff" font-weight="700" font-size="12.5" text-anchor="middle" dominant-baseline="central">Spark Streaming / Hadoop</text><text x="915" y="342" fill="#3c454d" font-size="10.8" text-anchor="middle" dominant-baseline="central">offline recsys</text><rect x="1040" y="200" width="170" height="58" rx="9" ry="9" fill="#fff" stroke="#0F5BB5" stroke-width="1.7" filter="url(#sh)"></rect><path d="M1040,226 V209 Q1040,200 1049,200 H1201 Q1210,200 1210,209 V226 Z" fill="#0078D4"></path><text x="1125" y="213.5" fill="#fff" font-weight="700" font-size="12.5" text-anchor="middle" dominant-baseline="central">Serviceability / TAT</text><text x="1125" y="242" fill="#3c454d" font-size="10.8" text-anchor="middle" dominant-baseline="central">delivery ETA · offline</text><rect x="1040" y="300" width="170" height="58" rx="9" ry="9" fill="#fff" stroke="#0A6E80" stroke-width="1.7" filter="url(#sh)"></rect><path d="M1040,326 V309 Q1040,300 1049,300 H1201 Q1210,300 1210,309 V326 Z" fill="#0C8599"></path><text x="1125" y="313.5" fill="#fff" font-weight="700" font-size="12.5" text-anchor="middle" dominant-baseline="central">Warehouse + Logistics</text><text x="1125" y="342" fill="#3c454d" font-size="10.8" text-anchor="middle" dominant-baseline="central">inventory · routes</text><rect x="60" y="300" width="190" height="58" rx="9" ry="9" fill="#fff" stroke="#0F5BB5" stroke-width="1.7" filter="url(#sh)"></rect><path d="M60,326 V309 Q60,300 69,300 H241 Q250,300 250,309 V326 Z" fill="#0078D4"></path><text x="155" y="313.5" fill="#fff" font-weight="700" font-size="12.5" text-anchor="middle" dominant-baseline="central">Supplier Onboarding</text><text x="155" y="342" fill="#3c454d" font-size="10.8" text-anchor="middle" dominant-baseline="central">inbound catalog feed</text><rect x="120" y="470" width="1040" height="56" rx="9" ry="9" fill="#fff" stroke="#C8590B" stroke-width="1.7" filter="url(#sh)"></rect><path d="M120,495.76 V479 Q120,470 129,470 H1151 Q1160,470 1160,479 V495.76 Z" fill="#F7630C"></path><text x="640" y="483.38" fill="#fff" font-weight="700" font-size="12.5" text-anchor="middle" dominant-baseline="central">Apache Kafka</text><text x="640" y="510.88" fill="#3c454d" font-size="10.8" text-anchor="middle" dominant-baseline="central">shared event spine · search ingest · order &amp; rec events</text><rect x="60" y="580" width="190" height="54" rx="9" ry="9" fill="#fff" stroke="#6c757d" stroke-width="1.7" filter="url(#sh)"></rect><path d="M60,604.84 V589 Q60,580 69,580 H241 Q250,580 250,589 V604.84 Z" fill="#6c757d"></path><text x="155" y="592.92" fill="#fff" font-weight="700" font-size="12.5" text-anchor="middle" dominant-baseline="central">User</text><text x="155" y="619.42" fill="#3c454d" font-size="10.8" text-anchor="middle" dominant-baseline="central">cart · checkout</text><rect x="320" y="580" width="210" height="54" rx="9" ry="9" fill="#fff" stroke="#4338ca" stroke-width="1.7" filter="url(#sh)"></rect><path d="M320,604.84 V589 Q320,580 329,580 H521 Q530,580 530,589 V604.84 Z" fill="#4f46e5"></path><text x="425" y="592.92" fill="#fff" font-weight="700" font-size="12.5" text-anchor="middle" dominant-baseline="central">API Gateway + LB</text><text x="425" y="619.42" fill="#3c454d" font-size="10.8" text-anchor="middle" dominant-baseline="central">auth · TLS · routing</text><rect x="290" y="690" width="190" height="58" rx="9" ry="9" fill="#fff" stroke="#0F5BB5" stroke-width="1.7" filter="url(#sh)"></rect><path d="M290,716 V699 Q290,690 299,690 H471 Q480,690 480,699 V716 Z" fill="#0078D4"></path><text x="385" y="703.5" fill="#fff" font-weight="700" font-size="12.5" text-anchor="middle" dominant-baseline="central">Order-Taking Service</text><text x="385" y="732" fill="#3c454d" font-size="10.8" text-anchor="middle" dominant-baseline="central">cart · MySQL</text><rect x="550" y="690" width="190" height="58" rx="9" ry="9" fill="#fff" stroke="#0F5BB5" stroke-width="1.7" filter="url(#sh)"></rect><path d="M550,716 V699 Q550,690 559,690 H731 Q740,690 740,699 V716 Z" fill="#0078D4"></path><text x="645" y="703.5" fill="#fff" font-weight="700" font-size="12.5" text-anchor="middle" dominant-baseline="central">Inventory Service</text><text x="645" y="732" fill="#3c454d" font-size="10.8" text-anchor="middle" dominant-baseline="central">reserve · atomic</text><rect x="810" y="690" width="170" height="58" rx="9" ry="9" fill="#fff" stroke="#0F5BB5" stroke-width="1.7" filter="url(#sh)"></rect><path d="M810,716 V699 Q810,690 819,690 H971 Q980,690 980,699 V716 Z" fill="#0078D4"></path><text x="895" y="703.5" fill="#fff" font-weight="700" font-size="12.5" text-anchor="middle" dominant-baseline="central">Payment Service</text><text x="895" y="732" fill="#3c454d" font-size="10.8" text-anchor="middle" dominant-baseline="central">idempotent · orchestrate</text><rect x="1055" y="690" width="175" height="58" rx="9" ry="9" fill="#fff" stroke="#0F5BB5" stroke-width="1.7" filter="url(#sh)"></rect><path d="M1055,716 V699 Q1055,690 1064,690 H1221 Q1230,690 1230,699 V716 Z" fill="#0078D4"></path><text x="1142.5" y="703.5" fill="#fff" font-weight="700" font-size="12.5" text-anchor="middle" dominant-baseline="central">Order-Processing</text><text x="1142.5" y="732" fill="#3c454d" font-size="10.8" text-anchor="middle" dominant-baseline="central">state machine</text><rect x="290" y="800" width="190" height="58" rx="9" ry="9" fill="#fff" stroke="#0A6E80" stroke-width="1.7" filter="url(#sh)"></rect><path d="M290,826 V809 Q290,800 299,800 H471 Q480,800 480,809 V826 Z" fill="#0C8599"></path><text x="385" y="813.5" fill="#fff" font-weight="700" font-size="12.5" text-anchor="middle" dominant-baseline="central">Order DB</text><text x="385" y="842" fill="#3c454d" font-size="10.8" text-anchor="middle" dominant-baseline="central">MySQL · orders</text><rect x="550" y="800" width="190" height="58" rx="9" ry="9" fill="#fff" stroke="#0A6E80" stroke-width="1.7" filter="url(#sh)"></rect><path d="M550,826 V809 Q550,800 559,800 H731 Q740,800 740,809 V826 Z" fill="#0C8599"></path><text x="645" y="813.5" fill="#fff" font-weight="700" font-size="12.5" text-anchor="middle" dominant-baseline="central">Inventory DB</text><text x="645" y="842" fill="#3c454d" font-size="10.8" text-anchor="middle" dominant-baseline="central">MySQL · qty&gt;=0 · DECR · reservation</text><rect x="810" y="800" width="170" height="58" rx="9" ry="9" fill="#fff" stroke="#1F7A33" stroke-width="1.7" filter="url(#sh)"></rect><path d="M810,826 V809 Q810,800 819,800 H971 Q980,800 980,809 V826 Z" fill="#2f9e44"></path><text x="895" y="813.5" fill="#fff" font-weight="700" font-size="12.5" text-anchor="middle" dominant-baseline="central">Payment Gateway</text><text x="895" y="842" fill="#3c454d" font-size="10.8" text-anchor="middle" dominant-baseline="central">cards · UPI · wallets</text><rect x="1055" y="800" width="175" height="58" rx="9" ry="9" fill="#fff" stroke="#0F5BB5" stroke-width="1.7" filter="url(#sh)"></rect><path d="M1055,826 V809 Q1055,800 1064,800 H1221 Q1230,800 1230,809 V826 Z" fill="#0078D4"></path><text x="1142.5" y="813.5" fill="#fff" font-weight="700" font-size="12.5" text-anchor="middle" dominant-baseline="central">Archival Service</text><text x="1142.5" y="842" fill="#3c454d" font-size="10.8" text-anchor="middle" dominant-baseline="central">completed orders</text><rect x="290" y="895" width="190" height="56" rx="9" ry="9" fill="#fff" stroke="#1F7A33" stroke-width="1.7" filter="url(#sh)"></rect><path d="M290,920.76 V904 Q290,895 299,895 H471 Q480,895 480,904 V920.76 Z" fill="#2f9e44"></path><text x="385" y="908.38" fill="#fff" font-weight="700" font-size="12.5" text-anchor="middle" dominant-baseline="central">Notification Service</text><text x="385" y="935.88" fill="#3c454d" font-size="10.8" text-anchor="middle" dominant-baseline="central">email · SMS · push</text><rect x="810" y="895" width="190" height="56" rx="9" ry="9" fill="#fff" stroke="#0F5BB5" stroke-width="1.7" filter="url(#sh)"></rect><path d="M810,920.76 V904 Q810,895 819,895 H991 Q1000,895 1000,904 V920.76 Z" fill="#0078D4"></path><text x="905" y="908.38" fill="#fff" font-weight="700" font-size="12.5" text-anchor="middle" dominant-baseline="central">Historical-Order Service</text><text x="905" y="935.88" fill="#3c454d" font-size="10.8" text-anchor="middle" dominant-baseline="central">reads archive</text><rect x="1055" y="895" width="175" height="56" rx="9" ry="9" fill="#fff" stroke="#0A6E80" stroke-width="1.7" filter="url(#sh)"></rect><path d="M1055,920.76 V904 Q1055,895 1064,895 H1221 Q1230,895 1230,904 V920.76 Z" fill="#0C8599"></path><text x="1142.5" y="908.38" fill="#fff" font-weight="700" font-size="12.5" text-anchor="middle" dominant-baseline="central">Cassandra</text><text x="1142.5" y="935.88" fill="#3c454d" font-size="10.8" text-anchor="middle" dominant-baseline="central">completed-order archive</text></g><g><rect x="250.3" y="107.5" width="69.4" height="18" rx="9" ry="9" fill="#ffffff" stroke="#dde2e7" stroke-width="1"></rect><text x="285" y="117" fill="#27313a" font-size="10.8" font-weight="600" text-anchor="middle" dominant-baseline="central">① request</text><rect x="363.6" y="176.5" width="62.8" height="18" rx="9" ry="9" fill="#ffffff" stroke="#dde2e7" stroke-width="1"></rect><text x="395" y="186" fill="#27313a" font-size="10.8" font-weight="600" text-anchor="middle" dominant-baseline="central">② search</text><rect x="630.2" y="176.5" width="49.6" height="18" rx="9" ry="9" fill="#ffffff" stroke="#dde2e7" stroke-width="1"></rect><text x="655" y="186" fill="#27313a" font-size="10.8" font-weight="600" text-anchor="middle" dominant-baseline="central">browse</text><rect x="893.5" y="176.5" width="43" height="18" rx="9" ry="9" fill="#ffffff" stroke="#dde2e7" stroke-width="1"></rect><text x="915" y="186" fill="#27313a" font-size="10.8" font-weight="600" text-anchor="middle" dominant-baseline="central">recos</text><rect x="1110.1" y="176.5" width="29.8" height="18" rx="9" ry="9" fill="#ffffff" stroke="#dde2e7" stroke-width="1"></rect><text x="1125" y="186" fill="#27313a" font-size="10.8" font-weight="600" text-anchor="middle" dominant-baseline="central">ETA</text><rect x="366.9" y="269.5" width="56.2" height="18" rx="9" ry="9" fill="#ffffff" stroke="#dde2e7" stroke-width="1"></rect><text x="395" y="279" fill="#27313a" font-size="10.8" font-weight="600" text-anchor="middle" dominant-baseline="central">③ query</text><rect x="636.8" y="269.5" width="36.4" height="18" rx="9" ry="9" fill="#ffffff" stroke="#dde2e7" stroke-width="1"></rect><text x="655" y="279" fill="#27313a" font-size="10.8" font-weight="600" text-anchor="middle" dominant-baseline="central">read</text><rect x="863.8" y="269.5" width="102.4" height="18" rx="9" ry="9" fill="#ffffff" stroke="#dde2e7" stroke-width="1"></rect><text x="915" y="279" fill="#27313a" font-size="10.8" font-weight="600" text-anchor="middle" dominant-baseline="central">offline recsys</text><rect x="1080.4" y="269.5" width="89.2" height="18" rx="9" ry="9" fill="#ffffff" stroke="#dde2e7" stroke-width="1"></rect><text x="1125" y="279" fill="#27313a" font-size="10.8" font-weight="600" text-anchor="middle" dominant-baseline="central">delivery ETA</text><rect x="107.1" y="404.5" width="95.8" height="18" rx="9" ry="9" fill="#ffffff" stroke="#dde2e7" stroke-width="1"></rect><text x="155" y="414" fill="#27313a" font-size="10.8" font-weight="600" text-anchor="middle" dominant-baseline="central">supplier feed</text><rect x="373.5" y="404.5" width="43" height="18" rx="9" ry="9" fill="#ffffff" stroke="#dde2e7" stroke-width="1"></rect><text x="395" y="414" fill="#27313a" font-size="10.8" font-weight="600" text-anchor="middle" dominant-baseline="central">index</text><rect x="890.2" y="404.5" width="49.6" height="18" rx="9" ry="9" fill="#ffffff" stroke="#dde2e7" stroke-width="1"></rect><text x="915" y="414" fill="#27313a" font-size="10.8" font-weight="600" text-anchor="middle" dominant-baseline="central">stream</text><rect x="247" y="597.5" width="76" height="18" rx="9" ry="9" fill="#ffffff" stroke="#dde2e7" stroke-width="1"></rect><text x="285" y="607" fill="#27313a" font-size="10.8" font-weight="600" text-anchor="middle" dominant-baseline="central">① checkout</text><rect x="411.9" y="655.5" width="56.2" height="18" rx="9" ry="9" fill="#ffffff" stroke="#dde2e7" stroke-width="1"></rect><text x="440" y="665" fill="#27313a" font-size="10.8" font-weight="600" text-anchor="middle" dominant-baseline="central">② order</text><rect x="480.3" y="709.5" width="69.4" height="18" rx="9" ry="9" fill="#ffffff" stroke="#dde2e7" stroke-width="1"></rect><text x="515" y="719" fill="#27313a" font-size="10.8" font-weight="600" text-anchor="middle" dominant-baseline="central">③ reserve</text><rect x="743.6" y="709.5" width="62.8" height="18" rx="9" ry="9" fill="#ffffff" stroke="#dde2e7" stroke-width="1"></rect><text x="775" y="719" fill="#27313a" font-size="10.8" font-weight="600" text-anchor="middle" dominant-baseline="central">④ charge</text><rect x="982.8" y="709.5" width="69.4" height="18" rx="9" ry="9" fill="#ffffff" stroke="#dde2e7" stroke-width="1"></rect><text x="1017.5" y="719" fill="#27313a" font-size="10.8" font-weight="600" text-anchor="middle" dominant-baseline="central">⑤ process</text><rect x="363.5" y="764.5" width="43" height="18" rx="9" ry="9" fill="#ffffff" stroke="#dde2e7" stroke-width="1"></rect><text x="385" y="774" fill="#27313a" font-size="10.8" font-weight="600" text-anchor="middle" dominant-baseline="central">MySQL</text><rect x="626.8" y="764.5" width="36.4" height="18" rx="9" ry="9" fill="#ffffff" stroke="#dde2e7" stroke-width="1"></rect><text x="645" y="774" fill="#27313a" font-size="10.8" font-weight="600" text-anchor="middle" dominant-baseline="central">DECR</text><rect x="860.3" y="764.5" width="69.4" height="18" rx="9" ry="9" fill="#ffffff" stroke="#dde2e7" stroke-width="1"></rect><text x="895" y="774" fill="#27313a" font-size="10.8" font-weight="600" text-anchor="middle" dominant-baseline="central">authorize</text><rect x="1114.4" y="764.5" width="56.2" height="18" rx="9" ry="9" fill="#ffffff" stroke="#dde2e7" stroke-width="1"></rect><text x="1142.5" y="774" fill="#27313a" font-size="10.8" font-weight="600" text-anchor="middle" dominant-baseline="central">archive</text><rect x="1121" y="866.5" width="43" height="18" rx="9" ry="9" fill="#ffffff" stroke="#dde2e7" stroke-width="1"></rect><text x="1142.5" y="876" fill="#27313a" font-size="10.8" font-weight="600" text-anchor="middle" dominant-baseline="central">store</text><rect x="1009.3" y="913.5" width="36.4" height="18" rx="9" ry="9" fill="#ffffff" stroke="#dde2e7" stroke-width="1"></rect><text x="1027.5" y="923" fill="#27313a" font-size="10.8" font-weight="600" text-anchor="middle" dominant-baseline="central">read</text><rect x="1097.9" y="535.5" width="89.2" height="18" rx="9" ry="9" fill="#ffffff" stroke="#dde2e7" stroke-width="1"></rect><text x="1142.5" y="545" fill="#27313a" font-size="10.8" font-weight="600" text-anchor="middle" dominant-baseline="central">order events</text><rect x="142.2" y="895.5" width="49.6" height="18" rx="9" ry="9" fill="#ffffff" stroke="#dde2e7" stroke-width="1"></rect><text x="167" y="905" fill="#27313a" font-size="10.8" font-weight="600" text-anchor="middle" dominant-baseline="central">notify</text></g><defs><filter id="sh" x="-20%" y="-20%" width="140%" height="140%"><feDropShadow dx="0" dy="1" stdDeviation="1.1" flood-color="#000" flood-opacity="0.13"></feDropShadow></filter></defs><g class="dgm-legend"><path d="M16,986 L1234,986" stroke="#dde2e7" stroke-width="1" fill="none"></path><rect class="dgm-leg" x="24" y="999" width="13" height="13" rx="3" ry="3" fill="#0078D4"></rect><text x="43" y="1005" fill="#27313a" font-size="10.5" font-weight="600" dominant-baseline="central">service</text><rect class="dgm-leg" x="198" y="999" width="13" height="13" rx="3" ry="3" fill="#0C8599"></rect><text x="217" y="1005" fill="#27313a" font-size="10.5" font-weight="600" dominant-baseline="central">datastore</text><rect class="dgm-leg" x="372" y="999" width="13" height="13" rx="3" ry="3" fill="#F7630C"></rect><text x="391" y="1005" fill="#27313a" font-size="10.5" font-weight="600" dominant-baseline="central">queue</text><rect class="dgm-leg" x="546" y="999" width="13" height="13" rx="3" ry="3" fill="#2f9e44"></rect><text x="565" y="1005" fill="#27313a" font-size="10.5" font-weight="600" dominant-baseline="central">external</text><rect class="dgm-leg" x="720" y="999" width="13" height="13" rx="3" ry="3" fill="#4f46e5"></rect><text x="739" y="1005" fill="#27313a" font-size="10.5" font-weight="600" dominant-baseline="central">gateway</text><path d="M894,1005 L916,1005" stroke="#55606a" stroke-width="1.9" fill="none"></path><polygon points="916,1005 910,1002 910,1008" fill="#55606a"></polygon><text x="922" y="1005" fill="#27313a" font-size="10.5" font-weight="600" dominant-baseline="central">sync</text><path d="M1068,1005 L1090,1005" stroke="#aab2bb" stroke-width="1.6" stroke-dasharray="6 5" fill="none"></path><polygon points="1090,1005 1084,1002 1084,1008" fill="#aab2bb"></polygon><text x="1096" y="1005" fill="#27313a" font-size="10.5" font-weight="600" dominant-baseline="central">async</text></g></svg>