<svg version="1.1" xmlns="http://www.w3.org/2000/svg" viewBox="0 0 1100 844" width="1100" height="844">
  <!-- svg-source:gen-whiteboards.js -->
  <defs><style class="style-fonts">
@font-face{font-family:"Virgil";src:url("https://unpkg.com/@excalidraw/excalidraw@0.17.6/dist//dist/excalidraw-assets/Virgil.woff2");}
</style></defs>
  <rect x="0" y="0" width="1100" height="844" fill="#ffffff"></rect>
  <text x="24" y="26" font-family="Virgil, Segoe UI Emoji" font-size="22px" fill="#1e1e1e" text-anchor="start" dominant-baseline="central" style="white-space:pre">The 4-Layer Reference Architecture — how you'd draw it live on the whiteboard</text>
  <text x="24" y="58" font-family="Virgil, Segoe UI Emoji" font-size="13px" fill="#868e96" text-anchor="start" dominant-baseline="central" style="white-space:pre">green = client   ·   grey = edge / LB   ·   blue = service   ·   red = datastore   ·   orange = queue / stream   ·   violet = 3rd-party</text>
  <g transform="translate(0 84)"><g transform="translate(34 70)"><path d="M18 0 C347.64 -0.61, 675.36 0.48, 1014.14 0.49 C1024.59 0.19, 1031.83 7.87, 1032 18 C1032.33 37.48, 1032.32 55.59, 1031.91 76.31 C1031.05 86.71, 1023.31 93.72, 1014 94 C684.96 93.76, 357.27 93.77, 18.26 94.2 C8.52 93.2, -0.76 86.79, 0 76 C-0.07 57.28, 0.76 36.94, 0.19 17.61 C-0.4 9.01, 9.07 -0.92, 18 0" stroke="#495057" stroke-width="1.8" fill="none" stroke-linecap="round" stroke-dasharray="8 9"></path></g><g transform="translate(34 200)"><path d="M18 0 C347.6 0.08, 674.64 -0.02, 1013.84 0.44 C1023.65 0.53, 1031.51 8.65, 1032 18 C1032.29 44.36, 1031.47 70.73, 1032.37 98.02 C1031.05 107.18, 1023.52 116.28, 1014 116 C684.83 115.4, 355.69 116.73, 17.66 116.41 C7.99 115.71, 0.58 107.18, 0 98 C-0.52 71.79, 0.94 45.44, -0.25 17.75 C-0.27 7.3, 8.41 -0.18, 18 0" stroke="#495057" stroke-width="1.8" fill="none" stroke-linecap="round" stroke-dasharray="8 9"></path></g><g transform="translate(34 360)"><path d="M18 0 C346.84 -0.02, 675.22 -0.06, 1013.66 0.23 C1023.31 -0.29, 1031.74 8.48, 1032 18 C1031.09 51.11, 1032.83 82.19, 1031.63 115.93 C1031.47 125.27, 1023.39 134.83, 1014 134 C684.58 133.66, 357.38 134.33, 17.99 134.38 C7.81 134.9, -0.05 125.94, 0 116 C-0.36 83.14, 0.26 50.74, 0.28 17.52 C0.8 7.32, 7.96 0.44, 18 0" stroke="#495057" stroke-width="1.8" fill="none" stroke-linecap="round" stroke-dasharray="8 9"></path></g><g transform="translate(34 540)"><path d="M18 0 C346.95 -0.37, 675.38 -0.89, 1014.05 -0.48 C1023 -0.06, 1031.77 9.07, 1032 18 C1032.25 67.96, 1032.5 118.32, 1031.57 170.35 C1032.54 180.8, 1024.16 188.73, 1014 188 C685.64 188.36, 357.29 187.32, 17.68 187.89 C9.05 187.65, 0.34 180.18, 0 170 C-0.03 120.81, -0.18 68.7, -0.05 18 C0.87 8.3, 8.84 0.22, 18 0" stroke="#495057" stroke-width="1.8" fill="none" stroke-linecap="round" stroke-dasharray="8 9"></path></g><path d="M205 117 C217.69 116.3, 232.21 117.43, 245.17 117.31" stroke="#1e1e1e" stroke-width="1.6" fill="none" stroke-linecap="round"></path><path d="M245 117 L234.96 121.49 M245 117 L234.96 112.51" stroke="#1e1e1e" stroke-width="1.6" fill="none" stroke-linecap="round"></path><path d="M395 117 C404.85 117.81, 415.54 116.74, 425.55 116.82" stroke="#1e1e1e" stroke-width="1.6" fill="none" stroke-linecap="round"></path><path d="M425 117 L414.96 121.49 M425 117 L414.96 112.51" stroke="#1e1e1e" stroke-width="1.6" fill="none" stroke-linecap="round"></path><path d="M575 117 C585.79 116.92, 593.82 118.03, 605.4 116.79" stroke="#1e1e1e" stroke-width="1.6" fill="none" stroke-linecap="round"></path><path d="M605 117 L594.96 121.49 M605 117 L594.96 112.51" stroke="#1e1e1e" stroke-width="1.6" fill="none" stroke-linecap="round"></path><path d="M785 117 C798.26 117.27, 810.56 115.98, 825.24 116.83" stroke="#1e1e1e" stroke-width="1.6" fill="none" stroke-linecap="round"></path><path d="M825 117 L814.96 121.49 M825 117 L814.96 112.51" stroke="#1e1e1e" stroke-width="1.6" fill="none" stroke-linecap="round"></path><path d="M920 143 C920.73 156.6, 919.6 169.55, 919.89 181.98 C671.93 183.04, 422.55 182.47, 165.5 181.66 C164.55 196.01, 164.18 209.84, 164.53 225.33" stroke="#1e1e1e" stroke-width="1.6" fill="none" stroke-linecap="round"></path><path d="M165 225 L160.51 214.96 M165 225 L169.49 214.96" stroke="#1e1e1e" stroke-width="1.6" fill="none" stroke-linecap="round"></path><path d="M920 143 C919.83 156.58, 919.76 168.27, 920.48 182.44 C749.77 181.25, 579.32 182.45, 405.24 181.95 C405.94 195.74, 404.89 211.09, 404.61 225.51" stroke="#1e1e1e" stroke-width="1.6" fill="none" stroke-linecap="round"></path><path d="M405 225 L400.51 214.96 M405 225 L409.49 214.96" stroke="#1e1e1e" stroke-width="1.6" fill="none" stroke-linecap="round"></path><path d="M920 143 C919.32 156.83, 920.3 168.2, 920.38 182.36 C828.69 181.28, 738 181.81, 645.24 181.65 C645.38 196.16, 646.01 211.22, 645.16 224.67" stroke="#1e1e1e" stroke-width="1.6" fill="none" stroke-linecap="round"></path><path d="M645 225 L640.51 214.96 M645 225 L649.49 214.96" stroke="#1e1e1e" stroke-width="1.6" fill="none" stroke-linecap="round"></path><path d="M920 143 C920.25 156.3, 920.7 167.77, 920.22 181.67 C911.84 182.39, 903.37 181.66, 895.34 181.67 C893.91 197.02, 894.66 210.52, 895.45 224.5" stroke="#1e1e1e" stroke-width="1.6" fill="none" stroke-linecap="round"></path><path d="M895 225 L890.51 214.96 M895 225 L899.49 214.96" stroke="#1e1e1e" stroke-width="1.6" fill="none" stroke-linecap="round"></path><path d="M165 291 C164.18 318.66, 164.35 348.26, 164.69 377.78" stroke="#1e1e1e" stroke-width="1.6" fill="none" stroke-linecap="round"></path><path d="M165 378 L160.51 367.96 M165 378 L169.49 367.96" stroke="#1e1e1e" stroke-width="1.6" fill="none" stroke-linecap="round"></path><path d="M405 291 C404.07 319.49, 405.24 349.27, 405.52 377.51" stroke="#1e1e1e" stroke-width="1.6" fill="none" stroke-linecap="round"></path><path d="M405 378 L400.51 367.96 M405 378 L409.49 367.96" stroke="#1e1e1e" stroke-width="1.6" fill="none" stroke-linecap="round"></path><path d="M645 291 C645.9 320.11, 645 349.24, 645.4 377.77" stroke="#1e1e1e" stroke-width="1.6" fill="none" stroke-linecap="round"></path><path d="M645 378 L640.51 367.96 M645 378 L649.49 367.96" stroke="#1e1e1e" stroke-width="1.6" fill="none" stroke-linecap="round"></path><path d="M895 291 C894.88 320.09, 894.89 349.11, 894.61 378.02" stroke="#1e1e1e" stroke-width="1.6" fill="none" stroke-linecap="round"></path><path d="M895 378 L890.51 367.96 M895 378 L899.49 367.96" stroke="#1e1e1e" stroke-width="1.6" fill="none" stroke-linecap="round"></path><path d="M525 600 C524.88 605.99, 526.02 613.47, 525.33 620.14 C406.73 620.72, 286.9 620.19, 165.04 620.5 C165.95 626.74, 165.43 633.33, 164.52 639.79" stroke="#1e1e1e" stroke-width="1.6" fill="none" stroke-linecap="round"></path><path d="M165 640 L160.51 629.96 M165 640 L169.49 629.96" stroke="#1e1e1e" stroke-width="1.6" fill="none" stroke-linecap="round"></path><path d="M525 600 C524.69 605.7, 524.73 613.44, 524.52 620.48 C485.38 620.48, 446.34 619.81, 404.56 620.34 C404.56 626.03, 405.48 632.5, 405.43 639.69" stroke="#1e1e1e" stroke-width="1.6" fill="none" stroke-linecap="round"></path><path d="M405 640 L400.51 629.96 M405 640 L409.49 629.96" stroke="#1e1e1e" stroke-width="1.6" fill="none" stroke-linecap="round"></path><path d="M525 600 C524.02 607.64, 526 612.84, 525.05 619.57 C564.94 621.07, 604.98 619.31, 645.46 619.81 C643.9 625.61, 646.02 632.77, 645.11 639.88" stroke="#1e1e1e" stroke-width="1.6" fill="none" stroke-linecap="round"></path><path d="M645 640 L640.51 629.96 M645 640 L649.49 629.96" stroke="#1e1e1e" stroke-width="1.6" fill="none" stroke-linecap="round"></path><path d="M525 600 C524.35 606.44, 524.76 613.56, 525.45 619.67 C647.17 620.64, 769.77 619.95, 894.88 620.43 C894.67 626.5, 894.69 633.44, 895.27 639.55" stroke="#1e1e1e" stroke-width="1.6" fill="none" stroke-linecap="round"></path><path d="M895 640 L890.51 629.96 M895 640 L899.49 629.96" stroke="#1e1e1e" stroke-width="1.6" fill="none" stroke-linecap="round"></path><path d="M1000 291 C1014.29 289.92, 1027.25 292, 1039.62 291.46 C1040.36 384.41, 1040.63 477.59, 1039.94 575.45 C992.81 574.66, 944.54 575.72, 894.53 575.45" stroke="#1e1e1e" stroke-width="1.6" fill="none" stroke-linecap="round"></path><path d="M895 575 L905.04 570.51 M895 575 L905.04 579.49" stroke="#1e1e1e" stroke-width="1.6" fill="none" stroke-linecap="round"></path><g transform="translate(55 91)"><path d="M16 0 C55.18 -0.38, 94.06 0.19, 134 0.25 C142.42 0.28, 150.22 6.97, 150 16 C149.74 22.59, 150.08 29.5, 150.02 35.79 C149.88 44.92, 142.6 51.74, 134 52 C94.82 51.7, 55.79 51.68, 15.89 51.87 C7.76 52.28, 0.34 44.73, 0 36 C0.58 29.5, 0.15 22.79, 0.12 16.23 C-0.07 6.65, 7.42 -0.51, 16 0 Z" stroke="none" fill="#b2f2bb"></path><path d="M16 0 C56.28 -1.33, 93.18 1.06, 133.7 -0.24 C144.06 -0.92, 149.86 7.01, 150 16 C150.77 21.84, 150.04 28.78, 150.18 36.06 C150.46 45.67, 143.95 51.71, 134 52 C94.17 51.93, 56.43 52.97, 15.76 51.39 C5.99 50.76, -0.08 44.46, 0 36 C0.11 30.21, 0.29 23.28, -0.16 15.71 C-1.11 8.31, 5.97 -1.37, 16 0 M16 0 C54.99 -0.82, 94.92 -0.31, 133.89 0.4 C141.75 0.74, 149.15 6.24, 150 16 C149.66 21.37, 150.16 28.9, 149.97 35.68 C151.18 43.81, 142.16 52.11, 134 52 C95.12 50.62, 56.08 51.91, 16.26 51.76 C6.33 51.95, 0.92 45.87, 0 36 C-1.14 30.4, 0.82 21.9, -0.11 15.96 C1.25 7.25, 7.49 0.71, 16 0" stroke="#2f9e44" stroke-width="1.7" fill="none" stroke-linecap="round"></path></g><text x="130" y="108" font-family="Virgil, Segoe UI Emoji" font-size="15px" fill="#1e1e1e" text-anchor="middle" dominant-baseline="central" style="white-space:pre">Client(s)</text><text x="130" y="127" font-family="Virgil, Segoe UI Emoji" font-size="12px" fill="#495057" text-anchor="middle" dominant-baseline="central" style="white-space:pre">web · mobile</text><g transform="translate(245 91)"><path d="M16 0 C55.05 -0.31, 94 0.46, 133.92 -0.26 C143.36 -0.31, 150.37 7.41, 150 16 C149.63 22.07, 150.37 28.87, 150.16 35.96 C149.4 44.58, 143.36 52.23, 134 52 C95.2 51.4, 56.2 51.67, 15.81 51.72 C7.08 51.99, 0.51 44.3, 0 36 C-0.51 29.59, 0.57 23.39, -0.08 15.84 C-0.58 7.35, 6.68 0.02, 16 0 Z" stroke="none" fill="#dee2e6"></path><path d="M16 0 C55.27 -0.1, 95.17 -0.4, 133.94 0.57 C143.09 -0.23, 150.08 8.3, 150 16 C148.98 23.19, 149.07 30.57, 150.64 35.97 C151.05 45.65, 143.01 51.21, 134 52 C94.15 51.57, 57.48 52.06, 15.74 52.48 C8.55 52.09, -0.51 45.5, 0 36 C0.81 28.72, -0.2 22.96, -0.26 16.61 C-1.36 8.1, 5.82 0.02, 16 0 M16 0 C56.03 1.35, 94.63 -0.58, 133.4 -0.59 C141.53 -0.9, 149.4 7.8, 150 16 C149.49 23.28, 149.92 28.81, 150.09 35.52 C150.35 44.71, 141.4 50.74, 134 52 C96.27 52.47, 56.42 52.32, 15.88 51.79 C5.92 53.04, 0.26 43.56, 0 36 C-1.27 28.41, -0.27 22.73, -0.48 16.37 C-0.11 7.62, 6.1 -0.02, 16 0" stroke="#495057" stroke-width="1.7" fill="none" stroke-linecap="round"></path></g><text x="320" y="108" font-family="Virgil, Segoe UI Emoji" font-size="15px" fill="#1e1e1e" text-anchor="middle" dominant-baseline="central" style="white-space:pre">GeoDNS</text><text x="320" y="127" font-family="Virgil, Segoe UI Emoji" font-size="12px" fill="#495057" text-anchor="middle" dominant-baseline="central" style="white-space:pre">nearest region</text><g transform="translate(425 91)"><path d="M16 0 C54.77 0.53, 93.94 0.6, 134.07 -0.18 C143.07 -0.24, 149.63 7.01, 150 16 C149.75 22.68, 149.48 28.75, 149.8 36.22 C150.47 44.73, 143.29 51.44, 134 52 C94.5 52.58, 56.09 52.43, 16.11 52.03 C7.31 52.3, 0.51 44.76, 0 36 C-0.44 29.36, 0.14 22.51, -0.27 15.82 C-0.22 7.45, 7.57 0.01, 16 0 Z" stroke="none" fill="#dee2e6"></path><path d="M16 0 C54.95 -1.23, 94.07 0.14, 133.4 -0.03 C142.48 -1.18, 150.52 8.14, 150 16 C149.94 21.32, 150.36 29.39, 150.01 35.67 C149.36 44.95, 142.81 52.41, 134 52 C95.13 50.71, 56.35 52.33, 15.66 52.56 C8.37 52.35, -0.07 45.35, 0 36 C-1.26 30.55, 1.05 22.04, 0.15 16.24 C-0.74 8, 6.02 -0.05, 16 0 M16 0 C54.11 -0.77, 94.02 1.18, 133.48 0.33 C142.92 1.38, 148.71 7.33, 150 16 C149.47 21.93, 150.94 29.43, 149.67 35.83 C150.76 45.13, 143.58 53.15, 134 52 C94.24 51.06, 55.89 51.14, 16.66 51.65 C6.84 53.15, -1.28 45.38, 0 36 C-0.65 30.33, -1.39 22.44, -0.56 15.61 C-1.33 5.8, 8.23 -0.07, 16 0" stroke="#495057" stroke-width="1.7" fill="none" stroke-linecap="round"></path></g><text x="500" y="108" font-family="Virgil, Segoe UI Emoji" font-size="15px" fill="#1e1e1e" text-anchor="middle" dominant-baseline="central" style="white-space:pre">CDN</text><text x="500" y="127" font-family="Virgil, Segoe UI Emoji" font-size="12px" fill="#495057" text-anchor="middle" dominant-baseline="central" style="white-space:pre">static · media</text><g transform="translate(605 91)"><path d="M16 0 C65.08 0.54, 113.4 -0.31, 163.72 0.19 C172.7 -0.04, 179.72 7.01, 180 16 C180.04 22.1, 180.32 29.33, 180.25 36.23 C180.41 44.99, 172.28 51.78, 164 52 C114.84 52.4, 66.34 51.42, 15.72 51.78 C7.17 51.85, -0.49 44.93, 0 36 C-0.46 29.84, 0.25 23.16, 0.18 16.25 C0.41 7.63, 7.42 0.22, 16 0 Z" stroke="none" fill="#dee2e6"></path><path d="M16 0 C64.39 -0.92, 112.3 -1.3, 164.56 0.46 C171.63 0.66, 180.56 7.09, 180 16 C179.1 23.54, 179.88 30.13, 179.67 35.6 C181.33 43.47, 172.48 51.57, 164 52 C115.66 50.65, 65.28 53.05, 16.15 51.81 C5.8 52.64, -0.58 43.46, 0 36 C0.49 28.56, -0.27 21.57, -0.11 15.77 C0.39 6.81, 6.13 -0.82, 16 0 M16 0 C65.84 -0.82, 112.83 -0.52, 163.59 -0.19 C174.01 -1.09, 179.22 7.39, 180 16 C179.95 21.38, 178.6 28.34, 180.35 35.67 C180.69 44.2, 172.78 52.97, 164 52 C115.8 51.75, 66.27 50.86, 16.59 52.55 C5.93 50.64, 0.74 44.78, 0 36 C1.36 30.27, 0.5 22.14, -0.38 16.27 C1.02 6.74, 7.56 1.21, 16 0" stroke="#495057" stroke-width="1.7" fill="none" stroke-linecap="round"></path></g><text x="695" y="108" font-family="Virgil, Segoe UI Emoji" font-size="15px" fill="#1e1e1e" text-anchor="middle" dominant-baseline="central" style="white-space:pre">API Gateway</text><text x="695" y="127" font-family="Virgil, Segoe UI Emoji" font-size="12px" fill="#495057" text-anchor="middle" dominant-baseline="central" style="white-space:pre">TLS · authN · rate-limit</text><g transform="translate(825 91)"><path d="M16 0 C67.72 -0.1, 119.96 0.02, 173.9 0.13 C183.09 -0.59, 189.71 7.05, 190 16 C189.86 22.17, 189.93 29.06, 190.24 36.15 C189.68 45.01, 182.52 51.63, 174 52 C122.09 51.77, 69.53 51.97, 15.95 52.23 C7.12 51.68, 0.27 45.37, 0 36 C-0.54 28.91, 0.44 22.9, -0.06 16.06 C-0.19 7.48, 7.78 0.5, 16 0 Z" stroke="none" fill="#dee2e6"></path><path d="M16 0 C69.17 1.16, 120.78 0.38, 173.68 0.29 C181.68 -0.88, 188.78 6.16, 190 16 C189.3 21.62, 190.63 28.44, 190.59 35.44 C188.7 43.62, 182.89 51.42, 174 52 C120.83 50.62, 69.52 50.74, 16.54 51.45 C7.62 52.18, -0.84 44.41, 0 36 C-1.32 28.77, -1.3 22.92, -0.42 15.97 C0.87 8.03, 6.42 0.63, 16 0 M16 0 C68.38 -0.1, 119.68 -0.17, 173.96 -0.24 C183.45 -0.03, 189.11 7.78, 190 16 C188.99 22.31, 190.3 28.3, 190.03 36.01 C189.07 43.99, 182.11 51.72, 174 52 C120.62 52.04, 70.32 51.18, 15.63 52.24 C7.9 51.25, 1.05 43.54, 0 36 C-0.07 28.61, -0.69 23.28, -0.18 16.28 C0.1 8.57, 6.84 -0.12, 16 0" stroke="#495057" stroke-width="1.7" fill="none" stroke-linecap="round"></path></g><text x="920" y="108" font-family="Virgil, Segoe UI Emoji" font-size="15px" fill="#1e1e1e" text-anchor="middle" dominant-baseline="central" style="white-space:pre">L7 Load Balancer</text><text x="920" y="127" font-family="Virgil, Segoe UI Emoji" font-size="12px" fill="#495057" text-anchor="middle" dominant-baseline="central" style="white-space:pre">health checks · spread</text><g transform="translate(65 225)"><path d="M16 0 C70.88 -0.23, 126.91 -0.1, 184.02 -0.25 C192.65 0.37, 199.74 7.78, 200 16 C199.42 27.34, 200.58 38.15, 200.1 50.13 C199.49 58.64, 193.23 65.97, 184 66 C128.91 65.41, 73.59 66.51, 16.15 66 C6.88 65.67, -0.01 59.25, 0 50 C0.06 38.66, -0.1 28.02, -0.23 15.99 C-0.33 7.08, 7.52 -0.48, 16 0 Z" stroke="none" fill="#a5d8ff"></path><path d="M16 0 C70.22 0.22, 126.39 0.37, 184.07 -0.34 C194 -0.69, 199.06 8.28, 200 16 C200.5 27.88, 200.91 38.65, 200.27 50.29 C200.66 60.09, 191.98 65.17, 184 66 C128.91 64.71, 74.08 67.24, 15.53 66.27 C8.23 66.89, 1.12 57.9, 0 50 C-0.21 39.96, -0.47 27.49, -0.48 15.83 C0.7 7.1, 5.98 0.55, 16 0 M16 0 C70.47 -0.62, 127.59 1.36, 184.43 0.49 C192.46 -1, 201.32 8.07, 200 16 C199.12 25.87, 200.43 39.63, 199.39 49.39 C201.02 58.3, 193.39 65.56, 184 66 C129.78 66.6, 73 66.03, 15.49 65.72 C7.72 64.86, -0.65 59.34, 0 50 C-0.63 38.52, -0.1 28.81, -0.38 16.46 C0.01 8.58, 5.99 0.56, 16 0" stroke="#1971c2" stroke-width="1.7" fill="none" stroke-linecap="round"></path></g><text x="165" y="249" font-family="Virgil, Segoe UI Emoji" font-size="15px" fill="#1e1e1e" text-anchor="middle" dominant-baseline="central" style="white-space:pre">Service A</text><text x="165" y="268" font-family="Virgil, Segoe UI Emoji" font-size="12px" fill="#495057" text-anchor="middle" dominant-baseline="central" style="white-space:pre">stateless · CRUD</text><g transform="translate(305 225)"><path d="M16 0 C70.89 -0.02, 126.41 0.31, 184.18 -0.03 C193.39 -0.24, 199.73 6.64, 200 16 C199.85 27.73, 200.35 38.33, 200.06 49.96 C199.65 58.51, 192.52 66.07, 184 66 C128.94 65.96, 73.53 66.36, 15.94 66.16 C6.9 65.43, -0.59 58.98, 0 50 C0.47 39.16, -0.18 27.1, -0.19 16.17 C0.56 6.89, 6.97 -0.45, 16 0 Z" stroke="none" fill="#a5d8ff"></path><path d="M16 0 C72.07 -1.26, 128.05 -0.36, 183.89 0.09 C193.64 1.14, 200.22 6.59, 200 16 C199.41 26.69, 198.65 37.25, 199.4 50.21 C199.09 60.09, 191.85 67.09, 184 66 C129.3 65.83, 72.04 66.84, 15.4 65.62 C7.11 66.47, -0.98 58.16, 0 50 C0.71 39.47, -1.17 26.86, 0.69 15.79 C0.2 6.85, 8.57 -0.24, 16 0 M16 0 C72.12 0.04, 127.59 -0.55, 183.46 -0.66 C192.9 -1.01, 201.35 6.27, 200 16 C198.76 28.52, 200.54 38.42, 200.63 50.7 C200.41 59.31, 191.83 66.52, 184 66 C128.92 66.98, 73.05 66.95, 16.67 66.06 C6.88 65.66, 0.48 59.25, 0 50 C0.6 38.08, 0.22 27.32, -0.57 15.86 C-1.28 7.5, 6.05 -0.52, 16 0" stroke="#1971c2" stroke-width="1.7" fill="none" stroke-linecap="round"></path></g><text x="405" y="249" font-family="Virgil, Segoe UI Emoji" font-size="15px" fill="#1e1e1e" text-anchor="middle" dominant-baseline="central" style="white-space:pre">Service B</text><text x="405" y="268" font-family="Virgil, Segoe UI Emoji" font-size="12px" fill="#495057" text-anchor="middle" dominant-baseline="central" style="white-space:pre">stateless · CRUD</text><g transform="translate(545 225)"><path d="M16 0 C71.22 0.44, 127.35 0.3, 183.95 0.14 C192.39 -0.11, 199.98 7.65, 200 16 C200.47 27.32, 200.56 38.65, 199.99 50.2 C199.82 59.17, 192.46 65.45, 184 66 C128.95 66.25, 72.6 65.66, 16.12 65.7 C7 66.51, -0.25 59.08, 0 50 C-0.4 39.37, -0.04 26.96, 0.29 16.3 C0.01 7.08, 6.73 0.38, 16 0 Z" stroke="none" fill="#a5d8ff"></path><path d="M16 0 C70.23 0.29, 128.19 -0.02, 183.73 -0.62 C191.7 0.1, 198.96 5.93, 200 16 C200.56 26.66, 199.15 39.09, 200.08 50.53 C198.81 59.63, 191.51 66.62, 184 66 C127.85 65.7, 72.32 65.53, 15.34 66.3 C6.44 66.84, -0.37 59.93, 0 50 C0.57 40, -0.75 26.54, 0.62 15.86 C-1.22 6.53, 7.04 0.75, 16 0 M16 0 C70.46 -0.28, 127.75 0.97, 184.54 -0.69 C194.17 -0.49, 200.84 8.53, 200 16 C199.17 28.4, 199 37.58, 200.13 50.39 C199.34 58.76, 193.72 65.64, 184 66 C128.14 64.72, 73.79 65.45, 15.65 66.08 C8.59 66.57, -0.74 57.55, 0 50 C0.02 39.37, -0.44 27.58, 0.47 16.51 C-0.27 8.37, 8.45 -0.63, 16 0" stroke="#1971c2" stroke-width="1.7" fill="none" stroke-linecap="round"></path></g><text x="645" y="249" font-family="Virgil, Segoe UI Emoji" font-size="15px" fill="#1e1e1e" text-anchor="middle" dominant-baseline="central" style="white-space:pre">Service C</text><text x="645" y="268" font-family="Virgil, Segoe UI Emoji" font-size="12px" fill="#495057" text-anchor="middle" dominant-baseline="central" style="white-space:pre">stateless · compute</text><g transform="translate(790 225)"><path d="M16 0 C74.34 -0.42, 133.58 0.4, 194.04 -0.2 C202.79 -0.05, 209.45 7.4, 210 16 C210.55 27.69, 209.67 38.8, 210.25 49.73 C210.5 59.06, 202.41 66.08, 194 66 C134.89 65.56, 76.38 66.29, 15.91 66 C7.1 65.96, 0.41 58.94, 0 50 C-0.15 38.54, 0.13 28.08, 0.21 16.22 C0.29 7.12, 7.38 0.25, 16 0 Z" stroke="none" fill="#a5d8ff"></path><path d="M16 0 C74.37 -1.34, 133.19 -0.5, 193.9 0.44 C204.12 1.2, 210.58 7.41, 210 16 C210.3 26.43, 209.64 38.14, 210.7 50.64 C210.67 60.09, 202.64 66.7, 194 66 C135.5 64.77, 76.75 64.76, 16.6 65.44 C8.3 65.87, -0.99 59.16, 0 50 C-0.07 39.38, 0.76 26.95, -0.55 16.14 C-1.16 8.47, 7.43 -0.78, 16 0 M16 0 C74.86 1.15, 133.03 0.56, 194.25 -0.14 C201.95 0.55, 209.38 8.11, 210 16 C210.58 26.49, 210.63 37.5, 209.56 50.09 C209.4 57.77, 203.8 64.81, 194 66 C135.07 66.98, 77.5 65.42, 16.47 65.78 C8.52 67.14, 1.34 59, 0 50 C-0.62 39.69, 0.35 26.92, -0.08 15.83 C-0.87 7.83, 7.55 0.17, 16 0" stroke="#1971c2" stroke-width="1.7" fill="none" stroke-linecap="round"></path></g><text x="895" y="249" font-family="Virgil, Segoe UI Emoji" font-size="15px" fill="#1e1e1e" text-anchor="middle" dominant-baseline="central" style="white-space:pre">Realtime Gateway</text><text x="895" y="268" font-family="Virgil, Segoe UI Emoji" font-size="12px" fill="#495057" text-anchor="middle" dominant-baseline="central" style="white-space:pre">WebSocket / gRPC · holds conns</text><g transform="translate(65 378)"><path d="M16 0 C71.57 0.08, 126.37 0.5, 183.99 0.2 C193.1 -0.24, 200.52 7.55, 200 16 C200.27 27.64, 199.63 39.58, 199.81 52.15 C200.23 60.31, 192.74 67.47, 184 68 C128.98 67.63, 72.7 67.81, 16.13 67.94 C7.08 67.8, -0.1 61.01, 0 52 C0.16 40.71, -0.05 27.9, -0.08 16.05 C-0.22 6.87, 7.47 0.22, 16 0 Z" stroke="none" fill="#ffc9c9"></path><path d="M16 0 C70.21 0.92, 125.73 -1.25, 183.78 0.17 C192.99 0.77, 201.32 7.08, 200 16 C199.03 26.88, 198.63 39.33, 200.41 51.6 C201.08 60.13, 191.61 67.39, 184 68 C127.55 68.66, 72.8 68.48, 15.93 67.53 C7.03 67.19, 0.43 59.82, 0 52 C-1.27 39.26, 0.06 28.79, 0.24 15.47 C0.82 6.46, 8.45 -0.01, 16 0 M16 0 C70.37 -0.6, 127.98 -0.7, 184.29 0.48 C192.6 0.12, 199.55 6.17, 200 16 C201.22 27, 200.62 40.61, 200.15 51.54 C201.4 60.51, 193.25 68.12, 184 68 C129.45 66.92, 74.03 68.02, 16.06 67.64 C5.82 68.84, 0.92 61.19, 0 52 C-0.93 41.22, 0.09 26.91, 0.31 15.82 C1.36 7.42, 6.8 1.18, 16 0" stroke="#e03131" stroke-width="1.7" fill="none" stroke-linecap="round"></path></g><text x="165" y="403" font-family="Virgil, Segoe UI Emoji" font-size="15px" fill="#1e1e1e" text-anchor="middle" dominant-baseline="central" style="white-space:pre">SQL</text><text x="165" y="422" font-family="Virgil, Segoe UI Emoji" font-size="12px" fill="#495057" text-anchor="middle" dominant-baseline="central" style="white-space:pre">ACID · users · money</text><g transform="translate(305 378)"><path d="M16 0 C71.26 -0.16, 126.9 0.1, 184.08 -0.18 C193.11 -0.27, 200.26 7.75, 200 16 C200.23 28.32, 200.35 40.26, 200.22 51.93 C199.51 61.12, 193.35 68.07, 184 68 C128.86 67.94, 72.69 67.98, 16.05 67.98 C7.11 68.14, -0.44 61.17, 0 52 C0.35 40.55, 0.53 27.7, 0.15 15.79 C-0.58 7.24, 7.21 0.38, 16 0 Z" stroke="none" fill="#ffc9c9"></path><path d="M16 0 C72.66 0.53, 127.51 0.27, 183.79 -0.46 C191.7 0.25, 200.67 8.44, 200 16 C200.04 27.84, 201.12 38.64, 200.67 52.58 C200.4 61.55, 191.94 68.7, 184 68 C129.82 66.92, 71.73 68.21, 15.64 68.35 C8.56 67.15, 0.92 59.85, 0 52 C0.8 41.33, -0.73 29.34, 0.02 16.07 C0.21 7.84, 6.52 -0.72, 16 0 M16 0 C70.11 0.59, 128.04 -1.13, 183.34 0.44 C193.81 -0.58, 200.8 8.4, 200 16 C199.56 28.35, 200.68 40.78, 199.58 52.08 C199.76 60.9, 193.55 68.19, 184 68 C129.57 68.92, 73.73 68.78, 15.69 67.99 C8.29 67.44, 0.75 60.51, 0 52 C0.16 39.03, 0.55 28.51, 0.56 15.88 C-0.19 8.46, 8.16 0.5, 16 0" stroke="#e03131" stroke-width="1.7" fill="none" stroke-linecap="round"></path></g><text x="405" y="403" font-family="Virgil, Segoe UI Emoji" font-size="15px" fill="#1e1e1e" text-anchor="middle" dominant-baseline="central" style="white-space:pre">Wide-column</text><text x="405" y="422" font-family="Virgil, Segoe UI Emoji" font-size="12px" fill="#495057" text-anchor="middle" dominant-baseline="central" style="white-space:pre">Cassandra · feeds · TTL</text><g transform="translate(545 378)"><path d="M16 0 C70.97 0.21, 126.65 0.53, 184.24 -0.14 C192.82 -0.12, 200.26 7.36, 200 16 C199.58 28.26, 200.38 39.77, 199.87 52.17 C200.12 60.43, 193.06 68.19, 184 68 C128.51 67.99, 72.76 67.72, 15.81 67.97 C6.69 67.62, -0.25 60.5, 0 52 C0.16 39.7, 0.27 28.03, 0.24 16.21 C-0.36 6.7, 6.67 0.16, 16 0 Z" stroke="none" fill="#ffc9c9"></path><path d="M16 0 C72.51 -1.08, 127.84 1.09, 184.21 0.47 C193.65 -0.27, 199.99 6.13, 200 16 C200.47 28.24, 200.29 39.23, 199.64 51.33 C200.87 62.02, 192.22 66.86, 184 68 C128.77 69.2, 73 68.55, 16.14 67.73 C6.86 68.3, -0.63 61.23, 0 52 C0.85 40.9, 0.35 29.07, 0.56 16.07 C-0.82 5.96, 6.56 0.04, 16 0 M16 0 C72.6 1.33, 127.22 -0.03, 183.71 -0.43 C194.04 -0.82, 198.61 7.4, 200 16 C201.3 28.73, 198.63 38.88, 199.66 52.09 C198.9 61.92, 193.37 66.83, 184 68 C129.07 67.98, 73.57 68.29, 16.65 68.53 C8 68.11, -0.35 59.76, 0 52 C-0.7 41, -0.98 27.41, 0.47 16.19 C-1.31 7.39, 8.5 -1.06, 16 0" stroke="#e03131" stroke-width="1.7" fill="none" stroke-linecap="round"></path></g><text x="645" y="403" font-family="Virgil, Segoe UI Emoji" font-size="15px" fill="#1e1e1e" text-anchor="middle" dominant-baseline="central" style="white-space:pre">Cache</text><text x="645" y="422" font-family="Virgil, Segoe UI Emoji" font-size="12px" fill="#495057" text-anchor="middle" dominant-baseline="central" style="white-space:pre">Redis · hot kv · counts</text><g transform="translate(790 378)"><path d="M16 0 C74.58 0.02, 132.95 -0.59, 194.08 -0.03 C202.79 -0.04, 210.35 6.98, 210 16 C210.01 27.32, 210.55 40.32, 210.21 52 C210.2 60.29, 203.17 68.05, 194 68 C135.61 68.56, 77.11 68.43, 15.9 68.14 C7.19 68.1, 0.5 61.26, 0 52 C0.39 39.67, -0.6 28.76, 0.19 15.82 C-0.44 7.74, 7.78 -0.07, 16 0 Z" stroke="none" fill="#ffc9c9"></path><path d="M16 0 C75 0.26, 133.67 1.08, 194.7 0.35 C203.24 0.54, 208.75 6.04, 210 16 C209.58 26.67, 211.21 40.11, 210.38 51.45 C210.65 60.58, 201.8 66.68, 194 68 C135.79 68.92, 77.73 67.84, 15.31 67.81 C5.97 69.14, -0.74 61.77, 0 52 C0.13 39.14, -0.37 27.5, 0.54 16.12 C1.02 7.95, 7.67 0.36, 16 0 M16 0 C75.4 -1.35, 132.35 -1.27, 194.54 -0.52 C201.5 0.71, 210.14 6.29, 210 16 C209.42 27.11, 210.07 39.61, 210.66 51.36 C210.31 62.19, 201.99 67.76, 194 68 C134.05 69.24, 76.89 67.4, 15.65 68.34 C7.25 69.35, 0.24 59.64, 0 52 C1.24 39.02, -0.86 28.34, -0.45 16.41 C-0.6 6.16, 5.89 -1.14, 16 0" stroke="#e03131" stroke-width="1.7" fill="none" stroke-linecap="round"></path></g><text x="895" y="403" font-family="Virgil, Segoe UI Emoji" font-size="15px" fill="#1e1e1e" text-anchor="middle" dominant-baseline="central" style="white-space:pre">Blob / Object store</text><text x="895" y="422" font-family="Virgil, Segoe UI Emoji" font-size="12px" fill="#495057" text-anchor="middle" dominant-baseline="central" style="white-space:pre">S3 · media · files · backups</text><g transform="translate(250 455)"><path d="M12.5 0 C188.83 -0.21, 365.89 0.1, 547.33 -0.15 C554.69 0.52, 560.01 6, 560 12.5 C560.28 13.97, 560.29 15.35, 559.84 17.21 C559.96 24.08, 554.17 30.41, 547.5 30 C370.46 30.12, 194.69 29.69, 12.36 30.01 C6.19 30.27, -0.21 24.5, 0 17.5 C-0.49 16.09, 0.22 14.1, 0.17 12.24 C-0.33 5.91, 5.66 0.58, 12.5 0 Z" stroke="none" fill="#ffc9c9"></path><path d="M12.5 0 C189.64 0.98, 365.04 -1.29, 547.93 -0.34 C553.16 -0.13, 560.21 6.62, 560 12.5 C560.9 14.91, 559.23 16.01, 560.28 17.88 C559.44 23.99, 555.5 30.35, 547.5 30 C369.84 31.22, 194.82 30.01, 12.5 30.3 C6.27 29.64, -1.28 23.04, 0 17.5 C-0.43 14.98, -1.05 14.55, -0.53 11.93 C0.92 4.85, 5.49 0.86, 12.5 0 M12.5 0 C187.82 0.9, 366.99 0.73, 547.27 0.51 C553.59 -0.47, 560.23 5.48, 560 12.5 C561.37 13.66, 558.61 16.27, 559.33 16.86 C558.75 25.13, 553.44 30.31, 547.5 30 C371.84 30.62, 193.87 31.14, 13.04 30.06 C6.53 30.83, 0.91 24.37, 0 17.5 C0.53 17.15, 1.25 13.25, -0.35 13.01 C0.44 4.87, 6.61 -1.18, 12.5 0" stroke="#e03131" stroke-width="1.7" fill="none" stroke-linecap="round"></path></g><text x="530" y="461" font-family="Virgil, Segoe UI Emoji" font-size="15px" fill="#1e1e1e" text-anchor="middle" dominant-baseline="central" style="white-space:pre">Specialized indexes</text><text x="530" y="480" font-family="Virgil, Segoe UI Emoji" font-size="12px" fill="#495057" text-anchor="middle" dominant-baseline="central" style="white-space:pre">Search (Elasticsearch) · Geo (S2 / quadtree)</text><g transform="translate(155 550)"><path d="M16 0 C249.96 0, 483.02 0.47, 724.14 0.2 C732.38 0.45, 740.21 6.9, 740 16 C740.22 22.18, 739.57 27.89, 739.9 34.29 C740.05 42.72, 733.19 49.77, 724 50 C490.37 50.11, 257.31 49.67, 16.04 49.7 C6.79 49.71, -0.4 42.99, 0 34 C-0.34 27.66, -0.05 22.47, -0.13 15.8 C0.34 7.36, 7.41 0.21, 16 0 Z" stroke="none" fill="#ffd8a8"></path><path d="M16 0 C250.8 -0.19, 482.53 0.64, 724.21 0.34 C732.93 1.08, 739.44 7.09, 740 16 C739.6 23.25, 740.19 27.56, 739.49 33.57 C741.18 42.96, 733.69 51.02, 724 50 C489.61 50.17, 255.63 49.62, 16.02 49.6 C6.17 49.03, -0.34 41.91, 0 34 C-0.33 28.54, 1.24 22.84, 0.62 16.27 C1.38 8.49, 5.84 -0.42, 16 0 M16 0 C248.77 -1.34, 482.74 -1.33, 724.7 0.31 C732.86 0.13, 739.01 7.34, 740 16 C739.31 21.89, 740.76 27.58, 739.63 34.58 C740.13 43.85, 731.92 50.19, 724 50 C489.31 49.68, 255.53 51.18, 15.83 50.18 C6.76 50.3, 1.27 41.51, 0 34 C-0.77 26.71, -0.31 20.75, 0.58 15.63 C0.1 8.53, 7.04 -0.51, 16 0" stroke="#e8590c" stroke-width="1.7" fill="none" stroke-linecap="round"></path></g><text x="525" y="566" font-family="Virgil, Segoe UI Emoji" font-size="15px" fill="#1e1e1e" text-anchor="middle" dominant-baseline="central" style="white-space:pre">Message bus</text><text x="525" y="585" font-family="Virgil, Segoe UI Emoji" font-size="12px" fill="#495057" text-anchor="middle" dominant-baseline="central" style="white-space:pre">Apache Kafka / Pub-Sub · consumer groups + DLQ</text><g transform="translate(65 640)"><path d="M16 0 C71.61 0.35, 127.38 -0.56, 183.95 -0.14 C193.26 -0.38, 200.27 7.51, 200 16 C200.4 26.45, 199.44 36.6, 200.27 47.72 C199.53 56.44, 193.25 64.15, 184 64 C128.04 64.04, 73.51 64.23, 16.26 64.09 C6.84 64, 0.35 56.56, 0 48 C-0.53 37.06, -0.24 26.99, -0.1 15.71 C0.29 6.85, 7.56 0.21, 16 0 Z" stroke="none" fill="#a5d8ff"></path><path d="M16 0 C72.06 -1.16, 126.1 -1.28, 184.42 0.4 C192.3 -1.32, 200.15 7.6, 200 16 C198.94 26.66, 200.18 35.81, 200.6 47.47 C199.42 58.1, 192.79 63.32, 184 64 C129.87 63.4, 72.38 65.13, 16.11 64.28 C6.34 63.51, 0.16 55.95, 0 48 C-1.09 38.37, -0.32 26.53, 0.7 15.93 C0.55 6.49, 8.2 -1.24, 16 0 M16 0 C70.9 0.89, 125.76 -0.12, 184.54 0.26 C193.72 -0.43, 200.17 6.03, 200 16 C200.5 25.61, 200.16 37.76, 199.49 48 C199.19 57.72, 192.79 64.93, 184 64 C127.33 64.3, 73.87 65.08, 16.23 63.35 C6.75 64.04, 0.32 55.99, 0 48 C-0.65 36.32, -0.53 26.63, 0.13 16.31 C0.09 8, 6.52 0.17, 16 0" stroke="#1971c2" stroke-width="1.7" fill="none" stroke-linecap="round"></path></g><text x="165" y="663" font-family="Virgil, Segoe UI Emoji" font-size="15px" fill="#1e1e1e" text-anchor="middle" dominant-baseline="central" style="white-space:pre">Fan-out workers</text><text x="165" y="682" font-family="Virgil, Segoe UI Emoji" font-size="12px" fill="#495057" text-anchor="middle" dominant-baseline="central" style="white-space:pre">→ user inboxes</text><g transform="translate(305 640)"><path d="M16 0 C71.64 0.09, 126.7 0.3, 183.74 -0.06 C193.21 0.16, 199.78 7.28, 200 16 C200.14 27.14, 200.05 37.4, 199.82 47.95 C200.12 57.1, 192.95 63.63, 184 64 C129.07 63.69, 73.36 64.42, 16.18 64.09 C6.88 63.47, -0.45 56.63, 0 48 C0.1 36.84, 0.25 27.03, -0.15 16.02 C0.44 7.15, 7.06 0.08, 16 0 Z" stroke="none" fill="#a5d8ff"></path><path d="M16 0 C71.28 0.5, 127.46 -0.32, 183.77 0.2 C192.36 -0.85, 199.47 8.45, 200 16 C198.86 26.58, 200.99 36.44, 199.54 48.09 C199.99 56.97, 193.02 64.05, 184 64 C127.63 65.35, 74.34 63.06, 16.68 63.94 C6.67 64.85, 0.88 56.11, 0 48 C0.23 36.5, 0.91 26.46, 0.43 15.35 C-0.71 6.78, 7.67 -0.5, 16 0 M16 0 C71.41 0.02, 127.33 -0.81, 184.41 -0.34 C192.95 -0.78, 200.51 5.86, 200 16 C199.7 27.86, 200.54 37.1, 199.47 47.36 C199.11 56.22, 193.08 64.96, 184 64 C127.64 64.64, 73.5 64.92, 16.26 64.7 C8.15 64.52, 0.75 58.13, 0 48 C1.09 36.93, 1.19 26.5, -0.01 15.87 C-0.55 7.42, 6.33 -0.1, 16 0" stroke="#1971c2" stroke-width="1.7" fill="none" stroke-linecap="round"></path></g><text x="405" y="663" font-family="Virgil, Segoe UI Emoji" font-size="15px" fill="#1e1e1e" text-anchor="middle" dominant-baseline="central" style="white-space:pre">Indexer</text><text x="405" y="682" font-family="Virgil, Segoe UI Emoji" font-size="12px" fill="#495057" text-anchor="middle" dominant-baseline="central" style="white-space:pre">→ search index</text><g transform="translate(545 640)"><path d="M16 0 C71.61 -0.3, 126.61 0.28, 183.84 -0.11 C193.19 -0.28, 199.9 6.9, 200 16 C200.56 26.2, 200.38 36.7, 200.05 48.11 C199.56 56.52, 192.36 63.89, 184 64 C128.01 63.53, 73.53 63.87, 16.04 63.99 C7.4 63.57, 0.53 57.3, 0 48 C-0.46 37.8, -0.17 26.66, 0.25 15.9 C-0.42 7.06, 7.32 0.46, 16 0 Z" stroke="none" fill="#a5d8ff"></path><path d="M16 0 C72.07 -0.05, 126.15 -0.29, 183.86 0.31 C192.41 1.1, 201.09 7.38, 200 16 C198.65 26.76, 199.45 36.32, 200.29 48.15 C200.35 58.11, 194.04 64.2, 184 64 C129.34 64.11, 72.78 64.99, 16.38 64.02 C6.29 62.91, 0.05 56.16, 0 48 C1.25 37.41, 0.68 26.71, 0.18 16.51 C0.48 7.34, 8.2 0.56, 16 0 M16 0 C72.04 -0.24, 125.68 0.68, 183.94 0.06 C192.36 -1.39, 200.2 6.36, 200 16 C200.13 25.22, 200.91 38, 200.42 48.59 C199.16 58.04, 193.18 64.03, 184 64 C128.27 63.82, 73.23 64.51, 15.88 63.93 C6.47 64.71, 1.09 57.91, 0 48 C0.59 37.86, -0.52 27.02, 0.41 16.35 C0.16 6.58, 6.72 -1.15, 16 0" stroke="#1971c2" stroke-width="1.7" fill="none" stroke-linecap="round"></path></g><text x="645" y="663" font-family="Virgil, Segoe UI Emoji" font-size="15px" fill="#1e1e1e" text-anchor="middle" dominant-baseline="central" style="white-space:pre">Transcoder</text><text x="645" y="682" font-family="Virgil, Segoe UI Emoji" font-size="12px" fill="#495057" text-anchor="middle" dominant-baseline="central" style="white-space:pre">→ media pipeline</text><g transform="translate(790 640)"><path d="M16 0 C74.44 0.19, 133.68 -0.1, 194.12 0.17 C202.41 -0.55, 209.55 6.87, 210 16 C210.11 27.08, 210.16 36.97, 210.26 48.3 C210.13 57.21, 202.78 64.05, 194 64 C135.13 63.76, 76.01 63.82, 15.88 63.71 C7.3 64.47, 0.2 56.78, 0 48 C-0.41 37.21, -0.58 26.84, -0.19 15.89 C0.43 6.74, 7.79 -0.57, 16 0 Z" stroke="none" fill="#a5d8ff"></path><path d="M16 0 C74.98 0.03, 133.92 -0.07, 194.37 -0.04 C201.64 1.29, 209.03 6.14, 210 16 C211.28 27.04, 209.21 38.3, 209.45 47.98 C211.14 56.87, 201.87 63.29, 194 64 C134.56 63.44, 77.15 63.55, 15.51 63.43 C6.85 62.86, 1.38 55.81, 0 48 C-0.42 36.37, -0.32 25.64, -0.57 15.94 C-1.24 6.52, 6.52 -0.12, 16 0 M16 0 C73.48 0.25, 134.74 -0.17, 194.04 -0.42 C203.2 0.52, 210.37 5.97, 210 16 C208.72 25.88, 209.5 36.58, 209.74 48.32 C211.36 57.81, 203.88 62.66, 194 64 C135.58 65.02, 75.5 64.69, 16.03 63.53 C6.67 64.34, -0.38 57.33, 0 48 C-1.1 38.74, 0.37 25.68, -0.57 16.41 C0.91 6.53, 5.97 0.6, 16 0" stroke="#1971c2" stroke-width="1.7" fill="none" stroke-linecap="round"></path></g><text x="895" y="663" font-family="Virgil, Segoe UI Emoji" font-size="15px" fill="#1e1e1e" text-anchor="middle" dominant-baseline="central" style="white-space:pre">Analytics</text><text x="895" y="682" font-family="Virgil, Segoe UI Emoji" font-size="12px" fill="#495057" text-anchor="middle" dominant-baseline="central" style="white-space:pre">Flink → warehouse</text><rect x="47" y="61" width="198.5" height="18" fill="#ffffff" stroke="none"></rect><text x="52" y="70" font-family="Virgil, Segoe UI Emoji" font-size="12.5px" fill="#495057" text-anchor="start" dominant-baseline="central" style="white-space:pre">1 · EDGE — get bytes in &amp; out</text><rect x="47" y="191" width="205" height="18" fill="#ffffff" stroke="none"></rect><text x="52" y="200" font-family="Virgil, Segoe UI Emoji" font-size="12.5px" fill="#495057" text-anchor="start" dominant-baseline="central" style="white-space:pre">2 · SERVICES — stateless logic</text><rect x="47" y="351" width="231" height="18" fill="#ffffff" stroke="none"></rect><text x="52" y="360" font-family="Virgil, Segoe UI Emoji" font-size="12.5px" fill="#495057" text-anchor="start" dominant-baseline="central" style="white-space:pre">3 · DATA — the right store per job</text><rect x="47" y="531" width="205" height="18" fill="#ffffff" stroke="none"></rect><text x="52" y="540" font-family="Virgil, Segoe UI Emoji" font-size="12.5px" fill="#495057" text-anchor="start" dominant-baseline="central" style="white-space:pre">4 · ASYNC — decouple slow work</text><rect x="200.07" y="108" width="49.86" height="18" rx="6" ry="6" fill="#ffffff" fill-opacity="0.82" stroke="none"></rect><text x="225" y="117" font-family="Virgil, Segoe UI Emoji" font-size="11.5px" fill="#27313a" text-anchor="middle" dominant-baseline="central" style="white-space:pre">request</text><rect x="523.55" y="173" width="37.9" height="18" rx="6" ry="6" fill="#ffffff" fill-opacity="0.82" stroke="none"></rect><text x="542.5" y="182" font-family="Virgil, Segoe UI Emoji" font-size="11.5px" fill="#27313a" text-anchor="middle" dominant-baseline="central" style="white-space:pre">route</text><rect x="125.12" y="325.5" width="79.76" height="18" rx="6" ry="6" fill="#ffffff" fill-opacity="0.82" stroke="none"></rect><text x="165" y="334.5" font-family="Virgil, Segoe UI Emoji" font-size="11.5px" fill="#27313a" text-anchor="middle" dominant-baseline="central" style="white-space:pre">read / write</text><rect x="320.07" y="611" width="49.86" height="18" rx="6" ry="6" fill="#ffffff" fill-opacity="0.82" stroke="none"></rect><text x="345" y="620" font-family="Virgil, Segoe UI Emoji" font-size="11.5px" fill="#27313a" text-anchor="middle" dominant-baseline="central" style="white-space:pre">consume</text><rect x="979.19" y="424" width="121.62" height="18" rx="6" ry="6" fill="#ffffff" fill-opacity="0.82" stroke="none"></rect><text x="1040" y="433" font-family="Virgil, Segoe UI Emoji" font-size="11.5px" fill="#27313a" text-anchor="middle" dominant-baseline="central" style="white-space:pre">every write → event</text></g>
</svg>
