<?xml version="1.0" encoding="UTF-8"?>
<svg id="diagram" viewBox="0 0 1100 760" xmlns="http://www.w3.org/2000/svg" width="1100" height="760"><rect x="0" y="0" width="1100" height="760" fill="#ffffff"></rect><g><rect x="34" y="70" width="1032" height="94" rx="14" ry="14" fill="#f3f4ff" stroke="#4338ca" stroke-width="1.4" stroke-dasharray="7 5" opacity="0.95"></rect><rect x="48" y="47" width="207.60000000000002" height="22" rx="7" ry="7" fill="#4338ca"></rect><text x="151.8" y="58" fill="#fff" font-size="12" font-weight="700" text-anchor="middle" dominant-baseline="central">1 · EDGE — get bytes in &amp; out</text><rect x="34" y="200" width="1032" height="116" rx="14" ry="14" fill="#eef6fd" stroke="#0F5BB5" stroke-width="1.4" stroke-dasharray="7 5" opacity="0.95"></rect><rect x="48" y="177" width="214" height="22" rx="7" ry="7" fill="#0F5BB5"></rect><text x="155" y="188" fill="#fff" font-size="12" font-weight="700" text-anchor="middle" dominant-baseline="central">2 · SERVICES — stateless logic</text><rect x="34" y="360" width="1032" height="134" rx="14" ry="14" fill="#e9f7fa" stroke="#0A6E80" stroke-width="1.4" stroke-dasharray="7 5" opacity="0.95"></rect><rect x="48" y="337" width="239.60000000000002" height="22" rx="7" ry="7" fill="#0A6E80"></rect><text x="167.8" y="348" fill="#fff" font-size="12" font-weight="700" text-anchor="middle" dominant-baseline="central">3 · DATA — the right store per job</text><rect x="34" y="540" width="1032" height="188" rx="14" ry="14" fill="#fff6ec" stroke="#C8590B" stroke-width="1.4" stroke-dasharray="7 5" opacity="0.95"></rect><rect x="48" y="517" width="214" height="22" rx="7" ry="7" fill="#C8590B"></rect><text x="155" y="528" fill="#fff" font-size="12" font-weight="700" text-anchor="middle" dominant-baseline="central">4 · ASYNC — decouple slow work</text></g><g><path d="M205,117 L245,117" fill="none" stroke="#55606a" stroke-width="1.9" stroke-linejoin="round" stroke-linecap="round"></path><polygon points="245,117 236.32565506703307,120.87372430406592 236.32565506703307,113.12627569593408" fill="#55606a"></polygon><path d="M395,117 L425,117" fill="none" stroke="#55606a" stroke-width="1.9" stroke-linejoin="round" stroke-linecap="round"></path><polygon points="425,117 416.3256550670331,120.87372430406592 416.3256550670331,113.12627569593408" fill="#55606a"></polygon><path d="M575,117 L605,117" fill="none" stroke="#55606a" stroke-width="1.9" stroke-linejoin="round" stroke-linecap="round"></path><polygon points="605,117 596.325655067033,120.87372430406592 596.325655067033,113.12627569593408" fill="#55606a"></polygon><path d="M785,117 L825,117" fill="none" stroke="#55606a" stroke-width="1.9" stroke-linejoin="round" stroke-linecap="round"></path><polygon points="825,117 816.325655067033,120.87372430406592 816.325655067033,113.12627569593408" fill="#55606a"></polygon><path d="M920,143 L920,182 L165,182 L165,225" fill="none" stroke="#55606a" stroke-width="1.9" stroke-linejoin="round" stroke-linecap="round"></path><polygon points="165,225 161.12627569593408,216.32565506703307 168.87372430406592,216.32565506703307" fill="#55606a"></polygon><path d="M920,143 L920,182 L405,182 L405,225" fill="none" stroke="#55606a" stroke-width="1.9" stroke-linejoin="round" stroke-linecap="round"></path><polygon points="405,225 401.12627569593405,216.32565506703307 408.8737243040659,216.32565506703307" fill="#55606a"></polygon><path d="M920,143 L920,182 L645,182 L645,225" fill="none" stroke="#55606a" stroke-width="1.9" stroke-linejoin="round" stroke-linecap="round"></path><polygon points="645,225 641.126275695934,216.32565506703307 648.873724304066,216.32565506703307" fill="#55606a"></polygon><path d="M920,143 L920,182 L895,182 L895,225" fill="none" stroke="#55606a" stroke-width="1.9" stroke-linejoin="round" stroke-linecap="round"></path><polygon points="895,225 891.126275695934,216.32565506703307 898.873724304066,216.32565506703307" fill="#55606a"></polygon><path d="M165,291 L165,378" fill="none" stroke="#aab2bb" stroke-width="1.6" stroke-linejoin="round" stroke-linecap="round" stroke-dasharray="6 5"></path><polygon points="165,378 161.12627569593408,369.3256550670331 168.87372430406592,369.3256550670331" fill="#aab2bb"></polygon><path d="M405,291 L405,378" fill="none" stroke="#aab2bb" stroke-width="1.6" stroke-linejoin="round" stroke-linecap="round" stroke-dasharray="6 5"></path><polygon points="405,378 401.12627569593405,369.3256550670331 408.8737243040659,369.3256550670331" fill="#aab2bb"></polygon><path d="M645,291 L645,378" fill="none" stroke="#aab2bb" stroke-width="1.6" stroke-linejoin="round" stroke-linecap="round" stroke-dasharray="6 5"></path><polygon points="645,378 641.126275695934,369.3256550670331 648.873724304066,369.3256550670331" fill="#aab2bb"></polygon><path d="M895,291 L895,378" fill="none" stroke="#aab2bb" stroke-width="1.6" stroke-linejoin="round" stroke-linecap="round" stroke-dasharray="6 5"></path><polygon points="895,378 891.126275695934,369.3256550670331 898.873724304066,369.3256550670331" fill="#aab2bb"></polygon><path d="M525,600 L525,620 L165,620 L165,640" fill="none" stroke="#55606a" stroke-width="1.9" stroke-linejoin="round" stroke-linecap="round"></path><polygon points="165,640 161.12627569593408,631.325655067033 168.87372430406592,631.325655067033" fill="#55606a"></polygon><path d="M525,600 L525,620 L405,620 L405,640" fill="none" stroke="#55606a" stroke-width="1.9" stroke-linejoin="round" stroke-linecap="round"></path><polygon points="405,640 401.12627569593405,631.325655067033 408.8737243040659,631.325655067033" fill="#55606a"></polygon><path d="M525,600 L525,620 L645,620 L645,640" fill="none" stroke="#55606a" stroke-width="1.9" stroke-linejoin="round" stroke-linecap="round"></path><polygon points="645,640 641.126275695934,631.325655067033 648.873724304066,631.325655067033" fill="#55606a"></polygon><path d="M525,600 L525,620 L895,620 L895,640" fill="none" stroke="#55606a" stroke-width="1.9" stroke-linejoin="round" stroke-linecap="round"></path><polygon points="895,640 891.126275695934,631.325655067033 898.873724304066,631.325655067033" fill="#55606a"></polygon><path d="M1000,291 L1040,291 L1040,575 L895,575" fill="none" stroke="#55606a" stroke-width="1.9" stroke-linejoin="round" stroke-linecap="round"></path><polygon points="895,575 903.674344932967,571.126275695934 903.674344932967,578.873724304066" fill="#55606a"></polygon></g><g><rect x="55" y="91" width="150" height="52" rx="9" ry="9" fill="#fff" stroke="#6c757d" stroke-width="1.7" filter="url(#sh)"></rect><path d="M55,114.92 V100 Q55,91 64,91 H196 Q205,91 205,100 V114.92 Z" fill="#6c757d"></path><text x="130" y="103.46000000000001" fill="#fff" font-weight="700" font-size="12" text-anchor="middle" dominant-baseline="central">Client(s)</text><text x="130" y="128.96" fill="#3c454d" font-size="10.4" text-anchor="middle" dominant-baseline="central">web · mobile</text><rect x="245" y="91" width="150" height="52" rx="9" ry="9" fill="#fff" stroke="#4338ca" stroke-width="1.7" filter="url(#sh)"></rect><path d="M245,114.92 V100 Q245,91 254,91 H386 Q395,91 395,100 V114.92 Z" fill="#4f46e5"></path><text x="320" y="103.46000000000001" fill="#fff" font-weight="700" font-size="12" text-anchor="middle" dominant-baseline="central">GeoDNS</text><text x="320" y="128.96" fill="#3c454d" font-size="10.4" text-anchor="middle" dominant-baseline="central">nearest region</text><rect x="425" y="91" width="150" height="52" rx="9" ry="9" fill="#fff" stroke="#4338ca" stroke-width="1.7" filter="url(#sh)"></rect><path d="M425,114.92 V100 Q425,91 434,91 H566 Q575,91 575,100 V114.92 Z" fill="#4f46e5"></path><text x="500" y="103.46000000000001" fill="#fff" font-weight="700" font-size="12" text-anchor="middle" dominant-baseline="central">CDN</text><text x="500" y="128.96" fill="#3c454d" font-size="10.4" text-anchor="middle" dominant-baseline="central">static · media</text><rect x="605" y="91" width="180" height="52" rx="9" ry="9" fill="#fff" stroke="#4338ca" stroke-width="1.7" filter="url(#sh)"></rect><path d="M605,114.92 V100 Q605,91 614,91 H776 Q785,91 785,100 V114.92 Z" fill="#4f46e5"></path><text x="695" y="103.46000000000001" fill="#fff" font-weight="700" font-size="12" text-anchor="middle" dominant-baseline="central">API Gateway</text><text x="695" y="128.96" fill="#3c454d" font-size="10.4" text-anchor="middle" dominant-baseline="central">TLS · authN · rate-limit</text><rect x="825" y="91" width="190" height="52" rx="9" ry="9" fill="#fff" stroke="#4338ca" stroke-width="1.7" filter="url(#sh)"></rect><path d="M825,114.92 V100 Q825,91 834,91 H1006 Q1015,91 1015,100 V114.92 Z" fill="#4f46e5"></path><text x="920" y="103.46000000000001" fill="#fff" font-weight="700" font-size="12" text-anchor="middle" dominant-baseline="central">L7 Load Balancer</text><text x="920" y="128.96" fill="#3c454d" font-size="10.4" text-anchor="middle" dominant-baseline="central">health checks · spread</text><rect x="65" y="225" width="200" height="66" rx="9" ry="9" fill="#fff" stroke="#0F5BB5" stroke-width="1.7" filter="url(#sh)"></rect><path d="M65,249 V234 Q65,225 74,225 H256 Q265,225 265,234 V249 Z" fill="#0078D4"></path><text x="165" y="237.5" fill="#fff" font-weight="700" font-size="12" text-anchor="middle" dominant-baseline="central">Service A</text><text x="165" y="270" fill="#3c454d" font-size="10.4" text-anchor="middle" dominant-baseline="central">stateless · CRUD</text><rect x="305" y="225" width="200" height="66" rx="9" ry="9" fill="#fff" stroke="#0F5BB5" stroke-width="1.7" filter="url(#sh)"></rect><path d="M305,249 V234 Q305,225 314,225 H496 Q505,225 505,234 V249 Z" fill="#0078D4"></path><text x="405" y="237.5" fill="#fff" font-weight="700" font-size="12" text-anchor="middle" dominant-baseline="central">Service B</text><text x="405" y="270" fill="#3c454d" font-size="10.4" text-anchor="middle" dominant-baseline="central">stateless · CRUD</text><rect x="545" y="225" width="200" height="66" rx="9" ry="9" fill="#fff" stroke="#0F5BB5" stroke-width="1.7" filter="url(#sh)"></rect><path d="M545,249 V234 Q545,225 554,225 H736 Q745,225 745,234 V249 Z" fill="#0078D4"></path><text x="645" y="237.5" fill="#fff" font-weight="700" font-size="12" text-anchor="middle" dominant-baseline="central">Service C</text><text x="645" y="270" fill="#3c454d" font-size="10.4" text-anchor="middle" dominant-baseline="central">stateless · compute</text><rect x="790" y="225" width="210" height="66" rx="9" ry="9" fill="#fff" stroke="#0F5BB5" stroke-width="1.7" filter="url(#sh)"></rect><path d="M790,249 V234 Q790,225 799,225 H991 Q1000,225 1000,234 V249 Z" fill="#0078D4"></path><text x="895" y="237.5" fill="#fff" font-weight="700" font-size="12" text-anchor="middle" dominant-baseline="central">Realtime Gateway</text><text x="895" y="270" fill="#3c454d" font-size="10.4" text-anchor="middle" dominant-baseline="central">WebSocket / gRPC · holds conns</text><rect x="65" y="378" width="200" height="68" rx="9" ry="9" fill="#fff" stroke="#0A6E80" stroke-width="1.7" filter="url(#sh)"></rect><path d="M65,402 V387 Q65,378 74,378 H256 Q265,378 265,387 V402 Z" fill="#0C8599"></path><text x="165" y="390.5" fill="#fff" font-weight="700" font-size="12" text-anchor="middle" dominant-baseline="central">SQL</text><text x="165" y="424" fill="#3c454d" font-size="10.4" text-anchor="middle" dominant-baseline="central">ACID · users · money</text><rect x="305" y="378" width="200" height="68" rx="9" ry="9" fill="#fff" stroke="#0A6E80" stroke-width="1.7" filter="url(#sh)"></rect><path d="M305,402 V387 Q305,378 314,378 H496 Q505,378 505,387 V402 Z" fill="#0C8599"></path><text x="405" y="390.5" fill="#fff" font-weight="700" font-size="12" text-anchor="middle" dominant-baseline="central">Wide-column</text><text x="405" y="424" fill="#3c454d" font-size="10.4" text-anchor="middle" dominant-baseline="central">Cassandra · feeds · TTL</text><rect x="545" y="378" width="200" height="68" rx="9" ry="9" fill="#fff" stroke="#0A6E80" stroke-width="1.7" filter="url(#sh)"></rect><path d="M545,402 V387 Q545,378 554,378 H736 Q745,378 745,387 V402 Z" fill="#0C8599"></path><text x="645" y="390.5" fill="#fff" font-weight="700" font-size="12" text-anchor="middle" dominant-baseline="central">Cache</text><text x="645" y="424" fill="#3c454d" font-size="10.4" text-anchor="middle" dominant-baseline="central">Redis · hot kv · counts</text><rect x="790" y="378" width="210" height="68" rx="9" ry="9" fill="#fff" stroke="#0A6E80" stroke-width="1.7" filter="url(#sh)"></rect><path d="M790,402 V387 Q790,378 799,378 H991 Q1000,378 1000,387 V402 Z" fill="#0C8599"></path><text x="895" y="390.5" fill="#fff" font-weight="700" font-size="12" text-anchor="middle" dominant-baseline="central">Blob / Object store</text><text x="895" y="424" fill="#3c454d" font-size="10.4" text-anchor="middle" dominant-baseline="central">S3 · media · files · backups</text><rect x="250" y="455" width="560" height="30" rx="9" ry="9" fill="#fff" stroke="#0A6E80" stroke-width="1.7" filter="url(#sh)"></rect><path d="M250,468.8 V464 Q250,455 259,455 H801 Q810,455 810,464 V468.8 Z" fill="#0C8599"></path><text x="530" y="462.4" fill="#fff" font-weight="700" font-size="12" text-anchor="middle" dominant-baseline="central">Specialized indexes</text><text x="530" y="476.90000000000003" fill="#3c454d" font-size="10.4" text-anchor="middle" dominant-baseline="central">Search (Elasticsearch) · Geo (S2 / quadtree)</text><rect x="155" y="550" width="740" height="50" rx="9" ry="9" fill="#fff" stroke="#C8590B" stroke-width="1.7" filter="url(#sh)"></rect><path d="M155,573 V559 Q155,550 164,550 H886 Q895,550 895,559 V573 Z" fill="#F7630C"></path><text x="525" y="562" fill="#fff" font-weight="700" font-size="12" text-anchor="middle" dominant-baseline="central">Message bus</text><text x="525" y="586.5" fill="#3c454d" font-size="10.4" text-anchor="middle" dominant-baseline="central">Apache Kafka / Pub-Sub · consumer groups + DLQ</text><rect x="65" y="640" width="200" height="64" rx="9" ry="9" fill="#fff" stroke="#0F5BB5" stroke-width="1.7" filter="url(#sh)"></rect><path d="M65,664 V649 Q65,640 74,640 H256 Q265,640 265,649 V664 Z" fill="#0078D4"></path><text x="165" y="652.5" fill="#fff" font-weight="700" font-size="12" text-anchor="middle" dominant-baseline="central">Fan-out workers</text><text x="165" y="684" fill="#3c454d" font-size="10.4" text-anchor="middle" dominant-baseline="central">→ user inboxes</text><rect x="305" y="640" width="200" height="64" rx="9" ry="9" fill="#fff" stroke="#0F5BB5" stroke-width="1.7" filter="url(#sh)"></rect><path d="M305,664 V649 Q305,640 314,640 H496 Q505,640 505,649 V664 Z" fill="#0078D4"></path><text x="405" y="652.5" fill="#fff" font-weight="700" font-size="12" text-anchor="middle" dominant-baseline="central">Indexer</text><text x="405" y="684" fill="#3c454d" font-size="10.4" text-anchor="middle" dominant-baseline="central">→ search index</text><rect x="545" y="640" width="200" height="64" rx="9" ry="9" fill="#fff" stroke="#0F5BB5" stroke-width="1.7" filter="url(#sh)"></rect><path d="M545,664 V649 Q545,640 554,640 H736 Q745,640 745,649 V664 Z" fill="#0078D4"></path><text x="645" y="652.5" fill="#fff" font-weight="700" font-size="12" text-anchor="middle" dominant-baseline="central">Transcoder</text><text x="645" y="684" fill="#3c454d" font-size="10.4" text-anchor="middle" dominant-baseline="central">→ media pipeline</text><rect x="790" y="640" width="210" height="64" rx="9" ry="9" fill="#fff" stroke="#0F5BB5" stroke-width="1.7" filter="url(#sh)"></rect><path d="M790,664 V649 Q790,640 799,640 H991 Q1000,640 1000,649 V664 Z" fill="#0078D4"></path><text x="895" y="652.5" fill="#fff" font-weight="700" font-size="12" text-anchor="middle" dominant-baseline="central">Analytics</text><text x="895" y="684" fill="#3c454d" font-size="10.4" text-anchor="middle" dominant-baseline="central">Flink → warehouse</text></g><g><rect x="196.65" y="108" width="56.699999999999996" height="18" rx="9" ry="9" fill="#fff" stroke="#dde2e7" stroke-width="1"></rect><text x="225" y="117.5" fill="#27313a" font-size="10.8" font-weight="600" text-anchor="middle" dominant-baseline="central">request</text><rect x="520.25" y="173" width="44.5" height="18" rx="9" ry="9" fill="#fff" stroke="#dde2e7" stroke-width="1"></rect><text x="542.5" y="182.5" fill="#27313a" font-size="10.8" font-weight="600" text-anchor="middle" dominant-baseline="central">route</text><rect x="121.4" y="325.5" width="87.19999999999999" height="18" rx="9" ry="9" fill="#fff" stroke="#dde2e7" stroke-width="1"></rect><text x="165" y="335" fill="#27313a" font-size="10.8" font-weight="600" text-anchor="middle" dominant-baseline="central">read / write</text><rect x="316.65" y="611" width="56.699999999999996" height="18" rx="9" ry="9" fill="#fff" stroke="#dde2e7" stroke-width="1"></rect><text x="345" y="620.5" fill="#27313a" font-size="10.8" font-weight="600" text-anchor="middle" dominant-baseline="central">consume</text><rect x="975.05" y="424" width="129.89999999999998" height="18" rx="9" ry="9" fill="#fff" stroke="#dde2e7" stroke-width="1"></rect><text x="1040" y="433.5" fill="#27313a" font-size="10.8" font-weight="600" text-anchor="middle" dominant-baseline="central">every write → event</text></g><defs><filter id="sh" x="-20%" y="-20%" width="140%" height="140%"><feDropShadow dx="0" dy="1" stdDeviation="1.1" flood-color="#000" flood-opacity="0.13"></feDropShadow></filter></defs></svg>