<?xml version="1.0" encoding="UTF-8"?>
<svg id="diagram" viewBox="0 0 1250 540" xmlns="http://www.w3.org/2000/svg" width="1250" height="540"><rect x="0" y="0" width="1250" height="540" fill="#ffffff"></rect><g><rect x="18" y="206" width="572" height="294" rx="14" ry="14" fill="#f8fafc" stroke="#64748b" stroke-width="1.6" stroke-dasharray="7 5"></rect><rect x="32" y="183" width="147.60000000000002" height="22" rx="7" ry="7" fill="#475569"></rect><text x="105.80000000000001" y="194" fill="#fff" font-size="11.5" font-weight="700" text-anchor="middle" dominant-baseline="central">▢ Query Path (online)</text><rect x="955" y="204" width="270" height="96" rx="14" ry="14" fill="#f8fafc" stroke="#64748b" stroke-width="1.6" stroke-dasharray="7 5"></rect><rect x="969" y="181" width="192.4" height="22" rx="7" ry="7" fill="#475569"></rect><text x="1065.2" y="192" fill="#fff" font-size="11.5" font-weight="700" text-anchor="middle" dominant-baseline="central">▢ Scoring Pipeline (offline)</text></g><g><path d="M430,74 L430,99" fill="none" stroke="#55606a" stroke-width="1.9" stroke-linejoin="round" stroke-linecap="round"></path><polygon points="430,99 426.12627569593405,90.32565506703307 433.8737243040659,90.32565506703307" fill="#55606a"></polygon><path d="M430,157 L430,213 L235,213 L235,217" fill="none" stroke="#55606a" stroke-width="1.9" stroke-linejoin="round" stroke-linecap="round"></path><polygon points="235,217 231.12627569593408,208.32565506703307 238.87372430406592,208.32565506703307" fill="#55606a"></polygon><path d="M235,283 L235,352 L128,352 L128,407" fill="none" stroke="#55606a" stroke-width="1.9" stroke-linejoin="round" stroke-linecap="round"></path><polygon points="128,407 124.12627569593408,398.3256550670331 131.87372430406592,398.3256550670331" fill="#55606a"></polygon><path d="M235,283 L235,352 L405,352 L405,399" fill="none" stroke="#55606a" stroke-width="1.9" stroke-linejoin="round" stroke-linecap="round"></path><polygon points="405,399 401.12627569593405,390.3256550670331 408.8737243040659,390.3256550670331" fill="#55606a"></polygon><path d="M367,250 L610,250" fill="none" stroke="#55606a" stroke-width="1.9" stroke-linejoin="round" stroke-linecap="round"></path><polygon points="610,250 601.325655067033,253.87372430406592 601.325655067033,246.12627569593408" fill="#55606a"></polygon><path d="M850,250 L965,250" fill="none" stroke="#55606a" stroke-width="1.9" stroke-linejoin="round" stroke-linecap="round"></path><polygon points="965,250 956.325655067033,253.87372430406592 956.325655067033,246.12627569593408" fill="#55606a"></polygon><path d="M1090,292 L1090,406" fill="none" stroke="#55606a" stroke-width="1.9" stroke-linejoin="round" stroke-linecap="round"></path><polygon points="1090,406 1086.126275695934,397.3256550670331 1093.873724304066,397.3256550670331" fill="#55606a"></polygon><path d="M960,440 L557,440" fill="none" stroke="#55606a" stroke-width="1.9" stroke-linejoin="round" stroke-linecap="round"></path><polygon points="557,440 565.674344932967,436.12627569593405 565.674344932967,443.8737243040659" fill="#55606a"></polygon></g><g><rect x="280" y="26" width="300" height="48" rx="9" ry="9" fill="#fff" stroke="#6c757d" stroke-width="1.7" filter="url(#sh)"></rect><path d="M280,48.08 V35 Q280,26 289,26 H571 Q580,26 580,35 V48.08 Z" fill="#6c757d"></path><text x="430" y="37.54" fill="#fff" font-weight="700" font-size="12.5" text-anchor="middle" dominant-baseline="central">Clients</text><text x="430" y="61.04" fill="#3c454d" font-size="10.8" text-anchor="middle" dominant-baseline="central">web · mobile · debounce + cancel</text><rect x="250" y="99" width="360" height="58" rx="9" ry="9" fill="#fff" stroke="#4338ca" stroke-width="1.7" filter="url(#sh)"></rect><path d="M250,125 V108 Q250,99 259,99 H601 Q610,99 610,108 V125 Z" fill="#4f46e5"></path><text x="430" y="112.5" fill="#fff" font-weight="700" font-size="12.5" text-anchor="middle" dominant-baseline="central">API Gateway + CDN</text><text x="430" y="141" fill="#3c454d" font-size="10.8" text-anchor="middle" dominant-baseline="central">TLS · static · hot-prefix cache</text><rect x="103" y="217" width="264" height="66" rx="9" ry="9" fill="#fff" stroke="#0F5BB5" stroke-width="1.7" filter="url(#sh)"></rect><path d="M103,243 V226 Q103,217 112,217 H358 Q367,217 367,226 V243 Z" fill="#0078D4"></path><text x="235" y="230.5" fill="#fff" font-weight="700" font-size="12.5" text-anchor="middle" dominant-baseline="central">Suggest Service</text><text x="235" y="263" fill="#3c454d" font-size="10.8" text-anchor="middle" dominant-baseline="central">prefix query · &lt;50ms</text><rect x="26" y="407" width="204" height="66" rx="9" ry="9" fill="#fff" stroke="#0A6E80" stroke-width="1.7" filter="url(#sh)"></rect><path d="M26,433 V416 Q26,407 35,407 H221 Q230,407 230,416 V433 Z" fill="#0C8599"></path><text x="128" y="420.5" fill="#fff" font-weight="700" font-size="12.5" text-anchor="middle" dominant-baseline="central">Top-K Cache</text><text x="128" y="453" fill="#3c454d" font-size="10.8" text-anchor="middle" dominant-baseline="central">Redis · prefix → top-K</text><rect x="253" y="399" width="304" height="82" rx="9" ry="9" fill="#fff" stroke="#0F5BB5" stroke-width="1.7" filter="url(#sh)"></rect><path d="M253,425 V408 Q253,399 262,399 H548 Q557,399 557,408 V425 Z" fill="#0078D4"></path><text x="405" y="412.5" fill="#fff" font-weight="700" font-size="12.5" text-anchor="middle" dominant-baseline="central">Trie Cluster</text><text x="405" y="453" fill="#3c454d" font-size="10.8" text-anchor="middle" dominant-baseline="central">in-RAM · sharded by prefix · top-K/node</text><rect x="610" y="223" width="240" height="54" rx="9" ry="9" fill="#fff" stroke="#C8590B" stroke-width="1.7" filter="url(#sh)"></rect><path d="M610,247.84 V232 Q610,223 619,223 H841 Q850,223 850,232 V247.84 Z" fill="#F7630C"></path><text x="730" y="235.92" fill="#fff" font-weight="700" font-size="12.5" text-anchor="middle" dominant-baseline="central">Apache Kafka</text><text x="730" y="262.42" fill="#3c454d" font-size="10.8" text-anchor="middle" dominant-baseline="central">query logs</text><rect x="965" y="208" width="250" height="84" rx="9" ry="9" fill="#fff" stroke="#0F5BB5" stroke-width="1.7" filter="url(#sh)"></rect><path d="M965,234 V217 Q965,208 974,208 H1206 Q1215,208 1215,217 V234 Z" fill="#0078D4"></path><text x="1090" y="221.5" fill="#fff" font-weight="700" font-size="12.5" text-anchor="middle" dominant-baseline="central">Aggregation Pipeline</text><text x="1090" y="263" fill="#3c454d" font-size="10.8" text-anchor="middle" dominant-baseline="central">Flink / Spark · popularity scores</text><rect x="960" y="406" width="260" height="68" rx="9" ry="9" fill="#fff" stroke="#0A6E80" stroke-width="1.7" filter="url(#sh)"></rect><path d="M960,432 V415 Q960,406 969,406 H1211 Q1220,406 1220,415 V432 Z" fill="#0C8599"></path><text x="1090" y="419.5" fill="#fff" font-weight="700" font-size="12.5" text-anchor="middle" dominant-baseline="central">Score Snapshot</text><text x="1090" y="453" fill="#3c454d" font-size="10.8" text-anchor="middle" dominant-baseline="central">build artifact → trie load</text></g><g><rect x="395.55" y="77.5" width="68.9" height="18" rx="9" ry="9" fill="#ffffff" stroke="#dde2e7" stroke-width="1"></rect><text x="430" y="87" fill="#27313a" font-size="10.8" font-weight="600" text-anchor="middle" dominant-baseline="central">keystroke</text><rect x="380.3" y="176" width="99.39999999999999" height="18" rx="9" ry="9" fill="#ffffff" stroke="#dde2e7" stroke-width="1"></rect><text x="430" y="185.5" fill="#27313a" font-size="10.8" font-weight="600" text-anchor="middle" dominant-baseline="central">① prefix query</text><rect x="140.95" y="343" width="81.1" height="18" rx="9" ry="9" fill="#ffffff" stroke="#dde2e7" stroke-width="1"></rect><text x="181.5" y="352.5" fill="#27313a" font-size="10.8" font-weight="600" text-anchor="middle" dominant-baseline="central">② cache hit</text><rect x="248.95" y="343" width="142.1" height="18" rx="9" ry="9" fill="#ffffff" stroke="#dde2e7" stroke-width="1"></rect><text x="320" y="352.5" fill="#27313a" font-size="10.8" font-weight="600" text-anchor="middle" dominant-baseline="central">③ miss · merge shards</text><rect x="444.9" y="241" width="87.19999999999999" height="18" rx="9" ry="9" fill="#ffffff" stroke="#dde2e7" stroke-width="1"></rect><text x="488.5" y="250.5" fill="#27313a" font-size="10.8" font-weight="600" text-anchor="middle" dominant-baseline="central">④ query logs</text><rect x="866.95" y="241" width="81.1" height="18" rx="9" ry="9" fill="#ffffff" stroke="#dde2e7" stroke-width="1"></rect><text x="907.5" y="250.5" fill="#27313a" font-size="10.8" font-weight="600" text-anchor="middle" dominant-baseline="central">⑤ aggregate</text><rect x="1055.55" y="340" width="68.9" height="18" rx="9" ry="9" fill="#ffffff" stroke="#dde2e7" stroke-width="1"></rect><text x="1090" y="349.5" fill="#27313a" font-size="10.8" font-weight="600" text-anchor="middle" dominant-baseline="central">⑥ rebuild</text><rect x="717.95" y="431" width="81.1" height="18" rx="9" ry="9" fill="#ffffff" stroke="#dde2e7" stroke-width="1"></rect><text x="758.5" y="440.5" fill="#27313a" font-size="10.8" font-weight="600" text-anchor="middle" dominant-baseline="central">atomic swap</text></g><defs><filter id="sh" x="-20%" y="-20%" width="140%" height="140%"><feDropShadow dx="0" dy="1" stdDeviation="1.1" flood-color="#000" flood-opacity="0.13"></feDropShadow></filter></defs></svg>