<svg version="1.1" xmlns="http://www.w3.org/2000/svg" viewBox="0 0 1250 624" width="1250" height="624">
  <!-- svg-source:gen-whiteboards.js -->
  <defs><style class="style-fonts">
@font-face{font-family:"Virgil";src:url("https://unpkg.com/@excalidraw/excalidraw@0.17.6/dist//dist/excalidraw-assets/Virgil.woff2");}
</style></defs>
  <rect x="0" y="0" width="1250" height="624" fill="#ffffff"></rect>
  <text x="24" y="26" font-family="Virgil, Segoe UI Emoji" font-size="22px" fill="#1e1e1e" text-anchor="start" dominant-baseline="central" style="white-space:pre">Search Autocomplete / Typeahead — how you'd draw it live on the whiteboard</text>
  <text x="24" y="58" font-family="Virgil, Segoe UI Emoji" font-size="13px" fill="#868e96" text-anchor="start" dominant-baseline="central" style="white-space:pre">green = client   ·   grey = edge / LB   ·   blue = service   ·   red = datastore   ·   orange = queue / stream   ·   violet = 3rd-party</text>
  <g transform="translate(0 84)"><g transform="translate(18 206)"><path d="M18 0 C194.65 0.98, 371.76 0.99, 554.32 -0.11 C563.81 0.45, 571.94 8.18, 572 18 C572.99 103.8, 571.44 188.7, 572.27 275.78 C572.56 285.78, 563.61 293.45, 554 294 C377.21 293.86, 200.7 293.27, 18.02 294.45 C7.85 294.09, 0.91 285.38, 0 276 C-0.33 191.74, -0.21 105.51, 0.11 18.48 C0.23 8.07, 8.56 0.35, 18 0" stroke="#495057" stroke-width="1.8" fill="none" stroke-linecap="round" stroke-dasharray="8 9"></path></g><g transform="translate(955 204)"><path d="M18 0 C95.22 0.07, 172.53 -0.86, 252 0.31 C262.66 0.44, 269.35 7.79, 270 18 C270.27 37.44, 269.24 58.18, 270.12 78.14 C269.78 88.44, 261.48 96.71, 252 96 C174.55 96.43, 97.9 95.11, 18.31 95.6 C9.04 96.54, 0.66 86.98, 0 78 C-0.61 57.35, 0.4 39.22, 0.25 18.21 C0.47 8.47, 7.74 -0.27, 18 0" stroke="#495057" stroke-width="1.8" fill="none" stroke-linecap="round" stroke-dasharray="8 9"></path></g><path d="M430 74 C430.12 82.09, 430.37 91.49, 429.74 98.84" stroke="#1e1e1e" stroke-width="1.6" fill="none" stroke-linecap="round"></path><path d="M430 99 L425.51 88.96 M430 99 L434.49 88.96" stroke="#1e1e1e" stroke-width="1.6" fill="none" stroke-linecap="round"></path><path d="M430 157 C428.96 174.56, 429.31 193.87, 430.01 212.51 C366.44 212.71, 302.21 213.37, 234.63 212.84 C235.56 214.37, 235.17 216.4, 234.73 217.33" stroke="#1e1e1e" stroke-width="1.6" fill="none" stroke-linecap="round"></path><path d="M235 217 L230.51 206.96 M235 217 L239.49 206.96" stroke="#1e1e1e" stroke-width="1.6" fill="none" stroke-linecap="round"></path><path d="M235 283 C234.4 305.89, 235.3 328.35, 234.88 352.06 C199.21 352.78, 164.95 352.24, 128.31 351.75 C127.42 370.53, 128.19 387.96, 128.43 407.28" stroke="#1e1e1e" stroke-width="1.6" fill="none" stroke-linecap="round"></path><path d="M128 407 L123.51 396.96 M128 407 L132.49 396.96" stroke="#1e1e1e" stroke-width="1.6" fill="none" stroke-linecap="round"></path><path d="M235 283 C234.72 306.35, 234.48 328.82, 234.59 351.48 C291.47 351.72, 348.2 351.44, 404.87 352.49 C405.04 366.86, 405.43 384.07, 405.16 399.35" stroke="#1e1e1e" stroke-width="1.6" fill="none" stroke-linecap="round"></path><path d="M405 399 L400.51 388.96 M405 399 L409.49 388.96" stroke="#1e1e1e" stroke-width="1.6" fill="none" stroke-linecap="round"></path><path d="M367 250 C446.84 249.47, 528.21 249.8, 609.5 249.56" stroke="#1e1e1e" stroke-width="1.6" fill="none" stroke-linecap="round"></path><path d="M610 250 L599.96 254.49 M610 250 L599.96 245.51" stroke="#1e1e1e" stroke-width="1.6" fill="none" stroke-linecap="round"></path><path d="M850 250 C887.93 250.47, 925 250.31, 964.81 250.46" stroke="#1e1e1e" stroke-width="1.6" fill="none" stroke-linecap="round"></path><path d="M965 250 L954.96 254.49 M965 250 L954.96 245.51" stroke="#1e1e1e" stroke-width="1.6" fill="none" stroke-linecap="round"></path><path d="M1090 292 C1089.56 330.44, 1090.86 368.11, 1089.96 406.29" stroke="#1e1e1e" stroke-width="1.6" fill="none" stroke-linecap="round"></path><path d="M1090 406 L1085.51 395.96 M1090 406 L1094.49 395.96" stroke="#1e1e1e" stroke-width="1.6" fill="none" stroke-linecap="round"></path><path d="M960 440 C826.99 439.35, 693.32 440.43, 556.89 439.56" stroke="#1e1e1e" stroke-width="1.6" fill="none" stroke-linecap="round"></path><path d="M557 440 L567.04 435.51 M557 440 L567.04 444.49" stroke="#1e1e1e" stroke-width="1.6" fill="none" stroke-linecap="round"></path><g transform="translate(280 26)"><path d="M16 0 C104.27 -0.55, 192.47 -0.35, 284.2 -0.01 C292.91 -0.54, 300.56 7.42, 300 16 C300.57 20.84, 299.85 26.79, 299.9 32.02 C300.37 41.26, 292.48 48.32, 284 48 C195.32 47.6, 106.81 48.22, 15.71 48.15 C6.93 48.29, -0.56 40.36, 0 32 C0.42 26.91, -0.23 21.06, 0.03 15.86 C0.6 6.94, 7.46 -0.11, 16 0 Z" stroke="none" fill="#b2f2bb"></path><path d="M16 0 C104.86 -0.75, 194.25 -0.97, 283.47 0.53 C292.77 -0.83, 298.78 7.46, 300 16 C300.38 21.03, 299.18 27.89, 300 31.49 C299.92 40.22, 293.94 46.86, 284 48 C194.91 46.61, 107.7 47.64, 15.37 48.57 C6.62 47.18, -0.5 40.76, 0 32 C-0.75 25.56, 1.11 20.19, -0.23 16.15 C0.04 6.57, 7.68 0.45, 16 0 M16 0 C105.57 0.96, 193.25 -0.1, 283.9 0.27 C291.94 -1.06, 300.06 7.21, 300 16 C301.2 20.88, 300.14 27.21, 300.13 31.33 C298.62 40.49, 291.68 47.57, 284 48 C194.78 48.82, 108.11 48.52, 16.22 48.24 C7.69 47.21, 0.19 40.23, 0 32 C-1.04 25.77, 0.96 22.37, 0.12 15.91 C0.09 8.47, 7.91 0.57, 16 0" stroke="#2f9e44" stroke-width="1.7" fill="none" stroke-linecap="round"></path></g><text x="430" y="41" font-family="Virgil, Segoe UI Emoji" font-size="15px" fill="#1e1e1e" text-anchor="middle" dominant-baseline="central" style="white-space:pre">Clients</text><text x="430" y="60" font-family="Virgil, Segoe UI Emoji" font-size="12px" fill="#495057" text-anchor="middle" dominant-baseline="central" style="white-space:pre">web · mobile · debounce + cancel</text><g transform="translate(250 99)"><path d="M16 0 C124.24 -0.19, 232.3 -0.58, 344.08 -0.3 C353.27 0.45, 360.28 7.78, 360 16 C359.95 23.99, 360.52 32.89, 360.14 41.86 C360.21 50.95, 352.92 58.03, 344 58 C236.26 57.96, 127.07 58.17, 15.85 58.18 C7.32 57.95, 0.14 50.24, 0 42 C-0.58 33.76, 0.15 24.54, 0.18 15.97 C0.45 7.47, 7.12 0.45, 16 0 Z" stroke="none" fill="#dee2e6"></path><path d="M16 0 C125.04 0.06, 231.46 0.58, 344.03 -0.5 C353.02 -0.5, 360.68 7.1, 360 16 C360.75 24.75, 359.71 33.9, 359.81 41.91 C361.08 50.69, 352.93 58.72, 344 58 C236.68 57.95, 127.46 57.44, 15.37 57.92 C7.8 58.3, -0.05 50.67, 0 42 C-0.51 34.07, 0.55 24.69, 0.39 16.47 C-0.3 6.43, 7.76 0.97, 16 0 M16 0 C123.58 -1.28, 233.02 -0.51, 343.36 0.45 C351.84 0.71, 358.67 5.86, 360 16 C358.6 25.01, 360.3 32.08, 359.3 41.42 C359.4 51.35, 353.62 57.01, 344 58 C234.45 58.78, 126.16 57.7, 15.36 57.33 C6.79 56.76, 1.39 49.55, 0 42 C-0.9 34.46, -0.37 24.53, 0.22 16.11 C-1.39 7.54, 7.79 -0.12, 16 0" stroke="#495057" stroke-width="1.7" fill="none" stroke-linecap="round"></path></g><text x="430" y="119" font-family="Virgil, Segoe UI Emoji" font-size="15px" fill="#1e1e1e" text-anchor="middle" dominant-baseline="central" style="white-space:pre">API Gateway + CDN</text><text x="430" y="138" font-family="Virgil, Segoe UI Emoji" font-size="12px" fill="#495057" text-anchor="middle" dominant-baseline="central" style="white-space:pre">TLS · static · hot-prefix cache</text><g transform="translate(103 217)"><path d="M16 0 C92.06 0.13, 168.63 0.15, 247.79 -0.17 C256.46 -0.02, 264.02 7.72, 264 16 C264.29 27.69, 264.48 37.92, 264 49.91 C264.22 58.5, 256.8 66.32, 248 66 C171.27 66.31, 95.09 65.74, 15.81 66.04 C7.16 66.2, -0.3 59.32, 0 50 C-0.4 38.7, 0.23 27.31, 0.01 15.91 C-0.35 6.91, 7.78 0.47, 16 0 Z" stroke="none" fill="#a5d8ff"></path><path d="M16 0 C92.12 -0.25, 169.07 -0.73, 248.38 -0.18 C255.64 -0.89, 262.86 6.86, 264 16 C263.84 25.93, 263.62 37.57, 263.79 49.62 C264.19 58.32, 256.63 65.75, 248 66 C172.65 66.99, 95.03 66.6, 16.69 66.29 C6.84 65.08, 0.19 59.19, 0 50 C0.04 39.69, -0.05 26.91, -0.65 16.1 C0.71 6.61, 7.99 0.03, 16 0 M16 0 C92.97 0.26, 169.1 -1.36, 248.3 0.59 C255.74 -0.04, 262.71 7.49, 264 16 C264.64 25.96, 262.8 38.4, 264.61 49.89 C264.38 58.91, 257.89 65.17, 248 66 C172.49 66.47, 95.07 66.1, 15.4 65.61 C6.33 67.04, 0.03 58.94, 0 50 C0.96 38.31, -0.37 28.51, -0.18 16.25 C-1.08 8.43, 7.55 -0.25, 16 0" stroke="#1971c2" stroke-width="1.7" fill="none" stroke-linecap="round"></path></g><text x="235" y="241" font-family="Virgil, Segoe UI Emoji" font-size="15px" fill="#1e1e1e" text-anchor="middle" dominant-baseline="central" style="white-space:pre">Suggest Service</text><text x="235" y="260" font-family="Virgil, Segoe UI Emoji" font-size="12px" fill="#495057" text-anchor="middle" dominant-baseline="central" style="white-space:pre">prefix query · &lt;50ms</text><g transform="translate(26 407)"><path d="M16 0 C72.57 -0.4, 129.33 -0.42, 187.79 -0.2 C196.43 -0.54, 204.05 7.14, 204 16 C203.57 26.96, 204.57 38.52, 204.12 49.81 C204.16 59.09, 196.96 65.46, 188 66 C131.72 66.3, 74.32 66.09, 15.89 65.79 C6.88 66.35, 0.55 59.12, 0 50 C0.14 38.89, -0.3 27.66, -0.06 15.84 C0.56 6.85, 7.72 0.47, 16 0 Z" stroke="none" fill="#ffc9c9"></path><path d="M16 0 C72.48 -1.37, 128.46 0.47, 188.41 -0.37 C197.63 1.18, 202.84 7.95, 204 16 C204.47 27.05, 204.6 39.53, 203.71 49.95 C204.87 60.16, 197.02 66.73, 188 66 C130.91 66.92, 73.82 64.76, 15.9 66.33 C6.43 64.99, 0.08 58.61, 0 50 C0.58 39.35, 0.96 28.85, -0.41 15.72 C0.52 8.38, 7.5 0.34, 16 0 M16 0 C73.94 0.8, 128.6 0.13, 188.39 -0.42 C195.92 0.38, 202.71 8.02, 204 16 C204.12 27.79, 203.97 38.81, 203.57 49.48 C204.17 57.48, 197.91 65.73, 188 66 C130.3 66.28, 73.94 66.32, 16.47 66.4 C7.6 66.41, 1.36 57.85, 0 50 C-1.14 39.53, 1.14 26.5, -0.62 16.07 C1.07 6.49, 8.19 0.38, 16 0" stroke="#e03131" stroke-width="1.7" fill="none" stroke-linecap="round"></path></g><text x="128" y="431" font-family="Virgil, Segoe UI Emoji" font-size="15px" fill="#1e1e1e" text-anchor="middle" dominant-baseline="central" style="white-space:pre">Top-K Cache</text><text x="128" y="450" font-family="Virgil, Segoe UI Emoji" font-size="12px" fill="#495057" text-anchor="middle" dominant-baseline="central" style="white-space:pre">Redis · prefix → top-K</text><g transform="translate(253 399)"><path d="M16 0 C105.73 0.28, 195.1 -0.14, 287.94 -0.2 C297.35 0.52, 303.5 7.74, 304 16 C304.26 32.44, 304.29 49.24, 304.08 65.74 C303.59 75.4, 296.67 82.36, 288 82 C197.98 82.27, 108.81 82.44, 16.29 82.11 C7.39 82.3, 0.1 74.7, 0 66 C0.17 49.89, 0.18 33.55, -0.1 15.91 C0.07 6.93, 6.74 -0.05, 16 0 Z" stroke="none" fill="#a5d8ff"></path><path d="M16 0 C106.53 -0.63, 195.42 -0.85, 287.53 0.69 C295.83 -0.56, 305.21 7.33, 304 16 C304.12 31.18, 304 48.3, 303.78 65.98 C305.14 73.93, 295.83 80.62, 288 82 C196.84 82.33, 108.09 81.92, 15.49 81.96 C6.17 82.77, 1.23 73.86, 0 66 C0.22 49.24, 1.22 32.84, -0.59 15.37 C-0.79 6.42, 6.14 0.35, 16 0 M16 0 C106.92 -0.29, 194.31 0.37, 288.05 -0.25 C295.62 -0.75, 304.48 7.65, 304 16 C304.38 32.46, 304.38 49.73, 304.33 66.43 C302.82 75.36, 297.36 81.11, 288 82 C197.06 83.16, 107.55 80.81, 15.48 81.93 C7.47 82.03, 0.82 73.66, 0 66 C0.41 49, -1.29 33.63, -0.17 15.5 C-0.16 6.5, 6.27 1.04, 16 0" stroke="#1971c2" stroke-width="1.7" fill="none" stroke-linecap="round"></path></g><text x="405" y="431" font-family="Virgil, Segoe UI Emoji" font-size="15px" fill="#1e1e1e" text-anchor="middle" dominant-baseline="central" style="white-space:pre">Trie Cluster</text><text x="405" y="450" font-family="Virgil, Segoe UI Emoji" font-size="12px" fill="#495057" text-anchor="middle" dominant-baseline="central" style="white-space:pre">in-RAM · sharded by prefix · top-K/node</text><g transform="translate(610 223)"><path d="M16 0 C84.18 0.12, 152.69 -0.09, 223.92 -0.15 C232.66 -0.34, 240.25 7.22, 240 16 C240.16 23.34, 239.66 30.64, 240.25 38.21 C240.32 46.29, 233.1 54.52, 224 54 C155.34 54.55, 86.3 53.9, 15.9 54.26 C7.78 54.31, -0.29 47.17, 0 38 C0.13 30.18, -0.49 23.56, -0.06 16.2 C-0.22 6.99, 7.53 0.1, 16 0 Z" stroke="none" fill="#ffd8a8"></path><path d="M16 0 C84.69 -1.2, 153.66 0.19, 223.91 0.32 C232.54 0.34, 238.7 8.26, 240 16 C239.46 22.97, 239.02 30.43, 240.06 37.82 C239.43 45.57, 232.47 55.38, 224 54 C156.02 53.59, 86.03 54.47, 16.18 53.51 C7.77 52.98, 0.1 47.98, 0 38 C0.79 30.71, -1.08 23.32, -0.6 15.57 C1.12 6.54, 6.65 0.52, 16 0 M16 0 C85.95 0.47, 152.98 0.41, 223.5 -0.07 C232.89 -0.28, 238.63 6.58, 240 16 C238.89 22.04, 239.88 30, 240.66 37.99 C240.65 45.59, 233.32 55.26, 224 54 C154.55 54.44, 87.38 54.52, 16.45 53.61 C6.61 53.61, 0.65 47.47, 0 38 C0.49 30.09, -0.64 23.06, -0.11 15.85 C0.53 7.27, 7.05 -0.98, 16 0" stroke="#e8590c" stroke-width="1.7" fill="none" stroke-linecap="round"></path></g><text x="730" y="241" font-family="Virgil, Segoe UI Emoji" font-size="15px" fill="#1e1e1e" text-anchor="middle" dominant-baseline="central" style="white-space:pre">Apache Kafka</text><text x="730" y="260" font-family="Virgil, Segoe UI Emoji" font-size="12px" fill="#495057" text-anchor="middle" dominant-baseline="central" style="white-space:pre">query logs</text><g transform="translate(965 208)"><path d="M16 0 C87.58 -0.04, 159.49 0.06, 233.84 -0.15 C242.29 -0.38, 249.89 6.66, 250 16 C249.41 33.53, 249.53 50.58, 249.83 68.05 C249.98 77.16, 242.71 84.04, 234 84 C161.68 84.23, 90.56 84.29, 16.05 83.87 C7.26 83.85, 0.09 77.16, 0 68 C-0.48 51.32, -0.04 34.24, 0.23 15.87 C0.15 6.9, 7.28 -0.6, 16 0 Z" stroke="none" fill="#a5d8ff"></path><path d="M16 0 C88.83 -0.71, 159.74 0.89, 234.4 -0.05 C243.59 1.02, 251.07 8.35, 250 16 C249.68 32.59, 250.77 50.71, 250.05 67.43 C250.6 75.64, 241.61 83.05, 234 84 C161.44 82.79, 88.73 84.37, 16.02 84.52 C5.97 84.85, -1.32 76.09, 0 68 C0.03 50, 0.34 32.91, -0.11 16.4 C-1.07 5.9, 8.16 -1.28, 16 0 M16 0 C88.86 -1.16, 159.09 0.01, 233.38 0.27 C242.85 -0.32, 250.12 7.26, 250 16 C250.94 34.55, 248.61 49.63, 250.15 67.71 C248.86 76.18, 242.82 84.09, 234 84 C162.69 84.64, 89.13 84.02, 15.53 83.93 C6.68 83.53, 0.75 77.68, 0 68 C0.71 51.92, -1.06 32.7, 0.05 16.57 C1.27 5.82, 8.01 -0.69, 16 0" stroke="#1971c2" stroke-width="1.7" fill="none" stroke-linecap="round"></path></g><text x="1090" y="241" font-family="Virgil, Segoe UI Emoji" font-size="15px" fill="#1e1e1e" text-anchor="middle" dominant-baseline="central" style="white-space:pre">Aggregation Pipeline</text><text x="1090" y="260" font-family="Virgil, Segoe UI Emoji" font-size="12px" fill="#495057" text-anchor="middle" dominant-baseline="central" style="white-space:pre">Flink / Spark · popularity scores</text><g transform="translate(960 406)"><path d="M16 0 C90.84 -0.04, 166.67 -0.32, 243.97 0.07 C253.22 0.45, 260.39 7.18, 260 16 C260.51 27.77, 259.61 40.13, 259.71 52.22 C260.41 60.72, 253.25 67.99, 244 68 C168.62 68.55, 93.5 67.55, 15.88 68.1 C7.18 67.83, -0.52 60.73, 0 52 C-0.59 40.57, -0.37 27.74, 0.01 16.04 C0.23 7.59, 6.61 -0.57, 16 0 Z" stroke="none" fill="#ffc9c9"></path><path d="M16 0 C92.47 -0.27, 166.52 -0.17, 243.75 0.2 C253.09 -0.86, 259.6 7.53, 260 16 C260.33 26.84, 259.26 39.93, 259.61 52.21 C259.66 61.32, 252.97 68.29, 244 68 C168.4 67.14, 92.9 67.2, 16.2 68.51 C6.64 69.39, 0.44 61.01, 0 52 C-0.73 40.29, -0.73 29.62, 0.16 15.67 C0.15 7.14, 8.14 -0.1, 16 0 M16 0 C91.99 -0.91, 167.55 0.22, 243.48 -0.02 C252.17 1.18, 261 6.84, 260 16 C259.93 29.08, 260.64 39.61, 259.76 51.57 C260.25 61.08, 252.68 66.82, 244 68 C167.41 66.67, 94.16 66.83, 15.46 67.85 C6.85 66.77, 1.4 61.01, 0 52 C1.04 40.74, 0.3 27.58, 0.68 15.87 C0.68 7.41, 7.11 0.03, 16 0" stroke="#e03131" stroke-width="1.7" fill="none" stroke-linecap="round"></path></g><text x="1090" y="431" font-family="Virgil, Segoe UI Emoji" font-size="15px" fill="#1e1e1e" text-anchor="middle" dominant-baseline="central" style="white-space:pre">Score Snapshot</text><text x="1090" y="450" font-family="Virgil, Segoe UI Emoji" font-size="12px" fill="#495057" text-anchor="middle" dominant-baseline="central" style="white-space:pre">build artifact → trie load</text><rect x="31" y="197" width="133.5" height="18" fill="#ffffff" stroke="none"></rect><text x="36" y="206" font-family="Virgil, Segoe UI Emoji" font-size="12.5px" fill="#495057" text-anchor="start" dominant-baseline="central" style="white-space:pre">Query Path (online)</text><rect x="968" y="195" width="179" height="18" fill="#ffffff" stroke="none"></rect><text x="973" y="204" font-family="Virgil, Segoe UI Emoji" font-size="12.5px" fill="#495057" text-anchor="start" dominant-baseline="central" style="white-space:pre">Scoring Pipeline (offline)</text><rect x="399.09" y="77.5" width="61.82" height="18" rx="6" ry="6" fill="#ffffff" fill-opacity="0.82" stroke="none"></rect><text x="430" y="86.5" font-family="Virgil, Segoe UI Emoji" font-size="11.5px" fill="#27313a" text-anchor="middle" dominant-baseline="central" style="white-space:pre">keystroke</text><rect x="384.14" y="176" width="91.72" height="18" rx="6" ry="6" fill="#ffffff" fill-opacity="0.82" stroke="none"></rect><text x="430" y="185" font-family="Virgil, Segoe UI Emoji" font-size="11.5px" fill="#27313a" text-anchor="middle" dominant-baseline="central" style="white-space:pre">① prefix query</text><rect x="144.61" y="343" width="73.78" height="18" rx="6" ry="6" fill="#ffffff" fill-opacity="0.82" stroke="none"></rect><text x="181.5" y="352" font-family="Virgil, Segoe UI Emoji" font-size="11.5px" fill="#27313a" text-anchor="middle" dominant-baseline="central" style="white-space:pre">② cache hit</text><rect x="253.21" y="343" width="133.58" height="18" rx="6" ry="6" fill="#ffffff" fill-opacity="0.82" stroke="none"></rect><text x="320" y="352" font-family="Virgil, Segoe UI Emoji" font-size="11.5px" fill="#27313a" text-anchor="middle" dominant-baseline="central" style="white-space:pre">③ miss · merge shards</text><rect x="448.62" y="241" width="79.76" height="18" rx="6" ry="6" fill="#ffffff" fill-opacity="0.82" stroke="none"></rect><text x="488.5" y="250" font-family="Virgil, Segoe UI Emoji" font-size="11.5px" fill="#27313a" text-anchor="middle" dominant-baseline="central" style="white-space:pre">④ query logs</text><rect x="870.61" y="241" width="73.78" height="18" rx="6" ry="6" fill="#ffffff" fill-opacity="0.82" stroke="none"></rect><text x="907.5" y="250" font-family="Virgil, Segoe UI Emoji" font-size="11.5px" fill="#27313a" text-anchor="middle" dominant-baseline="central" style="white-space:pre">⑤ aggregate</text><rect x="1059.09" y="340" width="61.82" height="18" rx="6" ry="6" fill="#ffffff" fill-opacity="0.82" stroke="none"></rect><text x="1090" y="349" font-family="Virgil, Segoe UI Emoji" font-size="11.5px" fill="#27313a" text-anchor="middle" dominant-baseline="central" style="white-space:pre">⑥ rebuild</text><rect x="721.61" y="431" width="73.78" height="18" rx="6" ry="6" fill="#ffffff" fill-opacity="0.82" stroke="none"></rect><text x="758.5" y="440" font-family="Virgil, Segoe UI Emoji" font-size="11.5px" fill="#27313a" text-anchor="middle" dominant-baseline="central" style="white-space:pre">atomic swap</text></g>
</svg>
