<svg version="1.1" xmlns="http://www.w3.org/2000/svg" viewBox="0 0 1120 884" width="1120" height="884">
  <!-- svg-source:gen-whiteboards.js -->
  <defs><style class="style-fonts">
@font-face{font-family:"Virgil";src:url("https://unpkg.com/@excalidraw/excalidraw@0.17.6/dist//dist/excalidraw-assets/Virgil.woff2");}
</style></defs>
  <rect x="0" y="0" width="1120" height="884" fill="#ffffff"></rect>
  <text x="24" y="26" font-family="Virgil, Segoe UI Emoji" font-size="22px" fill="#1e1e1e" text-anchor="start" dominant-baseline="central" style="white-space:pre">Chat / Messaging (WhatsApp / Slack) — how you'd draw it live on the whiteboard</text>
  <text x="24" y="58" font-family="Virgil, Segoe UI Emoji" font-size="13px" fill="#868e96" text-anchor="start" dominant-baseline="central" style="white-space:pre">green = client   ·   grey = edge / LB   ·   blue = service   ·   red = datastore   ·   orange = queue / stream   ·   violet = 3rd-party</text>
  <g transform="translate(0 84)"><g transform="translate(95 227)"><path d="M18 0 C220.94 -0.23, 425.55 -0.34, 634.2 -0.05 C644.65 -0.01, 652.57 8.82, 652 18 C652.65 41.06, 651.87 62.03, 651.62 86.36 C652.13 96.52, 643.17 103.56, 634 104 C430.94 104.99, 227.55 103.93, 18.17 104.11 C7.84 104.77, -0.56 95.14, 0 86 C-0.64 63.29, 0.02 41.09, -0.14 18.41 C-0.66 7.81, 7.53 -0.81, 18 0" stroke="#495057" stroke-width="1.8" fill="none" stroke-linecap="round" stroke-dasharray="8 9"></path></g><g transform="translate(93 410)"><path d="M18 0 C96.14 -0.67, 175.11 -0.22, 255.7 0.15 C266.57 -0.45, 274.54 7.96, 274 18 C273.86 34.79, 274.51 52.22, 273.77 70.11 C274.19 78.93, 265.43 88.97, 256 88 C176.57 88.47, 97.94 87.85, 17.76 88.1 C8.87 87.93, 0.86 79.17, 0 70 C0.16 52.32, -0.16 35.97, 0.03 18.25 C-0.6 8.18, 7.43 0.26, 18 0" stroke="#495057" stroke-width="1.8" fill="none" stroke-linecap="round" stroke-dasharray="8 9"></path></g><g transform="translate(93 662)"><path d="M18 0 C97.37 -0.32, 175.43 0.35, 255.61 -0.12 C265.03 -0.61, 273.7 8.88, 274 18 C274.01 36.83, 273.95 57.82, 274.44 77.91 C273.95 88.3, 265.07 95.65, 256 96 C178.41 95.7, 99.09 96.73, 17.79 96.15 C8.42 96.25, 0.51 87.45, 0 78 C0.25 58.48, 0.2 39.1, 0.42 18.08 C0.92 7.56, 8.36 -0.4, 18 0" stroke="#495057" stroke-width="1.8" fill="none" stroke-linecap="round" stroke-dasharray="8 9"></path></g><path d="M340 78 C339.16 91.25, 339.03 103.32, 339.73 116.49" stroke="#1e1e1e" stroke-width="1.6" fill="none" stroke-linecap="round"></path><path d="M340 116 L335.51 105.96 M340 116 L344.49 105.96" stroke="#1e1e1e" stroke-width="1.6" fill="none" stroke-linecap="round"></path><path d="M340 174 C339.84 194.25, 338.91 214.85, 339.73 234.46 C303.99 234.22, 267.24 234.99, 229.82 235.37 C229.87 236.57, 229.96 235.72, 230.11 237.53" stroke="#1e1e1e" stroke-width="1.6" fill="none" stroke-linecap="round"></path><path d="M230 237 L225.51 226.96 M230 237 L234.49 226.96" stroke="#1e1e1e" stroke-width="1.6" fill="none" stroke-linecap="round"></path><path d="M230 303 C229.05 341.59, 230.73 377.75, 229.68 416.71" stroke="#1e1e1e" stroke-width="1.6" fill="none" stroke-linecap="round"></path><path d="M230 417 L225.51 406.96 M230 417 L234.49 406.96" stroke="#1e1e1e" stroke-width="1.6" fill="none" stroke-linecap="round"></path><path d="M355 450 C422.54 450.71, 490.9 449.91, 560.32 450.34 C560.67 432.45, 559.73 418.05, 559.87 399.83 C595.8 399.12, 633.26 400.18, 670.19 400.34" stroke="#1e1e1e" stroke-width="1.6" fill="none" stroke-linecap="round"></path><path d="M670 400 L659.96 404.49 M670 400 L659.96 395.51" stroke="#1e1e1e" stroke-width="1.6" fill="none" stroke-linecap="round"></path><path d="M355 450 C423.5 450.18, 491.39 450.47, 559.75 449.5 C559.68 456.51, 559.13 464.03, 560.01 470.33 C597.37 470.17, 632.22 469.55, 669.72 469.46" stroke="#1e1e1e" stroke-width="1.6" fill="none" stroke-linecap="round"></path><path d="M670 470 L659.96 474.49 M670 470 L659.96 465.51" stroke="#1e1e1e" stroke-width="1.6" fill="none" stroke-linecap="round"></path><path d="M230 483 C230.04 492.78, 229.46 500.28, 229.77 509.7 C357.95 510.81, 488.11 509.55, 620.51 510.13 C621.06 517.29, 619.09 524.69, 619.7 532.7" stroke="#1e1e1e" stroke-width="1.6" fill="none" stroke-linecap="round"></path><path d="M620 533 L615.51 522.96 M620 533 L624.49 522.96" stroke="#1e1e1e" stroke-width="1.6" fill="none" stroke-linecap="round"></path><path d="M460 560 C450.62 558.99, 439.34 560.62, 429.64 560.4 C429.75 463.24, 429.28 369.43, 430.5 270.18 C404.69 270.46, 377.51 269.73, 349.77 269.52" stroke="#1e1e1e" stroke-width="1.6" fill="none" stroke-linecap="round"></path><path d="M350 270 L360.04 265.51 M350 270 L360.04 274.49" stroke="#1e1e1e" stroke-width="1.6" fill="none" stroke-linecap="round"></path><path d="M590 303 C589.99 326.79, 590.76 349.9, 590.47 375.15 C472.12 374, 352.65 374.75, 229.93 374.58 C230.43 389.46, 230.91 401.98, 230.31 416.97" stroke="#1e1e1e" stroke-width="1.6" fill="none" stroke-linecap="round"></path><path d="M230 417 L225.51 406.96 M230 417 L234.49 406.96" stroke="#1e1e1e" stroke-width="1.6" fill="none" stroke-linecap="round"></path><path d="M230 483 C231.04 522.61, 230.48 561.03, 230.14 600.46 C352.16 600.77, 474.49 599.31, 600.22 600.21 C599.68 627.46, 599.22 654.47, 599.65 682.57" stroke="#1e1e1e" stroke-width="1.6" fill="none" stroke-linecap="round"></path><path d="M600 683 L595.51 672.96 M600 683 L604.49 672.96" stroke="#1e1e1e" stroke-width="1.6" fill="none" stroke-linecap="round"></path><path d="M620 587 C619.76 613.6, 620 642.53, 619.8 670.23 C492 669.14, 363.28 671.07, 230.17 669.49 C229.54 672.43, 230.81 676.59, 229.93 678.54" stroke="#1e1e1e" stroke-width="1.6" fill="none" stroke-linecap="round"></path><path d="M230 679 L225.51 668.96 M230 679 L234.49 668.96" stroke="#1e1e1e" stroke-width="1.6" fill="none" stroke-linecap="round"></path><path d="M620 587 C620.7 607.19, 620.74 627.82, 619.5 647.74 C711.83 648.83, 804.95 647.52, 900.32 647.65 C899.09 659.35, 900.25 670.63, 899.86 682.65" stroke="#1e1e1e" stroke-width="1.6" fill="none" stroke-linecap="round"></path><path d="M900 683 L895.51 672.96 M900 683 L904.49 672.96" stroke="#1e1e1e" stroke-width="1.6" fill="none" stroke-linecap="round"></path><path d="M355 712 C394.12 710.95, 435.07 712.58, 475.12 711.98" stroke="#1e1e1e" stroke-width="1.6" fill="none" stroke-linecap="round"></path><path d="M475 712 L464.96 716.49 M475 712 L464.96 707.51" stroke="#1e1e1e" stroke-width="1.6" fill="none" stroke-linecap="round"></path><g transform="translate(160 26)"><path d="M16 0 C123.76 -0.45, 232.04 0.14, 344.11 -0.2 C352.88 0.42, 360.52 7.46, 360 16 C359.66 22.16, 360.06 28.84, 360.23 35.72 C359.78 44.33, 352.52 52.16, 344 52 C236.02 52.36, 127.06 52.6, 15.91 52.2 C6.76 51.76, -0.21 44.34, 0 36 C-0.36 29.38, 0.06 23.11, 0 16.12 C-0.26 6.9, 7.15 -0.24, 16 0 Z" stroke="none" fill="#b2f2bb"></path><path d="M16 0 C123.77 0.07, 231.89 -0.33, 344.22 0.13 C351.93 -0.96, 359.61 5.99, 360 16 C361.18 21.34, 359.83 29.04, 359.9 35.39 C360.82 43.47, 351.88 53.33, 344 52 C235.31 52.07, 126.29 52.5, 15.41 51.3 C6.2 51.67, 0.3 44.41, 0 36 C-0.41 29.8, 0.29 21.7, -0.63 16.12 C0.58 7.65, 6.95 1.07, 16 0 M16 0 C125.43 1.32, 233.61 -0.11, 343.99 0.21 C352.22 1.35, 359 7.16, 360 16 C359.34 22.83, 359.72 28.89, 359.38 35.66 C360.45 43.62, 353.09 50.84, 344 52 C236 51.13, 128.56 52.11, 15.51 52.41 C8.51 52.42, -0.13 43.92, 0 36 C1.01 28.56, -1 22.86, -0.21 16.63 C0.89 6.2, 7.01 -1.15, 16 0" stroke="#2f9e44" stroke-width="1.7" fill="none" stroke-linecap="round"></path></g><text x="340" y="43" font-family="Virgil, Segoe UI Emoji" font-size="15px" fill="#1e1e1e" text-anchor="middle" dominant-baseline="central" style="white-space:pre">Clients (mobile/web)</text><text x="340" y="62" font-family="Virgil, Segoe UI Emoji" font-size="12px" fill="#495057" text-anchor="middle" dominant-baseline="central" style="white-space:pre">millions of persistent conns</text><g transform="translate(160 116)"><path d="M16 0 C124.05 0.23, 232.46 -0.51, 344.25 0.08 C353.09 0.03, 360.46 7.42, 360 16 C360.08 24.56, 360.49 33.36, 359.79 42.13 C359.79 51.03, 353.35 57.74, 344 58 C235.31 58.55, 128.1 58.44, 15.96 58.16 C6.92 57.9, 0.08 50.24, 0 42 C0.21 33.52, 0.16 25.02, -0.21 16 C-0.45 7.47, 6.78 -0.15, 16 0 Z" stroke="none" fill="#dee2e6"></path><path d="M16 0 C125.58 -1.26, 232.6 0.31, 343.64 0.42 C352.1 -0.89, 359.02 6.71, 360 16 C360.18 24.44, 360.14 33.55, 359.76 41.56 C360.17 50.04, 352.45 58.2, 344 58 C236.2 56.92, 126.27 58.73, 15.58 57.49 C6.31 59.23, -1.05 51.62, 0 42 C1.33 33.02, -0.39 26.16, -0.24 15.56 C0.1 8.01, 6.31 0.5, 16 0 M16 0 C124.21 -0.18, 231.63 -0.29, 343.98 0.04 C352.76 0.64, 360.92 7.02, 360 16 C359.38 25.45, 359.43 34.14, 360.6 42 C360.72 50.78, 352.85 59.3, 344 58 C237.07 57.29, 127.93 58.07, 16.02 57.54 C7.21 56.79, 0.57 49.46, 0 42 C1.15 33.72, -1.18 24.24, -0.7 15.45 C0.52 8.24, 7.54 -1.17, 16 0" stroke="#495057" stroke-width="1.7" fill="none" stroke-linecap="round"></path></g><text x="340" y="136" font-family="Virgil, Segoe UI Emoji" font-size="15px" fill="#1e1e1e" text-anchor="middle" dominant-baseline="central" style="white-space:pre">API Gateway + LB</text><text x="340" y="155" font-family="Virgil, Segoe UI Emoji" font-size="12px" fill="#495057" text-anchor="middle" dominant-baseline="central" style="white-space:pre">auth · TLS</text><g transform="translate(110 237)"><path d="M16 0 C84.62 -0.02, 153.37 -0.43, 223.75 -0.22 C233.07 0.19, 240.57 6.94, 240 16 C240.08 26.89, 240.12 38.45, 240.1 49.75 C239.53 59.19, 233.36 66.48, 224 66 C154.78 65.46, 86.29 65.98, 16.29 66 C7.53 66.12, -0.09 58.68, 0 50 C0.5 39.06, 0.06 27.92, 0.26 15.87 C-0.05 7.07, 7.07 -0.28, 16 0 Z" stroke="none" fill="#a5d8ff"></path><path d="M16 0 C85.91 -0.41, 154 1.02, 224.5 0.4 C233.41 -0.61, 238.65 6.29, 240 16 C239.08 27.41, 241.29 38.82, 239.82 49.63 C239.18 59.99, 231.59 67.21, 224 66 C155.35 65.91, 85.42 65.64, 16.47 66.25 C7.63 66.83, -0.23 58.82, 0 50 C-0.56 39.58, 0.42 26.95, 0.41 16.21 C-0.26 6.85, 6.13 1.16, 16 0 M16 0 C83.95 0.08, 153.8 -0.56, 224.26 0.46 C232.43 -0.02, 240.43 8.22, 240 16 C240.03 28.5, 240.42 39.14, 239.75 49.85 C239.22 59.91, 232.06 65.55, 224 66 C154.36 65.16, 86.75 65.56, 16.32 65.46 C6.69 66.29, 0.48 59.38, 0 50 C0.24 39.53, 0.81 26.59, 0.66 15.63 C1.38 6.28, 7.61 0.17, 16 0" stroke="#1971c2" stroke-width="1.7" fill="none" stroke-linecap="round"></path></g><text x="230" y="261" font-family="Virgil, Segoe UI Emoji" font-size="15px" fill="#1e1e1e" text-anchor="middle" dominant-baseline="central" style="white-space:pre">WebSocket Gateway</text><text x="230" y="280" font-family="Virgil, Segoe UI Emoji" font-size="12px" fill="#495057" text-anchor="middle" dominant-baseline="central" style="white-space:pre">holds live connections</text><g transform="translate(450 237)"><path d="M16 0 C97.89 -0.23, 179.17 -0.53, 264.25 -0.04 C272.43 0.11, 280.52 7.69, 280 16 C280.05 27.24, 279.87 38.75, 279.74 49.97 C279.72 58.49, 272.8 66.55, 264 66 C182.63 65.63, 100.59 65.86, 15.85 65.76 C7.28 66.59, 0.52 59.13, 0 50 C0.01 38.3, -0.54 27.52, -0.22 16.23 C-0.56 7.51, 7.65 -0.16, 16 0 Z" stroke="none" fill="#ffc9c9"></path><path d="M16 0 C97.72 -0.84, 179.69 -1.3, 263.57 0.53 C271.56 0.78, 279.06 8.42, 280 16 C280.01 27.39, 279.82 39.62, 279.63 50.07 C278.88 59.52, 273.64 64.7, 264 66 C182.87 66.71, 99.76 65.85, 16 66.26 C6.36 67.34, 0.35 59.65, 0 50 C0.4 39.75, 0.25 26.84, -0.22 16.26 C-1.24 7.96, 6.03 1.22, 16 0 M16 0 C96.89 -0.5, 181.03 1.13, 263.4 0.5 C273.87 0.78, 278.97 7.91, 280 16 C281.39 27.74, 279.47 37.54, 279.77 50.54 C279.49 59.1, 272.12 65.42, 264 66 C182.13 66.9, 100.47 67.37, 16.64 65.34 C6.07 64.69, 0.89 57.89, 0 50 C0.86 40.16, -1.26 26.81, 0.41 15.87 C0.33 5.92, 7.64 -0.09, 16 0" stroke="#e03131" stroke-width="1.7" fill="none" stroke-linecap="round"></path></g><text x="590" y="261" font-family="Virgil, Segoe UI Emoji" font-size="15px" fill="#1e1e1e" text-anchor="middle" dominant-baseline="central" style="white-space:pre">Connection Registry</text><text x="590" y="280" font-family="Virgil, Segoe UI Emoji" font-size="12px" fill="#495057" text-anchor="middle" dominant-baseline="central" style="white-space:pre">Redis · userId → gatewayId</text><g transform="translate(105 417)"><path d="M16 0 C87.8 0.09, 160.3 -0.38, 233.73 0.11 C242.4 0.04, 250.49 7.62, 250 16 C250.22 27.16, 250.39 38.6, 249.84 50.14 C249.86 58.54, 242.96 65.58, 234 66 C161.54 65.98, 89.81 66.16, 16.16 65.75 C7.33 66.11, 0.13 59.03, 0 50 C-0.22 38.71, 0.52 27.29, -0.3 15.89 C-0.19 6.64, 7.36 -0.24, 16 0 Z" stroke="none" fill="#a5d8ff"></path><path d="M16 0 C86.85 0.32, 159.91 -0.76, 234.12 -0.26 C241.92 -1.29, 249.98 6.17, 250 16 C250.59 27.42, 251.38 37.88, 249.69 50.47 C251.12 57.94, 241.54 64.74, 234 66 C162.31 66.5, 89.84 66.83, 16.29 65.7 C7.64 66.68, -0.75 58.27, 0 50 C-1.04 39, 0.32 26.16, 0.64 15.75 C-0.59 7.05, 7.88 1.18, 16 0 M16 0 C86.81 0.12, 159.73 -1.09, 234.63 0.51 C241.66 0.18, 250.98 7.36, 250 16 C250.71 25.95, 248.79 37.49, 249.47 50.3 C251.34 57.72, 242.71 65.63, 234 66 C163.38 66.67, 90.31 65.7, 15.97 66.22 C7.9 65.35, 0.07 58.95, 0 50 C-0.97 39.38, -0.39 26.55, -0.21 15.41 C0.62 8.19, 7.9 0, 16 0" stroke="#1971c2" stroke-width="1.7" fill="none" stroke-linecap="round"></path></g><text x="230" y="441" font-family="Virgil, Segoe UI Emoji" font-size="15px" fill="#1e1e1e" text-anchor="middle" dominant-baseline="central" style="white-space:pre">Chat Service</text><text x="230" y="460" font-family="Virgil, Segoe UI Emoji" font-size="12px" fill="#495057" text-anchor="middle" dominant-baseline="central" style="white-space:pre">validate · seqId · persist · receipts</text><g transform="translate(670 371)"><path d="M16 0 C104.97 0.24, 192.54 0.53, 284.25 -0.29 C292.63 -0.55, 300.43 7.1, 300 16 C300.41 24.75, 300.22 33.31, 300.29 42.26 C300.23 50.58, 292.98 57.83, 284 58 C195.39 58.05, 107.29 58.6, 15.85 57.73 C7.5 57.81, 0.13 50.98, 0 42 C0.07 32.85, 0.58 24.25, -0.3 15.97 C0.46 7.59, 7.23 0.54, 16 0 Z" stroke="none" fill="#ffc9c9"></path><path d="M16 0 C105.01 -0.26, 191.89 -0.35, 283.56 -0.08 C292.46 0.79, 298.92 7.74, 300 16 C299.55 23.46, 300.28 32.4, 300.09 42.22 C300.07 51.34, 291.63 59.32, 284 58 C196.07 57.56, 108.28 57.58, 16.45 58.51 C7.31 57.43, -0.91 51.4, 0 42 C1.16 33.7, -0.15 23.73, 0.39 15.45 C-0.17 7.08, 6.56 1.38, 16 0 M16 0 C103.55 0.69, 193.41 -1.27, 284.4 0.11 C293.31 -0.63, 299.21 6.13, 300 16 C301.27 24.41, 299.91 32.9, 299.9 41.39 C300.33 49.9, 292.4 57.8, 284 58 C194.42 57.27, 107.18 58.06, 16.22 57.59 C8 57.1, 0.93 51.74, 0 42 C0.42 32.73, -0.68 24.27, 0.59 16.08 C0.22 8.12, 8.05 -0.61, 16 0" stroke="#e03131" stroke-width="1.7" fill="none" stroke-linecap="round"></path></g><text x="820" y="391" font-family="Virgil, Segoe UI Emoji" font-size="15px" fill="#1e1e1e" text-anchor="middle" dominant-baseline="central" style="white-space:pre">Message Store</text><text x="820" y="410" font-family="Virgil, Segoe UI Emoji" font-size="12px" fill="#495057" text-anchor="middle" dominant-baseline="central" style="white-space:pre">Cassandra · (convId, seq) → msg</text><g transform="translate(670 441)"><path d="M16 0 C104.44 0.54, 192.79 0.37, 284.18 -0.26 C293.14 -0.07, 300.14 6.63, 300 16 C299.78 25.18, 300.48 33.06, 299.92 41.99 C300.33 50.84, 293.04 58.26, 284 58 C195.48 57.73, 106.55 58.59, 15.72 58.09 C7.57 57.49, -0.05 50.87, 0 42 C0.07 33.88, -0.1 24.49, -0.13 16.01 C-0.06 7.59, 6.64 -0.29, 16 0 Z" stroke="none" fill="#ffc9c9"></path><path d="M16 0 C103.57 0.61, 192.41 1.2, 283.61 -0.62 C293.79 -0.77, 299.74 7.48, 300 16 C299.01 24.58, 300.7 34.52, 299.58 41.78 C301.25 50.73, 291.49 56.85, 284 58 C196.38 58.75, 107.19 58.12, 16.64 57.59 C7.2 56.9, 0.86 49.83, 0 42 C0.07 33.33, -0.96 24.4, 0.25 15.4 C-0.8 8.54, 6.77 0.89, 16 0 M16 0 C103.88 1.05, 193.38 -1.34, 283.64 0.11 C293.76 -1.28, 300.61 7.73, 300 16 C301.32 25.73, 300.92 33.62, 299.57 42.4 C301.11 50.08, 293.57 58.74, 284 58 C194.61 57.56, 107.93 58.29, 15.43 58.43 C5.99 59.17, -0.87 51.42, 0 42 C-1.14 33.94, 0.97 24.12, 0.27 15.99 C0.11 7.85, 8.57 0.65, 16 0" stroke="#e03131" stroke-width="1.7" fill="none" stroke-linecap="round"></path></g><text x="820" y="461" font-family="Virgil, Segoe UI Emoji" font-size="15px" fill="#1e1e1e" text-anchor="middle" dominant-baseline="central" style="white-space:pre">Presence</text><text x="820" y="480" font-family="Virgil, Segoe UI Emoji" font-size="12px" fill="#495057" text-anchor="middle" dominant-baseline="central" style="white-space:pre">Redis · online / last-seen (TTL)</text><g transform="translate(460 533)"><path d="M16 0 C110.69 -0.57, 205.73 -0.59, 303.78 -0.13 C313.15 0.41, 319.65 6.65, 320 16 C320.2 23.71, 320.5 31.11, 320.05 38.23 C320.38 47.37, 312.9 54.21, 304 54 C209.41 53.52, 114.24 54.22, 15.87 54.21 C7.53 53.61, 0.19 46.63, 0 38 C-0.59 30.63, 0.35 23.27, -0.22 16.07 C-0.13 7.72, 7.45 -0.03, 16 0 Z" stroke="none" fill="#ffd8a8"></path><path d="M16 0 C111.45 -0.92, 204.69 -0.59, 303.31 -0.53 C312.19 0.75, 319.42 8.23, 320 16 C320.45 22.51, 319.95 29.76, 320.3 38.04 C320.7 47.13, 314.06 55.38, 304 54 C210.26 55.16, 113.93 53.13, 16.4 54.39 C5.84 54.56, -1.39 45.81, 0 38 C-0.32 29.68, 0.76 23.39, -0.25 16.62 C0.59 7.39, 6.72 -0.65, 16 0 M16 0 C109.96 -0.04, 205.87 -0.2, 304.16 -0.67 C313.06 0.69, 320.33 8.08, 320 16 C321.25 22.67, 320.76 30.95, 320.09 38.33 C321.25 46.4, 313.91 53.56, 304 54 C210.16 54.24, 115.2 54.26, 15.53 54.49 C8.56 54.43, -0.72 46.49, 0 38 C1.14 29.86, -1.01 23.99, -0.04 15.85 C0.51 7.52, 7.8 0.06, 16 0" stroke="#e8590c" stroke-width="1.7" fill="none" stroke-linecap="round"></path></g><text x="620" y="551" font-family="Virgil, Segoe UI Emoji" font-size="15px" fill="#1e1e1e" text-anchor="middle" dominant-baseline="central" style="white-space:pre">Apache Kafka</text><text x="620" y="570" font-family="Virgil, Segoe UI Emoji" font-size="12px" fill="#495057" text-anchor="middle" dominant-baseline="central" style="white-space:pre">per-conversation ordering · fan-out</text><g transform="translate(105 679)"><path d="M16 0 C87.4 -0.55, 160.09 -0.47, 234.03 0.28 C242.57 -0.29, 250.48 7.03, 250 16 C250.58 26.84, 249.41 38.9, 250.21 50.13 C250.06 59.27, 243.31 66.42, 234 66 C161.95 66.59, 90.09 66.32, 15.81 65.85 C7.2 65.52, 0.22 58.59, 0 50 C0.04 38.99, 0.07 27.82, 0.14 16.11 C0.52 7.66, 6.82 0.23, 16 0 Z" stroke="none" fill="#a5d8ff"></path><path d="M16 0 C87.36 1.01, 160.39 1.3, 233.44 -0.47 C241.65 1.17, 251.25 6.22, 250 16 C249 27.24, 250.15 37.7, 249.59 49.73 C250.14 58.88, 243.07 66.86, 234 66 C163.45 67.06, 91.06 66.85, 15.73 65.72 C7.97 64.72, -0.65 58.55, 0 50 C0.54 38.46, 0.71 28.87, 0.55 16.66 C-0.34 8.27, 7.83 -0.61, 16 0 M16 0 C88.41 0.78, 159.05 0.15, 233.64 -0.18 C242.58 -0.19, 250.57 6.25, 250 16 C249.73 28.12, 250.14 39.42, 249.33 49.54 C251.06 57.47, 243.93 66.96, 234 66 C163.05 65.05, 88.79 64.64, 16.5 65.63 C8.21 66.2, 0.05 59.13, 0 50 C-1.1 37.42, -0.23 28.31, -0.65 16.18 C-0.32 8.34, 5.9 -1.24, 16 0" stroke="#1971c2" stroke-width="1.7" fill="none" stroke-linecap="round"></path></g><text x="230" y="703" font-family="Virgil, Segoe UI Emoji" font-size="15px" fill="#1e1e1e" text-anchor="middle" dominant-baseline="central" style="white-space:pre">Group Fan-out Worker</text><text x="230" y="722" font-family="Virgil, Segoe UI Emoji" font-size="12px" fill="#495057" text-anchor="middle" dominant-baseline="central" style="white-space:pre">write to N inboxes</text><g transform="translate(475 683)"><path d="M16 0 C87.6 -0.11, 160.44 0.03, 233.91 -0.19 C243.05 -0.4, 249.72 7.3, 250 16 C249.94 24.16, 250.19 32.57, 249.86 42.21 C249.64 51.17, 242.45 58.02, 234 58 C161.52 58.33, 90.31 58.36, 15.83 57.74 C6.97 57.45, 0.48 50.64, 0 42 C-0.51 33.75, -0.53 24.3, -0.04 16.08 C0.03 7.29, 7.12 -0.16, 16 0 Z" stroke="none" fill="#ffc9c9"></path><path d="M16 0 C88.06 -0.16, 158.77 -1.01, 234.66 0.29 C241.83 -0.85, 250.69 6.03, 250 16 C249.91 24.29, 249.53 31.82, 250.59 41.76 C249.3 51.05, 242.18 58.91, 234 58 C160.86 58.9, 89.11 58.51, 16.1 58.05 C7.9 58.65, -0.37 49.66, 0 42 C1.37 32.15, 0.78 24.36, 0.48 15.59 C0.86 8.08, 6.43 -0.12, 16 0 M16 0 C87.4 -0.42, 159.67 1.38, 234.3 -0.42 C243.74 0.6, 249.03 6.84, 250 16 C248.88 25.52, 250.3 32.9, 249.67 42.06 C250.89 51.77, 243.22 59.39, 234 58 C162.58 57.39, 90.82 58.04, 16.48 58.58 C6.99 57.82, -1.3 49.51, 0 42 C1.13 34.69, -0.73 23.77, -0.61 16.18 C-0.79 6.31, 5.95 -0.18, 16 0" stroke="#e03131" stroke-width="1.7" fill="none" stroke-linecap="round"></path></g><text x="600" y="703" font-family="Virgil, Segoe UI Emoji" font-size="15px" fill="#1e1e1e" text-anchor="middle" dominant-baseline="central" style="white-space:pre">Inbox / Offset</text><text x="600" y="722" font-family="Virgil, Segoe UI Emoji" font-size="12px" fill="#495057" text-anchor="middle" dominant-baseline="central" style="white-space:pre">Cassandra · last-delivered per user</text><g transform="translate(785 683)"><path d="M16 0 C81.54 0.27, 146.15 0.28, 214.23 -0.03 C222.83 0.42, 230.52 6.95, 230 16 C230.45 24.87, 229.54 33.65, 230.2 41.82 C230.11 50.77, 222.83 57.74, 214 58 C148.46 58.03, 82.93 57.56, 15.89 58.11 C7.59 58.09, -0.41 50.79, 0 42 C0.49 33.04, -0.24 25.3, -0.25 15.93 C-0.16 7.6, 7.15 0.19, 16 0 Z" stroke="none" fill="#d0bfff"></path><path d="M16 0 C82.57 0.17, 145.42 -1.28, 214.52 0.55 C221.94 -0.3, 231.08 6.79, 230 16 C230.69 23.2, 230.77 34.48, 230.01 42.52 C230.78 51.29, 223.43 58.43, 214 58 C149.47 58.9, 82.9 56.92, 16.52 57.3 C7.51 57.08, -0.16 50.23, 0 42 C-0.57 34.8, -0.65 24.19, 0.37 16.04 C-1.03 7.2, 6.39 -1.29, 16 0 M16 0 C82.65 -0.95, 146.12 -0.41, 214.33 -0.6 C222.53 0.3, 229.55 6.08, 230 16 C230.9 25.59, 229.09 32.42, 229.47 41.85 C230.91 50.07, 223.65 58.61, 214 58 C149.12 56.64, 84.27 58.48, 16.63 58.21 C6.48 56.85, -1.22 51.98, 0 42 C0.54 34.08, 0.56 24.17, 0.01 15.71 C0.82 6.92, 7.47 0.59, 16 0" stroke="#7048e8" stroke-width="1.7" fill="none" stroke-linecap="round"></path></g><text x="900" y="703" font-family="Virgil, Segoe UI Emoji" font-size="15px" fill="#1e1e1e" text-anchor="middle" dominant-baseline="central" style="white-space:pre">APNs / FCM</text><text x="900" y="722" font-family="Virgil, Segoe UI Emoji" font-size="12px" fill="#495057" text-anchor="middle" dominant-baseline="central" style="white-space:pre">push on disconnect</text><rect x="108" y="218" width="166" height="18" fill="#ffffff" stroke="none"></rect><text x="113" y="227" font-family="Virgil, Segoe UI Emoji" font-size="12.5px" fill="#495057" text-anchor="start" dominant-baseline="central" style="white-space:pre">Realtime Gateway Service</text><rect x="106" y="401" width="88" height="18" fill="#ffffff" stroke="none"></rect><text x="111" y="410" font-family="Virgil, Segoe UI Emoji" font-size="12.5px" fill="#495057" text-anchor="start" dominant-baseline="central" style="white-space:pre">Chat Service</text><rect x="106" y="653" width="153" height="18" fill="#ffffff" stroke="none"></rect><text x="111" y="662" font-family="Virgil, Segoe UI Emoji" font-size="12.5px" fill="#495057" text-anchor="start" dominant-baseline="central" style="white-space:pre">Group Delivery Service</text><rect x="312.08" y="88" width="55.84" height="18" rx="6" ry="6" fill="#ffffff" fill-opacity="0.82" stroke="none"></rect><text x="340" y="97" font-family="Virgil, Segoe UI Emoji" font-size="11.5px" fill="#27313a" text-anchor="middle" dominant-baseline="central" style="white-space:pre">open WSS</text><rect x="291.15" y="195.5" width="97.7" height="18" rx="6" ry="6" fill="#ffffff" fill-opacity="0.82" stroke="none"></rect><text x="340" y="204.5" font-family="Virgil, Segoe UI Emoji" font-size="11.5px" fill="#27313a" text-anchor="middle" dominant-baseline="central" style="white-space:pre">① connect (WSS)</text><rect x="208.06" y="351" width="43.88" height="18" rx="6" ry="6" fill="#ffffff" fill-opacity="0.82" stroke="none"></rect><text x="230" y="360" font-family="Virgil, Segoe UI Emoji" font-size="11.5px" fill="#27313a" text-anchor="middle" dominant-baseline="central" style="white-space:pre">② send</text><rect x="505.17" y="416" width="109.66" height="18" rx="6" ry="6" fill="#ffffff" fill-opacity="0.82" stroke="none"></rect><text x="560" y="425" font-family="Virgil, Segoe UI Emoji" font-size="11.5px" fill="#27313a" text-anchor="middle" dominant-baseline="central" style="white-space:pre">③ seqId + persist</text><rect x="511.15" y="451" width="97.7" height="18" rx="6" ry="6" fill="#ffffff" fill-opacity="0.82" stroke="none"></rect><text x="560" y="460" font-family="Virgil, Segoe UI Emoji" font-size="11.5px" fill="#27313a" text-anchor="middle" dominant-baseline="central" style="white-space:pre">presence lookup</text><rect x="394.09" y="501" width="61.82" height="18" rx="6" ry="6" fill="#ffffff" fill-opacity="0.82" stroke="none"></rect><text x="425" y="510" font-family="Virgil, Segoe UI Emoji" font-size="11.5px" fill="#27313a" text-anchor="middle" dominant-baseline="central" style="white-space:pre">④ publish</text><rect x="369.19" y="406" width="121.62" height="18" rx="6" ry="6" fill="#ffffff" fill-opacity="0.82" stroke="none"></rect><text x="430" y="415" font-family="Virgil, Segoe UI Emoji" font-size="11.5px" fill="#27313a" text-anchor="middle" dominant-baseline="central" style="white-space:pre">⑤ route to gateways</text><rect x="364.14" y="366" width="91.72" height="18" rx="6" ry="6" fill="#ffffff" fill-opacity="0.82" stroke="none"></rect><text x="410" y="375" font-family="Virgil, Segoe UI Emoji" font-size="11.5px" fill="#27313a" text-anchor="middle" dominant-baseline="central" style="white-space:pre">⑦ read receipt</text><rect x="375.12" y="591" width="79.76" height="18" rx="6" ry="6" fill="#ffffff" fill-opacity="0.82" stroke="none"></rect><text x="415" y="600" font-family="Virgil, Segoe UI Emoji" font-size="11.5px" fill="#27313a" text-anchor="middle" dominant-baseline="central" style="white-space:pre">inbox offset</text><rect x="400.07" y="661" width="49.86" height="18" rx="6" ry="6" fill="#ffffff" fill-opacity="0.82" stroke="none"></rect><text x="425" y="670" font-family="Virgil, Segoe UI Emoji" font-size="11.5px" fill="#27313a" text-anchor="middle" dominant-baseline="central" style="white-space:pre">fan-out</text><rect x="705.17" y="639" width="109.66" height="18" rx="6" ry="6" fill="#ffffff" fill-opacity="0.82" stroke="none"></rect><text x="760" y="648" font-family="Virgil, Segoe UI Emoji" font-size="11.5px" fill="#27313a" text-anchor="middle" dominant-baseline="central" style="white-space:pre">⑥ push if offline</text><rect x="366.15" y="703" width="97.7" height="18" rx="6" ry="6" fill="#ffffff" fill-opacity="0.82" stroke="none"></rect><text x="415" y="712" font-family="Virgil, Segoe UI Emoji" font-size="11.5px" fill="#27313a" text-anchor="middle" dominant-baseline="central" style="white-space:pre">write N inboxes</text></g>
</svg>
