<?xml version="1.0" encoding="UTF-8"?>
<svg id="diagram" viewBox="0 0 1120 800" xmlns="http://www.w3.org/2000/svg" width="1120" height="800"><rect x="0" y="0" width="1120" height="800" fill="#ffffff"></rect><g><rect x="95" y="227" width="652" height="104" rx="14" ry="14" fill="#f8fafc" stroke="#64748b" stroke-width="1.6" stroke-dasharray="7 5"></rect><rect x="109" y="204" width="179.60000000000002" height="22" rx="7" ry="7" fill="#475569"></rect><text x="198.8" y="215" fill="#fff" font-size="11.5" font-weight="700" text-anchor="middle" dominant-baseline="central">▢ Realtime Gateway Service</text><rect x="93" y="410" width="274" height="88" rx="14" ry="14" fill="#f8fafc" stroke="#64748b" stroke-width="1.6" stroke-dasharray="7 5"></rect><rect x="107" y="387" width="102.80000000000001" height="22" rx="7" ry="7" fill="#475569"></rect><text x="158.4" y="398" fill="#fff" font-size="11.5" font-weight="700" text-anchor="middle" dominant-baseline="central">▢ Chat Service</text><rect x="93" y="662" width="274" height="96" rx="14" ry="14" fill="#f8fafc" stroke="#64748b" stroke-width="1.6" stroke-dasharray="7 5"></rect><rect x="107" y="639" width="166.8" height="22" rx="7" ry="7" fill="#475569"></rect><text x="190.4" y="650" fill="#fff" font-size="11.5" font-weight="700" text-anchor="middle" dominant-baseline="central">▢ Group Delivery Service</text></g><g><path d="M340,78 L340,116" fill="none" stroke="#55606a" stroke-width="1.9" stroke-linejoin="round" stroke-linecap="round"></path><polygon points="340,116 336.12627569593405,107.32565506703307 343.8737243040659,107.32565506703307" fill="#55606a"></polygon><path d="M340,174 L340,235 L230,235 L230,237" fill="none" stroke="#55606a" stroke-width="1.9" stroke-linejoin="round" stroke-linecap="round"></path><polygon points="230,237 226.12627569593408,228.32565506703307 233.87372430406592,228.32565506703307" fill="#55606a"></polygon><path d="M230,303 L230,417" fill="none" stroke="#55606a" stroke-width="1.9" stroke-linejoin="round" stroke-linecap="round"></path><polygon points="230,417 226.12627569593408,408.3256550670331 233.87372430406592,408.3256550670331" fill="#55606a"></polygon><path d="M355,450 L560,450 L560,400 L670,400" fill="none" stroke="#55606a" stroke-width="1.9" stroke-linejoin="round" stroke-linecap="round"></path><polygon points="670,400 661.325655067033,403.87372430406595 661.325655067033,396.12627569593405" fill="#55606a"></polygon><path d="M355,450 L560,450 L560,470 L670,470" fill="none" stroke="#aab2bb" stroke-width="1.6" stroke-linejoin="round" stroke-linecap="round" stroke-dasharray="6 5"></path><polygon points="670,470 661.325655067033,473.87372430406595 661.325655067033,466.12627569593405" fill="#aab2bb"></polygon><path d="M230,483 L230,510 L620,510 L620,533" fill="none" stroke="#55606a" stroke-width="1.9" stroke-linejoin="round" stroke-linecap="round"></path><polygon points="620,533 616.126275695934,524.325655067033 623.873724304066,524.325655067033" fill="#55606a"></polygon><path d="M460,560 L430,560 L430,270 L350,270" fill="none" stroke="#55606a" stroke-width="1.9" stroke-linejoin="round" stroke-linecap="round"></path><polygon points="350,270 358.6743449329669,266.12627569593405 358.6743449329669,273.8737243040659" fill="#55606a"></polygon><path d="M590,303 L590,375 L230,375 L230,417" fill="none" stroke="#55606a" stroke-width="1.9" stroke-linejoin="round" stroke-linecap="round"></path><polygon points="230,417 226.12627569593408,408.3256550670331 233.87372430406592,408.3256550670331" fill="#55606a"></polygon><path d="M230,483 L230,600 L600,600 L600,683" fill="none" stroke="#aab2bb" stroke-width="1.6" stroke-linejoin="round" stroke-linecap="round" stroke-dasharray="6 5"></path><polygon points="600,683 596.126275695934,674.325655067033 603.873724304066,674.325655067033" fill="#aab2bb"></polygon><path d="M620,587 L620,670 L230,670 L230,679" fill="none" stroke="#55606a" stroke-width="1.9" stroke-linejoin="round" stroke-linecap="round"></path><polygon points="230,679 226.12627569593408,670.325655067033 233.87372430406592,670.325655067033" fill="#55606a"></polygon><path d="M620,587 L620,648 L900,648 L900,683" fill="none" stroke="#55606a" stroke-width="1.9" stroke-linejoin="round" stroke-linecap="round"></path><polygon points="900,683 896.126275695934,674.325655067033 903.873724304066,674.325655067033" fill="#55606a"></polygon><path d="M355,712 L475,712" fill="none" stroke="#aab2bb" stroke-width="1.6" stroke-linejoin="round" stroke-linecap="round" stroke-dasharray="6 5"></path><polygon points="475,712 466.3256550670331,715.873724304066 466.3256550670331,708.126275695934" fill="#aab2bb"></polygon></g><g><rect x="160" y="26" width="360" height="52" rx="9" ry="9" fill="#fff" stroke="#6c757d" stroke-width="1.7" filter="url(#sh)"></rect><path d="M160,49.92 V35 Q160,26 169,26 H511 Q520,26 520,35 V49.92 Z" fill="#6c757d"></path><text x="340" y="38.46" fill="#fff" font-weight="700" font-size="12.5" text-anchor="middle" dominant-baseline="central">Clients (mobile/web)</text><text x="340" y="63.96" fill="#3c454d" font-size="10.8" text-anchor="middle" dominant-baseline="central">millions of persistent conns</text><rect x="160" y="116" width="360" height="58" rx="9" ry="9" fill="#fff" stroke="#4338ca" stroke-width="1.7" filter="url(#sh)"></rect><path d="M160,142 V125 Q160,116 169,116 H511 Q520,116 520,125 V142 Z" fill="#4f46e5"></path><text x="340" y="129.5" fill="#fff" font-weight="700" font-size="12.5" text-anchor="middle" dominant-baseline="central">API Gateway + LB</text><text x="340" y="158" fill="#3c454d" font-size="10.8" text-anchor="middle" dominant-baseline="central">auth · TLS</text><rect x="110" y="237" width="240" height="66" rx="9" ry="9" fill="#fff" stroke="#0F5BB5" stroke-width="1.7" filter="url(#sh)"></rect><path d="M110,263 V246 Q110,237 119,237 H341 Q350,237 350,246 V263 Z" fill="#0078D4"></path><text x="230" y="250.5" fill="#fff" font-weight="700" font-size="12.5" text-anchor="middle" dominant-baseline="central">WebSocket Gateway</text><text x="230" y="283" fill="#3c454d" font-size="10.8" text-anchor="middle" dominant-baseline="central">holds live connections</text><rect x="450" y="237" width="280" height="66" rx="9" ry="9" fill="#fff" stroke="#0A6E80" stroke-width="1.7" filter="url(#sh)"></rect><path d="M450,263 V246 Q450,237 459,237 H721 Q730,237 730,246 V263 Z" fill="#0C8599"></path><text x="590" y="250.5" fill="#fff" font-weight="700" font-size="12.5" text-anchor="middle" dominant-baseline="central">Connection Registry</text><text x="590" y="283" fill="#3c454d" font-size="10.8" text-anchor="middle" dominant-baseline="central">Redis · userId → gatewayId</text><rect x="105" y="417" width="250" height="66" rx="9" ry="9" fill="#fff" stroke="#0F5BB5" stroke-width="1.7" filter="url(#sh)"></rect><path d="M105,443 V426 Q105,417 114,417 H346 Q355,417 355,426 V443 Z" fill="#0078D4"></path><text x="230" y="430.5" fill="#fff" font-weight="700" font-size="12.5" text-anchor="middle" dominant-baseline="central">Chat Service</text><text x="230" y="463" fill="#3c454d" font-size="10.8" text-anchor="middle" dominant-baseline="central">validate · seqId · persist · receipts</text><rect x="670" y="371" width="300" height="58" rx="9" ry="9" fill="#fff" stroke="#0A6E80" stroke-width="1.7" filter="url(#sh)"></rect><path d="M670,397 V380 Q670,371 679,371 H961 Q970,371 970,380 V397 Z" fill="#0C8599"></path><text x="820" y="384.5" fill="#fff" font-weight="700" font-size="12.5" text-anchor="middle" dominant-baseline="central">Message Store</text><text x="820" y="413" fill="#3c454d" font-size="10.8" text-anchor="middle" dominant-baseline="central">Cassandra · (convId, seq) → msg</text><rect x="670" y="441" width="300" height="58" rx="9" ry="9" fill="#fff" stroke="#0A6E80" stroke-width="1.7" filter="url(#sh)"></rect><path d="M670,467 V450 Q670,441 679,441 H961 Q970,441 970,450 V467 Z" fill="#0C8599"></path><text x="820" y="454.5" fill="#fff" font-weight="700" font-size="12.5" text-anchor="middle" dominant-baseline="central">Presence</text><text x="820" y="483" fill="#3c454d" font-size="10.8" text-anchor="middle" dominant-baseline="central">Redis · online / last-seen (TTL)</text><rect x="460" y="533" width="320" height="54" rx="9" ry="9" fill="#fff" stroke="#C8590B" stroke-width="1.7" filter="url(#sh)"></rect><path d="M460,557.84 V542 Q460,533 469,533 H771 Q780,533 780,542 V557.84 Z" fill="#F7630C"></path><text x="620" y="545.92" fill="#fff" font-weight="700" font-size="12.5" text-anchor="middle" dominant-baseline="central">Apache Kafka</text><text x="620" y="572.4200000000001" fill="#3c454d" font-size="10.8" text-anchor="middle" dominant-baseline="central">per-conversation ordering · fan-out</text><rect x="105" y="679" width="250" height="66" rx="9" ry="9" fill="#fff" stroke="#0F5BB5" stroke-width="1.7" filter="url(#sh)"></rect><path d="M105,705 V688 Q105,679 114,679 H346 Q355,679 355,688 V705 Z" fill="#0078D4"></path><text x="230" y="692.5" fill="#fff" font-weight="700" font-size="12.5" text-anchor="middle" dominant-baseline="central">Group Fan-out Worker</text><text x="230" y="725" fill="#3c454d" font-size="10.8" text-anchor="middle" dominant-baseline="central">write to N inboxes</text><rect x="475" y="683" width="250" height="58" rx="9" ry="9" fill="#fff" stroke="#0A6E80" stroke-width="1.7" filter="url(#sh)"></rect><path d="M475,709 V692 Q475,683 484,683 H716 Q725,683 725,692 V709 Z" fill="#0C8599"></path><text x="600" y="696.5" fill="#fff" font-weight="700" font-size="12.5" text-anchor="middle" dominant-baseline="central">Inbox / Offset</text><text x="600" y="725" fill="#3c454d" font-size="10.8" text-anchor="middle" dominant-baseline="central">Cassandra · last-delivered per user</text><rect x="785" y="683" width="230" height="58" rx="9" ry="9" fill="#fff" stroke="#1F7A33" stroke-width="1.7" filter="url(#sh)"></rect><path d="M785,709 V692 Q785,683 794,683 H1006 Q1015,683 1015,692 V709 Z" fill="#2f9e44"></path><text x="900" y="696.5" fill="#fff" font-weight="700" font-size="12.5" text-anchor="middle" dominant-baseline="central">APNs / FCM</text><text x="900" y="725" fill="#3c454d" font-size="10.8" text-anchor="middle" dominant-baseline="central">push on disconnect</text></g><g><rect x="308.6" y="88" width="62.8" height="18" rx="9" ry="9" fill="#ffffff" stroke="#dde2e7" stroke-width="1"></rect><text x="340" y="97.5" fill="#27313a" font-size="10.8" font-weight="600" text-anchor="middle" dominant-baseline="central">open WSS</text><rect x="287.25" y="195.5" width="105.5" height="18" rx="9" ry="9" fill="#ffffff" stroke="#dde2e7" stroke-width="1"></rect><text x="340" y="205" fill="#27313a" font-size="10.8" font-weight="600" text-anchor="middle" dominant-baseline="central">① connect (WSS)</text><rect x="204.7" y="351" width="50.599999999999994" height="18" rx="9" ry="9" fill="#ffffff" stroke="#dde2e7" stroke-width="1"></rect><text x="230" y="360.5" fill="#27313a" font-size="10.8" font-weight="600" text-anchor="middle" dominant-baseline="central">② send</text><rect x="501.15" y="416" width="117.69999999999999" height="18" rx="9" ry="9" fill="#ffffff" stroke="#dde2e7" stroke-width="1"></rect><text x="560" y="425.5" fill="#27313a" font-size="10.8" font-weight="600" text-anchor="middle" dominant-baseline="central">③ seqId + persist</text><rect x="507.25" y="451" width="105.5" height="18" rx="9" ry="9" fill="#ffffff" stroke="#dde2e7" stroke-width="1"></rect><text x="560" y="460.5" fill="#27313a" font-size="10.8" font-weight="600" text-anchor="middle" dominant-baseline="central">presence lookup</text><rect x="390.55" y="501" width="68.9" height="18" rx="9" ry="9" fill="#ffffff" stroke="#dde2e7" stroke-width="1"></rect><text x="425" y="510.5" fill="#27313a" font-size="10.8" font-weight="600" text-anchor="middle" dominant-baseline="central">④ publish</text><rect x="365.05" y="406" width="129.89999999999998" height="18" rx="9" ry="9" fill="#ffffff" stroke="#dde2e7" stroke-width="1"></rect><text x="430" y="415.5" fill="#27313a" font-size="10.8" font-weight="600" text-anchor="middle" dominant-baseline="central">⑤ route to gateways</text><rect x="360.3" y="366" width="99.39999999999999" height="18" rx="9" ry="9" fill="#ffffff" stroke="#dde2e7" stroke-width="1"></rect><text x="410" y="375.5" fill="#27313a" font-size="10.8" font-weight="600" text-anchor="middle" dominant-baseline="central">⑦ read receipt</text><rect x="371.4" y="591" width="87.19999999999999" height="18" rx="9" ry="9" fill="#ffffff" stroke="#dde2e7" stroke-width="1"></rect><text x="415" y="600.5" fill="#27313a" font-size="10.8" font-weight="600" text-anchor="middle" dominant-baseline="central">inbox offset</text><rect x="396.65" y="661" width="56.699999999999996" height="18" rx="9" ry="9" fill="#ffffff" stroke="#dde2e7" stroke-width="1"></rect><text x="425" y="670.5" fill="#27313a" font-size="10.8" font-weight="600" text-anchor="middle" dominant-baseline="central">fan-out</text><rect x="701.15" y="639" width="117.69999999999999" height="18" rx="9" ry="9" fill="#ffffff" stroke="#dde2e7" stroke-width="1"></rect><text x="760" y="648.5" fill="#27313a" font-size="10.8" font-weight="600" text-anchor="middle" dominant-baseline="central">⑥ push if offline</text><rect x="362.25" y="703" width="105.5" height="18" rx="9" ry="9" fill="#ffffff" stroke="#dde2e7" stroke-width="1"></rect><text x="415" y="712.5" fill="#27313a" font-size="10.8" font-weight="600" text-anchor="middle" dominant-baseline="central">write N inboxes</text></g><defs><filter id="sh" x="-20%" y="-20%" width="140%" height="140%"><feDropShadow dx="0" dy="1" stdDeviation="1.1" flood-color="#000" flood-opacity="0.13"></feDropShadow></filter></defs></svg>