<svg version="1.1" xmlns="http://www.w3.org/2000/svg" viewBox="0 0 1120 804" width="1120" height="804">
  <!-- svg-source:gen-whiteboards.js -->
  <defs><style class="style-fonts">
@font-face{font-family:"Virgil";src:url("https://unpkg.com/@excalidraw/excalidraw@0.17.6/dist//dist/excalidraw-assets/Virgil.woff2");}
</style></defs>
  <rect x="0" y="0" width="1120" height="804" fill="#ffffff"></rect>
  <text x="24" y="26" font-family="Virgil, Segoe UI Emoji" font-size="22px" fill="#1e1e1e" text-anchor="start" dominant-baseline="central" style="white-space:pre">Collaborative Editor (Google Docs) — how you'd draw it live on the whiteboard</text>
  <text x="24" y="58" font-family="Virgil, Segoe UI Emoji" font-size="13px" fill="#868e96" text-anchor="start" dominant-baseline="central" style="white-space:pre">green = client   ·   grey = edge / LB   ·   blue = service   ·   red = datastore   ·   orange = queue / stream   ·   violet = 3rd-party</text>
  <g transform="translate(0 84)"><g transform="translate(90 250)"><path d="M18 0 C256.44 -0.29, 495.55 -0.93, 742 0.12 C751.53 -0.71, 760.71 7.47, 760 18 C760.7 79.08, 759.19 142.21, 759.88 205.81 C759.52 215.32, 750.99 224.13, 742 224 C504.05 223.64, 263.33 224.92, 18.27 223.95 C8.54 223.63, 0.18 215.11, 0 206 C-0.44 144.85, 0.73 81.39, 0.09 17.87 C0.09 8.7, 7.38 -0.12, 18 0" stroke="#495057" stroke-width="1.8" fill="none" stroke-linecap="round" stroke-dasharray="8 9"></path></g><path d="M460 93 C460.49 105.73, 460.72 116.16, 460.43 128.66" stroke="#1e1e1e" stroke-width="1.6" fill="none" stroke-linecap="round"></path><path d="M460 129 L455.51 118.96 M460 129 L464.49 118.96" stroke="#1e1e1e" stroke-width="1.6" fill="none" stroke-linecap="round"></path><path d="M460 187 C460.16 211.37, 460.56 235.39, 459.57 260.55 C407.37 260.89, 354.04 260.33, 299.83 259.89 C300.64 262.7, 299.25 267.88, 300.24 271.39" stroke="#1e1e1e" stroke-width="1.6" fill="none" stroke-linecap="round"></path><path d="M300 271 L295.51 260.96 M300 271 L304.49 260.96" stroke="#1e1e1e" stroke-width="1.6" fill="none" stroke-linecap="round"></path><path d="M300 345 C299.85 353.74, 300.24 360.94, 300.29 370.26 C418.48 369.88, 536.66 370.17, 659.74 369.81 C659.08 373.75, 659.27 374.96, 660.27 379.4" stroke="#1e1e1e" stroke-width="1.6" fill="none" stroke-linecap="round"></path><path d="M660 379 L655.51 368.96 M660 379 L664.49 368.96" stroke="#1e1e1e" stroke-width="1.6" fill="none" stroke-linecap="round"></path><path d="M660 461 C659.76 489.27, 660.56 517.33, 659.81 545.22 C567.27 545.75, 476.03 545.95, 380.15 545.43 C380.51 558.8, 380.74 574.32, 380.11 589.01" stroke="#1e1e1e" stroke-width="1.6" fill="none" stroke-linecap="round"></path><path d="M380 589 L375.51 578.96 M380 589 L384.49 578.96" stroke="#1e1e1e" stroke-width="1.6" fill="none" stroke-linecap="round"></path><path d="M660 461 C660.48 493.63, 660.99 525.81, 659.84 559.82 C669.42 560.04, 680.14 559.43, 690 559.52 C689.72 570.56, 689.13 578.25, 689.94 588.99" stroke="#1e1e1e" stroke-width="1.6" fill="none" stroke-linecap="round"></path><path d="M690 589 L685.51 578.96 M690 589 L694.49 578.96" stroke="#1e1e1e" stroke-width="1.6" fill="none" stroke-linecap="round"></path><path d="M828 420 C844.19 419.35, 859 420.4, 873.58 419.83 C872.96 400.96, 873.47 381.06, 873.94 359.99 C889.93 360.47, 903.52 361.05, 919.65 359.87" stroke="#1e1e1e" stroke-width="1.6" fill="none" stroke-linecap="round"></path><path d="M920 360 L909.96 364.49 M920 360 L909.96 355.51" stroke="#1e1e1e" stroke-width="1.6" fill="none" stroke-linecap="round"></path><path d="M828 420 C842.78 420.98, 857.32 420.56, 874.36 420.16 C873.76 437.59, 874.91 453.56, 874.26 470 C888.86 469.8, 905.08 470.57, 920.05 470.36" stroke="#1e1e1e" stroke-width="1.6" fill="none" stroke-linecap="round"></path><path d="M920 470 L909.96 474.49 M920 470 L909.96 465.51" stroke="#1e1e1e" stroke-width="1.6" fill="none" stroke-linecap="round"></path><path d="M492 420 C481.32 420.18, 469.51 419.93, 458.06 420.2 C458.03 382.98, 458.49 345.24, 458.15 308.02 C446.91 308.63, 437.17 307.71, 424.77 307.46" stroke="#1e1e1e" stroke-width="1.6" fill="none" stroke-linecap="round"></path><path d="M425 308 L435.04 303.51 M425 308 L435.04 312.49" stroke="#1e1e1e" stroke-width="1.6" fill="none" stroke-linecap="round"></path><g transform="translate(310 39)"><path d="M16 0 C104.55 -0.44, 193.26 0.2, 283.73 -0.02 C292.76 -0.38, 300.21 7.04, 300 16 C299.81 22.92, 299.87 31.02, 300.25 37.74 C299.66 47.33, 293.34 54.08, 284 54 C195.5 53.83, 107.66 54.05, 16.02 54.25 C7.02 53.79, -0.38 47.16, 0 38 C-0.07 30.6, 0.18 23.95, -0.04 16.19 C-0.11 6.74, 7.61 -0.43, 16 0 Z" stroke="none" fill="#b2f2bb"></path><path d="M16 0 C105.32 0.19, 192.79 1.09, 283.73 -0.43 C291.71 1.3, 300.57 5.82, 300 16 C299.42 22.97, 299.4 30.69, 300.5 37.53 C298.69 47.7, 292.09 55.33, 284 54 C194.84 55.22, 106.57 52.72, 15.84 53.98 C7.24 53.26, -0.26 46.14, 0 38 C-1.11 31.67, -0.96 22.12, -0.36 16.05 C0.19 6.07, 8.36 -0.44, 16 0 M16 0 C105.24 -1.28, 193.69 0.08, 283.69 0.27 C292.32 -1.22, 298.97 6.7, 300 16 C299.68 22.62, 300.38 31.54, 299.32 37.84 C300.14 46.05, 294.05 53.89, 284 54 C195.92 53.99, 108.01 54.84, 16.51 53.35 C8.33 54.76, 0.75 46.52, 0 38 C-0.61 30.42, 0.51 24.77, -0.46 15.67 C-1.28 8.44, 8.05 1.19, 16 0" stroke="#2f9e44" stroke-width="1.7" fill="none" stroke-linecap="round"></path></g><text x="460" y="57" font-family="Virgil, Segoe UI Emoji" font-size="15px" fill="#1e1e1e" text-anchor="middle" dominant-baseline="central" style="white-space:pre">Browsers (collaborators)</text><text x="460" y="76" font-family="Virgil, Segoe UI Emoji" font-size="12px" fill="#495057" text-anchor="middle" dominant-baseline="central" style="white-space:pre">real-time clients</text><g transform="translate(295 129)"><path d="M16 0 C113.8 0.18, 212.97 -0.35, 313.98 -0.05 C323.27 -0.28, 330.58 6.74, 330 16 C329.58 24.25, 330.23 32.99, 329.76 42.18 C330.14 50.36, 323.17 58.05, 314 58 C215.17 57.77, 117.8 58.36, 15.98 57.91 C6.82 57.42, -0.38 50.41, 0 42 C-0.2 33.57, -0.4 24.91, -0.04 15.78 C0.24 7.55, 6.72 0.41, 16 0 Z" stroke="none" fill="#dee2e6"></path><path d="M16 0 C115.37 0.08, 211.75 -0.31, 314 -0.08 C324.18 -0.2, 329.85 7.08, 330 16 C329.56 25.78, 329.61 33.28, 329.77 41.71 C331.3 51.23, 321.47 57.46, 314 58 C215.5 58.86, 117.92 58.45, 16.4 57.73 C8.26 57.36, -0.25 50.77, 0 42 C-1.05 34.81, -0.65 24.59, -0.11 15.54 C0.14 8.26, 8.1 1.34, 16 0 M16 0 C113.68 0.38, 211.46 0.2, 314.09 -0.26 C324.11 1.35, 330.18 7.35, 330 16 C330.47 24.8, 330.12 34.17, 330.66 41.42 C329.37 49.65, 321.54 57.56, 314 58 C216.73 57.79, 116.21 57.73, 15.67 57.49 C6.12 58.04, 0.61 50.78, 0 42 C0.96 33.48, -0.57 23.5, -0.49 15.5 C0.55 6.85, 6.97 -1.17, 16 0" stroke="#495057" stroke-width="1.7" fill="none" stroke-linecap="round"></path></g><text x="460" y="149" font-family="Virgil, Segoe UI Emoji" font-size="15px" fill="#1e1e1e" text-anchor="middle" dominant-baseline="central" style="white-space:pre">API Gateway + LB</text><text x="460" y="168" font-family="Virgil, Segoe UI Emoji" font-size="12px" fill="#495057" text-anchor="middle" dominant-baseline="central" style="white-space:pre">route by docId (consistent hash)</text><g transform="translate(175 271)"><path d="M16 0 C88.41 0.44, 159.43 0.33, 233.75 -0.01 C243.25 -0.51, 249.76 6.61, 250 16 C250.53 30.24, 250.56 44.06, 249.92 57.9 C250.04 66.54, 242.65 73.97, 234 74 C162.61 74.48, 89.72 74.59, 16.16 73.71 C7.64 73.69, 0.28 66.22, 0 58 C0.32 43.88, 0.34 30.41, -0.18 16.28 C-0.4 7.43, 6.77 -0.04, 16 0 Z" stroke="none" fill="#a5d8ff"></path><path d="M16 0 C86.81 0.07, 159.07 -0.16, 234.2 -0.1 C241.68 -1.13, 250.4 6.02, 250 16 C250.8 30.13, 249.29 44.65, 249.9 57.63 C248.96 67.24, 243.87 72.64, 234 74 C162.68 72.61, 90.22 75.08, 15.84 73.86 C5.81 72.87, -0.08 66.46, 0 58 C-0.88 43.07, -0.91 30.32, -0.18 15.57 C-0.29 6.75, 8.1 0.85, 16 0 M16 0 C88.86 0.81, 158.78 -0.77, 233.88 -0.3 C243.24 -0.86, 249.02 6.86, 250 16 C249.11 28.85, 249.37 45.08, 249.88 58.63 C250.32 67.84, 242.39 75.3, 234 74 C161.75 72.74, 88.9 75.02, 16.07 74.52 C6.68 74.13, -1.03 67.22, 0 58 C0.62 44.6, -0.17 28.93, 0.01 16.53 C-1.19 6.02, 7.92 -0.73, 16 0" stroke="#1971c2" stroke-width="1.7" fill="none" stroke-linecap="round"></path></g><text x="300" y="299" font-family="Virgil, Segoe UI Emoji" font-size="15px" fill="#1e1e1e" text-anchor="middle" dominant-baseline="central" style="white-space:pre">Collab Gateway</text><text x="300" y="318" font-family="Virgil, Segoe UI Emoji" font-size="12px" fill="#495057" text-anchor="middle" dominant-baseline="central" style="white-space:pre">WebSocket · per-doc routing</text><g transform="translate(492 379)"><path d="M16 0 C115.77 -0.59, 216.81 0.31, 320.25 -0.29 C329.15 0.36, 335.59 7.67, 336 16 C335.89 32.91, 336.45 48.5, 336.06 65.86 C335.87 75.04, 329.21 81.73, 320 82 C220.1 82.05, 119.16 81.7, 16.12 82.21 C7.38 82.13, 0.25 74.69, 0 66 C0.31 49.42, -0.51 33.51, 0.21 15.91 C0.56 6.87, 7.44 0.13, 16 0 Z" stroke="none" fill="#a5d8ff"></path><path d="M16 0 C116.07 0.47, 216.74 0.51, 320.53 -0.49 C328.15 -0.63, 336.68 6.05, 336 16 C336.07 31.16, 334.93 49.73, 335.64 65.54 C336.78 73.41, 327.62 82.73, 320 82 C218.5 81.31, 118.32 81.26, 16.48 81.31 C6.01 82.65, -0.3 74.51, 0 66 C0.81 50.27, 0.07 34.27, -0.33 15.79 C1.31 6.45, 6.2 -1.37, 16 0 M16 0 C116.04 0.37, 215.66 -1.2, 320.01 0.6 C327.57 -0.16, 336.75 7, 336 16 C335.88 32.15, 337.38 49.88, 336.46 66.04 C337.35 74.04, 329.54 82.94, 320 82 C218.8 81.55, 118.72 82.09, 15.53 82.21 C7.11 80.75, 0.62 73.95, 0 66 C1.36 49.31, 1.19 32.51, 0.47 16.13 C-0.34 8.36, 7.19 0.43, 16 0" stroke="#1971c2" stroke-width="1.7" fill="none" stroke-linecap="round"></path></g><text x="660" y="411" font-family="Virgil, Segoe UI Emoji" font-size="15px" fill="#1e1e1e" text-anchor="middle" dominant-baseline="central" style="white-space:pre">Document Session Server</text><text x="660" y="430" font-family="Virgil, Segoe UI Emoji" font-size="12px" fill="#495057" text-anchor="middle" dominant-baseline="central" style="white-space:pre">single authority/doc · ③ OT transform · revisions</text><g transform="translate(920 327)"><path d="M16 0 C65.16 -0.54, 114.15 0.4, 163.89 -0.03 C172.33 0.28, 180.45 6.94, 180 16 C179.52 27.23, 180.09 38.96, 179.97 50.01 C179.75 58.43, 173.36 66.14, 164 66 C114.85 65.64, 65.73 66.04, 16.2 66.2 C7.68 66.09, -0.1 59.37, 0 50 C0.54 39.26, -0.49 27.39, 0.27 15.95 C-0.12 7.13, 7.25 0.06, 16 0 Z" stroke="none" fill="#ffc9c9"></path><path d="M16 0 C64.37 -1.37, 113.33 1.25, 164.53 0.5 C173.72 -0.87, 179.01 6.63, 180 16 C179.99 28.24, 180 39.77, 179.58 49.56 C180.12 57.41, 173.49 66.26, 164 66 C115.4 66.38, 65.3 65.56, 15.56 65.65 C6.69 64.91, 0.96 59.37, 0 50 C0.93 37.9, -0.41 27.64, -0.07 16.37 C0.56 6.59, 7.31 -0.31, 16 0 M16 0 C65.49 0.55, 113.47 -1.24, 163.8 0.16 C172.08 0.75, 179.87 6.74, 180 16 C180.51 26.17, 179.29 38.91, 180.04 50.11 C180.27 59.18, 171.74 65.45, 164 66 C114.22 65.78, 65.33 67.23, 16.56 65.52 C8.55 64.77, 0.7 59.71, 0 50 C0.87 39.74, 1.31 27.21, -0.08 15.54 C0.78 8.43, 6.74 -0.39, 16 0" stroke="#e03131" stroke-width="1.7" fill="none" stroke-linecap="round"></path></g><text x="1010" y="351" font-family="Virgil, Segoe UI Emoji" font-size="15px" fill="#1e1e1e" text-anchor="middle" dominant-baseline="central" style="white-space:pre">Presence / Cursors</text><text x="1010" y="370" font-family="Virgil, Segoe UI Emoji" font-size="12px" fill="#495057" text-anchor="middle" dominant-baseline="central" style="white-space:pre">Redis</text><g transform="translate(920 437)"><path d="M16 0 C64.51 -0.23, 113.15 0.37, 164.12 0.07 C172.42 0.55, 180.38 7.34, 180 16 C179.46 26.64, 179.88 37.97, 179.76 49.87 C179.98 58.64, 172.71 65.96, 164 66 C115.46 66.26, 65.89 65.86, 16.04 65.75 C6.92 65.62, 0.05 59.31, 0 50 C-0.25 39.29, 0.33 27.78, 0.27 16.18 C0.17 6.91, 7.68 0.12, 16 0 Z" stroke="none" fill="#ffc9c9"></path><path d="M16 0 C63.83 0.33, 114.21 0.49, 164.27 0.49 C174.07 -0.62, 179.29 6.69, 180 16 C179.05 26.82, 180.05 39.34, 179.82 49.58 C178.71 59.71, 171.71 67.3, 164 66 C115.57 65.46, 65.15 67.36, 15.74 65.74 C7.44 66.57, 0.67 59.63, 0 50 C0.97 39.76, 1.34 26.47, -0.33 16.04 C-0.46 6.18, 6.72 -0.68, 16 0 M16 0 C64.64 -1.17, 114.83 -0.44, 163.79 0.21 C174.04 -1.22, 180.32 8.42, 180 16 C179.54 28.32, 181.29 39.38, 180.17 50.57 C179.29 58.64, 172.23 65.5, 164 66 C116.41 65.59, 66.51 65.4, 16.61 66.67 C6.11 65.35, -0.32 59.72, 0 50 C1.24 37.71, -0.07 26.97, -0.32 16.19 C-1.08 7.82, 7.61 0.97, 16 0" stroke="#e03131" stroke-width="1.7" fill="none" stroke-linecap="round"></path></g><text x="1010" y="461" font-family="Virgil, Segoe UI Emoji" font-size="15px" fill="#1e1e1e" text-anchor="middle" dominant-baseline="central" style="white-space:pre">Snapshot / Assets</text><text x="1010" y="480" font-family="Virgil, Segoe UI Emoji" font-size="12px" fill="#495057" text-anchor="middle" dominant-baseline="central" style="white-space:pre">Amazon S3</text><g transform="translate(254 589)"><path d="M16 0 C89.19 -0.3, 161.74 0.12, 235.97 -0.12 C245.06 0.57, 251.64 7.51, 252 16 C252.21 27.61, 251.66 37.85, 252.09 49.81 C252.35 59.28, 244.58 65.67, 236 66 C163.37 66.38, 91.25 66.43, 16.29 65.89 C7.48 65.83, -0.59 58.72, 0 50 C0.6 38.28, 0.29 27.34, -0.13 16.23 C0.44 6.87, 7.53 -0.12, 16 0 Z" stroke="none" fill="#ffc9c9"></path><path d="M16 0 C89.64 0.65, 161.65 0.06, 236.54 -0.35 C243.44 -0.91, 252.34 7.85, 252 16 C253.33 27.16, 252.83 37.17, 251.85 50.07 C253.2 57.94, 244.72 65.83, 236 66 C164.43 67.27, 89.85 67.17, 16.01 65.93 C8.46 65.92, 1.34 57.46, 0 50 C-0.4 38.48, 0.84 27.9, 0.35 16.5 C0.66 7.21, 6.22 -1.27, 16 0 M16 0 C87.33 -0.58, 160.62 -0.27, 235.43 0.06 C244.74 -0.41, 252.85 6.9, 252 16 C250.75 28.49, 251.68 38.58, 251.92 50.29 C250.71 58.46, 243.65 67.21, 236 66 C164.08 66.13, 90.75 65.22, 15.66 65.31 C6.76 65.51, -0.93 59.04, 0 50 C0.58 38.15, 1.37 27.86, -0.1 15.56 C-1.14 6.96, 5.98 -0.32, 16 0" stroke="#e03131" stroke-width="1.7" fill="none" stroke-linecap="round"></path></g><text x="380" y="613" font-family="Virgil, Segoe UI Emoji" font-size="15px" fill="#1e1e1e" text-anchor="middle" dominant-baseline="central" style="white-space:pre">Op Log</text><text x="380" y="632" font-family="Virgil, Segoe UI Emoji" font-size="12px" fill="#495057" text-anchor="middle" dominant-baseline="central" style="white-space:pre">Apache Kafka · append-only revisions</text><g transform="translate(564 589)"><path d="M16 0 C88.2 -0.46, 161.52 0.12, 235.94 0.29 C245.38 0.55, 251.68 7.39, 252 16 C252.5 27.21, 251.55 38.31, 252.09 49.98 C252.06 58.49, 244.95 66.52, 236 66 C163.61 65.86, 90.22 66.34, 16.15 65.89 C7.56 65.92, -0.08 58.26, 0 50 C0.38 38.54, -0.25 27.48, 0.02 15.73 C-0.47 6.87, 7.06 -0.03, 16 0 Z" stroke="none" fill="#ffc9c9"></path><path d="M16 0 C89.02 -0.07, 162.03 0.34, 235.6 0.43 C243.69 0.32, 252.29 7.42, 252 16 C251.37 28.08, 252.71 37.94, 251.9 49.9 C251.5 59.19, 244.43 66.61, 236 66 C164.12 66.43, 91.46 67.23, 15.31 66.11 C8.3 65.26, 0.8 57.41, 0 50 C0.81 37.49, 1.08 27.26, 0.35 16.38 C0.25 8.5, 6.55 -0.04, 16 0 M16 0 C87.65 -1.21, 161.42 0.83, 236.39 -0.61 C244.5 -0.82, 251.46 7.52, 252 16 C252.8 26.66, 251.48 37.3, 252.04 49.78 C253.31 58.4, 246.02 65.46, 236 66 C163.99 65.08, 91.39 65.84, 16.66 65.76 C5.99 64.9, -0.23 58.63, 0 50 C1.35 40.11, -0.62 27.49, -0.49 15.63 C-1.3 6.81, 5.93 0.8, 16 0" stroke="#e03131" stroke-width="1.7" fill="none" stroke-linecap="round"></path></g><text x="690" y="613" font-family="Virgil, Segoe UI Emoji" font-size="15px" fill="#1e1e1e" text-anchor="middle" dominant-baseline="central" style="white-space:pre">Document Store</text><text x="690" y="632" font-family="Virgil, Segoe UI Emoji" font-size="12px" fill="#495057" text-anchor="middle" dominant-baseline="central" style="white-space:pre">Spanner / Bigtable · snapshots</text><rect x="103" y="241" width="205" height="18" fill="#ffffff" stroke="none"></rect><text x="108" y="250" font-family="Virgil, Segoe UI Emoji" font-size="12.5px" fill="#495057" text-anchor="start" dominant-baseline="central" style="white-space:pre">Realtime Collaboration Service</text><rect x="426.1" y="102" width="67.8" height="18" rx="6" ry="6" fill="#ffffff" fill-opacity="0.82" stroke="none"></rect><text x="460" y="111" font-family="Virgil, Segoe UI Emoji" font-size="11.5px" fill="#27313a" text-anchor="middle" dominant-baseline="central" style="white-space:pre">edit (WSS)</text><rect x="420.12" y="214.5" width="79.76" height="18" rx="6" ry="6" fill="#ffffff" fill-opacity="0.82" stroke="none"></rect><text x="460" y="223.5" font-family="Virgil, Segoe UI Emoji" font-size="11.5px" fill="#27313a" text-anchor="middle" dominant-baseline="central" style="white-space:pre">① edit (WSS)</text><rect x="248.16" y="348.5" width="103.68" height="18" rx="6" ry="6" fill="#ffffff" fill-opacity="0.82" stroke="none"></rect><text x="300" y="357.5" font-family="Virgil, Segoe UI Emoji" font-size="11.5px" fill="#27313a" text-anchor="middle" dominant-baseline="central" style="white-space:pre">② route by docId</text><rect x="632.08" y="494" width="55.84" height="18" rx="6" ry="6" fill="#ffffff" fill-opacity="0.82" stroke="none"></rect><text x="660" y="503" font-family="Virgil, Segoe UI Emoji" font-size="11.5px" fill="#27313a" text-anchor="middle" dominant-baseline="central" style="white-space:pre">④ append</text><rect x="641.1" y="551" width="67.8" height="18" rx="6" ry="6" fill="#ffffff" fill-opacity="0.82" stroke="none"></rect><text x="675" y="560" font-family="Virgil, Segoe UI Emoji" font-size="11.5px" fill="#27313a" text-anchor="middle" dominant-baseline="central" style="white-space:pre">⑥ snapshot</text><rect x="846.08" y="381" width="55.84" height="18" rx="6" ry="6" fill="#ffffff" fill-opacity="0.82" stroke="none"></rect><text x="874" y="390" font-family="Virgil, Segoe UI Emoji" font-size="11.5px" fill="#27313a" text-anchor="middle" dominant-baseline="central" style="white-space:pre">presence</text><rect x="852.06" y="436" width="43.88" height="18" rx="6" ry="6" fill="#ffffff" fill-opacity="0.82" stroke="none"></rect><text x="874" y="445" font-family="Virgil, Segoe UI Emoji" font-size="11.5px" fill="#27313a" text-anchor="middle" dominant-baseline="central" style="white-space:pre">assets</text><rect x="412.14" y="355" width="91.72" height="18" rx="6" ry="6" fill="#ffffff" fill-opacity="0.82" stroke="none"></rect><text x="458" y="364" font-family="Virgil, Segoe UI Emoji" font-size="11.5px" fill="#27313a" text-anchor="middle" dominant-baseline="central" style="white-space:pre">⑤ broadcast op</text></g>
</svg>
