<?xml version="1.0" encoding="UTF-8"?>
<svg id="diagram" viewBox="0 0 1120 720" xmlns="http://www.w3.org/2000/svg" width="1120" height="720"><rect x="0" y="0" width="1120" height="720" fill="#ffffff"></rect><g><rect x="90" y="250" width="760" height="224" rx="14" ry="14" fill="#f8fafc" stroke="#64748b" stroke-width="1.6" stroke-dasharray="7 5"></rect><rect x="104" y="227" width="218" height="22" rx="7" ry="7" fill="#475569"></rect><text x="213" y="238" fill="#fff" font-size="11.5" font-weight="700" text-anchor="middle" dominant-baseline="central">▢ Realtime Collaboration Service</text></g><g><path d="M460,93 L460,129" fill="none" stroke="#55606a" stroke-width="1.9" stroke-linejoin="round" stroke-linecap="round"></path><polygon points="460,129 456.12627569593405,120.32565506703307 463.8737243040659,120.32565506703307" fill="#55606a"></polygon><path d="M460,187 L460,260 L300,260 L300,271" fill="none" stroke="#55606a" stroke-width="1.9" stroke-linejoin="round" stroke-linecap="round"></path><polygon points="300,271 296.12627569593405,262.3256550670331 303.8737243040659,262.3256550670331" fill="#55606a"></polygon><path d="M300,345 L300,370 L660,370 L660,379" fill="none" stroke="#55606a" stroke-width="1.9" stroke-linejoin="round" stroke-linecap="round"></path><polygon points="660,379 656.126275695934,370.3256550670331 663.873724304066,370.3256550670331" fill="#55606a"></polygon><path d="M660,461 L660,545 L380,545 L380,589" fill="none" stroke="#55606a" stroke-width="1.9" stroke-linejoin="round" stroke-linecap="round"></path><polygon points="380,589 376.12627569593405,580.325655067033 383.8737243040659,580.325655067033" fill="#55606a"></polygon><path d="M660,461 L660,560 L690,560 L690,589" fill="none" stroke="#55606a" stroke-width="1.9" stroke-linejoin="round" stroke-linecap="round"></path><polygon points="690,589 686.126275695934,580.325655067033 693.873724304066,580.325655067033" fill="#55606a"></polygon><path d="M828,420 L874,420 L874,360 L920,360" fill="none" stroke="#aab2bb" stroke-width="1.6" stroke-linejoin="round" stroke-linecap="round" stroke-dasharray="6 5"></path><polygon points="920,360 911.325655067033,363.87372430406595 911.325655067033,356.12627569593405" fill="#aab2bb"></polygon><path d="M828,420 L874,420 L874,470 L920,470" fill="none" stroke="#aab2bb" stroke-width="1.6" stroke-linejoin="round" stroke-linecap="round" stroke-dasharray="6 5"></path><polygon points="920,470 911.325655067033,473.87372430406595 911.325655067033,466.12627569593405" fill="#aab2bb"></polygon><path d="M492,420 L458,420 L458,308 L425,308" fill="none" stroke="#55606a" stroke-width="1.9" stroke-linejoin="round" stroke-linecap="round"></path><polygon points="425,308 433.6743449329669,304.12627569593405 433.6743449329669,311.8737243040659" fill="#55606a"></polygon></g><g><rect x="310" y="39" width="300" height="54" rx="9" ry="9" fill="#fff" stroke="#6c757d" stroke-width="1.7" filter="url(#sh)"></rect><path d="M310,63.84 V48 Q310,39 319,39 H601 Q610,39 610,48 V63.84 Z" fill="#6c757d"></path><text x="460" y="51.92" fill="#fff" font-weight="700" font-size="12.5" text-anchor="middle" dominant-baseline="central">Browsers (collaborators)</text><text x="460" y="78.42" fill="#3c454d" font-size="10.8" text-anchor="middle" dominant-baseline="central">real-time clients</text><rect x="295" y="129" width="330" height="58" rx="9" ry="9" fill="#fff" stroke="#4338ca" stroke-width="1.7" filter="url(#sh)"></rect><path d="M295,155 V138 Q295,129 304,129 H616 Q625,129 625,138 V155 Z" fill="#4f46e5"></path><text x="460" y="142.5" fill="#fff" font-weight="700" font-size="12.5" text-anchor="middle" dominant-baseline="central">API Gateway + LB</text><text x="460" y="171" fill="#3c454d" font-size="10.8" text-anchor="middle" dominant-baseline="central">route by docId (consistent hash)</text><rect x="175" y="271" width="250" height="74" rx="9" ry="9" fill="#fff" stroke="#0F5BB5" stroke-width="1.7" filter="url(#sh)"></rect><path d="M175,297 V280 Q175,271 184,271 H416 Q425,271 425,280 V297 Z" fill="#0078D4"></path><text x="300" y="284.5" fill="#fff" font-weight="700" font-size="12.5" text-anchor="middle" dominant-baseline="central">Collab Gateway</text><text x="300" y="321" fill="#3c454d" font-size="10.8" text-anchor="middle" dominant-baseline="central">WebSocket · per-doc routing</text><rect x="492" y="379" width="336" height="82" rx="9" ry="9" fill="#fff" stroke="#0F5BB5" stroke-width="1.7" filter="url(#sh)"></rect><path d="M492,405 V388 Q492,379 501,379 H819 Q828,379 828,388 V405 Z" fill="#0078D4"></path><text x="660" y="392.5" fill="#fff" font-weight="700" font-size="12.5" text-anchor="middle" dominant-baseline="central">Document Session Server</text><text x="660" y="433" fill="#3c454d" font-size="10.8" text-anchor="middle" dominant-baseline="central">single authority/doc · ③ OT transform · revisions</text><rect x="920" y="327" width="180" height="66" rx="9" ry="9" fill="#fff" stroke="#0A6E80" stroke-width="1.7" filter="url(#sh)"></rect><path d="M920,353 V336 Q920,327 929,327 H1091 Q1100,327 1100,336 V353 Z" fill="#0C8599"></path><text x="1010" y="340.5" fill="#fff" font-weight="700" font-size="12.5" text-anchor="middle" dominant-baseline="central">Presence / Cursors</text><text x="1010" y="373" fill="#3c454d" font-size="10.8" text-anchor="middle" dominant-baseline="central">Redis</text><rect x="920" y="437" width="180" height="66" rx="9" ry="9" fill="#fff" stroke="#0A6E80" stroke-width="1.7" filter="url(#sh)"></rect><path d="M920,463 V446 Q920,437 929,437 H1091 Q1100,437 1100,446 V463 Z" fill="#0C8599"></path><text x="1010" y="450.5" fill="#fff" font-weight="700" font-size="12.5" text-anchor="middle" dominant-baseline="central">Snapshot / Assets</text><text x="1010" y="483" fill="#3c454d" font-size="10.8" text-anchor="middle" dominant-baseline="central">Amazon S3</text><rect x="254" y="589" width="252" height="66" rx="9" ry="9" fill="#fff" stroke="#0A6E80" stroke-width="1.7" filter="url(#sh)"></rect><path d="M254,615 V598 Q254,589 263,589 H497 Q506,589 506,598 V615 Z" fill="#0C8599"></path><text x="380" y="602.5" fill="#fff" font-weight="700" font-size="12.5" text-anchor="middle" dominant-baseline="central">Op Log</text><text x="380" y="635" fill="#3c454d" font-size="10.8" text-anchor="middle" dominant-baseline="central">Apache Kafka · append-only revisions</text><rect x="564" y="589" width="252" height="66" rx="9" ry="9" fill="#fff" stroke="#0A6E80" stroke-width="1.7" filter="url(#sh)"></rect><path d="M564,615 V598 Q564,589 573,589 H807 Q816,589 816,598 V615 Z" fill="#0C8599"></path><text x="690" y="602.5" fill="#fff" font-weight="700" font-size="12.5" text-anchor="middle" dominant-baseline="central">Document Store</text><text x="690" y="635" fill="#3c454d" font-size="10.8" text-anchor="middle" dominant-baseline="central">Spanner / Bigtable · snapshots</text></g><g><rect x="422.5" y="102" width="75" height="18" rx="9" ry="9" fill="#ffffff" stroke="#dde2e7" stroke-width="1"></rect><text x="460" y="111.5" fill="#27313a" font-size="10.8" font-weight="600" text-anchor="middle" dominant-baseline="central">edit (WSS)</text><rect x="416.4" y="214.5" width="87.19999999999999" height="18" rx="9" ry="9" fill="#ffffff" stroke="#dde2e7" stroke-width="1"></rect><text x="460" y="224" fill="#27313a" font-size="10.8" font-weight="600" text-anchor="middle" dominant-baseline="central">① edit (WSS)</text><rect x="244.2" y="348.5" width="111.6" height="18" rx="9" ry="9" fill="#ffffff" stroke="#dde2e7" stroke-width="1"></rect><text x="300" y="358" fill="#27313a" font-size="10.8" font-weight="600" text-anchor="middle" dominant-baseline="central">② route by docId</text><rect x="628.6" y="494" width="62.8" height="18" rx="9" ry="9" fill="#ffffff" stroke="#dde2e7" stroke-width="1"></rect><text x="660" y="503.5" fill="#27313a" font-size="10.8" font-weight="600" text-anchor="middle" dominant-baseline="central">④ append</text><rect x="637.5" y="551" width="75" height="18" rx="9" ry="9" fill="#ffffff" stroke="#dde2e7" stroke-width="1"></rect><text x="675" y="560.5" fill="#27313a" font-size="10.8" font-weight="600" text-anchor="middle" dominant-baseline="central">⑥ snapshot</text><rect x="842.6" y="381" width="62.8" height="18" rx="9" ry="9" fill="#ffffff" stroke="#dde2e7" stroke-width="1"></rect><text x="874" y="390.5" fill="#27313a" font-size="10.8" font-weight="600" text-anchor="middle" dominant-baseline="central">presence</text><rect x="848.7" y="436" width="50.599999999999994" height="18" rx="9" ry="9" fill="#ffffff" stroke="#dde2e7" stroke-width="1"></rect><text x="874" y="445.5" fill="#27313a" font-size="10.8" font-weight="600" text-anchor="middle" dominant-baseline="central">assets</text><rect x="408.3" y="355" width="99.39999999999999" height="18" rx="9" ry="9" fill="#ffffff" stroke="#dde2e7" stroke-width="1"></rect><text x="458" y="364.5" fill="#27313a" font-size="10.8" font-weight="600" text-anchor="middle" dominant-baseline="central">⑤ broadcast op</text></g><defs><filter id="sh" x="-20%" y="-20%" width="140%" height="140%"><feDropShadow dx="0" dy="1" stdDeviation="1.1" flood-color="#000" flood-opacity="0.13"></feDropShadow></filter></defs></svg>