<?xml version="1.0" encoding="UTF-8"?>
<svg id="diagram" viewBox="0 0 1000 712" xmlns="http://www.w3.org/2000/svg" width="1000" height="712"><rect x="0" y="0" width="1000" height="712" fill="#ffffff"></rect><g><rect x="206" y="124" width="352" height="544" rx="14" ry="14" fill="#f8fafc" stroke="#64748b" stroke-width="1.6" stroke-dasharray="7 5"></rect><rect x="220" y="101" width="102.80000000000001" height="22" rx="7" ry="7" fill="#475569"></rect><text x="271.4" y="112" fill="#fff" font-size="11.5" font-weight="700" text-anchor="middle" dominant-baseline="central">▢ Crawl Engine</text></g><g><path d="M380,84 L380,137" fill="none" stroke="#55606a" stroke-width="1.9" stroke-linejoin="round" stroke-linecap="round"></path><polygon points="380,137 376.12627569593405,128.32565506703307 383.8737243040659,128.32565506703307" fill="#55606a"></polygon><path d="M380,203 L380,280" fill="none" stroke="#55606a" stroke-width="1.9" stroke-linejoin="round" stroke-linecap="round"></path><polygon points="380,280 376.12627569593405,271.3256550670331 383.8737243040659,271.3256550670331" fill="#55606a"></polygon><path d="M530,312 L617,312 L617,290 L704,290" fill="none" stroke="#aab2bb" stroke-width="1.6" stroke-linejoin="round" stroke-linecap="round" stroke-dasharray="6 5"></path><polygon points="704,290 695.325655067033,293.87372430406595 695.325655067033,286.12627569593405" fill="#aab2bb"></polygon><path d="M530,312 L617,312 L617,352 L704,352" fill="none" stroke="#aab2bb" stroke-width="1.6" stroke-linejoin="round" stroke-linecap="round" stroke-dasharray="6 5"></path><polygon points="704,352 695.325655067033,355.87372430406595 695.325655067033,348.12627569593405" fill="#aab2bb"></polygon><path d="M380,344 L380,440" fill="none" stroke="#55606a" stroke-width="1.9" stroke-linejoin="round" stroke-linecap="round"></path><polygon points="380,440 376.12627569593405,431.3256550670331 383.8737243040659,431.3256550670331" fill="#55606a"></polygon><path d="M530,472 L617,472 L617,440 L704,440" fill="none" stroke="#aab2bb" stroke-width="1.6" stroke-linejoin="round" stroke-linecap="round" stroke-dasharray="6 5"></path><polygon points="704,440 695.325655067033,443.87372430406595 695.325655067033,436.12627569593405" fill="#aab2bb"></polygon><path d="M530,472 L617,472 L617,506 L704,506" fill="none" stroke="#55606a" stroke-width="1.9" stroke-linejoin="round" stroke-linecap="round"></path><polygon points="704,506 695.325655067033,509.87372430406595 695.325655067033,502.12627569593405" fill="#55606a"></polygon><path d="M530,472 L617,472 L617,568 L704,568" fill="none" stroke="#55606a" stroke-width="1.9" stroke-linejoin="round" stroke-linecap="round"></path><polygon points="704,568 695.325655067033,571.873724304066 695.325655067033,564.126275695934" fill="#55606a"></polygon><path d="M230,472 L160,472 L160,184 L220,184" fill="none" stroke="#55606a" stroke-width="1.9" stroke-linejoin="round" stroke-linecap="round"></path><polygon points="220,184 211.32565506703307,187.87372430406592 211.32565506703307,180.12627569593408" fill="#55606a"></polygon><path d="M230,620 L110,620 L110,156 L220,156" fill="none" stroke="#55606a" stroke-width="1.9" stroke-linejoin="round" stroke-linecap="round"></path><polygon points="220,156 211.32565506703307,159.87372430406592 211.32565506703307,152.12627569593408" fill="#55606a"></polygon></g><g><rect x="230" y="32" width="300" height="52" rx="9" ry="9" fill="#fff" stroke="#6c757d" stroke-width="1.7" filter="url(#sh)"></rect><path d="M230,55.92 V41 Q230,32 239,32 H521 Q530,32 530,41 V55.92 Z" fill="#6c757d"></path><text x="380" y="44.46" fill="#fff" font-weight="700" font-size="12.5" text-anchor="middle" dominant-baseline="central">Seed URLs / Sitemaps</text><text x="380" y="69.96000000000001" fill="#3c454d" font-size="10.8" text-anchor="middle" dominant-baseline="central">bootstrap set · sitemaps</text><rect x="220" y="137" width="320" height="66" rx="9" ry="9" fill="#fff" stroke="#0F5BB5" stroke-width="1.7" filter="url(#sh)"></rect><path d="M220,163 V146 Q220,137 229,137 H531 Q540,137 540,146 V163 Z" fill="#0078D4"></path><text x="380" y="150.5" fill="#fff" font-weight="700" font-size="12.5" text-anchor="middle" dominant-baseline="central">URL Frontier</text><text x="380" y="183" fill="#3c454d" font-size="10.8" text-anchor="middle" dominant-baseline="central">priority front + per-host back queues</text><rect x="230" y="280" width="300" height="64" rx="9" ry="9" fill="#fff" stroke="#0F5BB5" stroke-width="1.7" filter="url(#sh)"></rect><path d="M230,306 V289 Q230,280 239,280 H521 Q530,280 530,289 V306 Z" fill="#0078D4"></path><text x="380" y="293.5" fill="#fff" font-weight="700" font-size="12.5" text-anchor="middle" dominant-baseline="central">Fetcher Workers</text><text x="380" y="325" fill="#3c454d" font-size="10.8" text-anchor="middle" dominant-baseline="central">polite · rate-limited</text><rect x="230" y="440" width="300" height="64" rx="9" ry="9" fill="#fff" stroke="#0F5BB5" stroke-width="1.7" filter="url(#sh)"></rect><path d="M230,466 V449 Q230,440 239,440 H521 Q530,440 530,449 V466 Z" fill="#0078D4"></path><text x="380" y="453.5" fill="#fff" font-weight="700" font-size="12.5" text-anchor="middle" dominant-baseline="central">Parser / Extractor</text><text x="380" y="485" fill="#3c454d" font-size="10.8" text-anchor="middle" dominant-baseline="central">extract links · sim-hash</text><rect x="230" y="590" width="300" height="60" rx="9" ry="9" fill="#fff" stroke="#0F5BB5" stroke-width="1.7" filter="url(#sh)"></rect><path d="M230,616 V599 Q230,590 239,590 H521 Q530,590 530,599 V616 Z" fill="#0078D4"></path><text x="380" y="603.5" fill="#fff" font-weight="700" font-size="12.5" text-anchor="middle" dominant-baseline="central">Scheduler</text><text x="380" y="633" fill="#3c454d" font-size="10.8" text-anchor="middle" dominant-baseline="central">re-crawl / freshness</text><rect x="704" y="263" width="232" height="54" rx="9" ry="9" fill="#fff" stroke="#0A6E80" stroke-width="1.7" filter="url(#sh)"></rect><path d="M704,287.84 V272 Q704,263 713,263 H927 Q936,263 936,272 V287.84 Z" fill="#0C8599"></path><text x="820" y="275.92" fill="#fff" font-weight="700" font-size="12.5" text-anchor="middle" dominant-baseline="central">DNS Cache</text><text x="820" y="302.41999999999996" fill="#3c454d" font-size="10.8" text-anchor="middle" dominant-baseline="central">resolve + cache</text><rect x="704" y="325" width="232" height="54" rx="9" ry="9" fill="#fff" stroke="#0A6E80" stroke-width="1.7" filter="url(#sh)"></rect><path d="M704,349.84 V334 Q704,325 713,325 H927 Q936,325 936,334 V349.84 Z" fill="#0C8599"></path><text x="820" y="337.92" fill="#fff" font-weight="700" font-size="12.5" text-anchor="middle" dominant-baseline="central">Robots Cache</text><text x="820" y="364.41999999999996" fill="#3c454d" font-size="10.8" text-anchor="middle" dominant-baseline="central">Redis</text><rect x="704" y="411" width="232" height="58" rx="9" ry="9" fill="#fff" stroke="#0A6E80" stroke-width="1.7" filter="url(#sh)"></rect><path d="M704,437 V420 Q704,411 713,411 H927 Q936,411 936,420 V437 Z" fill="#0C8599"></path><text x="820" y="424.5" fill="#fff" font-weight="700" font-size="12.5" text-anchor="middle" dominant-baseline="central">Seen-URL Set</text><text x="820" y="453" fill="#3c454d" font-size="10.8" text-anchor="middle" dominant-baseline="central">Bloom filter (Redis)</text><rect x="704" y="479" width="232" height="54" rx="9" ry="9" fill="#fff" stroke="#0A6E80" stroke-width="1.7" filter="url(#sh)"></rect><path d="M704,503.84 V488 Q704,479 713,479 H927 Q936,479 936,488 V503.84 Z" fill="#0C8599"></path><text x="820" y="491.92" fill="#fff" font-weight="700" font-size="12.5" text-anchor="middle" dominant-baseline="central">Content Store</text><text x="820" y="518.42" fill="#3c454d" font-size="10.8" text-anchor="middle" dominant-baseline="central">S3 / Bigtable</text><rect x="704" y="544" width="232" height="48" rx="9" ry="9" fill="#fff" stroke="#0A6E80" stroke-width="1.7" filter="url(#sh)"></rect><path d="M704,566.08 V553 Q704,544 713,544 H927 Q936,544 936,553 V566.08 Z" fill="#0C8599"></path><text x="820" y="555.54" fill="#fff" font-weight="700" font-size="12.5" text-anchor="middle" dominant-baseline="central">Link Graph</text><text x="820" y="579.0400000000001" fill="#3c454d" font-size="10.8" text-anchor="middle" dominant-baseline="central">Bigtable</text></g><g><rect x="357.75" y="101.5" width="44.5" height="18" rx="9" ry="9" fill="#ffffff" stroke="#dde2e7" stroke-width="1"></rect><text x="380" y="111" fill="#27313a" font-size="10.8" font-weight="600" text-anchor="middle" dominant-baseline="central">seeds</text><rect x="333.35" y="232.5" width="93.3" height="18" rx="9" ry="9" fill="#ffffff" stroke="#dde2e7" stroke-width="1"></rect><text x="380" y="242" fill="#27313a" font-size="10.8" font-weight="600" text-anchor="middle" dominant-baseline="central">① dequeue URL</text><rect x="570.35" y="292" width="93.3" height="18" rx="9" ry="9" fill="#ffffff" stroke="#dde2e7" stroke-width="1"></rect><text x="617" y="301.5" fill="#27313a" font-size="10.8" font-weight="600" text-anchor="middle" dominant-baseline="central">② DNS resolve</text><rect x="573.4" y="323" width="87.19999999999999" height="18" rx="9" ry="9" fill="#ffffff" stroke="#dde2e7" stroke-width="1"></rect><text x="617" y="332.5" fill="#27313a" font-size="10.8" font-weight="600" text-anchor="middle" dominant-baseline="central">robots check</text><rect x="321.15" y="383" width="117.69999999999999" height="18" rx="9" ry="9" fill="#ffffff" stroke="#dde2e7" stroke-width="1"></rect><text x="380" y="392.5" fill="#27313a" font-size="10.8" font-weight="600" text-anchor="middle" dominant-baseline="central">③ fetch → ④ parse</text><rect x="561.2" y="447" width="111.6" height="18" rx="9" ry="9" fill="#ffffff" stroke="#dde2e7" stroke-width="1"></rect><text x="617" y="456.5" fill="#27313a" font-size="10.8" font-weight="600" text-anchor="middle" dominant-baseline="central">⑤ dedupe (Bloom)</text><rect x="573.4" y="480" width="87.19999999999999" height="18" rx="9" ry="9" fill="#ffffff" stroke="#dde2e7" stroke-width="1"></rect><text x="617" y="489.5" fill="#27313a" font-size="10.8" font-weight="600" text-anchor="middle" dominant-baseline="central">⑥ store page</text><rect x="594.75" y="511" width="44.5" height="18" rx="9" ry="9" fill="#ffffff" stroke="#dde2e7" stroke-width="1"></rect><text x="617" y="520.5" fill="#27313a" font-size="10.8" font-weight="600" text-anchor="middle" dominant-baseline="central">edges</text><rect x="116.4" y="319" width="87.19999999999999" height="18" rx="9" ry="9" fill="#ffffff" stroke="#dde2e7" stroke-width="1"></rect><text x="160" y="328.5" fill="#27313a" font-size="10.8" font-weight="600" text-anchor="middle" dominant-baseline="central">⑦ re-enqueue</text><rect x="78.6" y="379" width="62.8" height="18" rx="9" ry="9" fill="#ffffff" stroke="#dde2e7" stroke-width="1"></rect><text x="110" y="388.5" fill="#27313a" font-size="10.8" font-weight="600" text-anchor="middle" dominant-baseline="central">re-crawl</text></g><defs><filter id="sh" x="-20%" y="-20%" width="140%" height="140%"><feDropShadow dx="0" dy="1" stdDeviation="1.1" flood-color="#000" flood-opacity="0.13"></feDropShadow></filter></defs></svg>