<svg version="1.1" xmlns="http://www.w3.org/2000/svg" viewBox="0 0 1000 796" width="1000" height="796">
  <!-- svg-source:gen-whiteboards.js -->
  <defs><style class="style-fonts">
@font-face{font-family:"Virgil";src:url("https://unpkg.com/@excalidraw/excalidraw@0.17.6/dist//dist/excalidraw-assets/Virgil.woff2");}
</style></defs>
  <rect x="0" y="0" width="1000" height="796" fill="#ffffff"></rect>
  <text x="24" y="26" font-family="Virgil, Segoe UI Emoji" font-size="22px" fill="#1e1e1e" text-anchor="start" dominant-baseline="central" style="white-space:pre">Web Crawler (Googlebot) — how you'd draw it live on the whiteboard</text>
  <text x="24" y="58" font-family="Virgil, Segoe UI Emoji" font-size="13px" fill="#868e96" text-anchor="start" dominant-baseline="central" style="white-space:pre">green = client   ·   grey = edge / LB   ·   blue = service   ·   red = datastore   ·   orange = queue / stream   ·   violet = 3rd-party</text>
  <g transform="translate(0 84)"><g transform="translate(206 124)"><path d="M18 0 C123.18 -0.96, 226.93 -0.22, 333.97 -0.14 C343.9 0.75, 352.44 9.01, 352 18 C352.36 185.59, 351.21 353.5, 351.94 525.74 C352.79 535.26, 344.75 543.52, 334 544 C230.6 544.87, 124.54 543.99, 17.78 544.3 C7.4 544.33, 0.28 536.75, 0 526 C0.16 358.96, -0.71 191.58, 0.36 18.08 C-0.54 7.67, 8.64 0.68, 18 0" stroke="#495057" stroke-width="1.8" fill="none" stroke-linecap="round" stroke-dasharray="8 9"></path></g><path d="M380 84 C380.07 102.07, 379.19 120.04, 379.95 136.68" stroke="#1e1e1e" stroke-width="1.6" fill="none" stroke-linecap="round"></path><path d="M380 137 L375.51 126.96 M380 137 L384.49 126.96" stroke="#1e1e1e" stroke-width="1.6" fill="none" stroke-linecap="round"></path><path d="M380 203 C379.63 227.79, 379.93 253.77, 380.49 279.59" stroke="#1e1e1e" stroke-width="1.6" fill="none" stroke-linecap="round"></path><path d="M380 280 L375.51 269.96 M380 280 L384.49 269.96" stroke="#1e1e1e" stroke-width="1.6" fill="none" stroke-linecap="round"></path><path d="M530 312 C559.04 311.13, 587.53 311.74, 617.1 312.54 C617.82 305.55, 617.34 296.55, 616.48 290.24 C646.72 291.05, 674.17 289.2, 703.51 289.91" stroke="#1e1e1e" stroke-width="1.6" fill="none" stroke-linecap="round"></path><path d="M704 290 L693.96 294.49 M704 290 L693.96 285.51" stroke="#1e1e1e" stroke-width="1.6" fill="none" stroke-linecap="round"></path><path d="M530 312 C559.59 312.25, 588.52 312.26, 617.36 311.72 C616.35 325.08, 617.19 338.36, 617.32 351.57 C646.77 352.66, 675.42 352.36, 704.11 351.99" stroke="#1e1e1e" stroke-width="1.6" fill="none" stroke-linecap="round"></path><path d="M704 352 L693.96 356.49 M704 352 L693.96 347.51" stroke="#1e1e1e" stroke-width="1.6" fill="none" stroke-linecap="round"></path><path d="M380 344 C379.35 375.73, 380.61 408.31, 380.33 440.46" stroke="#1e1e1e" stroke-width="1.6" fill="none" stroke-linecap="round"></path><path d="M380 440 L375.51 429.96 M380 440 L384.49 429.96" stroke="#1e1e1e" stroke-width="1.6" fill="none" stroke-linecap="round"></path><path d="M530 472 C559.67 472.92, 587.4 471.06, 616.57 471.89 C616.91 461.12, 617.73 449.83, 617.48 440.16 C646.33 438.95, 674.06 441.01, 703.67 439.57" stroke="#1e1e1e" stroke-width="1.6" fill="none" stroke-linecap="round"></path><path d="M704 440 L693.96 444.49 M704 440 L693.96 435.51" stroke="#1e1e1e" stroke-width="1.6" fill="none" stroke-linecap="round"></path><path d="M530 472 C559.31 471.86, 586.85 472.56, 617.2 472.27 C616.34 482.72, 617.28 494.67, 617.24 505.87 C644.63 506.37, 674.89 506.08, 704.36 506.01" stroke="#1e1e1e" stroke-width="1.6" fill="none" stroke-linecap="round"></path><path d="M704 506 L693.96 510.49 M704 506 L693.96 501.51" stroke="#1e1e1e" stroke-width="1.6" fill="none" stroke-linecap="round"></path><path d="M530 472 C559.55 472.39, 586.42 472.67, 616.59 472.15 C617.24 503.24, 616.37 536.23, 616.95 567.52 C646.39 568.57, 674.54 568.4, 704.31 567.51" stroke="#1e1e1e" stroke-width="1.6" fill="none" stroke-linecap="round"></path><path d="M704 568 L693.96 572.49 M704 568 L693.96 563.51" stroke="#1e1e1e" stroke-width="1.6" fill="none" stroke-linecap="round"></path><path d="M230 472 C206.62 471.45, 183.46 470.93, 159.96 472.17 C160.62 376.53, 160.61 282.03, 160.2 183.85 C180.56 184.12, 198.95 183.16, 219.93 184.19" stroke="#1e1e1e" stroke-width="1.6" fill="none" stroke-linecap="round"></path><path d="M220 184 L209.96 188.49 M220 184 L209.96 179.51" stroke="#1e1e1e" stroke-width="1.6" fill="none" stroke-linecap="round"></path><path d="M230 620 C190.47 620.88, 151.38 619.13, 110.08 619.87 C110.63 466.53, 109.79 313.02, 109.94 156.04 C145.92 155.75, 182.46 155.08, 220.11 156.17" stroke="#1e1e1e" stroke-width="1.6" fill="none" stroke-linecap="round"></path><path d="M220 156 L209.96 160.49 M220 156 L209.96 151.51" stroke="#1e1e1e" stroke-width="1.6" fill="none" stroke-linecap="round"></path><g transform="translate(230 32)"><path d="M16 0 C103.9 0.03, 192.61 -0.04, 284.23 -0.3 C292.51 0.15, 300.57 6.97, 300 16 C300.42 22.57, 300.47 29.66, 300.1 36.17 C300.03 44.78, 292.43 51.58, 284 52 C195.56 51.48, 107.01 51.66, 15.89 51.95 C7.34 51.44, 0.46 44.71, 0 36 C0.31 29.29, -0.07 22.36, -0.18 15.96 C-0.41 7.66, 7.08 -0.43, 16 0 Z" stroke="none" fill="#b2f2bb"></path><path d="M16 0 C103.04 -1.14, 194.16 0.24, 284.63 -0.3 C294.19 0.26, 299.07 7.92, 300 16 C301.23 22.07, 299.5 28.68, 299.86 35.37 C301.08 45.88, 293.15 51.33, 284 52 C194.96 53, 106.86 52.69, 15.71 51.32 C6.08 50.96, 1.22 44.19, 0 36 C0.15 29.47, -1.28 22.75, 0.36 16.06 C1.39 7.15, 6.61 0.77, 16 0 M16 0 C104.63 1.37, 192.29 -0.28, 284.48 0.09 C291.78 1.1, 300.55 8.07, 300 16 C299.22 23.07, 299.84 30.43, 299.88 35.49 C299.86 46.06, 292.95 52.74, 284 52 C194.35 51.93, 106.37 53.32, 15.33 52.06 C7.48 51.4, -0.03 44.49, 0 36 C-0.55 29.69, 0.96 22.58, 0.2 16.27 C1.06 6.07, 7.28 -0.7, 16 0" stroke="#2f9e44" stroke-width="1.7" fill="none" stroke-linecap="round"></path></g><text x="380" y="49" font-family="Virgil, Segoe UI Emoji" font-size="15px" fill="#1e1e1e" text-anchor="middle" dominant-baseline="central" style="white-space:pre">Seed URLs / Sitemaps</text><text x="380" y="68" font-family="Virgil, Segoe UI Emoji" font-size="12px" fill="#495057" text-anchor="middle" dominant-baseline="central" style="white-space:pre">bootstrap set · sitemaps</text><g transform="translate(220 137)"><path d="M16 0 C111.44 -0.14, 206.64 -0.19, 303.73 -0.1 C313.2 0.02, 319.96 7.4, 320 16 C320.28 27.75, 320.34 37.92, 319.78 50.24 C320.37 59.28, 312.47 66.51, 304 66 C209.31 66.18, 113.83 66.12, 16.22 65.74 C6.96 66.27, -0.54 58.69, 0 50 C0.39 38.41, -0.5 27.81, 0.13 16.22 C0.12 7.12, 6.62 0.3, 16 0 Z" stroke="none" fill="#a5d8ff"></path><path d="M16 0 C109.88 -0.75, 206.14 -0.08, 303.74 -0.32 C313.44 -0.07, 319.08 6.11, 320 16 C321.4 27.24, 319.74 39.12, 320.12 50.14 C320.47 58.99, 311.79 64.61, 304 66 C208.62 67, 113.1 64.62, 16.3 65.4 C8.12 65.26, -0.35 59.6, 0 50 C-0.41 40.03, -0.72 26.19, -0.65 15.96 C1.02 8.55, 7.59 0.63, 16 0 M16 0 C111.83 0.93, 205.33 0.45, 304.23 0.43 C312.9 -0.56, 320.72 8.43, 320 16 C319.8 26.72, 319.13 38.04, 320.32 50.04 C319.06 59.51, 313.39 66.62, 304 66 C209.8 67.1, 115.14 66.9, 15.47 66.14 C8.12 66.43, -0.36 58.86, 0 50 C-0.01 38.19, 1.29 27.11, -0.22 16.3 C-0.34 7.71, 7.6 0.87, 16 0" stroke="#1971c2" stroke-width="1.7" fill="none" stroke-linecap="round"></path></g><text x="380" y="161" font-family="Virgil, Segoe UI Emoji" font-size="15px" fill="#1e1e1e" text-anchor="middle" dominant-baseline="central" style="white-space:pre">URL Frontier</text><text x="380" y="180" font-family="Virgil, Segoe UI Emoji" font-size="12px" fill="#495057" text-anchor="middle" dominant-baseline="central" style="white-space:pre">priority front + per-host back queues</text><g transform="translate(230 280)"><path d="M16 0 C104.86 0.07, 193.12 -0.24, 283.72 -0.05 C292.57 -0.18, 300.58 7.19, 300 16 C300.41 26.14, 299.8 37.5, 299.96 47.85 C300.37 56.66, 292.94 64.11, 284 64 C195.84 64.31, 107.41 63.65, 16.07 64.28 C6.98 64.34, -0.22 57, 0 48 C-0.4 37.85, -0.26 27.22, 0.09 16.27 C0.3 7.12, 7.69 -0.54, 16 0 Z" stroke="none" fill="#a5d8ff"></path><path d="M16 0 C103.27 -1.16, 192.83 0.07, 283.66 -0.11 C292.5 -0.6, 299.22 7.23, 300 16 C300.08 27.15, 299.6 35.74, 300.41 48.3 C300.07 55.58, 291.72 63.5, 284 64 C194.72 64.76, 107.08 63.79, 15.75 64.06 C8.13 63.93, 0.82 57.39, 0 48 C-0.19 36.93, 0.96 27.45, -0.05 16.49 C-0.24 7.13, 6.29 -1.13, 16 0 M16 0 C105.62 0.17, 192.2 0.12, 284.62 0.33 C292.89 -1.14, 299.53 7.65, 300 16 C298.98 26.04, 300.92 36.12, 299.55 48.45 C300.49 56.65, 293.06 63.26, 284 64 C194.39 63.4, 105.99 64.46, 16.31 64.59 C8.12 63.57, -0.21 56.1, 0 48 C1.31 38.16, 1.17 27.27, 0.58 16.28 C0.89 5.87, 7.9 0.7, 16 0" stroke="#1971c2" stroke-width="1.7" fill="none" stroke-linecap="round"></path></g><text x="380" y="303" font-family="Virgil, Segoe UI Emoji" font-size="15px" fill="#1e1e1e" text-anchor="middle" dominant-baseline="central" style="white-space:pre">Fetcher Workers</text><text x="380" y="322" font-family="Virgil, Segoe UI Emoji" font-size="12px" fill="#495057" text-anchor="middle" dominant-baseline="central" style="white-space:pre">polite · rate-limited</text><g transform="translate(230 440)"><path d="M16 0 C104.11 0.48, 192.68 0, 284.19 -0.27 C292.95 -0.49, 300.2 7.06, 300 16 C300.3 27.07, 300.58 37.3, 299.95 47.83 C299.56 57.39, 293.07 63.86, 284 64 C195.09 63.42, 106.82 63.63, 16.08 64.02 C7.42 63.95, -0.54 56.32, 0 48 C-0.4 37.3, -0.31 27.24, 0.1 15.74 C-0.6 7.2, 7.28 0.5, 16 0 Z" stroke="none" fill="#a5d8ff"></path><path d="M16 0 C103.2 1.24, 191.98 -1.02, 283.92 -0.35 C293.88 0.76, 300.17 7.8, 300 16 C298.73 25.76, 299.3 37.34, 300.51 47.9 C301.06 58.01, 293.91 64.38, 284 64 C196.06 63.18, 106.75 64.16, 15.58 63.9 C5.83 65.13, -1.17 57.57, 0 48 C-1.28 38.65, -0.43 25.49, 0.25 16.14 C-0.3 7.56, 6.53 1.24, 16 0 M16 0 C103.59 0.53, 192.78 -0.19, 284.32 0.34 C291.42 -0.35, 298.84 5.82, 300 16 C300 25.3, 299.51 37.03, 299.84 48.58 C299.87 56.47, 292.27 65.18, 284 64 C195.21 65.3, 106.69 63.76, 16.28 64.35 C7.8 63.75, 0.2 57.9, 0 48 C-1.21 36.68, -0.63 27.32, 0.15 15.55 C0.94 7.94, 7.73 0.48, 16 0" stroke="#1971c2" stroke-width="1.7" fill="none" stroke-linecap="round"></path></g><text x="380" y="463" font-family="Virgil, Segoe UI Emoji" font-size="15px" fill="#1e1e1e" text-anchor="middle" dominant-baseline="central" style="white-space:pre">Parser / Extractor</text><text x="380" y="482" font-family="Virgil, Segoe UI Emoji" font-size="12px" fill="#495057" text-anchor="middle" dominant-baseline="central" style="white-space:pre">extract links · sim-hash</text><g transform="translate(230 590)"><path d="M16 0 C104.67 0.16, 193.26 -0.03, 284.18 -0.08 C293.29 0.58, 300.46 7.8, 300 16 C300.17 25.68, 300 35.05, 300.16 43.79 C299.51 53.02, 292.57 60.21, 284 60 C195.97 60.33, 107.67 59.48, 16.2 59.84 C6.92 60.09, -0.51 53.32, 0 44 C0.46 34.43, 0.59 26.1, -0.07 16.02 C0.26 7.32, 7.12 -0.03, 16 0 Z" stroke="none" fill="#a5d8ff"></path><path d="M16 0 C104.62 0.08, 193.65 0.17, 283.64 -0.24 C292.18 -1.25, 300.79 8.08, 300 16 C301.36 24.34, 300.7 35.35, 299.55 43.4 C299.21 51.93, 292.79 60.92, 284 60 C196.04 60.78, 106.5 58.94, 16.53 60.05 C6.84 61.13, 1.04 53.01, 0 44 C-1.18 35.45, -0.1 25.87, -0.39 16.25 C-0.56 7.93, 6.52 0.29, 16 0 M16 0 C103.06 -0.94, 193.02 -0.67, 283.38 -0.21 C292.67 1.02, 301.21 7.52, 300 16 C300.72 25.64, 301.28 35.12, 300.13 43.65 C299.71 53, 292.42 60.07, 284 60 C194.9 59.2, 106.01 59.99, 15.66 60.04 C7.41 59, 0.69 53.95, 0 44 C1.16 34.85, 0.98 25.05, -0.06 16.43 C-0.3 7.55, 7.92 1.01, 16 0" stroke="#1971c2" stroke-width="1.7" fill="none" stroke-linecap="round"></path></g><text x="380" y="611" font-family="Virgil, Segoe UI Emoji" font-size="15px" fill="#1e1e1e" text-anchor="middle" dominant-baseline="central" style="white-space:pre">Scheduler</text><text x="380" y="630" font-family="Virgil, Segoe UI Emoji" font-size="12px" fill="#495057" text-anchor="middle" dominant-baseline="central" style="white-space:pre">re-crawl / freshness</text><g transform="translate(704 263)"><path d="M16 0 C82.51 -0.6, 147.67 0.06, 215.89 0.21 C225.11 -0.16, 232.29 7.39, 232 16 C232.41 23.8, 232.01 30.23, 232.26 37.94 C232.2 47.33, 224.48 53.62, 216 54 C149.77 53.86, 83.79 53.41, 16.17 53.73 C7.48 54.12, -0.26 46.88, 0 38 C0.48 30.45, -0.25 23.09, -0.23 16.01 C-0.17 6.71, 7.61 0.25, 16 0 Z" stroke="none" fill="#ffc9c9"></path><path d="M16 0 C82.97 0.23, 147.66 -0.9, 216.25 0.15 C225.04 -0.35, 231.67 6.85, 232 16 C232.4 23.82, 232.16 31.36, 231.77 37.85 C232.83 45.56, 225.5 54.35, 216 54 C150.98 54.61, 84.4 54.09, 16.4 54.11 C7.26 52.83, 0.84 47.58, 0 38 C-1.31 29.87, 1.3 24.28, -0.61 15.64 C1.1 7.6, 7.55 0.91, 16 0 M16 0 C80.74 0.97, 147.4 -1.04, 216.6 -0.35 C224.45 -0.63, 232.61 7.36, 232 16 C232.7 21.94, 232.69 29.64, 231.75 38.51 C230.75 46.17, 226.13 54.84, 216 54 C151.3 52.62, 84.25 55.03, 16.12 54.63 C8.07 55.01, 0.46 46.6, 0 38 C-0.72 29.62, -0.52 23.09, 0.19 16.33 C-0.77 7.02, 7.51 1.34, 16 0" stroke="#e03131" stroke-width="1.7" fill="none" stroke-linecap="round"></path></g><text x="820" y="281" font-family="Virgil, Segoe UI Emoji" font-size="15px" fill="#1e1e1e" text-anchor="middle" dominant-baseline="central" style="white-space:pre">DNS Cache</text><text x="820" y="300" font-family="Virgil, Segoe UI Emoji" font-size="12px" fill="#495057" text-anchor="middle" dominant-baseline="central" style="white-space:pre">resolve + cache</text><g transform="translate(704 325)"><path d="M16 0 C81.89 0.28, 148.09 -0.45, 216.17 -0.07 C224.36 -0.07, 231.44 7.37, 232 16 C232.21 23.18, 231.88 29.92, 231.83 37.99 C232.48 46.32, 224.33 53.86, 216 54 C149.95 54.08, 83.5 54.38, 16.05 54.07 C6.82 54.22, 0.44 46.64, 0 38 C-0.2 31.33, 0.54 22.98, -0.12 15.87 C-0.05 6.81, 6.63 -0.32, 16 0 Z" stroke="none" fill="#ffc9c9"></path><path d="M16 0 C82.82 0.69, 147.45 -0.75, 216.56 -0.46 C224.86 0.44, 230.99 7.66, 232 16 C230.71 23.36, 233.13 29.54, 231.87 37.9 C231 47.6, 224.04 52.96, 216 54 C151.33 54.27, 84.53 55.31, 15.7 53.8 C6.18 52.81, -0.87 45.78, 0 38 C0.36 31.66, -1.27 23.99, 0.68 15.95 C0.55 6.1, 8.04 1, 16 0 M16 0 C80.72 -0.57, 149.37 1.39, 216.58 0.05 C225.36 -0.04, 231.79 7.2, 232 16 C232.29 22.41, 231.84 30.27, 231.36 37.43 C232.05 45.4, 223.64 53.34, 216 54 C150.98 52.68, 84.18 55.31, 15.59 54.14 C6.39 55.23, -0.97 47.49, 0 38 C1.27 31.21, 1.14 23.44, -0.34 16.36 C0.85 6.88, 5.94 1.02, 16 0" stroke="#e03131" stroke-width="1.7" fill="none" stroke-linecap="round"></path></g><text x="820" y="343" font-family="Virgil, Segoe UI Emoji" font-size="15px" fill="#1e1e1e" text-anchor="middle" dominant-baseline="central" style="white-space:pre">Robots Cache</text><text x="820" y="362" font-family="Virgil, Segoe UI Emoji" font-size="12px" fill="#495057" text-anchor="middle" dominant-baseline="central" style="white-space:pre">Redis</text><g transform="translate(704 411)"><path d="M16 0 C82.16 -0.35, 147.83 -0.22, 215.96 -0.03 C224.47 -0.29, 232.22 7.61, 232 16 C232.58 24.44, 231.65 32.89, 232.03 42.26 C232.38 50.8, 224.65 57.91, 216 58 C150.47 57.98, 83.43 57.66, 15.89 57.71 C7.48 57.96, 0.4 50.45, 0 42 C0.09 33.14, 0.19 24.72, -0.26 15.87 C0.37 7.3, 7.28 0.42, 16 0 Z" stroke="none" fill="#ffc9c9"></path><path d="M16 0 C82.17 1.39, 149.35 -0.32, 215.99 0.51 C224.29 -0.98, 230.71 8.31, 232 16 C231.79 25.81, 231.71 32.8, 232.03 42.19 C230.71 51.87, 223.86 56.61, 216 58 C149.34 56.95, 85.08 58.36, 16.13 58.52 C8.2 57.92, -1.33 49.64, 0 42 C0.55 32.25, -0.56 24.86, 0.55 16.1 C0.59 7.96, 7.8 1.06, 16 0 M16 0 C82.53 1.38, 147.42 0.24, 216.54 -0.62 C223.41 -1.2, 231.48 6.91, 232 16 C232.63 24.41, 231.34 33.89, 232.41 42.33 C231.96 50.66, 225.89 59.2, 216 58 C150.33 58.06, 84.8 59.37, 15.67 58.19 C7.85 56.71, -0.74 49.74, 0 42 C0.8 33.11, -1.4 24.88, -0.33 16.35 C0.68 6.15, 5.98 1.39, 16 0" stroke="#e03131" stroke-width="1.7" fill="none" stroke-linecap="round"></path></g><text x="820" y="431" font-family="Virgil, Segoe UI Emoji" font-size="15px" fill="#1e1e1e" text-anchor="middle" dominant-baseline="central" style="white-space:pre">Seen-URL Set</text><text x="820" y="450" font-family="Virgil, Segoe UI Emoji" font-size="12px" fill="#495057" text-anchor="middle" dominant-baseline="central" style="white-space:pre">Bloom filter (Redis)</text><g transform="translate(704 479)"><path d="M16 0 C81.68 -0.36, 148.52 -0.16, 216.07 0.27 C224.95 0.07, 232.43 7.06, 232 16 C231.58 22.98, 231.41 30.02, 232.27 37.9 C231.46 47.17, 224.22 53.83, 216 54 C150.09 54.33, 84.11 53.86, 15.95 54.07 C7.23 53.59, 0.15 46.99, 0 38 C-0.31 30.89, 0.23 23.27, -0.05 15.85 C0.36 7.35, 7.63 -0.22, 16 0 Z" stroke="none" fill="#ffc9c9"></path><path d="M16 0 C81.4 -0.2, 148.63 -1.33, 215.69 -0.63 C225 0.82, 231.55 6.57, 232 16 C233.27 21.88, 231.5 30.39, 232.7 38.26 C231.38 46.53, 224.76 52.69, 216 54 C149.58 53.89, 84.02 55.35, 16.28 54.08 C8.45 52.77, 0.98 47.65, 0 38 C0.96 31.67, 0.19 22.48, 0.47 16.57 C0.81 7.41, 7.15 -0.98, 16 0 M16 0 C83.35 1.39, 149.09 0.11, 216.65 -0.68 C224.04 -1.02, 231.96 7.08, 232 16 C230.63 24.22, 231.91 29.16, 231.41 38.64 C231.58 47.43, 225.12 54.49, 216 54 C150.84 54.32, 82.66 55.26, 15.89 54.63 C6.84 54.39, 0.45 46.71, 0 38 C0.12 31.09, 1.17 22.49, 0.16 15.82 C-0.02 7.78, 8.12 0.4, 16 0" stroke="#e03131" stroke-width="1.7" fill="none" stroke-linecap="round"></path></g><text x="820" y="497" font-family="Virgil, Segoe UI Emoji" font-size="15px" fill="#1e1e1e" text-anchor="middle" dominant-baseline="central" style="white-space:pre">Content Store</text><text x="820" y="516" font-family="Virgil, Segoe UI Emoji" font-size="12px" fill="#495057" text-anchor="middle" dominant-baseline="central" style="white-space:pre">S3 / Bigtable</text><g transform="translate(704 544)"><path d="M16 0 C81.49 -0.35, 147.49 0.48, 215.93 -0.27 C224.94 0.33, 231.92 7.45, 232 16 C231.53 21.51, 231.44 26.44, 231.9 31.99 C232.37 40.71, 224.32 47.82, 216 48 C149.51 47.95, 83.68 48.43, 15.71 47.75 C7.45 47.74, -0.27 40.64, 0 32 C-0.52 26.81, 0.37 21.57, 0.06 16.07 C-0.27 7.46, 6.65 0.36, 16 0 Z" stroke="none" fill="#ffc9c9"></path><path d="M16 0 C81.06 0.42, 148.5 0.4, 216.43 0.53 C225.59 0.92, 232.28 5.86, 232 16 C232.2 22.67, 232.04 27, 232.41 32.15 C231.84 39.75, 225.55 48.81, 216 48 C149.67 49.07, 84.04 48.2, 15.83 48.27 C6 49.13, 1.38 41.69, 0 32 C-0.38 26.06, -0.29 21.56, 0.23 15.69 C-0.93 6.11, 7.3 -0.86, 16 0 M16 0 C81.62 -1.3, 146.82 1.09, 215.87 0.5 C223.85 0.88, 232.97 7.9, 232 16 C231.37 20.08, 232.72 27.22, 231.86 31.42 C232.1 39.48, 224.23 47.28, 216 48 C150.03 47.61, 82.98 48.68, 15.35 48.2 C6.13 47.74, 0.79 41.97, 0 32 C1.09 27.41, -0.29 21.6, -0.54 16.17 C-0.37 6.08, 6.98 0.77, 16 0" stroke="#e03131" stroke-width="1.7" fill="none" stroke-linecap="round"></path></g><text x="820" y="559" font-family="Virgil, Segoe UI Emoji" font-size="15px" fill="#1e1e1e" text-anchor="middle" dominant-baseline="central" style="white-space:pre">Link Graph</text><text x="820" y="578" font-family="Virgil, Segoe UI Emoji" font-size="12px" fill="#495057" text-anchor="middle" dominant-baseline="central" style="white-space:pre">Bigtable</text><rect x="219" y="115" width="88" height="18" fill="#ffffff" stroke="none"></rect><text x="224" y="124" font-family="Virgil, Segoe UI Emoji" font-size="12.5px" fill="#495057" text-anchor="start" dominant-baseline="central" style="white-space:pre">Crawl Engine</text><rect x="361.05" y="101.5" width="37.9" height="18" rx="6" ry="6" fill="#ffffff" fill-opacity="0.82" stroke="none"></rect><text x="380" y="110.5" font-family="Virgil, Segoe UI Emoji" font-size="11.5px" fill="#27313a" text-anchor="middle" dominant-baseline="central" style="white-space:pre">seeds</text><rect x="337.13" y="232.5" width="85.74" height="18" rx="6" ry="6" fill="#ffffff" fill-opacity="0.82" stroke="none"></rect><text x="380" y="241.5" font-family="Virgil, Segoe UI Emoji" font-size="11.5px" fill="#27313a" text-anchor="middle" dominant-baseline="central" style="white-space:pre">① dequeue URL</text><rect x="574.13" y="292" width="85.74" height="18" rx="6" ry="6" fill="#ffffff" fill-opacity="0.82" stroke="none"></rect><text x="617" y="301" font-family="Virgil, Segoe UI Emoji" font-size="11.5px" fill="#27313a" text-anchor="middle" dominant-baseline="central" style="white-space:pre">② DNS resolve</text><rect x="577.12" y="323" width="79.76" height="18" rx="6" ry="6" fill="#ffffff" fill-opacity="0.82" stroke="none"></rect><text x="617" y="332" font-family="Virgil, Segoe UI Emoji" font-size="11.5px" fill="#27313a" text-anchor="middle" dominant-baseline="central" style="white-space:pre">robots check</text><rect x="325.17" y="383" width="109.66" height="18" rx="6" ry="6" fill="#ffffff" fill-opacity="0.82" stroke="none"></rect><text x="380" y="392" font-family="Virgil, Segoe UI Emoji" font-size="11.5px" fill="#27313a" text-anchor="middle" dominant-baseline="central" style="white-space:pre">③ fetch → ④ parse</text><rect x="565.16" y="447" width="103.68" height="18" rx="6" ry="6" fill="#ffffff" fill-opacity="0.82" stroke="none"></rect><text x="617" y="456" font-family="Virgil, Segoe UI Emoji" font-size="11.5px" fill="#27313a" text-anchor="middle" dominant-baseline="central" style="white-space:pre">⑤ dedupe (Bloom)</text><rect x="577.12" y="480" width="79.76" height="18" rx="6" ry="6" fill="#ffffff" fill-opacity="0.82" stroke="none"></rect><text x="617" y="489" font-family="Virgil, Segoe UI Emoji" font-size="11.5px" fill="#27313a" text-anchor="middle" dominant-baseline="central" style="white-space:pre">⑥ store page</text><rect x="598.05" y="511" width="37.9" height="18" rx="6" ry="6" fill="#ffffff" fill-opacity="0.82" stroke="none"></rect><text x="617" y="520" font-family="Virgil, Segoe UI Emoji" font-size="11.5px" fill="#27313a" text-anchor="middle" dominant-baseline="central" style="white-space:pre">edges</text><rect x="120.12" y="319" width="79.76" height="18" rx="6" ry="6" fill="#ffffff" fill-opacity="0.82" stroke="none"></rect><text x="160" y="328" font-family="Virgil, Segoe UI Emoji" font-size="11.5px" fill="#27313a" text-anchor="middle" dominant-baseline="central" style="white-space:pre">⑦ re-enqueue</text><rect x="82.08" y="379" width="55.84" height="18" rx="6" ry="6" fill="#ffffff" fill-opacity="0.82" stroke="none"></rect><text x="110" y="388" font-family="Virgil, Segoe UI Emoji" font-size="11.5px" fill="#27313a" text-anchor="middle" dominant-baseline="central" style="white-space:pre">re-crawl</text></g>
</svg>
