<?xml version="1.0" encoding="UTF-8"?>
<svg id="diagram" viewBox="0 0 1160 600" xmlns="http://www.w3.org/2000/svg" width="1160" height="600"><rect x="0" y="0" width="1160" height="600" fill="#ffffff"></rect><g><rect x="435" y="170" width="670" height="148" rx="14" ry="14" fill="#f8fafc" stroke="#64748b" stroke-width="1.6" stroke-dasharray="7 5"></rect><rect x="449" y="147" width="109.2" height="22" rx="7" ry="7" fill="#475569"></rect><text x="503.6" y="158" fill="#fff" font-size="11.5" font-weight="700" text-anchor="middle" dominant-baseline="central">▢ Cache Cluster</text></g><g><path d="M250,131 L250,195 L600,195 L600,224" fill="none" stroke="#55606a" stroke-width="1.9" stroke-linejoin="round" stroke-linecap="round"></path><polygon points="600,224 596.126275695934,215.32565506703307 603.873724304066,215.32565506703307" fill="#55606a"></polygon><path d="M450,255 L432,255 L432,100 L415,100" fill="none" stroke="#55606a" stroke-width="1.9" stroke-linejoin="round" stroke-linecap="round"></path><polygon points="415,100 423.6743449329669,96.12627569593408 423.6743449329669,103.87372430406592" fill="#55606a"></polygon><path d="M600,286 L600,400 L440,400 L440,464" fill="none" stroke="#55606a" stroke-width="1.9" stroke-linejoin="round" stroke-linecap="round"></path><polygon points="440,464 436.12627569593405,455.3256550670331 443.8737243040659,455.3256550670331" fill="#55606a"></polygon><path d="M600,286 L600,362 L870,362 L870,464" fill="none" stroke="#aab2bb" stroke-width="1.6" stroke-linejoin="round" stroke-linecap="round" stroke-dasharray="6 5"></path><polygon points="870,464 866.126275695934,455.3256550670331 873.873724304066,455.3256550670331" fill="#aab2bb"></polygon><path d="M810,255 L750,255" fill="none" stroke="#aab2bb" stroke-width="1.6" stroke-linejoin="round" stroke-linecap="round" stroke-dasharray="6 5"></path><polygon points="750,255 758.674344932967,251.12627569593408 758.674344932967,258.8737243040659" fill="#aab2bb"></polygon></g><g><rect x="85" y="69" width="330" height="62" rx="9" ry="9" fill="#fff" stroke="#6c757d" stroke-width="1.7" filter="url(#sh)"></rect><path d="M85,95 V78 Q85,69 94,69 H406 Q415,69 415,78 V95 Z" fill="#6c757d"></path><text x="250" y="82.5" fill="#fff" font-weight="700" font-size="12.5" text-anchor="middle" dominant-baseline="central">App servers (client lib)</text><text x="250" y="113" fill="#3c454d" font-size="10.8" text-anchor="middle" dominant-baseline="central">cache client · hash(key) → ring node</text><rect x="450" y="224" width="300" height="62" rx="9" ry="9" fill="#fff" stroke="#0F5BB5" stroke-width="1.7" filter="url(#sh)"></rect><path d="M450,250 V233 Q450,224 459,224 H741 Q750,224 750,233 V250 Z" fill="#0078D4"></path><text x="600" y="237.5" fill="#fff" font-weight="700" font-size="12.5" text-anchor="middle" dominant-baseline="central">Cache Nodes</text><text x="600" y="268" fill="#3c454d" font-size="10.8" text-anchor="middle" dominant-baseline="central">consistent-hash ring + vnodes</text><rect x="810" y="224" width="290" height="62" rx="9" ry="9" fill="#fff" stroke="#0F5BB5" stroke-width="1.7" filter="url(#sh)"></rect><path d="M810,250 V233 Q810,224 819,224 H1091 Q1100,224 1100,233 V250 Z" fill="#0078D4"></path><text x="955" y="237.5" fill="#fff" font-weight="700" font-size="12.5" text-anchor="middle" dominant-baseline="central">Cluster Manager</text><text x="955" y="268" fill="#3c454d" font-size="10.8" text-anchor="middle" dominant-baseline="central">Redis Sentinel / Cluster · failover</text><rect x="290" y="464" width="300" height="62" rx="9" ry="9" fill="#fff" stroke="#0A6E80" stroke-width="1.7" filter="url(#sh)"></rect><path d="M290,490 V473 Q290,464 299,464 H581 Q590,464 590,473 V490 Z" fill="#0C8599"></path><text x="440" y="477.5" fill="#fff" font-weight="700" font-size="12.5" text-anchor="middle" dominant-baseline="central">Backing DB</text><text x="440" y="508" fill="#3c454d" font-size="10.8" text-anchor="middle" dominant-baseline="central">system of record · source on miss</text><rect x="740" y="464" width="260" height="62" rx="9" ry="9" fill="#fff" stroke="#0A6E80" stroke-width="1.7" filter="url(#sh)"></rect><path d="M740,490 V473 Q740,464 749,464 H991 Q1000,464 1000,473 V490 Z" fill="#0C8599"></path><text x="870" y="477.5" fill="#fff" font-weight="700" font-size="12.5" text-anchor="middle" dominant-baseline="central">Replicas</text><text x="870" y="508" fill="#3c454d" font-size="10.8" text-anchor="middle" dominant-baseline="central">primary → replica per shard</text></g><g><rect x="175.9" y="154" width="148.2" height="18" rx="9" ry="9" fill="#ffffff" stroke="#dde2e7" stroke-width="1"></rect><text x="250" y="163.5" fill="#27313a" font-size="10.8" font-weight="600" text-anchor="middle" dominant-baseline="central">① get(key) · hash→ring</text><rect x="382.3" y="168.5" width="99.39999999999999" height="18" rx="9" ry="9" fill="#ffffff" stroke="#dde2e7" stroke-width="1"></rect><text x="432" y="178" fill="#27313a" font-size="10.8" font-weight="600" text-anchor="middle" dominant-baseline="central">② hit → return</text><rect x="544.2" y="334" width="111.6" height="18" rx="9" ry="9" fill="#ffffff" stroke="#dde2e7" stroke-width="1"></rect><text x="600" y="343.5" fill="#27313a" font-size="10.8" font-weight="600" text-anchor="middle" dominant-baseline="central">③ miss → load DB</text><rect x="670.05" y="353" width="129.89999999999998" height="18" rx="9" ry="9" fill="#ffffff" stroke="#dde2e7" stroke-width="1"></rect><text x="735" y="362.5" fill="#27313a" font-size="10.8" font-weight="600" text-anchor="middle" dominant-baseline="central">replication (async)</text><rect x="748.6" y="246" width="62.8" height="18" rx="9" ry="9" fill="#ffffff" stroke="#dde2e7" stroke-width="1"></rect><text x="780" y="255.5" fill="#27313a" font-size="10.8" font-weight="600" text-anchor="middle" dominant-baseline="central">failover</text></g><defs><filter id="sh" x="-20%" y="-20%" width="140%" height="140%"><feDropShadow dx="0" dy="1" stdDeviation="1.1" flood-color="#000" flood-opacity="0.13"></feDropShadow></filter></defs></svg>