<svg version="1.1" xmlns="http://www.w3.org/2000/svg" viewBox="0 0 1160 684" width="1160" height="684">
  <!-- svg-source:gen-whiteboards.js -->
  <defs><style class="style-fonts">
@font-face{font-family:"Virgil";src:url("https://unpkg.com/@excalidraw/excalidraw@0.17.6/dist//dist/excalidraw-assets/Virgil.woff2");}
</style></defs>
  <rect x="0" y="0" width="1160" height="684" fill="#ffffff"></rect>
  <text x="24" y="26" font-family="Virgil, Segoe UI Emoji" font-size="22px" fill="#1e1e1e" text-anchor="start" dominant-baseline="central" style="white-space:pre">Distributed Cache (Redis / Memcached) — how you'd draw it live on the whiteboard</text>
  <text x="24" y="58" font-family="Virgil, Segoe UI Emoji" font-size="13px" fill="#868e96" text-anchor="start" dominant-baseline="central" style="white-space:pre">green = client   ·   grey = edge / LB   ·   blue = service   ·   red = datastore   ·   orange = queue / stream   ·   violet = 3rd-party</text>
  <g transform="translate(0 84)"><g transform="translate(435 170)"><path d="M18 0 C227.17 0.53, 436.39 -0.51, 651.52 -0.11 C661.06 0.24, 669.99 7.37, 670 18 C669.13 54, 669.11 91.05, 670.46 130.31 C669.04 140.81, 662.3 147.2, 652 148 C443.23 148.82, 233.03 147.14, 17.57 148.42 C8.2 147.79, 0.44 139.26, 0 130 C-0.18 93.08, 0.34 56.02, -0.11 18.16 C-0.33 7.47, 8.93 -0.29, 18 0" stroke="#495057" stroke-width="1.8" fill="none" stroke-linecap="round" stroke-dasharray="8 9"></path></g><path d="M250 131 C250.4 152.42, 250.91 172.6, 249.58 195.4 C364.96 195.11, 479.96 195.8, 600.18 194.51 C598.93 205.64, 600.68 213.58, 599.86 224.22" stroke="#1e1e1e" stroke-width="1.6" fill="none" stroke-linecap="round"></path><path d="M600 224 L595.51 213.96 M600 224 L604.49 213.96" stroke="#1e1e1e" stroke-width="1.6" fill="none" stroke-linecap="round"></path><path d="M450 255 C444.54 255.03, 437.41 255.55, 431.79 254.76 C432.21 204.75, 432.63 152.32, 431.5 99.71 C426.55 100.95, 420.8 100.61, 414.97 100.05" stroke="#1e1e1e" stroke-width="1.6" fill="none" stroke-linecap="round"></path><path d="M415 100 L425.04 95.51 M415 100 L425.04 104.49" stroke="#1e1e1e" stroke-width="1.6" fill="none" stroke-linecap="round"></path><path d="M600 286 C599.51 322.63, 599.85 360.83, 599.9 399.84 C546.15 400.83, 494.93 400.32, 440.13 400.39 C440.8 422.17, 438.94 441.35, 440.25 464.24" stroke="#1e1e1e" stroke-width="1.6" fill="none" stroke-linecap="round"></path><path d="M440 464 L435.51 453.96 M440 464 L444.49 453.96" stroke="#1e1e1e" stroke-width="1.6" fill="none" stroke-linecap="round"></path><path d="M600 286 C599.49 310.91, 598.99 335.71, 600.16 361.55 C688.97 362.57, 777.28 362.42, 870.22 361.91 C869.56 395.03, 870.24 428.84, 870.33 463.64" stroke="#1e1e1e" stroke-width="1.6" fill="none" stroke-linecap="round"></path><path d="M870 464 L865.51 453.96 M870 464 L874.49 453.96" stroke="#1e1e1e" stroke-width="1.6" fill="none" stroke-linecap="round"></path><path d="M810 255 C790.97 254.45, 769.7 253.94, 750.24 254.74" stroke="#1e1e1e" stroke-width="1.6" fill="none" stroke-linecap="round"></path><path d="M750 255 L760.04 250.51 M750 255 L760.04 259.49" stroke="#1e1e1e" stroke-width="1.6" fill="none" stroke-linecap="round"></path><g transform="translate(85 69)"><path d="M16 0 C113.98 0, 213.2 -0.46, 314.27 -0.14 C323.2 -0.02, 329.7 7.21, 330 16 C330.39 25.95, 330.08 35.24, 329.93 46.18 C330.4 54.96, 323.26 61.94, 314 62 C215.8 61.64, 117.17 61.67, 15.82 61.89 C7.59 61.95, 0.39 54.45, 0 46 C-0.16 36.55, -0.1 26.55, -0.19 15.93 C-0.05 7.44, 7.29 0.38, 16 0 Z" stroke="none" fill="#b2f2bb"></path><path d="M16 0 C113.76 0.25, 213.58 0, 314.4 -0.26 C321.71 -0.93, 331.08 7.54, 330 16 C329.43 24.7, 330.34 36.14, 330.27 46.26 C330.84 53.59, 321.64 60.97, 314 62 C214.72 60.87, 116.04 61.22, 16.07 62.66 C6.35 63.14, 0.97 54.99, 0 46 C0.97 36.93, 0.4 26.71, -0.34 16.47 C-0.65 5.82, 6.15 1.09, 16 0 M16 0 C113.04 -1.32, 212.97 0.38, 314.01 0.18 C321.92 -1.22, 331.05 6.18, 330 16 C329.07 25.47, 329.35 36.88, 329.61 46.68 C330.13 54.81, 321.94 60.95, 314 62 C214.94 60.79, 117.27 63.02, 15.66 62.68 C7.3 61.26, -0.16 56.07, 0 46 C-0.17 37.24, -1.2 27.53, -0.01 16.08 C0.5 7.54, 7.34 1.02, 16 0" stroke="#2f9e44" stroke-width="1.7" fill="none" stroke-linecap="round"></path></g><text x="250" y="91" font-family="Virgil, Segoe UI Emoji" font-size="15px" fill="#1e1e1e" text-anchor="middle" dominant-baseline="central" style="white-space:pre">App servers (client lib)</text><text x="250" y="110" font-family="Virgil, Segoe UI Emoji" font-size="12px" fill="#495057" text-anchor="middle" dominant-baseline="central" style="white-space:pre">cache client · hash(key) → ring node</text><g transform="translate(450 224)"><path d="M16 0 C104.16 0.16, 192.48 -0.3, 284.04 -0.18 C293.23 -0.41, 299.93 6.61, 300 16 C299.99 26.14, 300.3 35.51, 300.12 45.83 C299.71 55.28, 293 61.69, 284 62 C195.74 62.27, 106.65 62.58, 16.23 61.72 C6.92 61.75, 0.39 54.25, 0 46 C0.13 35.51, -0.52 25.75, -0.11 16.26 C-0.42 6.71, 6.65 0.23, 16 0 Z" stroke="none" fill="#a5d8ff"></path><path d="M16 0 C104.76 -0.05, 193.51 0.99, 283.36 0.21 C294.14 0.65, 299.11 7.45, 300 16 C299.83 26.87, 301.27 35.72, 300.17 45.43 C299.3 54.11, 293.79 62, 284 62 C196.28 60.85, 108.43 62.63, 16.13 62.03 C8.47 62.44, 0.14 53.99, 0 46 C-0.95 37.47, 0.3 25.85, 0.41 16.57 C0.82 6.83, 7.13 0.08, 16 0 M16 0 C104.44 -0.97, 193.52 0.16, 284.46 -0.11 C294.01 -0.81, 300.07 8.15, 300 16 C301.1 25.05, 299.97 35.02, 300.31 46.11 C300.43 55.71, 292.72 62.5, 284 62 C196.47 63.19, 105.96 62.59, 16.36 62.2 C7.54 62.48, 0.7 53.71, 0 46 C0.55 35.6, -0.27 24.97, -0.47 16.44 C-0.32 8.03, 8.04 -0.89, 16 0" stroke="#1971c2" stroke-width="1.7" fill="none" stroke-linecap="round"></path></g><text x="600" y="246" font-family="Virgil, Segoe UI Emoji" font-size="15px" fill="#1e1e1e" text-anchor="middle" dominant-baseline="central" style="white-space:pre">Cache Nodes</text><text x="600" y="265" font-family="Virgil, Segoe UI Emoji" font-size="12px" fill="#495057" text-anchor="middle" dominant-baseline="central" style="white-space:pre">consistent-hash ring + vnodes</text><g transform="translate(810 224)"><path d="M16 0 C101.61 -0.22, 186.55 0.11, 273.89 -0.2 C283.13 0.58, 290.34 7.47, 290 16 C289.7 26.27, 289.5 35.71, 289.74 45.94 C289.73 54.71, 282.61 61.79, 274 62 C188.67 61.45, 103.46 61.76, 16.07 61.8 C7.65 62.27, -0.11 54.65, 0 46 C0.02 35.87, -0.25 25.63, -0.26 15.72 C-0.5 7.25, 6.92 0.02, 16 0 Z" stroke="none" fill="#a5d8ff"></path><path d="M16 0 C101.94 0.03, 187.32 1.2, 273.36 -0.01 C283.57 -0.03, 290.64 6.58, 290 16 C291.17 25.19, 289.58 35.76, 290.04 46.32 C290.65 54.95, 283.98 62.96, 274 62 C188.72 61.71, 104.94 61.25, 16.66 62.14 C8.21 60.77, 0.59 53.61, 0 46 C0.73 35.31, -0.89 25.33, 0.4 15.86 C-0.19 6.29, 6.74 -0.08, 16 0 M16 0 C100.74 0.19, 185.37 1.12, 273.62 0.2 C283.96 0.05, 288.72 7.4, 290 16 C290.5 25.22, 289.93 36.35, 289.55 45.99 C290.97 55.56, 282.45 62.17, 274 62 C189.07 62.63, 102.79 63.18, 15.32 61.83 C7.64 63.32, -0.84 55.3, 0 46 C-0.34 37.34, 1.14 25.41, 0.68 15.87 C-0.49 8.02, 6.22 -1.04, 16 0" stroke="#1971c2" stroke-width="1.7" fill="none" stroke-linecap="round"></path></g><text x="955" y="246" font-family="Virgil, Segoe UI Emoji" font-size="15px" fill="#1e1e1e" text-anchor="middle" dominant-baseline="central" style="white-space:pre">Cluster Manager</text><text x="955" y="265" font-family="Virgil, Segoe UI Emoji" font-size="12px" fill="#495057" text-anchor="middle" dominant-baseline="central" style="white-space:pre">Redis Sentinel / Cluster · failover</text><g transform="translate(290 464)"><path d="M16 0 C103.92 0.32, 193.38 -0.28, 283.97 -0.04 C293 0.17, 299.74 7.22, 300 16 C299.94 25.95, 300.04 36.36, 300.23 46.16 C299.91 54.23, 292.6 62.37, 284 62 C195.8 62.38, 107.42 61.52, 16.27 61.81 C7.69 61.82, 0.27 54.55, 0 46 C-0.29 36.46, -0.18 26.35, 0.28 16.1 C0.25 7.66, 7.76 -0.55, 16 0 Z" stroke="none" fill="#ffc9c9"></path><path d="M16 0 C103.35 0.12, 192.34 -0.79, 284.6 0.04 C291.79 1.3, 299.96 7.81, 300 16 C300.94 26.55, 299.67 34.59, 299.86 45.6 C300.06 55.02, 293.1 62.96, 284 62 C194.31 60.75, 108.25 61.31, 15.5 61.49 C5.91 63.1, -0.05 54.52, 0 46 C-0.42 35.89, 0.82 25.5, 0.4 16.04 C1.36 7.8, 6.53 0.42, 16 0 M16 0 C105.53 -1.35, 194.04 -0.88, 283.53 0.27 C293.39 1.37, 300.71 8.41, 300 16 C300.36 24.93, 300.35 34.89, 300.1 46.32 C300.46 53.57, 292.51 60.72, 284 62 C196.75 62.44, 108.47 61.8, 16.55 62.6 C6.36 62.14, 0.27 54.58, 0 46 C-0.46 34.86, 1.31 25.96, -0.18 15.89 C-0.75 7.17, 8.59 -0.9, 16 0" stroke="#e03131" stroke-width="1.7" fill="none" stroke-linecap="round"></path></g><text x="440" y="486" font-family="Virgil, Segoe UI Emoji" font-size="15px" fill="#1e1e1e" text-anchor="middle" dominant-baseline="central" style="white-space:pre">Backing DB</text><text x="440" y="505" font-family="Virgil, Segoe UI Emoji" font-size="12px" fill="#495057" text-anchor="middle" dominant-baseline="central" style="white-space:pre">system of record · source on miss</text><g transform="translate(740 464)"><path d="M16 0 C91.61 0.19, 166.3 -0.06, 244.07 -0.21 C253.35 -0.18, 259.87 7.24, 260 16 C259.91 25.97, 260.51 35.57, 259.79 45.87 C260.23 54.8, 252.61 62.12, 244 62 C168.87 62.26, 93 62.3, 16.1 62.12 C7.67 61.42, 0.58 54.54, 0 46 C0.34 35.65, -0.42 26.6, -0.23 15.91 C-0.4 7.2, 7.28 -0.01, 16 0 Z" stroke="none" fill="#ffc9c9"></path><path d="M16 0 C90.9 0.59, 167.76 -1.21, 243.88 -0.18 C251.54 -0.73, 260 7.35, 260 16 C260.74 25.52, 258.92 36.41, 260.38 46.2 C259.33 55.28, 251.51 61.83, 244 62 C170.04 62.97, 93.64 61.86, 15.45 61.87 C7.43 63.05, 0.7 54.77, 0 46 C-0.5 35.1, 0.51 25.64, -0.52 15.87 C0.39 6.62, 5.94 0.27, 16 0 M16 0 C90.71 1.07, 166.08 0.25, 243.34 0.06 C253.44 -0.5, 258.94 7.85, 260 16 C258.66 25.3, 259.09 36.9, 260.45 46.26 C260.5 55.45, 252.57 61.82, 244 62 C168.18 60.78, 92.49 62.88, 15.45 61.36 C6.95 63.08, 0.13 54.2, 0 46 C-1.28 34.77, -0.81 27.47, 0.5 15.5 C1.32 6.21, 6.52 -0.72, 16 0" stroke="#e03131" stroke-width="1.7" fill="none" stroke-linecap="round"></path></g><text x="870" y="486" font-family="Virgil, Segoe UI Emoji" font-size="15px" fill="#1e1e1e" text-anchor="middle" dominant-baseline="central" style="white-space:pre">Replicas</text><text x="870" y="505" font-family="Virgil, Segoe UI Emoji" font-size="12px" fill="#495057" text-anchor="middle" dominant-baseline="central" style="white-space:pre">primary → replica per shard</text><rect x="448" y="161" width="94.5" height="18" fill="#ffffff" stroke="none"></rect><text x="453" y="170" font-family="Virgil, Segoe UI Emoji" font-size="12.5px" fill="#495057" text-anchor="start" dominant-baseline="central" style="white-space:pre">Cache Cluster</text><rect x="180.22" y="154" width="139.56" height="18" rx="6" ry="6" fill="#ffffff" fill-opacity="0.82" stroke="none"></rect><text x="250" y="163" font-family="Virgil, Segoe UI Emoji" font-size="11.5px" fill="#27313a" text-anchor="middle" dominant-baseline="central" style="white-space:pre">① get(key) · hash→ring</text><rect x="386.14" y="168.5" width="91.72" height="18" rx="6" ry="6" fill="#ffffff" fill-opacity="0.82" stroke="none"></rect><text x="432" y="177.5" font-family="Virgil, Segoe UI Emoji" font-size="11.5px" fill="#27313a" text-anchor="middle" dominant-baseline="central" style="white-space:pre">② hit → return</text><rect x="548.16" y="334" width="103.68" height="18" rx="6" ry="6" fill="#ffffff" fill-opacity="0.82" stroke="none"></rect><text x="600" y="343" font-family="Virgil, Segoe UI Emoji" font-size="11.5px" fill="#27313a" text-anchor="middle" dominant-baseline="central" style="white-space:pre">③ miss → load DB</text><rect x="674.19" y="353" width="121.62" height="18" rx="6" ry="6" fill="#ffffff" fill-opacity="0.82" stroke="none"></rect><text x="735" y="362" font-family="Virgil, Segoe UI Emoji" font-size="11.5px" fill="#27313a" text-anchor="middle" dominant-baseline="central" style="white-space:pre">replication (async)</text><rect x="752.08" y="246" width="55.84" height="18" rx="6" ry="6" fill="#ffffff" fill-opacity="0.82" stroke="none"></rect><text x="780" y="255" font-family="Virgil, Segoe UI Emoji" font-size="11.5px" fill="#27313a" text-anchor="middle" dominant-baseline="central" style="white-space:pre">failover</text></g>
</svg>
