<?xml version="1.0" encoding="UTF-8"?>
<svg id="diagram" viewBox="0 0 1200 770" xmlns="http://www.w3.org/2000/svg" width="1200" height="770"><rect x="0" y="0" width="1200" height="770" fill="#ffffff"></rect><g><rect x="135" y="252" width="653" height="92" rx="14" ry="14" fill="#f8fafc" stroke="#64748b" stroke-width="1.6" stroke-dasharray="7 5"></rect><rect x="149" y="229" width="102.80000000000001" height="22" rx="7" ry="7" fill="#475569"></rect><text x="200.4" y="240" fill="#fff" font-size="11.5" font-weight="700" text-anchor="middle" dominant-baseline="central">▢ Sync Service</text><rect x="817" y="637" width="316" height="104" rx="14" ry="14" fill="#f8fafc" stroke="#64748b" stroke-width="1.6" stroke-dasharray="7 5"></rect><rect x="831" y="614" width="122" height="22" rx="7" ry="7" fill="#475569"></rect><text x="892" y="625" fill="#fff" font-size="11.5" font-weight="700" text-anchor="middle" dominant-baseline="central">▢ Storage Service</text></g><g><path d="M470,82 L470,121" fill="none" stroke="#55606a" stroke-width="1.9" stroke-linejoin="round" stroke-linecap="round"></path><polygon points="470,121 466.12627569593405,112.32565506703307 473.8737243040659,112.32565506703307" fill="#55606a"></polygon><path d="M470,179 L470,256 L280,256 L280,259" fill="none" stroke="#55606a" stroke-width="1.9" stroke-linejoin="round" stroke-linecap="round"></path><polygon points="280,259 276.12627569593405,250.32565506703307 283.8737243040659,250.32565506703307" fill="#55606a"></polygon><path d="M405,292 L510,292" fill="none" stroke="#55606a" stroke-width="1.9" stroke-linejoin="round" stroke-linecap="round"></path><polygon points="510,292 501.3256550670331,295.87372430406595 501.3256550670331,288.12627569593405" fill="#55606a"></polygon><path d="M640,325 L640,395" fill="none" stroke="#aab2bb" stroke-width="1.6" stroke-linejoin="round" stroke-linecap="round" stroke-dasharray="6 5"></path><polygon points="640,395 636.126275695934,386.3256550670331 643.873724304066,386.3256550670331" fill="#aab2bb"></polygon><path d="M640,455 L640,495" fill="none" stroke="#55606a" stroke-width="1.9" stroke-linejoin="round" stroke-linecap="round"></path><polygon points="640,495 636.126275695934,486.3256550670331 643.873724304066,486.3256550670331" fill="#55606a"></polygon><path d="M280,325 L280,395" fill="none" stroke="#55606a" stroke-width="1.9" stroke-linejoin="round" stroke-linecap="round"></path><polygon points="280,395 276.12627569593405,386.3256550670331 283.8737243040659,386.3256550670331" fill="#55606a"></polygon><path d="M280,455 L280,545 L470,545 L470,589" fill="none" stroke="#55606a" stroke-width="1.9" stroke-linejoin="round" stroke-linecap="round"></path><polygon points="470,589 466.12627569593405,580.325655067033 473.8737243040659,580.325655067033" fill="#55606a"></polygon><path d="M470,641 L470,650 L975,650 L975,657" fill="none" stroke="#55606a" stroke-width="1.9" stroke-linejoin="round" stroke-linecap="round"></path><polygon points="975,657 971.126275695934,648.325655067033 978.873724304066,648.325655067033" fill="#55606a"></polygon><path d="M835,690 L800,690 L800,56 L660,56" fill="none" stroke="#55606a" stroke-width="1.9" stroke-linejoin="round" stroke-linecap="round"></path><polygon points="660,56 668.674344932967,52.12627569593408 668.674344932967,59.87372430406592" fill="#55606a"></polygon></g><g><rect x="280" y="30" width="380" height="52" rx="9" ry="9" fill="#fff" stroke="#6c757d" stroke-width="1.7" filter="url(#sh)"></rect><path d="M280,53.92 V39 Q280,30 289,30 H651 Q660,30 660,39 V53.92 Z" fill="#6c757d"></path><text x="470" y="42.46" fill="#fff" font-weight="700" font-size="12.5" text-anchor="middle" dominant-baseline="central">Clients (desktop/mobile)</text><text x="470" y="67.96000000000001" fill="#3c454d" font-size="10.8" text-anchor="middle" dominant-baseline="central">watch local FS</text><rect x="280" y="121" width="380" height="58" rx="9" ry="9" fill="#fff" stroke="#4338ca" stroke-width="1.7" filter="url(#sh)"></rect><path d="M280,147 V130 Q280,121 289,121 H651 Q660,121 660,130 V147 Z" fill="#4f46e5"></path><text x="470" y="134.5" fill="#fff" font-weight="700" font-size="12.5" text-anchor="middle" dominant-baseline="central">API Gateway + LB</text><text x="470" y="163" fill="#3c454d" font-size="10.8" text-anchor="middle" dominant-baseline="central">auth · TLS</text><rect x="155" y="259" width="250" height="66" rx="9" ry="9" fill="#fff" stroke="#0F5BB5" stroke-width="1.7" filter="url(#sh)"></rect><path d="M155,285 V268 Q155,259 164,259 H396 Q405,259 405,268 V285 Z" fill="#0078D4"></path><text x="280" y="272.5" fill="#fff" font-weight="700" font-size="12.5" text-anchor="middle" dominant-baseline="central">Sync Service</text><text x="280" y="305" fill="#3c454d" font-size="10.8" text-anchor="middle" dominant-baseline="central">watch · diff · notify</text><rect x="510" y="259" width="260" height="66" rx="9" ry="9" fill="#fff" stroke="#0F5BB5" stroke-width="1.7" filter="url(#sh)"></rect><path d="M510,285 V268 Q510,259 519,259 H761 Q770,259 770,268 V285 Z" fill="#0078D4"></path><text x="640" y="272.5" fill="#fff" font-weight="700" font-size="12.5" text-anchor="middle" dominant-baseline="central">Chunker</text><text x="640" y="305" fill="#3c454d" font-size="10.8" text-anchor="middle" dominant-baseline="central">content-defined ~4MB · hash</text><rect x="145" y="395" width="270" height="60" rx="9" ry="9" fill="#fff" stroke="#0A6E80" stroke-width="1.7" filter="url(#sh)"></rect><path d="M145,421 V404 Q145,395 154,395 H406 Q415,395 415,404 V421 Z" fill="#0C8599"></path><text x="280" y="408.5" fill="#fff" font-weight="700" font-size="12.5" text-anchor="middle" dominant-baseline="central">Metadata DB</text><text x="280" y="438" fill="#3c454d" font-size="10.8" text-anchor="middle" dominant-baseline="central">MySQL · file tree · versions</text><rect x="515" y="395" width="250" height="60" rx="9" ry="9" fill="#fff" stroke="#0A6E80" stroke-width="1.7" filter="url(#sh)"></rect><path d="M515,421 V404 Q515,395 524,395 H756 Q765,395 765,404 V421 Z" fill="#0C8599"></path><text x="640" y="408.5" fill="#fff" font-weight="700" font-size="12.5" text-anchor="middle" dominant-baseline="central">Dedup Index</text><text x="640" y="438" fill="#3c454d" font-size="10.8" text-anchor="middle" dominant-baseline="central">hash → block</text><rect x="515" y="495" width="250" height="60" rx="9" ry="9" fill="#fff" stroke="#0A6E80" stroke-width="1.7" filter="url(#sh)"></rect><path d="M515,521 V504 Q515,495 524,495 H756 Q765,495 765,504 V521 Z" fill="#0C8599"></path><text x="640" y="508.5" fill="#fff" font-weight="700" font-size="12.5" text-anchor="middle" dominant-baseline="central">Block Store</text><text x="640" y="538" fill="#3c454d" font-size="10.8" text-anchor="middle" dominant-baseline="central">S3 (dedup by hash)</text><rect x="200" y="589" width="540" height="52" rx="9" ry="9" fill="#fff" stroke="#C8590B" stroke-width="1.7" filter="url(#sh)"></rect><path d="M200,612.92 V598 Q200,589 209,589 H731 Q740,589 740,598 V612.92 Z" fill="#F7630C"></path><text x="470" y="601.46" fill="#fff" font-weight="700" font-size="12.5" text-anchor="middle" dominant-baseline="central">Apache Kafka</text><text x="470" y="626.9599999999999" fill="#3c454d" font-size="10.8" text-anchor="middle" dominant-baseline="central">change events</text><rect x="835" y="657" width="280" height="66" rx="9" ry="9" fill="#fff" stroke="#0F5BB5" stroke-width="1.7" filter="url(#sh)"></rect><path d="M835,683 V666 Q835,657 844,657 H1106 Q1115,657 1115,666 V683 Z" fill="#0078D4"></path><text x="975" y="670.5" fill="#fff" font-weight="700" font-size="12.5" text-anchor="middle" dominant-baseline="central">Notification Service</text><text x="975" y="703" fill="#3c454d" font-size="10.8" text-anchor="middle" dominant-baseline="central">long-poll/WS · push changes</text></g><g><rect x="426.4" y="92.5" width="87.19999999999999" height="18" rx="9" ry="9" fill="#ffffff" stroke="#dde2e7" stroke-width="1"></rect><text x="470" y="102" fill="#27313a" font-size="10.8" font-weight="600" text-anchor="middle" dominant-baseline="central">sync request</text><rect x="420.3" y="208.5" width="99.39999999999999" height="18" rx="9" ry="9" fill="#ffffff" stroke="#dde2e7" stroke-width="1"></rect><text x="470" y="218" fill="#27313a" font-size="10.8" font-weight="600" text-anchor="middle" dominant-baseline="central">① local change</text><rect x="407.8" y="283" width="99.39999999999999" height="18" rx="9" ry="9" fill="#ffffff" stroke="#dde2e7" stroke-width="1"></rect><text x="457.5" y="292.5" fill="#27313a" font-size="10.8" font-weight="600" text-anchor="middle" dominant-baseline="central">② chunk + hash</text><rect x="602.5" y="351" width="75" height="18" rx="9" ry="9" fill="#ffffff" stroke="#dde2e7" stroke-width="1"></rect><text x="640" y="360.5" fill="#27313a" font-size="10.8" font-weight="600" text-anchor="middle" dominant-baseline="central">check hash</text><rect x="575.05" y="466" width="129.89999999999998" height="18" rx="9" ry="9" fill="#ffffff" stroke="#dde2e7" stroke-width="1"></rect><text x="640" y="475.5" fill="#27313a" font-size="10.8" font-weight="600" text-anchor="middle" dominant-baseline="central">③ upload new blocks</text><rect x="224.2" y="351" width="111.6" height="18" rx="9" ry="9" fill="#ffffff" stroke="#dde2e7" stroke-width="1"></rect><text x="280" y="360.5" fill="#27313a" font-size="10.8" font-weight="600" text-anchor="middle" dominant-baseline="central">④ commit version</text><rect x="325.3" y="536" width="99.39999999999999" height="18" rx="9" ry="9" fill="#ffffff" stroke="#dde2e7" stroke-width="1"></rect><text x="375" y="545.5" fill="#27313a" font-size="10.8" font-weight="600" text-anchor="middle" dominant-baseline="central">⑤ change event</text><rect x="672.8" y="641" width="99.39999999999999" height="18" rx="9" ry="9" fill="#ffffff" stroke="#dde2e7" stroke-width="1"></rect><text x="722.5" y="650.5" fill="#27313a" font-size="10.8" font-weight="600" text-anchor="middle" dominant-baseline="central">⑥ push changes</text><rect x="728.95" y="364" width="142.1" height="18" rx="9" ry="9" fill="#ffffff" stroke="#dde2e7" stroke-width="1"></rect><text x="800" y="373.5" fill="#27313a" font-size="10.8" font-weight="600" text-anchor="middle" dominant-baseline="central">⑦ pull changed blocks</text></g><defs><filter id="sh" x="-20%" y="-20%" width="140%" height="140%"><feDropShadow dx="0" dy="1" stdDeviation="1.1" flood-color="#000" flood-opacity="0.13"></feDropShadow></filter></defs></svg>