<svg version="1.1" xmlns="http://www.w3.org/2000/svg" viewBox="0 0 1200 854" width="1200" height="854">
  <!-- svg-source:gen-whiteboards.js -->
  <defs><style class="style-fonts">
@font-face{font-family:"Virgil";src:url("https://unpkg.com/@excalidraw/excalidraw@0.17.6/dist//dist/excalidraw-assets/Virgil.woff2");}
</style></defs>
  <rect x="0" y="0" width="1200" height="854" fill="#ffffff"></rect>
  <text x="24" y="26" font-family="Virgil, Segoe UI Emoji" font-size="22px" fill="#1e1e1e" text-anchor="start" dominant-baseline="central" style="white-space:pre">File Sync &amp; Storage (Drive / Dropbox) — how you'd draw it live on the whiteboard</text>
  <text x="24" y="58" font-family="Virgil, Segoe UI Emoji" font-size="13px" fill="#868e96" text-anchor="start" dominant-baseline="central" style="white-space:pre">green = client   ·   grey = edge / LB   ·   blue = service   ·   red = datastore   ·   orange = queue / stream   ·   violet = 3rd-party</text>
  <g transform="translate(0 84)"><g transform="translate(135 252)"><path d="M18 0 C221.54 0.54, 424.79 -0.34, 635.4 0.42 C644.25 0.49, 652.34 7.19, 653 18 C653.54 36.41, 652.7 54.57, 652.92 73.99 C653.54 84.77, 645.39 91.77, 635 92 C430.61 92, 227.49 91.13, 17.87 91.56 C7.59 92.58, 0.1 83.98, 0 74 C0.26 55.69, -0.89 36.77, -0.45 17.61 C0.03 8.46, 7.73 -0.6, 18 0" stroke="#495057" stroke-width="1.8" fill="none" stroke-linecap="round" stroke-dasharray="8 9"></path></g><g transform="translate(817 637)"><path d="M18 0 C109.51 -0.5, 203.7 -0.06, 297.78 0.43 C308.86 -0.77, 315.84 8.96, 316 18 C316.01 39.94, 316.66 62.38, 315.69 86.15 C315.76 96.66, 306.93 103.02, 298 104 C205.49 104.74, 112.42 103.13, 18.24 104.03 C7.4 103.27, 0.92 96.09, 0 86 C0.37 64.55, -0.6 40.44, 0.12 18.48 C0.32 7.72, 7.69 -0.01, 18 0" stroke="#495057" stroke-width="1.8" fill="none" stroke-linecap="round" stroke-dasharray="8 9"></path></g><path d="M470 82 C469.52 95.14, 470.53 108.67, 469.89 120.51" stroke="#1e1e1e" stroke-width="1.6" fill="none" stroke-linecap="round"></path><path d="M470 121 L465.51 110.96 M470 121 L474.49 110.96" stroke="#1e1e1e" stroke-width="1.6" fill="none" stroke-linecap="round"></path><path d="M470 179 C469.92 203.41, 470.49 229.66, 470.36 256.44 C407 256.12, 345.22 255.45, 280.31 255.9 C280.36 257.55, 280.17 257.96, 279.71 258.67" stroke="#1e1e1e" stroke-width="1.6" fill="none" stroke-linecap="round"></path><path d="M280 259 L275.51 248.96 M280 259 L284.49 248.96" stroke="#1e1e1e" stroke-width="1.6" fill="none" stroke-linecap="round"></path><path d="M405 292 C439.78 292.61, 474.24 292.53, 509.69 292.21" stroke="#1e1e1e" stroke-width="1.6" fill="none" stroke-linecap="round"></path><path d="M510 292 L499.96 296.49 M510 292 L499.96 287.51" stroke="#1e1e1e" stroke-width="1.6" fill="none" stroke-linecap="round"></path><path d="M640 325 C640.47 349.08, 640.64 370.87, 640.21 394.94" stroke="#1e1e1e" stroke-width="1.6" fill="none" stroke-linecap="round"></path><path d="M640 395 L635.51 384.96 M640 395 L644.49 384.96" stroke="#1e1e1e" stroke-width="1.6" fill="none" stroke-linecap="round"></path><path d="M640 455 C640.19 469.02, 639.33 481.54, 640.12 495.44" stroke="#1e1e1e" stroke-width="1.6" fill="none" stroke-linecap="round"></path><path d="M640 495 L635.51 484.96 M640 495 L644.49 484.96" stroke="#1e1e1e" stroke-width="1.6" fill="none" stroke-linecap="round"></path><path d="M280 325 C280.29 348.68, 279.97 371.4, 280.31 394.61" stroke="#1e1e1e" stroke-width="1.6" fill="none" stroke-linecap="round"></path><path d="M280 395 L275.51 384.96 M280 395 L284.49 384.96" stroke="#1e1e1e" stroke-width="1.6" fill="none" stroke-linecap="round"></path><path d="M280 455 C280.32 484.96, 280.95 513.42, 279.7 544.83 C342.23 544.93, 404.37 544.78, 470.39 545.26 C469.31 560.57, 471.09 574.05, 470.2 588.7" stroke="#1e1e1e" stroke-width="1.6" fill="none" stroke-linecap="round"></path><path d="M470 589 L465.51 578.96 M470 589 L474.49 578.96" stroke="#1e1e1e" stroke-width="1.6" fill="none" stroke-linecap="round"></path><path d="M470 641 C469.71 644.23, 471.01 646.13, 470.08 650.5 C636.38 649.79, 804.08 650.25, 975.07 650.42 C974.98 651.61, 975.05 653.6, 975.4 656.78" stroke="#1e1e1e" stroke-width="1.6" fill="none" stroke-linecap="round"></path><path d="M975 657 L970.51 646.96 M975 657 L979.49 646.96" stroke="#1e1e1e" stroke-width="1.6" fill="none" stroke-linecap="round"></path><path d="M835 690 C823.95 690.38, 811.76 690.36, 800.07 690.31 C799.69 479.85, 799.83 272.64, 800.01 55.51 C753.13 56.33, 706.64 55.02, 659.48 56.21" stroke="#1e1e1e" stroke-width="1.6" fill="none" stroke-linecap="round"></path><path d="M660 56 L670.04 51.51 M660 56 L670.04 60.49" stroke="#1e1e1e" stroke-width="1.6" fill="none" stroke-linecap="round"></path><g transform="translate(280 30)"><path d="M16 0 C130.24 0.37, 245.84 0.16, 363.78 0.08 C372.29 0, 379.45 7.15, 380 16 C379.9 23.01, 379.53 29.56, 380.07 36.29 C380.47 45.32, 372.99 51.71, 364 52 C249.52 52.16, 134.12 52.27, 16.08 51.82 C7.41 51.99, -0.4 45.07, 0 36 C-0.34 29.44, -0.56 22.79, 0.07 16.3 C-0.08 7.63, 7.23 -0.59, 16 0 Z" stroke="none" fill="#b2f2bb"></path><path d="M16 0 C130.49 -0.29, 245.32 0.72, 364.54 -0.07 C372.37 -0.55, 379.07 7.83, 380 16 C379.01 21.87, 381.07 29.14, 380.4 35.72 C380.18 44.6, 372.11 51.32, 364 52 C249.43 50.7, 134.27 52.38, 15.55 52.56 C7.11 51.7, -0.52 45.7, 0 36 C0.88 30.26, 1.04 23.83, 0.69 16.45 C0.68 8.56, 7.6 1.28, 16 0 M16 0 C130.88 -1.2, 246.25 0.28, 363.42 0.64 C372.78 1.36, 379.94 7.05, 380 16 C381.01 23.83, 379.14 27.88, 380.65 35.39 C379.87 43.64, 372.03 53.24, 364 52 C250.56 51.14, 133.2 53.38, 15.84 52.45 C8.35 50.62, -1.06 44.33, 0 36 C-0.35 30.4, -0.88 22.26, 0.1 16.53 C0.05 7.88, 6.55 0.42, 16 0" stroke="#2f9e44" stroke-width="1.7" fill="none" stroke-linecap="round"></path></g><text x="470" y="47" font-family="Virgil, Segoe UI Emoji" font-size="15px" fill="#1e1e1e" text-anchor="middle" dominant-baseline="central" style="white-space:pre">Clients (desktop/mobile)</text><text x="470" y="66" font-family="Virgil, Segoe UI Emoji" font-size="12px" fill="#495057" text-anchor="middle" dominant-baseline="central" style="white-space:pre">watch local FS</text><g transform="translate(280 121)"><path d="M16 0 C130.62 -0.36, 245.73 0.48, 364.17 0.01 C373.08 -0.31, 379.91 6.89, 380 16 C380.55 24.61, 380.1 33.47, 380.06 42.07 C379.85 50.81, 372.7 58.48, 364 58 C249.64 58.26, 134.01 58.2, 15.88 58.09 C7.08 58.26, 0.53 50.4, 0 42 C0.08 34.01, -0.08 24.65, 0.16 16.15 C-0.35 7.76, 7.65 -0.44, 16 0 Z" stroke="none" fill="#dee2e6"></path><path d="M16 0 C130.57 -0.11, 245.78 -0.07, 364.6 0.33 C373.44 0.43, 379.67 7.1, 380 16 C381.36 25.03, 379.99 33.25, 380.16 42.26 C380.2 49.89, 373.24 58.15, 364 58 C249.27 56.75, 134.05 58.24, 15.36 57.83 C7.02 57.68, -0.36 51.67, 0 42 C-0.02 34.56, -0.41 25.67, 0.21 15.41 C0.01 7.35, 8 0.21, 16 0 M16 0 C132.12 1.05, 246.68 -0.04, 363.94 0.05 C371.78 -0.64, 379.36 6.74, 380 16 C381.13 24.23, 378.93 33.13, 380.34 41.43 C380.86 49.62, 373.75 58.64, 364 58 C250.38 57.07, 133.19 58.96, 16.44 57.41 C7.77 56.72, -0.7 49.59, 0 42 C1.2 33.75, 0.2 26.24, 0.05 15.43 C0.88 7.42, 8.48 0.39, 16 0" stroke="#495057" stroke-width="1.7" fill="none" stroke-linecap="round"></path></g><text x="470" y="141" font-family="Virgil, Segoe UI Emoji" font-size="15px" fill="#1e1e1e" text-anchor="middle" dominant-baseline="central" style="white-space:pre">API Gateway + LB</text><text x="470" y="160" font-family="Virgil, Segoe UI Emoji" font-size="12px" fill="#495057" text-anchor="middle" dominant-baseline="central" style="white-space:pre">auth · TLS</text><g transform="translate(155 259)"><path d="M16 0 C88.5 -0.5, 160.28 -0.34, 234.17 -0.29 C242.5 -0.57, 250.07 7.49, 250 16 C250.09 27.26, 249.53 39.04, 250.16 49.91 C249.89 58.99, 243.31 65.55, 234 66 C162.55 66.52, 90.2 66.51, 15.94 66.02 C7.07 66.03, 0.32 58.28, 0 50 C0.17 38.79, -0.2 27.52, 0.15 16.22 C-0.31 7.66, 7.41 -0.59, 16 0 Z" stroke="none" fill="#a5d8ff"></path><path d="M16 0 C88.9 -0.15, 158.9 -0.53, 234.41 0.19 C243.02 -0.23, 251.27 7.65, 250 16 C249.51 26.22, 250.76 37.25, 250.08 49.46 C249.19 58.7, 242.14 64.7, 234 66 C161.75 66.39, 90.37 66.15, 15.49 66.13 C6.81 67.29, -1.12 58.49, 0 50 C-0.12 37.79, -0.64 28.64, -0.45 15.58 C0.26 8, 7.61 1.2, 16 0 M16 0 C88.94 0.95, 160.13 1.39, 234.67 0.11 C241.85 -0.46, 251.11 8.31, 250 16 C249.26 26.4, 249.33 39.3, 249.69 50.59 C250.3 57.43, 244.17 65.5, 234 66 C162.36 66.66, 90.75 65.65, 16.67 66.05 C7.94 67.36, 0.98 59.86, 0 50 C0.85 40.05, -0.66 28.53, 0.3 15.5 C1.13 7.75, 7.25 -0.6, 16 0" stroke="#1971c2" stroke-width="1.7" fill="none" stroke-linecap="round"></path></g><text x="280" y="283" font-family="Virgil, Segoe UI Emoji" font-size="15px" fill="#1e1e1e" text-anchor="middle" dominant-baseline="central" style="white-space:pre">Sync Service</text><text x="280" y="302" font-family="Virgil, Segoe UI Emoji" font-size="12px" fill="#495057" text-anchor="middle" dominant-baseline="central" style="white-space:pre">watch · diff · notify</text><g transform="translate(510 259)"><path d="M16 0 C90.99 0.38, 166.02 -0.35, 243.97 -0.19 C253.34 0.1, 259.42 7.37, 260 16 C259.89 27.24, 259.66 38.09, 260.05 49.78 C259.6 58.96, 252.23 66.09, 244 66 C168.36 66.15, 93.12 65.9, 16.28 65.74 C7.04 66.51, 0.07 59.11, 0 50 C0.08 38.85, 0.55 27.45, -0.15 15.89 C0.08 7.16, 6.96 0.17, 16 0 Z" stroke="none" fill="#a5d8ff"></path><path d="M16 0 C91.29 0.85, 166.63 0.31, 243.98 0.01 C253.73 -1.36, 260.74 5.81, 260 16 C261.4 28.24, 259.85 39.12, 259.32 49.63 C259.31 59.13, 251.64 65.11, 244 66 C169.48 66.71, 94.77 65.2, 16 65.43 C6.85 67.39, -0.26 60.03, 0 50 C1.3 39.37, 0.7 26.65, 0.38 15.47 C-0.95 7.6, 8.33 0.28, 16 0 M16 0 C89.98 0.39, 165.41 -0.87, 243.54 0.67 C252.05 0.35, 259.06 6.23, 260 16 C260.52 27.5, 260.91 37.42, 260.43 50.21 C260.88 58.72, 253.68 64.84, 244 66 C168.99 65.55, 94.48 66.73, 15.89 65.34 C6.69 65.93, -0.59 59.79, 0 50 C-0.11 37.57, -0.76 26.86, -0.49 15.33 C-1.18 7.7, 7.25 0.14, 16 0" stroke="#1971c2" stroke-width="1.7" fill="none" stroke-linecap="round"></path></g><text x="640" y="283" font-family="Virgil, Segoe UI Emoji" font-size="15px" fill="#1e1e1e" text-anchor="middle" dominant-baseline="central" style="white-space:pre">Chunker</text><text x="640" y="302" font-family="Virgil, Segoe UI Emoji" font-size="12px" fill="#495057" text-anchor="middle" dominant-baseline="central" style="white-space:pre">content-defined ~4MB · hash</text><g transform="translate(145 395)"><path d="M16 0 C95.1 -0.22, 173.51 -0.01, 254.11 0.04 C263.26 -0.13, 270.05 7.31, 270 16 C270.24 24.79, 269.91 34.5, 269.9 43.81 C270.57 52.43, 262.21 59.68, 254 60 C175.54 59.76, 97.12 59.52, 15.9 60.3 C7.57 60.46, 0.17 52.86, 0 44 C0.57 34.91, 0.58 25.98, 0 15.91 C-0.28 7.6, 6.88 -0.04, 16 0 Z" stroke="none" fill="#ffc9c9"></path><path d="M16 0 C95.17 1.29, 174.01 0.92, 253.51 0.52 C263.05 0.64, 269.85 7.03, 270 16 C271.03 25.27, 269.08 34.9, 270.25 43.96 C269.1 51.87, 261.61 59.34, 254 60 C176.06 59.16, 97.67 58.96, 16.54 60.47 C6.49 61.07, -0.27 52.03, 0 44 C0.6 34.73, -1.4 25.73, 0.39 15.86 C0.38 8, 8.4 -1.17, 16 0 M16 0 C94.79 0.43, 172.08 -0.83, 254.02 -0.36 C262.63 -0.69, 271.06 8, 270 16 C270.15 24.51, 269.09 35.61, 269.55 44.03 C269.99 53.42, 261.63 61.19, 254 60 C176.51 59.46, 97.24 59.39, 16.35 60.09 C8.49 59.55, 0.75 51.65, 0 44 C0.52 33.85, 0.24 25.97, -0.01 16.38 C-0.58 6.39, 6.86 0.35, 16 0" stroke="#e03131" stroke-width="1.7" fill="none" stroke-linecap="round"></path></g><text x="280" y="416" font-family="Virgil, Segoe UI Emoji" font-size="15px" fill="#1e1e1e" text-anchor="middle" dominant-baseline="central" style="white-space:pre">Metadata DB</text><text x="280" y="435" font-family="Virgil, Segoe UI Emoji" font-size="12px" fill="#495057" text-anchor="middle" dominant-baseline="central" style="white-space:pre">MySQL · file tree · versions</text><g transform="translate(515 395)"><path d="M16 0 C87.91 0.49, 159.51 -0.52, 234.2 0.12 C243.08 -0.23, 249.88 7.69, 250 16 C250.18 25.44, 250.45 34.49, 249.8 44.02 C250.03 52.93, 243.17 60.23, 234 60 C162.06 59.65, 90.48 59.71, 16.15 59.81 C7.67 59.91, 0.28 52.98, 0 44 C0.54 34.4, 0.55 25.63, 0.24 15.75 C0.12 7.39, 7.44 0.05, 16 0 Z" stroke="none" fill="#ffc9c9"></path><path d="M16 0 C88.07 -0.87, 158.96 1.24, 234.04 0.15 C242.9 0.4, 250.98 6.51, 250 16 C249.74 25.38, 249.44 34.12, 249.82 43.8 C250.19 52.82, 241.41 59.01, 234 60 C162.98 60.8, 89.75 60.14, 15.67 60.68 C6.86 59.18, -1.13 52.06, 0 44 C-0.87 36.05, 1.16 26.9, -0.01 15.33 C-1.09 7.86, 6.35 -0.51, 16 0 M16 0 C87.57 -1.19, 158.55 0.79, 234.28 -0.53 C242.2 0.17, 250.52 5.89, 250 16 C250.55 25.62, 248.95 34.29, 250.34 44.35 C251.01 53.58, 241.67 59.44, 234 60 C162.81 59.53, 89.52 58.96, 15.53 60.26 C6.41 59.62, 1.33 52.72, 0 44 C-1.03 34.03, 0.96 24.77, 0.06 15.58 C-0.13 8.35, 7.12 -0.11, 16 0" stroke="#e03131" stroke-width="1.7" fill="none" stroke-linecap="round"></path></g><text x="640" y="416" font-family="Virgil, Segoe UI Emoji" font-size="15px" fill="#1e1e1e" text-anchor="middle" dominant-baseline="central" style="white-space:pre">Dedup Index</text><text x="640" y="435" font-family="Virgil, Segoe UI Emoji" font-size="12px" fill="#495057" text-anchor="middle" dominant-baseline="central" style="white-space:pre">hash → block</text><g transform="translate(515 495)"><path d="M16 0 C87.94 0.46, 160.45 -0.01, 233.82 0.28 C242.57 -0.35, 249.72 7.59, 250 16 C249.49 25.57, 249.64 34.82, 249.91 44.13 C250.59 53.08, 242.89 59.78, 234 60 C162.01 59.51, 89.94 59.6, 15.77 59.93 C7.6 59.72, 0.22 52.49, 0 44 C-0.51 34.82, -0.17 25.09, -0.14 16.01 C0.42 7.64, 6.95 0.59, 16 0 Z" stroke="none" fill="#ffc9c9"></path><path d="M16 0 C88.3 0.66, 158.71 1.09, 233.51 -0.29 C243.3 -0.38, 251.04 7.8, 250 16 C251.1 25.38, 249.85 34.49, 250.28 44.02 C248.97 54.07, 242.92 58.71, 234 60 C161.09 59.36, 91.32 59.07, 16.47 60.65 C6.74 58.93, 0.37 51.92, 0 44 C-1.19 34.77, 1.3 24.17, 0.18 16.13 C0.2 7.76, 7.41 1.14, 16 0 M16 0 C88.48 -0.6, 160.12 -0.49, 233.36 -0.59 C244.06 1.14, 249.48 6.41, 250 16 C251.12 24.08, 249.44 34.98, 249.76 44.43 C249.04 53.13, 243.04 59.4, 234 60 C163.36 60.52, 90.07 61.05, 16.64 60.32 C5.98 59.78, 1.21 51.48, 0 44 C-0.73 33.81, -0.99 26.21, 0 15.58 C-0.45 8.54, 7.51 -0.67, 16 0" stroke="#e03131" stroke-width="1.7" fill="none" stroke-linecap="round"></path></g><text x="640" y="516" font-family="Virgil, Segoe UI Emoji" font-size="15px" fill="#1e1e1e" text-anchor="middle" dominant-baseline="central" style="white-space:pre">Block Store</text><text x="640" y="535" font-family="Virgil, Segoe UI Emoji" font-size="12px" fill="#495057" text-anchor="middle" dominant-baseline="central" style="white-space:pre">S3 (dedup by hash)</text><g transform="translate(200 589)"><path d="M16 0 C183.18 -0.18, 351.14 0.16, 523.8 -0.1 C532.21 -0.56, 539.47 7.55, 540 16 C540.37 23, 540.52 29.23, 540.09 35.91 C539.81 44.75, 532.74 52.16, 524 52 C356.96 51.72, 188.83 51.51, 15.73 51.73 C7.75 51.41, -0.6 45.02, 0 36 C-0.1 28.84, 0.55 23.25, -0.12 16.1 C0.09 7.23, 7.75 -0.33, 16 0 Z" stroke="none" fill="#ffd8a8"></path><path d="M16 0 C184.66 -0.72, 350.89 -1.13, 523.62 0.33 C531.94 -1.04, 541.1 8.32, 540 16 C540.6 23.86, 538.94 30.02, 540.07 35.34 C541 45.24, 531.56 52.09, 524 52 C356.36 53.23, 189.03 52.25, 16.5 51.76 C5.93 52.63, -0.09 44.07, 0 36 C-0.92 28.95, -1.32 22.99, 0.1 16.49 C-1.35 5.89, 8.39 0.75, 16 0 M16 0 C183.36 -0.79, 350.32 -0.43, 524.64 -0.05 C533.78 -1.25, 539.54 7.33, 540 16 C538.83 21.58, 539.42 28.24, 539.92 36.18 C538.67 46.06, 533.62 51.16, 524 52 C355.51 51.6, 188.36 53.14, 16.07 51.76 C7.24 53.06, -0.07 44.14, 0 36 C0.46 29.38, -1.08 23.21, 0.69 15.39 C-0.99 7.66, 8.14 0.12, 16 0" stroke="#e8590c" stroke-width="1.7" fill="none" stroke-linecap="round"></path></g><text x="470" y="606" font-family="Virgil, Segoe UI Emoji" font-size="15px" fill="#1e1e1e" text-anchor="middle" dominant-baseline="central" style="white-space:pre">Apache Kafka</text><text x="470" y="625" font-family="Virgil, Segoe UI Emoji" font-size="12px" fill="#495057" text-anchor="middle" dominant-baseline="central" style="white-space:pre">change events</text><g transform="translate(835 657)"><path d="M16 0 C97.3 -0.56, 179.66 0.08, 264.29 -0.2 C273.29 -0.1, 279.47 7.05, 280 16 C279.61 27.55, 279.54 37.93, 280.27 50.14 C280.18 58.91, 272.67 65.58, 264 66 C181.86 66.34, 100.26 65.47, 15.78 65.88 C6.76 66.39, 0.44 59.04, 0 50 C0 38.62, 0.03 27.68, 0.09 15.88 C-0.46 7.07, 6.83 -0.44, 16 0 Z" stroke="none" fill="#a5d8ff"></path><path d="M16 0 C97.4 0.82, 180.7 0.56, 264.35 0.08 C272.08 -1.35, 280.86 5.86, 280 16 C279.46 26.27, 279.97 39.26, 279.63 50.6 C279.02 59.76, 271.97 65.17, 264 66 C181.97 65.39, 100.11 65.3, 15.78 65.37 C7.48 66.16, -0.32 58, 0 50 C1.31 40.09, -0.23 28.78, -0.29 15.64 C-0.89 6.45, 8.43 -1.08, 16 0 M16 0 C98.05 0.03, 179.23 1.31, 263.56 -0.12 C272.78 1.15, 281.28 6.42, 280 16 C280.36 27.92, 279.63 38.04, 280.08 50.63 C279.57 58.85, 273.41 65.07, 264 66 C182.69 67.31, 99.23 66.98, 15.43 66.63 C8.55 65.07, -1.2 59.26, 0 50 C0.08 39.06, 1.33 27.63, -0.4 16.53 C-0.96 7.46, 5.96 -0.53, 16 0" stroke="#1971c2" stroke-width="1.7" fill="none" stroke-linecap="round"></path></g><text x="975" y="681" font-family="Virgil, Segoe UI Emoji" font-size="15px" fill="#1e1e1e" text-anchor="middle" dominant-baseline="central" style="white-space:pre">Notification Service</text><text x="975" y="700" font-family="Virgil, Segoe UI Emoji" font-size="12px" fill="#495057" text-anchor="middle" dominant-baseline="central" style="white-space:pre">long-poll/WS · push changes</text><rect x="148" y="243" width="88" height="18" fill="#ffffff" stroke="none"></rect><text x="153" y="252" font-family="Virgil, Segoe UI Emoji" font-size="12.5px" fill="#495057" text-anchor="start" dominant-baseline="central" style="white-space:pre">Sync Service</text><rect x="830" y="628" width="107.5" height="18" fill="#ffffff" stroke="none"></rect><text x="835" y="637" font-family="Virgil, Segoe UI Emoji" font-size="12.5px" fill="#495057" text-anchor="start" dominant-baseline="central" style="white-space:pre">Storage Service</text><rect x="430.12" y="92.5" width="79.76" height="18" rx="6" ry="6" fill="#ffffff" fill-opacity="0.82" stroke="none"></rect><text x="470" y="101.5" font-family="Virgil, Segoe UI Emoji" font-size="11.5px" fill="#27313a" text-anchor="middle" dominant-baseline="central" style="white-space:pre">sync request</text><rect x="424.14" y="208.5" width="91.72" height="18" rx="6" ry="6" fill="#ffffff" fill-opacity="0.82" stroke="none"></rect><text x="470" y="217.5" font-family="Virgil, Segoe UI Emoji" font-size="11.5px" fill="#27313a" text-anchor="middle" dominant-baseline="central" style="white-space:pre">① local change</text><rect x="411.64" y="283" width="91.72" height="18" rx="6" ry="6" fill="#ffffff" fill-opacity="0.82" stroke="none"></rect><text x="457.5" y="292" font-family="Virgil, Segoe UI Emoji" font-size="11.5px" fill="#27313a" text-anchor="middle" dominant-baseline="central" style="white-space:pre">② chunk + hash</text><rect x="606.1" y="351" width="67.8" height="18" rx="6" ry="6" fill="#ffffff" fill-opacity="0.82" stroke="none"></rect><text x="640" y="360" font-family="Virgil, Segoe UI Emoji" font-size="11.5px" fill="#27313a" text-anchor="middle" dominant-baseline="central" style="white-space:pre">check hash</text><rect x="579.19" y="466" width="121.62" height="18" rx="6" ry="6" fill="#ffffff" fill-opacity="0.82" stroke="none"></rect><text x="640" y="475" font-family="Virgil, Segoe UI Emoji" font-size="11.5px" fill="#27313a" text-anchor="middle" dominant-baseline="central" style="white-space:pre">③ upload new blocks</text><rect x="228.16" y="351" width="103.68" height="18" rx="6" ry="6" fill="#ffffff" fill-opacity="0.82" stroke="none"></rect><text x="280" y="360" font-family="Virgil, Segoe UI Emoji" font-size="11.5px" fill="#27313a" text-anchor="middle" dominant-baseline="central" style="white-space:pre">④ commit version</text><rect x="329.14" y="536" width="91.72" height="18" rx="6" ry="6" fill="#ffffff" fill-opacity="0.82" stroke="none"></rect><text x="375" y="545" font-family="Virgil, Segoe UI Emoji" font-size="11.5px" fill="#27313a" text-anchor="middle" dominant-baseline="central" style="white-space:pre">⑤ change event</text><rect x="676.64" y="641" width="91.72" height="18" rx="6" ry="6" fill="#ffffff" fill-opacity="0.82" stroke="none"></rect><text x="722.5" y="650" font-family="Virgil, Segoe UI Emoji" font-size="11.5px" fill="#27313a" text-anchor="middle" dominant-baseline="central" style="white-space:pre">⑥ push changes</text><rect x="733.21" y="364" width="133.58" height="18" rx="6" ry="6" fill="#ffffff" fill-opacity="0.82" stroke="none"></rect><text x="800" y="373" font-family="Virgil, Segoe UI Emoji" font-size="11.5px" fill="#27313a" text-anchor="middle" dominant-baseline="central" style="white-space:pre">⑦ pull changed blocks</text></g>
</svg>
