<svg version="1.1" xmlns="http://www.w3.org/2000/svg" viewBox="0 0 1080 844" width="1080" height="844">
  <!-- svg-source:gen-whiteboards.js -->
  <defs><style class="style-fonts">
@font-face{font-family:"Virgil";src:url("https://unpkg.com/@excalidraw/excalidraw@0.17.6/dist//dist/excalidraw-assets/Virgil.woff2");}
</style></defs>
  <rect x="0" y="0" width="1080" height="844" fill="#ffffff"></rect>
  <text x="24" y="26" font-family="Virgil, Segoe UI Emoji" font-size="22px" fill="#1e1e1e" text-anchor="start" dominant-baseline="central" style="white-space:pre">E-commerce Inventory / Flash Sale — how you'd draw it live on the whiteboard</text>
  <text x="24" y="58" font-family="Virgil, Segoe UI Emoji" font-size="13px" fill="#868e96" text-anchor="start" dominant-baseline="central" style="white-space:pre">green = client   ·   grey = edge / LB   ·   blue = service   ·   red = datastore   ·   orange = queue / stream   ·   violet = 3rd-party</text>
  <g transform="translate(0 84)"><g transform="translate(258 250)"><path d="M18 0 C125.6 -0.04, 233.56 0.85, 346.28 0.47 C356.48 -0.63, 363.04 8.65, 364 18 C364.13 34.23, 363.99 49.44, 363.9 66.42 C364.24 76.16, 355.18 84.12, 346 84 C238.49 84.29, 130.21 83.03, 17.99 83.75 C8.23 83.17, 0.74 76.5, 0 66 C0.3 49.67, 0.49 34.9, -0.27 18.37 C0.54 7.26, 7.83 0.47, 18 0" stroke="#495057" stroke-width="1.8" fill="none" stroke-linecap="round" stroke-dasharray="8 9"></path></g><g transform="translate(258 414)"><path d="M18 0 C127.09 0.58, 235.38 0.18, 345.82 -0.37 C356.67 -0.47, 363.5 7.17, 364 18 C364.72 33.73, 364.85 50.39, 363.78 66.42 C363.48 75.03, 355.14 83.55, 346 84 C237.91 84.94, 129.75 83.21, 18.24 84.08 C7.62 84.75, -0.05 76.17, 0 66 C0.01 50.1, -0.21 33.53, 0.23 17.79 C-0.71 7.17, 8.91 -0.17, 18 0" stroke="#495057" stroke-width="1.8" fill="none" stroke-linecap="round" stroke-dasharray="8 9"></path></g><path d="M470 90 C469.25 101.43, 469.65 113.33, 469.76 123.72" stroke="#1e1e1e" stroke-width="1.6" fill="none" stroke-linecap="round"></path><path d="M470 124 L465.51 113.96 M470 124 L474.49 113.96" stroke="#1e1e1e" stroke-width="1.6" fill="none" stroke-linecap="round"></path><path d="M470 184 C470.28 206.66, 470.2 229.98, 469.86 253.49 C459.91 252.03, 450.58 253.11, 439.49 253.26 C439.03 255.03, 440 256.06, 439.55 258.84" stroke="#1e1e1e" stroke-width="1.6" fill="none" stroke-linecap="round"></path><path d="M440 259 L435.51 248.96 M440 259 L444.49 248.96" stroke="#1e1e1e" stroke-width="1.6" fill="none" stroke-linecap="round"></path><path d="M605 292 C652.26 292.82, 700.44 291.43, 749.55 291.91" stroke="#1e1e1e" stroke-width="1.6" fill="none" stroke-linecap="round"></path><path d="M750 292 L739.96 296.49 M750 292 L739.96 287.51" stroke="#1e1e1e" stroke-width="1.6" fill="none" stroke-linecap="round"></path><path d="M440 325 C439.82 356.6, 439.91 389.43, 439.85 423.21" stroke="#1e1e1e" stroke-width="1.6" fill="none" stroke-linecap="round"></path><path d="M440 423 L435.51 412.96 M440 423 L444.49 412.96" stroke="#1e1e1e" stroke-width="1.6" fill="none" stroke-linecap="round"></path><path d="M440 489 C440.85 512.91, 439.49 536.53, 439.9 562.08" stroke="#1e1e1e" stroke-width="1.6" fill="none" stroke-linecap="round"></path><path d="M440 562 L435.51 551.96 M440 562 L444.49 551.96" stroke="#1e1e1e" stroke-width="1.6" fill="none" stroke-linecap="round"></path><path d="M440 614 C441.08 627.63, 439.18 641.55, 440.1 655.7" stroke="#1e1e1e" stroke-width="1.6" fill="none" stroke-linecap="round"></path><path d="M440 656 L435.51 645.96 M440 656 L444.49 645.96" stroke="#1e1e1e" stroke-width="1.6" fill="none" stroke-linecap="round"></path><g transform="translate(290 38)"><path d="M16 0 C124.7 -0.55, 231.92 -0.46, 343.82 -0.02 C352.57 -0.43, 360.41 6.9, 360 16 C359.99 22.03, 360.42 28.62, 359.87 35.86 C360.29 45.3, 353.12 52.28, 344 52 C235.61 51.51, 127.82 52.5, 15.95 52.11 C7.59 51.86, 0.52 44.91, 0 36 C0.36 29.27, 0.29 23.12, -0.06 15.99 C-0.35 6.7, 7.03 0, 16 0 Z" stroke="none" fill="#b2f2bb"></path><path d="M16 0 C124.18 0.4, 231.73 -0.7, 344.38 -0.62 C352.14 1.25, 361.34 5.92, 360 16 C360.9 23.51, 360.65 28.88, 359.94 35.42 C359.99 45.47, 353.75 53.32, 344 52 C234.63 52.64, 126.96 52.67, 16.13 51.79 C7.41 51.88, -0.73 45.32, 0 36 C1.04 29.06, -1.13 21.97, -0.11 15.66 C0.26 8.55, 7.66 0.29, 16 0 M16 0 C125.61 1.28, 233.08 -0.49, 344.07 -0.48 C352.28 0.57, 359.68 7.91, 360 16 C360.18 23.45, 360.96 27.99, 359.39 35.32 C360.18 46, 353.09 52.4, 344 52 C236.31 52.49, 127.92 52.74, 15.36 51.82 C7.57 52.66, -1.4 45.08, 0 36 C0.84 29.75, -1.38 22.44, 0.28 16.47 C-0.4 6.86, 6.19 -0.78, 16 0" stroke="#2f9e44" stroke-width="1.7" fill="none" stroke-linecap="round"></path></g><text x="470" y="55" font-family="Virgil, Segoe UI Emoji" font-size="15px" fill="#1e1e1e" text-anchor="middle" dominant-baseline="central" style="white-space:pre">Buyers</text><text x="470" y="74" font-family="Virgil, Segoe UI Emoji" font-size="12px" fill="#495057" text-anchor="middle" dominant-baseline="central" style="white-space:pre">flash-sale shoppers · tap Buy</text><g transform="translate(265 124)"><path d="M16 0 C141.08 0.19, 265.98 -0.15, 393.97 -0.1 C402.41 0.1, 410.27 7.75, 410 16 C409.58 25.23, 409.83 33.91, 410 44.19 C409.62 52.89, 402.41 59.78, 394 60 C269.48 60.09, 144.22 59.44, 16.17 59.96 C7.27 59.77, -0.22 53.35, 0 44 C-0.16 35.31, -0.24 25.57, 0.21 15.7 C0.48 6.75, 7.69 0.42, 16 0 Z" stroke="none" fill="#dee2e6"></path><path d="M16 0 C139.35 -0.8, 264.21 -0.93, 394.25 0.58 C403.18 0.39, 411.04 5.97, 410 16 C408.8 24.4, 410.28 35.55, 410.11 44.12 C409.24 52.27, 403.33 60.52, 394 60 C268.64 58.89, 144.24 58.91, 16.08 60.37 C7.19 59.57, 1.33 53.43, 0 44 C-0.21 36.12, -0.81 25.58, -0.48 15.8 C-0.9 8.17, 8.02 1.24, 16 0 M16 0 C141.59 0.09, 265.33 0.36, 393.42 -0.16 C403.57 0.03, 410.93 7.01, 410 16 C409.4 24.43, 410.45 33.1, 409.4 44.53 C410.51 53.42, 401.51 60.83, 394 60 C269.57 60.28, 143.44 60.28, 15.73 60.16 C7.79 60.22, 0.24 52.46, 0 44 C-1.24 33.82, -0.62 26.77, 0.48 15.68 C0.36 8.34, 8.51 0.08, 16 0" stroke="#495057" stroke-width="1.7" fill="none" stroke-linecap="round"></path></g><text x="470" y="145" font-family="Virgil, Segoe UI Emoji" font-size="15px" fill="#1e1e1e" text-anchor="middle" dominant-baseline="central" style="white-space:pre">API Gateway + Waiting Room</text><text x="470" y="164" font-family="Virgil, Segoe UI Emoji" font-size="12px" fill="#495057" text-anchor="middle" dominant-baseline="central" style="white-space:pre">virtual queue · admission</text><g transform="translate(275 259)"><path d="M16 0 C114.54 -0.54, 212.92 0.28, 313.79 0.14 C322.94 -0.3, 330.56 7.21, 330 16 C330.04 27.6, 329.72 38.95, 329.96 50 C329.67 59.28, 323.35 66, 314 66 C215.42 65.65, 117.49 66.09, 16.12 65.89 C7.61 65.48, -0.42 58.6, 0 50 C0.56 38.61, 0.14 27.91, 0 16.29 C0.51 7.32, 7.13 -0.32, 16 0 Z" stroke="none" fill="#a5d8ff"></path><path d="M16 0 C113.31 0.48, 211.85 -1.26, 314.03 0.58 C322.85 -1.19, 331.03 8.58, 330 16 C330.15 27.15, 331.35 37.57, 329.73 50.53 C331.37 58.04, 321.92 65.81, 314 66 C214.53 66.33, 116.86 64.84, 16.46 65.52 C7.38 66.51, 0.05 57.46, 0 50 C-0.77 38.13, -0.42 28.18, 0.21 16.26 C0.77 7.68, 6.65 0.82, 16 0 M16 0 C114.92 -0.41, 213.84 -0.92, 314.66 0.57 C321.76 -0.62, 331.18 6.14, 330 16 C331.22 25.94, 330.23 39.74, 329.85 50.38 C330.41 59.74, 323.49 66.25, 314 66 C216.45 65.55, 116.75 65.33, 16.07 66 C7.99 67.06, -1.04 58.59, 0 50 C-0.33 39.86, -0.94 27.81, -0.54 15.6 C1.24 7, 7.75 1.2, 16 0" stroke="#1971c2" stroke-width="1.7" fill="none" stroke-linecap="round"></path></g><text x="440" y="283" font-family="Virgil, Segoe UI Emoji" font-size="15px" fill="#1e1e1e" text-anchor="middle" dominant-baseline="central" style="white-space:pre">Inventory Service</text><text x="440" y="302" font-family="Virgil, Segoe UI Emoji" font-size="12px" fill="#495057" text-anchor="middle" dominant-baseline="central" style="white-space:pre">atomic reserve / decrement</text><g transform="translate(750 259)"><path d="M16 0 C94.35 -0.39, 173.43 0.46, 254.2 0.09 C262.3 0.35, 269.79 6.65, 270 16 C270.48 27.61, 269.78 38.19, 269.84 50.15 C269.46 59.2, 262.81 66.24, 254 66 C174.9 66.29, 96.7 66.46, 15.97 65.74 C6.79 66.39, 0.21 58.26, 0 50 C0.21 38.52, -0.23 27.95, 0.13 16.02 C0.09 7.52, 7.02 0.15, 16 0 Z" stroke="none" fill="#ffc9c9"></path><path d="M16 0 C95.51 -1.12, 174.42 -0.58, 253.73 0.38 C263.19 -1.38, 271.15 8.35, 270 16 C269.98 26.31, 268.9 37.57, 269.84 50.61 C268.93 59.46, 262.78 64.81, 254 66 C175.94 67.11, 95.91 65.82, 15.98 65.75 C6.34 65.84, -0.03 57.81, 0 50 C0.2 39.62, -0.59 28.42, 0.68 16.27 C0.09 6.25, 6.68 -1.03, 16 0 M16 0 C93.64 -0.66, 173.61 -0.81, 254.54 0.25 C264.16 -0.29, 271.31 8.46, 270 16 C268.82 26.09, 271 39.61, 269.51 49.62 C269.89 59.56, 264.02 66.38, 254 66 C175.4 64.97, 96.3 66.74, 16.7 66.04 C6.62 66.59, -1.36 57.57, 0 50 C0.6 39.3, 0.18 27.93, -0.32 16.42 C-0.06 6.27, 5.84 -1.02, 16 0" stroke="#e03131" stroke-width="1.7" fill="none" stroke-linecap="round"></path></g><text x="885" y="283" font-family="Virgil, Segoe UI Emoji" font-size="15px" fill="#1e1e1e" text-anchor="middle" dominant-baseline="central" style="white-space:pre">Redis</text><text x="885" y="302" font-family="Virgil, Segoe UI Emoji" font-size="12px" fill="#495057" text-anchor="middle" dominant-baseline="central" style="white-space:pre">atomic DECR · reservation TTL</text><g transform="translate(275 423)"><path d="M16 0 C113.96 0.2, 212.71 -0.09, 313.85 0.25 C322.88 -0.43, 330.43 6.76, 330 16 C329.59 27.07, 330.56 37.86, 329.96 50.23 C329.88 58.61, 323.11 65.46, 314 66 C215.48 65.41, 117.59 66.56, 15.75 65.77 C6.64 65.76, 0.54 58.84, 0 50 C0.14 39.14, 0.11 28.03, 0.13 16.15 C0.2 7.39, 7.22 0.4, 16 0 Z" stroke="none" fill="#a5d8ff"></path><path d="M16 0 C114.5 0.81, 213.74 -0.15, 314.66 0.39 C323.9 0.97, 330.6 7.8, 330 16 C331.33 27, 329.8 38.92, 329.91 50.62 C329.31 59.63, 321.44 66.69, 314 66 C214.61 65.17, 118.17 66.95, 16.55 66.39 C8.21 65.89, -1.17 58.9, 0 50 C-0.72 38.43, -1.14 28.49, 0.67 15.44 C-1.06 7.04, 6.81 0.36, 16 0 M16 0 C114.3 -1.36, 212.9 -0.25, 314.68 -0.31 C322.9 -0.96, 330.19 7.06, 330 16 C329.77 26.2, 329.95 37.09, 329.81 49.55 C329.62 57.56, 323.43 66.36, 314 66 C214.28 66.03, 118.28 66.16, 15.36 65.44 C7.26 64.83, -1.3 58.69, 0 50 C-0.57 38.2, 0.14 27.45, -0.37 15.81 C-1.01 8.45, 6.78 -1.18, 16 0" stroke="#1971c2" stroke-width="1.7" fill="none" stroke-linecap="round"></path></g><text x="440" y="447" font-family="Virgil, Segoe UI Emoji" font-size="15px" fill="#1e1e1e" text-anchor="middle" dominant-baseline="central" style="white-space:pre">Order Service</text><text x="440" y="466" font-family="Virgil, Segoe UI Emoji" font-size="12px" fill="#495057" text-anchor="middle" dominant-baseline="central" style="white-space:pre">reserve → confirm</text><g transform="translate(180 562)"><path d="M16 0 C177.42 0.43, 337.89 0.33, 504.14 0.24 C513.1 0.3, 520.14 7.62, 520 16 C520.02 22.99, 519.92 28.74, 519.81 36.2 C520.02 44.71, 512.41 52.11, 504 52 C343.08 51.61, 182.14 52.23, 16.24 51.97 C7.79 51.48, -0.14 45.04, 0 36 C0.05 29.9, -0.12 22.36, -0.14 15.84 C0.27 7.14, 7.41 -0.35, 16 0 Z" stroke="none" fill="#ffd8a8"></path><path d="M16 0 C176.06 0.82, 337.77 -0.54, 504.53 -0.09 C511.65 -0.47, 521.14 8.03, 520 16 C518.69 23.79, 518.68 29.23, 520.25 36.09 C519.06 43.72, 512.69 51.72, 504 52 C342.35 52, 183.14 50.92, 15.45 52.26 C5.89 53.22, -1.01 45.04, 0 36 C-0.74 29.91, -1.08 22.11, -0.14 16.58 C0.41 6.49, 5.97 1.01, 16 0 M16 0 C176.66 -0.86, 338.17 -0.97, 504.61 -0.69 C513.35 0, 521.22 8.56, 520 16 C518.66 23.6, 521.38 30.47, 519.85 35.7 C520.84 43.92, 512.05 53.37, 504 52 C342.7 50.8, 183.26 53.39, 15.76 52.37 C7.57 53.28, -0.87 45.38, 0 36 C1.02 30.22, -1.38 21.42, -0.44 16.65 C0.43 7.7, 5.87 -0.76, 16 0" stroke="#e8590c" stroke-width="1.7" fill="none" stroke-linecap="round"></path></g><text x="440" y="579" font-family="Virgil, Segoe UI Emoji" font-size="15px" fill="#1e1e1e" text-anchor="middle" dominant-baseline="central" style="white-space:pre">Apache Kafka</text><text x="440" y="598" font-family="Virgil, Segoe UI Emoji" font-size="12px" fill="#495057" text-anchor="middle" dominant-baseline="central" style="white-space:pre">order events</text><g transform="translate(260 656)"><path d="M16 0 C124.07 -0.31, 232.47 0.43, 344.2 0.17 C352.76 0.29, 360.19 7.47, 360 16 C359.96 26.8, 360.06 36.93, 359.76 47.83 C360.53 56.7, 352.77 63.42, 344 64 C235.85 64.56, 127.37 64.01, 16 64.24 C6.7 64.14, -0.52 56.78, 0 48 C-0.37 37.46, 0.2 26.91, 0.27 16.05 C0.54 7.62, 7.5 0.58, 16 0 Z" stroke="none" fill="#ffc9c9"></path><path d="M16 0 C123.58 1.21, 231.15 0.78, 344 0.61 C351.47 1.02, 361.14 7.56, 360 16 C358.91 25.92, 359.17 36.35, 359.78 47.79 C361.15 56, 353.46 64.59, 344 64 C235.53 65.3, 128.25 64.74, 15.5 63.53 C8.52 63.59, 0.32 57.33, 0 48 C-0.1 37.56, -0.94 26.8, 0.5 16.56 C-0.06 7.33, 6.03 0.02, 16 0 M16 0 C124.45 -1.25, 233.85 1.05, 343.57 0.28 C353 -0.26, 360.28 7.26, 360 16 C360.5 26.88, 359.27 38.37, 359.84 48.09 C361.33 55.74, 352.53 64.22, 344 64 C234.45 64.01, 128.22 62.66, 15.56 63.87 C7.49 63.45, -1.32 56.7, 0 48 C0.86 37.07, -0.03 28.08, -0.37 15.56 C-0.29 7.52, 6.99 0.61, 16 0" stroke="#e03131" stroke-width="1.7" fill="none" stroke-linecap="round"></path></g><text x="440" y="679" font-family="Virgil, Segoe UI Emoji" font-size="15px" fill="#1e1e1e" text-anchor="middle" dominant-baseline="central" style="white-space:pre">Order / Inventory DB</text><text x="440" y="698" font-family="Virgil, Segoe UI Emoji" font-size="12px" fill="#495057" text-anchor="middle" dominant-baseline="central" style="white-space:pre">source of truth</text><rect x="271" y="241" width="120.5" height="18" fill="#ffffff" stroke="none"></rect><text x="276" y="250" font-family="Virgil, Segoe UI Emoji" font-size="12.5px" fill="#495057" text-anchor="start" dominant-baseline="central" style="white-space:pre">Inventory Service</text><rect x="271" y="405" width="94.5" height="18" fill="#ffffff" stroke="none"></rect><text x="276" y="414" font-family="Virgil, Segoe UI Emoji" font-size="12.5px" fill="#495057" text-anchor="start" dominant-baseline="central" style="white-space:pre">Order Service</text><rect x="451.05" y="98" width="37.9" height="18" rx="6" ry="6" fill="#ffffff" fill-opacity="0.82" stroke="none"></rect><text x="470" y="107" font-family="Virgil, Segoe UI Emoji" font-size="11.5px" fill="#27313a" text-anchor="middle" dominant-baseline="central" style="white-space:pre">① buy</text><rect x="421.15" y="209.5" width="97.7" height="18" rx="6" ry="6" fill="#ffffff" fill-opacity="0.82" stroke="none"></rect><text x="470" y="218.5" font-family="Virgil, Segoe UI Emoji" font-size="11.5px" fill="#27313a" text-anchor="middle" dominant-baseline="central" style="white-space:pre">② reserve stock</text><rect x="640.61" y="283" width="73.78" height="18" rx="6" ry="6" fill="#ffffff" fill-opacity="0.82" stroke="none"></rect><text x="677.5" y="292" font-family="Virgil, Segoe UI Emoji" font-size="11.5px" fill="#27313a" text-anchor="middle" dominant-baseline="central" style="white-space:pre">atomic DECR</text><rect x="379.19" y="365" width="121.62" height="18" rx="6" ry="6" fill="#ffffff" fill-opacity="0.82" stroke="none"></rect><text x="440" y="374" font-family="Virgil, Segoe UI Emoji" font-size="11.5px" fill="#27313a" text-anchor="middle" dominant-baseline="central" style="white-space:pre">③ reserve → confirm</text><rect x="394.14" y="516.5" width="91.72" height="18" rx="6" ry="6" fill="#ffffff" fill-opacity="0.82" stroke="none"></rect><text x="440" y="525.5" font-family="Virgil, Segoe UI Emoji" font-size="11.5px" fill="#27313a" text-anchor="middle" dominant-baseline="central" style="white-space:pre">④ order events</text><rect x="409.09" y="626" width="61.82" height="18" rx="6" ry="6" fill="#ffffff" fill-opacity="0.82" stroke="none"></rect><text x="440" y="635" font-family="Virgil, Segoe UI Emoji" font-size="11.5px" fill="#27313a" text-anchor="middle" dominant-baseline="central" style="white-space:pre">reconcile</text></g>
</svg>
