<?xml version="1.0" encoding="UTF-8"?>
<svg id="diagram" viewBox="0 0 1080 760" xmlns="http://www.w3.org/2000/svg" width="1080" height="760"><rect x="0" y="0" width="1080" height="760" fill="#ffffff"></rect><g><rect x="258" y="250" width="364" height="84" rx="14" ry="14" fill="#f8fafc" stroke="#64748b" stroke-width="1.6" stroke-dasharray="7 5"></rect><rect x="272" y="227" width="134.8" height="22" rx="7" ry="7" fill="#475569"></rect><text x="339.4" y="238" fill="#fff" font-size="11.5" font-weight="700" text-anchor="middle" dominant-baseline="central">▢ Inventory Service</text><rect x="258" y="414" width="364" height="84" rx="14" ry="14" fill="#f8fafc" stroke="#64748b" stroke-width="1.6" stroke-dasharray="7 5"></rect><rect x="272" y="391" width="109.2" height="22" rx="7" ry="7" fill="#475569"></rect><text x="326.6" y="402" fill="#fff" font-size="11.5" font-weight="700" text-anchor="middle" dominant-baseline="central">▢ Order Service</text></g><g><path d="M470,90 L470,124" fill="none" stroke="#55606a" stroke-width="1.9" stroke-linejoin="round" stroke-linecap="round"></path><polygon points="470,124 466.12627569593405,115.32565506703307 473.8737243040659,115.32565506703307" fill="#55606a"></polygon><path d="M470,184 L470,253 L440,253 L440,259" fill="none" stroke="#55606a" stroke-width="1.9" stroke-linejoin="round" stroke-linecap="round"></path><polygon points="440,259 436.12627569593405,250.32565506703307 443.8737243040659,250.32565506703307" fill="#55606a"></polygon><path d="M605,292 L750,292" fill="none" stroke="#55606a" stroke-width="1.9" stroke-linejoin="round" stroke-linecap="round"></path><polygon points="750,292 741.325655067033,295.87372430406595 741.325655067033,288.12627569593405" fill="#55606a"></polygon><path d="M440,325 L440,423" fill="none" stroke="#55606a" stroke-width="1.9" stroke-linejoin="round" stroke-linecap="round"></path><polygon points="440,423 436.12627569593405,414.3256550670331 443.8737243040659,414.3256550670331" fill="#55606a"></polygon><path d="M440,489 L440,562" fill="none" stroke="#55606a" stroke-width="1.9" stroke-linejoin="round" stroke-linecap="round"></path><polygon points="440,562 436.12627569593405,553.325655067033 443.8737243040659,553.325655067033" fill="#55606a"></polygon><path d="M440,614 L440,656" fill="none" stroke="#55606a" stroke-width="1.9" stroke-linejoin="round" stroke-linecap="round"></path><polygon points="440,656 436.12627569593405,647.325655067033 443.8737243040659,647.325655067033" fill="#55606a"></polygon></g><g><rect x="290" y="38" width="360" height="52" rx="9" ry="9" fill="#fff" stroke="#6c757d" stroke-width="1.7" filter="url(#sh)"></rect><path d="M290,61.92 V47 Q290,38 299,38 H641 Q650,38 650,47 V61.92 Z" fill="#6c757d"></path><text x="470" y="50.46" fill="#fff" font-weight="700" font-size="12.5" text-anchor="middle" dominant-baseline="central">Buyers</text><text x="470" y="75.96000000000001" fill="#3c454d" font-size="10.8" text-anchor="middle" dominant-baseline="central">flash-sale shoppers · tap Buy</text><rect x="265" y="124" width="410" height="60" rx="9" ry="9" fill="#fff" stroke="#4338ca" stroke-width="1.7" filter="url(#sh)"></rect><path d="M265,150 V133 Q265,124 274,124 H666 Q675,124 675,133 V150 Z" fill="#4f46e5"></path><text x="470" y="137.5" fill="#fff" font-weight="700" font-size="12.5" text-anchor="middle" dominant-baseline="central">API Gateway + Waiting Room</text><text x="470" y="167" fill="#3c454d" font-size="10.8" text-anchor="middle" dominant-baseline="central">virtual queue · admission</text><rect x="275" y="259" width="330" height="66" rx="9" ry="9" fill="#fff" stroke="#0F5BB5" stroke-width="1.7" filter="url(#sh)"></rect><path d="M275,285 V268 Q275,259 284,259 H596 Q605,259 605,268 V285 Z" fill="#0078D4"></path><text x="440" y="272.5" fill="#fff" font-weight="700" font-size="12.5" text-anchor="middle" dominant-baseline="central">Inventory Service</text><text x="440" y="305" fill="#3c454d" font-size="10.8" text-anchor="middle" dominant-baseline="central">atomic reserve / decrement</text><rect x="750" y="259" width="270" height="66" rx="9" ry="9" fill="#fff" stroke="#0A6E80" stroke-width="1.7" filter="url(#sh)"></rect><path d="M750,285 V268 Q750,259 759,259 H1011 Q1020,259 1020,268 V285 Z" fill="#0C8599"></path><text x="885" y="272.5" fill="#fff" font-weight="700" font-size="12.5" text-anchor="middle" dominant-baseline="central">Redis</text><text x="885" y="305" fill="#3c454d" font-size="10.8" text-anchor="middle" dominant-baseline="central">atomic DECR · reservation TTL</text><rect x="275" y="423" width="330" height="66" rx="9" ry="9" fill="#fff" stroke="#0F5BB5" stroke-width="1.7" filter="url(#sh)"></rect><path d="M275,449 V432 Q275,423 284,423 H596 Q605,423 605,432 V449 Z" fill="#0078D4"></path><text x="440" y="436.5" fill="#fff" font-weight="700" font-size="12.5" text-anchor="middle" dominant-baseline="central">Order Service</text><text x="440" y="469" fill="#3c454d" font-size="10.8" text-anchor="middle" dominant-baseline="central">reserve → confirm</text><rect x="180" y="562" width="520" height="52" rx="9" ry="9" fill="#fff" stroke="#C8590B" stroke-width="1.7" filter="url(#sh)"></rect><path d="M180,585.92 V571 Q180,562 189,562 H691 Q700,562 700,571 V585.92 Z" fill="#F7630C"></path><text x="440" y="574.46" fill="#fff" font-weight="700" font-size="12.5" text-anchor="middle" dominant-baseline="central">Apache Kafka</text><text x="440" y="599.9599999999999" fill="#3c454d" font-size="10.8" text-anchor="middle" dominant-baseline="central">order events</text><rect x="260" y="656" width="360" height="64" rx="9" ry="9" fill="#fff" stroke="#0A6E80" stroke-width="1.7" filter="url(#sh)"></rect><path d="M260,682 V665 Q260,656 269,656 H611 Q620,656 620,665 V682 Z" fill="#0C8599"></path><text x="440" y="669.5" fill="#fff" font-weight="700" font-size="12.5" text-anchor="middle" dominant-baseline="central">Order / Inventory DB</text><text x="440" y="701" fill="#3c454d" font-size="10.8" text-anchor="middle" dominant-baseline="central">source of truth</text></g><g><rect x="447.75" y="98" width="44.5" height="18" rx="9" ry="9" fill="#ffffff" stroke="#dde2e7" stroke-width="1"></rect><text x="470" y="107.5" fill="#27313a" font-size="10.8" font-weight="600" text-anchor="middle" dominant-baseline="central">① buy</text><rect x="417.25" y="209.5" width="105.5" height="18" rx="9" ry="9" fill="#ffffff" stroke="#dde2e7" stroke-width="1"></rect><text x="470" y="219" fill="#27313a" font-size="10.8" font-weight="600" text-anchor="middle" dominant-baseline="central">② reserve stock</text><rect x="636.95" y="283" width="81.1" height="18" rx="9" ry="9" fill="#ffffff" stroke="#dde2e7" stroke-width="1"></rect><text x="677.5" y="292.5" fill="#27313a" font-size="10.8" font-weight="600" text-anchor="middle" dominant-baseline="central">atomic DECR</text><rect x="375.05" y="365" width="129.89999999999998" height="18" rx="9" ry="9" fill="#ffffff" stroke="#dde2e7" stroke-width="1"></rect><text x="440" y="374.5" fill="#27313a" font-size="10.8" font-weight="600" text-anchor="middle" dominant-baseline="central">③ reserve → confirm</text><rect x="390.3" y="516.5" width="99.39999999999999" height="18" rx="9" ry="9" fill="#ffffff" stroke="#dde2e7" stroke-width="1"></rect><text x="440" y="526" fill="#27313a" font-size="10.8" font-weight="600" text-anchor="middle" dominant-baseline="central">④ order events</text><rect x="405.55" y="626" width="68.9" height="18" rx="9" ry="9" fill="#ffffff" stroke="#dde2e7" stroke-width="1"></rect><text x="440" y="635.5" fill="#27313a" font-size="10.8" font-weight="600" text-anchor="middle" dominant-baseline="central">reconcile</text></g><defs><filter id="sh" x="-20%" y="-20%" width="140%" height="140%"><feDropShadow dx="0" dy="1" stdDeviation="1.1" flood-color="#000" flood-opacity="0.13"></feDropShadow></filter></defs></svg>