<svg version="1.1" xmlns="http://www.w3.org/2000/svg" viewBox="0 0 1070 839" width="1070" height="839">
  <!-- svg-source:gen-whiteboards.js -->
  <defs><style class="style-fonts">
@font-face{font-family:"Virgil";src:url("https://unpkg.com/@excalidraw/excalidraw@0.17.6/dist//dist/excalidraw-assets/Virgil.woff2");}
</style></defs>
  <rect x="0" y="0" width="1070" height="839" fill="#ffffff"></rect>
  <text x="24" y="26" font-family="Virgil, Segoe UI Emoji" font-size="22px" fill="#1e1e1e" text-anchor="start" dominant-baseline="central" style="white-space:pre">Distributed Key-Value Store (Dynamo-style) — how you'd draw it live on the whiteboard</text>
  <text x="24" y="58" font-family="Virgil, Segoe UI Emoji" font-size="13px" fill="#868e96" text-anchor="start" dominant-baseline="central" style="white-space:pre">green = client   ·   grey = edge / LB   ·   blue = service   ·   red = datastore   ·   orange = queue / stream   ·   violet = 3rd-party</text>
  <g transform="translate(0 84)"><g transform="translate(22 188)"><path d="M18 0 C300.8 0.83, 586.38 -0.16, 877.83 0.15 C887.56 0.37, 895.2 8.5, 896 18 C895.63 83.14, 895.45 147.36, 895.84 214.49 C895.83 223.59, 887.89 231.61, 878 232 C594.96 231.59, 310.5 232.44, 17.67 232.19 C7.99 232.72, -0.38 223.34, 0 214 C0.94 149.34, -0.6 83.68, 0.44 17.79 C0.09 7.66, 8.32 0.57, 18 0" stroke="#495057" stroke-width="1.8" fill="none" stroke-linecap="round" stroke-dasharray="8 9"></path></g><path d="M450 86 C448.97 122.11, 450.69 159.77, 449.54 196.45" stroke="#1e1e1e" stroke-width="1.6" fill="none" stroke-linecap="round"></path><path d="M450 197 L445.51 186.96 M450 197 L454.49 186.96" stroke="#1e1e1e" stroke-width="1.6" fill="none" stroke-linecap="round"></path><path d="M450 267 C450.35 290.43, 451 314.16, 450.11 339.29" stroke="#1e1e1e" stroke-width="1.6" fill="none" stroke-linecap="round"></path><path d="M450 339 L445.51 328.96 M450 339 L454.49 328.96" stroke="#1e1e1e" stroke-width="1.6" fill="none" stroke-linecap="round"></path><path d="M450 405 C449.9 444.36, 449.67 482.7, 449.81 523.54" stroke="#1e1e1e" stroke-width="1.6" fill="none" stroke-linecap="round"></path><path d="M450 523 L445.51 512.96 M450 523 L454.49 512.96" stroke="#1e1e1e" stroke-width="1.6" fill="none" stroke-linecap="round"></path><path d="M450 589 C449.59 610.1, 449.37 633.1, 449.89 654.69" stroke="#1e1e1e" stroke-width="1.6" fill="none" stroke-linecap="round"></path><path d="M450 655 L445.51 644.96 M450 655 L454.49 644.96" stroke="#1e1e1e" stroke-width="1.6" fill="none" stroke-linecap="round"></path><path d="M245 232 C262.97 232.64, 282.33 232.64, 300.28 231.88" stroke="#1e1e1e" stroke-width="1.6" fill="none" stroke-linecap="round"></path><path d="M300 232 L289.96 236.49 M300 232 L289.96 227.51" stroke="#1e1e1e" stroke-width="1.6" fill="none" stroke-linecap="round"></path><path d="M680 232 C672.4 232.01, 667.35 232.33, 659.83 231.71 C660.26 338.12, 660.39 444.94, 660.29 556.51 C639.13 556.29, 620.94 555.6, 599.92 555.53" stroke="#1e1e1e" stroke-width="1.6" fill="none" stroke-linecap="round"></path><path d="M600 556 L610.04 551.51 M600 556 L610.04 560.49" stroke="#1e1e1e" stroke-width="1.6" fill="none" stroke-linecap="round"></path><g transform="translate(300 30)"><path d="M16 0 C104.18 0.55, 192.78 0.46, 283.75 -0.03 C292.69 -0.55, 300.58 7.55, 300 16 C300.13 24.47, 299.86 31.39, 299.94 39.91 C300.03 49.22, 293.06 56.01, 284 56 C195.77 55.98, 106.57 56.51, 16.01 56.23 C7.37 56.49, -0.16 49.01, 0 40 C-0.51 31.92, -0.18 24.32, 0.26 15.75 C-0.15 6.76, 7.03 -0.16, 16 0 Z" stroke="none" fill="#b2f2bb"></path><path d="M16 0 C104.96 -0.33, 193.74 -1.06, 284.27 -0.12 C293.93 0.1, 298.73 8.11, 300 16 C299.21 22.55, 299.18 31.28, 299.47 39.47 C299.97 48.29, 293.13 55.14, 284 56 C195.18 56.51, 108.15 56.1, 15.79 56.3 C8.29 55.02, -1.03 49.89, 0 40 C-1.02 31.98, 0.58 23.49, -0.59 15.81 C0.37 7.27, 6.14 -0.26, 16 0 M16 0 C104.15 0.13, 192.71 -1.03, 284.07 0.25 C291.62 -0.18, 300.07 7.66, 300 16 C299.92 24.9, 300.81 31.99, 299.39 40.66 C300.21 47.46, 293.08 56.89, 284 56 C196.67 55.92, 107.02 54.73, 15.68 55.83 C6.04 57.27, -1.28 49.04, 0 40 C0.13 30.88, -0.17 25.07, -0.14 16.54 C-1.15 7.43, 7 -0.42, 16 0" stroke="#2f9e44" stroke-width="1.7" fill="none" stroke-linecap="round"></path></g><text x="450" y="49" font-family="Virgil, Segoe UI Emoji" font-size="15px" fill="#1e1e1e" text-anchor="middle" dominant-baseline="central" style="white-space:pre">Clients</text><text x="450" y="68" font-family="Virgil, Segoe UI Emoji" font-size="12px" fill="#495057" text-anchor="middle" dominant-baseline="central" style="white-space:pre">any node = coordinator</text><g transform="translate(35 197)"><path d="M16 0 C74.25 0.11, 133.72 0.1, 193.76 0.07 C203.23 -0.34, 209.73 7.74, 210 16 C210.57 28.42, 209.66 40.67, 210.25 53.92 C209.9 62.21, 203.36 70.48, 194 70 C135.37 70.22, 76.23 69.87, 16.03 70.09 C7.14 69.85, -0.2 62.96, 0 54 C0.25 41.76, 0.08 28.99, -0.1 16 C-0.2 7.28, 7.21 -0.47, 16 0 Z" stroke="none" fill="#a5d8ff"></path><path d="M16 0 C73.69 1.26, 132.82 0.85, 193.41 -0.16 C203.48 1, 209.98 6.68, 210 16 C211.11 27.73, 209.87 40.58, 209.7 54.46 C211.29 64.05, 203.15 71.2, 194 70 C134.38 68.94, 76.91 69.64, 15.36 69.8 C8.16 69.35, 0.34 64.02, 0 54 C0.67 41.68, 1.11 29.23, -0.57 15.52 C0.89 8.14, 8.53 1.24, 16 0 M16 0 C75.2 0.81, 133.33 1.09, 193.62 -0.63 C202.65 1.38, 209.67 7.4, 210 16 C209.5 28.33, 210.72 41.74, 209.43 54.49 C211.14 63.32, 203.9 70.15, 194 70 C135.42 70.22, 76.53 71.12, 16.36 69.62 C6.38 68.76, 1.15 62.79, 0 54 C-0.24 41.61, -0.31 29.73, 0.64 16.47 C-0.98 6.88, 8.46 -1.08, 16 0" stroke="#1971c2" stroke-width="1.7" fill="none" stroke-linecap="round"></path></g><text x="140" y="223" font-family="Virgil, Segoe UI Emoji" font-size="15px" fill="#1e1e1e" text-anchor="middle" dominant-baseline="central" style="white-space:pre">Gossip</text><text x="140" y="242" font-family="Virgil, Segoe UI Emoji" font-size="12px" fill="#495057" text-anchor="middle" dominant-baseline="central" style="white-space:pre">membership / failure detection</text><g transform="translate(300 197)"><path d="M16 0 C104.82 0.22, 192.77 0.23, 283.94 0.12 C292.75 0.53, 300.25 6.69, 300 16 C300.56 28, 300.19 40.64, 300.25 54.13 C299.91 63.29, 292.67 69.73, 284 70 C195.17 69.89, 106.75 69.49, 15.75 69.86 C7.43 70.5, -0.17 62.49, 0 54 C0.03 41.39, 0.38 28.9, -0.26 15.99 C0.38 7.31, 7.64 -0.32, 16 0 Z" stroke="none" fill="#a5d8ff"></path><path d="M16 0 C104.33 0.92, 191.92 -0.98, 283.84 0.1 C293.05 1.12, 300.79 8.48, 300 16 C300.66 27.21, 299.69 41.67, 300.12 54.54 C300.86 62.05, 293.45 68.64, 284 70 C194.51 69.81, 106.59 69.67, 16.27 69.52 C6.87 69.27, -0.29 62.63, 0 54 C0.83 42.34, 0.66 29.55, 0.14 16.29 C0.22 6.72, 8.39 -0.46, 16 0 M16 0 C104.83 -0.33, 194.25 -1.4, 283.61 0.01 C293.07 -0.14, 301.29 6.84, 300 16 C300.68 28.79, 298.6 39.73, 299.54 53.39 C298.94 62.2, 293.04 71.23, 284 70 C196.32 70.35, 107.02 69.85, 15.53 69.32 C6.75 70.33, -0.03 63.86, 0 54 C-0.59 40.69, 0.59 30.17, -0.14 15.75 C-0.14 7.43, 7.83 -1.16, 16 0" stroke="#1971c2" stroke-width="1.7" fill="none" stroke-linecap="round"></path></g><text x="450" y="223" font-family="Virgil, Segoe UI Emoji" font-size="15px" fill="#1e1e1e" text-anchor="middle" dominant-baseline="central" style="white-space:pre">Node Ring</text><text x="450" y="242" font-family="Virgil, Segoe UI Emoji" font-size="12px" fill="#495057" text-anchor="middle" dominant-baseline="central" style="white-space:pre">consistent hashing + vnodes</text><g transform="translate(680 197)"><path d="M16 0 C79.22 0.25, 142.54 0.24, 208.29 0.25 C216.97 0.59, 224.36 7.23, 224 16 C224.53 29.03, 224.05 41.42, 223.89 53.89 C224.13 62.75, 216.49 70.21, 208 70 C144.06 69.5, 81.67 70.44, 16.29 69.89 C7.22 70.23, -0.6 63.35, 0 54 C0.47 41.26, -0.41 28.74, 0.28 15.96 C0.03 7.34, 6.79 0.03, 16 0 Z" stroke="none" fill="#a5d8ff"></path><path d="M16 0 C78.36 -0.06, 143.44 0.65, 207.76 -0.37 C217.83 1.17, 224.37 6.07, 224 16 C223.93 28.3, 224.42 40.17, 224 54.04 C224.8 63.77, 215.56 71.04, 208 70 C143.47 71.39, 81.87 71.07, 16.6 70.23 C6.11 71.36, 0.75 63.35, 0 54 C0.34 41.53, -0.44 28.33, -0.31 15.87 C-1.13 6.95, 7.04 -1.33, 16 0 M16 0 C78.62 0.31, 142.98 0.39, 208.45 -0.04 C215.95 -1.2, 224 8.26, 224 16 C224.84 29.32, 224.17 40.11, 223.69 53.5 C225.03 63.55, 217.04 69.36, 208 70 C145.66 70.76, 81.37 70.77, 15.89 70.46 C5.99 70.63, -1.34 62.32, 0 54 C1.01 42.11, -0.77 28.07, -0.66 16.07 C-0.83 7.64, 8.06 -0.37, 16 0" stroke="#1971c2" stroke-width="1.7" fill="none" stroke-linecap="round"></path></g><text x="792" y="223" font-family="Virgil, Segoe UI Emoji" font-size="15px" fill="#1e1e1e" text-anchor="middle" dominant-baseline="central" style="white-space:pre">Anti-Entropy</text><text x="792" y="242" font-family="Virgil, Segoe UI Emoji" font-size="10.8px" fill="#495057" text-anchor="middle" dominant-baseline="central" style="white-space:pre">Merkle · read-repair · hinted handoff</text><g transform="translate(300 339)"><path d="M16 0 C104.27 -0.47, 192.31 -0.32, 284.27 -0.28 C293.18 -0.16, 299.94 6.79, 300 16 C300 26.67, 300.4 38.02, 300.06 50.04 C300.13 59.03, 292.37 65.54, 284 66 C196.08 66.54, 107.62 66.35, 16.02 65.76 C7.28 66.15, 0.3 59.35, 0 50 C-0.39 39.28, -0.15 27.09, 0.11 15.73 C0.14 7.28, 6.87 -0.16, 16 0 Z" stroke="none" fill="#a5d8ff"></path><path d="M16 0 C105.74 -0.3, 191.71 -1.16, 283.92 -0.02 C292.6 0.03, 298.79 7.2, 300 16 C299.39 28.42, 300.14 37.34, 299.55 49.56 C300.86 59.71, 293.32 66.28, 284 66 C196.8 65.72, 108.01 65.6, 15.45 65.49 C6.19 67.29, -0.83 59.7, 0 50 C-1.05 39.53, -0.27 26.47, -0.26 15.62 C-0.78 7.34, 7.1 0.4, 16 0 M16 0 C103.78 -0.37, 193.02 -0.92, 283.53 -0.21 C292.68 -0.06, 298.93 5.82, 300 16 C298.66 27.3, 299.38 38.68, 300.61 49.69 C299.97 57.54, 293.93 66.78, 284 66 C196.09 66.23, 107.86 65.28, 15.47 65.37 C8.53 66.58, 0.42 58.51, 0 50 C-0.84 37.39, -0.87 28.26, -0.61 15.56 C-0.62 8.59, 8.39 -0.65, 16 0" stroke="#1971c2" stroke-width="1.7" fill="none" stroke-linecap="round"></path></g><text x="450" y="363" font-family="Virgil, Segoe UI Emoji" font-size="15px" fill="#1e1e1e" text-anchor="middle" dominant-baseline="central" style="white-space:pre">Quorum R/W</text><text x="450" y="382" font-family="Virgil, Segoe UI Emoji" font-size="12px" fill="#495057" text-anchor="middle" dominant-baseline="central" style="white-space:pre">W + R &gt; N · tunable</text><g transform="translate(300 523)"><path d="M16 0 C104.53 0.31, 192.5 -0.12, 283.91 0.06 C292.31 0.01, 300.35 6.7, 300 16 C299.43 26.94, 300.01 38.79, 299.76 50.16 C299.45 58.61, 292.64 66.24, 284 66 C196.02 66.12, 107.67 65.98, 16.28 65.83 C6.67 65.6, -0.48 58.57, 0 50 C0.53 39.13, 0.53 27.53, -0.03 15.87 C-0.16 6.82, 7.79 0.24, 16 0 Z" stroke="none" fill="#ffc9c9"></path><path d="M16 0 C105.34 -0.62, 192.07 -0.3, 283.76 -0.49 C292.21 0.8, 299.82 7.54, 300 16 C299.82 26.42, 298.96 37.94, 300.43 49.98 C300.24 57.73, 291.83 66.13, 284 66 C196.02 66.3, 106.3 65.85, 15.83 65.43 C6.41 65.89, -0.89 58.05, 0 50 C0.12 38.44, 1 28.08, -0.11 16.69 C1.39 6.68, 7.25 -1.19, 16 0 M16 0 C104.34 -0.09, 193.65 -0.36, 284.6 0.47 C293.08 0.02, 298.85 8.26, 300 16 C299.53 27.22, 299 38.5, 300.6 49.36 C300.63 58.02, 292.02 66.9, 284 66 C194.39 64.67, 106.71 66.61, 16.57 66.6 C8.13 67.29, 0.11 59.14, 0 50 C-1.07 37.87, -0.18 26.73, -0.36 16.6 C0.81 7.31, 6.27 -1.39, 16 0" stroke="#e03131" stroke-width="1.7" fill="none" stroke-linecap="round"></path></g><text x="450" y="547" font-family="Virgil, Segoe UI Emoji" font-size="15px" fill="#1e1e1e" text-anchor="middle" dominant-baseline="central" style="white-space:pre">Replicas (N)</text><text x="450" y="566" font-family="Virgil, Segoe UI Emoji" font-size="12px" fill="#495057" text-anchor="middle" dominant-baseline="central" style="white-space:pre">replication factor N</text><g transform="translate(300 655)"><path d="M16 0 C104.57 0.33, 192.62 0.37, 284.16 -0.24 C292.97 0.37, 300.07 6.88, 300 16 C300.26 27.19, 299.95 37.96, 300.01 49.92 C299.85 58.85, 292.97 65.41, 284 66 C195.76 66, 107.61 66.18, 16.02 66.08 C6.6 66.58, 0.54 59.18, 0 50 C-0.03 38.29, 0.08 27.27, 0.09 15.78 C0.08 7.51, 7.03 0.07, 16 0 Z" stroke="none" fill="#ffc9c9"></path><path d="M16 0 C105.49 -1.33, 192.72 -1.27, 284.6 0.49 C292.99 -0.83, 298.72 6.09, 300 16 C300.54 27.64, 298.65 39.17, 300.14 50.09 C300.23 58.9, 292.01 64.64, 284 66 C194.71 65.19, 107.61 65.45, 15.35 66 C6.01 65.74, 0.69 59.6, 0 50 C0.93 39.07, 0.47 28.31, -0.63 16.04 C1.35 6.94, 7.22 -0.78, 16 0 M16 0 C103.82 -0.64, 192.95 0.31, 284.33 0.35 C292.24 -0.62, 300.59 7.24, 300 16 C300.31 26.43, 299.64 39.21, 299.69 50.2 C300.46 58.09, 294.18 65.82, 284 66 C194.47 66.68, 106.49 64.79, 16.17 65.87 C7.32 66.31, 0.26 60.15, 0 50 C0.83 38.88, 0.4 27.42, -0.61 16.03 C-0.66 7.81, 7.25 -0.19, 16 0" stroke="#e03131" stroke-width="1.7" fill="none" stroke-linecap="round"></path></g><text x="450" y="679" font-family="Virgil, Segoe UI Emoji" font-size="15px" fill="#1e1e1e" text-anchor="middle" dominant-baseline="central" style="white-space:pre">Version Vectors</text><text x="450" y="698" font-family="Virgil, Segoe UI Emoji" font-size="12px" fill="#495057" text-anchor="middle" dominant-baseline="central" style="white-space:pre">conflict siblings</text><g transform="translate(685 464)"><path d="M16 0 C117.7 -0.01, 218.89 0.13, 323.98 -0.14 C332.54 -0.27, 340.15 6.79, 340 16 C340.47 29.46, 340.49 42.23, 339.84 56.29 C339.5 64.44, 332.21 72.55, 324 72 C222.86 71.95, 120.51 71.67, 15.98 72.13 C7.24 71.41, 0.35 64.42, 0 56 C-0.14 42.9, 0.32 29.46, 0.26 16.27 C-0.27 6.88, 7.08 -0.59, 16 0 Z" stroke="none" fill="#b2f2bb"></path><path d="M16 0 C117.12 -0.63, 219.94 -0.02, 323.41 0.4 C333.82 0.32, 340.92 7.58, 340 16 C340.58 29.14, 340.33 43.76, 340.35 56.29 C340.24 63.49, 332.02 73.01, 324 72 C221.61 72.57, 121.14 72.29, 16.44 72.12 C6.7 71.69, 0.8 64.04, 0 56 C-1.3 41.85, -0.74 30.05, -0.07 15.85 C0.71 8.53, 6.98 0.69, 16 0 M16 0 C118.7 1.29, 217.89 0.18, 324.45 -0.42 C332.15 0.08, 338.91 6.09, 340 16 C339.85 29.6, 339.54 42.32, 340.69 56.62 C339.46 64.65, 334.03 72.19, 324 72 C222.18 70.6, 119.92 72.18, 15.4 71.8 C7.89 73.4, -0.01 64.94, 0 56 C-0.09 41.65, -1.1 28.56, -0.13 15.68 C-0.52 7.2, 5.91 1.02, 16 0" stroke="#2f9e44" stroke-width="1.7" fill="none" stroke-linecap="round"></path></g><text x="855" y="491" font-family="Virgil, Segoe UI Emoji" font-size="15px" fill="#1e1e1e" text-anchor="middle" dominant-baseline="central" style="white-space:pre">Quorum: N=3, W=2, R=2</text><text x="855" y="510" font-family="Virgil, Segoe UI Emoji" font-size="12px" fill="#495057" text-anchor="middle" dominant-baseline="central" style="white-space:pre">W + R &gt; N ⇒ overlap ⇒ read sees latest write</text><rect x="35" y="179" width="88" height="18" fill="#ffffff" stroke="none"></rect><text x="40" y="188" font-family="Virgil, Segoe UI Emoji" font-size="12.5px" fill="#495057" text-anchor="start" dominant-baseline="central" style="white-space:pre">Storage Ring</text><rect x="374.24" y="132.5" width="151.52" height="18" rx="6" ry="6" fill="#ffffff" fill-opacity="0.82" stroke="none"></rect><text x="450" y="141.5" font-family="Virgil, Segoe UI Emoji" font-size="11.5px" fill="#27313a" text-anchor="middle" dominant-baseline="central" style="white-space:pre">① put(k,v) → coordinator</text><rect x="389.19" y="294" width="121.62" height="18" rx="6" ry="6" fill="#ffffff" fill-opacity="0.82" stroke="none"></rect><text x="450" y="303" font-family="Virgil, Segoe UI Emoji" font-size="11.5px" fill="#27313a" text-anchor="middle" dominant-baseline="central" style="white-space:pre">② hash → N replicas</text><rect x="386.2" y="455" width="127.6" height="18" rx="6" ry="6" fill="#ffffff" fill-opacity="0.82" stroke="none"></rect><text x="450" y="464" font-family="Virgil, Segoe UI Emoji" font-size="11.5px" fill="#27313a" text-anchor="middle" dominant-baseline="central" style="white-space:pre">③ write W · ④ read R</text><rect x="374.24" y="613" width="151.52" height="18" rx="6" ry="6" fill="#ffffff" fill-opacity="0.82" stroke="none"></rect><text x="450" y="622" font-family="Virgil, Segoe UI Emoji" font-size="11.5px" fill="#27313a" text-anchor="middle" dominant-baseline="central" style="white-space:pre">⑤ siblings + read-repair</text><rect x="614.14" y="385" width="91.72" height="18" rx="6" ry="6" fill="#ffffff" fill-opacity="0.82" stroke="none"></rect><text x="660" y="394" font-family="Virgil, Segoe UI Emoji" font-size="11.5px" fill="#27313a" text-anchor="middle" dominant-baseline="central" style="white-space:pre">hinted handoff</text></g>
</svg>
