<svg version="1.1" xmlns="http://www.w3.org/2000/svg" viewBox="0 0 1200 624" width="1200" height="624">
  <!-- svg-source:gen-whiteboards.js -->
  <defs><style class="style-fonts">
@font-face{font-family:"Virgil";src:url("https://unpkg.com/@excalidraw/excalidraw@0.17.6/dist//dist/excalidraw-assets/Virgil.woff2");}
</style></defs>
  <rect x="0" y="0" width="1200" height="624" fill="#ffffff"></rect>
  <text x="24" y="26" font-family="Virgil, Segoe UI Emoji" font-size="22px" fill="#1e1e1e" text-anchor="start" dominant-baseline="central" style="white-space:pre">Leaderboard / Ranking — how you'd draw it live on the whiteboard</text>
  <text x="24" y="58" font-family="Virgil, Segoe UI Emoji" font-size="13px" fill="#868e96" text-anchor="start" dominant-baseline="central" style="white-space:pre">green = client   ·   grey = edge / LB   ·   blue = service   ·   red = datastore   ·   orange = queue / stream   ·   violet = 3rd-party</text>
  <g transform="translate(0 84)"><g transform="translate(150 222)"><path d="M18 0 C303.08 -0.59, 587.47 0.11, 882.26 0.26 C892.26 -0.43, 899.99 7.82, 900 18 C900.82 40.48, 900.56 64.33, 900.29 88.38 C899.26 98.45, 891.05 106.56, 882 106 C597.59 106.05, 312.44 105.31, 18.43 105.94 C8.8 106.27, 0.85 98.82, 0 88 C0.36 64.33, 0.49 41.5, 0.37 18.3 C0.19 9.06, 7.7 -0.54, 18 0" stroke="#495057" stroke-width="1.8" fill="none" stroke-linecap="round" stroke-dasharray="8 9"></path></g><path d="M600 81 C599.91 94.9, 600.98 106.73, 599.52 119.99" stroke="#1e1e1e" stroke-width="1.6" fill="none" stroke-linecap="round"></path><path d="M600 120 L595.51 109.96 M600 120 L604.49 109.96" stroke="#1e1e1e" stroke-width="1.6" fill="none" stroke-linecap="round"></path><path d="M600 180 C600.06 198.26, 600.02 215.69, 600.28 233.28 C507.5 232.71, 415.62 233.85, 320.46 233.14 C319.77 238.58, 320.82 243.83, 319.66 247.59" stroke="#1e1e1e" stroke-width="1.6" fill="none" stroke-linecap="round"></path><path d="M320 248 L315.51 237.96 M320 248 L324.49 237.96" stroke="#1e1e1e" stroke-width="1.6" fill="none" stroke-linecap="round"></path><path d="M600 180 C600.11 197.28, 600.16 214.41, 600.11 233.09 C691.55 233.98, 784.54 232.97, 880.28 232.65 C879.21 238.96, 880.96 242.81, 879.96 248.28" stroke="#1e1e1e" stroke-width="1.6" fill="none" stroke-linecap="round"></path><path d="M880 248 L875.51 237.96 M880 248 L884.49 237.96" stroke="#1e1e1e" stroke-width="1.6" fill="none" stroke-linecap="round"></path><path d="M470 282 C513.9 281.93, 555.81 282.54, 599.98 282.35 C600.57 341.11, 600.98 400.49, 600.14 459.6 C643.3 458.93, 685.42 460.26, 730.1 459.94" stroke="#1e1e1e" stroke-width="1.6" fill="none" stroke-linecap="round"></path><path d="M730 460 L719.96 464.49 M730 460 L719.96 455.51" stroke="#1e1e1e" stroke-width="1.6" fill="none" stroke-linecap="round"></path><path d="M320 316 C320.63 350.89, 319.9 386.64, 320.1 421.53" stroke="#1e1e1e" stroke-width="1.6" fill="none" stroke-linecap="round"></path><path d="M320 422 L315.51 411.96 M320 422 L324.49 411.96" stroke="#1e1e1e" stroke-width="1.6" fill="none" stroke-linecap="round"></path><path d="M880 316 C880.27 351.96, 879.72 385.77, 879.87 421.56" stroke="#1e1e1e" stroke-width="1.6" fill="none" stroke-linecap="round"></path><path d="M880 422 L875.51 411.96 M880 422 L884.49 411.96" stroke="#1e1e1e" stroke-width="1.6" fill="none" stroke-linecap="round"></path><g transform="translate(440 31)"><path d="M16 0 C110.69 0.35, 206.2 -0.16, 304.05 -0.21 C312.65 -0.31, 319.79 7.77, 320 16 C319.91 22.4, 320.25 28.27, 320.28 33.84 C320.19 42.82, 312.49 49.98, 304 50 C209.06 49.41, 114.38 50.5, 16.09 49.87 C7.72 49.95, -0.57 42.33, 0 34 C-0.36 27.65, -0.46 22.66, -0.08 15.93 C-0.57 7.78, 7.6 0.25, 16 0 Z" stroke="none" fill="#b2f2bb"></path><path d="M16 0 C111.37 0.83, 206.67 -1.09, 304.55 -0.5 C312.1 -0.72, 319.12 8.3, 320 16 C320.57 22.63, 320.02 27.31, 320.63 34.1 C319.12 41.79, 312.19 49.3, 304 50 C207.62 50.37, 114.55 48.63, 15.76 50.03 C5.87 50.18, 0.38 43.56, 0 34 C0.72 29.41, 1.29 21.56, 0.05 16.43 C0.29 6.82, 6.9 -0.3, 16 0 M16 0 C109.73 1.32, 205.71 -0.55, 303.73 0.34 C311.91 0.44, 319.38 6.57, 320 16 C321.24 20.66, 320.27 28.94, 319.6 34.64 C319.06 43.75, 311.55 50.33, 304 50 C209.38 50.78, 114.03 49.18, 16.42 50.06 C6.88 49.58, -0.04 41.77, 0 34 C-1.25 26.82, 0.58 23.12, -0.29 15.47 C-1.15 6.65, 7.81 -0.42, 16 0" stroke="#2f9e44" stroke-width="1.7" fill="none" stroke-linecap="round"></path></g><text x="600" y="47" font-family="Virgil, Segoe UI Emoji" font-size="15px" fill="#1e1e1e" text-anchor="middle" dominant-baseline="central" style="white-space:pre">Game clients</text><text x="600" y="66" font-family="Virgil, Segoe UI Emoji" font-size="12px" fill="#495057" text-anchor="middle" dominant-baseline="central" style="white-space:pre">mobile · console · web</text><g transform="translate(400 120)"><path d="M16 0 C137.32 0.51, 258.61 -0.46, 384.02 0.29 C392.49 0.47, 399.47 7.03, 400 16 C399.51 25.65, 399.5 34.94, 400.04 44.21 C399.8 53.36, 393.29 60.51, 384 60 C262.54 60.06, 141.66 60.28, 16.06 59.9 C7.44 59.57, 0.32 52.84, 0 44 C-0.46 35.15, 0.25 25.67, -0.06 16.24 C-0.53 7.62, 7.44 -0.49, 16 0 Z" stroke="none" fill="#dee2e6"></path><path d="M16 0 C136.61 -0.71, 259.42 0.35, 383.48 -0.45 C391.65 0.46, 400.14 7.66, 400 16 C400.15 24.6, 399.47 34.19, 400.04 43.79 C398.75 53.48, 391.43 58.89, 384 60 C262.94 60.42, 139.73 60.43, 16.12 60.04 C7.42 60.02, -0.63 51.63, 0 44 C-0.47 33.66, 0.29 24.7, 0.36 15.87 C0.42 8.43, 6.89 0.96, 16 0 M16 0 C136.44 -1.17, 259.31 1.34, 384.42 -0.63 C391.49 0.46, 399.04 7.47, 400 16 C400.17 26.31, 400.35 34.85, 399.45 43.95 C399 53.98, 394.01 59.65, 384 60 C263.15 61, 141.44 61.16, 16.57 60.53 C5.85 59.88, 1.29 52.04, 0 44 C0.16 36, -0.06 24.75, -0.11 16.23 C-0.25 7.65, 7.48 0.29, 16 0" stroke="#495057" stroke-width="1.7" fill="none" stroke-linecap="round"></path></g><text x="600" y="141" font-family="Virgil, Segoe UI Emoji" font-size="15px" fill="#1e1e1e" text-anchor="middle" dominant-baseline="central" style="white-space:pre">API Gateway</text><text x="600" y="160" font-family="Virgil, Segoe UI Emoji" font-size="12px" fill="#495057" text-anchor="middle" dominant-baseline="central" style="white-space:pre">TLS · auth · routing · rate-limit</text><g transform="translate(170 248)"><path d="M16 0 C104.56 0.31, 192.39 -0.28, 283.74 0.08 C293.26 -0.34, 300.01 7.13, 300 16 C299.45 27.72, 300.4 39.88, 300.19 52.1 C300.44 60.3, 292.74 67.69, 284 68 C195.82 68.5, 106.82 67.41, 15.82 68.17 C7.35 68.46, -0.35 60.74, 0 52 C-0.53 40.48, -0.21 28.34, -0.17 15.89 C0.34 7.63, 7.41 -0.07, 16 0 Z" stroke="none" fill="#a5d8ff"></path><path d="M16 0 C104.44 0.32, 192.88 -0.29, 283.82 -0.4 C293.1 0.28, 300.58 6, 300 16 C301.25 26.94, 301.11 39.41, 299.39 51.67 C298.88 60.3, 292.09 68.18, 284 68 C195.39 68.11, 106.89 67.57, 16.38 68.38 C7.61 68.47, -1.27 60.12, 0 52 C0.44 39.62, -0.93 27.16, 0 16.69 C-1.24 6.49, 7.55 -1.14, 16 0 M16 0 C103.52 -0.61, 193.41 -1.34, 283.33 0.53 C292.59 0.48, 298.87 6.49, 300 16 C299.94 28.99, 299.47 38.5, 300.02 52.56 C300.6 60.89, 292.37 69.25, 284 68 C196.87 68.95, 107.8 67.05, 16.41 68.3 C5.97 67.84, 0.63 61.75, 0 52 C-0.34 40.3, 0.76 29.61, -0.04 15.36 C-0.61 7.54, 7.68 -0.52, 16 0" stroke="#1971c2" stroke-width="1.7" fill="none" stroke-linecap="round"></path></g><text x="320" y="273" font-family="Virgil, Segoe UI Emoji" font-size="15px" fill="#1e1e1e" text-anchor="middle" dominant-baseline="central" style="white-space:pre">Score Service</text><text x="320" y="292" font-family="Virgil, Segoe UI Emoji" font-size="12px" fill="#495057" text-anchor="middle" dominant-baseline="central" style="white-space:pre">submit score</text><g transform="translate(730 248)"><path d="M16 0 C104.91 0.25, 192.39 0.28, 283.95 0.01 C292.74 -0.51, 299.85 7.26, 300 16 C300.45 28, 299.67 40.15, 299.96 52.1 C300.41 61.26, 293.01 68.34, 284 68 C195.36 67.62, 106.63 67.75, 16 67.73 C7.55 68.15, 0.4 60.99, 0 52 C0.09 40.38, 0.38 27.91, 0.02 15.92 C0.32 7.66, 6.65 -0.28, 16 0 Z" stroke="none" fill="#a5d8ff"></path><path d="M16 0 C105.29 -1.25, 193.46 -0.62, 284.22 0.35 C291.71 0.06, 299.72 7.07, 300 16 C299.77 28.09, 300.14 41.03, 299.82 51.51 C299.66 61.72, 291.88 67.55, 284 68 C196.11 69.16, 106.84 68.46, 15.37 68.36 C6.2 67.23, 1.1 60.75, 0 52 C0.87 39.53, 0.74 27.69, 0.23 16.37 C0.92 8.57, 6.93 -0.97, 16 0 M16 0 C105.82 0.06, 192.93 -0.49, 284.05 -0.62 C291.5 -0.51, 299.46 6.44, 300 16 C300.58 28.62, 300.69 41.01, 300.04 52.58 C300.36 59.51, 293.33 69, 284 68 C195.74 67.33, 107.57 68.34, 16.56 67.5 C7.96 66.61, -1.08 60.58, 0 52 C0.21 39.13, 0.86 27.47, 0.22 16.2 C1.28 8.21, 8.14 -0.12, 16 0" stroke="#1971c2" stroke-width="1.7" fill="none" stroke-linecap="round"></path></g><text x="880" y="273" font-family="Virgil, Segoe UI Emoji" font-size="15px" fill="#1e1e1e" text-anchor="middle" dominant-baseline="central" style="white-space:pre">Query Service</text><text x="880" y="292" font-family="Virgil, Segoe UI Emoji" font-size="12px" fill="#495057" text-anchor="middle" dominant-baseline="central" style="white-space:pre">rank · top-N · around-me</text><g transform="translate(170 422)"><path d="M16 0 C104.7 -0.08, 192.56 -0.01, 283.95 -0.2 C293.23 -0.32, 299.47 7.01, 300 16 C300.25 30.15, 299.9 44.78, 300.01 59.77 C300.6 68.62, 292.37 76.52, 284 76 C195.34 75.94, 107.48 75.65, 16.2 76.17 C7.65 75.74, -0.26 68.82, 0 60 C0.26 45.74, -0.19 31.31, 0.2 15.8 C0.13 6.66, 7.21 -0.5, 16 0 Z" stroke="none" fill="#ffc9c9"></path><path d="M16 0 C105.07 1, 194.26 0.14, 284.11 0.13 C292.15 1.25, 300.76 7.03, 300 16 C301.13 31.18, 300.84 45.81, 300.49 59.91 C300.98 68.74, 292.39 77.16, 284 76 C196.45 75.57, 106.5 77.3, 15.68 75.45 C8.48 76.88, 0.19 69.39, 0 60 C0.68 46.23, 1.33 29.8, 0.23 15.39 C-1.03 6.51, 6.49 1.02, 16 0 M16 0 C104.46 -0.07, 193.34 -1.04, 284.51 0.66 C292.07 -0.47, 301.05 7.13, 300 16 C301.15 29.83, 300.86 43.7, 300.53 60.6 C299.5 68.5, 291.95 74.73, 284 76 C196.93 77.07, 106.74 77.17, 15.52 75.47 C7.84 77.27, 0.62 69.6, 0 60 C0.57 44.69, -0.64 30.92, -0.42 16.17 C-1.32 8.48, 6.52 -1.21, 16 0" stroke="#e03131" stroke-width="1.7" fill="none" stroke-linecap="round"></path></g><text x="320" y="451" font-family="Virgil, Segoe UI Emoji" font-size="15px" fill="#1e1e1e" text-anchor="middle" dominant-baseline="central" style="white-space:pre">Durable DB</text><text x="320" y="470" font-family="Virgil, Segoe UI Emoji" font-size="12px" fill="#495057" text-anchor="middle" dominant-baseline="central" style="white-space:pre">Cassandra (source of truth)</text><g transform="translate(730 422)"><path d="M16 0 C103.84 0.53, 192.84 0.41, 283.81 0.29 C292.59 0.59, 300.07 6.87, 300 16 C300.39 30.93, 299.69 45.22, 300.08 59.92 C300.4 69.27, 292.3 76.21, 284 76 C195.18 75.72, 107.13 75.79, 15.84 75.99 C7.42 76.38, 0.56 68.3, 0 60 C-0.16 45.08, 0.2 31.27, 0.01 16.04 C-0.21 6.81, 6.64 0.55, 16 0 Z" stroke="none" fill="#ffc9c9"></path><path d="M16 0 C103.99 -0.11, 191.73 -0.33, 284.15 -0.56 C291.62 -0.05, 299.77 6.37, 300 16 C299.27 30.17, 299.71 44.31, 300.39 60.34 C300.89 68.84, 292.29 75.1, 284 76 C194.8 76.57, 107.27 75.79, 15.35 76.51 C6.22 76.16, 0.33 69.74, 0 60 C1.3 45.16, -1.32 31.06, -0.56 16.7 C-1.24 6.37, 8.37 -0.6, 16 0 M16 0 C105.03 0.26, 193.88 0.49, 284.57 -0.66 C291.91 0.88, 301.24 8.2, 300 16 C299.03 30.17, 300.08 44.49, 299.31 60 C299.89 68.41, 292 74.97, 284 76 C196.82 75.79, 107.12 74.68, 16.61 76.02 C6.05 75.7, 1.04 68.03, 0 60 C0.73 45.13, -1.22 30.57, -0.6 16.38 C-1.32 7.34, 6.66 0.47, 16 0" stroke="#e03131" stroke-width="1.7" fill="none" stroke-linecap="round"></path></g><text x="880" y="451" font-family="Virgil, Segoe UI Emoji" font-size="15px" fill="#1e1e1e" text-anchor="middle" dominant-baseline="central" style="white-space:pre">Redis Sorted Sets</text><text x="880" y="470" font-family="Virgil, Segoe UI Emoji" font-size="12px" fill="#495057" text-anchor="middle" dominant-baseline="central" style="white-space:pre">sharded · ZADD / ZREVRANGE</text><rect x="163" y="213" width="133.5" height="18" fill="#ffffff" stroke="none"></rect><text x="168" y="222" font-family="Virgil, Segoe UI Emoji" font-size="12.5px" fill="#495057" text-anchor="start" dominant-baseline="central" style="white-space:pre">Leaderboard Service</text><rect x="572.08" y="91.5" width="55.84" height="18" rx="6" ry="6" fill="#ffffff" fill-opacity="0.82" stroke="none"></rect><text x="600" y="100.5" font-family="Virgil, Segoe UI Emoji" font-size="11.5px" fill="#27313a" text-anchor="middle" dominant-baseline="central" style="white-space:pre">requests</text><rect x="432.08" y="224" width="55.84" height="18" rx="6" ry="6" fill="#ffffff" fill-opacity="0.82" stroke="none"></rect><text x="460" y="233" font-family="Virgil, Segoe UI Emoji" font-size="11.5px" fill="#27313a" text-anchor="middle" dominant-baseline="central" style="white-space:pre">① submit</text><rect x="715.07" y="224" width="49.86" height="18" rx="6" ry="6" fill="#ffffff" fill-opacity="0.82" stroke="none"></rect><text x="740" y="233" font-family="Virgil, Segoe UI Emoji" font-size="11.5px" fill="#27313a" text-anchor="middle" dominant-baseline="central" style="white-space:pre">② query</text><rect x="584.04" y="362" width="31.92" height="18" rx="6" ry="6" fill="#ffffff" fill-opacity="0.82" stroke="none"></rect><text x="600" y="371" font-family="Virgil, Segoe UI Emoji" font-size="11.5px" fill="#27313a" text-anchor="middle" dominant-baseline="central" style="white-space:pre">ZADD</text><rect x="295.07" y="360" width="49.86" height="18" rx="6" ry="6" fill="#ffffff" fill-opacity="0.82" stroke="none"></rect><text x="320" y="369" font-family="Virgil, Segoe UI Emoji" font-size="11.5px" fill="#27313a" text-anchor="middle" dominant-baseline="central" style="white-space:pre">persist</text><rect x="849.09" y="360" width="61.82" height="18" rx="6" ry="6" fill="#ffffff" fill-opacity="0.82" stroke="none"></rect><text x="880" y="369" font-family="Virgil, Segoe UI Emoji" font-size="11.5px" fill="#27313a" text-anchor="middle" dominant-baseline="central" style="white-space:pre">ZREVRANGE</text></g>
</svg>
