<?xml version="1.0" encoding="UTF-8"?>
<svg id="diagram" viewBox="0 0 1200 540" xmlns="http://www.w3.org/2000/svg" width="1200" height="540"><rect x="0" y="0" width="1200" height="540" fill="#ffffff"></rect><g><rect x="150" y="222" width="900" height="106" rx="14" ry="14" fill="#f8fafc" stroke="#64748b" stroke-width="1.6" stroke-dasharray="7 5"></rect><rect x="164" y="199" width="147.60000000000002" height="22" rx="7" ry="7" fill="#475569"></rect><text x="237.8" y="210" fill="#fff" font-size="11.5" font-weight="700" text-anchor="middle" dominant-baseline="central">▢ Leaderboard Service</text></g><g><path d="M600,81 L600,120" fill="none" stroke="#55606a" stroke-width="1.9" stroke-linejoin="round" stroke-linecap="round"></path><polygon points="600,120 596.126275695934,111.32565506703307 603.873724304066,111.32565506703307" fill="#55606a"></polygon><path d="M600,180 L600,233 L320,233 L320,248" fill="none" stroke="#55606a" stroke-width="1.9" stroke-linejoin="round" stroke-linecap="round"></path><polygon points="320,248 316.12627569593405,239.32565506703307 323.8737243040659,239.32565506703307" fill="#55606a"></polygon><path d="M600,180 L600,233 L880,233 L880,248" fill="none" stroke="#55606a" stroke-width="1.9" stroke-linejoin="round" stroke-linecap="round"></path><polygon points="880,248 876.126275695934,239.32565506703307 883.873724304066,239.32565506703307" fill="#55606a"></polygon><path d="M470,282 L600,282 L600,460 L730,460" fill="none" stroke="#55606a" stroke-width="1.9" stroke-linejoin="round" stroke-linecap="round"></path><polygon points="730,460 721.325655067033,463.87372430406595 721.325655067033,456.12627569593405" fill="#55606a"></polygon><path d="M320,316 L320,422" fill="none" stroke="#aab2bb" stroke-width="1.6" stroke-linejoin="round" stroke-linecap="round" stroke-dasharray="6 5"></path><polygon points="320,422 316.12627569593405,413.3256550670331 323.8737243040659,413.3256550670331" fill="#aab2bb"></polygon><path d="M880,316 L880,422" fill="none" stroke="#55606a" stroke-width="1.9" stroke-linejoin="round" stroke-linecap="round"></path><polygon points="880,422 876.126275695934,413.3256550670331 883.873724304066,413.3256550670331" fill="#55606a"></polygon></g><g><rect x="440" y="31" width="320" height="50" rx="9" ry="9" fill="#fff" stroke="#6c757d" stroke-width="1.7" filter="url(#sh)"></rect><path d="M440,54 V40 Q440,31 449,31 H751 Q760,31 760,40 V54 Z" fill="#6c757d"></path><text x="600" y="43" fill="#fff" font-weight="700" font-size="12.5" text-anchor="middle" dominant-baseline="central">Game clients</text><text x="600" y="67.5" fill="#3c454d" font-size="10.8" text-anchor="middle" dominant-baseline="central">mobile · console · web</text><rect x="400" y="120" width="400" height="60" rx="9" ry="9" fill="#fff" stroke="#4338ca" stroke-width="1.7" filter="url(#sh)"></rect><path d="M400,146 V129 Q400,120 409,120 H791 Q800,120 800,129 V146 Z" fill="#4f46e5"></path><text x="600" y="133.5" fill="#fff" font-weight="700" font-size="12.5" text-anchor="middle" dominant-baseline="central">API Gateway</text><text x="600" y="163" fill="#3c454d" font-size="10.8" text-anchor="middle" dominant-baseline="central">TLS · auth · routing · rate-limit</text><rect x="170" y="248" width="300" height="68" rx="9" ry="9" fill="#fff" stroke="#0F5BB5" stroke-width="1.7" filter="url(#sh)"></rect><path d="M170,274 V257 Q170,248 179,248 H461 Q470,248 470,257 V274 Z" fill="#0078D4"></path><text x="320" y="261.5" fill="#fff" font-weight="700" font-size="12.5" text-anchor="middle" dominant-baseline="central">Score Service</text><text x="320" y="295" fill="#3c454d" font-size="10.8" text-anchor="middle" dominant-baseline="central">submit score</text><rect x="730" y="248" width="300" height="68" rx="9" ry="9" fill="#fff" stroke="#0F5BB5" stroke-width="1.7" filter="url(#sh)"></rect><path d="M730,274 V257 Q730,248 739,248 H1021 Q1030,248 1030,257 V274 Z" fill="#0078D4"></path><text x="880" y="261.5" fill="#fff" font-weight="700" font-size="12.5" text-anchor="middle" dominant-baseline="central">Query Service</text><text x="880" y="295" fill="#3c454d" font-size="10.8" text-anchor="middle" dominant-baseline="central">rank · top-N · around-me</text><rect x="170" y="422" width="300" height="76" rx="9" ry="9" fill="#fff" stroke="#0A6E80" stroke-width="1.7" filter="url(#sh)"></rect><path d="M170,448 V431 Q170,422 179,422 H461 Q470,422 470,431 V448 Z" fill="#0C8599"></path><text x="320" y="435.5" fill="#fff" font-weight="700" font-size="12.5" text-anchor="middle" dominant-baseline="central">Durable DB</text><text x="320" y="473" fill="#3c454d" font-size="10.8" text-anchor="middle" dominant-baseline="central">Cassandra (source of truth)</text><rect x="730" y="422" width="300" height="76" rx="9" ry="9" fill="#fff" stroke="#0A6E80" stroke-width="1.7" filter="url(#sh)"></rect><path d="M730,448 V431 Q730,422 739,422 H1021 Q1030,422 1030,431 V448 Z" fill="#0C8599"></path><text x="880" y="435.5" fill="#fff" font-weight="700" font-size="12.5" text-anchor="middle" dominant-baseline="central">Redis Sorted Sets</text><text x="880" y="473" fill="#3c454d" font-size="10.8" text-anchor="middle" dominant-baseline="central">sharded · ZADD / ZREVRANGE</text></g><g><rect x="568.6" y="91.5" width="62.8" height="18" rx="9" ry="9" fill="#ffffff" stroke="#dde2e7" stroke-width="1"></rect><text x="600" y="101" fill="#27313a" font-size="10.8" font-weight="600" text-anchor="middle" dominant-baseline="central">requests</text><rect x="428.6" y="224" width="62.8" height="18" rx="9" ry="9" fill="#ffffff" stroke="#dde2e7" stroke-width="1"></rect><text x="460" y="233.5" fill="#27313a" font-size="10.8" font-weight="600" text-anchor="middle" dominant-baseline="central">① submit</text><rect x="711.65" y="224" width="56.699999999999996" height="18" rx="9" ry="9" fill="#ffffff" stroke="#dde2e7" stroke-width="1"></rect><text x="740" y="233.5" fill="#27313a" font-size="10.8" font-weight="600" text-anchor="middle" dominant-baseline="central">② query</text><rect x="580.8" y="362" width="38.4" height="18" rx="9" ry="9" fill="#ffffff" stroke="#dde2e7" stroke-width="1"></rect><text x="600" y="371.5" fill="#27313a" font-size="10.8" font-weight="600" text-anchor="middle" dominant-baseline="central">ZADD</text><rect x="291.65" y="360" width="56.699999999999996" height="18" rx="9" ry="9" fill="#ffffff" stroke="#dde2e7" stroke-width="1"></rect><text x="320" y="369.5" fill="#27313a" font-size="10.8" font-weight="600" text-anchor="middle" dominant-baseline="central">persist</text><rect x="845.55" y="360" width="68.9" height="18" rx="9" ry="9" fill="#ffffff" stroke="#dde2e7" stroke-width="1"></rect><text x="880" y="369.5" fill="#27313a" font-size="10.8" font-weight="600" text-anchor="middle" dominant-baseline="central">ZREVRANGE</text></g><defs><filter id="sh" x="-20%" y="-20%" width="140%" height="140%"><feDropShadow dx="0" dy="1" stdDeviation="1.1" flood-color="#000" flood-opacity="0.13"></feDropShadow></filter></defs></svg>