<?xml version="1.0" encoding="UTF-8"?>
<svg id="diagram" viewBox="0 0 1200 660" xmlns="http://www.w3.org/2000/svg" width="1200" height="660"><rect x="0" y="0" width="1200" height="660" fill="#ffffff"></rect><g><rect x="70" y="208" width="332" height="312" rx="14" ry="14" fill="#f8fafc" stroke="#64748b" stroke-width="1.6" stroke-dasharray="7 5"></rect><rect x="84" y="185" width="90" height="22" rx="7" ry="7" fill="#475569"></rect><text x="129" y="196" fill="#fff" font-size="11.5" font-weight="700" text-anchor="middle" dominant-baseline="central">▢ Write Path</text><rect x="822" y="208" width="300" height="312" rx="14" ry="14" fill="#f8fafc" stroke="#64748b" stroke-width="1.6" stroke-dasharray="7 5"></rect><rect x="836" y="185" width="83.6" height="22" rx="7" ry="7" fill="#475569"></rect><text x="877.8" y="196" fill="#fff" font-size="11.5" font-weight="700" text-anchor="middle" dominant-baseline="central">▢ Read Path</text></g><g><path d="M540,76 L540,99" fill="none" stroke="#55606a" stroke-width="1.9" stroke-linejoin="round" stroke-linecap="round"></path><polygon points="540,99 536.126275695934,90.32565506703307 543.873724304066,90.32565506703307" fill="#55606a"></polygon><path d="M540,157 L540,188 L235,188 L235,220" fill="none" stroke="#55606a" stroke-width="1.9" stroke-linejoin="round" stroke-linecap="round"></path><polygon points="235,220 231.12627569593408,211.32565506703307 238.87372430406592,211.32565506703307" fill="#55606a"></polygon><path d="M355,252 L417.5,252 L417.5,236 L480,236" fill="none" stroke="#aab2bb" stroke-width="1.6" stroke-linejoin="round" stroke-linecap="round" stroke-dasharray="6 5"></path><polygon points="480,236 471.3256550670331,239.87372430406592 471.3256550670331,232.12627569593408" fill="#aab2bb"></polygon><path d="M235,284 L235,302 L600,302 L600,324" fill="none" stroke="#55606a" stroke-width="1.9" stroke-linejoin="round" stroke-linecap="round"></path><polygon points="600,324 596.126275695934,315.3256550670331 603.873724304066,315.3256550670331" fill="#55606a"></polygon><path d="M600,376 L600,402 L226,402 L226,430" fill="none" stroke="#55606a" stroke-width="1.9" stroke-linejoin="round" stroke-linecap="round"></path><polygon points="226,430 222.12627569593408,421.3256550670331 229.87372430406592,421.3256550670331" fill="#55606a"></polygon><path d="M226,502 L226,534 L600,534 L600,564" fill="none" stroke="#aab2bb" stroke-width="1.6" stroke-linejoin="round" stroke-linecap="round" stroke-dasharray="6 5"></path><polygon points="600,564 596.126275695934,555.325655067033 603.873724304066,555.325655067033" fill="#aab2bb"></polygon><path d="M378,466 L437,466" fill="none" stroke="#55606a" stroke-width="1.9" stroke-linejoin="round" stroke-linecap="round"></path><polygon points="437,466 428.3256550670331,469.87372430406595 428.3256550670331,462.12627569593405" fill="#55606a"></polygon><path d="M540,157 L540,188 L968,188 L968,220" fill="none" stroke="#55606a" stroke-width="1.9" stroke-linejoin="round" stroke-linecap="round"></path><polygon points="968,220 964.126275695934,211.32565506703307 971.873724304066,211.32565506703307" fill="#55606a"></polygon><path d="M836,252 L792,252 L792,466 L763,466" fill="none" stroke="#aab2bb" stroke-width="1.6" stroke-linejoin="round" stroke-linecap="round" stroke-dasharray="6 5"></path><polygon points="763,466 771.674344932967,462.12627569593405 771.674344932967,469.8737243040659" fill="#aab2bb"></polygon><path d="M968,284 L968,434" fill="none" stroke="#55606a" stroke-width="1.9" stroke-linejoin="round" stroke-linecap="round"></path><polygon points="968,434 964.126275695934,425.3256550670331 971.873724304066,425.3256550670331" fill="#55606a"></polygon><path d="M836,252 L800,252 L800,52 L690,52" fill="none" stroke="#55606a" stroke-width="1.9" stroke-linejoin="round" stroke-linecap="round"></path><polygon points="690,52 698.674344932967,48.12627569593408 698.674344932967,55.87372430406592" fill="#55606a"></polygon></g><g><rect x="390" y="28" width="300" height="48" rx="9" ry="9" fill="#fff" stroke="#6c757d" stroke-width="1.7" filter="url(#sh)"></rect><path d="M390,50.08 V37 Q390,28 399,28 H681 Q690,28 690,37 V50.08 Z" fill="#6c757d"></path><text x="540" y="39.54" fill="#fff" font-weight="700" font-size="12.5" text-anchor="middle" dominant-baseline="central">Clients</text><text x="540" y="63.04" fill="#3c454d" font-size="10.8" text-anchor="middle" dominant-baseline="central">web / mobile</text><rect x="365" y="99" width="350" height="58" rx="9" ry="9" fill="#fff" stroke="#4338ca" stroke-width="1.7" filter="url(#sh)"></rect><path d="M365,125 V108 Q365,99 374,99 H706 Q715,99 715,108 V125 Z" fill="#4f46e5"></path><text x="540" y="112.5" fill="#fff" font-weight="700" font-size="12.5" text-anchor="middle" dominant-baseline="central">API Gateway + CDN</text><text x="540" y="141" fill="#3c454d" font-size="10.8" text-anchor="middle" dominant-baseline="central">auth · static</text><rect x="115" y="220" width="240" height="64" rx="9" ry="9" fill="#fff" stroke="#0F5BB5" stroke-width="1.7" filter="url(#sh)"></rect><path d="M115,246 V229 Q115,220 124,220 H346 Q355,220 355,229 V246 Z" fill="#0078D4"></path><text x="235" y="233.5" fill="#fff" font-weight="700" font-size="12.5" text-anchor="middle" dominant-baseline="central">Tweet Service</text><text x="235" y="265" fill="#3c454d" font-size="10.8" text-anchor="middle" dominant-baseline="central">write tweet</text><rect x="74" y="430" width="304" height="72" rx="9" ry="9" fill="#fff" stroke="#0F5BB5" stroke-width="1.7" filter="url(#sh)"></rect><path d="M74,456 V439 Q74,430 83,430 H369 Q378,430 378,439 V456 Z" fill="#0078D4"></path><text x="226" y="443.5" fill="#fff" font-weight="700" font-size="12.5" text-anchor="middle" dominant-baseline="central">Fan-out Service</text><text x="226" y="479" fill="#3c454d" font-size="10.8" text-anchor="middle" dominant-baseline="central">push normal users / pull celebs (hybrid)</text><rect x="836" y="220" width="264" height="64" rx="9" ry="9" fill="#fff" stroke="#0F5BB5" stroke-width="1.7" filter="url(#sh)"></rect><path d="M836,246 V229 Q836,220 845,220 H1091 Q1100,220 1100,229 V246 Z" fill="#0078D4"></path><text x="968" y="233.5" fill="#fff" font-weight="700" font-size="12.5" text-anchor="middle" dominant-baseline="central">Feed Service</text><text x="968" y="265" fill="#3c454d" font-size="10.8" text-anchor="middle" dominant-baseline="central">read · merge · paginate</text><rect x="836" y="434" width="264" height="64" rx="9" ry="9" fill="#fff" stroke="#0F5BB5" stroke-width="1.7" filter="url(#sh)"></rect><path d="M836,460 V443 Q836,434 845,434 H1091 Q1100,434 1100,443 V460 Z" fill="#0078D4"></path><text x="968" y="447.5" fill="#fff" font-weight="700" font-size="12.5" text-anchor="middle" dominant-baseline="central">Ranking Service</text><text x="968" y="479" fill="#3c454d" font-size="10.8" text-anchor="middle" dominant-baseline="central">ranking signals</text><rect x="480" y="209" width="240" height="54" rx="9" ry="9" fill="#fff" stroke="#0A6E80" stroke-width="1.7" filter="url(#sh)"></rect><path d="M480,233.84 V218 Q480,209 489,209 H711 Q720,209 720,218 V233.84 Z" fill="#0C8599"></path><text x="600" y="221.92" fill="#fff" font-weight="700" font-size="12.5" text-anchor="middle" dominant-baseline="central">Tweet Store</text><text x="600" y="248.42000000000002" fill="#3c454d" font-size="10.8" text-anchor="middle" dominant-baseline="central">Cassandra</text><rect x="450" y="324" width="300" height="52" rx="9" ry="9" fill="#fff" stroke="#C8590B" stroke-width="1.7" filter="url(#sh)"></rect><path d="M450,347.92 V333 Q450,324 459,324 H741 Q750,324 750,333 V347.92 Z" fill="#F7630C"></path><text x="600" y="336.46" fill="#fff" font-weight="700" font-size="12.5" text-anchor="middle" dominant-baseline="central">Apache Kafka</text><text x="600" y="361.96000000000004" fill="#3c454d" font-size="10.8" text-anchor="middle" dominant-baseline="central">tweet events</text><rect x="437" y="434" width="326" height="64" rx="9" ry="9" fill="#fff" stroke="#0A6E80" stroke-width="1.7" filter="url(#sh)"></rect><path d="M437,460 V443 Q437,434 446,434 H754 Q763,434 763,443 V460 Z" fill="#0C8599"></path><text x="600" y="447.5" fill="#fff" font-weight="700" font-size="12.5" text-anchor="middle" dominant-baseline="central">Timeline Cache</text><text x="600" y="479" fill="#3c454d" font-size="10.8" text-anchor="middle" dominant-baseline="central">Redis sorted sets (per user)</text><rect x="456" y="564" width="288" height="56" rx="9" ry="9" fill="#fff" stroke="#0A6E80" stroke-width="1.7" filter="url(#sh)"></rect><path d="M456,589.76 V573 Q456,564 465,564 H735 Q744,564 744,573 V589.76 Z" fill="#0C8599"></path><text x="600" y="577.38" fill="#fff" font-weight="700" font-size="12.5" text-anchor="middle" dominant-baseline="central">Social Graph</text><text x="600" y="604.88" fill="#3c454d" font-size="10.8" text-anchor="middle" dominant-baseline="central">followers (Cassandra)</text></g><g><rect x="511.65" y="78.5" width="56.699999999999996" height="18" rx="9" ry="9" fill="#ffffff" stroke="#dde2e7" stroke-width="1"></rect><text x="540" y="88" fill="#27313a" font-size="10.8" font-weight="600" text-anchor="middle" dominant-baseline="central">request</text><rect x="496.4" y="163.5" width="87.19999999999999" height="18" rx="9" ry="9" fill="#ffffff" stroke="#dde2e7" stroke-width="1"></rect><text x="540" y="173" fill="#27313a" font-size="10.8" font-weight="600" text-anchor="middle" dominant-baseline="central">① post tweet</text><rect x="389.15" y="235" width="56.699999999999996" height="18" rx="9" ry="9" fill="#ffffff" stroke="#dde2e7" stroke-width="1"></rect><text x="417.5" y="244.5" fill="#27313a" font-size="10.8" font-weight="600" text-anchor="middle" dominant-baseline="central">persist</text><rect x="389.15" y="293" width="56.699999999999996" height="18" rx="9" ry="9" fill="#ffffff" stroke="#dde2e7" stroke-width="1"></rect><text x="417.5" y="302.5" fill="#27313a" font-size="10.8" font-weight="600" text-anchor="middle" dominant-baseline="central">② event</text><rect x="384.65" y="393" width="56.699999999999996" height="18" rx="9" ry="9" fill="#ffffff" stroke="#dde2e7" stroke-width="1"></rect><text x="413" y="402.5" fill="#27313a" font-size="10.8" font-weight="600" text-anchor="middle" dominant-baseline="central">consume</text><rect x="357.2" y="525" width="111.6" height="18" rx="9" ry="9" fill="#ffffff" stroke="#dde2e7" stroke-width="1"></rect><text x="413" y="534.5" fill="#27313a" font-size="10.8" font-weight="600" text-anchor="middle" dominant-baseline="central">lookup followers</text><rect x="382.2" y="457" width="50.599999999999994" height="18" rx="9" ry="9" fill="#ffffff" stroke="#dde2e7" stroke-width="1"></rect><text x="407.5" y="466.5" fill="#27313a" font-size="10.8" font-weight="600" text-anchor="middle" dominant-baseline="central">③ push</text><rect x="713.45" y="179" width="81.1" height="18" rx="9" ry="9" fill="#ffffff" stroke="#dde2e7" stroke-width="1"></rect><text x="754" y="188.5" fill="#27313a" font-size="10.8" font-weight="600" text-anchor="middle" dominant-baseline="central">④ read feed</text><rect x="772.8" y="350" width="38.4" height="18" rx="9" ry="9" fill="#ffffff" stroke="#dde2e7" stroke-width="1"></rect><text x="792" y="359.5" fill="#27313a" font-size="10.8" font-weight="600" text-anchor="middle" dominant-baseline="central">read</text><rect x="918.3" y="350" width="99.39999999999999" height="18" rx="9" ry="9" fill="#ffffff" stroke="#dde2e7" stroke-width="1"></rect><text x="968" y="359.5" fill="#27313a" font-size="10.8" font-weight="600" text-anchor="middle" dominant-baseline="central">⑤ merge + rank</text><rect x="735.05" y="143" width="129.89999999999998" height="18" rx="9" ry="9" fill="#ffffff" stroke="#dde2e7" stroke-width="1"></rect><text x="800" y="152.5" fill="#27313a" font-size="10.8" font-weight="600" text-anchor="middle" dominant-baseline="central">⑥ paginate (cursor)</text></g><defs><filter id="sh" x="-20%" y="-20%" width="140%" height="140%"><feDropShadow dx="0" dy="1" stdDeviation="1.1" flood-color="#000" flood-opacity="0.13"></feDropShadow></filter></defs></svg>