<svg version="1.1" xmlns="http://www.w3.org/2000/svg" viewBox="0 0 1200 744" width="1200" height="744">
  <!-- svg-source:gen-whiteboards.js -->
  <defs><style class="style-fonts">
@font-face{font-family:"Virgil";src:url("https://unpkg.com/@excalidraw/excalidraw@0.17.6/dist//dist/excalidraw-assets/Virgil.woff2");}
</style></defs>
  <rect x="0" y="0" width="1200" height="744" fill="#ffffff"></rect>
  <text x="24" y="26" font-family="Virgil, Segoe UI Emoji" font-size="22px" fill="#1e1e1e" text-anchor="start" dominant-baseline="central" style="white-space:pre">News Feed (Twitter / Facebook) — how you'd draw it live on the whiteboard</text>
  <text x="24" y="58" font-family="Virgil, Segoe UI Emoji" font-size="13px" fill="#868e96" text-anchor="start" dominant-baseline="central" style="white-space:pre">green = client   ·   grey = edge / LB   ·   blue = service   ·   red = datastore   ·   orange = queue / stream   ·   violet = 3rd-party</text>
  <g transform="translate(0 84)"><g transform="translate(70 208)"><path d="M18 0 C114.81 0.97, 213.96 -0.79, 313.8 -0.36 C323.35 0.51, 332.26 8.89, 332 18 C332.07 108.35, 332.26 200.01, 331.64 293.72 C331.92 304.53, 323.45 311.81, 314 312 C216.79 312.03, 118.14 312.5, 18.46 311.81 C7.87 312.87, 0.66 303.71, 0 294 C0.24 202.35, -0.16 110.88, 0.46 17.7 C0.67 8.44, 8.1 -0.25, 18 0" stroke="#495057" stroke-width="1.8" fill="none" stroke-linecap="round" stroke-dasharray="8 9"></path></g><g transform="translate(822 208)"><path d="M18 0 C104.95 -0.63, 191.53 -0.87, 281.61 0.06 C292.76 -0.59, 300.68 8.35, 300 18 C300.98 109.02, 300.39 199.57, 300.44 294.36 C299.85 303.3, 291.72 311.72, 282 312 C195.31 311.89, 108.02 311.15, 17.84 311.67 C8.87 311.16, -0.31 303.38, 0 294 C-0.17 203.66, 0.69 111.12, 0.41 17.68 C-0.71 7.5, 7.31 0.97, 18 0" stroke="#495057" stroke-width="1.8" fill="none" stroke-linecap="round" stroke-dasharray="8 9"></path></g><path d="M540 76 C540.3 84.35, 538.92 92.16, 540.25 98.77" stroke="#1e1e1e" stroke-width="1.6" fill="none" stroke-linecap="round"></path><path d="M540 99 L535.51 88.96 M540 99 L544.49 88.96" stroke="#1e1e1e" stroke-width="1.6" fill="none" stroke-linecap="round"></path><path d="M540 157 C539.96 167.68, 540.2 178.51, 540.54 187.73 C439.44 187.79, 338.92 187.61, 235.43 187.84 C235.22 198.51, 235.8 208.07, 234.68 220.15" stroke="#1e1e1e" stroke-width="1.6" fill="none" stroke-linecap="round"></path><path d="M235 220 L230.51 209.96 M235 220 L239.49 209.96" stroke="#1e1e1e" stroke-width="1.6" fill="none" stroke-linecap="round"></path><path d="M355 252 C375.25 251.43, 396.74 252.66, 417.55 252.53 C418.45 246.6, 417.88 241.74, 417.88 236.17 C438.4 235.9, 458.93 236.69, 480.04 235.55" stroke="#1e1e1e" stroke-width="1.6" fill="none" stroke-linecap="round"></path><path d="M480 236 L469.96 240.49 M480 236 L469.96 231.51" stroke="#1e1e1e" stroke-width="1.6" fill="none" stroke-linecap="round"></path><path d="M235 284 C235.03 290.86, 234.8 295.91, 234.48 301.9 C355.1 301.2, 475.63 302.94, 599.9 302.41 C599.88 308.51, 599.15 316.15, 600.24 324.51" stroke="#1e1e1e" stroke-width="1.6" fill="none" stroke-linecap="round"></path><path d="M600 324 L595.51 313.96 M600 324 L604.49 313.96" stroke="#1e1e1e" stroke-width="1.6" fill="none" stroke-linecap="round"></path><path d="M600 376 C599.04 384.89, 601 393.23, 599.86 402.09 C477.33 401.24, 352.86 401.24, 225.58 401.51 C226.02 411.56, 226.93 421.24, 226.25 429.95" stroke="#1e1e1e" stroke-width="1.6" fill="none" stroke-linecap="round"></path><path d="M226 430 L221.51 419.96 M226 430 L230.49 419.96" stroke="#1e1e1e" stroke-width="1.6" fill="none" stroke-linecap="round"></path><path d="M226 502 C226.44 513.23, 225.98 523.72, 226.44 534.09 C349.94 534.08, 471.95 533.33, 600.44 534.23 C599.19 544.88, 599.81 553.67, 600.4 563.6" stroke="#1e1e1e" stroke-width="1.6" fill="none" stroke-linecap="round"></path><path d="M600 564 L595.51 553.96 M600 564 L604.49 553.96" stroke="#1e1e1e" stroke-width="1.6" fill="none" stroke-linecap="round"></path><path d="M378 466 C397.35 466.12, 415.88 466.53, 437.54 465.79" stroke="#1e1e1e" stroke-width="1.6" fill="none" stroke-linecap="round"></path><path d="M437 466 L426.96 470.49 M437 466 L426.96 461.51" stroke="#1e1e1e" stroke-width="1.6" fill="none" stroke-linecap="round"></path><path d="M540 157 C538.96 167.05, 539.54 178.26, 539.56 187.67 C681.95 188.15, 822.38 188.44, 968.03 188.51 C967.12 198.42, 967.71 209.78, 968.22 220.06" stroke="#1e1e1e" stroke-width="1.6" fill="none" stroke-linecap="round"></path><path d="M968 220 L963.51 209.96 M968 220 L972.49 209.96" stroke="#1e1e1e" stroke-width="1.6" fill="none" stroke-linecap="round"></path><path d="M836 252 C820.4 251.21, 806.19 251.72, 792.47 252.48 C791.21 321.82, 792.01 392.23, 792.2 466.01 C782.51 466.04, 772.68 466.36, 763.36 466.16" stroke="#1e1e1e" stroke-width="1.6" fill="none" stroke-linecap="round"></path><path d="M763 466 L773.04 461.51 M763 466 L773.04 470.49" stroke="#1e1e1e" stroke-width="1.6" fill="none" stroke-linecap="round"></path><path d="M968 284 C968.04 333.53, 968.36 383.21, 967.65 433.47" stroke="#1e1e1e" stroke-width="1.6" fill="none" stroke-linecap="round"></path><path d="M968 434 L963.51 423.96 M968 434 L972.49 423.96" stroke="#1e1e1e" stroke-width="1.6" fill="none" stroke-linecap="round"></path><path d="M836 252 C824.46 252.12, 812.56 251.13, 800.16 252.52 C799.59 186.88, 801.03 121.03, 800.54 52.51 C762.96 52.92, 726.43 51.19, 690.29 51.76" stroke="#1e1e1e" stroke-width="1.6" fill="none" stroke-linecap="round"></path><path d="M690 52 L700.04 47.51 M690 52 L700.04 56.49" stroke="#1e1e1e" stroke-width="1.6" fill="none" stroke-linecap="round"></path><g transform="translate(390 28)"><path d="M16 0 C104.2 -0.36, 192.74 0.06, 283.79 0.19 C293.04 0.03, 299.42 7.06, 300 16 C300.01 21.85, 299.66 26.37, 300.23 32.13 C300 40.3, 292.34 47.55, 284 48 C195.67 48.23, 107.5 48.19, 16.09 48.14 C7.52 47.81, 0.51 40.95, 0 32 C0.15 27.15, -0.16 22.04, 0.25 15.87 C0.5 7.38, 7.77 -0.35, 16 0 Z" stroke="none" fill="#b2f2bb"></path><path d="M16 0 C104.31 0.42, 191.76 -0.31, 284.05 0.47 C291.42 -0.6, 299.14 6.79, 300 16 C299.18 20.14, 299.27 27.78, 299.33 31.59 C301.34 42.02, 291.94 46.64, 284 48 C194.67 47.85, 108.23 48.22, 16.28 48.43 C8.3 47.17, -0.51 40.28, 0 32 C-1.22 27.24, -0.36 21.97, -0.21 15.87 C0.73 6.47, 7.34 -1.24, 16 0 M16 0 C105.09 0.5, 191.93 -0.86, 283.57 0.07 C292.06 0.89, 301.16 7.88, 300 16 C301.07 21.1, 299.3 25.19, 299.47 32.35 C301.22 40.08, 292.14 48.55, 284 48 C195.15 48.88, 108.36 49.32, 15.38 48.59 C7.43 49.34, 0.72 40.51, 0 32 C-0.51 26.27, -0.34 22.51, -0.14 15.47 C0.37 7.92, 7.42 -1.03, 16 0" stroke="#2f9e44" stroke-width="1.7" fill="none" stroke-linecap="round"></path></g><text x="540" y="43" font-family="Virgil, Segoe UI Emoji" font-size="15px" fill="#1e1e1e" text-anchor="middle" dominant-baseline="central" style="white-space:pre">Clients</text><text x="540" y="62" font-family="Virgil, Segoe UI Emoji" font-size="12px" fill="#495057" text-anchor="middle" dominant-baseline="central" style="white-space:pre">web / mobile</text><g transform="translate(365 99)"><path d="M16 0 C120.74 0.37, 226.21 0.2, 334.13 -0.15 C342.22 -0.04, 350.57 7.29, 350 16 C350.47 24.8, 350.3 33.15, 349.77 41.83 C350.2 50.41, 343.39 58.35, 334 58 C229.46 58.08, 124.28 57.91, 16.12 58.16 C6.6 58.33, -0.13 51.22, 0 42 C0.24 33.65, 0.05 24.79, 0.12 16.14 C0.55 7.05, 7.31 -0.44, 16 0 Z" stroke="none" fill="#dee2e6"></path><path d="M16 0 C120.67 -0.86, 224.78 1.2, 333.75 -0.08 C342.62 -1.24, 350.89 5.97, 350 16 C348.92 24.11, 350.92 32.59, 350.59 42.27 C348.78 51.03, 342.09 58.75, 334 58 C228.82 57.74, 124.51 57.21, 15.95 57.98 C6.91 59.18, -0.61 49.61, 0 42 C1.01 33.32, 0.56 25.32, 0.62 15.77 C-0.35 8.11, 8.25 -0.31, 16 0 M16 0 C120.64 0.15, 227.27 0.85, 333.47 0.15 C341.5 -0.57, 349.29 7.03, 350 16 C348.86 24.32, 348.63 34.33, 349.59 42.54 C349.58 51.91, 341.93 59.38, 334 58 C229.39 58.89, 123.86 56.68, 15.7 58.18 C7.58 59.37, 0.24 50.43, 0 42 C-1.09 34.26, 0.49 25.35, -0.43 16.38 C0.77 6.67, 7.38 -0.49, 16 0" stroke="#495057" stroke-width="1.7" fill="none" stroke-linecap="round"></path></g><text x="540" y="119" font-family="Virgil, Segoe UI Emoji" font-size="15px" fill="#1e1e1e" text-anchor="middle" dominant-baseline="central" style="white-space:pre">API Gateway + CDN</text><text x="540" y="138" font-family="Virgil, Segoe UI Emoji" font-size="12px" fill="#495057" text-anchor="middle" dominant-baseline="central" style="white-space:pre">auth · static</text><g transform="translate(115 220)"><path d="M16 0 C84.13 0.16, 153.55 0.1, 223.82 0.2 C233.19 -0.15, 240.31 6.61, 240 16 C239.84 26.56, 240.27 36.67, 239.99 48.25 C240 57.22, 232.46 63.9, 224 64 C155.16 63.94, 86.6 63.47, 15.81 63.79 C7 64.43, 0.59 56.85, 0 48 C-0.06 37.45, -0.25 26.63, 0.02 15.85 C-0.5 6.96, 6.65 0.09, 16 0 Z" stroke="none" fill="#a5d8ff"></path><path d="M16 0 C83.87 -1.31, 153.73 -0.72, 224.41 -0.03 C232.83 -1.33, 239.01 8.16, 240 16 C239.82 25.25, 239.98 37.8, 240.58 48.25 C238.75 55.47, 233.44 65.24, 224 64 C155.75 62.62, 86.91 63.84, 16.59 64.66 C7.55 64.6, -0.21 57.28, 0 48 C0.42 36.05, 0.18 25.76, -0.38 15.85 C-0.4 8.06, 8.33 1.35, 16 0 M16 0 C84.16 0.95, 152.14 0.46, 223.52 -0.22 C231.94 -1.28, 239.38 6.47, 240 16 C240.87 26.25, 239.14 35.73, 239.6 48.5 C240.9 57.1, 231.84 64.11, 224 64 C155.43 63.34, 86.77 63.47, 16.41 63.96 C6.45 62.64, 1.33 55.63, 0 48 C1.33 36.62, -0.76 26.87, 0.62 16.52 C-1.33 6.76, 8.57 1.39, 16 0" stroke="#1971c2" stroke-width="1.7" fill="none" stroke-linecap="round"></path></g><text x="235" y="243" font-family="Virgil, Segoe UI Emoji" font-size="15px" fill="#1e1e1e" text-anchor="middle" dominant-baseline="central" style="white-space:pre">Tweet Service</text><text x="235" y="262" font-family="Virgil, Segoe UI Emoji" font-size="12px" fill="#495057" text-anchor="middle" dominant-baseline="central" style="white-space:pre">write tweet</text><g transform="translate(74 430)"><path d="M16 0 C106.21 -0.21, 195.68 -0.48, 287.77 0.11 C296.76 0.34, 304.05 7.67, 304 16 C303.72 28.72, 304.14 42.83, 303.83 56.25 C303.9 64.37, 296.2 72.06, 288 72 C197.9 72.25, 108.65 71.72, 15.78 72.09 C6.79 71.54, 0.1 64.3, 0 56 C-0.03 42.82, 0.52 30.1, 0.18 15.98 C0.08 7.71, 7.35 -0.28, 16 0 Z" stroke="none" fill="#a5d8ff"></path><path d="M16 0 C105 0.08, 196.5 0.64, 287.77 0.14 C297.06 -0.56, 304.82 7.41, 304 16 C303.57 29.74, 304.87 42.75, 303.65 56.29 C304.86 64.78, 296.2 71.47, 288 72 C198.53 71.91, 109.81 73.26, 16.69 71.32 C7.23 72.12, 1.14 64.79, 0 56 C0.74 43.73, -0.08 29.26, -0.3 15.97 C0.35 6.4, 7.8 -0.67, 16 0 M16 0 C106.62 -0.44, 194.64 0.02, 288.61 0.37 C297.02 0.71, 304.8 7.41, 304 16 C305 29.78, 305.12 42.86, 304.69 55.68 C304.13 63.88, 296.4 71.62, 288 72 C198.87 70.8, 109.63 71, 15.58 71.95 C7.43 72.62, 0.87 65.87, 0 56 C-0.73 44.16, 0.22 30.09, -0.21 16.42 C1.22 6.47, 6.86 0.36, 16 0" stroke="#1971c2" stroke-width="1.7" fill="none" stroke-linecap="round"></path></g><text x="226" y="457" font-family="Virgil, Segoe UI Emoji" font-size="15px" fill="#1e1e1e" text-anchor="middle" dominant-baseline="central" style="white-space:pre">Fan-out Service</text><text x="226" y="476" font-family="Virgil, Segoe UI Emoji" font-size="12px" fill="#495057" text-anchor="middle" dominant-baseline="central" style="white-space:pre">push normal users / pull celebs (hybrid)</text><g transform="translate(836 220)"><path d="M16 0 C92.32 0.1, 169.06 -0.03, 248.24 -0.14 C256.33 0.3, 264.48 7.49, 264 16 C263.7 26.02, 263.44 37.06, 264.12 48.27 C264.33 57.34, 256.31 63.53, 248 64 C171.07 63.53, 95.06 63.72, 16.21 63.99 C6.72 63.67, 0.54 56.9, 0 48 C-0.58 37.18, -0.37 26.36, 0.16 15.89 C0.52 7.3, 6.95 0.24, 16 0 Z" stroke="none" fill="#a5d8ff"></path><path d="M16 0 C92.27 -0.38, 168.95 0.16, 248.22 0.31 C257.52 -0.65, 263.87 6.94, 264 16 C263.81 25.42, 263.29 37.65, 263.51 47.89 C264.63 58.2, 255.92 63.94, 248 64 C172.02 64.01, 95.74 63.42, 16.3 63.88 C6.58 63.52, -0.33 56.6, 0 48 C-1 37.44, 0.93 26.34, -0.04 16.26 C-0.63 7.01, 6.81 -0.4, 16 0 M16 0 C91.2 -1.32, 169.35 -1.33, 248.15 -0.55 C256.33 -0.98, 263.49 6.41, 264 16 C264.07 25.48, 262.99 36.67, 264.51 48.57 C264.57 55.73, 256.03 62.88, 248 64 C171.58 63.07, 95.94 63.98, 15.62 63.42 C7.27 63.27, 0.53 55.78, 0 48 C0.93 36.62, 0.3 26.64, -0.65 15.87 C0.52 8.17, 8.14 1.28, 16 0" stroke="#1971c2" stroke-width="1.7" fill="none" stroke-linecap="round"></path></g><text x="968" y="243" font-family="Virgil, Segoe UI Emoji" font-size="15px" fill="#1e1e1e" text-anchor="middle" dominant-baseline="central" style="white-space:pre">Feed Service</text><text x="968" y="262" font-family="Virgil, Segoe UI Emoji" font-size="12px" fill="#495057" text-anchor="middle" dominant-baseline="central" style="white-space:pre">read · merge · paginate</text><g transform="translate(836 434)"><path d="M16 0 C92.96 0.32, 169.63 -0.21, 248.28 -0.03 C256.32 0.41, 264.27 7.08, 264 16 C264.17 26.42, 263.44 37.47, 264.17 47.86 C264.03 56.24, 256.85 64.36, 248 64 C171.04 64.32, 94.97 63.96, 16 63.9 C7.37 63.66, 0.52 57.08, 0 48 C0.56 37.79, -0.23 27.03, 0.26 16.12 C-0.44 7.79, 7.24 0.02, 16 0 Z" stroke="none" fill="#a5d8ff"></path><path d="M16 0 C92.81 1.13, 168.58 0.77, 248.25 -0.53 C256.91 0.91, 263.37 7.42, 264 16 C265.11 25.67, 264.17 37.82, 263.77 48.17 C265.05 58.01, 256.46 62.95, 248 64 C172.08 63.14, 95.88 63.52, 15.88 63.72 C7.97 64.41, 1.38 55.43, 0 48 C0.9 37.45, 0.34 26.04, -0.07 15.79 C-0.17 6.59, 6.25 0.98, 16 0 M16 0 C92.21 -0.46, 170.46 -0.44, 248.54 0.06 C257.3 0.4, 265 6.22, 264 16 C263.53 25.27, 263.52 36.93, 264.08 48.18 C263.08 56.6, 257.4 62.73, 248 64 C171.96 63.39, 95.42 63.18, 16.5 64.69 C5.84 64.18, 0.06 57.83, 0 48 C0.16 36.32, 0.43 27.3, 0.05 16.55 C1.39 6.38, 7.59 0.11, 16 0" stroke="#1971c2" stroke-width="1.7" fill="none" stroke-linecap="round"></path></g><text x="968" y="457" font-family="Virgil, Segoe UI Emoji" font-size="15px" fill="#1e1e1e" text-anchor="middle" dominant-baseline="central" style="white-space:pre">Ranking Service</text><text x="968" y="476" font-family="Virgil, Segoe UI Emoji" font-size="12px" fill="#495057" text-anchor="middle" dominant-baseline="central" style="white-space:pre">ranking signals</text><g transform="translate(480 209)"><path d="M16 0 C85.2 -0.57, 153.06 0.5, 224.09 -0.02 C233.24 0.16, 239.6 6.75, 240 16 C239.56 23.33, 239.41 30.01, 239.93 38.09 C239.82 46.23, 233.12 54.33, 224 54 C155.79 53.76, 86.14 53.89, 15.72 53.77 C6.91 53.68, -0.31 47.38, 0 38 C0.05 31.13, 0.38 23.01, 0.17 15.96 C0.45 7.62, 7.28 0.31, 16 0 Z" stroke="none" fill="#ffc9c9"></path><path d="M16 0 C85.04 -0.71, 154.04 -0.04, 224.36 0.42 C232.8 -0.97, 241.31 8.6, 240 16 C239.13 23.63, 241.04 30.99, 239.57 37.41 C239.97 46.84, 232.9 55.02, 224 54 C155.74 53.1, 85.54 54.66, 15.76 54.34 C6.02 53.96, -0.61 46.57, 0 38 C0 30.95, -0.34 22.88, -0.24 15.46 C-1.19 7.03, 7.9 -1.06, 16 0 M16 0 C83.26 0.15, 152.12 0.51, 224.06 -0.59 C234.08 -0.92, 241.1 7.15, 240 16 C240.1 23, 238.67 29.67, 239.6 37.46 C240.27 45.84, 232.24 52.91, 224 54 C154.7 53.7, 86.78 54.26, 15.34 54.2 C6.29 52.69, 0.21 46.36, 0 38 C-0.16 31.23, -0.2 24.63, 0.26 16.05 C0.1 6.43, 8.01 0.45, 16 0" stroke="#e03131" stroke-width="1.7" fill="none" stroke-linecap="round"></path></g><text x="600" y="227" font-family="Virgil, Segoe UI Emoji" font-size="15px" fill="#1e1e1e" text-anchor="middle" dominant-baseline="central" style="white-space:pre">Tweet Store</text><text x="600" y="246" font-family="Virgil, Segoe UI Emoji" font-size="12px" fill="#495057" text-anchor="middle" dominant-baseline="central" style="white-space:pre">Cassandra</text><g transform="translate(450 324)"><path d="M16 0 C104.65 0.13, 192.7 -0.32, 283.8 0.21 C292.54 -0.52, 300.33 7.3, 300 16 C300.05 22.79, 300.5 29.61, 300.28 36.26 C300.07 45.36, 293.17 51.96, 284 52 C195.67 51.97, 106.56 51.68, 15.98 51.99 C7.49 52.33, 0.57 44.48, 0 36 C-0.39 28.9, 0.41 22.25, -0.15 16.19 C0.56 7.6, 7.25 -0.55, 16 0 Z" stroke="none" fill="#ffd8a8"></path><path d="M16 0 C105.29 -1, 192.56 0.94, 283.53 -0.14 C291.47 0.91, 299.26 7.91, 300 16 C300.45 22.01, 298.9 27.96, 300.31 35.36 C299.2 44.86, 293.46 51.26, 284 52 C194.35 53.02, 106.5 52.04, 16.55 52.29 C6.4 52.35, -1.05 43.46, 0 36 C-0.01 28.11, 0.76 23.65, 0.07 16.52 C0.38 8.06, 7.8 -0.19, 16 0 M16 0 C104.17 -0.12, 192.11 -0.28, 284.17 -0.09 C293.17 -0.29, 300.98 6.23, 300 16 C300.54 22.56, 300.54 28.96, 299.44 35.31 C299.26 46.01, 292.55 51.18, 284 52 C195.28 51.01, 108.21 51.68, 16.67 52.09 C7.71 52.04, -0.58 45.31, 0 36 C1.2 30.43, -1.22 23.61, 0.59 15.88 C0.92 7.43, 8.04 -0.6, 16 0" stroke="#e8590c" stroke-width="1.7" fill="none" stroke-linecap="round"></path></g><text x="600" y="341" font-family="Virgil, Segoe UI Emoji" font-size="15px" fill="#1e1e1e" text-anchor="middle" dominant-baseline="central" style="white-space:pre">Apache Kafka</text><text x="600" y="360" font-family="Virgil, Segoe UI Emoji" font-size="12px" fill="#495057" text-anchor="middle" dominant-baseline="central" style="white-space:pre">tweet events</text><g transform="translate(437 434)"><path d="M16 0 C113.17 -0.31, 210.03 -0.26, 310.15 -0.06 C319.22 0.5, 326.47 7.77, 326 16 C326.4 26.18, 325.58 36.98, 325.82 47.98 C326.07 57.21, 318.67 63.6, 310 64 C213.29 64.04, 116.1 64.52, 15.73 63.78 C6.82 63.7, -0.19 56.44, 0 48 C-0.41 36.93, -0.27 26.31, 0.16 16.29 C0.37 6.94, 7.4 0.35, 16 0 Z" stroke="none" fill="#ffc9c9"></path><path d="M16 0 C114.18 -0.36, 210.94 -1.36, 309.75 -0.42 C318.07 -0.13, 325.4 7.68, 326 16 C325.43 26.02, 325.66 36.56, 325.55 48.06 C325.08 57.08, 320.01 63.43, 310 64 C213.36 63.01, 117.09 63.28, 16.59 63.97 C8.2 64.36, -0.08 56.02, 0 48 C-0.31 36.97, 0.08 27.29, -0.51 16.2 C-1.04 7.64, 8.52 1.07, 16 0 M16 0 C112.8 -0.85, 211.1 0.23, 309.59 0.59 C319.54 -0.54, 325.8 6, 326 16 C325.18 26.27, 326.36 36.9, 326.07 47.76 C326.47 57.64, 319.24 65.01, 310 64 C212.45 63.16, 115.61 63.53, 15.4 63.37 C6.72 63.93, 0.66 57.67, 0 48 C-0.2 38.83, -0.01 27.14, 0.49 15.99 C-0.84 7.06, 7.9 0.01, 16 0" stroke="#e03131" stroke-width="1.7" fill="none" stroke-linecap="round"></path></g><text x="600" y="457" font-family="Virgil, Segoe UI Emoji" font-size="15px" fill="#1e1e1e" text-anchor="middle" dominant-baseline="central" style="white-space:pre">Timeline Cache</text><text x="600" y="476" font-family="Virgil, Segoe UI Emoji" font-size="12px" fill="#495057" text-anchor="middle" dominant-baseline="central" style="white-space:pre">Redis sorted sets (per user)</text><g transform="translate(456 564)"><path d="M16 0 C100.74 -0.03, 185.07 0.09, 272.19 0.28 C280.97 -0.53, 288.01 6.65, 288 16 C288.21 23.45, 288.3 32.2, 288.12 39.8 C287.88 48.44, 280.62 56.52, 272 56 C187.66 56.14, 103.36 56.35, 16.07 55.85 C7.2 56.16, 0.31 48.35, 0 40 C-0.37 32.28, -0.3 24.13, 0.27 16.14 C-0.2 7.35, 6.97 -0.27, 16 0 Z" stroke="none" fill="#ffc9c9"></path><path d="M16 0 C100.49 1.11, 184.75 0.77, 271.54 -0.11 C281.4 0.3, 288.32 6.55, 288 16 C286.7 25.22, 289.22 31.66, 287.3 39.55 C287.57 48.88, 280.31 56.64, 272 56 C186.26 56.2, 104.39 55.97, 16.43 56.39 C7.93 57.31, -1 49.98, 0 40 C-1.19 31.18, 1.05 25.43, -0.01 16.15 C-0.41 6.55, 7.16 1.09, 16 0 M16 0 C100.22 0.23, 185.2 -0.16, 271.48 0.6 C280.4 -1.16, 288.58 7.85, 288 16 C287.04 24.19, 287.31 30.92, 288.02 39.79 C287.42 48.39, 280.85 55.56, 272 56 C186.65 56.3, 102.41 56.55, 16.67 55.83 C8.29 55.09, 0.8 47.56, 0 40 C0.14 32.21, 0.46 22.99, 0.09 16.39 C1.06 7.46, 6.55 0.18, 16 0" stroke="#e03131" stroke-width="1.7" fill="none" stroke-linecap="round"></path></g><text x="600" y="583" font-family="Virgil, Segoe UI Emoji" font-size="15px" fill="#1e1e1e" text-anchor="middle" dominant-baseline="central" style="white-space:pre">Social Graph</text><text x="600" y="602" font-family="Virgil, Segoe UI Emoji" font-size="12px" fill="#495057" text-anchor="middle" dominant-baseline="central" style="white-space:pre">followers (Cassandra)</text><rect x="83" y="199" width="75" height="18" fill="#ffffff" stroke="none"></rect><text x="88" y="208" font-family="Virgil, Segoe UI Emoji" font-size="12.5px" fill="#495057" text-anchor="start" dominant-baseline="central" style="white-space:pre">Write Path</text><rect x="835" y="199" width="68.5" height="18" fill="#ffffff" stroke="none"></rect><text x="840" y="208" font-family="Virgil, Segoe UI Emoji" font-size="12.5px" fill="#495057" text-anchor="start" dominant-baseline="central" style="white-space:pre">Read Path</text><rect x="515.07" y="78.5" width="49.86" height="18" rx="6" ry="6" fill="#ffffff" fill-opacity="0.82" stroke="none"></rect><text x="540" y="87.5" font-family="Virgil, Segoe UI Emoji" font-size="11.5px" fill="#27313a" text-anchor="middle" dominant-baseline="central" style="white-space:pre">request</text><rect x="500.12" y="163.5" width="79.76" height="18" rx="6" ry="6" fill="#ffffff" fill-opacity="0.82" stroke="none"></rect><text x="540" y="172.5" font-family="Virgil, Segoe UI Emoji" font-size="11.5px" fill="#27313a" text-anchor="middle" dominant-baseline="central" style="white-space:pre">① post tweet</text><rect x="392.57" y="235" width="49.86" height="18" rx="6" ry="6" fill="#ffffff" fill-opacity="0.82" stroke="none"></rect><text x="417.5" y="244" font-family="Virgil, Segoe UI Emoji" font-size="11.5px" fill="#27313a" text-anchor="middle" dominant-baseline="central" style="white-space:pre">persist</text><rect x="392.57" y="293" width="49.86" height="18" rx="6" ry="6" fill="#ffffff" fill-opacity="0.82" stroke="none"></rect><text x="417.5" y="302" font-family="Virgil, Segoe UI Emoji" font-size="11.5px" fill="#27313a" text-anchor="middle" dominant-baseline="central" style="white-space:pre">② event</text><rect x="388.07" y="393" width="49.86" height="18" rx="6" ry="6" fill="#ffffff" fill-opacity="0.82" stroke="none"></rect><text x="413" y="402" font-family="Virgil, Segoe UI Emoji" font-size="11.5px" fill="#27313a" text-anchor="middle" dominant-baseline="central" style="white-space:pre">consume</text><rect x="361.16" y="525" width="103.68" height="18" rx="6" ry="6" fill="#ffffff" fill-opacity="0.82" stroke="none"></rect><text x="413" y="534" font-family="Virgil, Segoe UI Emoji" font-size="11.5px" fill="#27313a" text-anchor="middle" dominant-baseline="central" style="white-space:pre">lookup followers</text><rect x="385.56" y="457" width="43.88" height="18" rx="6" ry="6" fill="#ffffff" fill-opacity="0.82" stroke="none"></rect><text x="407.5" y="466" font-family="Virgil, Segoe UI Emoji" font-size="11.5px" fill="#27313a" text-anchor="middle" dominant-baseline="central" style="white-space:pre">③ push</text><rect x="717.11" y="179" width="73.78" height="18" rx="6" ry="6" fill="#ffffff" fill-opacity="0.82" stroke="none"></rect><text x="754" y="188" font-family="Virgil, Segoe UI Emoji" font-size="11.5px" fill="#27313a" text-anchor="middle" dominant-baseline="central" style="white-space:pre">④ read feed</text><rect x="776.04" y="350" width="31.92" height="18" rx="6" ry="6" fill="#ffffff" fill-opacity="0.82" stroke="none"></rect><text x="792" y="359" font-family="Virgil, Segoe UI Emoji" font-size="11.5px" fill="#27313a" text-anchor="middle" dominant-baseline="central" style="white-space:pre">read</text><rect x="922.14" y="350" width="91.72" height="18" rx="6" ry="6" fill="#ffffff" fill-opacity="0.82" stroke="none"></rect><text x="968" y="359" font-family="Virgil, Segoe UI Emoji" font-size="11.5px" fill="#27313a" text-anchor="middle" dominant-baseline="central" style="white-space:pre">⑤ merge + rank</text><rect x="739.19" y="143" width="121.62" height="18" rx="6" ry="6" fill="#ffffff" fill-opacity="0.82" stroke="none"></rect><text x="800" y="152" font-family="Virgil, Segoe UI Emoji" font-size="11.5px" fill="#27313a" text-anchor="middle" dominant-baseline="central" style="white-space:pre">⑥ paginate (cursor)</text></g>
</svg>
