<svg version="1.1" xmlns="http://www.w3.org/2000/svg" viewBox="0 0 1128 958" width="1128" height="958">
  <!-- svg-source:excalidraw -->
  
  <defs>
    <style class="style-fonts">
      @font-face {
        font-family: "Virgil";
        src: url("https://unpkg.com/@excalidraw/excalidraw@0.17.6/dist//dist/excalidraw-assets/Virgil.woff2");
      }
      @font-face {
        font-family: "Cascadia";
        src: url("https://unpkg.com/@excalidraw/excalidraw@0.17.6/dist//dist/excalidraw-assets/Cascadia.woff2");
      }
      @font-face {
        font-family: "Assistant";
        src: url("https://unpkg.com/@excalidraw/excalidraw@0.17.6/dist//dist/excalidraw-assets/Assistant-Regular.woff2");
      }
    </style>
    
  </defs>
  <rect x="0" y="0" width="1128" height="958" fill="#ffffff"></rect><g transform="translate(24 24) rotate(0 540 15.600000000000001)"><text x="0" y="0" font-family="Virgil, Segoe UI Emoji" font-size="24px" fill="#1e1e1e" text-anchor="start" style="white-space: pre;" direction="ltr" dominant-baseline="text-before-edge">Notification System — how you would draw it live on the whiteboard</text></g><g transform="translate(24 56) rotate(0 540 8.450000000000003)"><text x="0" y="0" font-family="Virgil, Segoe UI Emoji" font-size="13px" fill="#868e96" text-anchor="start" style="white-space: pre;" direction="ltr" dominant-baseline="text-before-edge">green = client   ·   blue = service   ·   red = datastore   ·   orange = Kafka   ·   violet = 3rd-party vendor</text></g><g stroke-linecap="round" transform="translate(60 94) rotate(0 90 29)"><path d="M14.5 0 C62.77 -3.93, 113.65 -2.18, 165.5 0 C172.45 0.43, 176.73 6.87, 180 14.5 C181.24 23.48, 183.27 35.34, 180 43.5 C179.7 54.12, 178.22 57.65, 165.5 58 C113.57 53.95, 56.87 55.22, 14.5 58 C5.85 55.68, -0.43 55.91, 0 43.5 C-0.6 31.31, -0.9 24.9, 0 14.5 C-0.29 5.22, 5.89 -1.02, 14.5 0" stroke="none" stroke-width="0" fill="#b2f2bb"></path><path d="M14.5 0 C60.61 -1.25, 104 0.11, 165.5 0 M14.5 0 C57.75 -0.61, 103.08 -1.06, 165.5 0 M165.5 0 C175.42 1.22, 179.9 5.77, 180 14.5 M165.5 0 C175.33 -0.53, 179.73 3.39, 180 14.5 M180 14.5 C179.01 23.76, 180.34 34.23, 180 43.5 M180 14.5 C179.14 22.11, 179.73 29.07, 180 43.5 M180 43.5 C178.27 51.47, 175.66 59.28, 165.5 58 M180 43.5 C178.74 54.36, 176.65 56.05, 165.5 58 M165.5 58 C133.25 57.21, 99.86 57.32, 14.5 58 M165.5 58 C121.84 56.74, 77.81 56.72, 14.5 58 M14.5 58 C4.1 57.02, -1.41 52.37, 0 43.5 M14.5 58 C5.65 56.96, -1.85 51.32, 0 43.5 M0 43.5 C-1.14 37.3, 0.72 29.21, 0 14.5 M0 43.5 C0.35 36.15, 0.62 28.37, 0 14.5 M0 14.5 C0.1 4.84, 4.89 -1.61, 14.5 0 M0 14.5 C0.46 5.26, 3.58 0.78, 14.5 0" stroke="#2f9e44" stroke-width="2" fill="none"></path></g><g transform="translate(66 103) rotate(0 84 20)"><text x="84" y="0" font-family="Virgil, Segoe UI Emoji" font-size="16px" fill="#1e1e1e" text-anchor="middle" style="white-space: pre;" direction="ltr" dominant-baseline="text-before-edge">Client app</text><text x="84" y="20" font-family="Virgil, Segoe UI Emoji" font-size="16px" fill="#1e1e1e" text-anchor="middle" style="white-space: pre;" direction="ltr" dominant-baseline="text-before-edge">(server SDK)</text></g><g stroke-linecap="round" transform="translate(264 94) rotate(0 95 29)"><path d="M14.5 0 C53.68 3.63, 96.91 4.96, 175.5 0 C183.82 -2.37, 186.86 8.43, 190 14.5 C187.23 23.92, 192.25 28.97, 190 43.5 C192.08 54.45, 182.16 57.69, 175.5 58 C125.57 62.19, 80.12 57.37, 14.5 58 C2.42 58.12, -0.8 51.65, 0 43.5 C-1.25 39.23, 0.27 27.17, 0 14.5 C-2.93 5.87, 2.66 -1.76, 14.5 0" stroke="none" stroke-width="0" fill="#b2f2bb"></path><path d="M14.5 0 C48.44 0.33, 80.12 1.01, 175.5 0 M14.5 0 C73.15 -1.76, 130.5 -0.41, 175.5 0 M175.5 0 C185.94 -1.36, 189.63 5.62, 190 14.5 M175.5 0 C186.51 -1.16, 191.92 6.52, 190 14.5 M190 14.5 C191.34 24.53, 189.95 32.97, 190 43.5 M190 14.5 C190.34 25.56, 190.89 35.7, 190 43.5 M190 43.5 C189.96 52.6, 183.92 57.22, 175.5 58 M190 43.5 C190.37 53.71, 187.4 56.17, 175.5 58 M175.5 58 C126.2 60.13, 80 58.77, 14.5 58 M175.5 58 C123.8 58.05, 73.77 58.46, 14.5 58 M14.5 58 C5.42 56.64, -0.65 53.71, 0 43.5 M14.5 58 C4.81 56.07, 0.86 51.07, 0 43.5 M0 43.5 C-1.87 36.09, -0.44 29.08, 0 14.5 M0 43.5 C-0.98 31.81, -0.14 20.7, 0 14.5 M0 14.5 C0 5.27, 4.59 -0.08, 14.5 0 M0 14.5 C-0.61 3.32, 3.03 2.22, 14.5 0" stroke="#2f9e44" stroke-width="2" fill="none"></path></g><g transform="translate(270 113) rotate(0 89 10)"><text x="89" y="0" font-family="Virgil, Segoe UI Emoji" font-size="16px" fill="#1e1e1e" text-anchor="middle" style="white-space: pre;" direction="ltr" dominant-baseline="text-before-edge">Bulk Campaign UI</text></g><g stroke-linecap="round" transform="translate(60 184) rotate(0 197 28)"><path d="M14 0 C112.68 -1.46, 215.16 -1.08, 380 0 C385.81 3.36, 393.56 8.02, 394 14 C391.82 18.44, 395.26 23.57, 394 42 C394.62 54.07, 385.76 58.56, 380 56 C281.72 52.38, 182.59 54.48, 14 56 C3.05 58.25, 1.91 54.14, 0 42 C-3.14 35.88, -2.12 26.81, 0 14 C-0.41 2.62, 3.09 -0.79, 14 0" stroke="none" stroke-width="0" fill="#dee2e6"></path><path d="M14 0 C112.86 -0.13, 214.47 1.49, 380 0 M14 0 C133.37 -2.24, 252.88 -1.93, 380 0 M380 0 C388.32 1.31, 394.43 5.13, 394 14 M380 0 C388.65 0.45, 391.72 5.88, 394 14 M394 14 C392.04 23.08, 393.96 30.04, 394 42 M394 14 C394.89 25.11, 395.03 35.71, 394 42 M394 42 C392.18 51.39, 389.6 55.42, 380 56 M394 42 C392.95 52.54, 387.45 57.48, 380 56 M380 56 C294.42 58.58, 209.33 58.48, 14 56 M380 56 C298.81 55.55, 218.2 56.32, 14 56 M14 56 C5.19 56.86, -0.18 52.77, 0 42 M14 56 C5.72 58.17, 1.35 50.1, 0 42 M0 42 C-0.51 34.75, 1.84 27.88, 0 14 M0 42 C-0.38 35.14, 0.42 28.45, 0 14 M0 14 C-0.63 6.22, 5.73 1.71, 14 0 M0 14 C-0.56 4.06, 6.61 -0.06, 14 0" stroke="#495057" stroke-width="2" fill="none"></path></g><g transform="translate(66 194.5) rotate(0 191 17.5)"><text x="191" y="0" font-family="Virgil, Segoe UI Emoji" font-size="14px" fill="#1e1e1e" text-anchor="middle" style="white-space: pre;" direction="ltr" dominant-baseline="text-before-edge">Load Balancer + API Gateway</text><text x="191" y="17.5" font-family="Virgil, Segoe UI Emoji" font-size="14px" fill="#1e1e1e" text-anchor="middle" style="white-space: pre;" direction="ltr" dominant-baseline="text-before-edge">(TLS · auth · L1 rate-limit)</text></g><g stroke-linecap="round" transform="translate(60 276) rotate(0 197 29)"><path d="M14.5 0 C117.28 4.31, 215.88 3.98, 379.5 0 C392.49 0.79, 392.39 6.36, 394 14.5 C392.82 20.25, 395.88 32.05, 394 43.5 C391.15 51.64, 386.5 61.24, 379.5 58 C307.21 55.95, 234.79 54.69, 14.5 58 C4.24 60.77, 3.45 51.01, 0 43.5 C-2.15 40.45, -1.23 32.44, 0 14.5 C-3.07 7.44, 1.47 2.56, 14.5 0" stroke="none" stroke-width="0" fill="#a5d8ff"></path><path d="M14.5 0 C141.14 -0.91, 267.51 -1.05, 379.5 0 M14.5 0 C150.76 1.32, 287.34 1.27, 379.5 0 M379.5 0 C389.99 0.12, 392.8 3.64, 394 14.5 M379.5 0 C389.76 0.38, 394.77 4.59, 394 14.5 M394 14.5 C394.19 21.75, 392.35 30.01, 394 43.5 M394 14.5 C395.04 25.57, 393.31 33.93, 394 43.5 M394 43.5 C394.46 53.29, 388.46 57.9, 379.5 58 M394 43.5 C393.15 52.06, 387.1 57.46, 379.5 58 M379.5 58 C282.07 56.96, 184.06 57.36, 14.5 58 M379.5 58 C261.27 57.29, 144.43 56.62, 14.5 58 M14.5 58 C3.09 57.87, 1.24 53.91, 0 43.5 M14.5 58 C6.15 59.31, -1.24 55.37, 0 43.5 M0 43.5 C-0.91 35.17, 0.41 23.49, 0 14.5 M0 43.5 C-0.36 35.66, 0.23 27.13, 0 14.5 M0 14.5 C1.14 3.7, 6.54 0.72, 14.5 0 M0 14.5 C1.55 7, 4.99 -2.19, 14.5 0" stroke="#1971c2" stroke-width="2" fill="none"></path></g><g transform="translate(66 285) rotate(0 191 20)"><text x="191" y="0" font-family="Virgil, Segoe UI Emoji" font-size="16px" fill="#1e1e1e" text-anchor="middle" style="white-space: pre;" direction="ltr" dominant-baseline="text-before-edge">Frontend Service (FES)</text><text x="191" y="20" font-family="Virgil, Segoe UI Emoji" font-size="16px" fill="#1e1e1e" text-anchor="middle" style="white-space: pre;" direction="ltr" dominant-baseline="text-before-edge">scheduling · caching</text></g><g stroke-linecap="round" transform="translate(28 358) rotate(0 160 160)"><path d="M32 0 C92.18 -1.71, 151.31 -1.19, 288 0 M288 0 C310.96 -1.31, 318.43 11.56, 320 32 M320 32 C316.85 100.34, 317.7 173.14, 320 288 M320 288 C320.55 311.07, 310.5 318.86, 288 320 M288 320 C211 320.82, 132.41 320.61, 32 320 M32 320 C10.19 318.47, 1.73 311.1, 0 288 M0 288 C-1.22 221.68, -0.29 156.49, 0 32 M0 32 C-0.2 11.74, 9.17 1.6, 32 0" stroke="#495057" stroke-width="2.5" fill="none" stroke-dasharray="8 10"></path></g><g transform="translate(40 364) rotate(0 150 9.099999999999994)"><text x="0" y="0" font-family="Virgil, Segoe UI Emoji" font-size="14px" fill="#495057" text-anchor="start" style="white-space: pre;" direction="ltr" dominant-baseline="text-before-edge">Notification Service</text></g><g stroke-linecap="round" transform="translate(56 394) rotate(0 132 25)"><path d="M12.5 0 C82.47 -4.87, 150.88 -5.43, 251.5 0 C263.28 -2.85, 261.21 2.39, 264 12.5 C263.4 18.59, 265.69 27.05, 264 37.5 C266.07 44.82, 261.38 49.95, 251.5 50 C186.04 46.56, 118.93 46.77, 12.5 50 C2.61 50.93, -3.23 43.41, 0 37.5 C2.35 33.59, 3.44 25.23, 0 12.5 C-0.72 3.48, 1.78 -3.44, 12.5 0" stroke="none" stroke-width="0" fill="#a5d8ff"></path><path d="M12.5 0 C90.59 -1.67, 169.34 -0.98, 251.5 0 M12.5 0 C62.96 0.27, 113.97 0.83, 251.5 0 M251.5 0 C258.24 -0.62, 262.55 2.34, 264 12.5 M251.5 0 C261.51 0.72, 266.21 2.65, 264 12.5 M264 12.5 C265.17 19.62, 264.78 29.29, 264 37.5 M264 12.5 C264.51 18.86, 264.33 24.61, 264 37.5 M264 37.5 C262.13 44.36, 258.76 48.47, 251.5 50 M264 37.5 C262.56 45.9, 259.7 49.71, 251.5 50 M251.5 50 C189.04 49.54, 127.4 49.02, 12.5 50 M251.5 50 C167.02 48.56, 83.65 48.99, 12.5 50 M12.5 50 C5.26 48.03, 1.96 46.29, 0 37.5 M12.5 50 C4.87 50.02, -1.32 47.74, 0 37.5 M0 37.5 C-1.49 27.33, -0.9 19.16, 0 12.5 M0 37.5 C-0.62 30.05, -0.8 20.28, 0 12.5 M0 12.5 C-1.57 3.17, 2.46 1.75, 12.5 0 M0 12.5 C1.38 2.57, 4.7 -1.12, 12.5 0" stroke="#1971c2" stroke-width="2" fill="none"></path></g><g transform="translate(62 409) rotate(0 126 10)"><text x="126" y="0" font-family="Virgil, Segoe UI Emoji" font-size="16px" fill="#1e1e1e" text-anchor="middle" style="white-space: pre;" direction="ltr" dominant-baseline="text-before-edge">Validator</text></g><g stroke-linecap="round" transform="translate(56 458) rotate(0 132 25)"><path d="M12.5 0 C81.25 -3.19, 143.6 -3.48, 251.5 0 C260.7 -0.1, 262.69 4.81, 264 12.5 C263.87 21.3, 263.28 25.84, 264 37.5 C263.47 49.37, 257.95 48.34, 251.5 50 C198.96 49.41, 145.99 53.86, 12.5 50 C4.82 52.24, 2.09 46.45, 0 37.5 C3.54 26.8, -0.23 14.77, 0 12.5 C-0.72 5.81, 3.47 -0.11, 12.5 0" stroke="none" stroke-width="0" fill="#a5d8ff"></path><path d="M12.5 0 C68.7 -0.7, 125.8 -0.78, 251.5 0 M12.5 0 C62.27 1.55, 110.05 1.25, 251.5 0 M251.5 0 C258.05 -1.79, 262.67 3.23, 264 12.5 M251.5 0 C258.2 -1.14, 262.26 4.44, 264 12.5 M264 12.5 C262.7 22.96, 264.02 31.62, 264 37.5 M264 12.5 C263.77 17.86, 264.38 24.64, 264 37.5 M264 37.5 C264.3 45.78, 261.14 49.43, 251.5 50 M264 37.5 C265.47 46.69, 260.13 48.36, 251.5 50 M251.5 50 C168.65 51.01, 89.55 48.93, 12.5 50 M251.5 50 C158.72 49.65, 66.08 49.32, 12.5 50 M12.5 50 C3.43 49.53, -0.02 45.07, 0 37.5 M12.5 50 C6.1 51.14, -0.1 45.84, 0 37.5 M0 37.5 C-1.99 27.86, -0.98 21.27, 0 12.5 M0 37.5 C-0.74 28.93, 0.89 19.66, 0 12.5 M0 12.5 C-0.52 5.01, 2.76 -1.17, 12.5 0 M0 12.5 C-0.92 4.87, 4.57 2.17, 12.5 0" stroke="#1971c2" stroke-width="2" fill="none"></path></g><g transform="translate(62 465.5) rotate(0 126 17.5)"><text x="126" y="0" font-family="Virgil, Segoe UI Emoji" font-size="14px" fill="#1e1e1e" text-anchor="middle" style="white-space: pre;" direction="ltr" dominant-baseline="text-before-edge">Prioritizer</text><text x="126" y="17.5" font-family="Virgil, Segoe UI Emoji" font-size="14px" fill="#1e1e1e" text-anchor="middle" style="white-space: pre;" direction="ltr" dominant-baseline="text-before-edge">(OTP = high)</text></g><g stroke-linecap="round" transform="translate(56 522) rotate(0 132 25)"><path d="M12.5 0 C98.71 0.16, 188.62 1.76, 251.5 0 C262.3 3.17, 267.42 5.4, 264 12.5 C262.62 22.48, 262.35 30.58, 264 37.5 C265.3 48.25, 261.09 47.02, 251.5 50 C183.15 50.85, 117.71 45.51, 12.5 50 C0.8 50.63, -2.69 47.89, 0 37.5 C0.16 33.18, -1.06 20.13, 0 12.5 C-1.2 5.57, 3.75 -1.93, 12.5 0" stroke="none" stroke-width="0" fill="#a5d8ff"></path><path d="M12.5 0 C87.66 1.67, 159.22 0.76, 251.5 0 M12.5 0 C93.09 1.43, 174.24 0.12, 251.5 0 M251.5 0 C261.77 -0.39, 264.78 6.06, 264 12.5 M251.5 0 C259.46 1.92, 265.97 2.41, 264 12.5 M264 12.5 C265.38 19.41, 262.89 25.98, 264 37.5 M264 12.5 C264.11 19.96, 263.06 27.44, 264 37.5 M264 37.5 C262.94 46.87, 260.44 51.85, 251.5 50 M264 37.5 C265.94 47.75, 261.59 49.73, 251.5 50 M251.5 50 C177.19 47.3, 103.65 50.15, 12.5 50 M251.5 50 C201.73 49, 151.65 48.46, 12.5 50 M12.5 50 C5.55 49.98, 0.65 43.99, 0 37.5 M12.5 50 C5.84 47.82, -0.71 44.5, 0 37.5 M0 37.5 C-0.82 30.72, 0.92 26.2, 0 12.5 M0 37.5 C-0.63 29.46, 0.21 22.08, 0 12.5 M0 12.5 C-0.83 4.56, 5.26 0.53, 12.5 0 M0 12.5 C1.61 2.36, 4.12 1.02, 12.5 0" stroke="#1971c2" stroke-width="2" fill="none"></path></g><g transform="translate(62 529.5) rotate(0 126 17.5)"><text x="126" y="0" font-family="Virgil, Segoe UI Emoji" font-size="14px" fill="#1e1e1e" text-anchor="middle" style="white-space: pre;" direction="ltr" dominant-baseline="text-before-edge">Rate Limiter</text><text x="126" y="17.5" font-family="Virgil, Segoe UI Emoji" font-size="14px" fill="#1e1e1e" text-anchor="middle" style="white-space: pre;" direction="ltr" dominant-baseline="text-before-edge">(client + per-user)</text></g><g stroke-linecap="round" transform="translate(56 598) rotate(0 132 28)"><path d="M14 0 C68.47 -1.54, 121.87 -1.55, 250 0 C261.13 1.37, 266.74 5.56, 264 14 C262.1 23.22, 260.74 33.66, 264 42 C263.65 48.23, 260.53 58.06, 250 56 C179.2 57.13, 104.78 54.62, 14 56 C7.24 58.77, -2.22 50.86, 0 42 C0.42 29.73, -1.56 20.92, 0 14 C-0.82 5.85, 5 3.54, 14 0" stroke="none" stroke-width="0" fill="#a5d8ff"></path><path d="M14 0 C77.84 -1.19, 142.44 -1.6, 250 0 M14 0 C81.23 1.84, 149.42 1.46, 250 0 M250 0 C258.07 -0.8, 264.24 2.91, 264 14 M250 0 C258.99 -0.04, 262.07 2.6, 264 14 M264 14 C265.55 20.35, 264.18 26.83, 264 42 M264 14 C263.38 20.11, 264.34 26.62, 264 42 M264 42 C263.18 51.14, 260.93 54.16, 250 56 M264 42 C265.18 52.64, 260.11 56.65, 250 56 M250 56 C160.53 54.33, 69.08 54.65, 14 56 M250 56 C168.62 57.74, 85.93 58.27, 14 56 M14 56 C4.69 57.43, -0.98 49.74, 0 42 M14 56 C4.79 55.95, 0.55 51.2, 0 42 M0 42 C0.41 33.67, -1.64 27.59, 0 14 M0 42 C0.83 30.76, -0.89 19.72, 0 14 M0 14 C-0.19 3.18, 5.75 -0.57, 14 0 M0 14 C-0.56 3.35, 2.7 0.69, 14 0" stroke="#1971c2" stroke-width="2" fill="none"></path></g><g transform="translate(62 608.5) rotate(0 126 17.5)"><text x="126" y="0" font-family="Virgil, Segoe UI Emoji" font-size="14px" fill="#1e1e1e" text-anchor="middle" style="white-space: pre;" direction="ltr" dominant-baseline="text-before-edge">Notification Handler</text><text x="126" y="17.5" font-family="Virgil, Segoe UI Emoji" font-size="14px" fill="#1e1e1e" text-anchor="middle" style="white-space: pre;" direction="ltr" dominant-baseline="text-before-edge">+ Preferences</text></g><g stroke-linecap="round" transform="translate(384 394) rotate(0 90 27)"><path d="M13.5 0 C75.01 -0.68, 133.49 1.02, 166.5 0 C176.37 -2.79, 181.96 7.92, 180 13.5 C176.36 19.97, 177.63 29.26, 180 40.5 C176.49 46.56, 177.49 57.02, 166.5 54 C107.9 52.77, 52.09 53.76, 13.5 54 C7.72 52.93, -2.95 47.91, 0 40.5 C-2 30.49, -3.43 22.33, 0 13.5 C1.98 4.56, 1.45 3.31, 13.5 0" stroke="none" stroke-width="0" fill="#ffc9c9"></path><path d="M13.5 0 C53.58 -2.89, 93.73 0.22, 166.5 0 M13.5 0 C69.49 -2.12, 126.25 -1.39, 166.5 0 M166.5 0 C176.82 -1.63, 181.63 5.19, 180 13.5 M166.5 0 C176.86 -2.06, 179.09 6.16, 180 13.5 M180 13.5 C180.7 20.87, 179.18 26.51, 180 40.5 M180 13.5 C179.59 21.55, 179.56 30.03, 180 40.5 M180 40.5 C181.75 47.58, 173.62 53.49, 166.5 54 M180 40.5 C180.93 49.81, 173.84 55.65, 166.5 54 M166.5 54 C114.61 55.46, 67.65 54.77, 13.5 54 M166.5 54 C114.9 54.55, 61.48 55.72, 13.5 54 M13.5 54 C4.13 55.72, 0.42 51.1, 0 40.5 M13.5 54 C3.47 54.61, 2.22 47.23, 0 40.5 M0 40.5 C0.11 33.95, 1.38 26.07, 0 13.5 M0 40.5 C0.99 33.85, -0.85 27.81, 0 13.5 M0 13.5 C-1.57 3.57, 5.99 -0.67, 13.5 0 M0 13.5 C-1.68 6.57, 5.99 0.58, 13.5 0" stroke="#e03131" stroke-width="2" fill="none"></path></g><g transform="translate(390 403.5) rotate(0 84 17.5)"><text x="84" y="0" font-family="Virgil, Segoe UI Emoji" font-size="14px" fill="#1e1e1e" text-anchor="middle" style="white-space: pre;" direction="ltr" dominant-baseline="text-before-edge">Redis</text><text x="84" y="17.5" font-family="Virgil, Segoe UI Emoji" font-size="14px" fill="#1e1e1e" text-anchor="middle" style="white-space: pre;" direction="ltr" dominant-baseline="text-before-edge">(dedupe · cache)</text></g><g stroke-linecap="round" transform="translate(384 470) rotate(0 90 27)"><path d="M13.5 0 C54.59 -4.01, 101.34 -4.82, 166.5 0 C178.19 -1.59, 181.59 5.16, 180 13.5 C181.53 23.44, 176.02 28.74, 180 40.5 C177.31 50.88, 176.39 53.09, 166.5 54 C129.35 51.28, 97.26 54.7, 13.5 54 C3.17 56.95, -2.71 46.61, 0 40.5 C-3.53 33.39, 2.65 28.57, 0 13.5 C3.31 1.69, 1.75 -3.52, 13.5 0" stroke="none" stroke-width="0" fill="#ffc9c9"></path><path d="M13.5 0 C57.19 0.15, 98.9 2.4, 166.5 0 M13.5 0 C52.57 0.22, 91.51 0.1, 166.5 0 M166.5 0 C175.28 -1.96, 179.86 2.7, 180 13.5 M166.5 0 C174.52 -2.06, 181.9 4.3, 180 13.5 M180 13.5 C180.54 21.09, 180.6 30.13, 180 40.5 M180 13.5 C179.11 21.71, 180.35 30.41, 180 40.5 M180 40.5 C180.1 51.4, 176.73 53.02, 166.5 54 M180 40.5 C181.04 49.41, 176.2 54.99, 166.5 54 M166.5 54 C134.78 52.69, 99.28 53.37, 13.5 54 M166.5 54 C115.18 53.92, 62.79 55.24, 13.5 54 M13.5 54 C3.04 54.64, -0.17 48.88, 0 40.5 M13.5 54 C3.92 55.51, 0.59 50.88, 0 40.5 M0 40.5 C-0.74 35.67, 0.63 28.06, 0 13.5 M0 40.5 C0.47 35.64, 0.53 28.5, 0 13.5 M0 13.5 C0.8 6.31, 3.36 1.3, 13.5 0 M0 13.5 C-0.43 3.24, 4.02 -0.12, 13.5 0" stroke="#e03131" stroke-width="2" fill="none"></path></g><g transform="translate(390 479.5) rotate(0 84 17.5)"><text x="84" y="0" font-family="Virgil, Segoe UI Emoji" font-size="14px" fill="#1e1e1e" text-anchor="middle" style="white-space: pre;" direction="ltr" dominant-baseline="text-before-edge">Preferences DB</text><text x="84" y="17.5" font-family="Virgil, Segoe UI Emoji" font-size="14px" fill="#1e1e1e" text-anchor="middle" style="white-space: pre;" direction="ltr" dominant-baseline="text-before-edge">(MySQL)</text></g><g stroke-linecap="round" transform="translate(384 546) rotate(0 90 25)"><path d="M12.5 0 C68.19 2.51, 120.56 4.41, 167.5 0 C173.85 -2.39, 181.14 3.2, 180 12.5 C176.54 18.23, 180.62 34.08, 180 37.5 C179.17 45.05, 175.91 47.93, 167.5 50 C138.61 51.56, 104.98 51.5, 12.5 50 C2.94 53.47, -1.77 44.27, 0 37.5 C-2.08 34.88, 3.2 26.53, 0 12.5 C0.66 1.48, 2.42 -1.35, 12.5 0" stroke="none" stroke-width="0" fill="#a5d8ff"></path><path d="M12.5 0 C70.66 -0.42, 128.43 -0.52, 167.5 0 M12.5 0 C53.58 0.97, 96.92 0.42, 167.5 0 M167.5 0 C177.42 -0.72, 179.69 4.87, 180 12.5 M167.5 0 C175.6 -1.13, 177.86 6.42, 180 12.5 M180 12.5 C180.9 19.85, 180.24 23.88, 180 37.5 M180 12.5 C180.68 18.26, 179.2 24.75, 180 37.5 M180 37.5 C179.61 44.1, 177.22 49.65, 167.5 50 M180 37.5 C179.89 44.88, 175.15 50.66, 167.5 50 M167.5 50 C119.8 47.15, 73.61 49.12, 12.5 50 M167.5 50 C120.56 48.55, 74.7 48.34, 12.5 50 M12.5 50 C5.36 51.57, 0.88 46.5, 0 37.5 M12.5 50 C4.24 49.02, -1.17 46.71, 0 37.5 M0 37.5 C0.23 28.33, 1.74 18.85, 0 12.5 M0 37.5 C0.74 27.19, 0.8 18.03, 0 12.5 M0 12.5 C-0.92 4.62, 3.1 -0.99, 12.5 0 M0 12.5 C1.18 2.09, 6.02 2.04, 12.5 0" stroke="#1971c2" stroke-width="2" fill="none"></path></g><g transform="translate(390 562.25) rotate(0 84 8.75)"><text x="84" y="0" font-family="Virgil, Segoe UI Emoji" font-size="14px" fill="#1e1e1e" text-anchor="middle" style="white-space: pre;" direction="ltr" dominant-baseline="text-before-edge">User Service</text></g><g stroke-linecap="round" transform="translate(28 698) rotate(0 412 27)"><path d="M-0.57 0.86 L822.15 1.13 L825.21 55.43 L1.86 54.52" stroke="none" stroke-width="0" fill="#ffd8a8"></path><path d="M0 0 C269.82 -2.44, 539.13 -2.15, 824 0 M0 0 C213.84 -0.28, 427.98 -0.6, 824 0 M824 0 C824.26 12.01, 825.24 20.86, 824 54 M824 0 C825.11 16.59, 824.78 31.02, 824 54 M824 54 C554.16 57.8, 282.84 56.28, 0 54 M824 54 C657.84 52.65, 491.71 52.59, 0 54 M0 54 C-2.2 34.83, -0.42 16.35, 0 0 M0 54 C0.79 35.3, -0.31 16.09, 0 0" stroke="#e8590c" stroke-width="2" fill="none"></path></g><g transform="translate(34 714.375) rotate(0 406 10.625)"><text x="406" y="0" font-family="Virgil, Segoe UI Emoji" font-size="17px" fill="#1e1e1e" text-anchor="middle" style="white-space: pre;" direction="ltr" dominant-baseline="text-before-edge">KAFKA   —   priority topics:   high · medium · low</text></g><g stroke-linecap="round" transform="translate(28 790) rotate(0 94 28)"><path d="M14 0 C53.73 -5.18, 98.91 -2.5, 174 0 C185.93 -0.88, 187.91 1.7, 188 14 C184.49 20.6, 189.26 33.36, 188 42 C189.81 49.13, 186.21 58.59, 174 56 C113.93 52.15, 61.91 56.95, 14 56 C2.32 56.15, -1.36 49.72, 0 42 C0.29 30.48, 2.17 22.19, 0 14 C-0.89 4.93, 4.64 -2.39, 14 0" stroke="none" stroke-width="0" fill="#a5d8ff"></path><path d="M14 0 C48.76 -2.32, 84.25 0.83, 174 0 M14 0 C65.33 -0.28, 115.9 1.34, 174 0 M174 0 C182.81 1.53, 187.95 4.31, 188 14 M174 0 C183.12 0.46, 190.12 4.73, 188 14 M188 14 C188.09 23.14, 187.12 29.9, 188 42 M188 14 C188.67 24.76, 188.66 34.5, 188 42 M188 42 C189.74 51.68, 183.39 57.32, 174 56 M188 42 C190.1 51.15, 182.99 57.65, 174 56 M174 56 C109.89 53.97, 46.17 56.12, 14 56 M174 56 C137.94 57.6, 103.03 56.82, 14 56 M14 56 C3.05 54.31, 1.05 52.16, 0 42 M14 56 C4.8 54.43, -2.11 50.72, 0 42 M0 42 C-1.76 33.68, 0.21 24.85, 0 14 M0 42 C-0.61 33.48, -0.79 24.98, 0 14 M0 14 C-0.6 4.77, 4.64 -0.29, 14 0 M0 14 C1.67 4.1, 2.85 0.45, 14 0" stroke="#1971c2" stroke-width="2" fill="none"></path></g><g transform="translate(34 808) rotate(0 88 10)"><text x="88" y="0" font-family="Virgil, Segoe UI Emoji" font-size="16px" fill="#1e1e1e" text-anchor="middle" style="white-space: pre;" direction="ltr" dominant-baseline="text-before-edge">In-App Handler</text></g><g stroke-linecap="round" transform="translate(240 790) rotate(0 94 28)"><path d="M14 0 C73.4 -1.4, 140.26 -1.11, 174 0 C182.16 -2.46, 190.69 2.09, 188 14 C187.87 26.42, 185.86 31.45, 188 42 C190.89 49.26, 181.29 58.88, 174 56 C139.68 57.25, 104.82 60.27, 14 56 C4.94 58.23, -2.82 49.46, 0 42 C2.56 33.83, -2.35 32.76, 0 14 C-1.55 4.79, 3.41 -1.77, 14 0" stroke="none" stroke-width="0" fill="#a5d8ff"></path><path d="M14 0 C64.91 0.35, 115.32 -2.62, 174 0 M14 0 C48.1 -0.82, 80.74 -0.58, 174 0 M174 0 C183.27 1.52, 189.95 4.96, 188 14 M174 0 C184.12 -1.69, 188.55 6.92, 188 14 M188 14 C189.05 19.21, 189.57 26.61, 188 42 M188 14 C187.75 24.66, 188.99 33.85, 188 42 M188 42 C187.56 52.4, 184.28 57.95, 174 56 M188 42 C186.84 50.23, 182.96 54.2, 174 56 M174 56 C109.29 55.39, 48.57 55.85, 14 56 M174 56 C124.83 58.3, 75.65 56.54, 14 56 M14 56 C6.25 54.3, -0.85 49.38, 0 42 M14 56 C3.75 54.68, 1.55 50.42, 0 42 M0 42 C2.17 37.73, -0.83 32.03, 0 14 M0 42 C1.08 32.39, 0.57 23.43, 0 14 M0 14 C-1.91 4.98, 5.95 1.03, 14 0 M0 14 C-1.54 4.44, 4.04 -0.6, 14 0" stroke="#1971c2" stroke-width="2" fill="none"></path></g><g transform="translate(246 808) rotate(0 88 10)"><text x="88" y="0" font-family="Virgil, Segoe UI Emoji" font-size="16px" fill="#1e1e1e" text-anchor="middle" style="white-space: pre;" direction="ltr" dominant-baseline="text-before-edge">Email Handler</text></g><g stroke-linecap="round" transform="translate(452 790) rotate(0 94 28)"><path d="M14 0 C44.32 -0.01, 78.92 2.26, 174 0 C183.94 1.13, 190.47 5.6, 188 14 C184.68 21.95, 187.19 24.15, 188 42 C188.47 54.41, 181.89 56.49, 174 56 C139.42 54.12, 102.83 53.57, 14 56 C6.45 53.53, 2.85 54.12, 0 42 C3.4 32.97, -0.08 20.49, 0 14 C-2.01 7.81, 4.81 2.85, 14 0" stroke="none" stroke-width="0" fill="#a5d8ff"></path><path d="M14 0 C55.42 1.57, 96.42 1.25, 174 0 M14 0 C58.27 -1.23, 103.34 -0.92, 174 0 M174 0 C183.03 1.63, 189.56 5.78, 188 14 M174 0 C182.98 -1.78, 186.54 6.12, 188 14 M188 14 C188.44 20.87, 186.3 26.64, 188 42 M188 14 C188.21 22.56, 186.85 32.19, 188 42 M188 42 C187.33 49.93, 184.14 55.51, 174 56 M188 42 C185.81 53.05, 181.41 57.88, 174 56 M174 56 C124.14 58, 77.22 55.43, 14 56 M174 56 C128.59 57.15, 85.32 57.34, 14 56 M14 56 C2.9 54.98, -0.16 50.4, 0 42 M14 56 C5 55.89, 1.43 51.48, 0 42 M0 42 C-0.23 33.81, -1.24 26.99, 0 14 M0 42 C-0.86 33.72, -0.68 24.21, 0 14 M0 14 C-1.42 6.02, 3.98 -0.16, 14 0 M0 14 C1.68 3.85, 5.98 -0.22, 14 0" stroke="#1971c2" stroke-width="2" fill="none"></path></g><g transform="translate(458 808) rotate(0 88 10)"><text x="88" y="0" font-family="Virgil, Segoe UI Emoji" font-size="16px" fill="#1e1e1e" text-anchor="middle" style="white-space: pre;" direction="ltr" dominant-baseline="text-before-edge">SMS Handler</text></g><g stroke-linecap="round" transform="translate(664 790) rotate(0 94 28)"><path d="M14 0 C75.92 -2.63, 131.14 -6.15, 174 0 C183.58 0.03, 184.93 4.66, 188 14 C187.86 24.12, 184.89 30.34, 188 42 C186.46 54.25, 179.82 56.29, 174 56 C115.76 56.16, 59.64 57.55, 14 56 C3.14 58.57, -0.37 50.45, 0 42 C-0.12 32.35, 0.8 20.42, 0 14 C3.5 5.13, 1.77 2.1, 14 0" stroke="none" stroke-width="0" fill="#a5d8ff"></path><path d="M14 0 C56.17 -2, 98.61 -3.25, 174 0 M14 0 C59.81 1.06, 104.19 1.28, 174 0 M174 0 C183.05 -1.51, 189.02 5.23, 188 14 M174 0 C185.44 0.98, 185.93 5.02, 188 14 M188 14 C186.7 21.95, 189.26 29.85, 188 42 M188 14 C187.28 20.17, 188.81 26.32, 188 42 M188 42 C188.82 49.47, 181.37 54.2, 174 56 M188 42 C189.67 52.26, 184.61 57, 174 56 M174 56 C116.55 55.73, 62.03 57.01, 14 56 M174 56 C121.04 54.81, 67.77 55.12, 14 56 M14 56 C3.47 54.87, -0.49 49.7, 0 42 M14 56 C3.61 54.51, 1.84 52.28, 0 42 M0 42 C0.21 33.42, 1.31 22.35, 0 14 M0 42 C0.85 33.5, -0.74 25.67, 0 14 M0 14 C-1.13 3.16, 5.28 0.85, 14 0 M0 14 C-0.09 5.09, 3.34 -0.02, 14 0" stroke="#1971c2" stroke-width="2" fill="none"></path></g><g transform="translate(670 808) rotate(0 88 10)"><text x="88" y="0" font-family="Virgil, Segoe UI Emoji" font-size="16px" fill="#1e1e1e" text-anchor="middle" style="white-space: pre;" direction="ltr" dominant-baseline="text-before-edge">Push Handler</text></g><g stroke-linecap="round" transform="translate(28 880) rotate(0 94 27)"><path d="M13.5 0 C62.95 -3.38, 118.26 2.5, 174.5 0 C186.53 1.14, 184.42 1.76, 188 13.5 C190.52 23.83, 187.53 30.4, 188 40.5 C187.11 47.83, 183.36 53.85, 174.5 54 C130.63 53.93, 82.68 56.76, 13.5 54 C5.23 54.84, 0.1 51.51, 0 40.5 C-0.05 35.02, -0.25 25.45, 0 13.5 C-0.25 4.44, 1.5 -2.46, 13.5 0" stroke="none" stroke-width="0" fill="#eebefa"></path><path d="M13.5 0 C54.59 1.17, 93.74 2.72, 174.5 0 M13.5 0 C58.14 1.04, 101.84 1.4, 174.5 0 M174.5 0 C184.19 -1.52, 188.31 5.87, 188 13.5 M174.5 0 C184.18 -0.9, 188.33 5.98, 188 13.5 M188 13.5 C187.15 18.47, 189.35 24.93, 188 40.5 M188 13.5 C187.85 22.52, 188.15 30.77, 188 40.5 M188 40.5 C186.78 48.89, 184.45 53.6, 174.5 54 M188 40.5 C185.75 50.1, 184.41 53.32, 174.5 54 M174.5 54 C126.57 51.16, 78.84 52.07, 13.5 54 M174.5 54 C128.93 53.13, 85.92 52.94, 13.5 54 M13.5 54 C5.22 53.07, -1.8 49.36, 0 40.5 M13.5 54 C5.47 52.96, -0.69 47.26, 0 40.5 M0 40.5 C-0.17 29.62, 1.42 22.39, 0 13.5 M0 40.5 C-0.41 32.28, 1.06 24.17, 0 13.5 M0 13.5 C-1.23 5.78, 4.8 1.89, 13.5 0 M0 13.5 C1.44 3, 4.92 1.12, 13.5 0" stroke="#9c36b5" stroke-width="2" fill="none"></path></g><g transform="translate(34 889.5) rotate(0 88 17.5)"><text x="88" y="0" font-family="Virgil, Segoe UI Emoji" font-size="14px" fill="#1e1e1e" text-anchor="middle" style="white-space: pre;" direction="ltr" dominant-baseline="text-before-edge">User devices</text><text x="88" y="17.5" font-family="Virgil, Segoe UI Emoji" font-size="14px" fill="#1e1e1e" text-anchor="middle" style="white-space: pre;" direction="ltr" dominant-baseline="text-before-edge">(WebSocket)</text></g><g stroke-linecap="round" transform="translate(240 880) rotate(0 94 27)"><path d="M13.5 0 C69.57 -1.14, 124.1 -4.9, 174.5 0 C185.28 2.07, 187.33 7.85, 188 13.5 C189.48 22.41, 190.9 26.4, 188 40.5 C191.25 49.62, 186.63 50.87, 174.5 54 C137.61 57.52, 99.94 53.97, 13.5 54 C1.69 51.39, 3.43 48.66, 0 40.5 C2.46 37.01, -0.16 28.99, 0 13.5 C-2.08 2.39, 3.95 3.4, 13.5 0" stroke="none" stroke-width="0" fill="#eebefa"></path><path d="M13.5 0 C68.61 -1.84, 122.39 0.71, 174.5 0 M13.5 0 C70.44 0.77, 127.54 -0.49, 174.5 0 M174.5 0 C182.58 1.04, 186.95 4.82, 188 13.5 M174.5 0 C183.3 0.47, 188.24 5.15, 188 13.5 M188 13.5 C187.59 19.04, 186.55 27.12, 188 40.5 M188 13.5 C187.14 23.32, 187.36 34.76, 188 40.5 M188 40.5 C188.39 48.7, 182.07 54.44, 174.5 54 M188 40.5 C188.69 48.24, 181.72 54.42, 174.5 54 M174.5 54 C122 52.4, 68.71 55.42, 13.5 54 M174.5 54 C110.83 53.35, 46.22 54.26, 13.5 54 M13.5 54 C2.75 52.59, 0.35 49.42, 0 40.5 M13.5 54 C6.38 52.16, -0.49 47.54, 0 40.5 M0 40.5 C0.98 31.87, 1.71 24.97, 0 13.5 M0 40.5 C-0.18 32.25, 0.87 23.99, 0 13.5 M0 13.5 C1.85 3.73, 3.49 1.3, 13.5 0 M0 13.5 C-0.99 4.43, 5.96 2.2, 13.5 0" stroke="#9c36b5" stroke-width="2" fill="none"></path></g><g transform="translate(246 889.5) rotate(0 88 17.5)"><text x="88" y="0" font-family="Virgil, Segoe UI Emoji" font-size="14px" fill="#1e1e1e" text-anchor="middle" style="white-space: pre;" direction="ltr" dominant-baseline="text-before-edge">SES</text><text x="88" y="17.5" font-family="Virgil, Segoe UI Emoji" font-size="14px" fill="#1e1e1e" text-anchor="middle" style="white-space: pre;" direction="ltr" dominant-baseline="text-before-edge">(email vendor)</text></g><g stroke-linecap="round" transform="translate(452 880) rotate(0 94 27)"><path d="M13.5 0 C67.04 -2.24, 125.25 1.12, 174.5 0 C182.28 2.51, 185.39 1.85, 188 13.5 C187.02 21.28, 185.46 31.76, 188 40.5 C190.51 45.91, 186.38 50.92, 174.5 54 C134.57 54.85, 89 57.98, 13.5 54 C1.53 52.52, 3.04 51.96, 0 40.5 C2.23 35.32, 1.28 28.94, 0 13.5 C-1.06 7.74, 2.96 2.93, 13.5 0" stroke="none" stroke-width="0" fill="#eebefa"></path><path d="M13.5 0 C78.35 1.69, 141.07 0.38, 174.5 0 M13.5 0 C68.78 1.15, 124.65 1.34, 174.5 0 M174.5 0 C184.94 -0.35, 189.52 4.28, 188 13.5 M174.5 0 C182.5 -1.59, 187.47 3.8, 188 13.5 M188 13.5 C188.37 19.69, 188.25 26.92, 188 40.5 M188 13.5 C187.11 22.57, 187.06 32.43, 188 40.5 M188 40.5 C187.5 48.81, 185.3 53.3, 174.5 54 M188 40.5 C188.82 49.97, 181.8 54.99, 174.5 54 M174.5 54 C123.69 54.33, 69.01 54.54, 13.5 54 M174.5 54 C131.17 54.57, 88.82 55.53, 13.5 54 M13.5 54 C5.58 54.8, -1.37 49.62, 0 40.5 M13.5 54 C3.22 53.96, 1.3 51.29, 0 40.5 M0 40.5 C-0.04 34.5, 0.09 25.9, 0 13.5 M0 40.5 C-0.78 32.4, -0.75 23.29, 0 13.5 M0 13.5 C-1.45 5.77, 5.87 -1.61, 13.5 0 M0 13.5 C0 5.01, 3.02 -0.41, 13.5 0" stroke="#9c36b5" stroke-width="2" fill="none"></path></g><g transform="translate(458 889.5) rotate(0 88 17.5)"><text x="88" y="0" font-family="Virgil, Segoe UI Emoji" font-size="14px" fill="#1e1e1e" text-anchor="middle" style="white-space: pre;" direction="ltr" dominant-baseline="text-before-edge">Twilio</text><text x="88" y="17.5" font-family="Virgil, Segoe UI Emoji" font-size="14px" fill="#1e1e1e" text-anchor="middle" style="white-space: pre;" direction="ltr" dominant-baseline="text-before-edge">(SMS vendor)</text></g><g stroke-linecap="round" transform="translate(664 880) rotate(0 94 27)"><path d="M13.5 0 C74.52 -0.14, 131.13 -3.22, 174.5 0 C180.89 1.78, 190.55 2.03, 188 13.5 C187.74 17.77, 185.19 22.24, 188 40.5 C186.44 46.41, 182 52.69, 174.5 54 C116.57 57.58, 55.58 56.88, 13.5 54 C2.47 56.48, -0.54 51.5, 0 40.5 C-2.17 35.48, -2.13 22.68, 0 13.5 C-2.75 4.86, 6.25 3.06, 13.5 0" stroke="none" stroke-width="0" fill="#eebefa"></path><path d="M13.5 0 C60.38 -2.06, 109.17 -2.62, 174.5 0 M13.5 0 C53.26 -0.76, 95.4 0.53, 174.5 0 M174.5 0 C182.12 -0.11, 187.61 6.44, 188 13.5 M174.5 0 C181.75 2.22, 186.08 3.13, 188 13.5 M188 13.5 C188.84 20.27, 189.45 27.44, 188 40.5 M188 13.5 C189.1 23.61, 188.56 34.7, 188 40.5 M188 40.5 C188.79 50.65, 184.7 55.13, 174.5 54 M188 40.5 C189.95 51.27, 182.34 55.96, 174.5 54 M174.5 54 C137.03 53.45, 98.01 54.68, 13.5 54 M174.5 54 C140.51 52.03, 107.68 53.28, 13.5 54 M13.5 54 C6.2 52.37, -0.9 49.78, 0 40.5 M13.5 54 C5.26 55.41, 0.83 50.55, 0 40.5 M0 40.5 C1 34.93, -1.53 27.88, 0 13.5 M0 40.5 C-0.6 30.55, -0.2 22.06, 0 13.5 M0 13.5 C1.7 2.88, 2.79 -0.41, 13.5 0 M0 13.5 C1.13 2.86, 6.51 -0.68, 13.5 0" stroke="#9c36b5" stroke-width="2" fill="none"></path></g><g transform="translate(670 889.5) rotate(0 88 17.5)"><text x="88" y="0" font-family="Virgil, Segoe UI Emoji" font-size="14px" fill="#1e1e1e" text-anchor="middle" style="white-space: pre;" direction="ltr" dominant-baseline="text-before-edge">FCM / APNs</text><text x="88" y="17.5" font-family="Virgil, Segoe UI Emoji" font-size="14px" fill="#1e1e1e" text-anchor="middle" style="white-space: pre;" direction="ltr" dominant-baseline="text-before-edge">(push)</text></g><g stroke-linecap="round" transform="translate(888 698) rotate(0 98 27)"><path d="M13.5 0 C76.61 -1.83, 143.53 -2.3, 182.5 0 C193.68 2.13, 194.73 5.07, 196 13.5 C199.48 20.73, 199.41 28.34, 196 40.5 C194.59 46.44, 188.37 55.28, 182.5 54 C125.58 55.41, 74.45 53.97, 13.5 54 C4.83 56.97, 0.85 49.35, 0 40.5 C0.84 30.1, -2.68 25.62, 0 13.5 C-0.24 4.6, 4.37 -1.78, 13.5 0" stroke="none" stroke-width="0" fill="#a5d8ff"></path><path d="M13.5 0 C55.57 -3.28, 102.95 -2.59, 182.5 0 M13.5 0 C66.63 0.04, 119.59 0.09, 182.5 0 M182.5 0 C192.86 0.68, 194.47 6.44, 196 13.5 M182.5 0 C192.84 1.94, 197.31 2.24, 196 13.5 M196 13.5 C196.28 19.37, 197.29 28.46, 196 40.5 M196 13.5 C196.19 24.02, 196.33 33.9, 196 40.5 M196 40.5 C197.84 50.58, 190.58 54.65, 182.5 54 M196 40.5 C194.06 49.77, 189.6 54.95, 182.5 54 M182.5 54 C136.85 53.52, 90.86 52.63, 13.5 54 M182.5 54 C142.31 54.35, 102.62 54.14, 13.5 54 M13.5 54 C6.06 55.64, -0.76 48.02, 0 40.5 M13.5 54 C6.44 54.67, -1.33 49.14, 0 40.5 M0 40.5 C-0.49 33.84, -0.88 31.47, 0 13.5 M0 40.5 C1.09 29.8, 0.32 21.12, 0 13.5 M0 13.5 C-1.53 3.34, 3.51 -0.08, 13.5 0 M0 13.5 C1.69 3.32, 3.25 -1.47, 13.5 0" stroke="#1971c2" stroke-width="2" fill="none"></path></g><g transform="translate(894 715) rotate(0 92 10)"><text x="92" y="0" font-family="Virgil, Segoe UI Emoji" font-size="16px" fill="#1e1e1e" text-anchor="middle" style="white-space: pre;" direction="ltr" dominant-baseline="text-before-edge">Notification Tracker</text></g><g stroke-linecap="round" transform="translate(888 790) rotate(0 98 28)"><path d="M14 0 C77.78 -1.18, 133.02 -2.28, 182 0 C194.08 2.94, 196.68 2.71, 196 14 C196.32 24.1, 194.95 37.47, 196 42 C198.22 48.09, 191.09 57.12, 182 56 C123.23 59.99, 67.06 57.13, 14 56 C2.66 53.88, -2.1 54.25, 0 42 C-1.32 27.45, 3.2 19.48, 0 14 C-2.64 7.21, 2.76 2.59, 14 0" stroke="none" stroke-width="0" fill="#ffc9c9"></path><path d="M14 0 C57.18 1.29, 95.65 2.08, 182 0 M14 0 C53.92 0.22, 94.65 1.12, 182 0 M182 0 C191.81 -0.62, 196.13 3.71, 196 14 M182 0 C193.17 -1.14, 194.43 6.42, 196 14 M196 14 C195.35 24.45, 195.04 35.05, 196 42 M196 14 C196.72 19.98, 196.24 25.51, 196 42 M196 42 C197.46 51, 192.71 54.43, 182 56 M196 42 C194.12 49.32, 189.24 57.58, 182 56 M182 56 C142.25 57.09, 106.5 57.68, 14 56 M182 56 C131.44 56.86, 82.02 57.49, 14 56 M14 56 C4.86 55.33, 0.13 52.78, 0 42 M14 56 C5.12 57.57, -1.46 52.88, 0 42 M0 42 C-1.49 32.02, 0.15 22.49, 0 14 M0 42 C-0.71 35.47, 0.2 28.44, 0 14 M0 14 C1.93 5.78, 6.32 -1.17, 14 0 M0 14 C1.08 3.63, 6.44 0.2, 14 0" stroke="#e03131" stroke-width="2" fill="none"></path></g><g transform="translate(894 800.5) rotate(0 92 17.5)"><text x="92" y="0" font-family="Virgil, Segoe UI Emoji" font-size="14px" fill="#1e1e1e" text-anchor="middle" style="white-space: pre;" direction="ltr" dominant-baseline="text-before-edge">Cassandra</text><text x="92" y="17.5" font-family="Virgil, Segoe UI Emoji" font-size="14px" fill="#1e1e1e" text-anchor="middle" style="white-space: pre;" direction="ltr" dominant-baseline="text-before-edge">(delivery / audit log)</text></g><g stroke-linecap="round"><g transform="translate(150 152) rotate(0 0 16)"><path d="M0.11 -0.44 C-0.03 4.89, -0.42 27.1, -0.45 32.47 M-0.5 0.52 C-0.5 5.94, 0.55 26.45, 0.56 31.75" stroke="#343a40" stroke-width="1.5" fill="none"></path></g><g transform="translate(150 152) rotate(0 0 16)"><path d="M-5.35 16.88 C-3.74 21.73, -0.22 27.81, 0.56 31.75 M-5.35 16.88 C-3.88 20.73, -2.52 24.97, 0.56 31.75" stroke="#343a40" stroke-width="1.5" fill="none"></path></g><g transform="translate(150 152) rotate(0 0 16)"><path d="M5.59 16.56 C3.16 21.54, 2.63 27.74, 0.56 31.75 M5.59 16.56 C4.15 20.46, 2.59 24.78, 0.56 31.75" stroke="#343a40" stroke-width="1.5" fill="none"></path></g></g><mask></mask><g transform="translate(150 152) rotate(0 65 7.799999999999997)"><text x="65" y="0" font-family="Virgil, Segoe UI Emoji" font-size="12px" fill="#5f3dc4" text-anchor="middle" style="white-space: pre;" direction="ltr" dominant-baseline="text-before-edge">POST /notify</text></g><g stroke-linecap="round"><g transform="translate(359 152) rotate(0 0 16)"><path d="M0.02 0.42 C-0.04 5.81, -0.41 26.68, -0.47 31.89 M-0.64 0.16 C-0.51 5.67, 0.29 27.21, 0.52 32.54" stroke="#343a40" stroke-width="1.5" fill="none"></path></g><g transform="translate(359 152) rotate(0 0 16)"><path d="M-5.54 17.73 C-3.35 21.05, -2.47 25.2, 0.52 32.54 M-5.54 17.73 C-4 21.56, -2.73 24.93, 0.52 32.54" stroke="#343a40" stroke-width="1.5" fill="none"></path></g><g transform="translate(359 152) rotate(0 0 16)"><path d="M5.39 17.3 C4.62 20.74, 2.53 25.01, 0.52 32.54 M5.39 17.3 C4.29 21.2, 2.9 24.68, 0.52 32.54" stroke="#343a40" stroke-width="1.5" fill="none"></path></g></g><mask></mask><g stroke-linecap="round"><g transform="translate(257 240) rotate(0 0 18)"><path d="M-0.5 0.18 C-0.53 6.12, 0.29 29.97, 0.32 35.93 M0.24 -0.21 C0.13 5.8, -0.05 30.47, 0.05 36.6" stroke="#343a40" stroke-width="1.5" fill="none"></path></g><g transform="translate(257 240) rotate(0 0 18)"><path d="M-6.15 19.7 C-3.44 26.71, -1.47 32.13, 0.05 36.6 M-6.15 19.7 C-3.95 24.3, -2.1 29.97, 0.05 36.6" stroke="#343a40" stroke-width="1.5" fill="none"></path></g><g transform="translate(257 240) rotate(0 0 18)"><path d="M6.17 19.67 C4.16 26.63, 1.42 32.07, 0.05 36.6 M6.17 19.67 C4.76 24.34, 3.01 30.02, 0.05 36.6" stroke="#343a40" stroke-width="1.5" fill="none"></path></g></g><mask></mask><g stroke-linecap="round"><g transform="translate(188 334) rotate(0 0 30)"><path d="M-0.18 -0.31 C-0.12 9.66, 0.81 49.58, 0.84 59.45 M-1.73 -1.51 C-1.8 8.64, 0.17 50.5, 0.33 60.7" stroke="#343a40" stroke-width="1.5" fill="none"></path></g><g transform="translate(188 334) rotate(0 0 30)"><path d="M-10.85 32.86 C-7.64 43.74, -4.25 51.78, 0.33 60.7 M-10.85 32.86 C-8.49 38.69, -6.88 44.78, 0.33 60.7" stroke="#343a40" stroke-width="1.5" fill="none"></path></g><g transform="translate(188 334) rotate(0 0 30)"><path d="M9.66 32.18 C5.89 43.26, 2.31 51.53, 0.33 60.7 M9.66 32.18 C7.75 38.35, 5.09 44.58, 0.33 60.7" stroke="#343a40" stroke-width="1.5" fill="none"></path></g></g><mask></mask><g stroke-linecap="round"><g transform="translate(188 444) rotate(0 0 7)"><path d="M0.54 0.35 C0.68 2.66, 0.5 11.66, 0.41 13.88 M0.15 0.06 C0.29 2.45, 0.27 12.18, 0.19 14.52" stroke="#343a40" stroke-width="1.5" fill="none"></path></g><g transform="translate(188 444) rotate(0 0 7)"><path d="M-2.11 7.91 C-1.37 9.65, -1.14 10.92, 0.19 14.52 M-2.11 7.91 C-1.59 9.43, -1.06 10.87, 0.19 14.52" stroke="#343a40" stroke-width="1.5" fill="none"></path></g><g transform="translate(188 444) rotate(0 0 7)"><path d="M2.67 7.97 C2.34 9.73, 1.47 10.98, 0.19 14.52 M2.67 7.97 C2.08 9.49, 1.49 10.91, 0.19 14.52" stroke="#343a40" stroke-width="1.5" fill="none"></path></g></g><mask></mask><g stroke-linecap="round"><g transform="translate(188 508) rotate(0 0 7)"><path d="M-0.43 -0.38 C-0.44 1.96, -0.21 12.06, -0.12 14.48 M0.35 0.62 C0.26 3.05, -0.52 11.4, -0.62 13.77" stroke="#343a40" stroke-width="1.5" fill="none"></path></g><g transform="translate(188 508) rotate(0 0 7)"><path d="M-2.56 7.04 C-2.2 8.94, -1.09 11.04, -0.62 13.77 M-2.56 7.04 C-1.86 9.15, -1.16 11.3, -0.62 13.77" stroke="#343a40" stroke-width="1.5" fill="none"></path></g><g transform="translate(188 508) rotate(0 0 7)"><path d="M2.22 7.36 C1.18 9.15, 0.9 11.16, -0.62 13.77 M2.22 7.36 C1.37 9.38, 0.52 11.43, -0.62 13.77" stroke="#343a40" stroke-width="1.5" fill="none"></path></g></g><mask></mask><g stroke-linecap="round"><g transform="translate(188 572) rotate(0 0 13)"><path d="M0.11 0.13 C0.01 4.5, -0.43 21.79, -0.43 26.07 M-0.5 -0.28 C-0.44 4.2, 0.53 22.37, 0.59 26.8" stroke="#343a40" stroke-width="1.5" fill="none"></path></g><g transform="translate(188 572) rotate(0 0 13)"><path d="M-4.29 14.75 C-2.55 18.2, -1.03 22.81, 0.59 26.8 M-4.29 14.75 C-2.82 17.94, -1.58 21.29, 0.59 26.8" stroke="#343a40" stroke-width="1.5" fill="none"></path></g><g transform="translate(188 572) rotate(0 0 13)"><path d="M4.59 14.43 C3.42 17.99, 2.03 22.71, 0.59 26.8 M4.59 14.43 C3.71 17.68, 2.58 21.11, 0.59 26.8" stroke="#343a40" stroke-width="1.5" fill="none"></path></g></g><mask></mask><g stroke-linecap="round"><g transform="translate(320 419) rotate(0 32 1)"><path d="M-0.57 0.21 C9.93 0.31, 53.05 1.2, 63.83 1.6 M1.34 -0.73 C11.59 -0.54, 52.45 2.71, 62.8 2.93" stroke="#343a40" stroke-width="1.5" fill="none"></path></g><g transform="translate(320 419) rotate(0 32 1)"><path d="M27.82 -9.5 C17.76 -6.32, 6.25 -2.23, -0.57 0.21 M27.82 -9.5 C17.58 -7.02, 7.62 -2.98, -0.57 0.21" stroke="#343a40" stroke-width="1.5" fill="none"></path></g><g transform="translate(320 419) rotate(0 32 1)"><path d="M27.42 11.02 C17.33 6.61, 5.98 3.12, -0.57 0.21 M27.42 11.02 C17.44 6.3, 7.61 3.15, -0.57 0.21" stroke="#343a40" stroke-width="1.5" fill="none"></path></g><g transform="translate(320 419) rotate(0 32 1)"><path d="M34.1 11.67 C44.98 8.3, 54.57 5.57, 62.8 2.93 M34.1 11.67 C43.98 8.16, 54.03 5.74, 62.8 2.93" stroke="#343a40" stroke-width="1.5" fill="none"></path></g><g transform="translate(320 419) rotate(0 32 1)"><path d="M35.2 -8.82 C45.84 -4.63, 55.03 0.22, 62.8 2.93 M35.2 -8.82 C44.58 -5.16, 54.24 -0.4, 62.8 2.93" stroke="#343a40" stroke-width="1.5" fill="none"></path></g></g><mask></mask><g transform="translate(352 404) rotate(0 40 7.800000000000011)"><text x="40" y="0" font-family="Virgil, Segoe UI Emoji" font-size="12px" fill="#5f3dc4" text-anchor="middle" style="white-space: pre;" direction="ltr" dominant-baseline="text-before-edge">dedupe</text></g><g stroke-linecap="round"><g transform="translate(320 618) rotate(0 32 -60.5)"><path d="M0.03 -0.87 C10.76 -20.97, 54.4 -99.79, 64.95 -120 M-1.41 1.29 C9.19 -19.19, 53.9 -101.14, 64.5 -121.59" stroke="#343a40" stroke-width="1.5" fill="none"></path></g><g transform="translate(320 618) rotate(0 32 -60.5)"><path d="M4.55 -30.52 C1.69 -18.59, 3.23 -10.94, 0.03 -0.87 M4.55 -30.52 C3.55 -24.53, 2.87 -19.17, 0.03 -0.87" stroke="#343a40" stroke-width="1.5" fill="none"></path></g><g transform="translate(320 618) rotate(0 32 -60.5)"><path d="M22.56 -20.68 C13.36 -12.17, 8.62 -7.96, 0.03 -0.87 M22.56 -20.68 C17.89 -16.57, 13.5 -13.23, 0.03 -0.87" stroke="#343a40" stroke-width="1.5" fill="none"></path></g><g transform="translate(320 618) rotate(0 32 -60.5)"><path d="M60.28 -91.89 C60.15 -100.67, 64.74 -113.72, 64.5 -121.59 M60.28 -91.89 C61.29 -98.18, 62.41 -105.02, 64.5 -121.59" stroke="#343a40" stroke-width="1.5" fill="none"></path></g><g transform="translate(320 618) rotate(0 32 -60.5)"><path d="M42.18 -101.55 C48.41 -106.96, 59.32 -116.65, 64.5 -121.59 M42.18 -101.55 C46.88 -105.99, 51.72 -110.85, 64.5 -121.59" stroke="#343a40" stroke-width="1.5" fill="none"></path></g></g><mask></mask><g stroke-linecap="round"><g transform="translate(320 636) rotate(0 32 -32.5)"><path d="M-0.91 0.34 C10.12 -10.59, 54.33 -54.38, 64.97 -65.35 M0.82 -0.53 C11.88 -11.31, 53.79 -53.34, 64.54 -64" stroke="#343a40" stroke-width="1.5" fill="none"></path></g><g transform="translate(320 636) rotate(0 32 -32.5)"><path d="M11.86 -26.81 C9.91 -19.84, 6.21 -17.78, -0.91 0.34 M11.86 -26.81 C9.3 -19.88, 4.98 -13.18, -0.91 0.34" stroke="#343a40" stroke-width="1.5" fill="none"></path></g><g transform="translate(320 636) rotate(0 32 -32.5)"><path d="M26.32 -12.25 C21.45 -8.31, 14.84 -9.17, -0.91 0.34 M26.32 -12.25 C19.97 -9.06, 11.93 -6.1, -0.91 0.34" stroke="#343a40" stroke-width="1.5" fill="none"></path></g><g transform="translate(320 636) rotate(0 32 -32.5)"><path d="M51.83 -36.82 C54.88 -40.55, 56.29 -49.39, 64.54 -64 M51.83 -36.82 C55.5 -43.83, 57.72 -51.08, 64.54 -64" stroke="#343a40" stroke-width="1.5" fill="none"></path></g><g transform="translate(320 636) rotate(0 32 -32.5)"><path d="M37.33 -51.35 C43.33 -52.06, 47.63 -57.98, 64.54 -64 M37.33 -51.35 C44.81 -54.62, 50.76 -58.14, 64.54 -64" stroke="#343a40" stroke-width="1.5" fill="none"></path></g></g><mask></mask><g transform="translate(352 609.5) rotate(0 60 7.800000000000011)"><text x="60" y="0" font-family="Virgil, Segoe UI Emoji" font-size="12px" fill="#5f3dc4" text-anchor="middle" style="white-space: pre;" direction="ltr" dominant-baseline="text-before-edge">prefs lookup</text></g><g stroke-linecap="round"><g transform="translate(188 654) rotate(0 0 22)"><path d="M0.02 -0.39 C-0.04 6.95, -0.35 36.54, -0.41 44 M-0.63 0.59 C-0.51 8.03, 0.65 37.55, 0.62 44.7" stroke="#343a40" stroke-width="2.5" fill="none"></path></g><g transform="translate(188 654) rotate(0 0 22)"><path d="M-7.34 24.19 C-5.76 29.37, -2.75 35.48, 0.62 44.7 M-7.34 24.19 C-4.78 31.32, -1.58 38.91, 0.62 44.7" stroke="#343a40" stroke-width="2.5" fill="none"></path></g><g transform="translate(188 654) rotate(0 0 22)"><path d="M7.71 23.88 C4.94 29.15, 3.61 35.36, 0.62 44.7 M7.71 23.88 C4.73 31.19, 2.4 38.9, 0.62 44.7" stroke="#343a40" stroke-width="2.5" fill="none"></path></g></g><mask></mask><g transform="translate(188 660) rotate(0 85 7.800000000000011)"><text x="85" y="0" font-family="Virgil, Segoe UI Emoji" font-size="12px" fill="#5f3dc4" text-anchor="middle" style="white-space: pre;" direction="ltr" dominant-baseline="text-before-edge">publish by priority</text></g><g stroke-linecap="round"><g transform="translate(122 752) rotate(0 0 19)"><path d="M0.13 -0.23 C0.09 6.17, 0.35 31.58, 0.26 37.93 M-0.46 -0.82 C-0.61 5.71, -0.23 32.06, -0.04 38.59" stroke="#343a40" stroke-width="1.5" fill="none"></path></g><g transform="translate(122 752) rotate(0 0 19)"><path d="M-6.89 20.87 C-4.62 28.37, -1.63 34.26, -0.04 38.59 M-6.89 20.87 C-4.88 25.86, -3.43 30.46, -0.04 38.59" stroke="#343a40" stroke-width="1.5" fill="none"></path></g><g transform="translate(122 752) rotate(0 0 19)"><path d="M6.1 20.61 C3.19 28.23, 1 34.22, -0.04 38.59 M6.1 20.61 C4.58 25.67, 2.49 30.34, -0.04 38.59" stroke="#343a40" stroke-width="1.5" fill="none"></path></g></g><mask></mask><g transform="translate(122 749) rotate(0 45 7.800000000000011)"><text x="45" y="0" font-family="Virgil, Segoe UI Emoji" font-size="12px" fill="#5f3dc4" text-anchor="middle" style="white-space: pre;" direction="ltr" dominant-baseline="text-before-edge">consume</text></g><g stroke-linecap="round"><g transform="translate(334 752) rotate(0 0 19)"><path d="M0.49 -0.28 C0.48 5.97, 0.25 31.18, 0.16 37.6 M0.07 0.77 C-0.01 7.07, -0.1 32, -0.2 38.1" stroke="#343a40" stroke-width="1.5" fill="none"></path></g><g transform="translate(334 752) rotate(0 0 19)"><path d="M-6.54 20.19 C-4.88 26.44, -2.95 32, -0.2 38.1 M-6.54 20.19 C-4.38 26.24, -1.92 32.67, -0.2 38.1" stroke="#343a40" stroke-width="1.5" fill="none"></path></g><g transform="translate(334 752) rotate(0 0 19)"><path d="M6.46 20.3 C3.76 26.57, 1.32 32.09, -0.2 38.1 M6.46 20.3 C4.08 26.35, 2 32.74, -0.2 38.1" stroke="#343a40" stroke-width="1.5" fill="none"></path></g></g><mask></mask><g stroke-linecap="round"><g transform="translate(546 752) rotate(0 0 19)"><path d="M0.41 -0.15 C0.44 6.08, -0.13 31.45, -0.28 37.85 M-0.04 -0.7 C0.21 5.84, 0.71 32.14, 0.81 38.48" stroke="#343a40" stroke-width="1.5" fill="none"></path></g><g transform="translate(546 752) rotate(0 0 19)"><path d="M-6.01 20.74 C-4.71 24.09, -3.22 27.57, 0.81 38.48 M-6.01 20.74 C-3.95 27.24, -0.91 32.99, 0.81 38.48" stroke="#343a40" stroke-width="1.5" fill="none"></path></g><g transform="translate(546 752) rotate(0 0 19)"><path d="M6.98 20.51 C5.46 23.95, 4.12 27.49, 0.81 38.48 M6.98 20.51 C4.54 27.09, 3.08 32.91, 0.81 38.48" stroke="#343a40" stroke-width="1.5" fill="none"></path></g></g><mask></mask><g stroke-linecap="round"><g transform="translate(758 752) rotate(0 0 19)"><path d="M0.22 -0.42 C0.26 5.84, 0.16 31.51, 0.16 37.85 M-0.34 0.55 C-0.34 6.87, -0.24 32.22, -0.2 38.47" stroke="#343a40" stroke-width="1.5" fill="none"></path></g><g transform="translate(758 752) rotate(0 0 19)"><path d="M-6.78 20.65 C-5.66 25.82, -3.37 30.76, -0.2 38.47 M-6.78 20.65 C-5.24 24.65, -3.33 28.8, -0.2 38.47" stroke="#343a40" stroke-width="1.5" fill="none"></path></g><g transform="translate(758 752) rotate(0 0 19)"><path d="M6.21 20.58 C3.76 25.8, 2.46 30.76, -0.2 38.47 M6.21 20.58 C4.75 24.59, 3.65 28.76, -0.2 38.47" stroke="#343a40" stroke-width="1.5" fill="none"></path></g></g><mask></mask><g stroke-linecap="round"><g transform="translate(122 846) rotate(0 0 17)"><path d="M-0.25 0.04 C-0.33 5.71, -0.29 27.94, -0.17 33.67 M0.63 -0.41 C0.43 5.35, -0.64 28.53, -0.69 34.19" stroke="#343a40" stroke-width="1.5" fill="none"></path></g><g transform="translate(122 846) rotate(0 0 17)"><path d="M-6.02 18.05 C-4.1 23.58, -2.77 30.32, -0.69 34.19 M-6.02 18.05 C-3.65 23.99, -1.63 30.46, -0.69 34.19" stroke="#343a40" stroke-width="1.5" fill="none"></path></g><g transform="translate(122 846) rotate(0 0 17)"><path d="M5.61 18.4 C3.36 23.78, 0.53 30.39, -0.69 34.19 M5.61 18.4 C3.62 24.22, 1.28 30.55, -0.69 34.19" stroke="#343a40" stroke-width="1.5" fill="none"></path></g></g><mask></mask><g stroke-linecap="round"><g transform="translate(334 846) rotate(0 0 17)"><path d="M0.05 -0.04 C0.04 5.53, 0.12 28.09, 0.16 33.85 M-0.59 -0.54 C-0.68 5.08, -0.31 28.77, -0.19 34.47" stroke="#343a40" stroke-width="1.5" fill="none"></path></g><g transform="translate(334 846) rotate(0 0 17)"><path d="M-6.28 18.6 C-4.19 24.31, -2.26 29.99, -0.19 34.47 M-6.28 18.6 C-3.57 25.1, -1.81 30.74, -0.19 34.47" stroke="#343a40" stroke-width="1.5" fill="none"></path></g><g transform="translate(334 846) rotate(0 0 17)"><path d="M5.35 18.4 C3.44 24.18, 1.36 29.94, -0.19 34.47 M5.35 18.4 C3.53 25.02, 0.74 30.73, -0.19 34.47" stroke="#343a40" stroke-width="1.5" fill="none"></path></g></g><mask></mask><g stroke-linecap="round"><g transform="translate(546 846) rotate(0 0 17)"><path d="M0.49 0.19 C0.41 5.89, -0.29 28.09, -0.44 33.69 M0.07 -0.19 C0.17 5.63, 0.47 28.48, 0.57 34.22" stroke="#343a40" stroke-width="1.5" fill="none"></path></g><g transform="translate(546 846) rotate(0 0 17)"><path d="M-5.49 18.34 C-3.45 22.42, -2.4 27.25, 0.57 34.22 M-5.49 18.34 C-4.13 22.85, -2.35 26.97, 0.57 34.22" stroke="#343a40" stroke-width="1.5" fill="none"></path></g><g transform="translate(546 846) rotate(0 0 17)"><path d="M6.14 18.16 C4.67 22.35, 2.22 27.23, 0.57 34.22 M6.14 18.16 C4.46 22.69, 3.22 26.86, 0.57 34.22" stroke="#343a40" stroke-width="1.5" fill="none"></path></g></g><mask></mask><g stroke-linecap="round"><g transform="translate(758 846) rotate(0 0 17)"><path d="M-0.38 0.02 C-0.28 5.61, 0.01 28.42, 0.09 34.03 M0.43 -0.44 C0.51 5.48, -0.19 28.99, -0.29 34.74" stroke="#343a40" stroke-width="1.5" fill="none"></path></g><g transform="translate(758 846) rotate(0 0 17)"><path d="M-5.72 18.63 C-4.49 22.13, -3.35 25.49, -0.29 34.74 M-5.72 18.63 C-4.45 22.26, -2.78 25.99, -0.29 34.74" stroke="#343a40" stroke-width="1.5" fill="none"></path></g><g transform="translate(758 846) rotate(0 0 17)"><path d="M5.91 18.91 C4.73 22.32, 3.45 25.62, -0.29 34.74 M5.91 18.91 C4.43 22.5, 3.35 26.17, -0.29 34.74" stroke="#343a40" stroke-width="1.5" fill="none"></path></g></g><mask></mask><g stroke-linecap="round"><g transform="translate(852 725) rotate(0 18 0)"><path d="M0.26 0.14 C6.32 0.1, 29.76 0.03, 35.81 0.1 M-0.26 -0.26 C5.75 -0.51, 29.15 -0.82, 35.28 -0.82" stroke="#343a40" stroke-width="1.5" fill="none"></path></g><g transform="translate(852 725) rotate(0 18 0)"><path d="M18.41 5.47 C22.08 3.83, 25.46 3.75, 35.28 -0.82 M18.41 5.47 C25.04 2.76, 31.94 0.59, 35.28 -0.82" stroke="#343a40" stroke-width="1.5" fill="none"></path></g><g transform="translate(852 725) rotate(0 18 0)"><path d="M18.32 -6.84 C22.04 -5.96, 25.44 -3.52, 35.28 -0.82 M18.32 -6.84 C25.04 -4.68, 31.97 -1.97, 35.28 -0.82" stroke="#343a40" stroke-width="1.5" fill="none"></path></g></g><mask></mask><g stroke-linecap="round"><g transform="translate(986 752) rotate(0 0 19)"><path d="M0.28 0.22 C0.33 6.57, 0.49 31.63, 0.52 38 M-0.24 -0.14 C-0.24 6.31, 0.26 32.41, 0.36 38.7" stroke="#343a40" stroke-width="1.5" fill="none"></path></g><g transform="translate(986 752) rotate(0 0 19)"><path d="M-6.45 20.96 C-3.78 27.85, -1.86 33.77, 0.36 38.7 M-6.45 20.96 C-3.79 28.19, -1.31 34.72, 0.36 38.7" stroke="#343a40" stroke-width="1.5" fill="none"></path></g><g transform="translate(986 752) rotate(0 0 19)"><path d="M6.54 20.74 C4.82 27.73, 2.35 33.73, 0.36 38.7 M6.54 20.74 C4.21 28.05, 1.71 34.66, 0.36 38.7" stroke="#343a40" stroke-width="1.5" fill="none"></path></g></g><mask></mask></svg>