<?xml version="1.0" encoding="UTF-8"?>
<svg id="diagram" viewBox="0 0 1060 1090" xmlns="http://www.w3.org/2000/svg" width="1060" height="1090"><rect x="0" y="0" width="1060" height="1090" fill="#ffffff"></rect><g><rect x="200" y="202" width="322" height="80" rx="14" ry="14" fill="#f8fafc" stroke="#64748b" stroke-width="1.6" stroke-dasharray="7 5"></rect><rect x="214" y="179" width="218" height="22" rx="7" ry="7" fill="#475569"></rect><text x="323" y="190" fill="#fff" font-size="11.5" font-weight="700" text-anchor="middle" dominant-baseline="central">▢ Notification Ingestion Service</text><rect x="198" y="392" width="324" height="88" rx="14" ry="14" fill="#f8fafc" stroke="#64748b" stroke-width="1.6" stroke-dasharray="7 5"></rect><rect x="212" y="369" width="224.4" height="22" rx="7" ry="7" fill="#475569"></rect><text x="324.2" y="380" fill="#fff" font-size="11.5" font-weight="700" text-anchor="middle" dominant-baseline="central">▢ Notification Processing Service</text><rect x="38" y="648" width="914" height="86" rx="14" ry="14" fill="#f8fafc" stroke="#64748b" stroke-width="1.6" stroke-dasharray="7 5"></rect><rect x="52" y="625" width="186" height="22" rx="7" ry="7" fill="#475569"></rect><text x="145" y="636" fill="#fff" font-size="11.5" font-weight="700" text-anchor="middle" dominant-baseline="central">▢ Channel Delivery Services</text><rect x="178" y="935" width="634" height="80" rx="14" ry="14" fill="#f8fafc" stroke="#64748b" stroke-width="1.6" stroke-dasharray="7 5"></rect><rect x="192" y="912" width="205.20000000000002" height="22" rx="7" ry="7" fill="#475569"></rect><text x="294.6" y="923" fill="#fff" font-size="11.5" font-weight="700" text-anchor="middle" dominant-baseline="central">▢ Tracking &amp; Analytics Service</text></g><g><path d="M495,90 L495,111" fill="none" stroke="#55606a" stroke-width="1.9" stroke-linejoin="round" stroke-linecap="round"></path><polygon points="495,111 491.12627569593405,102.32565506703307 498.8737243040659,102.32565506703307" fill="#55606a"></polygon><path d="M495,169 L495,208 L360,208 L360,211" fill="none" stroke="#55606a" stroke-width="1.9" stroke-linejoin="round" stroke-linecap="round"></path><polygon points="360,211 356.12627569593405,202.32565506703307 363.8737243040659,202.32565506703307" fill="#55606a"></polygon><path d="M505,242 L780,242" fill="none" stroke="#aab2bb" stroke-width="1.6" stroke-linejoin="round" stroke-linecap="round" stroke-dasharray="6 5"></path><polygon points="780,242 771.325655067033,245.87372430406592 771.325655067033,238.12627569593408" fill="#aab2bb"></polygon><path d="M360,273 L360,291.5 L495,291.5 L495,310" fill="none" stroke="#55606a" stroke-width="1.9" stroke-linejoin="round" stroke-linecap="round"></path><polygon points="495,310 491.12627569593405,301.3256550670331 498.8737243040659,301.3256550670331" fill="#55606a"></polygon><path d="M495,362 L495,398 L360,398 L360,403" fill="none" stroke="#55606a" stroke-width="1.9" stroke-linejoin="round" stroke-linecap="round"></path><polygon points="360,403 356.12627569593405,394.3256550670331 363.8737243040659,394.3256550670331" fill="#55606a"></polygon><path d="M510,436 L645,436 L645,404 L780,404" fill="none" stroke="#aab2bb" stroke-width="1.6" stroke-linejoin="round" stroke-linecap="round" stroke-dasharray="6 5"></path><polygon points="780,404 771.325655067033,407.87372430406595 771.325655067033,400.12627569593405" fill="#aab2bb"></polygon><path d="M510,436 L645,436 L645,458 L780,458" fill="none" stroke="#aab2bb" stroke-width="1.6" stroke-linejoin="round" stroke-linecap="round" stroke-dasharray="6 5"></path><polygon points="780,458 771.325655067033,461.87372430406595 771.325655067033,454.12627569593405" fill="#aab2bb"></polygon><path d="M510,436 L645,436 L645,512 L780,512" fill="none" stroke="#aab2bb" stroke-width="1.6" stroke-linejoin="round" stroke-linecap="round" stroke-dasharray="6 5"></path><polygon points="780,512 771.325655067033,515.873724304066 771.325655067033,508.12627569593405" fill="#aab2bb"></polygon><path d="M360,469 L360,504.5 L495,504.5 L495,540" fill="none" stroke="#55606a" stroke-width="1.9" stroke-linejoin="round" stroke-linecap="round"></path><polygon points="495,540 491.12627569593405,531.325655067033 498.8737243040659,531.325655067033" fill="#55606a"></polygon><path d="M495,592 L495,654 L150,654 L150,659" fill="none" stroke="#55606a" stroke-width="1.9" stroke-linejoin="round" stroke-linecap="round"></path><polygon points="150,659 146.12627569593408,650.325655067033 153.87372430406592,650.325655067033" fill="#55606a"></polygon><path d="M495,592 L495,654 L380,654 L380,659" fill="none" stroke="#55606a" stroke-width="1.9" stroke-linejoin="round" stroke-linecap="round"></path><polygon points="380,659 376.12627569593405,650.325655067033 383.8737243040659,650.325655067033" fill="#55606a"></polygon><path d="M495,592 L495,654 L610,654 L610,659" fill="none" stroke="#55606a" stroke-width="1.9" stroke-linejoin="round" stroke-linecap="round"></path><polygon points="610,659 606.126275695934,650.325655067033 613.873724304066,650.325655067033" fill="#55606a"></polygon><path d="M495,592 L495,654 L840,654 L840,659" fill="none" stroke="#55606a" stroke-width="1.9" stroke-linejoin="round" stroke-linecap="round"></path><polygon points="840,659 836.126275695934,650.325655067033 843.873724304066,650.325655067033" fill="#55606a"></polygon><path d="M150,721 L150,765" fill="none" stroke="#55606a" stroke-width="1.9" stroke-linejoin="round" stroke-linecap="round"></path><polygon points="150,765 146.12627569593408,756.325655067033 153.87372430406592,756.325655067033" fill="#55606a"></polygon><path d="M380,721 L380,765" fill="none" stroke="#55606a" stroke-width="1.9" stroke-linejoin="round" stroke-linecap="round"></path><polygon points="380,765 376.12627569593405,756.325655067033 383.8737243040659,756.325655067033" fill="#55606a"></polygon><path d="M610,721 L610,765" fill="none" stroke="#55606a" stroke-width="1.9" stroke-linejoin="round" stroke-linecap="round"></path><polygon points="610,765 606.126275695934,756.325655067033 613.873724304066,756.325655067033" fill="#55606a"></polygon><path d="M840,721 L840,765" fill="none" stroke="#55606a" stroke-width="1.9" stroke-linejoin="round" stroke-linecap="round"></path><polygon points="840,765 836.126275695934,756.325655067033 843.873724304066,756.325655067033" fill="#55606a"></polygon><path d="M150,819 L150,840 L495,840 L495,857" fill="none" stroke="#55606a" stroke-width="1.9" stroke-linejoin="round" stroke-linecap="round"></path><polygon points="495,857 491.12627569593405,848.325655067033 498.8737243040659,848.325655067033" fill="#55606a"></polygon><path d="M380,819 L380,840 L495,840 L495,857" fill="none" stroke="#55606a" stroke-width="1.9" stroke-linejoin="round" stroke-linecap="round"></path><polygon points="495,857 491.12627569593405,848.325655067033 498.8737243040659,848.325655067033" fill="#55606a"></polygon><path d="M610,819 L610,840 L495,840 L495,857" fill="none" stroke="#55606a" stroke-width="1.9" stroke-linejoin="round" stroke-linecap="round"></path><polygon points="495,857 491.12627569593405,848.325655067033 498.8737243040659,848.325655067033" fill="#55606a"></polygon><path d="M840,819 L840,840 L495,840 L495,857" fill="none" stroke="#55606a" stroke-width="1.9" stroke-linejoin="round" stroke-linecap="round"></path><polygon points="495,857 491.12627569593405,848.325655067033 498.8737243040659,848.325655067033" fill="#55606a"></polygon><path d="M495,907 L495,938 L320,938 L320,941" fill="none" stroke="#55606a" stroke-width="1.9" stroke-linejoin="round" stroke-linecap="round"></path><polygon points="320,941 316.12627569593405,932.325655067033 323.8737243040659,932.325655067033" fill="#55606a"></polygon><path d="M452,970 L540,970" fill="none" stroke="#55606a" stroke-width="1.9" stroke-linejoin="round" stroke-linecap="round"></path><polygon points="540,970 531.325655067033,973.873724304066 531.325655067033,966.126275695934" fill="#55606a"></polygon><path d="M320,999 L320,1032" fill="none" stroke="#55606a" stroke-width="1.9" stroke-linejoin="round" stroke-linecap="round"></path><polygon points="320,1032 316.12627569593405,1023.325655067033 323.8737243040659,1023.325655067033" fill="#55606a"></polygon><path d="M672,999 L672,1032" fill="none" stroke="#55606a" stroke-width="1.9" stroke-linejoin="round" stroke-linecap="round"></path><polygon points="672,1032 668.126275695934,1023.325655067033 675.873724304066,1023.325655067033" fill="#55606a"></polygon></g><g><rect x="295" y="38" width="400" height="52" rx="9" ry="9" fill="#fff" stroke="#6c757d" stroke-width="1.7" filter="url(#sh)"></rect><path d="M295,61.92 V47 Q295,38 304,38 H686 Q695,38 695,47 V61.92 Z" fill="#6c757d"></path><text x="495" y="50.46" fill="#fff" font-weight="700" font-size="12.5" text-anchor="middle" dominant-baseline="central">Upstream Services</text><text x="495" y="75.96000000000001" fill="#3c454d" font-size="10.8" text-anchor="middle" dominant-baseline="central">Search · Growth · Security · …</text><rect x="305" y="111" width="380" height="58" rx="9" ry="9" fill="#fff" stroke="#4338ca" stroke-width="1.7" filter="url(#sh)"></rect><path d="M305,137 V120 Q305,111 314,111 H676 Q685,111 685,120 V137 Z" fill="#4f46e5"></path><text x="495" y="124.5" fill="#fff" font-weight="700" font-size="12.5" text-anchor="middle" dominant-baseline="central">API Gateway + Load Balancer</text><text x="495" y="153" fill="#3c454d" font-size="10.8" text-anchor="middle" dominant-baseline="central">TLS · authN · routing · global rate-limit</text><rect x="215" y="211" width="290" height="62" rx="9" ry="9" fill="#fff" stroke="#0F5BB5" stroke-width="1.7" filter="url(#sh)"></rect><path d="M215,237 V220 Q215,211 224,211 H496 Q505,211 505,220 V237 Z" fill="#0078D4"></path><text x="360" y="224.5" fill="#fff" font-weight="700" font-size="12.5" text-anchor="middle" dominant-baseline="central">Notification API</text><text x="360" y="255" fill="#3c454d" font-size="10.8" text-anchor="middle" dominant-baseline="central">REST / gRPC · validate · 202 Accepted</text><rect x="780" y="211" width="250" height="62" rx="9" ry="9" fill="#fff" stroke="#0A6E80" stroke-width="1.7" filter="url(#sh)"></rect><path d="M780,237 V220 Q780,211 789,211 H1021 Q1030,211 1030,220 V237 Z" fill="#0C8599"></path><text x="905" y="224.5" fill="#fff" font-weight="700" font-size="12.5" text-anchor="middle" dominant-baseline="central">Redis</text><text x="905" y="255" fill="#3c454d" font-size="10.8" text-anchor="middle" dominant-baseline="central">idempotency keys · SET NX · 24h TTL</text><rect x="215" y="310" width="560" height="52" rx="9" ry="9" fill="#fff" stroke="#C8590B" stroke-width="1.7" filter="url(#sh)"></rect><path d="M215,333.92 V319 Q215,310 224,310 H766 Q775,310 775,319 V333.92 Z" fill="#F7630C"></path><text x="495" y="322.46" fill="#fff" font-weight="700" font-size="12.5" text-anchor="middle" dominant-baseline="central">Apache Kafka</text><text x="495" y="347.96000000000004" fill="#3c454d" font-size="10.8" text-anchor="middle" dominant-baseline="central">topic: notifications.requested · partitioned by userId</text><rect x="210" y="403" width="300" height="66" rx="9" ry="9" fill="#fff" stroke="#0F5BB5" stroke-width="1.7" filter="url(#sh)"></rect><path d="M210,429 V412 Q210,403 219,403 H501 Q510,403 510,412 V429 Z" fill="#0078D4"></path><text x="360" y="416.5" fill="#fff" font-weight="700" font-size="12.5" text-anchor="middle" dominant-baseline="central">Notification Processor</text><text x="360" y="449" fill="#3c454d" font-size="10.8" text-anchor="middle" dominant-baseline="central">resolve prefs · render · rate-limit · fan-out</text><rect x="780" y="380" width="250" height="48" rx="9" ry="9" fill="#fff" stroke="#0A6E80" stroke-width="1.7" filter="url(#sh)"></rect><path d="M780,402.08 V389 Q780,380 789,380 H1021 Q1030,380 1030,389 V402.08 Z" fill="#0C8599"></path><text x="905" y="391.54" fill="#fff" font-weight="700" font-size="12.5" text-anchor="middle" dominant-baseline="central">PostgreSQL</text><text x="905" y="415.03999999999996" fill="#3c454d" font-size="10.8" text-anchor="middle" dominant-baseline="central">user preferences &amp; channels</text><rect x="780" y="434" width="250" height="48" rx="9" ry="9" fill="#fff" stroke="#0A6E80" stroke-width="1.7" filter="url(#sh)"></rect><path d="M780,456.08 V443 Q780,434 789,434 H1021 Q1030,434 1030,443 V456.08 Z" fill="#0C8599"></path><text x="905" y="445.54" fill="#fff" font-weight="700" font-size="12.5" text-anchor="middle" dominant-baseline="central">Redis</text><text x="905" y="469.03999999999996" fill="#3c454d" font-size="10.8" text-anchor="middle" dominant-baseline="central">rate-limit (token-bucket) · cache</text><rect x="780" y="488" width="250" height="48" rx="9" ry="9" fill="#fff" stroke="#0A6E80" stroke-width="1.7" filter="url(#sh)"></rect><path d="M780,510.08 V497 Q780,488 789,488 H1021 Q1030,488 1030,497 V510.08 Z" fill="#0C8599"></path><text x="905" y="499.54" fill="#fff" font-weight="700" font-size="12.5" text-anchor="middle" dominant-baseline="central">Amazon S3</text><text x="905" y="523.04" fill="#3c454d" font-size="10.8" text-anchor="middle" dominant-baseline="central">notification templates</text><rect x="215" y="540" width="560" height="52" rx="9" ry="9" fill="#fff" stroke="#C8590B" stroke-width="1.7" filter="url(#sh)"></rect><path d="M215,563.92 V549 Q215,540 224,540 H766 Q775,540 775,549 V563.92 Z" fill="#F7630C"></path><text x="495" y="552.46" fill="#fff" font-weight="700" font-size="12.5" text-anchor="middle" dominant-baseline="central">Apache Kafka</text><text x="495" y="577.9599999999999" fill="#3c454d" font-size="10.8" text-anchor="middle" dominant-baseline="central">per-channel topics: push · email · sms · in-app</text><rect x="50" y="659" width="200" height="62" rx="9" ry="9" fill="#fff" stroke="#0F5BB5" stroke-width="1.7" filter="url(#sh)"></rect><path d="M50,685 V668 Q50,659 59,659 H241 Q250,659 250,668 V685 Z" fill="#0078D4"></path><text x="150" y="672.5" fill="#fff" font-weight="700" font-size="12.5" text-anchor="middle" dominant-baseline="central">Push Worker</text><text x="150" y="703" fill="#3c454d" font-size="10.8" text-anchor="middle" dominant-baseline="central">consume · retry · DLQ</text><rect x="280" y="659" width="200" height="62" rx="9" ry="9" fill="#fff" stroke="#0F5BB5" stroke-width="1.7" filter="url(#sh)"></rect><path d="M280,685 V668 Q280,659 289,659 H471 Q480,659 480,668 V685 Z" fill="#0078D4"></path><text x="380" y="672.5" fill="#fff" font-weight="700" font-size="12.5" text-anchor="middle" dominant-baseline="central">Email Worker</text><text x="380" y="703" fill="#3c454d" font-size="10.8" text-anchor="middle" dominant-baseline="central">consume · retry · DLQ</text><rect x="510" y="659" width="200" height="62" rx="9" ry="9" fill="#fff" stroke="#0F5BB5" stroke-width="1.7" filter="url(#sh)"></rect><path d="M510,685 V668 Q510,659 519,659 H701 Q710,659 710,668 V685 Z" fill="#0078D4"></path><text x="610" y="672.5" fill="#fff" font-weight="700" font-size="12.5" text-anchor="middle" dominant-baseline="central">SMS Worker</text><text x="610" y="703" fill="#3c454d" font-size="10.8" text-anchor="middle" dominant-baseline="central">consume · shape · DLQ</text><rect x="740" y="659" width="200" height="62" rx="9" ry="9" fill="#fff" stroke="#0F5BB5" stroke-width="1.7" filter="url(#sh)"></rect><path d="M740,685 V668 Q740,659 749,659 H931 Q940,659 940,668 V685 Z" fill="#0078D4"></path><text x="840" y="672.5" fill="#fff" font-weight="700" font-size="12.5" text-anchor="middle" dominant-baseline="central">In-App Writer</text><text x="840" y="703" fill="#3c454d" font-size="10.8" text-anchor="middle" dominant-baseline="central">idempotent upsert</text><rect x="50" y="765" width="200" height="54" rx="9" ry="9" fill="#fff" stroke="#1F7A33" stroke-width="1.7" filter="url(#sh)"></rect><path d="M50,789.84 V774 Q50,765 59,765 H241 Q250,765 250,774 V789.84 Z" fill="#2f9e44"></path><text x="150" y="777.92" fill="#fff" font-weight="700" font-size="12.5" text-anchor="middle" dominant-baseline="central">APNs / FCM</text><text x="150" y="804.4200000000001" fill="#3c454d" font-size="10.8" text-anchor="middle" dominant-baseline="central">Apple / Google push</text><rect x="280" y="765" width="200" height="54" rx="9" ry="9" fill="#fff" stroke="#1F7A33" stroke-width="1.7" filter="url(#sh)"></rect><path d="M280,789.84 V774 Q280,765 289,765 H471 Q480,765 480,774 V789.84 Z" fill="#2f9e44"></path><text x="380" y="777.92" fill="#fff" font-weight="700" font-size="12.5" text-anchor="middle" dominant-baseline="central">Amazon SES</text><text x="380" y="804.4200000000001" fill="#3c454d" font-size="10.8" text-anchor="middle" dominant-baseline="central">email delivery</text><rect x="510" y="765" width="200" height="54" rx="9" ry="9" fill="#fff" stroke="#1F7A33" stroke-width="1.7" filter="url(#sh)"></rect><path d="M510,789.84 V774 Q510,765 519,765 H701 Q710,765 710,774 V789.84 Z" fill="#2f9e44"></path><text x="610" y="777.92" fill="#fff" font-weight="700" font-size="12.5" text-anchor="middle" dominant-baseline="central">Twilio</text><text x="610" y="804.4200000000001" fill="#3c454d" font-size="10.8" text-anchor="middle" dominant-baseline="central">SMS gateway</text><rect x="740" y="765" width="200" height="54" rx="9" ry="9" fill="#fff" stroke="#0A6E80" stroke-width="1.7" filter="url(#sh)"></rect><path d="M740,789.84 V774 Q740,765 749,765 H931 Q940,765 940,774 V789.84 Z" fill="#0C8599"></path><text x="840" y="777.92" fill="#fff" font-weight="700" font-size="12.5" text-anchor="middle" dominant-baseline="central">Cassandra</text><text x="840" y="804.4200000000001" fill="#3c454d" font-size="10.8" text-anchor="middle" dominant-baseline="central">in-app feed (per-user)</text><rect x="215" y="857" width="560" height="50" rx="9" ry="9" fill="#fff" stroke="#C8590B" stroke-width="1.7" filter="url(#sh)"></rect><path d="M215,880 V866 Q215,857 224,857 H766 Q775,857 775,866 V880 Z" fill="#F7630C"></path><text x="495" y="869" fill="#fff" font-weight="700" font-size="12.5" text-anchor="middle" dominant-baseline="central">Apache Kafka</text><text x="495" y="893.5" fill="#3c454d" font-size="10.8" text-anchor="middle" dominant-baseline="central">topic: notifications.delivered (status events)</text><rect x="188" y="941" width="264" height="58" rx="9" ry="9" fill="#fff" stroke="#0F5BB5" stroke-width="1.7" filter="url(#sh)"></rect><path d="M188,967 V950 Q188,941 197,941 H443 Q452,941 452,950 V967 Z" fill="#0078D4"></path><text x="320" y="954.5" fill="#fff" font-weight="700" font-size="12.5" text-anchor="middle" dominant-baseline="central">Status Consumer</text><text x="320" y="983" fill="#3c454d" font-size="10.8" text-anchor="middle" dominant-baseline="central">delivered · bounced · opened</text><rect x="540" y="941" width="264" height="58" rx="9" ry="9" fill="#fff" stroke="#0F5BB5" stroke-width="1.7" filter="url(#sh)"></rect><path d="M540,967 V950 Q540,941 549,941 H795 Q804,941 804,950 V967 Z" fill="#0078D4"></path><text x="672" y="954.5" fill="#fff" font-weight="700" font-size="12.5" text-anchor="middle" dominant-baseline="central">Apache Flink</text><text x="672" y="983" fill="#3c454d" font-size="10.8" text-anchor="middle" dominant-baseline="central">stream aggregation</text><rect x="188" y="1032" width="264" height="52" rx="9" ry="9" fill="#fff" stroke="#0A6E80" stroke-width="1.7" filter="url(#sh)"></rect><path d="M188,1055.92 V1041 Q188,1032 197,1032 H443 Q452,1032 452,1041 V1055.92 Z" fill="#0C8599"></path><text x="320" y="1044.46" fill="#fff" font-weight="700" font-size="12.5" text-anchor="middle" dominant-baseline="central">Cassandra</text><text x="320" y="1069.96" fill="#3c454d" font-size="10.8" text-anchor="middle" dominant-baseline="central">delivery log · 90-day TTL</text><rect x="540" y="1032" width="264" height="52" rx="9" ry="9" fill="#fff" stroke="#0A6E80" stroke-width="1.7" filter="url(#sh)"></rect><path d="M540,1055.92 V1041 Q540,1032 549,1032 H795 Q804,1032 804,1041 V1055.92 Z" fill="#0C8599"></path><text x="672" y="1044.46" fill="#fff" font-weight="700" font-size="12.5" text-anchor="middle" dominant-baseline="central">BigQuery + Prometheus</text><text x="672" y="1069.96" fill="#3c454d" font-size="10.8" text-anchor="middle" dominant-baseline="central">analytics · SLO metrics</text></g><g><rect x="442.25" y="91.5" width="105.5" height="18" rx="9" ry="9" fill="#ffffff" stroke="#dde2e7" stroke-width="1"></rect><text x="495" y="101" fill="#27313a" font-size="10.8" font-weight="600" text-anchor="middle" dominant-baseline="central">deliver request</text><rect x="466.65" y="179.5" width="56.699999999999996" height="18" rx="9" ry="9" fill="#ffffff" stroke="#dde2e7" stroke-width="1"></rect><text x="495" y="189" fill="#27313a" font-size="10.8" font-weight="600" text-anchor="middle" dominant-baseline="central">① route</text><rect x="617.2" y="233" width="50.599999999999994" height="18" rx="9" ry="9" fill="#ffffff" stroke="#dde2e7" stroke-width="1"></rect><text x="642.5" y="242.5" fill="#27313a" font-size="10.8" font-weight="600" text-anchor="middle" dominant-baseline="central">dedupe</text><rect x="393.05" y="282.5" width="68.9" height="18" rx="9" ry="9" fill="#ffffff" stroke="#dde2e7" stroke-width="1"></rect><text x="427.5" y="292" fill="#27313a" font-size="10.8" font-weight="600" text-anchor="middle" dominant-baseline="central">② publish</text><rect x="460.55" y="371" width="68.9" height="18" rx="9" ry="9" fill="#ffffff" stroke="#dde2e7" stroke-width="1"></rect><text x="495" y="380.5" fill="#27313a" font-size="10.8" font-weight="600" text-anchor="middle" dominant-baseline="central">③ consume</text><rect x="607.5" y="411" width="75" height="18" rx="9" ry="9" fill="#ffffff" stroke="#dde2e7" stroke-width="1"></rect><text x="645" y="420.5" fill="#27313a" font-size="10.8" font-weight="600" text-anchor="middle" dominant-baseline="central">load prefs</text><rect x="607.5" y="438" width="75" height="18" rx="9" ry="9" fill="#ffffff" stroke="#dde2e7" stroke-width="1"></rect><text x="645" y="447.5" fill="#27313a" font-size="10.8" font-weight="600" text-anchor="middle" dominant-baseline="central">rate-limit</text><rect x="598.35" y="465" width="93.3" height="18" rx="9" ry="9" fill="#ffffff" stroke="#dde2e7" stroke-width="1"></rect><text x="645" y="474.5" fill="#27313a" font-size="10.8" font-weight="600" text-anchor="middle" dominant-baseline="central">load template</text><rect x="368.65" y="495.5" width="117.69999999999999" height="18" rx="9" ry="9" fill="#ffffff" stroke="#dde2e7" stroke-width="1"></rect><text x="427.5" y="505" fill="#27313a" font-size="10.8" font-weight="600" text-anchor="middle" dominant-baseline="central">route per-channel</text><rect x="460.55" y="614" width="68.9" height="18" rx="9" ry="9" fill="#ffffff" stroke="#dde2e7" stroke-width="1"></rect><text x="495" y="623.5" fill="#27313a" font-size="10.8" font-weight="600" text-anchor="middle" dominant-baseline="central">④ fan-out</text><rect x="124.7" y="734" width="50.599999999999994" height="18" rx="9" ry="9" fill="#ffffff" stroke="#dde2e7" stroke-width="1"></rect><text x="150" y="743.5" fill="#27313a" font-size="10.8" font-weight="600" text-anchor="middle" dominant-baseline="central">⑤ send</text><rect x="817.75" y="734" width="44.5" height="18" rx="9" ry="9" fill="#ffffff" stroke="#dde2e7" stroke-width="1"></rect><text x="840" y="743.5" fill="#27313a" font-size="10.8" font-weight="600" text-anchor="middle" dominant-baseline="central">write</text><rect x="291.1" y="831" width="62.8" height="18" rx="9" ry="9" fill="#ffffff" stroke="#dde2e7" stroke-width="1"></rect><text x="322.5" y="840.5" fill="#27313a" font-size="10.8" font-weight="600" text-anchor="middle" dominant-baseline="central">⑥ status</text><rect x="460.55" y="913.5" width="68.9" height="18" rx="9" ry="9" fill="#ffffff" stroke="#dde2e7" stroke-width="1"></rect><text x="495" y="923" fill="#27313a" font-size="10.8" font-weight="600" text-anchor="middle" dominant-baseline="central">⑦ consume</text><rect x="470.7" y="961" width="50.599999999999994" height="18" rx="9" ry="9" fill="#ffffff" stroke="#dde2e7" stroke-width="1"></rect><text x="496" y="970.5" fill="#27313a" font-size="10.8" font-weight="600" text-anchor="middle" dominant-baseline="central">stream</text><rect x="285.55" y="1006.5" width="68.9" height="18" rx="9" ry="9" fill="#ffffff" stroke="#dde2e7" stroke-width="1"></rect><text x="320" y="1016" fill="#27313a" font-size="10.8" font-weight="600" text-anchor="middle" dominant-baseline="central">⑧ persist</text><rect x="652.8" y="1006.5" width="38.4" height="18" rx="9" ry="9" fill="#ffffff" stroke="#dde2e7" stroke-width="1"></rect><text x="672" y="1016" fill="#27313a" font-size="10.8" font-weight="600" text-anchor="middle" dominant-baseline="central">load</text></g><defs><filter id="sh" x="-20%" y="-20%" width="140%" height="140%"><feDropShadow dx="0" dy="1" stdDeviation="1.1" flood-color="#000" flood-opacity="0.13"></feDropShadow></filter></defs></svg>