<?xml version="1.0" encoding="UTF-8"?>
<svg id="diagram" viewBox="0 0 1200 545" xmlns="http://www.w3.org/2000/svg" width="1200" height="545"><rect x="0" y="0" width="1200" height="545" fill="#ffffff"></rect><g><rect x="72" y="210" width="298" height="96" rx="14" ry="14" fill="#f8fafc" stroke="#64748b" stroke-width="1.6" stroke-dasharray="7 5"></rect><rect x="86" y="187" width="90" height="22" rx="7" ry="7" fill="#475569"></rect><text x="131" y="198" fill="#fff" font-size="11.5" font-weight="700" text-anchor="middle" dominant-baseline="central">▢ Write Path</text><rect x="832" y="210" width="298" height="96" rx="14" ry="14" fill="#f8fafc" stroke="#64748b" stroke-width="1.6" stroke-dasharray="7 5"></rect><rect x="846" y="187" width="83.6" height="22" rx="7" ry="7" fill="#475569"></rect><text x="887.8" y="198" fill="#fff" font-size="11.5" font-weight="700" text-anchor="middle" dominant-baseline="central">▢ Read Path</text></g><g><path d="M600,78 L600,105" fill="none" stroke="#55606a" stroke-width="1.9" stroke-linejoin="round" stroke-linecap="round"></path><polygon points="600,105 596.126275695934,96.32565506703307 603.873724304066,96.32565506703307" fill="#55606a"></polygon><path d="M600,163 L600,226 L220,226 L220,234" fill="none" stroke="#55606a" stroke-width="1.9" stroke-linejoin="round" stroke-linecap="round"></path><polygon points="220,234 216.12627569593408,225.32565506703307 223.87372430406592,225.32565506703307" fill="#55606a"></polygon><path d="M600,163 L600,226 L980,226 L980,234" fill="none" stroke="#55606a" stroke-width="1.9" stroke-linejoin="round" stroke-linecap="round"></path><polygon points="980,234 976.126275695934,225.32565506703307 983.873724304066,225.32565506703307" fill="#55606a"></polygon><path d="M346,266 L398,266 L398,392 L450,392" fill="none" stroke="#55606a" stroke-width="1.9" stroke-linejoin="round" stroke-linecap="round"></path><polygon points="450,392 441.3256550670331,395.87372430406595 441.3256550670331,388.12627569593405" fill="#55606a"></polygon><path d="M346,266 L398,266 L398,488 L450,488" fill="none" stroke="#55606a" stroke-width="1.9" stroke-linejoin="round" stroke-linecap="round"></path><polygon points="450,488 441.3256550670331,491.87372430406595 441.3256550670331,484.12627569593405" fill="#55606a"></polygon><path d="M854,266 L802,266 L802,392 L750,392" fill="none" stroke="#55606a" stroke-width="1.9" stroke-linejoin="round" stroke-linecap="round"></path><polygon points="750,392 758.674344932967,388.12627569593405 758.674344932967,395.8737243040659" fill="#55606a"></polygon><path d="M854,266 L802,266 L802,488 L750,488" fill="none" stroke="#55606a" stroke-width="1.9" stroke-linejoin="round" stroke-linecap="round"></path><polygon points="750,488 758.674344932967,484.12627569593405 758.674344932967,491.8737243040659" fill="#55606a"></polygon><path d="M980,298 L980,381" fill="none" stroke="#55606a" stroke-width="1.9" stroke-linejoin="round" stroke-linecap="round"></path><polygon points="980,381 976.126275695934,372.3256550670331 983.873724304066,372.3256550670331" fill="#55606a"></polygon></g><g><rect x="450" y="30" width="300" height="48" rx="9" ry="9" fill="#fff" stroke="#6c757d" stroke-width="1.7" filter="url(#sh)"></rect><path d="M450,52.08 V39 Q450,30 459,30 H741 Q750,30 750,39 V52.08 Z" fill="#6c757d"></path><text x="600" y="41.54" fill="#fff" font-weight="700" font-size="12.5" text-anchor="middle" dominant-baseline="central">Clients</text><text x="600" y="65.03999999999999" fill="#3c454d" font-size="10.8" text-anchor="middle" dominant-baseline="central">browsers · apps · API</text><rect x="414" y="105" width="372" height="58" rx="9" ry="9" fill="#fff" stroke="#4338ca" stroke-width="1.7" filter="url(#sh)"></rect><path d="M414,131 V114 Q414,105 423,105 H777 Q786,105 786,114 V131 Z" fill="#4f46e5"></path><text x="600" y="118.5" fill="#fff" font-weight="700" font-size="12.5" text-anchor="middle" dominant-baseline="central">API Gateway + CDN</text><text x="600" y="147" fill="#3c454d" font-size="10.8" text-anchor="middle" dominant-baseline="central">TLS · cache</text><rect x="94" y="234" width="252" height="64" rx="9" ry="9" fill="#fff" stroke="#0F5BB5" stroke-width="1.7" filter="url(#sh)"></rect><path d="M94,260 V243 Q94,234 103,234 H337 Q346,234 346,243 V260 Z" fill="#0078D4"></path><text x="220" y="247.5" fill="#fff" font-weight="700" font-size="12.5" text-anchor="middle" dominant-baseline="central">Write Service</text><text x="220" y="279" fill="#3c454d" font-size="10.8" text-anchor="middle" dominant-baseline="central">id gen · expiry</text><rect x="854" y="234" width="252" height="64" rx="9" ry="9" fill="#fff" stroke="#0F5BB5" stroke-width="1.7" filter="url(#sh)"></rect><path d="M854,260 V243 Q854,234 863,234 H1097 Q1106,234 1106,243 V260 Z" fill="#0078D4"></path><text x="980" y="247.5" fill="#fff" font-weight="700" font-size="12.5" text-anchor="middle" dominant-baseline="central">Read Service</text><text x="980" y="279" fill="#3c454d" font-size="10.8" text-anchor="middle" dominant-baseline="central">fetch · view-once</text><rect x="450" y="361" width="300" height="62" rx="9" ry="9" fill="#fff" stroke="#0A6E80" stroke-width="1.7" filter="url(#sh)"></rect><path d="M450,387 V370 Q450,361 459,361 H741 Q750,361 750,370 V387 Z" fill="#0C8599"></path><text x="600" y="374.5" fill="#fff" font-weight="700" font-size="12.5" text-anchor="middle" dominant-baseline="central">Metadata KV</text><text x="600" y="405" fill="#3c454d" font-size="10.8" text-anchor="middle" dominant-baseline="central">key → blob · TTL</text><rect x="450" y="457" width="300" height="62" rx="9" ry="9" fill="#fff" stroke="#0A6E80" stroke-width="1.7" filter="url(#sh)"></rect><path d="M450,483 V466 Q450,457 459,457 H741 Q750,457 750,466 V483 Z" fill="#0C8599"></path><text x="600" y="470.5" fill="#fff" font-weight="700" font-size="12.5" text-anchor="middle" dominant-baseline="central">Blob Store</text><text x="600" y="501" fill="#3c454d" font-size="10.8" text-anchor="middle" dominant-baseline="central">Amazon S3 · paste text</text><rect x="854" y="381" width="252" height="58" rx="9" ry="9" fill="#fff" stroke="#0A6E80" stroke-width="1.7" filter="url(#sh)"></rect><path d="M854,407 V390 Q854,381 863,381 H1097 Q1106,381 1106,390 V407 Z" fill="#0C8599"></path><text x="980" y="394.5" fill="#fff" font-weight="700" font-size="12.5" text-anchor="middle" dominant-baseline="central">Cache</text><text x="980" y="423" fill="#3c454d" font-size="10.8" text-anchor="middle" dominant-baseline="central">Redis</text></g><g><rect x="571.65" y="82.5" width="56.699999999999996" height="18" rx="9" ry="9" fill="#ffffff" stroke="#dde2e7" stroke-width="1"></rect><text x="600" y="92" fill="#27313a" font-size="10.8" font-weight="600" text-anchor="middle" dominant-baseline="central">request</text><rect x="378.6" y="217" width="62.8" height="18" rx="9" ry="9" fill="#ffffff" stroke="#dde2e7" stroke-width="1"></rect><text x="410" y="226.5" fill="#27313a" font-size="10.8" font-weight="600" text-anchor="middle" dominant-baseline="central">① create</text><rect x="559.45" y="185.5" width="81.1" height="18" rx="9" ry="9" fill="#ffffff" stroke="#dde2e7" stroke-width="1"></rect><text x="600" y="195" fill="#27313a" font-size="10.8" font-weight="600" text-anchor="middle" dominant-baseline="central">③ GET /{id}</text><rect x="360.5" y="320" width="75" height="18" rx="9" ry="9" fill="#ffffff" stroke="#dde2e7" stroke-width="1"></rect><text x="398" y="329.5" fill="#27313a" font-size="10.8" font-weight="600" text-anchor="middle" dominant-baseline="central">write meta</text><rect x="354.4" y="368" width="87.19999999999999" height="18" rx="9" ry="9" fill="#ffffff" stroke="#dde2e7" stroke-width="1"></rect><text x="398" y="377.5" fill="#27313a" font-size="10.8" font-weight="600" text-anchor="middle" dominant-baseline="central">② store text</text><rect x="761.45" y="320" width="81.1" height="18" rx="9" ry="9" fill="#ffffff" stroke="#dde2e7" stroke-width="1"></rect><text x="802" y="329.5" fill="#27313a" font-size="10.8" font-weight="600" text-anchor="middle" dominant-baseline="central">meta lookup</text><rect x="764.5" y="368" width="75" height="18" rx="9" ry="9" fill="#ffffff" stroke="#dde2e7" stroke-width="1"></rect><text x="802" y="377.5" fill="#27313a" font-size="10.8" font-weight="600" text-anchor="middle" dominant-baseline="central">fetch blob</text><rect x="939.45" y="330.5" width="81.1" height="18" rx="9" ry="9" fill="#ffffff" stroke="#dde2e7" stroke-width="1"></rect><text x="980" y="340" fill="#27313a" font-size="10.8" font-weight="600" text-anchor="middle" dominant-baseline="central">cache-first</text></g><defs><filter id="sh" x="-20%" y="-20%" width="140%" height="140%"><feDropShadow dx="0" dy="1" stdDeviation="1.1" flood-color="#000" flood-opacity="0.13"></feDropShadow></filter></defs></svg>