<svg version="1.1" xmlns="http://www.w3.org/2000/svg" viewBox="0 0 1200 629" width="1200" height="629">
  <!-- svg-source:gen-whiteboards.js -->
  <defs><style class="style-fonts">
@font-face{font-family:"Virgil";src:url("https://unpkg.com/@excalidraw/excalidraw@0.17.6/dist//dist/excalidraw-assets/Virgil.woff2");}
</style></defs>
  <rect x="0" y="0" width="1200" height="629" fill="#ffffff"></rect>
  <text x="24" y="26" font-family="Virgil, Segoe UI Emoji" font-size="22px" fill="#1e1e1e" text-anchor="start" dominant-baseline="central" style="white-space:pre">Pastebin — how you'd draw it live on the whiteboard</text>
  <text x="24" y="58" font-family="Virgil, Segoe UI Emoji" font-size="13px" fill="#868e96" text-anchor="start" dominant-baseline="central" style="white-space:pre">green = client   ·   grey = edge / LB   ·   blue = service   ·   red = datastore   ·   orange = queue / stream   ·   violet = 3rd-party</text>
  <g transform="translate(0 84)"><g transform="translate(72 210)"><path d="M18 0 C105.4 0.28, 189.94 -0.69, 279.9 0.49 C289.01 -0.91, 297.12 7.17, 298 18 C297.25 37.99, 298.35 58.54, 298.11 77.71 C297.11 88.06, 288.93 96.74, 280 96 C194.52 96.37, 106.32 95.44, 17.62 95.68 C8.14 95.2, -0.26 88.06, 0 78 C0.48 57.23, 0.69 37.68, -0.39 17.87 C-0.05 9.02, 7.35 -0.21, 18 0" stroke="#495057" stroke-width="1.8" fill="none" stroke-linecap="round" stroke-dasharray="8 9"></path></g><g transform="translate(832 210)"><path d="M18 0 C103.85 0.16, 191.62 -0.1, 280.28 0.39 C290.04 0.89, 297.88 8.9, 298 18 C298.4 37.23, 298.81 56.7, 297.78 77.95 C298.05 87.25, 289.57 95.08, 280 96 C193.79 95.55, 107.55 96.76, 18.36 95.95 C7.96 96.03, 0.12 87.72, 0 78 C-0.76 58.63, -0.51 39.14, 0.26 18.18 C0.27 7.27, 8.83 -0.49, 18 0" stroke="#495057" stroke-width="1.8" fill="none" stroke-linecap="round" stroke-dasharray="8 9"></path></g><path d="M600 78 C600.6 86.65, 600.28 96.3, 600.54 105.5" stroke="#1e1e1e" stroke-width="1.6" fill="none" stroke-linecap="round"></path><path d="M600 105 L595.51 94.96 M600 105 L604.49 94.96" stroke="#1e1e1e" stroke-width="1.6" fill="none" stroke-linecap="round"></path><path d="M600 163 C599.55 184.19, 600.15 203.51, 600.34 226.04 C473.89 225.04, 348.68 226.98, 219.53 226.29 C220.42 229.67, 220.45 231.93, 220.46 234.29" stroke="#1e1e1e" stroke-width="1.6" fill="none" stroke-linecap="round"></path><path d="M220 234 L215.51 223.96 M220 234 L224.49 223.96" stroke="#1e1e1e" stroke-width="1.6" fill="none" stroke-linecap="round"></path><path d="M600 163 C599.33 182.77, 599.29 204.82, 600.15 226.01 C724.47 225.63, 851.44 226.55, 980.11 226.25 C980.75 228.39, 979.49 232.18, 980.49 233.66" stroke="#1e1e1e" stroke-width="1.6" fill="none" stroke-linecap="round"></path><path d="M980 234 L975.51 223.96 M980 234 L984.49 223.96" stroke="#1e1e1e" stroke-width="1.6" fill="none" stroke-linecap="round"></path><path d="M346 266 C362.67 266.78, 379.3 265.37, 398.42 266.4 C398.75 306.49, 398.28 348.21, 397.76 392.23 C415.6 391.17, 431.33 390.92, 450.16 392.27" stroke="#1e1e1e" stroke-width="1.6" fill="none" stroke-linecap="round"></path><path d="M450 392 L439.96 396.49 M450 392 L439.96 387.51" stroke="#1e1e1e" stroke-width="1.6" fill="none" stroke-linecap="round"></path><path d="M346 266 C363.61 265.61, 379.54 266.91, 397.5 265.54 C397.8 339.6, 398.06 413.03, 398.24 488.33 C414.97 487.27, 431.3 487.57, 449.58 487.87" stroke="#1e1e1e" stroke-width="1.6" fill="none" stroke-linecap="round"></path><path d="M450 488 L439.96 492.49 M450 488 L439.96 483.51" stroke="#1e1e1e" stroke-width="1.6" fill="none" stroke-linecap="round"></path><path d="M854 266 C836.09 266.07, 819.91 264.92, 802.43 265.62 C802.3 307.69, 801.69 349.38, 802.12 391.64 C784.99 391.31, 766.72 391.93, 749.6 392.34" stroke="#1e1e1e" stroke-width="1.6" fill="none" stroke-linecap="round"></path><path d="M750 392 L760.04 387.51 M750 392 L760.04 396.49" stroke="#1e1e1e" stroke-width="1.6" fill="none" stroke-linecap="round"></path><path d="M854 266 C837.51 265.36, 819.5 266.56, 801.96 265.79 C801.72 339.03, 802.55 411.78, 801.48 488.28 C784 487.01, 767.11 487.89, 750.45 488.21" stroke="#1e1e1e" stroke-width="1.6" fill="none" stroke-linecap="round"></path><path d="M750 488 L760.04 483.51 M750 488 L760.04 492.49" stroke="#1e1e1e" stroke-width="1.6" fill="none" stroke-linecap="round"></path><path d="M980 298 C979.72 324.32, 980.45 352.16, 980.53 381.09" stroke="#1e1e1e" stroke-width="1.6" fill="none" stroke-linecap="round"></path><path d="M980 381 L975.51 370.96 M980 381 L984.49 370.96" stroke="#1e1e1e" stroke-width="1.6" fill="none" stroke-linecap="round"></path><g transform="translate(450 30)"><path d="M16 0 C104.26 0.59, 192.72 -0.43, 283.93 -0.25 C293.29 -0.34, 299.98 7.19, 300 16 C299.51 21.16, 300.2 26.67, 299.78 32.29 C300.19 40.94, 293.31 47.5, 284 48 C195.65 47.87, 106.6 48.01, 16.17 47.85 C7.49 48.43, 0.15 41.34, 0 32 C0.05 26.87, 0.14 21.44, -0.3 16.2 C0.14 6.92, 6.75 -0.38, 16 0 Z" stroke="none" fill="#b2f2bb"></path><path d="M16 0 C105.55 0.56, 193.77 -1.38, 283.73 -0.27 C292.92 -0.28, 300 6.03, 300 16 C299.6 20.38, 298.91 27.36, 299.97 31.8 C300.01 41.45, 294.2 46.88, 284 48 C196.26 48.79, 107.72 46.71, 16.05 48.3 C6.58 47.39, 0.43 41.07, 0 32 C0.81 25.85, 0.66 21.14, 0 15.31 C0.97 8.5, 8.23 -0.31, 16 0 M16 0 C103.69 -1.2, 192.21 -0.4, 284.62 0.69 C293.35 0.98, 300.66 8.35, 300 16 C301.05 21.7, 301.3 25.81, 299.7 32.4 C299.37 40.22, 293.9 48.61, 284 48 C196.79 47.32, 108.04 48.04, 16.6 48.13 C8.42 49.24, 1.29 39.86, 0 32 C-0.82 26.96, -0.77 21.14, -0.26 16.46 C-0.73 6.81, 7.75 1.25, 16 0" stroke="#2f9e44" stroke-width="1.7" fill="none" stroke-linecap="round"></path></g><text x="600" y="45" font-family="Virgil, Segoe UI Emoji" font-size="15px" fill="#1e1e1e" text-anchor="middle" dominant-baseline="central" style="white-space:pre">Clients</text><text x="600" y="64" font-family="Virgil, Segoe UI Emoji" font-size="12px" fill="#495057" text-anchor="middle" dominant-baseline="central" style="white-space:pre">browsers · apps · API</text><g transform="translate(414 105)"><path d="M16 0 C127.91 -0.35, 240.71 0, 355.74 -0.1 C365.08 0.2, 372.27 6.97, 372 16 C372.6 24.83, 371.92 33.27, 371.71 42.07 C372.55 51.31, 365.08 58.27, 356 58 C243.69 58.36, 131.51 58.56, 16.27 57.75 C7.12 57.52, 0.44 50.47, 0 42 C-0.09 33.42, 0.41 24.55, -0.05 16.13 C0.16 6.69, 7.02 -0.19, 16 0 Z" stroke="none" fill="#dee2e6"></path><path d="M16 0 C129.44 0.39, 239.58 0.98, 355.43 -0.14 C363.74 -0.88, 372.42 8.51, 372 16 C371.27 23.24, 372.05 34.15, 372.66 42.05 C372.37 51.28, 365.74 58.69, 356 58 C244.58 58.6, 131.39 58.37, 15.5 57.96 C8.05 58.55, 1.12 51.38, 0 42 C0.15 34.08, 0.04 24.81, -0.33 16.49 C-0.21 6.72, 8 -0.6, 16 0 M16 0 C128.9 -0.68, 239.48 0.35, 356.32 0.22 C365.63 -1.31, 372.18 8.06, 372 16 C372.54 25.45, 373.35 32.48, 372.49 42.07 C371.89 49.77, 363.52 58.98, 356 58 C244.46 57.47, 131.15 58.21, 15.64 57.49 C8.58 56.73, 0.17 49.71, 0 42 C1.33 33.3, -1.35 24.86, -0.23 16.52 C1.19 6.67, 7.75 -0.9, 16 0" stroke="#495057" stroke-width="1.7" fill="none" stroke-linecap="round"></path></g><text x="600" y="125" font-family="Virgil, Segoe UI Emoji" font-size="15px" fill="#1e1e1e" text-anchor="middle" dominant-baseline="central" style="white-space:pre">API Gateway + CDN</text><text x="600" y="144" font-family="Virgil, Segoe UI Emoji" font-size="12px" fill="#495057" text-anchor="middle" dominant-baseline="central" style="white-space:pre">TLS · cache</text><g transform="translate(94 234)"><path d="M16 0 C89.01 0.55, 160.72 0.49, 236.22 -0.17 C245.35 -0.59, 251.95 6.7, 252 16 C251.55 26.36, 251.51 37.47, 251.9 47.78 C251.94 56.6, 245.07 64.02, 236 64 C162.95 63.9, 90.48 64.09, 16.15 64.18 C7.4 64.41, -0.33 57.22, 0 48 C-0.28 37.44, 0.33 27.27, 0.19 15.83 C-0.17 7.76, 6.83 -0.55, 16 0 Z" stroke="none" fill="#a5d8ff"></path><path d="M16 0 C88.48 -0.87, 161.85 1.01, 235.46 0.61 C245.55 -1.16, 252.53 6.48, 252 16 C252.57 25.52, 252.01 36.19, 252.52 48.49 C252.09 56.44, 246.03 62.76, 236 64 C164.39 65.15, 92.04 64.48, 16.38 64.48 C7.45 62.79, 0.12 56.84, 0 48 C0.34 37.28, -1.24 27.17, -0.11 15.94 C0.31 6.93, 8 -0.18, 16 0 M16 0 C88.85 -0.87, 160.05 0.44, 236.13 0.07 C245.73 0.62, 251.89 8.42, 252 16 C251.79 26.46, 252.02 35.84, 252.6 48.2 C251.58 57.63, 244.15 64.23, 236 64 C162.35 63.09, 90.46 64.04, 15.33 64.43 C7.6 64.06, 1.23 55.92, 0 48 C-1.22 36.42, 0.2 27.53, -0.58 15.48 C0.59 6.27, 8.5 -0.42, 16 0" stroke="#1971c2" stroke-width="1.7" fill="none" stroke-linecap="round"></path></g><text x="220" y="257" font-family="Virgil, Segoe UI Emoji" font-size="15px" fill="#1e1e1e" text-anchor="middle" dominant-baseline="central" style="white-space:pre">Write Service</text><text x="220" y="276" font-family="Virgil, Segoe UI Emoji" font-size="12px" fill="#495057" text-anchor="middle" dominant-baseline="central" style="white-space:pre">id gen · expiry</text><g transform="translate(854 234)"><path d="M16 0 C88.29 -0.01, 161.2 -0.38, 236.13 0.23 C245.14 0.11, 251.95 6.83, 252 16 C252.01 27.11, 251.77 37.5, 251.86 47.71 C252.13 57.1, 244.81 63.92, 236 64 C163.52 64.48, 90.78 63.97, 15.97 63.99 C7.52 64.11, -0.4 56.43, 0 48 C-0.39 37.09, 0.11 26.31, 0.21 15.77 C-0.56 7.76, 6.62 -0.44, 16 0 Z" stroke="none" fill="#a5d8ff"></path><path d="M16 0 C89.36 1.15, 160.2 -1.09, 236.08 0.25 C244.1 -1, 251.43 8.52, 252 16 C250.86 25.36, 252.31 37.14, 251.94 48.69 C251.11 56.96, 245.32 64.58, 236 64 C162.27 63.15, 90.4 64.95, 15.62 63.57 C7.88 63.92, 0.68 57.25, 0 48 C-0.31 36.13, -1.25 28.14, 0.13 16.03 C1.23 6.26, 8.37 0.65, 16 0 M16 0 C89.09 0.81, 160.7 -1.26, 235.5 -0.48 C245.61 -0.91, 250.92 7.43, 252 16 C251.79 25.73, 253.26 38.21, 252.41 48.06 C252.88 56.1, 245.02 65.08, 236 64 C162.42 63.26, 89.89 65.11, 16.6 64.04 C8.45 64.68, -0.13 55.62, 0 48 C-0.57 36.81, -0.84 28.27, 0.48 15.84 C-0.47 7.56, 7.8 1.26, 16 0" stroke="#1971c2" stroke-width="1.7" fill="none" stroke-linecap="round"></path></g><text x="980" y="257" font-family="Virgil, Segoe UI Emoji" font-size="15px" fill="#1e1e1e" text-anchor="middle" dominant-baseline="central" style="white-space:pre">Read Service</text><text x="980" y="276" font-family="Virgil, Segoe UI Emoji" font-size="12px" fill="#495057" text-anchor="middle" dominant-baseline="central" style="white-space:pre">fetch · view-once</text><g transform="translate(450 361)"><path d="M16 0 C104.06 0.44, 192.49 0.54, 284.04 0.15 C292.93 -0.43, 299.53 6.76, 300 16 C300.21 25.71, 300.07 35.87, 300.07 45.73 C300.06 54.56, 292.43 62.09, 284 62 C195.54 62.23, 107.16 61.51, 16.12 61.75 C6.96 61.93, 0.41 54.91, 0 46 C0.12 35.71, -0.46 26.12, -0.11 16.29 C0.33 7.65, 7.23 0.05, 16 0 Z" stroke="none" fill="#ffc9c9"></path><path d="M16 0 C103.39 -0.9, 193.74 1.29, 284.59 0.1 C293.84 -1.12, 298.62 8.38, 300 16 C299.27 25.45, 301.04 35.54, 300.68 45.76 C299.66 55.53, 292.77 63.27, 284 62 C196.64 60.79, 105.75 61.64, 15.52 61.73 C7.54 61.66, 0.31 55.59, 0 46 C0.63 36.37, -0.4 27.39, 0.58 15.56 C-0.99 6.18, 8.25 -0.52, 16 0 M16 0 C104.1 1, 193.93 0.52, 283.47 0.45 C291.55 0.47, 298.99 6.39, 300 16 C298.98 25.86, 301.37 36.43, 300.05 45.56 C299.34 56.04, 292.81 60.8, 284 62 C194.77 61.64, 106.6 62.22, 16.43 61.43 C7.54 62.84, -1.14 53.65, 0 46 C-0.32 35.9, -0.41 25.34, 0 15.43 C0.03 7.71, 6.11 1.3, 16 0" stroke="#e03131" stroke-width="1.7" fill="none" stroke-linecap="round"></path></g><text x="600" y="383" font-family="Virgil, Segoe UI Emoji" font-size="15px" fill="#1e1e1e" text-anchor="middle" dominant-baseline="central" style="white-space:pre">Metadata KV</text><text x="600" y="402" font-family="Virgil, Segoe UI Emoji" font-size="12px" fill="#495057" text-anchor="middle" dominant-baseline="central" style="white-space:pre">key → blob · TTL</text><g transform="translate(450 457)"><path d="M16 0 C104.2 0.58, 192.5 -0.25, 283.72 0.25 C292.78 0.03, 300.05 7.59, 300 16 C299.75 25.95, 299.67 35.61, 299.79 45.83 C299.63 54.81, 292.6 61.65, 284 62 C196.04 61.93, 106.88 61.43, 16.05 61.76 C7.39 62.27, -0.51 54.33, 0 46 C-0.55 36.1, 0.36 25.86, -0.11 15.73 C0.57 7.2, 7.7 0.4, 16 0 Z" stroke="none" fill="#ffc9c9"></path><path d="M16 0 C105.41 0.84, 193.14 0.44, 284.42 0.67 C291.44 0.79, 300.2 7.64, 300 16 C300.75 24.76, 301.19 36.23, 299.38 46.03 C298.61 55.13, 291.98 60.94, 284 62 C195.1 62.54, 106.57 61.06, 15.88 61.6 C7.2 61.94, 0.68 55.77, 0 46 C0.98 34.85, 0.36 27.17, -0.06 15.84 C0.2 5.84, 7.57 0.38, 16 0 M16 0 C104.87 -1.18, 193.67 0.98, 283.49 0.25 C292.53 -0.15, 299.1 8.52, 300 16 C299.11 26.79, 301.17 35.22, 299.48 45.36 C298.98 55.09, 292.21 62.78, 284 62 C196.06 62.03, 107.9 62.9, 15.71 61.97 C7.41 62.65, -0.43 55.24, 0 46 C-0.25 37.19, 0.14 27.09, 0.16 16.08 C-0.8 6.89, 6.34 1.07, 16 0" stroke="#e03131" stroke-width="1.7" fill="none" stroke-linecap="round"></path></g><text x="600" y="479" font-family="Virgil, Segoe UI Emoji" font-size="15px" fill="#1e1e1e" text-anchor="middle" dominant-baseline="central" style="white-space:pre">Blob Store</text><text x="600" y="498" font-family="Virgil, Segoe UI Emoji" font-size="12px" fill="#495057" text-anchor="middle" dominant-baseline="central" style="white-space:pre">Amazon S3 · paste text</text><g transform="translate(854 381)"><path d="M16 0 C89.18 0.37, 160.95 0.58, 235.79 -0.28 C244.9 0.13, 251.52 6.74, 252 16 C252.4 24.15, 252.2 32.64, 252.01 41.79 C251.82 50.81, 244.32 57.52, 236 58 C162.85 58.16, 90.26 57.99, 15.74 57.97 C7.52 58.11, 0.12 50.75, 0 42 C0.18 33.23, 0.15 25.32, 0.17 15.89 C-0.13 7.06, 6.83 -0.13, 16 0 Z" stroke="none" fill="#ffc9c9"></path><path d="M16 0 C87.28 -1.07, 162.36 0.01, 235.96 -0.34 C245.57 1.19, 252.53 8.42, 252 16 C251.71 23.94, 252.06 32.05, 251.46 41.78 C251.83 51.12, 244.59 56.8, 236 58 C163.28 57.9, 89.81 57.1, 15.72 57.88 C8.53 57.18, 0.4 49.95, 0 42 C1.11 33.49, -1.08 24.42, 0.67 15.36 C0.67 8.41, 8.46 -0.59, 16 0 M16 0 C89.94 -0.43, 160.93 -0.66, 235.61 -0.09 C245.05 -1.3, 250.88 8.43, 252 16 C253.17 24.87, 252.21 32.9, 252.06 41.57 C252.73 51.56, 244.85 58.54, 236 58 C162.03 59.36, 91.36 56.88, 15.45 58.26 C7.84 58.74, -0.94 50.05, 0 42 C1.21 34.02, 1.12 24.22, 0.61 16.03 C0.12 7.23, 7.51 -1.19, 16 0" stroke="#e03131" stroke-width="1.7" fill="none" stroke-linecap="round"></path></g><text x="980" y="401" font-family="Virgil, Segoe UI Emoji" font-size="15px" fill="#1e1e1e" text-anchor="middle" dominant-baseline="central" style="white-space:pre">Cache</text><text x="980" y="420" font-family="Virgil, Segoe UI Emoji" font-size="12px" fill="#495057" text-anchor="middle" dominant-baseline="central" style="white-space:pre">Redis</text><rect x="85" y="201" width="75" height="18" fill="#ffffff" stroke="none"></rect><text x="90" y="210" font-family="Virgil, Segoe UI Emoji" font-size="12.5px" fill="#495057" text-anchor="start" dominant-baseline="central" style="white-space:pre">Write Path</text><rect x="845" y="201" width="68.5" height="18" fill="#ffffff" stroke="none"></rect><text x="850" y="210" font-family="Virgil, Segoe UI Emoji" font-size="12.5px" fill="#495057" text-anchor="start" dominant-baseline="central" style="white-space:pre">Read Path</text><rect x="575.07" y="82.5" width="49.86" height="18" rx="6" ry="6" fill="#ffffff" fill-opacity="0.82" stroke="none"></rect><text x="600" y="91.5" font-family="Virgil, Segoe UI Emoji" font-size="11.5px" fill="#27313a" text-anchor="middle" dominant-baseline="central" style="white-space:pre">request</text><rect x="382.08" y="217" width="55.84" height="18" rx="6" ry="6" fill="#ffffff" fill-opacity="0.82" stroke="none"></rect><text x="410" y="226" font-family="Virgil, Segoe UI Emoji" font-size="11.5px" fill="#27313a" text-anchor="middle" dominant-baseline="central" style="white-space:pre">① create</text><rect x="563.11" y="185.5" width="73.78" height="18" rx="6" ry="6" fill="#ffffff" fill-opacity="0.82" stroke="none"></rect><text x="600" y="194.5" font-family="Virgil, Segoe UI Emoji" font-size="11.5px" fill="#27313a" text-anchor="middle" dominant-baseline="central" style="white-space:pre">③ GET /{id}</text><rect x="364.1" y="320" width="67.8" height="18" rx="6" ry="6" fill="#ffffff" fill-opacity="0.82" stroke="none"></rect><text x="398" y="329" font-family="Virgil, Segoe UI Emoji" font-size="11.5px" fill="#27313a" text-anchor="middle" dominant-baseline="central" style="white-space:pre">write meta</text><rect x="358.12" y="368" width="79.76" height="18" rx="6" ry="6" fill="#ffffff" fill-opacity="0.82" stroke="none"></rect><text x="398" y="377" font-family="Virgil, Segoe UI Emoji" font-size="11.5px" fill="#27313a" text-anchor="middle" dominant-baseline="central" style="white-space:pre">② store text</text><rect x="765.11" y="320" width="73.78" height="18" rx="6" ry="6" fill="#ffffff" fill-opacity="0.82" stroke="none"></rect><text x="802" y="329" font-family="Virgil, Segoe UI Emoji" font-size="11.5px" fill="#27313a" text-anchor="middle" dominant-baseline="central" style="white-space:pre">meta lookup</text><rect x="768.1" y="368" width="67.8" height="18" rx="6" ry="6" fill="#ffffff" fill-opacity="0.82" stroke="none"></rect><text x="802" y="377" font-family="Virgil, Segoe UI Emoji" font-size="11.5px" fill="#27313a" text-anchor="middle" dominant-baseline="central" style="white-space:pre">fetch blob</text><rect x="943.11" y="330.5" width="73.78" height="18" rx="6" ry="6" fill="#ffffff" fill-opacity="0.82" stroke="none"></rect><text x="980" y="339.5" font-family="Virgil, Segoe UI Emoji" font-size="11.5px" fill="#27313a" text-anchor="middle" dominant-baseline="central" style="white-space:pre">cache-first</text></g>
</svg>
