<?xml version="1.0" encoding="UTF-8"?>
<svg id="diagram" viewBox="0 0 1120 740" xmlns="http://www.w3.org/2000/svg" width="1120" height="740"><rect x="0" y="0" width="1120" height="740" fill="#ffffff"></rect><g><rect x="242" y="228" width="376" height="212" rx="14" ry="14" fill="#f8fafc" stroke="#64748b" stroke-width="1.6" stroke-dasharray="7 5"></rect><rect x="256" y="205" width="154" height="22" rx="7" ry="7" fill="#475569"></rect><text x="333" y="216" fill="#fff" font-size="11.5" font-weight="700" text-anchor="middle" dominant-baseline="central">▢ Payment Service (CP)</text></g><g><path d="M480,92 L480,125" fill="none" stroke="#55606a" stroke-width="1.9" stroke-linejoin="round" stroke-linecap="round"></path><polygon points="480,125 476.12627569593405,116.32565506703307 483.8737243040659,116.32565506703307" fill="#55606a"></polygon><path d="M480,183 L480,234 L430,234 L430,241" fill="none" stroke="#55606a" stroke-width="1.9" stroke-linejoin="round" stroke-linecap="round"></path><polygon points="430,241 426.12627569593405,232.32565506703307 433.8737243040659,232.32565506703307" fill="#55606a"></polygon><path d="M590,274 L800,274" fill="none" stroke="#aab2bb" stroke-width="1.6" stroke-linejoin="round" stroke-linecap="round" stroke-dasharray="6 5"></path><polygon points="800,274 791.325655067033,277.87372430406595 791.325655067033,270.12627569593405" fill="#aab2bb"></polygon><path d="M270,274 L190,274" fill="none" stroke="#aab2bb" stroke-width="1.6" stroke-linejoin="round" stroke-linecap="round" stroke-dasharray="6 5"></path><polygon points="190,274 198.67434493296693,270.12627569593405 198.67434493296693,277.8737243040659" fill="#aab2bb"></polygon><path d="M430,307 L430,355" fill="none" stroke="#55606a" stroke-width="1.9" stroke-linejoin="round" stroke-linecap="round"></path><polygon points="430,355 426.12627569593405,346.3256550670331 433.8737243040659,346.3256550670331" fill="#55606a"></polygon><path d="M590,388 L700,388 L700,470 L800,470" fill="none" stroke="#55606a" stroke-width="1.9" stroke-linejoin="round" stroke-linecap="round"></path><polygon points="800,470 791.325655067033,473.87372430406595 791.325655067033,466.12627569593405" fill="#55606a"></polygon><path d="M430,421 L430,503" fill="none" stroke="#55606a" stroke-width="1.9" stroke-linejoin="round" stroke-linecap="round"></path><polygon points="430,503 426.12627569593405,494.3256550670331 433.8737243040659,494.3256550670331" fill="#55606a"></polygon><path d="M430,569 L430,618" fill="none" stroke="#55606a" stroke-width="1.9" stroke-linejoin="round" stroke-linecap="round"></path><polygon points="430,618 426.12627569593405,609.325655067033 433.8737243040659,609.325655067033" fill="#55606a"></polygon><path d="M710,644 L800,644" fill="none" stroke="#55606a" stroke-width="1.9" stroke-linejoin="round" stroke-linecap="round"></path><polygon points="800,644 791.325655067033,647.873724304066 791.325655067033,640.126275695934" fill="#55606a"></polygon><path d="M945,502 L945,612" fill="none" stroke="#aab2bb" stroke-width="1.6" stroke-linejoin="round" stroke-linecap="round" stroke-dasharray="6 5"></path><polygon points="945,612 941.126275695934,603.325655067033 948.873724304066,603.325655067033" fill="#aab2bb"></polygon></g><g><rect x="290" y="40" width="380" height="52" rx="9" ry="9" fill="#fff" stroke="#6c757d" stroke-width="1.7" filter="url(#sh)"></rect><path d="M290,63.92 V49 Q290,40 299,40 H661 Q670,40 670,49 V63.92 Z" fill="#6c757d"></path><text x="480" y="52.46" fill="#fff" font-weight="700" font-size="12.5" text-anchor="middle" dominant-baseline="central">Clients / Merchants</text><text x="480" y="77.96000000000001" fill="#3c454d" font-size="10.8" text-anchor="middle" dominant-baseline="central">checkout · pay · transfer</text><rect x="290" y="125" width="380" height="58" rx="9" ry="9" fill="#fff" stroke="#4338ca" stroke-width="1.7" filter="url(#sh)"></rect><path d="M290,151 V134 Q290,125 299,125 H661 Q670,125 670,134 V151 Z" fill="#4f46e5"></path><text x="480" y="138.5" fill="#fff" font-weight="700" font-size="12.5" text-anchor="middle" dominant-baseline="central">API Gateway</text><text x="480" y="167" fill="#3c454d" font-size="10.8" text-anchor="middle" dominant-baseline="central">auth · TLS</text><rect x="270" y="241" width="320" height="66" rx="9" ry="9" fill="#fff" stroke="#0F5BB5" stroke-width="1.7" filter="url(#sh)"></rect><path d="M270,267 V250 Q270,241 279,241 H581 Q590,241 590,250 V267 Z" fill="#0078D4"></path><text x="430" y="254.5" fill="#fff" font-weight="700" font-size="12.5" text-anchor="middle" dominant-baseline="central">Payment Service</text><text x="430" y="287" fill="#3c454d" font-size="10.8" text-anchor="middle" dominant-baseline="central">idempotency · orchestration</text><rect x="800" y="243" width="290" height="62" rx="9" ry="9" fill="#fff" stroke="#0A6E80" stroke-width="1.7" filter="url(#sh)"></rect><path d="M800,269 V252 Q800,243 809,243 H1081 Q1090,243 1090,252 V269 Z" fill="#0C8599"></path><text x="945" y="256.5" fill="#fff" font-weight="700" font-size="12.5" text-anchor="middle" dominant-baseline="central">Idempotency Store</text><text x="945" y="287" fill="#3c454d" font-size="10.8" text-anchor="middle" dominant-baseline="central">Redis · dedupe keys</text><rect x="10" y="243" width="180" height="62" rx="9" ry="9" fill="#fff" stroke="#0F5BB5" stroke-width="1.7" filter="url(#sh)"></rect><path d="M10,269 V252 Q10,243 19,243 H181 Q190,243 190,252 V269 Z" fill="#0078D4"></path><text x="100" y="256.5" fill="#fff" font-weight="700" font-size="12.5" text-anchor="middle" dominant-baseline="central">Fraud Service</text><text x="100" y="287" fill="#3c454d" font-size="10.8" text-anchor="middle" dominant-baseline="central">risk checks</text><rect x="270" y="355" width="320" height="66" rx="9" ry="9" fill="#fff" stroke="#0F5BB5" stroke-width="1.7" filter="url(#sh)"></rect><path d="M270,381 V364 Q270,355 279,355 H581 Q590,355 590,364 V381 Z" fill="#0078D4"></path><text x="430" y="368.5" fill="#fff" font-weight="700" font-size="12.5" text-anchor="middle" dominant-baseline="central">Saga Orchestrator</text><text x="430" y="401" fill="#3c454d" font-size="10.8" text-anchor="middle" dominant-baseline="central">gateway + wallet · compensations</text><rect x="800" y="438" width="290" height="64" rx="9" ry="9" fill="#fff" stroke="#1F7A33" stroke-width="1.7" filter="url(#sh)"></rect><path d="M800,464 V447 Q800,438 809,438 H1081 Q1090,438 1090,447 V464 Z" fill="#2f9e44"></path><text x="945" y="451.5" fill="#fff" font-weight="700" font-size="12.5" text-anchor="middle" dominant-baseline="central">Payment Gateway</text><text x="945" y="483" fill="#3c454d" font-size="10.8" text-anchor="middle" dominant-baseline="central">Stripe · card networks</text><rect x="235" y="503" width="390" height="66" rx="9" ry="9" fill="#fff" stroke="#0A6E80" stroke-width="1.7" filter="url(#sh)"></rect><path d="M235,529 V512 Q235,503 244,503 H616 Q625,503 625,512 V529 Z" fill="#0C8599"></path><text x="430" y="516.5" fill="#fff" font-weight="700" font-size="12.5" text-anchor="middle" dominant-baseline="central">Ledger</text><text x="430" y="549" fill="#3c454d" font-size="10.8" text-anchor="middle" dominant-baseline="central">PostgreSQL / Spanner · double-entry · append-only</text><rect x="150" y="618" width="560" height="52" rx="9" ry="9" fill="#fff" stroke="#C8590B" stroke-width="1.7" filter="url(#sh)"></rect><path d="M150,641.92 V627 Q150,618 159,618 H701 Q710,618 710,627 V641.92 Z" fill="#F7630C"></path><text x="430" y="630.46" fill="#fff" font-weight="700" font-size="12.5" text-anchor="middle" dominant-baseline="central">Apache Kafka</text><text x="430" y="655.9599999999999" fill="#3c454d" font-size="10.8" text-anchor="middle" dominant-baseline="central">payment events</text><rect x="800" y="612" width="290" height="64" rx="9" ry="9" fill="#fff" stroke="#0F5BB5" stroke-width="1.7" filter="url(#sh)"></rect><path d="M800,638 V621 Q800,612 809,612 H1081 Q1090,612 1090,621 V638 Z" fill="#0078D4"></path><text x="945" y="625.5" fill="#fff" font-weight="700" font-size="12.5" text-anchor="middle" dominant-baseline="central">Reconciliation</text><text x="945" y="657" fill="#3c454d" font-size="10.8" text-anchor="middle" dominant-baseline="central">match provider reports</text></g><g><rect x="451.65" y="99.5" width="56.699999999999996" height="18" rx="9" ry="9" fill="#ffffff" stroke="#dde2e7" stroke-width="1"></rect><text x="480" y="109" fill="#27313a" font-size="10.8" font-weight="600" text-anchor="middle" dominant-baseline="central">request</text><rect x="457.75" y="199.5" width="44.5" height="18" rx="9" ry="9" fill="#ffffff" stroke="#dde2e7" stroke-width="1"></rect><text x="480" y="209" fill="#27313a" font-size="10.8" font-weight="600" text-anchor="middle" dominant-baseline="central">① pay</text><rect x="636.15" y="265" width="117.69999999999999" height="18" rx="9" ry="9" fill="#ffffff" stroke="#dde2e7" stroke-width="1"></rect><text x="695" y="274.5" fill="#27313a" font-size="10.8" font-weight="600" text-anchor="middle" dominant-baseline="central">idempotency check</text><rect x="192.5" y="265" width="75" height="18" rx="9" ry="9" fill="#ffffff" stroke="#dde2e7" stroke-width="1"></rect><text x="230" y="274.5" fill="#27313a" font-size="10.8" font-weight="600" text-anchor="middle" dominant-baseline="central">risk check</text><rect x="392.5" y="322" width="75" height="18" rx="9" ry="9" fill="#ffffff" stroke="#dde2e7" stroke-width="1"></rect><text x="430" y="331.5" fill="#27313a" font-size="10.8" font-weight="600" text-anchor="middle" dominant-baseline="central">start saga</text><rect x="668.6" y="420" width="62.8" height="18" rx="9" ry="9" fill="#ffffff" stroke="#dde2e7" stroke-width="1"></rect><text x="700" y="429.5" fill="#27313a" font-size="10.8" font-weight="600" text-anchor="middle" dominant-baseline="central">② charge</text><rect x="365.05" y="453" width="129.89999999999998" height="18" rx="9" ry="9" fill="#ffffff" stroke="#dde2e7" stroke-width="1"></rect><text x="430" y="462.5" fill="#27313a" font-size="10.8" font-weight="600" text-anchor="middle" dominant-baseline="central">③ post double-entry</text><rect x="383.35" y="584.5" width="93.3" height="18" rx="9" ry="9" fill="#ffffff" stroke="#dde2e7" stroke-width="1"></rect><text x="430" y="594" fill="#27313a" font-size="10.8" font-weight="600" text-anchor="middle" dominant-baseline="central">④ emit events</text><rect x="714.45" y="635" width="81.1" height="18" rx="9" ry="9" fill="#ffffff" stroke="#dde2e7" stroke-width="1"></rect><text x="755" y="644.5" fill="#27313a" font-size="10.8" font-weight="600" text-anchor="middle" dominant-baseline="central">⑤ reconcile</text><rect x="886.15" y="548" width="117.69999999999999" height="18" rx="9" ry="9" fill="#ffffff" stroke="#dde2e7" stroke-width="1"></rect><text x="945" y="557.5" fill="#27313a" font-size="10.8" font-weight="600" text-anchor="middle" dominant-baseline="central">settlement report</text></g><defs><filter id="sh" x="-20%" y="-20%" width="140%" height="140%"><feDropShadow dx="0" dy="1" stdDeviation="1.1" flood-color="#000" flood-opacity="0.13"></feDropShadow></filter></defs></svg>