<svg version="1.1" xmlns="http://www.w3.org/2000/svg" viewBox="0 0 1120 824" width="1120" height="824">
  <!-- svg-source:gen-whiteboards.js -->
  <defs><style class="style-fonts">
@font-face{font-family:"Virgil";src:url("https://unpkg.com/@excalidraw/excalidraw@0.17.6/dist//dist/excalidraw-assets/Virgil.woff2");}
</style></defs>
  <rect x="0" y="0" width="1120" height="824" fill="#ffffff"></rect>
  <text x="24" y="26" font-family="Virgil, Segoe UI Emoji" font-size="22px" fill="#1e1e1e" text-anchor="start" dominant-baseline="central" style="white-space:pre">Payment System / Digital Wallet — how you'd draw it live on the whiteboard</text>
  <text x="24" y="58" font-family="Virgil, Segoe UI Emoji" font-size="13px" fill="#868e96" text-anchor="start" dominant-baseline="central" style="white-space:pre">green = client   ·   grey = edge / LB   ·   blue = service   ·   red = datastore   ·   orange = queue / stream   ·   violet = 3rd-party</text>
  <g transform="translate(0 84)"><g transform="translate(242 228)"><path d="M18 0 C130.02 0.38, 241.53 0.57, 357.78 -0.27 C368.32 -0.18, 375.31 7.68, 376 18 C375.15 76.05, 375.13 134.55, 375.61 193.65 C376.11 203.81, 367.6 211.45, 358 212 C245.47 211.21, 133.29 211.15, 18.44 211.63 C8.02 212.44, 0.79 204.65, 0 194 C-0.82 135.99, 0.21 77.84, -0.33 18 C-0.62 8.73, 7.16 0.64, 18 0" stroke="#495057" stroke-width="1.8" fill="none" stroke-linecap="round" stroke-dasharray="8 9"></path></g><path d="M480 92 C479.16 102.71, 480.47 114, 479.98 125.15" stroke="#1e1e1e" stroke-width="1.6" fill="none" stroke-linecap="round"></path><path d="M480 125 L475.51 114.96 M480 125 L484.49 114.96" stroke="#1e1e1e" stroke-width="1.6" fill="none" stroke-linecap="round"></path><path d="M480 183 C480.44 199.69, 479.76 217.32, 480.06 234.14 C463.7 233.92, 446.47 234.99, 429.91 234.54 C430.86 236.42, 430.66 237.74, 430.24 240.47" stroke="#1e1e1e" stroke-width="1.6" fill="none" stroke-linecap="round"></path><path d="M430 241 L425.51 230.96 M430 241 L434.49 230.96" stroke="#1e1e1e" stroke-width="1.6" fill="none" stroke-linecap="round"></path><path d="M590 274 C658.29 272.99, 728.27 272.96, 800.05 274.05" stroke="#1e1e1e" stroke-width="1.6" fill="none" stroke-linecap="round"></path><path d="M800 274 L789.96 278.49 M800 274 L789.96 269.51" stroke="#1e1e1e" stroke-width="1.6" fill="none" stroke-linecap="round"></path><path d="M270 274 C244.3 274.31, 216.39 273.35, 189.79 273.82" stroke="#1e1e1e" stroke-width="1.6" fill="none" stroke-linecap="round"></path><path d="M190 274 L200.04 269.51 M190 274 L200.04 278.49" stroke="#1e1e1e" stroke-width="1.6" fill="none" stroke-linecap="round"></path><path d="M430 307 C429.71 322.68, 430.7 337.88, 430.36 355.38" stroke="#1e1e1e" stroke-width="1.6" fill="none" stroke-linecap="round"></path><path d="M430 355 L425.51 344.96 M430 355 L434.49 344.96" stroke="#1e1e1e" stroke-width="1.6" fill="none" stroke-linecap="round"></path><path d="M590 388 C625.64 387.91, 662.75 388.91, 699.98 387.77 C699.33 414.02, 700.93 442.38, 700.2 470 C733.67 469.41, 766.26 470.65, 799.82 470.49" stroke="#1e1e1e" stroke-width="1.6" fill="none" stroke-linecap="round"></path><path d="M800 470 L789.96 474.49 M800 470 L789.96 465.51" stroke="#1e1e1e" stroke-width="1.6" fill="none" stroke-linecap="round"></path><path d="M430 421 C429.72 447.14, 430.41 475.7, 429.76 502.81" stroke="#1e1e1e" stroke-width="1.6" fill="none" stroke-linecap="round"></path><path d="M430 503 L425.51 492.96 M430 503 L434.49 492.96" stroke="#1e1e1e" stroke-width="1.6" fill="none" stroke-linecap="round"></path><path d="M430 569 C428.91 584.4, 430.11 601.77, 429.87 618.12" stroke="#1e1e1e" stroke-width="1.6" fill="none" stroke-linecap="round"></path><path d="M430 618 L425.51 607.96 M430 618 L434.49 607.96" stroke="#1e1e1e" stroke-width="1.6" fill="none" stroke-linecap="round"></path><path d="M710 644 C740.41 643.73, 768.96 644.69, 800.32 643.89" stroke="#1e1e1e" stroke-width="1.6" fill="none" stroke-linecap="round"></path><path d="M800 644 L789.96 648.49 M800 644 L789.96 639.51" stroke="#1e1e1e" stroke-width="1.6" fill="none" stroke-linecap="round"></path><path d="M945 502 C944.99 538.37, 945.38 575.16, 944.56 612.08" stroke="#1e1e1e" stroke-width="1.6" fill="none" stroke-linecap="round"></path><path d="M945 612 L940.51 601.96 M945 612 L949.49 601.96" stroke="#1e1e1e" stroke-width="1.6" fill="none" stroke-linecap="round"></path><g transform="translate(290 40)"><path d="M16 0 C130.75 0.21, 245.24 0.11, 364.21 0.14 C372.79 0.11, 379.65 6.67, 380 16 C380.42 22.81, 379.96 29.51, 380.18 36.05 C379.53 45.23, 373.37 51.68, 364 52 C249.1 52.36, 133.83 51.49, 16.3 51.81 C7.35 51.57, -0.5 44.85, 0 36 C-0.06 29.24, 0.39 22.53, -0.07 15.77 C0.43 7.42, 6.71 0.51, 16 0 Z" stroke="none" fill="#b2f2bb"></path><path d="M16 0 C131.72 0.69, 246.74 0.15, 364.13 0.22 C371.51 -0.9, 378.9 6.78, 380 16 C380.64 23.61, 380.87 29.69, 379.36 36.4 C380.45 44.49, 373.25 52.51, 364 52 C249.31 52.11, 134.64 52.68, 16.02 51.97 C6.74 51.39, 1.09 44.27, 0 36 C0.39 28.56, 0.85 23.51, 0.34 16.62 C1.15 8.46, 6.89 -0.37, 16 0 M16 0 C129.95 0.29, 246.75 0.7, 363.71 -0.07 C373.6 -0.87, 380.1 6.26, 380 16 C380.92 23.44, 378.67 29.5, 380.07 35.57 C380.65 45.97, 373.34 53, 364 52 C250.37 52.96, 135.01 52.15, 16.49 52.42 C6.64 53.08, -1.29 44.33, 0 36 C0.27 30.15, 0.2 22.3, -0.6 16.31 C-0.12 8.28, 6.22 0.04, 16 0" stroke="#2f9e44" stroke-width="1.7" fill="none" stroke-linecap="round"></path></g><text x="480" y="57" font-family="Virgil, Segoe UI Emoji" font-size="15px" fill="#1e1e1e" text-anchor="middle" dominant-baseline="central" style="white-space:pre">Clients / Merchants</text><text x="480" y="76" font-family="Virgil, Segoe UI Emoji" font-size="12px" fill="#495057" text-anchor="middle" dominant-baseline="central" style="white-space:pre">checkout · pay · transfer</text><g transform="translate(290 125)"><path d="M16 0 C130.8 0.34, 245.95 -0.05, 363.98 0.05 C373 -0.48, 380.11 7.31, 380 16 C379.8 24.13, 379.41 32.92, 380.27 42.18 C380.24 50.83, 373.21 57.94, 364 58 C249.02 58.12, 134.06 58.1, 15.91 58.03 C7.6 57.69, 0.21 50.24, 0 42 C0.29 33.61, 0.2 24.25, 0.13 15.79 C0.09 7.43, 6.6 -0.23, 16 0 Z" stroke="none" fill="#dee2e6"></path><path d="M16 0 C129.45 -0.94, 246.85 0.75, 363.85 -0.2 C374.01 -0.69, 379.63 5.97, 380 16 C378.95 23.95, 380.16 33.81, 380.3 41.61 C379.71 49.54, 372.82 57.44, 364 58 C247.82 58.48, 133.5 58.74, 16.1 58.09 C8.16 58.92, -0.79 50.73, 0 42 C-0.45 32.07, 0.07 25.23, 0.26 15.56 C0.69 6.8, 7.5 0.26, 16 0 M16 0 C130.25 -1.21, 244.95 -0.97, 364.09 -0.02 C371.68 0.23, 379.68 6.43, 380 16 C381.1 24.19, 379.96 33.93, 379.56 42.15 C378.83 51.57, 371.71 57.33, 364 58 C247.86 58.23, 134.69 56.66, 15.59 58.16 C6.84 56.94, -0.42 50.44, 0 42 C0.09 33.53, 0.21 26.2, 0.07 16.66 C-0.16 6.39, 7.46 -0.96, 16 0" stroke="#495057" stroke-width="1.7" fill="none" stroke-linecap="round"></path></g><text x="480" y="145" font-family="Virgil, Segoe UI Emoji" font-size="15px" fill="#1e1e1e" text-anchor="middle" dominant-baseline="central" style="white-space:pre">API Gateway</text><text x="480" y="164" font-family="Virgil, Segoe UI Emoji" font-size="12px" fill="#495057" text-anchor="middle" dominant-baseline="central" style="white-space:pre">auth · TLS</text><g transform="translate(270 241)"><path d="M16 0 C110.57 -0.28, 206.59 0.47, 303.72 -0.26 C313 -0.59, 319.74 7.12, 320 16 C320.19 26.98, 320.21 39.04, 320.29 50.28 C320.27 58.57, 312.68 65.87, 304 66 C209.03 65.77, 114.48 66.58, 16 65.72 C6.76 66.01, -0.29 58.7, 0 50 C0.06 38.49, 0.18 27.07, 0.26 15.82 C0.12 7.03, 7.68 0.46, 16 0 Z" stroke="none" fill="#a5d8ff"></path><path d="M16 0 C111.66 -0.94, 205.32 -0.68, 303.33 0.37 C313.99 -0.36, 321.01 6.38, 320 16 C318.67 28.3, 319.48 39.29, 319.61 49.54 C320.03 59.48, 313.18 65.81, 304 66 C210.07 66.89, 115.16 66.43, 16.47 65.46 C6.41 65.47, 1.39 59.53, 0 50 C1.14 38.26, -0.74 26.83, 0.2 15.83 C-0.93 7.43, 5.92 1.3, 16 0 M16 0 C111.79 -1.39, 207 1.06, 304.31 -0.55 C313.99 1.37, 319.55 8.4, 320 16 C319.43 26.21, 318.94 37.6, 319.86 49.31 C320 58.58, 312.3 66.73, 304 66 C207.92 66.32, 114.99 64.78, 16.43 65.68 C5.83 65.55, 1.09 58.03, 0 50 C0.68 38.6, 1.24 26.18, -0.01 16.19 C0.2 7.17, 8.05 -0.62, 16 0" stroke="#1971c2" stroke-width="1.7" fill="none" stroke-linecap="round"></path></g><text x="430" y="265" font-family="Virgil, Segoe UI Emoji" font-size="15px" fill="#1e1e1e" text-anchor="middle" dominant-baseline="central" style="white-space:pre">Payment Service</text><text x="430" y="284" font-family="Virgil, Segoe UI Emoji" font-size="12px" fill="#495057" text-anchor="middle" dominant-baseline="central" style="white-space:pre">idempotency · orchestration</text><g transform="translate(800 243)"><path d="M16 0 C100.77 -0.17, 186.21 0.38, 274.22 0.28 C283.39 0.44, 290.2 6.92, 290 16 C290.18 26.03, 289.98 35.33, 289.95 45.76 C289.75 54.69, 282.92 61.94, 274 62 C188.6 61.69, 104.2 62.18, 15.97 62.29 C7.42 62.44, -0.4 55.29, 0 46 C-0.43 35.8, 0.27 26.38, -0.28 15.86 C0.57 6.71, 7.78 -0.52, 16 0 Z" stroke="none" fill="#ffc9c9"></path><path d="M16 0 C100.18 0.45, 185.26 1.31, 273.5 0.67 C282.77 -0.86, 289.39 8.02, 290 16 C291.07 24.55, 291.16 34.8, 289.52 45.92 C290.47 55.13, 282.74 61.55, 274 62 C187.47 62.27, 103.11 61.76, 15.95 61.36 C7.69 61.26, 0.1 55.02, 0 46 C0.6 36.6, 0.93 25.68, 0.63 15.55 C0.98 6.26, 5.99 1.27, 16 0 M16 0 C100.68 -1.26, 187.52 -0.59, 273.58 -0.42 C283.53 0.61, 289.72 7.68, 290 16 C289.95 26.67, 290.22 34.43, 290.34 46.68 C290.52 55.04, 283.84 61.33, 274 62 C189.55 60.87, 103.64 62.53, 15.42 61.99 C7.42 61.36, 0.4 55.48, 0 46 C0.88 36.04, 0.13 26.92, 0.15 15.42 C-0.8 7.39, 8.33 0.47, 16 0" stroke="#e03131" stroke-width="1.7" fill="none" stroke-linecap="round"></path></g><text x="945" y="265" font-family="Virgil, Segoe UI Emoji" font-size="15px" fill="#1e1e1e" text-anchor="middle" dominant-baseline="central" style="white-space:pre">Idempotency Store</text><text x="945" y="284" font-family="Virgil, Segoe UI Emoji" font-size="12px" fill="#495057" text-anchor="middle" dominant-baseline="central" style="white-space:pre">Redis · dedupe keys</text><g transform="translate(10 243)"><path d="M16 0 C64.36 -0.3, 113.11 -0.34, 164.07 -0.29 C172.94 0.3, 180.03 7.49, 180 16 C179.41 25.31, 179.94 35.85, 179.95 46.04 C180.22 55.16, 173.36 62.18, 164 62 C114.7 61.4, 65.73 61.74, 15.83 62.28 C7.7 61.79, -0.11 55.13, 0 46 C0.09 35.96, 0.07 26.08, -0.05 16.03 C-0.13 7.09, 7.62 0.12, 16 0 Z" stroke="none" fill="#a5d8ff"></path><path d="M16 0 C64.75 -0.65, 114.26 -1.2, 163.43 -0.67 C173.64 -1.21, 181.15 6.02, 180 16 C181.06 26.36, 178.77 36.99, 180.22 45.45 C180.09 55.12, 174.2 61.17, 164 62 C116.29 62.12, 66.83 62.85, 16.17 61.31 C6.75 62.87, -0.88 55.53, 0 46 C0.01 34.79, 1.36 26.25, 0.01 15.94 C1.04 6.77, 8.39 -0.99, 16 0 M16 0 C65.7 0.9, 113.79 0.09, 163.83 -0.02 C173.12 -0.88, 178.71 6.49, 180 16 C180.9 24.57, 181.04 36.27, 179.57 46.41 C180.41 54.75, 171.63 61.71, 164 62 C114.14 63.17, 67.42 61.6, 16.21 62.65 C6.62 63.33, -0.49 55.38, 0 46 C-0.3 35.19, 0.91 26.24, -0.51 16.4 C1.1 8.47, 6.99 -1.01, 16 0" stroke="#1971c2" stroke-width="1.7" fill="none" stroke-linecap="round"></path></g><text x="100" y="265" font-family="Virgil, Segoe UI Emoji" font-size="15px" fill="#1e1e1e" text-anchor="middle" dominant-baseline="central" style="white-space:pre">Fraud Service</text><text x="100" y="284" font-family="Virgil, Segoe UI Emoji" font-size="12px" fill="#495057" text-anchor="middle" dominant-baseline="central" style="white-space:pre">risk checks</text><g transform="translate(270 355)"><path d="M16 0 C110.73 -0.4, 206.24 0.32, 303.77 -0.01 C312.91 0.12, 319.74 7.35, 320 16 C320.33 27.52, 319.46 38.35, 319.87 49.77 C320.01 59.19, 312.5 65.9, 304 66 C209.23 65.97, 114.17 66.14, 16.23 66.29 C7.42 66.59, -0.31 58.89, 0 50 C0.22 39.13, -0.56 28.12, 0.02 15.91 C-0.04 6.68, 7.38 -0.27, 16 0 Z" stroke="none" fill="#a5d8ff"></path><path d="M16 0 C110.71 -0.42, 207.11 -1.36, 303.79 0.47 C312.18 1.14, 318.88 6.27, 320 16 C321.23 26.26, 319.81 37.78, 320.68 49.66 C321.25 58.46, 311.73 65.04, 304 66 C208.29 65.61, 115.21 67.31, 15.53 65.61 C7.97 65.1, -0.29 60.13, 0 50 C0.53 38.03, 0.7 27.2, -0.35 16.55 C-0.84 7.78, 7.74 0.82, 16 0 M16 0 C112.23 -1.21, 206.15 -1.35, 304.53 -0.48 C312.96 -1.37, 320.07 6.1, 320 16 C318.63 28.62, 320.41 39.16, 320.66 50.65 C319.72 58.19, 312.66 65.2, 304 66 C209.16 64.76, 113.74 66.24, 15.67 66.49 C6.58 65.68, -0.65 58.49, 0 50 C0.57 38.19, 0.01 26.24, -0.02 15.75 C0.41 6.8, 5.81 -0.99, 16 0" stroke="#1971c2" stroke-width="1.7" fill="none" stroke-linecap="round"></path></g><text x="430" y="379" font-family="Virgil, Segoe UI Emoji" font-size="15px" fill="#1e1e1e" text-anchor="middle" dominant-baseline="central" style="white-space:pre">Saga Orchestrator</text><text x="430" y="398" font-family="Virgil, Segoe UI Emoji" font-size="12px" fill="#495057" text-anchor="middle" dominant-baseline="central" style="white-space:pre">gateway + wallet · compensations</text><g transform="translate(800 438)"><path d="M16 0 C101.34 0.1, 186.03 -0.07, 274.07 -0.26 C282.47 0.17, 290.39 6.9, 290 16 C290.16 26.96, 289.7 36.58, 290.2 48.27 C289.92 56.63, 283.36 63.96, 274 64 C189.04 63.57, 103.37 64.16, 16.07 63.77 C7.22 64.35, 0.05 56.29, 0 48 C-0.12 37.56, 0.13 26.85, 0.25 16.13 C-0.17 6.66, 7.41 0.6, 16 0 Z" stroke="none" fill="#d0bfff"></path><path d="M16 0 C99.79 1.2, 185.55 1.24, 274.24 -0.18 C282.73 -1.1, 290.17 6.22, 290 16 C288.62 27.62, 290.89 37.85, 290.66 48.38 C288.97 55.92, 282.75 64.6, 274 64 C188.42 64.67, 104.9 63.57, 16.2 64.65 C8.53 63.54, -0.09 57.74, 0 48 C0.5 37.26, 0.25 26.94, -0.51 15.74 C0.17 8.24, 7.77 1.4, 16 0 M16 0 C100.37 1.21, 187.64 -0.19, 274.25 -0.67 C283.52 -0.35, 289.32 7.16, 290 16 C289.93 25.82, 290.3 37.26, 290.05 47.97 C289.67 55.88, 283.84 64.2, 274 64 C188.93 63.32, 103.9 64.58, 15.74 63.83 C7.27 63.65, -1.17 57.65, 0 48 C-1.13 38.33, -0.33 27.25, 0.38 15.4 C1.21 7.49, 7.07 0.16, 16 0" stroke="#7048e8" stroke-width="1.7" fill="none" stroke-linecap="round"></path></g><text x="945" y="461" font-family="Virgil, Segoe UI Emoji" font-size="15px" fill="#1e1e1e" text-anchor="middle" dominant-baseline="central" style="white-space:pre">Payment Gateway</text><text x="945" y="480" font-family="Virgil, Segoe UI Emoji" font-size="12px" fill="#495057" text-anchor="middle" dominant-baseline="central" style="white-space:pre">Stripe · card networks</text><g transform="translate(235 503)"><path d="M16 0 C133.71 0.38, 252.61 0.51, 374.11 0.2 C383.18 -0.37, 389.79 7.49, 390 16 C389.75 26.76, 389.41 38.77, 390.12 50.28 C389.64 58.4, 382.85 66.46, 374 66 C256.25 65.84, 138.21 66.56, 15.95 65.93 C6.63 66.34, -0.19 59.17, 0 50 C-0.46 38.36, -0.45 27.95, 0.28 15.84 C-0.57 7.67, 7.05 -0.53, 16 0 Z" stroke="none" fill="#ffc9c9"></path><path d="M16 0 C134.4 -1.03, 251.59 -0.17, 373.85 -0.03 C383.32 -0.48, 389.25 8.05, 390 16 C390.59 27.61, 390.77 37.05, 390 50.39 C390.13 58.78, 382.38 65, 374 66 C255.22 64.9, 137.74 65.71, 15.86 65.38 C7.49 66.24, 1.05 58.64, 0 50 C1.21 39.46, 1.32 27.45, 0.03 15.59 C0 6.93, 8.14 -0.76, 16 0 M16 0 C134.09 -1.05, 252.9 -1.1, 374.2 -0.13 C383.52 -0.53, 388.65 7.02, 390 16 C389.41 26.57, 388.94 37.49, 390.54 49.99 C390.54 59.46, 381.75 66.27, 374 66 C256.75 66.19, 137.93 64.74, 16.44 66.11 C7.03 66.71, 0.7 58.28, 0 50 C-1.16 38.81, 1.37 28.57, -0.24 16.22 C1.36 7.04, 6.83 1.1, 16 0" stroke="#e03131" stroke-width="1.7" fill="none" stroke-linecap="round"></path></g><text x="430" y="527" font-family="Virgil, Segoe UI Emoji" font-size="15px" fill="#1e1e1e" text-anchor="middle" dominant-baseline="central" style="white-space:pre">Ledger</text><text x="430" y="546" font-family="Virgil, Segoe UI Emoji" font-size="12px" fill="#495057" text-anchor="middle" dominant-baseline="central" style="white-space:pre">PostgreSQL / Spanner · double-entry · append-only</text><g transform="translate(150 618)"><path d="M16 0 C190.13 0.15, 364.68 0.15, 543.75 0.21 C552.84 0.43, 560.36 6.98, 560 16 C560.26 22.35, 559.63 29.15, 559.9 35.93 C560.46 45.17, 552.93 51.73, 544 52 C369.36 52.35, 195.85 51.91, 15.77 51.72 C7.66 51.53, -0.29 44.27, 0 36 C-0.33 29.9, -0.04 22.52, 0.12 16.22 C-0.49 6.7, 7.75 -0.07, 16 0 Z" stroke="none" fill="#ffd8a8"></path><path d="M16 0 C190.33 -0.69, 363.24 1.21, 544.26 -0.51 C553.6 0.14, 559.7 5.88, 560 16 C559.18 22.65, 558.95 27.91, 560.05 36.42 C558.67 45.58, 551.94 53.16, 544 52 C369.34 51.61, 194.6 52.98, 15.33 52.57 C6.39 52.64, -0.23 45.86, 0 36 C-0.96 30.59, 0.5 23.36, -0.35 15.32 C0.98 7.34, 7.04 -0.62, 16 0 M16 0 C189.37 -0.45, 364.71 0.97, 543.97 -0.12 C553.59 0.19, 558.72 6.45, 560 16 C559.98 23.28, 560.33 29.78, 559.84 36.44 C559.35 44.76, 552.97 51.15, 544 52 C370.73 52.22, 195.82 53.32, 15.83 52.26 C7.75 51.52, -1.37 45.34, 0 36 C0.06 28.15, -0.53 23.93, 0.02 16.1 C-1.06 5.89, 6.89 -0.79, 16 0" stroke="#e8590c" stroke-width="1.7" fill="none" stroke-linecap="round"></path></g><text x="430" y="635" font-family="Virgil, Segoe UI Emoji" font-size="15px" fill="#1e1e1e" text-anchor="middle" dominant-baseline="central" style="white-space:pre">Apache Kafka</text><text x="430" y="654" font-family="Virgil, Segoe UI Emoji" font-size="12px" fill="#495057" text-anchor="middle" dominant-baseline="central" style="white-space:pre">payment events</text><g transform="translate(800 612)"><path d="M16 0 C100.72 0.08, 186.69 0, 273.76 0.18 C282.73 -0.27, 290.57 6.62, 290 16 C290.37 26.76, 290.28 37.24, 289.75 48.11 C289.76 57.09, 283.21 64.49, 274 64 C189.17 64.05, 103.67 64.42, 16.21 64.17 C6.7 63.93, 0.27 56.66, 0 48 C-0.07 38.01, -0.05 26.92, 0.05 15.72 C0.4 7.69, 7.63 -0.35, 16 0 Z" stroke="none" fill="#a5d8ff"></path><path d="M16 0 C100.71 0.64, 186.08 0.38, 274.4 -0.44 C281.88 1.17, 291.32 6.64, 290 16 C291.36 25.37, 290.94 36.79, 289.47 48.48 C290.54 55.5, 284.14 63.57, 274 64 C189.84 64.81, 102.75 63.04, 16.14 63.52 C8.38 63.88, -0.09 57.3, 0 48 C-1.29 38.7, -0.81 27.56, 0.39 16.65 C-0.75 7, 7.13 0.52, 16 0 M16 0 C100.15 0.47, 186.51 1.05, 273.88 0.26 C282.08 0.75, 288.88 6.81, 290 16 C288.74 25.83, 290.82 36.72, 289.4 48.6 C289.48 57.34, 283.51 63.67, 274 64 C189.4 63.89, 104.96 63.06, 15.35 64.16 C5.87 65.28, -0.64 58.1, 0 48 C0.42 36.37, 0.55 26.16, 0.13 15.53 C0.31 8.33, 7.98 -1.11, 16 0" stroke="#1971c2" stroke-width="1.7" fill="none" stroke-linecap="round"></path></g><text x="945" y="635" font-family="Virgil, Segoe UI Emoji" font-size="15px" fill="#1e1e1e" text-anchor="middle" dominant-baseline="central" style="white-space:pre">Reconciliation</text><text x="945" y="654" font-family="Virgil, Segoe UI Emoji" font-size="12px" fill="#495057" text-anchor="middle" dominant-baseline="central" style="white-space:pre">match provider reports</text><rect x="255" y="219" width="140" height="18" fill="#ffffff" stroke="none"></rect><text x="260" y="228" font-family="Virgil, Segoe UI Emoji" font-size="12.5px" fill="#495057" text-anchor="start" dominant-baseline="central" style="white-space:pre">Payment Service (CP)</text><rect x="455.07" y="99.5" width="49.86" height="18" rx="6" ry="6" fill="#ffffff" fill-opacity="0.82" stroke="none"></rect><text x="480" y="108.5" font-family="Virgil, Segoe UI Emoji" font-size="11.5px" fill="#27313a" text-anchor="middle" dominant-baseline="central" style="white-space:pre">request</text><rect x="461.05" y="199.5" width="37.9" height="18" rx="6" ry="6" fill="#ffffff" fill-opacity="0.82" stroke="none"></rect><text x="480" y="208.5" font-family="Virgil, Segoe UI Emoji" font-size="11.5px" fill="#27313a" text-anchor="middle" dominant-baseline="central" style="white-space:pre">① pay</text><rect x="640.17" y="265" width="109.66" height="18" rx="6" ry="6" fill="#ffffff" fill-opacity="0.82" stroke="none"></rect><text x="695" y="274" font-family="Virgil, Segoe UI Emoji" font-size="11.5px" fill="#27313a" text-anchor="middle" dominant-baseline="central" style="white-space:pre">idempotency check</text><rect x="196.1" y="265" width="67.8" height="18" rx="6" ry="6" fill="#ffffff" fill-opacity="0.82" stroke="none"></rect><text x="230" y="274" font-family="Virgil, Segoe UI Emoji" font-size="11.5px" fill="#27313a" text-anchor="middle" dominant-baseline="central" style="white-space:pre">risk check</text><rect x="396.1" y="322" width="67.8" height="18" rx="6" ry="6" fill="#ffffff" fill-opacity="0.82" stroke="none"></rect><text x="430" y="331" font-family="Virgil, Segoe UI Emoji" font-size="11.5px" fill="#27313a" text-anchor="middle" dominant-baseline="central" style="white-space:pre">start saga</text><rect x="672.08" y="420" width="55.84" height="18" rx="6" ry="6" fill="#ffffff" fill-opacity="0.82" stroke="none"></rect><text x="700" y="429" font-family="Virgil, Segoe UI Emoji" font-size="11.5px" fill="#27313a" text-anchor="middle" dominant-baseline="central" style="white-space:pre">② charge</text><rect x="369.19" y="453" width="121.62" height="18" rx="6" ry="6" fill="#ffffff" fill-opacity="0.82" stroke="none"></rect><text x="430" y="462" font-family="Virgil, Segoe UI Emoji" font-size="11.5px" fill="#27313a" text-anchor="middle" dominant-baseline="central" style="white-space:pre">③ post double-entry</text><rect x="387.13" y="584.5" width="85.74" height="18" rx="6" ry="6" fill="#ffffff" fill-opacity="0.82" stroke="none"></rect><text x="430" y="593.5" font-family="Virgil, Segoe UI Emoji" font-size="11.5px" fill="#27313a" text-anchor="middle" dominant-baseline="central" style="white-space:pre">④ emit events</text><rect x="718.11" y="635" width="73.78" height="18" rx="6" ry="6" fill="#ffffff" fill-opacity="0.82" stroke="none"></rect><text x="755" y="644" font-family="Virgil, Segoe UI Emoji" font-size="11.5px" fill="#27313a" text-anchor="middle" dominant-baseline="central" style="white-space:pre">⑤ reconcile</text><rect x="890.17" y="548" width="109.66" height="18" rx="6" ry="6" fill="#ffffff" fill-opacity="0.82" stroke="none"></rect><text x="945" y="557" font-family="Virgil, Segoe UI Emoji" font-size="11.5px" fill="#27313a" text-anchor="middle" dominant-baseline="central" style="white-space:pre">settlement report</text></g>
</svg>
