<?xml version="1.0" encoding="UTF-8"?>
<svg id="diagram" viewBox="0 0 1240 560" xmlns="http://www.w3.org/2000/svg" width="1240" height="560"><rect x="0" y="0" width="1240" height="560" fill="#ffffff"></rect><g><rect x="104" y="246" width="332" height="104" rx="14" ry="14" fill="#f8fafc" stroke="#64748b" stroke-width="1.6" stroke-dasharray="7 5"></rect><rect x="118" y="223" width="128.4" height="22" rx="7" ry="7" fill="#475569"></rect><text x="182.2" y="234" fill="#fff" font-size="11.5" font-weight="700" text-anchor="middle" dominant-baseline="central">▢ Location Service</text><rect x="544" y="246" width="352" height="104" rx="14" ry="14" fill="#f8fafc" stroke="#64748b" stroke-width="1.6" stroke-dasharray="7 5"></rect><rect x="558" y="223" width="115.60000000000001" height="22" rx="7" ry="7" fill="#475569"></rect><text x="615.8" y="234" fill="#fff" font-size="11.5" font-weight="700" text-anchor="middle" dominant-baseline="central">▢ Search Service</text></g><g><path d="M500,85 L500,120" fill="none" stroke="#55606a" stroke-width="1.9" stroke-linejoin="round" stroke-linecap="round"></path><polygon points="500,120 496.12627569593405,111.32565506703307 503.8737243040659,111.32565506703307" fill="#55606a"></polygon><path d="M500,180 L500,250 L270,250 L270,263" fill="none" stroke="#55606a" stroke-width="1.9" stroke-linejoin="round" stroke-linecap="round"></path><polygon points="270,263 266.12627569593405,254.32565506703307 273.8737243040659,254.32565506703307" fill="#55606a"></polygon><path d="M500,180 L500,250 L720,250 L720,263" fill="none" stroke="#55606a" stroke-width="1.9" stroke-linejoin="round" stroke-linecap="round"></path><polygon points="720,263 716.126275695934,254.32565506703307 723.873724304066,254.32565506703307" fill="#55606a"></polygon><path d="M270,329 L270,420 L440,420 L440,453" fill="none" stroke="#55606a" stroke-width="1.9" stroke-linejoin="round" stroke-linecap="round"></path><polygon points="440,453 436.12627569593405,444.3256550670331 443.8737243040659,444.3256550670331" fill="#55606a"></polygon><path d="M720,329 L720,420 L440,420 L440,453" fill="none" stroke="#aab2bb" stroke-width="1.6" stroke-linejoin="round" stroke-linecap="round" stroke-dasharray="6 5"></path><polygon points="440,453 436.12627569593405,444.3256550670331 443.8737243040659,444.3256550670331" fill="#aab2bb"></polygon><path d="M600,486 L580,486 L580,296 L560,296" fill="none" stroke="#aab2bb" stroke-width="1.6" stroke-linejoin="round" stroke-linecap="round" stroke-dasharray="6 5"></path><polygon points="560,296 568.674344932967,292.12627569593405 568.674344932967,299.8737243040659" fill="#aab2bb"></polygon><path d="M880,296 L920,296 L920,300 L960,300" fill="none" stroke="#aab2bb" stroke-width="1.6" stroke-linejoin="round" stroke-linecap="round" stroke-dasharray="6 5"></path><polygon points="960,300 951.325655067033,303.87372430406595 951.325655067033,296.12627569593405" fill="#aab2bb"></polygon><path d="M880,296 L920,296 L920,470 L960,470" fill="none" stroke="#aab2bb" stroke-width="1.6" stroke-linejoin="round" stroke-linecap="round" stroke-dasharray="6 5"></path><polygon points="960,470 951.325655067033,473.87372430406595 951.325655067033,466.12627569593405" fill="#aab2bb"></polygon></g><g><rect x="400" y="31" width="200" height="54" rx="9" ry="9" fill="#fff" stroke="#6c757d" stroke-width="1.7" filter="url(#sh)"></rect><path d="M400,55.84 V40 Q400,31 409,31 H591 Q600,31 600,40 V55.84 Z" fill="#6c757d"></path><text x="500" y="43.92" fill="#fff" font-weight="700" font-size="12.5" text-anchor="middle" dominant-baseline="central">Clients</text><text x="500" y="70.42" fill="#3c454d" font-size="10.8" text-anchor="middle" dominant-baseline="central">mobile / web apps</text><rect x="305" y="120" width="390" height="60" rx="9" ry="9" fill="#fff" stroke="#4338ca" stroke-width="1.7" filter="url(#sh)"></rect><path d="M305,146 V129 Q305,120 314,120 H686 Q695,120 695,129 V146 Z" fill="#4f46e5"></path><text x="500" y="133.5" fill="#fff" font-weight="700" font-size="12.5" text-anchor="middle" dominant-baseline="central">API Gateway + LB</text><text x="500" y="163" fill="#3c454d" font-size="10.8" text-anchor="middle" dominant-baseline="central">auth · TLS · rate-limit</text><rect x="120" y="263" width="300" height="66" rx="9" ry="9" fill="#fff" stroke="#0F5BB5" stroke-width="1.7" filter="url(#sh)"></rect><path d="M120,289 V272 Q120,263 129,263 H411 Q420,263 420,272 V289 Z" fill="#0078D4"></path><text x="270" y="276.5" fill="#fff" font-weight="700" font-size="12.5" text-anchor="middle" dominant-baseline="central">Location Ingestion</text><text x="270" y="309" fill="#3c454d" font-size="10.8" text-anchor="middle" dominant-baseline="central">high write · last-write-wins</text><rect x="560" y="263" width="320" height="66" rx="9" ry="9" fill="#fff" stroke="#0F5BB5" stroke-width="1.7" filter="url(#sh)"></rect><path d="M560,289 V272 Q560,263 569,263 H871 Q880,263 880,272 V289 Z" fill="#0078D4"></path><text x="720" y="276.5" fill="#fff" font-weight="700" font-size="12.5" text-anchor="middle" dominant-baseline="central">Nearby Search Service</text><text x="720" y="309" fill="#3c454d" font-size="10.8" text-anchor="middle" dominant-baseline="central">cell + neighbors → radius filter</text><rect x="280" y="453" width="320" height="66" rx="9" ry="9" fill="#fff" stroke="#0A6E80" stroke-width="1.7" filter="url(#sh)"></rect><path d="M280,479 V462 Q280,453 289,453 H591 Q600,453 600,462 V479 Z" fill="#0C8599"></path><text x="440" y="466.5" fill="#fff" font-weight="700" font-size="12.5" text-anchor="middle" dominant-baseline="central">Geo Index</text><text x="440" y="499" fill="#3c454d" font-size="10.8" text-anchor="middle" dominant-baseline="central">Redis GEO / S2 / QuadTree cells</text><rect x="960" y="269" width="240" height="62" rx="9" ry="9" fill="#fff" stroke="#0A6E80" stroke-width="1.7" filter="url(#sh)"></rect><path d="M960,295 V278 Q960,269 969,269 H1191 Q1200,269 1200,278 V295 Z" fill="#0C8599"></path><text x="1080" y="282.5" fill="#fff" font-weight="700" font-size="12.5" text-anchor="middle" dominant-baseline="central">Place DB</text><text x="1080" y="313" fill="#3c454d" font-size="10.8" text-anchor="middle" dominant-baseline="central">PostgreSQL + PostGIS</text><rect x="960" y="439" width="240" height="62" rx="9" ry="9" fill="#fff" stroke="#0A6E80" stroke-width="1.7" filter="url(#sh)"></rect><path d="M960,465 V448 Q960,439 969,439 H1191 Q1200,439 1200,448 V465 Z" fill="#0C8599"></path><text x="1080" y="452.5" fill="#fff" font-weight="700" font-size="12.5" text-anchor="middle" dominant-baseline="central">Hot-cell Cache</text><text x="1080" y="483" fill="#3c454d" font-size="10.8" text-anchor="middle" dominant-baseline="central">Redis</text></g><g><rect x="471.65" y="93.5" width="56.699999999999996" height="18" rx="9" ry="9" fill="#ffffff" stroke="#dde2e7" stroke-width="1"></rect><text x="500" y="103" fill="#27313a" font-size="10.8" font-weight="600" text-anchor="middle" dominant-baseline="central">request</text><rect x="326.15" y="241" width="117.69999999999999" height="18" rx="9" ry="9" fill="#ffffff" stroke="#dde2e7" stroke-width="1"></rect><text x="385" y="250.5" fill="#27313a" font-size="10.8" font-weight="600" text-anchor="middle" dominant-baseline="central">① update location</text><rect x="450.3" y="206" width="99.39999999999999" height="18" rx="9" ry="9" fill="#ffffff" stroke="#dde2e7" stroke-width="1"></rect><text x="500" y="215.5" fill="#27313a" font-size="10.8" font-weight="600" text-anchor="middle" dominant-baseline="central">② nearby query</text><rect x="308.35" y="411" width="93.3" height="18" rx="9" ry="9" fill="#ffffff" stroke="#dde2e7" stroke-width="1"></rect><text x="355" y="420.5" fill="#27313a" font-size="10.8" font-weight="600" text-anchor="middle" dominant-baseline="central">write to cell</text><rect x="652" y="365.5" width="136" height="18" rx="9" ry="9" fill="#ffffff" stroke="#dde2e7" stroke-width="1"></rect><text x="720" y="375" fill="#27313a" font-size="10.8" font-weight="600" text-anchor="middle" dominant-baseline="central">③ cell + 8 neighbors</text><rect x="536.4" y="382" width="87.19999999999999" height="18" rx="9" ry="9" fill="#ffffff" stroke="#dde2e7" stroke-width="1"></rect><text x="580" y="391.5" fill="#27313a" font-size="10.8" font-weight="600" text-anchor="middle" dominant-baseline="central">④ candidates</text><rect x="888.6" y="289" width="62.8" height="18" rx="9" ry="9" fill="#ffffff" stroke="#dde2e7" stroke-width="1"></rect><text x="920" y="298.5" fill="#27313a" font-size="10.8" font-weight="600" text-anchor="middle" dominant-baseline="central">⑤ enrich</text><rect x="873.35" y="374" width="93.3" height="18" rx="9" ry="9" fill="#ffffff" stroke="#dde2e7" stroke-width="1"></rect><text x="920" y="383.5" fill="#27313a" font-size="10.8" font-weight="600" text-anchor="middle" dominant-baseline="central">hot-cell read</text></g><defs><filter id="sh" x="-20%" y="-20%" width="140%" height="140%"><feDropShadow dx="0" dy="1" stdDeviation="1.1" flood-color="#000" flood-opacity="0.13"></feDropShadow></filter></defs></svg>