<svg version="1.1" xmlns="http://www.w3.org/2000/svg" viewBox="0 0 1240 644" width="1240" height="644">
  <!-- svg-source:gen-whiteboards.js -->
  <defs><style class="style-fonts">
@font-face{font-family:"Virgil";src:url("https://unpkg.com/@excalidraw/excalidraw@0.17.6/dist//dist/excalidraw-assets/Virgil.woff2");}
</style></defs>
  <rect x="0" y="0" width="1240" height="644" fill="#ffffff"></rect>
  <text x="24" y="26" font-family="Virgil, Segoe UI Emoji" font-size="22px" fill="#1e1e1e" text-anchor="start" dominant-baseline="central" style="white-space:pre">Proximity / Nearby (Maps / Yelp) — how you'd draw it live on the whiteboard</text>
  <text x="24" y="58" font-family="Virgil, Segoe UI Emoji" font-size="13px" fill="#868e96" text-anchor="start" dominant-baseline="central" style="white-space:pre">green = client   ·   grey = edge / LB   ·   blue = service   ·   red = datastore   ·   orange = queue / stream   ·   violet = 3rd-party</text>
  <g transform="translate(0 84)"><g transform="translate(104 246)"><path d="M18 0 C114.91 0.23, 213.57 -0.7, 314.31 0.31 C324.12 0.77, 331.89 8.65, 332 18 C332.52 39.96, 332.74 62.36, 331.71 85.85 C331.5 96.6, 323.22 104.02, 314 104 C216.8 104.78, 118.25 103.24, 17.73 104.11 C8.9 104.38, 0.01 96.71, 0 86 C0.42 63.58, 0.82 41.92, -0.48 18.45 C0.78 8.04, 7.86 0.83, 18 0" stroke="#495057" stroke-width="1.8" fill="none" stroke-linecap="round" stroke-dasharray="8 9"></path></g><g transform="translate(544 246)"><path d="M18 0 C122.63 0.14, 226.74 -0.92, 333.65 -0.16 C344.04 -0.7, 351.22 8.19, 352 18 C351.12 40.95, 352.15 62.23, 351.77 85.98 C352.59 96.14, 343.8 104.62, 334 104 C228.87 104.64, 124.6 103.09, 18.47 103.53 C8.54 103.09, -0.83 96.38, 0 86 C0.77 63.64, 0.63 41.75, 0.47 17.84 C-0.95 7.12, 8.61 -0.22, 18 0" stroke="#495057" stroke-width="1.8" fill="none" stroke-linecap="round" stroke-dasharray="8 9"></path></g><path d="M500 85 C499.53 95.72, 499.92 107.52, 500.15 119.88" stroke="#1e1e1e" stroke-width="1.6" fill="none" stroke-linecap="round"></path><path d="M500 120 L495.51 109.96 M500 120 L504.49 109.96" stroke="#1e1e1e" stroke-width="1.6" fill="none" stroke-linecap="round"></path><path d="M500 180 C500.83 202.27, 499.89 225.36, 500.48 249.76 C424.08 249.5, 347.59 250.67, 269.92 250.36 C268.97 253.87, 270.12 259.47, 269.89 262.99" stroke="#1e1e1e" stroke-width="1.6" fill="none" stroke-linecap="round"></path><path d="M270 263 L265.51 252.96 M270 263 L274.49 252.96" stroke="#1e1e1e" stroke-width="1.6" fill="none" stroke-linecap="round"></path><path d="M500 180 C500.27 202.99, 500.55 226.61, 500.5 249.74 C573.43 251.05, 645.8 249.3, 719.61 250.13 C720.71 253.45, 719.22 259, 720.19 262.91" stroke="#1e1e1e" stroke-width="1.6" fill="none" stroke-linecap="round"></path><path d="M720 263 L715.51 252.96 M720 263 L724.49 252.96" stroke="#1e1e1e" stroke-width="1.6" fill="none" stroke-linecap="round"></path><path d="M270 329 C270.32 358.33, 269.52 389.77, 269.71 419.58 C326.43 420.88, 383.23 419.45, 440.27 419.47 C438.98 429.84, 440.73 441.43, 439.93 453" stroke="#1e1e1e" stroke-width="1.6" fill="none" stroke-linecap="round"></path><path d="M440 453 L435.51 442.96 M440 453 L444.49 442.96" stroke="#1e1e1e" stroke-width="1.6" fill="none" stroke-linecap="round"></path><path d="M720 329 C719.11 358.39, 721.02 388.34, 720.55 420.54 C627.92 420.31, 534.69 420.16, 439.88 419.51 C440.64 430.13, 438.97 442.49, 439.7 452.57" stroke="#1e1e1e" stroke-width="1.6" fill="none" stroke-linecap="round"></path><path d="M440 453 L435.51 442.96 M440 453 L444.49 442.96" stroke="#1e1e1e" stroke-width="1.6" fill="none" stroke-linecap="round"></path><path d="M600 486 C592.51 485.36, 587.82 485.28, 580.55 486.54 C580.32 423.61, 579.49 360.76, 579.88 295.51 C574.04 295.24, 565.77 296.71, 559.7 295.57" stroke="#1e1e1e" stroke-width="1.6" fill="none" stroke-linecap="round"></path><path d="M560 296 L570.04 291.51 M560 296 L570.04 300.49" stroke="#1e1e1e" stroke-width="1.6" fill="none" stroke-linecap="round"></path><path d="M880 296 C893.49 296.65, 905.83 295.6, 919.98 296.13 C919.86 296.4, 921.1 297.95, 919.87 300.23 C933.42 299.5, 946.59 300.7, 960.02 300.24" stroke="#1e1e1e" stroke-width="1.6" fill="none" stroke-linecap="round"></path><path d="M960 300 L949.96 304.49 M960 300 L949.96 295.51" stroke="#1e1e1e" stroke-width="1.6" fill="none" stroke-linecap="round"></path><path d="M880 296 C892.72 296.78, 907.11 295.34, 920.28 296.31 C919.1 353.89, 920.75 409.98, 920.53 469.57 C933.24 469, 945.84 470.08, 960.43 469.49" stroke="#1e1e1e" stroke-width="1.6" fill="none" stroke-linecap="round"></path><path d="M960 470 L949.96 474.49 M960 470 L949.96 465.51" stroke="#1e1e1e" stroke-width="1.6" fill="none" stroke-linecap="round"></path><g transform="translate(400 31)"><path d="M16 0 C71.33 0, 127.24 0.43, 184.27 -0.24 C192.98 -0.44, 199.66 7.19, 200 16 C199.72 22.95, 200.42 31.03, 199.93 37.7 C200.38 47.37, 192.37 54.04, 184 54 C128.77 54.32, 72.73 53.59, 16.19 54.19 C7.75 54.32, -0.08 46.37, 0 38 C0.24 30.33, -0.58 24.07, 0.25 15.9 C0.13 7.02, 6.88 -0.48, 16 0 Z" stroke="none" fill="#b2f2bb"></path><path d="M16 0 C70.27 -0.53, 125.65 -0.58, 183.3 0.6 C191.72 1.19, 200 5.92, 200 16 C200.35 22.39, 199.16 29.61, 199.76 38.14 C199.27 45.53, 191.89 53.62, 184 54 C129.55 52.76, 71.82 52.92, 15.79 54.52 C6.11 53.41, 0.21 46.64, 0 38 C0.1 29.79, 1.02 22.89, 0.52 15.44 C-0.44 8.24, 8.52 -0.83, 16 0 M16 0 C71.61 -0.59, 128.23 0.52, 183.89 -0.22 C192.14 -0.87, 200.05 8.19, 200 16 C200.7 22.02, 199.18 31.59, 199.91 38.47 C201.37 46.81, 192.16 55.04, 184 54 C127.8 54.32, 72.93 52.99, 15.31 54.53 C6.96 53.95, 0.96 46.51, 0 38 C-0.71 30.74, -0.33 23.87, -0.17 15.87 C0.47 6.9, 6.74 -0.62, 16 0" stroke="#2f9e44" stroke-width="1.7" fill="none" stroke-linecap="round"></path></g><text x="500" y="49" font-family="Virgil, Segoe UI Emoji" font-size="15px" fill="#1e1e1e" text-anchor="middle" dominant-baseline="central" style="white-space:pre">Clients</text><text x="500" y="68" font-family="Virgil, Segoe UI Emoji" font-size="12px" fill="#495057" text-anchor="middle" dominant-baseline="central" style="white-space:pre">mobile / web apps</text><g transform="translate(305 120)"><path d="M16 0 C134.04 0.26, 252.35 -0.15, 373.78 0 C382.41 0.38, 390.17 6.66, 390 16 C390.53 24.92, 389.78 34.9, 389.73 44.08 C389.91 52.56, 382.55 59.58, 374 60 C256 60.49, 138.29 59.63, 16.17 60.15 C7.29 60.4, -0.07 52.95, 0 44 C0.24 34.42, 0.51 25.48, 0.21 16.08 C0.43 7.32, 7.63 0.42, 16 0 Z" stroke="none" fill="#dee2e6"></path><path d="M16 0 C135.46 -1.05, 252.03 -0.13, 373.49 0.61 C382.39 0.14, 389.29 6.78, 390 16 C388.76 25.05, 389.75 33.81, 390.12 43.46 C390.71 51.83, 383.17 59.05, 374 60 C255.46 60.17, 138.42 60.49, 16.57 59.9 C8.29 60.84, 0.87 52.27, 0 44 C1.1 34.35, -0.26 25.21, 0.25 15.82 C1.3 7.45, 7.85 -0.77, 16 0 M16 0 C134.69 -0.91, 253.46 -0.19, 374 -0.28 C384.03 -0.88, 389.81 7.95, 390 16 C390.82 25.24, 390.26 33.76, 389.4 44.47 C389.95 52.06, 382.96 59.02, 374 60 C256.37 60.9, 136.41 59.58, 15.44 60.53 C6.58 61.14, 0.73 53.08, 0 44 C1.07 33.9, 0.63 26.32, 0.05 15.54 C-0.69 8.54, 7.47 -1.03, 16 0" stroke="#495057" stroke-width="1.7" fill="none" stroke-linecap="round"></path></g><text x="500" y="141" font-family="Virgil, Segoe UI Emoji" font-size="15px" fill="#1e1e1e" text-anchor="middle" dominant-baseline="central" style="white-space:pre">API Gateway + LB</text><text x="500" y="160" font-family="Virgil, Segoe UI Emoji" font-size="12px" fill="#495057" text-anchor="middle" dominant-baseline="central" style="white-space:pre">auth · TLS · rate-limit</text><g transform="translate(120 263)"><path d="M16 0 C104.31 0.31, 192.63 0.46, 284.02 0.28 C292.65 -0.37, 300.5 7.59, 300 16 C300.43 27.14, 300.23 38.28, 300.08 49.91 C299.46 58.23, 293.19 65.42, 284 66 C195.44 66.18, 107.53 66.09, 15.94 66.07 C7.13 66.46, -0.03 59.13, 0 50 C-0.37 38.55, 0.51 27.97, -0.22 16.14 C-0.36 7.22, 7.13 0.4, 16 0 Z" stroke="none" fill="#a5d8ff"></path><path d="M16 0 C103.41 1.01, 193.71 0.12, 283.71 -0.12 C291.98 -0.44, 299.17 8.03, 300 16 C299.42 26.18, 300.89 37.83, 300.23 50.21 C301.01 58.98, 293.34 66.02, 284 66 C194.97 65.84, 107.71 65.83, 16.68 65.75 C6.09 67.04, 0.43 58.79, 0 50 C-0.41 37.43, 0.52 27.6, 0.26 16.52 C-0.67 6.77, 5.86 -0.29, 16 0 M16 0 C103.84 0.39, 193.31 -0.15, 283.84 0.58 C294.19 -0.14, 298.69 6.55, 300 16 C299.07 27.73, 299.58 37.63, 300.51 50.48 C300.07 59.11, 293.81 66.5, 284 66 C194.54 65.37, 106.53 66.21, 16.39 65.66 C8.21 65.07, 0.53 59.22, 0 50 C-1.35 38.26, -0.31 27.08, 0.52 16.69 C-0.79 5.89, 8.55 -0.08, 16 0" stroke="#1971c2" stroke-width="1.7" fill="none" stroke-linecap="round"></path></g><text x="270" y="287" font-family="Virgil, Segoe UI Emoji" font-size="15px" fill="#1e1e1e" text-anchor="middle" dominant-baseline="central" style="white-space:pre">Location Ingestion</text><text x="270" y="306" font-family="Virgil, Segoe UI Emoji" font-size="12px" fill="#495057" text-anchor="middle" dominant-baseline="central" style="white-space:pre">high write · last-write-wins</text><g transform="translate(560 263)"><path d="M16 0 C111.31 -0.47, 206.48 -0.09, 304.1 -0.18 C312.81 -0.38, 319.61 6.98, 320 16 C319.94 27.2, 319.99 38.11, 319.73 50.18 C320.32 59.21, 312.86 65.61, 304 66 C208.93 65.64, 113.58 65.91, 16.07 65.72 C7.39 66.29, 0.48 58.57, 0 50 C-0.56 39.09, -0.15 27.27, 0.29 15.98 C0.22 7.21, 6.89 0.48, 16 0 Z" stroke="none" fill="#a5d8ff"></path><path d="M16 0 C110.76 0.24, 205.35 1.34, 304.04 0.31 C312.9 -1.17, 318.65 7.63, 320 16 C319.88 28.25, 320.97 38.29, 320.69 50.41 C320.95 59.12, 313.24 67.06, 304 66 C207.75 64.69, 114.18 66.03, 16.62 65.86 C8.21 65.68, -0.49 59.2, 0 50 C-0.73 39.03, -0.98 28.29, -0.45 16.5 C0.45 6.85, 7.71 1.28, 16 0 M16 0 C110.77 -0.43, 206.17 -0.68, 304.34 -0.15 C313.82 -1.02, 321.16 7.49, 320 16 C318.68 27.44, 319.28 38.84, 319.57 49.36 C320.94 59.55, 313.02 64.93, 304 66 C208.03 66.04, 115.01 65.13, 15.57 66.43 C6 67.19, 1.34 59.82, 0 50 C-0.99 38.18, 0.94 26.36, 0.54 15.31 C1.16 7.72, 8.2 0.85, 16 0" stroke="#1971c2" stroke-width="1.7" fill="none" stroke-linecap="round"></path></g><text x="720" y="287" font-family="Virgil, Segoe UI Emoji" font-size="15px" fill="#1e1e1e" text-anchor="middle" dominant-baseline="central" style="white-space:pre">Nearby Search Service</text><text x="720" y="306" font-family="Virgil, Segoe UI Emoji" font-size="12px" fill="#495057" text-anchor="middle" dominant-baseline="central" style="white-space:pre">cell + neighbors → radius filter</text><g transform="translate(280 453)"><path d="M16 0 C110.75 0.57, 206.15 0.26, 304 0.17 C312.31 -0.41, 320.4 7.35, 320 16 C320.48 26.78, 320.14 38.38, 320.24 50.28 C319.41 59.25, 312.35 66.25, 304 66 C209.01 65.55, 114.27 66.29, 16.2 66.26 C7.19 66.32, -0.6 58.7, 0 50 C-0.57 38.71, 0.38 27.44, 0.06 15.87 C-0.32 6.62, 7.31 -0.21, 16 0 Z" stroke="none" fill="#ffc9c9"></path><path d="M16 0 C110.42 1.1, 206.16 0.84, 304.54 0.46 C313.44 1.29, 319.25 6.44, 320 16 C319.84 27.92, 321.2 39.71, 319.72 49.99 C320.6 59.94, 312.62 65.18, 304 66 C208.62 65.68, 113.73 67, 15.36 66.33 C7.78 65.91, 0.52 58.11, 0 50 C0.28 37.54, -0.66 28.65, -0.15 16.48 C-0.66 6.54, 7.34 0.31, 16 0 M16 0 C111.5 -0.76, 205.23 1.04, 303.69 0.07 C313.06 -0.21, 318.94 5.8, 320 16 C320.46 26.89, 320.9 37.05, 319.49 49.48 C320.14 58.71, 313.43 66.87, 304 66 C208.8 67.29, 115.1 66.97, 15.94 65.55 C8.41 65.8, -1.34 58.2, 0 50 C-0.7 38, 0.76 28.78, 0.13 15.61 C0 8.18, 6.15 0.18, 16 0" stroke="#e03131" stroke-width="1.7" fill="none" stroke-linecap="round"></path></g><text x="440" y="477" font-family="Virgil, Segoe UI Emoji" font-size="15px" fill="#1e1e1e" text-anchor="middle" dominant-baseline="central" style="white-space:pre">Geo Index</text><text x="440" y="496" font-family="Virgil, Segoe UI Emoji" font-size="12px" fill="#495057" text-anchor="middle" dominant-baseline="central" style="white-space:pre">Redis GEO / S2 / QuadTree cells</text><g transform="translate(960 269)"><path d="M16 0 C85.04 0.58, 153.33 -0.08, 223.89 0.17 C233.16 0.15, 240.6 7.75, 240 16 C240.11 25.78, 239.75 35.7, 240.17 45.93 C240.19 55.27, 232.84 61.69, 224 62 C155.94 61.56, 86.75 61.66, 15.99 61.91 C7.19 61.63, -0.55 54.25, 0 46 C-0.03 36.32, 0 26.23, 0.2 16.24 C0.36 7.01, 7.53 0.52, 16 0 Z" stroke="none" fill="#ffc9c9"></path><path d="M16 0 C83.41 -0.27, 154.16 -0.51, 224.6 -0.55 C233.79 -1.2, 240.31 8.41, 240 16 C240.75 26.35, 240.63 35.88, 239.89 46.64 C240.62 55.71, 233.73 60.71, 224 62 C155.65 63.1, 87.67 62.31, 15.33 62.38 C6.43 62.44, 1.35 55.59, 0 46 C1.26 36.98, -0.67 25.07, 0.42 15.42 C0.73 6.21, 8.13 -0.1, 16 0 M16 0 C84.33 -0.63, 154.45 0.32, 223.52 -0.23 C232.78 -0.57, 239.9 8.47, 240 16 C240.27 27.17, 241.06 34.46, 239.56 46.05 C240.16 54.42, 232.04 60.91, 224 62 C154.33 60.87, 87.74 61.89, 15.42 61.98 C7.75 62.26, 0.15 54.46, 0 46 C-0.29 34.79, 0.02 27.04, -0.33 15.76 C-0.78 6.13, 5.88 1.3, 16 0" stroke="#e03131" stroke-width="1.7" fill="none" stroke-linecap="round"></path></g><text x="1080" y="291" font-family="Virgil, Segoe UI Emoji" font-size="15px" fill="#1e1e1e" text-anchor="middle" dominant-baseline="central" style="white-space:pre">Place DB</text><text x="1080" y="310" font-family="Virgil, Segoe UI Emoji" font-size="12px" fill="#495057" text-anchor="middle" dominant-baseline="central" style="white-space:pre">PostgreSQL + PostGIS</text><g transform="translate(960 439)"><path d="M16 0 C84.07 -0.59, 153.36 0.35, 224.01 -0.29 C233.04 0.52, 239.63 7.56, 240 16 C239.67 26.19, 240.55 35.61, 239.73 46.16 C240.34 54.23, 233.37 61.54, 224 62 C154.82 62.53, 87.25 62.49, 15.85 62.21 C6.86 62.29, 0.16 55.06, 0 46 C-0.17 36.53, 0.39 26.19, -0.07 15.9 C-0.29 7.39, 7.21 -0.02, 16 0 Z" stroke="none" fill="#ffc9c9"></path><path d="M16 0 C84.99 1.02, 154.56 0.93, 224.61 -0.41 C232.11 0.77, 239.91 7.44, 240 16 C239.26 26.88, 239.64 35.89, 239.34 46.43 C239.1 55.91, 233.52 61.47, 224 62 C155.36 61.88, 86.27 63.34, 16.12 62.64 C6.35 63.05, 1.12 56.11, 0 46 C-0.57 34.85, 0.59 24.89, 0.12 16.63 C1.17 6.51, 8.57 -0.73, 16 0 M16 0 C85.02 1.15, 152.72 -0.65, 224.34 0.07 C231.65 0.24, 239.85 6.22, 240 16 C239.65 25.87, 238.73 34.76, 239.83 45.43 C239.11 53.94, 231.79 61.96, 224 62 C155.29 62.77, 88.11 62.93, 15.48 62.1 C6.19 62.99, -0.22 55.51, 0 46 C0.01 36.77, 0.44 26.38, 0.53 15.58 C-0.02 8.57, 7.06 -0.2, 16 0" stroke="#e03131" stroke-width="1.7" fill="none" stroke-linecap="round"></path></g><text x="1080" y="461" font-family="Virgil, Segoe UI Emoji" font-size="15px" fill="#1e1e1e" text-anchor="middle" dominant-baseline="central" style="white-space:pre">Hot-cell Cache</text><text x="1080" y="480" font-family="Virgil, Segoe UI Emoji" font-size="12px" fill="#495057" text-anchor="middle" dominant-baseline="central" style="white-space:pre">Redis</text><rect x="117" y="237" width="114" height="18" fill="#ffffff" stroke="none"></rect><text x="122" y="246" font-family="Virgil, Segoe UI Emoji" font-size="12.5px" fill="#495057" text-anchor="start" dominant-baseline="central" style="white-space:pre">Location Service</text><rect x="557" y="237" width="101" height="18" fill="#ffffff" stroke="none"></rect><text x="562" y="246" font-family="Virgil, Segoe UI Emoji" font-size="12.5px" fill="#495057" text-anchor="start" dominant-baseline="central" style="white-space:pre">Search Service</text><rect x="475.07" y="93.5" width="49.86" height="18" rx="6" ry="6" fill="#ffffff" fill-opacity="0.82" stroke="none"></rect><text x="500" y="102.5" font-family="Virgil, Segoe UI Emoji" font-size="11.5px" fill="#27313a" text-anchor="middle" dominant-baseline="central" style="white-space:pre">request</text><rect x="330.17" y="241" width="109.66" height="18" rx="6" ry="6" fill="#ffffff" fill-opacity="0.82" stroke="none"></rect><text x="385" y="250" font-family="Virgil, Segoe UI Emoji" font-size="11.5px" fill="#27313a" text-anchor="middle" dominant-baseline="central" style="white-space:pre">① update location</text><rect x="454.14" y="206" width="91.72" height="18" rx="6" ry="6" fill="#ffffff" fill-opacity="0.82" stroke="none"></rect><text x="500" y="215" font-family="Virgil, Segoe UI Emoji" font-size="11.5px" fill="#27313a" text-anchor="middle" dominant-baseline="central" style="white-space:pre">② nearby query</text><rect x="312.13" y="411" width="85.74" height="18" rx="6" ry="6" fill="#ffffff" fill-opacity="0.82" stroke="none"></rect><text x="355" y="420" font-family="Virgil, Segoe UI Emoji" font-size="11.5px" fill="#27313a" text-anchor="middle" dominant-baseline="central" style="white-space:pre">write to cell</text><rect x="656.2" y="365.5" width="127.6" height="18" rx="6" ry="6" fill="#ffffff" fill-opacity="0.82" stroke="none"></rect><text x="720" y="374.5" font-family="Virgil, Segoe UI Emoji" font-size="11.5px" fill="#27313a" text-anchor="middle" dominant-baseline="central" style="white-space:pre">③ cell + 8 neighbors</text><rect x="540.12" y="382" width="79.76" height="18" rx="6" ry="6" fill="#ffffff" fill-opacity="0.82" stroke="none"></rect><text x="580" y="391" font-family="Virgil, Segoe UI Emoji" font-size="11.5px" fill="#27313a" text-anchor="middle" dominant-baseline="central" style="white-space:pre">④ candidates</text><rect x="892.08" y="289" width="55.84" height="18" rx="6" ry="6" fill="#ffffff" fill-opacity="0.82" stroke="none"></rect><text x="920" y="298" font-family="Virgil, Segoe UI Emoji" font-size="11.5px" fill="#27313a" text-anchor="middle" dominant-baseline="central" style="white-space:pre">⑤ enrich</text><rect x="877.13" y="374" width="85.74" height="18" rx="6" ry="6" fill="#ffffff" fill-opacity="0.82" stroke="none"></rect><text x="920" y="383" font-family="Virgil, Segoe UI Emoji" font-size="11.5px" fill="#27313a" text-anchor="middle" dominant-baseline="central" style="white-space:pre">hot-cell read</text></g>
</svg>
