<?xml version="1.0" encoding="UTF-8"?>
<svg data-enhanced="1" id="diagram" viewBox="0 0 1240 646" xmlns="http://www.w3.org/2000/svg" width="1240" height="646"><title>RAG / Semantic Search — high-level architecture (HLD)</title><desc>High-level architecture diagram. Rounded boxes are stateless services or datastores; solid arrows mark the critical/synchronous request path and dashed arrows mark asynchronous or secondary flows; dashed rounded containers group a service boundary. Colour denotes role: blue = service, teal = datastore, orange = queue/stream, green = external/3rd-party, indigo = gateway/load balancer.</desc><style>@media (prefers-color-scheme:dark){.dgm-bg{fill:#0b1220}rect[fill="#fff"]{fill:#1f2937}rect[fill="#ffffff"]:not(.dgm-bg):not(.dgm-leg){fill:#1f2937}rect[fill="#f8fafc"]{fill:#111827}[fill="#3c454d"]{fill:#cbd5e1}[fill="#27313a"]{fill:#e5e7eb}path[stroke="#55606a"]{stroke:#94a3b8}polygon[fill="#55606a"]{fill:#94a3b8}[stroke="#dde2e7"]{stroke:#3b4657}}</style><rect class="dgm-bg" x="0" y="0" width="1240" height="646" fill="#ffffff"></rect><g><rect x="20" y="40" width="770" height="118" rx="14" ry="14" fill="#f8fafc" stroke="#64748b" stroke-width="1.6" stroke-dasharray="7 5"></rect><rect x="34" y="17" width="200.1" height="22" rx="7" ry="7" fill="#475569"></rect><text x="134.05" y="28" fill="#fff" font-size="11.5" font-weight="700" text-anchor="middle" dominant-baseline="central">▢ Ingestion (offline · async)</text><rect x="20" y="220" width="1090" height="330" rx="14" ry="14" fill="#f8fafc" stroke="#64748b" stroke-width="1.6" stroke-dasharray="7 5"></rect><rect x="34" y="197" width="117.3" height="22" rx="7" ry="7" fill="#475569"></rect><text x="92.65" y="208" fill="#fff" font-size="11.5" font-weight="700" text-anchor="middle" dominant-baseline="central">▢ Query / Serving</text></g><g><path d="M240,99 L300,99" fill="none" stroke="#aab2bb" stroke-width="1.6" stroke-linejoin="round" stroke-linecap="round" stroke-dasharray="6 5"></path><polygon points="300,99 291.326,102.874 291.326,95.126" fill="#aab2bb"></polygon><path d="M500,99 L560,99" fill="none" stroke="#aab2bb" stroke-width="1.6" stroke-linejoin="round" stroke-linecap="round" stroke-dasharray="6 5"></path><polygon points="560,99 551.326,102.874 551.326,95.126" fill="#aab2bb"></polygon><path d="M665,128 L665,190 L970,190 L970,250" fill="none" stroke="#aab2bb" stroke-width="1.6" stroke-linejoin="round" stroke-linecap="round" stroke-dasharray="6 5"></path><polygon points="970,250 966.126,241.326 973.874,241.326" fill="#aab2bb"></polygon><path d="M230,281 L300,281" fill="none" stroke="#55606a" stroke-width="1.9" stroke-linejoin="round" stroke-linecap="round"></path><polygon points="300,281 291.326,284.874 291.326,277.126" fill="#55606a"></polygon><path d="M500,281 L570,281" fill="none" stroke="#55606a" stroke-width="1.9" stroke-linejoin="round" stroke-linecap="round"></path><polygon points="570,281 561.326,284.874 561.326,277.126" fill="#55606a"></polygon><path d="M780,281 L850,282" fill="none" stroke="#55606a" stroke-width="1.9" stroke-linejoin="round" stroke-linecap="round"></path><polygon points="850,282 841.326,285.874 841.326,278.126" fill="#55606a"></polygon><path d="M970,314 L970,460" fill="none" stroke="#55606a" stroke-width="1.9" stroke-linejoin="round" stroke-linecap="round"></path><polygon points="970,460 966.126,451.326 973.874,451.326" fill="#55606a"></polygon><path d="M850,490 L780,490" fill="none" stroke="#55606a" stroke-width="1.9" stroke-linejoin="round" stroke-linecap="round"></path><polygon points="780,490 788.674,493.874 788.674,486.126" fill="#55606a"></polygon><path d="M540,490 L430,490" fill="none" stroke="#55606a" stroke-width="1.9" stroke-linejoin="round" stroke-linecap="round"></path><polygon points="430,490 438.674,493.874 438.674,486.126" fill="#55606a"></polygon><path d="M315,460 L315,400 L135,400 L135,312" fill="none" stroke="#55606a" stroke-width="1.9" stroke-linejoin="round" stroke-linecap="round"></path><polygon points="135,312 131.126,320.674 138.874,320.674" fill="#55606a"></polygon></g><g><rect x="40" y="70" width="200" height="58" rx="9" ry="9" fill="#fff" stroke="#6c757d" stroke-width="1.7" filter="url(#sh)"></rect><path d="M40,96 V79 Q40,70 49,70 H231 Q240,70 240,79 V96 Z" fill="#6c757d"></path><text x="140" y="83.5" fill="#fff" font-weight="700" font-size="12.5" text-anchor="middle" dominant-baseline="central">Docs / Sources</text><text x="140" y="112" fill="#3c454d" font-size="10.8" text-anchor="middle" dominant-baseline="central">PDFs · web · wiki · DB</text><rect x="300" y="70" width="200" height="58" rx="9" ry="9" fill="#fff" stroke="#0F5BB5" stroke-width="1.7" filter="url(#sh)"></rect><path d="M300,96 V79 Q300,70 309,70 H491 Q500,70 500,79 V96 Z" fill="#0078D4"></path><text x="400" y="83.5" fill="#fff" font-weight="700" font-size="12.5" text-anchor="middle" dominant-baseline="central">Chunker</text><text x="400" y="112" fill="#3c454d" font-size="10.8" text-anchor="middle" dominant-baseline="central">split · overlap windows</text><rect x="560" y="70" width="210" height="58" rx="9" ry="9" fill="#fff" stroke="#1F7A33" stroke-width="1.7" filter="url(#sh)"></rect><path d="M560,96 V79 Q560,70 569,70 H761 Q770,70 770,79 V96 Z" fill="#2f9e44"></path><text x="665" y="83.5" fill="#fff" font-weight="700" font-size="12.5" text-anchor="middle" dominant-baseline="central">Embedder</text><text x="665" y="112" fill="#3c454d" font-size="10.8" text-anchor="middle" dominant-baseline="central">embedding model</text><rect x="40" y="250" width="190" height="62" rx="9" ry="9" fill="#fff" stroke="#6c757d" stroke-width="1.7" filter="url(#sh)"></rect><path d="M40,276 V259 Q40,250 49,250 H221 Q230,250 230,259 V276 Z" fill="#6c757d"></path><text x="135" y="263.5" fill="#fff" font-weight="700" font-size="12.5" text-anchor="middle" dominant-baseline="central">Query</text><text x="135" y="294" fill="#3c454d" font-size="10.8" text-anchor="middle" dominant-baseline="central">user question</text><rect x="300" y="250" width="200" height="62" rx="9" ry="9" fill="#fff" stroke="#4338ca" stroke-width="1.7" filter="url(#sh)"></rect><path d="M300,276 V259 Q300,250 309,250 H491 Q500,250 500,259 V276 Z" fill="#4f46e5"></path><text x="400" y="263.5" fill="#fff" font-weight="700" font-size="12.5" text-anchor="middle" dominant-baseline="central">API Gateway</text><text x="400" y="294" fill="#3c454d" font-size="10.8" text-anchor="middle" dominant-baseline="central">auth · TLS</text><rect x="570" y="250" width="210" height="62" rx="9" ry="9" fill="#fff" stroke="#1F7A33" stroke-width="1.7" filter="url(#sh)"></rect><path d="M570,276 V259 Q570,250 579,250 H771 Q780,250 780,259 V276 Z" fill="#2f9e44"></path><text x="675" y="263.5" fill="#fff" font-weight="700" font-size="12.5" text-anchor="middle" dominant-baseline="central">Embedder</text><text x="675" y="294" fill="#3c454d" font-size="10.8" text-anchor="middle" dominant-baseline="central">same embedding model</text><rect x="850" y="250" width="240" height="64" rx="9" ry="9" fill="#fff" stroke="#0A6E80" stroke-width="1.7" filter="url(#sh)"></rect><path d="M850,276 V259 Q850,250 859,250 H1081 Q1090,250 1090,259 V276 Z" fill="#0C8599"></path><text x="970" y="263.5" fill="#fff" font-weight="700" font-size="12.5" text-anchor="middle" dominant-baseline="central">Vector DB (ANN)</text><text x="970" y="295" fill="#3c454d" font-size="10.8" text-anchor="middle" dominant-baseline="central">HNSW / IVF index</text><rect x="850" y="460" width="240" height="60" rx="9" ry="9" fill="#fff" stroke="#0F5BB5" stroke-width="1.7" filter="url(#sh)"></rect><path d="M850,486 V469 Q850,460 859,460 H1081 Q1090,460 1090,469 V486 Z" fill="#0078D4"></path><text x="970" y="473.5" fill="#fff" font-weight="700" font-size="12.5" text-anchor="middle" dominant-baseline="central">Retriever</text><text x="970" y="503" fill="#3c454d" font-size="10.8" text-anchor="middle" dominant-baseline="central">top-k · metadata filter</text><rect x="540" y="460" width="240" height="60" rx="9" ry="9" fill="#fff" stroke="#0F5BB5" stroke-width="1.7" filter="url(#sh)"></rect><path d="M540,486 V469 Q540,460 549,460 H771 Q780,460 780,469 V486 Z" fill="#0078D4"></path><text x="660" y="473.5" fill="#fff" font-weight="700" font-size="12.5" text-anchor="middle" dominant-baseline="central">Reranker</text><text x="660" y="503" fill="#3c454d" font-size="10.8" text-anchor="middle" dominant-baseline="central">cross-encoder rescore</text><rect x="200" y="460" width="230" height="66" rx="9" ry="9" fill="#fff" stroke="#1F7A33" stroke-width="1.7" filter="url(#sh)"></rect><path d="M200,486 V469 Q200,460 209,460 H421 Q430,460 430,469 V486 Z" fill="#2f9e44"></path><text x="315" y="473.5" fill="#fff" font-weight="700" font-size="12.5" text-anchor="middle" dominant-baseline="central">LLM</text><text x="315" y="506" fill="#3c454d" font-size="10.8" text-anchor="middle" dominant-baseline="central">grounded generation</text></g><g><rect x="248.5" y="89.5" width="43" height="18" rx="9" ry="9" fill="#ffffff" stroke="#dde2e7" stroke-width="1"></rect><text x="270" y="99" fill="#27313a" font-size="10.8" font-weight="600" text-anchor="middle" dominant-baseline="central">chunk</text><rect x="508.5" y="89.5" width="43" height="18" rx="9" ry="9" fill="#ffffff" stroke="#dde2e7" stroke-width="1"></rect><text x="530" y="99" fill="#27313a" font-size="10.8" font-weight="600" text-anchor="middle" dominant-baseline="central">embed</text><rect x="948.5" y="210.5" width="43" height="18" rx="9" ry="9" fill="#ffffff" stroke="#dde2e7" stroke-width="1"></rect><text x="970" y="220" fill="#27313a" font-size="10.8" font-weight="600" text-anchor="middle" dominant-baseline="central">index</text><rect x="236.9" y="271.5" width="56.2" height="18" rx="9" ry="9" fill="#ffffff" stroke="#dde2e7" stroke-width="1"></rect><text x="265" y="281" fill="#27313a" font-size="10.8" font-weight="600" text-anchor="middle" dominant-baseline="central">① query</text><rect x="506.9" y="271.5" width="56.2" height="18" rx="9" ry="9" fill="#ffffff" stroke="#dde2e7" stroke-width="1"></rect><text x="535" y="281" fill="#27313a" font-size="10.8" font-weight="600" text-anchor="middle" dominant-baseline="central">② embed</text><rect x="783.6" y="271.5" width="62.8" height="18" rx="9" ry="9" fill="#ffffff" stroke="#dde2e7" stroke-width="1"></rect><text x="815" y="281" fill="#27313a" font-size="10.8" font-weight="600" text-anchor="middle" dominant-baseline="central">③ search</text><rect x="932" y="377.5" width="76" height="18" rx="9" ry="9" fill="#ffffff" stroke="#dde2e7" stroke-width="1"></rect><text x="970" y="387" fill="#27313a" font-size="10.8" font-weight="600" text-anchor="middle" dominant-baseline="central">④ retrieve</text><rect x="783.6" y="480.5" width="62.8" height="18" rx="9" ry="9" fill="#ffffff" stroke="#dde2e7" stroke-width="1"></rect><text x="815" y="490" fill="#27313a" font-size="10.8" font-weight="600" text-anchor="middle" dominant-baseline="central">⑤ rerank</text><rect x="447" y="480.5" width="76" height="18" rx="9" ry="9" fill="#ffffff" stroke="#dde2e7" stroke-width="1"></rect><text x="485" y="490" fill="#27313a" font-size="10.8" font-weight="600" text-anchor="middle" dominant-baseline="central">⑥ generate</text><rect x="110.2" y="350.5" width="49.6" height="18" rx="9" ry="9" fill="#ffffff" stroke="#dde2e7" stroke-width="1"></rect><text x="135" y="360" fill="#27313a" font-size="10.8" font-weight="600" text-anchor="middle" dominant-baseline="central">answer</text></g><defs><filter id="sh" x="-20%" y="-20%" width="140%" height="140%"><feDropShadow dx="0" dy="1" stdDeviation="1.1" flood-color="#000" flood-opacity="0.13"></feDropShadow></filter></defs><g class="dgm-legend"><path d="M16,606 L1224,606" stroke="#dde2e7" stroke-width="1" fill="none"></path><rect class="dgm-leg" x="24" y="619" width="13" height="13" rx="3" ry="3" fill="#0078D4"></rect><text x="43" y="625" fill="#27313a" font-size="10.5" font-weight="600" dominant-baseline="central">service</text><rect class="dgm-leg" x="196.57142857142858" y="619" width="13" height="13" rx="3" ry="3" fill="#0C8599"></rect><text x="215.57142857142858" y="625" fill="#27313a" font-size="10.5" font-weight="600" dominant-baseline="central">datastore</text><rect class="dgm-leg" x="369.14285714285717" y="619" width="13" height="13" rx="3" ry="3" fill="#F7630C"></rect><text x="388.14285714285717" y="625" fill="#27313a" font-size="10.5" font-weight="600" dominant-baseline="central">queue</text><rect class="dgm-leg" x="541.7142857142858" y="619" width="13" height="13" rx="3" ry="3" fill="#2f9e44"></rect><text x="560.7142857142858" y="625" fill="#27313a" font-size="10.5" font-weight="600" dominant-baseline="central">external</text><rect class="dgm-leg" x="714.2857142857143" y="619" width="13" height="13" rx="3" ry="3" fill="#4f46e5"></rect><text x="733.2857142857143" y="625" fill="#27313a" font-size="10.5" font-weight="600" dominant-baseline="central">gateway</text><path d="M886.8571428571429,625 L908.8571428571429,625" stroke="#55606a" stroke-width="1.9" fill="none"></path><polygon points="908.8571428571429,625 902.8571428571429,622 902.8571428571429,628" fill="#55606a"></polygon><text x="914.8571428571429" y="625" fill="#27313a" font-size="10.5" font-weight="600" dominant-baseline="central">sync</text><path d="M1059.4285714285716,625 L1081.4285714285716,625" stroke="#aab2bb" stroke-width="1.6" stroke-dasharray="6 5" fill="none"></path><polygon points="1081.4285714285716,625 1075.4285714285716,622 1075.4285714285716,628" fill="#aab2bb"></polygon><text x="1087.4285714285716" y="625" fill="#27313a" font-size="10.5" font-weight="600" dominant-baseline="central">async</text></g></svg>