<svg version="1.1" xmlns="http://www.w3.org/2000/svg" viewBox="0 0 1240 730" width="1240" height="730">
  <!-- svg-source:gen-whiteboards.js -->
  <defs><style class="style-fonts">
@font-face{font-family:"Virgil";src:url("https://unpkg.com/@excalidraw/excalidraw@0.17.6/dist//dist/excalidraw-assets/Virgil.woff2");}
</style></defs>
  <rect x="0" y="0" width="1240" height="730" fill="#ffffff"></rect>
  <text x="24" y="26" font-family="Virgil, Segoe UI Emoji" font-size="22px" fill="#1e1e1e" text-anchor="start" dominant-baseline="central" style="white-space:pre">RAG / Semantic Search — how you'd draw it live on the whiteboard</text>
  <text x="24" y="58" font-family="Virgil, Segoe UI Emoji" font-size="13px" fill="#868e96" text-anchor="start" dominant-baseline="central" style="white-space:pre">green = client   ·   grey = edge / LB   ·   blue = service   ·   red = datastore   ·   orange = queue / stream   ·   violet = 3rd-party</text>
  <g transform="translate(0 84)"><g transform="translate(20 40)"><path d="M18 0 C259.4 0.58, 501.87 0.2, 751.89 -0.04 C762.05 -0.41, 770.87 8.06, 770 18 C770.69 45.6, 770.73 72.16, 770.38 100.23 C770.85 109.01, 762.03 117.52, 752 118 C509.89 117.44, 266.61 117.19, 18.24 117.62 C7.27 118.63, -0.09 109.42, 0 100 C-0.11 73.52, -0.07 46.6, -0.49 18.14 C0.97 8.27, 7.34 0.01, 18 0" stroke="#495057" stroke-width="1.8" fill="none" stroke-linecap="round" stroke-dasharray="8 9"></path></g><g transform="translate(20 220)"><path d="M18 0 C366.18 0.94, 714.08 0.41, 1072.11 -0.05 C1082.76 -0.48, 1090.47 7.96, 1090 18 C1089.1 115.42, 1090.34 212.13, 1089.71 311.75 C1090.21 321.04, 1081.02 330.85, 1072 330 C725.02 330.7, 375.58 329.89, 18.43 329.68 C7.56 330.59, -0.56 321.14, 0 312 C0.38 215.32, -0.2 117.35, -0.38 17.61 C-0.71 8.94, 7.61 -0.63, 18 0" stroke="#495057" stroke-width="1.8" fill="none" stroke-linecap="round" stroke-dasharray="8 9"></path></g><path d="M240 99 C260.23 99.07, 279.29 98.17, 299.7 98.77" stroke="#1e1e1e" stroke-width="1.6" fill="none" stroke-linecap="round"></path><path d="M300 99 L289.96 103.49 M300 99 L289.96 94.51" stroke="#1e1e1e" stroke-width="1.6" fill="none" stroke-linecap="round"></path><path d="M500 99 C520.55 97.96, 540.51 99.18, 559.74 98.69" stroke="#1e1e1e" stroke-width="1.6" fill="none" stroke-linecap="round"></path><path d="M560 99 L549.96 103.49 M560 99 L549.96 94.51" stroke="#1e1e1e" stroke-width="1.6" fill="none" stroke-linecap="round"></path><path d="M665 128 C664.37 148.15, 665.97 168.09, 664.77 190.01 C764.74 190.73, 865.83 191.1, 970.33 190.12 C970.28 210.4, 969.38 230.1, 970.1 249.89" stroke="#1e1e1e" stroke-width="1.6" fill="none" stroke-linecap="round"></path><path d="M970 250 L965.51 239.96 M970 250 L974.49 239.96" stroke="#1e1e1e" stroke-width="1.6" fill="none" stroke-linecap="round"></path><path d="M230 281 C253.76 280.96, 275.23 281.25, 300.25 280.94" stroke="#1e1e1e" stroke-width="1.6" fill="none" stroke-linecap="round"></path><path d="M300 281 L289.96 285.49 M300 281 L289.96 276.51" stroke="#1e1e1e" stroke-width="1.6" fill="none" stroke-linecap="round"></path><path d="M500 281 C522.27 281.27, 547.05 280.49, 569.87 280.99" stroke="#1e1e1e" stroke-width="1.6" fill="none" stroke-linecap="round"></path><path d="M570 281 L559.96 285.49 M570 281 L559.96 276.51" stroke="#1e1e1e" stroke-width="1.6" fill="none" stroke-linecap="round"></path><path d="M780 281 C803.5 281.5, 826.79 282.38, 849.87 281.63" stroke="#1e1e1e" stroke-width="1.6" fill="none" stroke-linecap="round"></path><path d="M850 282 L839.89 286.34 M850 282 L840.02 277.37" stroke="#1e1e1e" stroke-width="1.6" fill="none" stroke-linecap="round"></path><path d="M970 314 C969.95 362.38, 969.43 409.77, 969.71 459.92" stroke="#1e1e1e" stroke-width="1.6" fill="none" stroke-linecap="round"></path><path d="M970 460 L965.51 449.96 M970 460 L974.49 449.96" stroke="#1e1e1e" stroke-width="1.6" fill="none" stroke-linecap="round"></path><path d="M850 490 C827.89 490.35, 803.08 490.25, 779.67 489.56" stroke="#1e1e1e" stroke-width="1.6" fill="none" stroke-linecap="round"></path><path d="M780 490 L790.04 485.51 M780 490 L790.04 494.49" stroke="#1e1e1e" stroke-width="1.6" fill="none" stroke-linecap="round"></path><path d="M540 490 C504.45 490.27, 468.29 489.04, 429.95 490.45" stroke="#1e1e1e" stroke-width="1.6" fill="none" stroke-linecap="round"></path><path d="M430 490 L440.04 485.51 M430 490 L440.04 494.49" stroke="#1e1e1e" stroke-width="1.6" fill="none" stroke-linecap="round"></path><path d="M315 460 C315.59 440.64, 315.35 420.1, 314.78 399.46 C255.66 400.75, 196.94 399.4, 134.76 400.47 C135.09 369.98, 135.38 342.2, 135.52 312.38" stroke="#1e1e1e" stroke-width="1.6" fill="none" stroke-linecap="round"></path><path d="M135 312 L139.49 322.04 M135 312 L130.51 322.04" stroke="#1e1e1e" stroke-width="1.6" fill="none" stroke-linecap="round"></path><g transform="translate(40 70)"><path d="M16 0 C71.88 0.41, 126.78 0.06, 183.89 -0.26 C193.06 -0.39, 199.99 6.7, 200 16 C199.55 24.11, 200.25 33.16, 200.16 41.76 C200.03 50.88, 192.56 58.49, 184 58 C128.62 58.29, 72.71 58.43, 15.73 58.12 C7.39 58.5, -0.47 50.97, 0 42 C0.15 33.99, 0.03 24.6, 0.1 16.02 C-0.29 7.24, 6.91 0.32, 16 0 Z" stroke="none" fill="#b2f2bb"></path><path d="M16 0 C72.78 -0.53, 125.82 0.14, 184.52 -0.19 C192.23 0.23, 199.73 6.52, 200 16 C199.61 23.78, 200.53 32.26, 199.87 42.35 C198.89 50.74, 192.92 57.39, 184 58 C127.27 56.94, 72.39 57.27, 15.64 57.88 C6.34 58.65, -0.6 49.75, 0 42 C0.93 34.67, 1.15 24.85, -0.43 15.68 C-0.94 8.58, 7.03 0.71, 16 0 M16 0 C71.63 -0.58, 127.43 -0.86, 183.42 0.18 C192.72 0.25, 200.95 7.63, 200 16 C201.16 24.78, 201.01 34.42, 200.06 42.1 C200.49 50.3, 192.64 57.16, 184 58 C129.29 58.42, 72.49 57.2, 15.69 58.61 C6.33 57.74, 1.24 49.58, 0 42 C-1.2 33.4, -0.24 24.64, 0.08 16.01 C0.44 7.52, 8.29 -0.01, 16 0" stroke="#2f9e44" stroke-width="1.7" fill="none" stroke-linecap="round"></path></g><text x="140" y="90" font-family="Virgil, Segoe UI Emoji" font-size="15px" fill="#1e1e1e" text-anchor="middle" dominant-baseline="central" style="white-space:pre">Docs / Sources</text><text x="140" y="109" font-family="Virgil, Segoe UI Emoji" font-size="12px" fill="#495057" text-anchor="middle" dominant-baseline="central" style="white-space:pre">PDFs · web · wiki · DB</text><g transform="translate(300 70)"><path d="M16 0 C70.98 0.18, 127.06 0.56, 184.22 -0.14 C193 0.19, 200.01 7.12, 200 16 C199.58 24.77, 200.31 33.48, 199.71 42.29 C199.96 50.67, 192.89 58.52, 184 58 C129.12 58.18, 73.38 57.95, 15.78 57.74 C7.27 57.96, 0.48 51.38, 0 42 C-0.17 33.39, -0.13 25.42, -0.2 16.24 C0.58 7.76, 7.32 0.1, 16 0 Z" stroke="none" fill="#a5d8ff"></path><path d="M16 0 C72.49 0.3, 126.21 1, 184.24 0.45 C191.61 0.87, 198.9 6.18, 200 16 C200.39 24.73, 199.25 31.83, 199.73 42.41 C198.75 50.97, 193.72 57.61, 184 58 C127.31 56.83, 72.52 56.97, 16.23 57.31 C7.35 59.25, -0.58 50.21, 0 42 C1.26 34.25, 0.05 25.81, 0.15 15.97 C-0.63 7.01, 6.33 0.94, 16 0 M16 0 C72.8 1.17, 128.07 0.5, 184.57 -0.65 C191.9 -1.4, 199.64 7.65, 200 16 C199.11 23.94, 200.28 32.87, 200.29 42.45 C199.01 51.02, 193.64 59.07, 184 58 C128.31 58.08, 73.16 57.9, 16.36 57.32 C7.09 58.64, 1.37 52.04, 0 42 C-1.39 34.45, 0.89 25.63, 0.01 15.91 C0.97 6.74, 7.18 -0.12, 16 0" stroke="#1971c2" stroke-width="1.7" fill="none" stroke-linecap="round"></path></g><text x="400" y="90" font-family="Virgil, Segoe UI Emoji" font-size="15px" fill="#1e1e1e" text-anchor="middle" dominant-baseline="central" style="white-space:pre">Chunker</text><text x="400" y="109" font-family="Virgil, Segoe UI Emoji" font-size="12px" fill="#495057" text-anchor="middle" dominant-baseline="central" style="white-space:pre">split · overlap windows</text><g transform="translate(560 70)"><path d="M16 0 C75.12 0.36, 133.96 0.59, 193.79 -0.02 C203.31 -0.57, 210.55 7.47, 210 16 C210.09 24.52, 210.27 32.83, 209.93 42.05 C209.81 50.28, 202.63 58.14, 194 58 C134.97 57.72, 76.51 58.46, 16.27 58.14 C7.08 58.52, 0.24 51.23, 0 42 C0.17 34.02, 0.16 25.41, 0.3 16.29 C0.48 7.05, 7.08 -0.23, 16 0 Z" stroke="none" fill="#d0bfff"></path><path d="M16 0 C73.85 -1.14, 134.56 -0.65, 194.14 -0.62 C202.13 -0.64, 209.82 8.07, 210 16 C210.34 24.55, 208.79 33.88, 210.37 42.61 C208.73 51.96, 203.41 58.1, 194 58 C134.91 58.83, 76.6 58.32, 16.45 58.21 C7.4 58.7, -1.39 50.56, 0 42 C-0.15 34.7, -1.17 24.09, 0.09 15.89 C1.23 6.32, 7.79 0.56, 16 0 M16 0 C73.58 -0.4, 132.76 -0.7, 193.56 0.64 C202.92 -1.08, 210.86 6.42, 210 16 C210.34 24.97, 208.82 33.22, 210.36 41.4 C210.38 51.23, 201.82 58.17, 194 58 C134.29 58.55, 75.72 57.07, 15.67 58 C7.1 59.02, 0.43 49.59, 0 42 C-0.13 33.64, 1.05 25.42, -0.59 16.32 C1.06 5.87, 7.91 -0.43, 16 0" stroke="#7048e8" stroke-width="1.7" fill="none" stroke-linecap="round"></path></g><text x="665" y="90" font-family="Virgil, Segoe UI Emoji" font-size="15px" fill="#1e1e1e" text-anchor="middle" dominant-baseline="central" style="white-space:pre">Embedder</text><text x="665" y="109" font-family="Virgil, Segoe UI Emoji" font-size="12px" fill="#495057" text-anchor="middle" dominant-baseline="central" style="white-space:pre">embedding model</text><g transform="translate(40 250)"><path d="M16 0 C67.64 -0.2, 120.71 0.38, 173.86 -0.02 C182.43 0.4, 189.82 7.17, 190 16 C189.78 26.01, 189.79 35.9, 190.14 46.28 C190.34 54.7, 182.93 61.69, 174 62 C121.52 62.4, 70.29 61.99, 15.89 61.92 C7.19 61.44, 0.13 54.73, 0 46 C-0.49 36.43, -0.27 26.8, 0.2 16.29 C0.1 6.84, 7.01 -0.03, 16 0 Z" stroke="none" fill="#b2f2bb"></path><path d="M16 0 C67.62 0.51, 120.94 0.77, 174.47 0.04 C182.89 -1.28, 190.69 6.78, 190 16 C190.25 25.43, 188.71 36.29, 190.19 46.05 C188.95 55.84, 184.02 62.74, 174 62 C121.31 62.54, 69.86 62.82, 16.59 62.22 C5.88 62.4, -0.58 54.92, 0 46 C1.27 35.42, 1.13 27.36, 0.01 15.61 C-0.63 7.07, 6.24 0.28, 16 0 M16 0 C69.45 -0.64, 120.16 -1.08, 173.89 -0.44 C183.96 -0.1, 189.07 6.89, 190 16 C191.19 25.92, 188.62 35.21, 190.34 46.25 C189.11 54.51, 182.36 60.75, 174 62 C122.87 61.33, 70.08 60.84, 15.77 61.44 C7.67 63.14, 1.19 55.84, 0 46 C0.41 34.71, 1.22 24.91, 0.5 16.16 C0.2 8.39, 7.97 1.14, 16 0" stroke="#2f9e44" stroke-width="1.7" fill="none" stroke-linecap="round"></path></g><text x="135" y="272" font-family="Virgil, Segoe UI Emoji" font-size="15px" fill="#1e1e1e" text-anchor="middle" dominant-baseline="central" style="white-space:pre">Query</text><text x="135" y="291" font-family="Virgil, Segoe UI Emoji" font-size="12px" fill="#495057" text-anchor="middle" dominant-baseline="central" style="white-space:pre">user question</text><g transform="translate(300 250)"><path d="M16 0 C71.51 -0.58, 126.76 0.16, 184.2 0.16 C192.89 -0.01, 199.97 7.79, 200 16 C199.86 25.72, 200.32 36.14, 200.02 45.83 C199.75 55.01, 193.18 62.14, 184 62 C128.93 61.84, 73.15 62.21, 16 61.95 C6.82 62.37, -0.52 54.53, 0 46 C0.29 35.88, 0.23 25.68, -0.13 15.73 C-0.03 6.82, 7.77 0.03, 16 0 Z" stroke="none" fill="#dee2e6"></path><path d="M16 0 C71.27 -0.61, 127.26 -1.34, 183.31 0.49 C192.17 0.26, 201.23 7.41, 200 16 C199.26 25.85, 200.32 35.79, 200.37 45.83 C199.13 54.22, 192.47 61.54, 184 62 C129.19 61.67, 73.51 62.43, 16.44 62.11 C7.1 61.69, 0.93 54.22, 0 46 C-0.53 37.07, 1.01 27.58, -0.33 16.1 C-0.98 8.3, 5.87 0.37, 16 0 M16 0 C70.92 -0.84, 125.91 -1.22, 184.51 -0.22 C193.6 -0.51, 199.91 6.7, 200 16 C201.21 25.68, 200.71 35.93, 200.26 46.61 C201.22 53.45, 191.47 60.77, 184 62 C128.43 61.46, 71.78 60.64, 16.59 61.51 C8.02 62.23, 1.31 53.97, 0 46 C-0.53 35.19, -0.38 26.16, -0.43 16.47 C-0.98 8.19, 6.01 -0.38, 16 0" stroke="#495057" stroke-width="1.7" fill="none" stroke-linecap="round"></path></g><text x="400" y="272" font-family="Virgil, Segoe UI Emoji" font-size="15px" fill="#1e1e1e" text-anchor="middle" dominant-baseline="central" style="white-space:pre">API Gateway</text><text x="400" y="291" font-family="Virgil, Segoe UI Emoji" font-size="12px" fill="#495057" text-anchor="middle" dominant-baseline="central" style="white-space:pre">auth · TLS</text><g transform="translate(570 250)"><path d="M16 0 C74.83 0.15, 133.35 0.47, 194.24 0.25 C203.34 -0.26, 210.38 6.68, 210 16 C210.17 26.3, 209.47 35.32, 210.09 45.79 C209.75 54.23, 202.43 61.72, 194 62 C135.71 61.41, 76.72 61.42, 16.15 62.02 C7.68 62.52, -0.56 54.53, 0 46 C-0.35 36.22, 0.12 26.71, -0.13 16.21 C-0.07 7.39, 7.33 0.29, 16 0 Z" stroke="none" fill="#d0bfff"></path><path d="M16 0 C75.71 0.49, 133.56 -0.68, 193.39 0.7 C204.14 0.85, 211.29 8.22, 210 16 C210.83 26.83, 208.86 37.18, 209.89 45.54 C210.57 54.37, 202.76 61.34, 194 62 C135.96 62.35, 77.34 62.39, 15.84 61.45 C8.19 60.78, 0.12 55.02, 0 46 C-0.74 36.6, 0.86 26.12, 0.26 15.42 C-0.29 7.35, 8.49 0.41, 16 0 M16 0 C73.85 1.19, 133.38 0.93, 194.36 -0.59 C201.63 -0.41, 208.85 6.45, 210 16 C209.55 26.94, 209.5 35.2, 209.5 45.38 C210.04 55, 203.79 62.43, 194 62 C136.39 62.04, 75.41 61.41, 16.58 62.23 C6.67 62.77, 0.01 56.15, 0 46 C-0.93 37.17, -0.73 26.71, -0.46 15.76 C0.77 7.95, 7.49 -0.27, 16 0" stroke="#7048e8" stroke-width="1.7" fill="none" stroke-linecap="round"></path></g><text x="675" y="272" font-family="Virgil, Segoe UI Emoji" font-size="15px" fill="#1e1e1e" text-anchor="middle" dominant-baseline="central" style="white-space:pre">Embedder</text><text x="675" y="291" font-family="Virgil, Segoe UI Emoji" font-size="12px" fill="#495057" text-anchor="middle" dominant-baseline="central" style="white-space:pre">same embedding model</text><g transform="translate(850 250)"><path d="M16 0 C84.96 0.44, 152.93 -0.31, 224.26 -0.13 C233.38 0.57, 240.37 6.67, 240 16 C240.18 26.7, 239.48 37.35, 240.22 48.11 C240.26 56.55, 232.31 63.96, 224 64 C155.76 64.27, 86.32 64.14, 16.14 64.11 C7.51 64.54, -0.56 57.13, 0 48 C0.21 36.87, -0.47 27.22, 0.17 15.71 C0.58 7.04, 6.94 -0.54, 16 0 Z" stroke="none" fill="#ffc9c9"></path><path d="M16 0 C84.94 0.45, 152.12 1.11, 223.88 0.53 C232.85 0.68, 240.44 7.71, 240 16 C240.58 27.08, 240.24 37.67, 239.41 47.42 C239.94 56.87, 231.95 63.47, 224 64 C154.91 64.86, 87.63 63.08, 16.12 63.47 C7.78 62.97, -0.98 57.39, 0 48 C-0.89 36.79, 0.93 25.71, -0.03 15.37 C-0.71 7.21, 6.2 -0.36, 16 0 M16 0 C83.69 0.86, 152.79 -1.35, 224.26 -0.1 C233.85 1.36, 240.81 6.24, 240 16 C240.79 26.86, 239.04 36.74, 239.7 48 C240.51 56.9, 232.62 63.15, 224 64 C154.29 64.38, 86.98 64.97, 15.31 64.42 C6.28 64.24, 1.37 56.07, 0 48 C-0.14 36.82, 0.41 25.74, 0.32 15.98 C-0.36 5.83, 7.61 0.35, 16 0" stroke="#e03131" stroke-width="1.7" fill="none" stroke-linecap="round"></path></g><text x="970" y="273" font-family="Virgil, Segoe UI Emoji" font-size="15px" fill="#1e1e1e" text-anchor="middle" dominant-baseline="central" style="white-space:pre">Vector DB (ANN)</text><text x="970" y="292" font-family="Virgil, Segoe UI Emoji" font-size="12px" fill="#495057" text-anchor="middle" dominant-baseline="central" style="white-space:pre">HNSW / IVF index</text><g transform="translate(850 460)"><path d="M16 0 C85.16 0.48, 152.8 -0.35, 224.19 -0.06 C232.46 0.17, 240.53 6.96, 240 16 C240.47 25.69, 240.12 34.86, 239.73 43.76 C240.52 53.14, 232.96 60.56, 224 60 C155.43 60.23, 87.15 60.16, 16.28 59.93 C7.78 60.18, -0.26 52.52, 0 44 C0.34 34.5, 0.48 25.5, 0.23 15.99 C0.52 7.01, 7.33 -0.46, 16 0 Z" stroke="none" fill="#a5d8ff"></path><path d="M16 0 C85.41 -0.99, 153.52 -1.13, 224.01 0.4 C233.98 -0.93, 240.16 7.67, 240 16 C240.65 26.56, 239.22 33.65, 240.07 44.06 C240.98 54.01, 232.86 60.67, 224 60 C154.37 59.86, 85.43 59.77, 15.49 60.3 C6.94 61.26, -1.38 53.64, 0 44 C1.31 36.06, -0.42 24.87, 0.62 16.08 C-1.12 6.42, 6.32 -0.38, 16 0 M16 0 C84.44 0.35, 154.39 1.19, 223.89 0.09 C232.21 0.73, 239.93 7.13, 240 16 C238.89 26.2, 239.48 34.26, 240.17 44.1 C241.11 54.01, 233.78 60.96, 224 60 C154.92 60.74, 85.47 59.97, 15.57 60 C7.34 59.22, -0.78 52.64, 0 44 C0.07 35.6, -0.61 26.13, 0.27 15.44 C0.05 7.14, 8.18 1.05, 16 0" stroke="#1971c2" stroke-width="1.7" fill="none" stroke-linecap="round"></path></g><text x="970" y="481" font-family="Virgil, Segoe UI Emoji" font-size="15px" fill="#1e1e1e" text-anchor="middle" dominant-baseline="central" style="white-space:pre">Retriever</text><text x="970" y="500" font-family="Virgil, Segoe UI Emoji" font-size="12px" fill="#495057" text-anchor="middle" dominant-baseline="central" style="white-space:pre">top-k · metadata filter</text><g transform="translate(540 460)"><path d="M16 0 C84.89 -0.5, 153.15 0.11, 223.79 -0.26 C232.99 0.59, 240.15 7.76, 240 16 C239.97 25.3, 239.83 33.94, 239.79 44.25 C239.65 52.8, 232.34 59.61, 224 60 C155.63 59.73, 86.88 59.63, 16.04 59.84 C7.39 60.38, 0.45 53.08, 0 44 C-0.01 34.82, 0.16 25.5, 0.05 16.06 C-0.05 7.28, 7.03 -0.08, 16 0 Z" stroke="none" fill="#a5d8ff"></path><path d="M16 0 C85.66 -1.12, 152.26 1.06, 223.77 -0.04 C232.22 -0.13, 239.54 6.94, 240 16 C239.2 25.19, 241.01 34.93, 239.4 44.35 C240.85 53.97, 231.59 58.69, 224 60 C156.51 59.68, 86.01 59.66, 15.71 60.53 C6.32 60.91, -0.34 51.95, 0 44 C-0.1 34.41, -0.43 26.89, 0.54 16.04 C-1.35 8.33, 8.59 -0.07, 16 0 M16 0 C85.86 -1.36, 152.85 1.22, 224.28 0.46 C234 -1.39, 239.44 8.21, 240 16 C238.67 26.37, 241.36 33.77, 239.54 44.49 C239.24 53.83, 233.23 60.2, 224 60 C156.19 60.05, 86.74 61.33, 15.99 59.98 C7.72 59.34, 0.3 54.14, 0 44 C-1.28 34.41, 1.16 24.5, 0.5 16.52 C0.94 6.41, 6.72 -1.04, 16 0" stroke="#1971c2" stroke-width="1.7" fill="none" stroke-linecap="round"></path></g><text x="660" y="481" font-family="Virgil, Segoe UI Emoji" font-size="15px" fill="#1e1e1e" text-anchor="middle" dominant-baseline="central" style="white-space:pre">Reranker</text><text x="660" y="500" font-family="Virgil, Segoe UI Emoji" font-size="12px" fill="#495057" text-anchor="middle" dominant-baseline="central" style="white-space:pre">cross-encoder rescore</text><g transform="translate(200 460)"><path d="M16 0 C81.25 -0.43, 146.65 0.39, 213.79 -0.04 C222.59 0.38, 230.31 6.81, 230 16 C230.02 27.55, 230.28 38.83, 229.94 49.71 C230.2 58.63, 222.96 65.75, 214 66 C148.07 65.91, 83.03 65.68, 15.92 66.06 C7.79 65.98, 0.45 58.89, 0 50 C0.27 38.54, 0.32 26.99, 0.11 15.94 C-0.45 7.35, 6.69 -0.38, 16 0 Z" stroke="none" fill="#d0bfff"></path><path d="M16 0 C81.9 -0.95, 147.81 0.33, 213.95 -0.41 C221.55 0.22, 229.94 7.54, 230 16 C228.73 27.04, 230.35 37.24, 229.85 50.29 C229.99 58.22, 223.15 65.94, 214 66 C148.24 67.38, 83.59 66.55, 15.63 65.39 C8.54 66.41, -0.41 58.85, 0 50 C-0.28 39.56, 0.52 28.08, -0.47 15.46 C-0.48 7.7, 8.46 -0.67, 16 0 M16 0 C81.4 -0.75, 146.88 -0.77, 213.41 -0.05 C222.87 0.02, 229.86 6.99, 230 16 C230.28 27.73, 231.12 38.43, 230.31 49.42 C228.85 59.19, 223.5 66.01, 214 66 C148.14 64.86, 83.85 66, 15.62 66.67 C6.14 67, -1.24 59.11, 0 50 C0.55 37.76, -0.61 27.09, 0.25 16.13 C1.24 6.89, 7.68 0.88, 16 0" stroke="#7048e8" stroke-width="1.7" fill="none" stroke-linecap="round"></path></g><text x="315" y="484" font-family="Virgil, Segoe UI Emoji" font-size="15px" fill="#1e1e1e" text-anchor="middle" dominant-baseline="central" style="white-space:pre">LLM</text><text x="315" y="503" font-family="Virgil, Segoe UI Emoji" font-size="12px" fill="#495057" text-anchor="middle" dominant-baseline="central" style="white-space:pre">grounded generation</text><rect x="33" y="31" width="185.5" height="18" fill="#ffffff" stroke="none"></rect><text x="38" y="40" font-family="Virgil, Segoe UI Emoji" font-size="12.5px" fill="#495057" text-anchor="start" dominant-baseline="central" style="white-space:pre">Ingestion (offline · async)</text><rect x="33" y="211" width="107.5" height="18" fill="#ffffff" stroke="none"></rect><text x="38" y="220" font-family="Virgil, Segoe UI Emoji" font-size="12.5px" fill="#495057" text-anchor="start" dominant-baseline="central" style="white-space:pre">Query / Serving</text><rect x="251.05" y="89.5" width="37.9" height="18" rx="6" ry="6" fill="#ffffff" fill-opacity="0.82" stroke="none"></rect><text x="270" y="98.5" font-family="Virgil, Segoe UI Emoji" font-size="11.5px" fill="#27313a" text-anchor="middle" dominant-baseline="central" style="white-space:pre">chunk</text><rect x="511.05" y="89.5" width="37.9" height="18" rx="6" ry="6" fill="#ffffff" fill-opacity="0.82" stroke="none"></rect><text x="530" y="98.5" font-family="Virgil, Segoe UI Emoji" font-size="11.5px" fill="#27313a" text-anchor="middle" dominant-baseline="central" style="white-space:pre">embed</text><rect x="951.05" y="210.5" width="37.9" height="18" rx="6" ry="6" fill="#ffffff" fill-opacity="0.82" stroke="none"></rect><text x="970" y="219.5" font-family="Virgil, Segoe UI Emoji" font-size="11.5px" fill="#27313a" text-anchor="middle" dominant-baseline="central" style="white-space:pre">index</text><rect x="240.07" y="271.5" width="49.86" height="18" rx="6" ry="6" fill="#ffffff" fill-opacity="0.82" stroke="none"></rect><text x="265" y="280.5" font-family="Virgil, Segoe UI Emoji" font-size="11.5px" fill="#27313a" text-anchor="middle" dominant-baseline="central" style="white-space:pre">① query</text><rect x="510.07" y="271.5" width="49.86" height="18" rx="6" ry="6" fill="#ffffff" fill-opacity="0.82" stroke="none"></rect><text x="535" y="280.5" font-family="Virgil, Segoe UI Emoji" font-size="11.5px" fill="#27313a" text-anchor="middle" dominant-baseline="central" style="white-space:pre">② embed</text><rect x="787.08" y="271.5" width="55.84" height="18" rx="6" ry="6" fill="#ffffff" fill-opacity="0.82" stroke="none"></rect><text x="815" y="280.5" font-family="Virgil, Segoe UI Emoji" font-size="11.5px" fill="#27313a" text-anchor="middle" dominant-baseline="central" style="white-space:pre">③ search</text><rect x="936.1" y="377.5" width="67.8" height="18" rx="6" ry="6" fill="#ffffff" fill-opacity="0.82" stroke="none"></rect><text x="970" y="386.5" font-family="Virgil, Segoe UI Emoji" font-size="11.5px" fill="#27313a" text-anchor="middle" dominant-baseline="central" style="white-space:pre">④ retrieve</text><rect x="787.08" y="480.5" width="55.84" height="18" rx="6" ry="6" fill="#ffffff" fill-opacity="0.82" stroke="none"></rect><text x="815" y="489.5" font-family="Virgil, Segoe UI Emoji" font-size="11.5px" fill="#27313a" text-anchor="middle" dominant-baseline="central" style="white-space:pre">⑤ rerank</text><rect x="451.1" y="480.5" width="67.8" height="18" rx="6" ry="6" fill="#ffffff" fill-opacity="0.82" stroke="none"></rect><text x="485" y="489.5" font-family="Virgil, Segoe UI Emoji" font-size="11.5px" fill="#27313a" text-anchor="middle" dominant-baseline="central" style="white-space:pre">⑥ generate</text><rect x="113.06" y="350.5" width="43.88" height="18" rx="6" ry="6" fill="#ffffff" fill-opacity="0.82" stroke="none"></rect><text x="135" y="359.5" font-family="Virgil, Segoe UI Emoji" font-size="11.5px" fill="#27313a" text-anchor="middle" dominant-baseline="central" style="white-space:pre">answer</text></g>
</svg>
