<svg version="1.1" xmlns="http://www.w3.org/2000/svg" viewBox="0 0 958 544" width="958" height="544">
  <!-- svg-source:gen-whiteboards.js -->
  <defs><style class="style-fonts">
@font-face{font-family:"Virgil";src:url("https://unpkg.com/@excalidraw/excalidraw@0.17.6/dist//dist/excalidraw-assets/Virgil.woff2");}
</style></defs>
  <rect x="0" y="0" width="958" height="544" fill="#ffffff"></rect>
  <text x="24" y="26" font-family="Virgil, Segoe UI Emoji" font-size="22px" fill="#1e1e1e" text-anchor="start" dominant-baseline="central" style="white-space:pre">Distributed Rate Limiter — how you'd draw it live on the whiteboard</text>
  <text x="24" y="58" font-family="Virgil, Segoe UI Emoji" font-size="13px" fill="#868e96" text-anchor="start" dominant-baseline="central" style="white-space:pre">green = client   ·   grey = edge / LB   ·   blue = service   ·   red = datastore   ·   orange = queue / stream   ·   violet = 3rd-party</text>
  <g transform="translate(0 84)"><g transform="translate(50 116)"><path d="M18 0 C144.97 -0.79, 271.77 0.67, 401.92 0.16 C411.51 -0.56, 419.08 8.26, 420 18 C419.93 68.02, 419.64 120.24, 420 172.26 C420.52 182.17, 411.94 189.89, 402 190 C275.54 189.83, 147.59 189.41, 18.33 190.1 C8.99 189.56, 0.47 182.65, 0 172 C0.6 121.94, 0.45 71.16, 0.45 18.14 C-0.05 7.31, 7.51 0.91, 18 0" stroke="#495057" stroke-width="1.8" fill="none" stroke-linecap="round" stroke-dasharray="8 9"></path></g><path d="M285 81 C284.59 95.69, 284.97 109.03, 284.72 124.81" stroke="#1e1e1e" stroke-width="1.6" fill="none" stroke-linecap="round"></path><path d="M285 125 L280.51 114.96 M285 125 L289.49 114.96" stroke="#1e1e1e" stroke-width="1.6" fill="none" stroke-linecap="round"></path><path d="M285 187 C283.98 201.45, 284.05 214.62, 285.38 229.19" stroke="#1e1e1e" stroke-width="1.6" fill="none" stroke-linecap="round"></path><path d="M285 229 L280.51 218.96 M285 229 L289.49 218.96" stroke="#1e1e1e" stroke-width="1.6" fill="none" stroke-linecap="round"></path><path d="M450 262 C517.39 262.39, 582.6 261.11, 651.73 261.8" stroke="#1e1e1e" stroke-width="1.6" fill="none" stroke-linecap="round"></path><path d="M652 262 L641.96 266.49 M652 262 L641.96 257.51" stroke="#1e1e1e" stroke-width="1.6" fill="none" stroke-linecap="round"></path><path d="M450 156 C516.58 155.57, 583.45 155.57, 652.02 156.03" stroke="#1e1e1e" stroke-width="1.6" fill="none" stroke-linecap="round"></path><path d="M652 156 L641.96 160.49 M652 156 L641.96 151.51" stroke="#1e1e1e" stroke-width="1.6" fill="none" stroke-linecap="round"></path><path d="M780 84 C779.02 98.27, 779.15 111.12, 780.48 125.96" stroke="#1e1e1e" stroke-width="1.6" fill="none" stroke-linecap="round"></path><path d="M780 126 L775.51 115.96 M780 126 L784.49 115.96" stroke="#1e1e1e" stroke-width="1.6" fill="none" stroke-linecap="round"></path><path d="M285 295 C284.08 309.11, 285.14 322.32, 285.39 338.12 C262.3 337.88, 237.9 337.01, 215.28 337.56 C214.42 349.96, 214.03 359.73, 214.6 371.11" stroke="#1e1e1e" stroke-width="1.6" fill="none" stroke-linecap="round"></path><path d="M215 371 L210.51 360.96 M215 371 L219.49 360.96" stroke="#1e1e1e" stroke-width="1.6" fill="none" stroke-linecap="round"></path><path d="M285 295 C285.76 308.6, 285.67 322.95, 284.51 338.11 C355.07 338.78, 422.66 338.72, 495.52 338.5 C494.9 348.39, 494.72 359.6, 495.19 370.6" stroke="#1e1e1e" stroke-width="1.6" fill="none" stroke-linecap="round"></path><path d="M495 371 L490.51 360.96 M495 371 L499.49 360.96" stroke="#1e1e1e" stroke-width="1.6" fill="none" stroke-linecap="round"></path><g transform="translate(180 31)"><path d="M16 0 C74.35 0.1, 133.9 0.57, 193.79 -0.05 C202.48 -0.52, 210.56 6.99, 210 16 C210.09 21.76, 209.99 28.15, 210.01 34.22 C210.54 42.74, 202.21 49.98, 194 50 C134.76 49.44, 76.33 50.2, 15.76 50.23 C7.23 50.57, 0.08 42.74, 0 34 C0.04 27.69, 0.57 22.43, -0.22 16.04 C-0.21 7.13, 7.43 0.47, 16 0 Z" stroke="none" fill="#b2f2bb"></path><path d="M16 0 C73.57 -0.2, 132.57 0.96, 194.22 0.16 C203 -0.73, 209.42 6.76, 210 16 C209.16 23.01, 210.05 27.89, 210.62 34.29 C209.83 41.81, 203.58 49.65, 194 50 C135.24 50.51, 76.4 50.13, 15.79 50.65 C7.86 51.22, 1.3 42.43, 0 34 C-1.25 29.27, 0.19 22.49, 0.42 15.37 C-0.31 7.66, 7.95 -1.13, 16 0 M16 0 C73.46 -1.15, 133.94 1.16, 194.51 -0.54 C203.52 0.25, 208.66 6.04, 210 16 C208.72 21.31, 210.54 27.56, 209.33 33.4 C210.56 43.72, 202 48.79, 194 50 C136.47 51.29, 77.62 48.88, 16.22 49.66 C8.17 49.31, -0.06 42.24, 0 34 C1.03 27.34, 0.56 21.82, -0.56 16 C-1.37 7.28, 8.01 -0.58, 16 0" stroke="#2f9e44" stroke-width="1.7" fill="none" stroke-linecap="round"></path></g><text x="285" y="47" font-family="Virgil, Segoe UI Emoji" font-size="15px" fill="#1e1e1e" text-anchor="middle" dominant-baseline="central" style="white-space:pre">Clients</text><text x="285" y="66" font-family="Virgil, Segoe UI Emoji" font-size="12px" fill="#495057" text-anchor="middle" dominant-baseline="central" style="white-space:pre">apps · services · browsers</text><g transform="translate(120 125)"><path d="M16 0 C113.97 0.49, 212.09 0.16, 314.08 0.13 C323.37 0.35, 330.3 7.49, 330 16 C329.63 26.27, 329.59 36, 330.07 45.71 C330.56 54.41, 323.29 61.71, 314 62 C216.17 61.4, 117.79 62.51, 15.91 62.1 C6.72 62.06, -0.22 55.27, 0 46 C0.11 35.55, -0.57 26.71, 0.04 15.72 C0.39 6.78, 6.8 0.59, 16 0 Z" stroke="none" fill="#dee2e6"></path><path d="M16 0 C115.55 -1.03, 213.72 1.11, 313.72 0.65 C322.36 0.81, 329.66 7.76, 330 16 C328.86 26.39, 330.14 37.08, 330.51 46.36 C329.5 53.62, 322.97 61.02, 314 62 C216.29 61.76, 117.84 61.67, 16.22 62.24 C7.06 63.22, 1.1 55.54, 0 46 C0.49 37.04, -0.75 27.22, -0.42 16.62 C0.64 7.66, 7.85 -0.92, 16 0 M16 0 C114.23 0.1, 211.82 0.54, 313.41 -0.63 C323.77 -0.13, 329.21 6.8, 330 16 C330.17 25.61, 330.25 36.42, 330.29 46.36 C330.53 56.11, 324.07 61.49, 314 62 C214.84 60.61, 117.41 60.84, 15.91 62.24 C6.94 62.29, -0.02 55.31, 0 46 C1.32 37.13, 0.08 25.99, -0.08 15.84 C0.7 7.19, 6.78 0.95, 16 0" stroke="#495057" stroke-width="1.7" fill="none" stroke-linecap="round"></path></g><text x="285" y="147" font-family="Virgil, Segoe UI Emoji" font-size="15px" fill="#1e1e1e" text-anchor="middle" dominant-baseline="central" style="white-space:pre">API Gateway</text><text x="285" y="166" font-family="Virgil, Segoe UI Emoji" font-size="12px" fill="#495057" text-anchor="middle" dominant-baseline="central" style="white-space:pre">limiter middleware · inline</text><g transform="translate(120 229)"><path d="M16 0 C114.77 0.39, 212.2 0.26, 314.18 0.13 C323.06 0.28, 330.37 6.96, 330 16 C329.71 27.54, 330.41 38.33, 330.04 49.78 C329.83 58.34, 322.27 65.84, 314 66 C215.51 66.49, 117.71 66.53, 15.84 66.22 C7.51 66.55, -0.46 59.09, 0 50 C0.55 38.18, -0.24 27.42, -0.08 16.1 C-0.11 7.64, 7.3 -0.39, 16 0 Z" stroke="none" fill="#a5d8ff"></path><path d="M16 0 C113.98 -0.29, 213.17 -1.26, 314.2 -0.32 C323.65 0.08, 329.57 8.58, 330 16 C331.26 28.36, 328.78 38.87, 330.34 50.68 C329.04 59.27, 321.79 66.45, 314 66 C215.38 67.21, 117.42 65.01, 15.4 66.11 C7.85 67.17, -0.1 59.74, 0 50 C-1.36 39.98, 1.09 27.32, -0.16 16.33 C-0.07 7.19, 7.89 -0.52, 16 0 M16 0 C113.85 0.33, 212.88 0.13, 314.33 -0.4 C322.56 -0.7, 330.45 6.07, 330 16 C329.29 27.59, 329.59 38.85, 330.53 49.66 C330.19 59.4, 321.78 66.2, 314 66 C216.96 64.64, 117.14 66.06, 15.46 65.71 C7.13 65.36, -0.49 57.5, 0 50 C0.5 39.17, -0.22 28.48, -0.27 15.32 C-1.31 7.6, 6.56 -0.08, 16 0" stroke="#1971c2" stroke-width="1.7" fill="none" stroke-linecap="round"></path></g><text x="285" y="253" font-family="Virgil, Segoe UI Emoji" font-size="15px" fill="#1e1e1e" text-anchor="middle" dominant-baseline="central" style="white-space:pre">Rate Limiter</text><text x="285" y="272" font-family="Virgil, Segoe UI Emoji" font-size="12px" fill="#495057" text-anchor="middle" dominant-baseline="central" style="white-space:pre">token-bucket (Lua, atomic)</text><g transform="translate(660 32)"><path d="M16 0 C85.02 -0.07, 153.81 -0.18, 223.97 -0.06 C233.15 -0.17, 239.5 7.68, 240 16 C240.58 23.08, 240.28 28.97, 240.28 36.16 C240.15 45, 233.31 52.28, 224 52 C155.04 52.02, 86.38 52.14, 15.7 52.29 C6.91 52.14, 0.5 44.86, 0 36 C0.4 29.36, 0.2 22.46, 0.11 15.74 C-0.36 7.76, 7.66 -0.21, 16 0 Z" stroke="none" fill="#a5d8ff"></path><path d="M16 0 C83.6 0.94, 154.64 -0.06, 223.45 0.42 C232.51 -0.32, 240.31 8.3, 240 16 C238.98 22.34, 241.01 30.53, 240.02 35.69 C239.58 45.3, 232.97 51.28, 224 52 C154.9 51.02, 86.04 50.74, 16.27 52.69 C6.91 52.34, -0.69 43.9, 0 36 C1.12 30.27, -0.93 23.66, -0.49 16.34 C-1.18 6.34, 7.14 -0.56, 16 0 M16 0 C85.05 1.17, 153.45 1.4, 224.63 0.45 C232.21 -0.31, 239.09 8.54, 240 16 C241.14 22.23, 240.15 29.08, 239.79 36.13 C240.94 46.12, 231.89 52.69, 224 52 C156.14 53.25, 87.92 52.93, 15.57 52 C6.27 51.1, 0.96 43.42, 0 36 C1.35 28.48, 0.85 22.27, -0.56 16.7 C1.31 7.29, 6.38 0.59, 16 0" stroke="#1971c2" stroke-width="1.7" fill="none" stroke-linecap="round"></path></g><text x="780" y="49" font-family="Virgil, Segoe UI Emoji" font-size="15px" fill="#1e1e1e" text-anchor="middle" dominant-baseline="central" style="white-space:pre">Config Service</text><text x="780" y="68" font-family="Virgil, Segoe UI Emoji" font-size="12px" fill="#495057" text-anchor="middle" dominant-baseline="central" style="white-space:pre">push rule updates</text><g transform="translate(652 126)"><path d="M16 0 C90 0.39, 163.36 0.31, 239.85 -0.28 C248.47 -0.5, 255.94 7, 256 16 C255.51 25.81, 256 34.86, 256.17 44.2 C256.3 52.69, 249.18 60.28, 240 60 C165.68 60.03, 92.69 60.07, 16.09 60.14 C7.02 60.59, 0.18 52.91, 0 44 C0.49 35.06, -0.52 25.97, 0.03 15.75 C0.26 7.6, 6.74 -0.55, 16 0 Z" stroke="none" fill="#ffc9c9"></path><path d="M16 0 C89.9 0.9, 164.38 0.84, 240.44 0.13 C247.88 0.33, 256.27 8.06, 256 16 C255.77 25.47, 254.76 34.65, 255.58 44.63 C255.42 53.54, 249.04 59.85, 240 60 C166.78 59.29, 91.82 58.74, 16.41 59.9 C7.73 59.38, -0.17 54.02, 0 44 C-0.19 34.14, -1.32 24.82, -0.29 16.03 C0.62 7.88, 8.1 -0.85, 16 0 M16 0 C91.23 0.59, 164.75 1.01, 239.56 -0.69 C249.13 0.37, 257.17 7.51, 256 16 C256.7 25.29, 255.18 33.08, 256.13 43.89 C254.84 51.97, 247.76 58.62, 240 60 C166.87 60.13, 93.27 61.33, 16.52 60.15 C8.51 61.2, -0.54 51.84, 0 44 C-0.85 35.19, -0.04 26.86, 0.53 15.95 C1.26 6.09, 6.83 0.53, 16 0" stroke="#e03131" stroke-width="1.7" fill="none" stroke-linecap="round"></path></g><text x="780" y="147" font-family="Virgil, Segoe UI Emoji" font-size="15px" fill="#1e1e1e" text-anchor="middle" dominant-baseline="central" style="white-space:pre">Rules / Config Store</text><text x="780" y="166" font-family="Virgil, Segoe UI Emoji" font-size="12px" fill="#495057" text-anchor="middle" dominant-baseline="central" style="white-space:pre">limits per (user, route)</text><g transform="translate(652 229)"><path d="M16 0 C89.99 -0.32, 164.22 -0.46, 240.12 -0.19 C248.98 0.27, 256.56 7.67, 256 16 C256.1 27.62, 255.98 38.21, 255.89 49.75 C255.5 58.22, 248.77 66.32, 240 66 C165.96 66.55, 91.61 65.56, 16.07 66.25 C7.68 66.52, -0.35 58.56, 0 50 C-0.44 39.17, -0.55 27.25, 0.13 15.94 C-0.48 7.1, 7.08 0.18, 16 0 Z" stroke="none" fill="#ffc9c9"></path><path d="M16 0 C89.36 -0.63, 163.65 1.09, 239.93 -0.16 C249.65 -1.23, 257.32 6.55, 256 16 C255.19 28.07, 256.36 37.41, 256.69 49.89 C255.89 57.59, 249.05 67.24, 240 66 C165.03 67.2, 92.96 65.9, 16.54 65.54 C6.17 65.93, 0.39 58.85, 0 50 C1.16 39.23, -0.75 26.74, -0.51 16.24 C0.71 6.61, 6.57 -1.14, 16 0 M16 0 C88.88 -0.31, 162.45 0.93, 239.32 0.3 C249.83 0.94, 255.3 7.19, 256 16 C255.79 26.31, 254.75 39.33, 255.42 49.69 C256.58 60.04, 250.18 65.41, 240 66 C165.96 65.26, 92.36 66.64, 15.49 65.91 C7.54 65.33, -1.37 58.28, 0 50 C-0.75 38.77, 0.98 28.08, -0.44 15.94 C-0.32 7.51, 5.85 -1.31, 16 0" stroke="#e03131" stroke-width="1.7" fill="none" stroke-linecap="round"></path></g><text x="780" y="253" font-family="Virgil, Segoe UI Emoji" font-size="15px" fill="#1e1e1e" text-anchor="middle" dominant-baseline="central" style="white-space:pre">Redis</text><text x="780" y="272" font-family="Virgil, Segoe UI Emoji" font-size="12px" fill="#495057" text-anchor="middle" dominant-baseline="central" style="white-space:pre">centralized counters · atomic Lua</text><g transform="translate(95 371)"><path d="M16 0 C84.89 0.32, 152.71 0.25, 223.78 -0.08 C232.37 0.02, 240.12 6.97, 240 16 C239.84 24.16, 239.88 32.68, 239.86 42.04 C240.45 50.6, 232.37 58.04, 224 58 C155.08 57.88, 87.31 57.69, 15.78 57.88 C6.84 57.5, -0.32 50.64, 0 42 C-0.39 33.62, -0.28 25.05, -0.25 15.88 C-0.21 7.57, 7.3 0.25, 16 0 Z" stroke="none" fill="#a5d8ff"></path><path d="M16 0 C84.02 0.14, 152.21 0.42, 223.63 0.57 C232.63 -1.24, 241.35 6.01, 240 16 C240.78 25.8, 240.11 32.83, 240.61 42.68 C240.6 51.75, 231.94 57.81, 224 58 C154.85 58.95, 86.86 56.77, 15.69 58.4 C7.87 57.41, 0.74 51.26, 0 42 C0.29 34.11, -1.29 24.45, -0.36 16.04 C-0.25 6.93, 6.52 -1.04, 16 0 M16 0 C84.69 0.71, 152.37 -0.66, 224.48 -0.35 C233.21 1.01, 239.32 5.93, 240 16 C238.97 24.24, 238.65 33.71, 239.67 42.41 C239.01 50.15, 232.03 58.23, 224 58 C155.64 56.88, 86.41 57.12, 15.79 57.85 C8.19 59.16, 0.39 51.29, 0 42 C-0.01 33.2, 1.17 25.15, 0.15 15.8 C-0.13 6.86, 8.03 0.08, 16 0" stroke="#1971c2" stroke-width="1.7" fill="none" stroke-linecap="round"></path></g><text x="215" y="391" font-family="Virgil, Segoe UI Emoji" font-size="15px" fill="#1e1e1e" text-anchor="middle" dominant-baseline="central" style="white-space:pre">Upstream Services</text><text x="215" y="410" font-family="Virgil, Segoe UI Emoji" font-size="12px" fill="#495057" text-anchor="middle" dominant-baseline="central" style="white-space:pre">routed only when allowed</text><g transform="translate(385 371)"><path d="M16 0 C77.88 0.02, 139.6 0.55, 204.25 0.04 C212.74 -0.54, 219.43 7.09, 220 16 C220.56 24.78, 219.5 33.46, 219.73 42.25 C220.09 50.83, 212.98 58.33, 204 58 C142.47 57.64, 80.13 58.01, 15.96 58.27 C7.01 58.14, -0.42 51.23, 0 42 C-0.21 33.55, 0.17 24.78, 0.17 15.97 C-0.28 7.27, 7.09 -0.42, 16 0 Z" stroke="none" fill="#b2f2bb"></path><path d="M16 0 C78.28 -0.19, 139.65 0.86, 203.49 -0.6 C213.23 1.34, 218.64 6.7, 220 16 C221.37 25.6, 219.95 33.79, 220.03 42.68 C219.85 51.69, 213.17 56.68, 204 58 C141.87 58.82, 81.22 58.09, 15.3 58.34 C5.97 58.26, 1.16 49.88, 0 42 C-1.12 32.92, 1.3 24.14, -0.61 15.52 C-0.63 8.24, 6.41 -0.55, 16 0 M16 0 C79.35 1, 138.87 1.05, 204.46 0.66 C213.04 -1.06, 221.22 8.31, 220 16 C219.01 25.95, 219.43 33.84, 220.11 41.79 C219.56 51.85, 211.67 56.64, 204 58 C141.08 58.27, 80.91 56.83, 16.33 57.52 C7.6 56.98, 0.31 50.46, 0 42 C1.13 34.6, -1.14 25.72, 0.18 16.22 C0.9 6.43, 6.12 -0.81, 16 0" stroke="#2f9e44" stroke-width="1.7" fill="none" stroke-linecap="round"></path></g><text x="495" y="391" font-family="Virgil, Segoe UI Emoji" font-size="15px" fill="#1e1e1e" text-anchor="middle" dominant-baseline="central" style="white-space:pre">429 Too Many Requests</text><text x="495" y="410" font-family="Virgil, Segoe UI Emoji" font-size="12px" fill="#495057" text-anchor="middle" dominant-baseline="central" style="white-space:pre">Retry-After · no backend hit</text><rect x="63" y="107" width="166" height="18" fill="#ffffff" stroke="none"></rect><text x="68" y="116" font-family="Virgil, Segoe UI Emoji" font-size="12.5px" fill="#495057" text-anchor="start" dominant-baseline="central" style="white-space:pre">Edge (gateway + limiter)</text><rect x="254.09" y="94" width="61.82" height="18" rx="6" ry="6" fill="#ffffff" fill-opacity="0.82" stroke="none"></rect><text x="285" y="103" font-family="Virgil, Segoe UI Emoji" font-size="11.5px" fill="#27313a" text-anchor="middle" dominant-baseline="central" style="white-space:pre">① request</text><rect x="487.2" y="253" width="127.6" height="18" rx="6" ry="6" fill="#ffffff" fill-opacity="0.82" stroke="none"></rect><text x="551" y="262" font-family="Virgil, Segoe UI Emoji" font-size="11.5px" fill="#27313a" text-anchor="middle" dominant-baseline="central" style="white-space:pre">② token-bucket check</text><rect x="517.1" y="147" width="67.8" height="18" rx="6" ry="6" fill="#ffffff" fill-opacity="0.82" stroke="none"></rect><text x="551" y="156" font-family="Virgil, Segoe UI Emoji" font-size="11.5px" fill="#27313a" text-anchor="middle" dominant-baseline="central" style="white-space:pre">load rules</text><rect x="740.12" y="96" width="79.76" height="18" rx="6" ry="6" fill="#ffffff" fill-opacity="0.82" stroke="none"></rect><text x="780" y="105" font-family="Virgil, Segoe UI Emoji" font-size="11.5px" fill="#27313a" text-anchor="middle" dominant-baseline="central" style="white-space:pre">push updates</text><rect x="225.07" y="329" width="49.86" height="18" rx="6" ry="6" fill="#ffffff" fill-opacity="0.82" stroke="none"></rect><text x="250" y="338" font-family="Virgil, Segoe UI Emoji" font-size="11.5px" fill="#27313a" text-anchor="middle" dominant-baseline="central" style="white-space:pre">③ allow</text><rect x="356.1" y="329" width="67.8" height="18" rx="6" ry="6" fill="#ffffff" fill-opacity="0.82" stroke="none"></rect><text x="390" y="338" font-family="Virgil, Segoe UI Emoji" font-size="11.5px" fill="#27313a" text-anchor="middle" dominant-baseline="central" style="white-space:pre">deny → 429</text></g>
</svg>
