<?xml version="1.0" encoding="UTF-8"?>
<svg id="diagram" viewBox="0 0 958 460" xmlns="http://www.w3.org/2000/svg" width="958" height="460"><rect x="0" y="0" width="958" height="460" fill="#ffffff"></rect><g><rect x="50" y="116" width="420" height="190" rx="14" ry="14" fill="#f8fafc" stroke="#64748b" stroke-width="1.6" stroke-dasharray="7 5"></rect><rect x="64" y="93" width="179.60000000000002" height="22" rx="7" ry="7" fill="#475569"></rect><text x="153.8" y="104" fill="#fff" font-size="11.5" font-weight="700" text-anchor="middle" dominant-baseline="central">▢ Edge (gateway + limiter)</text></g><g><path d="M285,81 L285,125" fill="none" stroke="#55606a" stroke-width="1.9" stroke-linejoin="round" stroke-linecap="round"></path><polygon points="285,125 281.12627569593405,116.32565506703307 288.8737243040659,116.32565506703307" fill="#55606a"></polygon><path d="M285,187 L285,229" fill="none" stroke="#55606a" stroke-width="1.9" stroke-linejoin="round" stroke-linecap="round"></path><polygon points="285,229 281.12627569593405,220.32565506703307 288.8737243040659,220.32565506703307" fill="#55606a"></polygon><path d="M450,262 L652,262" fill="none" stroke="#55606a" stroke-width="1.9" stroke-linejoin="round" stroke-linecap="round"></path><polygon points="652,262 643.325655067033,265.87372430406595 643.325655067033,258.12627569593405" fill="#55606a"></polygon><path d="M450,156 L652,156" fill="none" stroke="#aab2bb" stroke-width="1.6" stroke-linejoin="round" stroke-linecap="round" stroke-dasharray="6 5"></path><polygon points="652,156 643.325655067033,159.87372430406592 643.325655067033,152.12627569593408" fill="#aab2bb"></polygon><path d="M780,84 L780,126" fill="none" stroke="#aab2bb" stroke-width="1.6" stroke-linejoin="round" stroke-linecap="round" stroke-dasharray="6 5"></path><polygon points="780,126 776.126275695934,117.32565506703307 783.873724304066,117.32565506703307" fill="#aab2bb"></polygon><path d="M285,295 L285,338 L215,338 L215,371" fill="none" stroke="#55606a" stroke-width="1.9" stroke-linejoin="round" stroke-linecap="round"></path><polygon points="215,371 211.12627569593408,362.3256550670331 218.87372430406592,362.3256550670331" fill="#55606a"></polygon><path d="M285,295 L285,338 L495,338 L495,371" fill="none" stroke="#55606a" stroke-width="1.9" stroke-linejoin="round" stroke-linecap="round"></path><polygon points="495,371 491.12627569593405,362.3256550670331 498.8737243040659,362.3256550670331" fill="#55606a"></polygon></g><g><rect x="180" y="31" width="210" height="50" rx="9" ry="9" fill="#fff" stroke="#6c757d" stroke-width="1.7" filter="url(#sh)"></rect><path d="M180,54 V40 Q180,31 189,31 H381 Q390,31 390,40 V54 Z" fill="#6c757d"></path><text x="285" y="43" fill="#fff" font-weight="700" font-size="12.5" text-anchor="middle" dominant-baseline="central">Clients</text><text x="285" y="67.5" fill="#3c454d" font-size="10.8" text-anchor="middle" dominant-baseline="central">apps · services · browsers</text><rect x="120" y="125" width="330" height="62" rx="9" ry="9" fill="#fff" stroke="#4338ca" stroke-width="1.7" filter="url(#sh)"></rect><path d="M120,151 V134 Q120,125 129,125 H441 Q450,125 450,134 V151 Z" fill="#4f46e5"></path><text x="285" y="138.5" fill="#fff" font-weight="700" font-size="12.5" text-anchor="middle" dominant-baseline="central">API Gateway</text><text x="285" y="169" fill="#3c454d" font-size="10.8" text-anchor="middle" dominant-baseline="central">limiter middleware · inline</text><rect x="120" y="229" width="330" height="66" rx="9" ry="9" fill="#fff" stroke="#0F5BB5" stroke-width="1.7" filter="url(#sh)"></rect><path d="M120,255 V238 Q120,229 129,229 H441 Q450,229 450,238 V255 Z" fill="#0078D4"></path><text x="285" y="242.5" fill="#fff" font-weight="700" font-size="12.5" text-anchor="middle" dominant-baseline="central">Rate Limiter</text><text x="285" y="275" fill="#3c454d" font-size="10.8" text-anchor="middle" dominant-baseline="central">token-bucket (Lua, atomic)</text><rect x="660" y="32" width="240" height="52" rx="9" ry="9" fill="#fff" stroke="#0F5BB5" stroke-width="1.7" filter="url(#sh)"></rect><path d="M660,55.92 V41 Q660,32 669,32 H891 Q900,32 900,41 V55.92 Z" fill="#0078D4"></path><text x="780" y="44.46" fill="#fff" font-weight="700" font-size="12.5" text-anchor="middle" dominant-baseline="central">Config Service</text><text x="780" y="69.96000000000001" fill="#3c454d" font-size="10.8" text-anchor="middle" dominant-baseline="central">push rule updates</text><rect x="652" y="126" width="256" height="60" rx="9" ry="9" fill="#fff" stroke="#0A6E80" stroke-width="1.7" filter="url(#sh)"></rect><path d="M652,152 V135 Q652,126 661,126 H899 Q908,126 908,135 V152 Z" fill="#0C8599"></path><text x="780" y="139.5" fill="#fff" font-weight="700" font-size="12.5" text-anchor="middle" dominant-baseline="central">Rules / Config Store</text><text x="780" y="169" fill="#3c454d" font-size="10.8" text-anchor="middle" dominant-baseline="central">limits per (user, route)</text><rect x="652" y="229" width="256" height="66" rx="9" ry="9" fill="#fff" stroke="#0A6E80" stroke-width="1.7" filter="url(#sh)"></rect><path d="M652,255 V238 Q652,229 661,229 H899 Q908,229 908,238 V255 Z" fill="#0C8599"></path><text x="780" y="242.5" fill="#fff" font-weight="700" font-size="12.5" text-anchor="middle" dominant-baseline="central">Redis</text><text x="780" y="275" fill="#3c454d" font-size="10.8" text-anchor="middle" dominant-baseline="central">centralized counters · atomic Lua</text><rect x="95" y="371" width="240" height="58" rx="9" ry="9" fill="#fff" stroke="#0F5BB5" stroke-width="1.7" filter="url(#sh)"></rect><path d="M95,397 V380 Q95,371 104,371 H326 Q335,371 335,380 V397 Z" fill="#0078D4"></path><text x="215" y="384.5" fill="#fff" font-weight="700" font-size="12.5" text-anchor="middle" dominant-baseline="central">Upstream Services</text><text x="215" y="413" fill="#3c454d" font-size="10.8" text-anchor="middle" dominant-baseline="central">routed only when allowed</text><rect x="385" y="371" width="220" height="58" rx="9" ry="9" fill="#fff" stroke="#6c757d" stroke-width="1.7" filter="url(#sh)"></rect><path d="M385,397 V380 Q385,371 394,371 H596 Q605,371 605,380 V397 Z" fill="#6c757d"></path><text x="495" y="384.5" fill="#fff" font-weight="700" font-size="12.5" text-anchor="middle" dominant-baseline="central">429 Too Many Requests</text><text x="495" y="413" fill="#3c454d" font-size="10.8" text-anchor="middle" dominant-baseline="central">Retry-After · no backend hit</text></g><g><rect x="250.55" y="94" width="68.9" height="18" rx="9" ry="9" fill="#ffffff" stroke="#dde2e7" stroke-width="1"></rect><text x="285" y="103.5" fill="#27313a" font-size="10.8" font-weight="600" text-anchor="middle" dominant-baseline="central">① request</text><rect x="483" y="253" width="136" height="18" rx="9" ry="9" fill="#ffffff" stroke="#dde2e7" stroke-width="1"></rect><text x="551" y="262.5" fill="#27313a" font-size="10.8" font-weight="600" text-anchor="middle" dominant-baseline="central">② token-bucket check</text><rect x="513.5" y="147" width="75" height="18" rx="9" ry="9" fill="#ffffff" stroke="#dde2e7" stroke-width="1"></rect><text x="551" y="156.5" fill="#27313a" font-size="10.8" font-weight="600" text-anchor="middle" dominant-baseline="central">load rules</text><rect x="736.4" y="96" width="87.19999999999999" height="18" rx="9" ry="9" fill="#ffffff" stroke="#dde2e7" stroke-width="1"></rect><text x="780" y="105.5" fill="#27313a" font-size="10.8" font-weight="600" text-anchor="middle" dominant-baseline="central">push updates</text><rect x="221.65" y="329" width="56.699999999999996" height="18" rx="9" ry="9" fill="#ffffff" stroke="#dde2e7" stroke-width="1"></rect><text x="250" y="338.5" fill="#27313a" font-size="10.8" font-weight="600" text-anchor="middle" dominant-baseline="central">③ allow</text><rect x="352.5" y="329" width="75" height="18" rx="9" ry="9" fill="#ffffff" stroke="#dde2e7" stroke-width="1"></rect><text x="390" y="338.5" fill="#27313a" font-size="10.8" font-weight="600" text-anchor="middle" dominant-baseline="central">deny → 429</text></g><defs><filter id="sh" x="-20%" y="-20%" width="140%" height="140%"><feDropShadow dx="0" dy="1" stdDeviation="1.1" flood-color="#000" flood-opacity="0.13"></feDropShadow></filter></defs></svg>