<svg version="1.1" xmlns="http://www.w3.org/2000/svg" viewBox="0 0 1240 750" width="1240" height="750">
  <!-- svg-source:gen-whiteboards.js -->
  <defs><style class="style-fonts">
@font-face{font-family:"Virgil";src:url("https://unpkg.com/@excalidraw/excalidraw@0.17.6/dist//dist/excalidraw-assets/Virgil.woff2");}
</style></defs>
  <rect x="0" y="0" width="1240" height="750" fill="#ffffff"></rect>
  <text x="24" y="26" font-family="Virgil, Segoe UI Emoji" font-size="22px" fill="#1e1e1e" text-anchor="start" dominant-baseline="central" style="white-space:pre">Recommendation Feed — how you'd draw it live on the whiteboard</text>
  <text x="24" y="58" font-family="Virgil, Segoe UI Emoji" font-size="13px" fill="#868e96" text-anchor="start" dominant-baseline="central" style="white-space:pre">green = client   ·   grey = edge / LB   ·   blue = service   ·   red = datastore   ·   orange = queue / stream   ·   violet = 3rd-party</text>
  <g transform="translate(0 84)"><g transform="translate(20 100)"><path d="M18 0 C389.84 -0.12, 760.72 -0.45, 1142.32 -0.5 C1151.11 -0.56, 1159.86 7.38, 1160 18 C1160.05 106.02, 1159.69 192.69, 1160.03 282.14 C1160.93 292.78, 1151.91 299.25, 1142 300 C771.12 300.11, 401 299.94, 17.72 299.73 C7.8 300.41, 0.17 291.22, 0 282 C0.26 194.82, 0.45 108.64, 0.14 18.11 C-0.89 7.66, 7.41 0.01, 18 0" stroke="#495057" stroke-width="1.8" fill="none" stroke-linecap="round" stroke-dasharray="8 9"></path></g><g transform="translate(300 440)"><path d="M18 0 C292.6 0.72, 567.95 0.46, 851.59 0.47 C861.79 0.51, 870.5 8.21, 870 18 C869.23 45.48, 869.45 73.12, 870.43 102.36 C869.63 112.77, 861.17 119.87, 852 120 C576.92 120.76, 301.03 119.13, 17.73 119.57 C8.59 119.89, -0.49 112.37, 0 102 C0.17 73.69, -0.04 46.92, 0.08 17.93 C-0.58 7.27, 7.48 0.98, 18 0" stroke="#495057" stroke-width="1.8" fill="none" stroke-linecap="round" stroke-dasharray="8 9"></path></g><path d="M220 160 C253.58 158.91, 286.26 159.53, 320.46 160.46" stroke="#1e1e1e" stroke-width="1.6" fill="none" stroke-linecap="round"></path><path d="M320 160 L309.96 164.49 M320 160 L309.96 155.51" stroke="#1e1e1e" stroke-width="1.6" fill="none" stroke-linecap="round"></path><path d="M510 160 C543.16 160.56, 575.69 160.71, 609.47 159.71" stroke="#1e1e1e" stroke-width="1.6" fill="none" stroke-linecap="round"></path><path d="M610 160 L599.96 164.49 M610 160 L599.96 155.51" stroke="#1e1e1e" stroke-width="1.6" fill="none" stroke-linecap="round"></path><path d="M840 160 C870.51 159.34, 899.47 160.28, 930.23 159.93" stroke="#1e1e1e" stroke-width="1.6" fill="none" stroke-linecap="round"></path><path d="M930 160 L919.96 164.49 M930 160 L919.96 155.51" stroke="#1e1e1e" stroke-width="1.6" fill="none" stroke-linecap="round"></path><path d="M1045 130 C1044.71 113.55, 1044 97.22, 1045.37 79.94 C741.98 80.82, 440.19 78.95, 130.41 79.77 C129.84 96.94, 130.11 113.29, 130.15 130.29" stroke="#1e1e1e" stroke-width="1.6" fill="none" stroke-linecap="round"></path><path d="M130 130 L125.51 119.96 M130 130 L134.49 119.96" stroke="#1e1e1e" stroke-width="1.6" fill="none" stroke-linecap="round"></path><path d="M725 190 C724.91 232.31, 724.39 275.48, 725.18 319.67" stroke="#1e1e1e" stroke-width="1.6" fill="none" stroke-linecap="round"></path><path d="M725 320 L720.51 309.96 M725 320 L729.49 309.96" stroke="#1e1e1e" stroke-width="1.6" fill="none" stroke-linecap="round"></path><path d="M1045 190 C1044.69 233.51, 1045.66 276.29, 1044.6 319.69" stroke="#1e1e1e" stroke-width="1.6" fill="none" stroke-linecap="round"></path><path d="M1045 320 L1040.51 309.96 M1045 320 L1049.49 309.96" stroke="#1e1e1e" stroke-width="1.6" fill="none" stroke-linecap="round"></path><path d="M415 190 C414.21 269.65, 415.37 348.93, 414.49 430.42 C422.6 429.43, 428.32 429.64, 435.28 430.46 C434.25 443.54, 434.66 456.05, 434.98 470.45" stroke="#1e1e1e" stroke-width="1.6" fill="none" stroke-linecap="round"></path><path d="M435 470 L430.51 459.96 M435 470 L439.49 459.96" stroke="#1e1e1e" stroke-width="1.6" fill="none" stroke-linecap="round"></path><path d="M550 500 C573.5 498.91, 597.04 498.97, 620.15 500.15" stroke="#1e1e1e" stroke-width="1.6" fill="none" stroke-linecap="round"></path><path d="M620 500 L609.96 504.49 M620 500 L609.96 495.51" stroke="#1e1e1e" stroke-width="1.6" fill="none" stroke-linecap="round"></path><path d="M850 502 C873.15 502.15, 897.14 502.06, 919.93 501.46" stroke="#1e1e1e" stroke-width="1.6" fill="none" stroke-linecap="round"></path><path d="M920 502 L909.96 506.49 M920 502 L909.96 497.51" stroke="#1e1e1e" stroke-width="1.6" fill="none" stroke-linecap="round"></path><path d="M1035 470 C1035.21 453.68, 1035.5 436.34, 1035.3 419.78 C1090.66 420.87, 1147.57 420.01, 1205.22 419.72 C1205.8 334.68, 1205.58 247.74, 1205.17 160.36 C1191.02 160.61, 1174.91 161, 1160.34 159.62" stroke="#1e1e1e" stroke-width="1.6" fill="none" stroke-linecap="round"></path><path d="M1160 160 L1170.04 155.51 M1160 160 L1170.04 164.49" stroke="#1e1e1e" stroke-width="1.6" fill="none" stroke-linecap="round"></path><g transform="translate(40 130)"><path d="M16 0 C65.38 0.44, 113.4 0.36, 163.96 0.14 C172.98 -0.04, 180.48 6.73, 180 16 C179.92 25.6, 180.03 34.32, 179.86 43.83 C179.83 52.56, 172.52 59.86, 164 60 C115.05 60.23, 66.36 59.7, 15.85 59.96 C7.08 60.28, -0.2 52.92, 0 44 C-0.56 34.27, -0.07 25.34, 0.24 15.93 C0.02 6.95, 6.78 -0.58, 16 0 Z" stroke="none" fill="#b2f2bb"></path><path d="M16 0 C64.3 -1.36, 114.97 0.32, 164.07 0.42 C173.54 0.73, 180.01 6.66, 180 16 C180 25.23, 179.71 34.55, 180.59 44.26 C179.51 53.08, 173.44 60.31, 164 60 C113.93 58.85, 65.52 59.29, 16.14 60.58 C6.44 60.45, 1.36 51.41, 0 44 C1.28 33.68, 0.18 26.53, 0.53 15.84 C1.31 6.17, 6.7 0.38, 16 0 M16 0 C65.66 -1.3, 114.47 -0.9, 163.67 0.34 C171.74 0.98, 178.81 8.34, 180 16 C179.71 23.85, 180.92 33.76, 179.75 43.38 C179.08 52.25, 173.65 58.72, 164 60 C115.92 61.09, 66.78 60.47, 16.43 59.73 C7.12 59.1, -0.96 51.88, 0 44 C1.05 34.83, -0.69 26.21, 0.28 16.67 C0.42 7.97, 7.09 -0.28, 16 0" stroke="#2f9e44" stroke-width="1.7" fill="none" stroke-linecap="round"></path></g><text x="130" y="151" font-family="Virgil, Segoe UI Emoji" font-size="15px" fill="#1e1e1e" text-anchor="middle" dominant-baseline="central" style="white-space:pre">Client</text><text x="130" y="170" font-family="Virgil, Segoe UI Emoji" font-size="12px" fill="#495057" text-anchor="middle" dominant-baseline="central" style="white-space:pre">feed request</text><g transform="translate(320 130)"><path d="M16 0 C68.64 0.02, 120.58 0.38, 174.11 -0.21 C183.13 0.24, 189.82 6.94, 190 16 C190.35 25.79, 189.5 34.05, 190.13 43.71 C190.28 52.83, 182.86 60.05, 174 60 C121.45 60.38, 69.29 60.57, 16.21 60.1 C7.66 60.4, -0.11 53.12, 0 44 C-0.2 34.79, -0.04 26.11, -0.25 16.08 C-0.43 7.74, 6.75 0.48, 16 0 Z" stroke="none" fill="#a5d8ff"></path><path d="M16 0 C67.8 0.07, 119.35 0.29, 173.79 -0.08 C181.82 -0.1, 191.29 8.04, 190 16 C189.42 25.62, 191.24 33.89, 189.72 44.53 C189.24 51.83, 182.49 61.32, 174 60 C121.72 59.05, 70.82 60.54, 16.5 59.37 C8.07 61.23, 0.78 54.06, 0 44 C-0.99 35.64, -1.08 24.62, 0.05 16.6 C0.75 7.12, 8.26 -0.16, 16 0 M16 0 C68.29 -0.43, 120.78 -0.63, 173.96 0.31 C183.25 -0.69, 189.41 7.97, 190 16 C190.27 24.04, 191.11 33.56, 189.48 43.73 C189.7 51.6, 182.42 58.98, 174 60 C121.46 61.33, 71 59.61, 16.05 60.11 C6.59 59.04, 1.15 52.62, 0 44 C-0.64 35.44, -1.15 24.74, -0.6 16.38 C0.27 6.93, 7.17 0.62, 16 0" stroke="#1971c2" stroke-width="1.7" fill="none" stroke-linecap="round"></path></g><text x="415" y="151" font-family="Virgil, Segoe UI Emoji" font-size="15px" fill="#1e1e1e" text-anchor="middle" dominant-baseline="central" style="white-space:pre">Feed API</text><text x="415" y="170" font-family="Virgil, Segoe UI Emoji" font-size="12px" fill="#495057" text-anchor="middle" dominant-baseline="central" style="white-space:pre">orchestration · blending</text><g transform="translate(610 130)"><path d="M16 0 C81.78 0.02, 146.25 -0.46, 213.96 0.29 C222.25 -0.58, 230.08 7.7, 230 16 C229.73 25.11, 230.3 34.72, 230.02 44.02 C229.61 53.18, 223.33 60.18, 214 60 C148.58 60.27, 83.49 59.57, 16.17 60.15 C7.3 60.01, 0.28 53.03, 0 44 C0.3 34.83, 0.44 25.93, -0.28 15.73 C0.22 7.31, 7.51 0.01, 16 0 Z" stroke="none" fill="#a5d8ff"></path><path d="M16 0 C80.2 -0.25, 146.75 0.01, 214.26 -0.08 C223.32 -0.03, 230.21 7.35, 230 16 C229.03 24.97, 230.32 35.85, 230.65 43.57 C228.97 54.03, 223.26 60.5, 214 60 C149.65 58.99, 83.91 61.03, 16.16 60.61 C7.28 60.53, -0.46 53.3, 0 44 C-0.73 33.95, -0.24 26.61, -0.5 16.25 C-1.36 6.95, 8.43 -0.81, 16 0 M16 0 C82.2 0.82, 145.68 1.39, 214.33 -0.22 C223.51 0.98, 229.68 8.2, 230 16 C230.79 24.88, 228.85 35.05, 229.35 43.37 C228.87 52.21, 221.76 60.8, 214 60 C150.02 59.33, 81.99 61.37, 16.07 60.15 C5.82 60.27, 1.04 52.01, 0 44 C-1.25 35.56, 0.86 25.11, -0.64 15.74 C0.9 7.07, 7.84 -1.12, 16 0" stroke="#1971c2" stroke-width="1.7" fill="none" stroke-linecap="round"></path></g><text x="725" y="151" font-family="Virgil, Segoe UI Emoji" font-size="15px" fill="#1e1e1e" text-anchor="middle" dominant-baseline="central" style="white-space:pre">Candidate Generation</text><text x="725" y="170" font-family="Virgil, Segoe UI Emoji" font-size="12px" fill="#495057" text-anchor="middle" dominant-baseline="central" style="white-space:pre">ANN · embeddings retrieval</text><g transform="translate(930 130)"><path d="M16 0 C81.07 0.26, 146.71 -0.4, 213.81 0.03 C222.44 0.12, 229.66 7.35, 230 16 C229.89 25.4, 230.43 34.84, 229.92 43.79 C229.5 52.8, 222.27 59.86, 214 60 C148.41 59.62, 83.24 59.76, 16.11 59.73 C6.81 59.86, -0.14 53.3, 0 44 C0.59 34.19, -0.22 26, 0.25 15.75 C-0.46 7.11, 7.05 0.32, 16 0 Z" stroke="none" fill="#a5d8ff"></path><path d="M16 0 C81.63 0.11, 145.83 1.32, 213.84 0.04 C221.73 1.24, 230.33 8.03, 230 16 C229.14 25.35, 231.39 33.81, 230.2 44.58 C231.01 51.56, 222.37 59.06, 214 60 C149.58 60.94, 82.85 60.41, 15.44 60.57 C7.63 61.4, -0.48 51.66, 0 44 C-0.29 36.08, 0.46 26.61, 0.07 16.23 C-1.18 6.79, 6.38 -1.13, 16 0 M16 0 C82.58 -0.35, 146.16 -0.27, 213.31 -0.34 C222.27 -0.52, 228.87 6.21, 230 16 C230.11 25.33, 230.68 33.74, 229.95 43.79 C230.33 53.6, 222.28 58.95, 214 60 C147.51 59, 83.93 59.14, 15.61 60.66 C7.74 61.12, -1.32 53.38, 0 44 C0.41 34.19, 0.34 25.42, 0.05 15.77 C-0.74 6.01, 8.04 -1.01, 16 0" stroke="#1971c2" stroke-width="1.7" fill="none" stroke-linecap="round"></path></g><text x="1045" y="151" font-family="Virgil, Segoe UI Emoji" font-size="15px" fill="#1e1e1e" text-anchor="middle" dominant-baseline="central" style="white-space:pre">Ranking Service</text><text x="1045" y="170" font-family="Virgil, Segoe UI Emoji" font-size="12px" fill="#495057" text-anchor="middle" dominant-baseline="central" style="white-space:pre">ML model · score &amp; sort</text><g transform="translate(610 320)"><path d="M16 0 C81.7 0.24, 147.25 -0.49, 214.05 0.07 C222.87 -0.21, 229.95 7.15, 230 16 C230.35 26.89, 229.91 36.53, 230.14 47.76 C229.73 57.09, 222.89 64.18, 214 64 C148.41 64.58, 83.27 64.54, 16.17 64.11 C7.74 64.6, 0.36 56.74, 0 48 C0.4 37.78, 0.2 27.4, 0.16 15.71 C0.47 7.02, 7.15 0, 16 0 Z" stroke="none" fill="#ffc9c9"></path><path d="M16 0 C82.22 0.91, 146.16 -1.27, 214.04 -0.14 C223.14 1.23, 229.74 7.43, 230 16 C230.6 27.52, 230.17 35.78, 230.18 47.72 C229.25 56.23, 224 63.49, 214 64 C150.02 65.3, 83.62 64.77, 15.75 63.57 C6.52 64.58, -1.26 57.97, 0 48 C0.76 38.72, -0.7 27.74, -0.34 15.66 C0.79 6.27, 7.94 -0.6, 16 0 M16 0 C80.78 -0.34, 146.53 0.16, 214.26 0.29 C223.02 1.15, 230.16 7.47, 230 16 C230.32 26.24, 231.36 37.92, 229.56 47.99 C230.87 57.17, 222.5 63.04, 214 64 C147.85 64.99, 83.41 64.3, 15.48 64.06 C6.58 64.67, 0.92 57.24, 0 48 C-0.23 38.25, 1.08 26.89, -0.13 15.78 C1.24 8.23, 5.93 0.61, 16 0" stroke="#e03131" stroke-width="1.7" fill="none" stroke-linecap="round"></path></g><text x="725" y="343" font-family="Virgil, Segoe UI Emoji" font-size="15px" fill="#1e1e1e" text-anchor="middle" dominant-baseline="central" style="white-space:pre">Embedding / ANN Index</text><text x="725" y="362" font-family="Virgil, Segoe UI Emoji" font-size="12px" fill="#495057" text-anchor="middle" dominant-baseline="central" style="white-space:pre">item &amp; user vectors</text><g transform="translate(930 320)"><path d="M16 0 C81.24 -0.42, 147.2 0.01, 213.9 -0.2 C223 -0.23, 230.59 7.14, 230 16 C230.4 26.43, 230 36.53, 229.95 48.27 C229.68 56.94, 222.2 64.49, 214 64 C148.58 63.84, 83.55 63.77, 15.87 63.81 C7.68 63.64, 0.56 56.86, 0 48 C-0.29 37.47, 0.48 26.43, 0.02 16.23 C0.07 7.05, 6.94 -0.43, 16 0 Z" stroke="none" fill="#ffc9c9"></path><path d="M16 0 C80.77 1.18, 146.08 1.33, 213.88 -0.31 C221.78 -0.06, 228.8 6.18, 230 16 C229.22 26.32, 229.63 37.58, 229.66 48.44 C230.96 56.93, 224.02 63.97, 214 64 C148.37 63.52, 83.35 63.66, 15.6 63.54 C8.15 62.64, 1.27 56.22, 0 48 C-0.8 36.68, 0.11 27.89, -0.61 16.03 C-0.68 7.23, 7.57 1.23, 16 0 M16 0 C80.39 -0.43, 148.06 0.11, 213.61 0.3 C223.51 -0.73, 230.76 6.18, 230 16 C229.49 25.58, 229.88 36.19, 230.34 47.53 C231.16 58.13, 222.74 63.97, 214 64 C147.45 63.35, 83.93 65.39, 16.6 63.77 C6.98 63.61, -0.8 57.26, 0 48 C0.51 38.78, 1.35 26.85, -0.65 16.5 C-0.79 7.2, 6.06 0.86, 16 0" stroke="#e03131" stroke-width="1.7" fill="none" stroke-linecap="round"></path></g><text x="1045" y="343" font-family="Virgil, Segoe UI Emoji" font-size="15px" fill="#1e1e1e" text-anchor="middle" dominant-baseline="central" style="white-space:pre">Feature Store</text><text x="1045" y="362" font-family="Virgil, Segoe UI Emoji" font-size="12px" fill="#495057" text-anchor="middle" dominant-baseline="central" style="white-space:pre">online Redis + offline</text><g transform="translate(320 470)"><path d="M16 0 C81.79 -0.57, 147.04 -0.17, 213.92 0.24 C222.24 -0.22, 230.45 7.16, 230 16 C230.23 25.8, 230.13 34.43, 230.01 43.95 C229.72 52.6, 223.08 59.47, 214 60 C148.89 60.18, 83.73 60.37, 16.04 59.8 C7.26 60.27, -0.59 53.29, 0 44 C-0.3 34.49, -0.42 24.95, -0.24 15.82 C0.59 6.91, 7.23 0.32, 16 0 Z" stroke="none" fill="#ffd8a8"></path><path d="M16 0 C82.63 -1.35, 145.84 -1.2, 214.41 -0.61 C223.54 -0.12, 229.9 6.26, 230 16 C228.92 26.11, 229.01 33.92, 230.6 43.59 C229.52 54.11, 223.51 58.92, 214 60 C148.64 60.02, 83.99 60.17, 15.7 59.53 C5.85 59.2, -0.88 53.47, 0 44 C0.21 33.39, 0.79 25.46, 0.22 15.77 C1 5.97, 7 -1.32, 16 0 M16 0 C80.63 1.23, 148.01 0.15, 214.62 0.03 C221.52 0.38, 229.85 8.02, 230 16 C230.03 24.04, 229.25 33.27, 230.57 43.85 C230.54 51.42, 223.3 59.29, 214 60 C149.87 59.23, 82.43 59.74, 15.63 60.07 C8.37 59.58, -0.14 53.8, 0 44 C1.18 35.21, -0.95 24.71, -0.32 15.49 C-0.25 6.46, 6.32 -0.94, 16 0" stroke="#e8590c" stroke-width="1.7" fill="none" stroke-linecap="round"></path></g><text x="435" y="491" font-family="Virgil, Segoe UI Emoji" font-size="15px" fill="#1e1e1e" text-anchor="middle" dominant-baseline="central" style="white-space:pre">Event Log</text><text x="435" y="510" font-family="Virgil, Segoe UI Emoji" font-size="12px" fill="#495057" text-anchor="middle" dominant-baseline="central" style="white-space:pre">Kafka · clicks &amp; impressions</text><g transform="translate(620 470)"><path d="M16 0 C81.92 0.36, 147.14 0.27, 214.27 -0.25 C223.01 -0.42, 230.43 7.1, 230 16 C229.42 26.01, 230.35 37.11, 230.01 47.94 C229.69 56.93, 222.88 63.56, 214 64 C148.1 63.89, 83.7 64.56, 16.24 64 C6.99 64.51, 0.31 56.86, 0 48 C-0.53 37.79, -0.17 26.76, 0.06 16.14 C0.42 7.42, 7.54 -0.46, 16 0 Z" stroke="none" fill="#d0bfff"></path><path d="M16 0 C80.67 -0.67, 147.66 -0.6, 213.42 0.63 C223.48 1.3, 230.07 7.94, 230 16 C229.37 26.1, 228.83 38.39, 230.31 48.62 C230.75 58.17, 221.98 64.55, 214 64 C149.86 65.09, 82.79 63.69, 15.92 64.05 C6.12 63.11, 1.23 57.53, 0 48 C1.2 36.34, 1.08 26.04, -0.12 16.44 C1.15 6.29, 7.65 -0.96, 16 0 M16 0 C82.38 -1.04, 146.54 -0.35, 214.14 0.51 C223.63 0.06, 229.2 6.11, 230 16 C230.63 25.95, 230.82 37.16, 230.1 48.01 C231.28 55.63, 222.65 64.08, 214 64 C149.98 64.68, 82.6 62.81, 16.65 64.51 C8.2 63.89, -1.09 56.32, 0 48 C-1.27 38.34, -0.61 26.14, -0.03 15.87 C-0.85 7.81, 5.91 0.94, 16 0" stroke="#7048e8" stroke-width="1.7" fill="none" stroke-linecap="round"></path></g><text x="735" y="493" font-family="Virgil, Segoe UI Emoji" font-size="15px" fill="#1e1e1e" text-anchor="middle" dominant-baseline="central" style="white-space:pre">Training Pipeline</text><text x="735" y="512" font-family="Virgil, Segoe UI Emoji" font-size="12px" fill="#495057" text-anchor="middle" dominant-baseline="central" style="white-space:pre">Spark · offline batch</text><g transform="translate(920 470)"><path d="M16 0 C80.87 0.56, 147.26 0.46, 214.24 -0.06 C222.39 0.32, 230.2 6.61, 230 16 C230.43 25.96, 229.76 36.9, 229.72 48.04 C229.78 57.38, 222.91 64.33, 214 64 C149.03 63.82, 83.02 64.11, 15.88 64.1 C7.34 64.24, -0.08 56.77, 0 48 C-0.6 36.97, -0.22 26.72, -0.15 16.24 C-0.03 7.39, 6.78 0.51, 16 0 Z" stroke="none" fill="#ffc9c9"></path><path d="M16 0 C80.56 0.89, 147.53 -0.33, 213.33 0.4 C222.47 -1.31, 230.08 7.34, 230 16 C230.15 25.36, 228.7 38.18, 229.33 48.37 C229.98 55.43, 223.75 63.74, 214 64 C149.96 63.72, 84.64 63.01, 15.45 63.47 C6.86 64.84, -0.61 56.09, 0 48 C-0.13 38.45, -0.59 25.66, 0.01 16.24 C0.2 8.54, 8.18 0.26, 16 0 M16 0 C80.42 -0.28, 145.47 0.81, 213.48 -0.25 C222.37 0.99, 230.37 8.25, 230 16 C230.02 27.83, 229.35 35.94, 229.77 47.33 C229.4 57.63, 223.33 64.98, 214 64 C148.05 63.98, 82.61 65.08, 16.52 64.3 C8.18 63.88, -0.06 56.07, 0 48 C0.23 37.38, -0.26 27.09, 0.39 15.55 C-0.64 6.7, 8.06 -0.14, 16 0" stroke="#e03131" stroke-width="1.7" fill="none" stroke-linecap="round"></path></g><text x="1035" y="493" font-family="Virgil, Segoe UI Emoji" font-size="15px" fill="#1e1e1e" text-anchor="middle" dominant-baseline="central" style="white-space:pre">Model Store</text><text x="1035" y="512" font-family="Virgil, Segoe UI Emoji" font-size="12px" fill="#495057" text-anchor="middle" dominant-baseline="central" style="white-space:pre">versioned artifacts</text><rect x="33" y="91" width="114" height="18" fill="#ffffff" stroke="none"></rect><text x="38" y="100" font-family="Virgil, Segoe UI Emoji" font-size="12.5px" fill="#495057" text-anchor="start" dominant-baseline="central" style="white-space:pre">Serving (online)</text><rect x="313" y="431" width="179" height="18" fill="#ffffff" stroke="none"></rect><text x="318" y="440" font-family="Virgil, Segoe UI Emoji" font-size="12.5px" fill="#495057" text-anchor="start" dominant-baseline="central" style="white-space:pre">Training (offline · async)</text><rect x="239.09" y="150.5" width="61.82" height="18" rx="6" ry="6" fill="#ffffff" fill-opacity="0.82" stroke="none"></rect><text x="270" y="159.5" font-family="Virgil, Segoe UI Emoji" font-size="11.5px" fill="#27313a" text-anchor="middle" dominant-baseline="central" style="white-space:pre">① request</text><rect x="520.12" y="150.5" width="79.76" height="18" rx="6" ry="6" fill="#ffffff" fill-opacity="0.82" stroke="none"></rect><text x="560" y="159.5" font-family="Virgil, Segoe UI Emoji" font-size="11.5px" fill="#27313a" text-anchor="middle" dominant-baseline="central" style="white-space:pre">② candidates</text><rect x="863.06" y="150.5" width="43.88" height="18" rx="6" ry="6" fill="#ffffff" fill-opacity="0.82" stroke="none"></rect><text x="885" y="159.5" font-family="Virgil, Segoe UI Emoji" font-size="11.5px" fill="#27313a" text-anchor="middle" dominant-baseline="central" style="white-space:pre">③ rank</text><rect x="559.13" y="70.5" width="85.74" height="18" rx="6" ry="6" fill="#ffffff" fill-opacity="0.82" stroke="none"></rect><text x="602" y="79.5" font-family="Virgil, Segoe UI Emoji" font-size="11.5px" fill="#27313a" text-anchor="middle" dominant-baseline="central" style="white-space:pre">④ return feed</text><rect x="691.1" y="245.5" width="67.8" height="18" rx="6" ry="6" fill="#ffffff" fill-opacity="0.82" stroke="none"></rect><text x="725" y="254.5" font-family="Virgil, Segoe UI Emoji" font-size="11.5px" fill="#27313a" text-anchor="middle" dominant-baseline="central" style="white-space:pre">ANN lookup</text><rect x="1017.08" y="245.5" width="55.84" height="18" rx="6" ry="6" fill="#ffffff" fill-opacity="0.82" stroke="none"></rect><text x="1045" y="254.5" font-family="Virgil, Segoe UI Emoji" font-size="11.5px" fill="#27313a" text-anchor="middle" dominant-baseline="central" style="white-space:pre">features</text><rect x="401.1" y="440.5" width="67.8" height="18" rx="6" ry="6" fill="#ffffff" fill-opacity="0.82" stroke="none"></rect><text x="435" y="449.5" font-family="Virgil, Segoe UI Emoji" font-size="11.5px" fill="#27313a" text-anchor="middle" dominant-baseline="central" style="white-space:pre">log events</text><rect x="560.07" y="490.5" width="49.86" height="18" rx="6" ry="6" fill="#ffffff" fill-opacity="0.82" stroke="none"></rect><text x="585" y="499.5" font-family="Virgil, Segoe UI Emoji" font-size="11.5px" fill="#27313a" text-anchor="middle" dominant-baseline="central" style="white-space:pre">consume</text><rect x="866.05" y="492.5" width="37.9" height="18" rx="6" ry="6" fill="#ffffff" fill-opacity="0.82" stroke="none"></rect><text x="885" y="501.5" font-family="Virgil, Segoe UI Emoji" font-size="11.5px" fill="#27313a" text-anchor="middle" dominant-baseline="central" style="white-space:pre">train</text><rect x="1165.12" y="290.5" width="79.76" height="18" rx="6" ry="6" fill="#ffffff" fill-opacity="0.82" stroke="none"></rect><text x="1205" y="299.5" font-family="Virgil, Segoe UI Emoji" font-size="11.5px" fill="#27313a" text-anchor="middle" dominant-baseline="central" style="white-space:pre">deploy model</text></g>
</svg>
