<?xml version="1.0" encoding="UTF-8"?>
<svg data-enhanced="1" id="diagram" viewBox="0 0 1240 666" xmlns="http://www.w3.org/2000/svg" width="1240" height="666"><title>Recommendation Feed — high-level architecture (HLD)</title><desc>High-level architecture diagram. Rounded boxes are stateless services or datastores; solid arrows mark the critical/synchronous request path and dashed arrows mark asynchronous or secondary flows; dashed rounded containers group a service boundary. Colour denotes role: blue = service, teal = datastore, orange = queue/stream, green = external/3rd-party, indigo = gateway/load balancer.</desc><style>@media (prefers-color-scheme:dark){.dgm-bg{fill:#0b1220}rect[fill="#fff"]{fill:#1f2937}rect[fill="#ffffff"]:not(.dgm-bg):not(.dgm-leg){fill:#1f2937}rect[fill="#f8fafc"]{fill:#111827}[fill="#3c454d"]{fill:#cbd5e1}[fill="#27313a"]{fill:#e5e7eb}path[stroke="#55606a"]{stroke:#94a3b8}polygon[fill="#55606a"]{fill:#94a3b8}[stroke="#dde2e7"]{stroke:#3b4657}}</style><rect class="dgm-bg" x="0" y="0" width="1240" height="666" fill="#ffffff"></rect><g><rect x="20" y="100" width="1160" height="300" rx="14" ry="14" fill="#f8fafc" stroke="#64748b" stroke-width="1.6" stroke-dasharray="7 5"></rect><rect x="34" y="77" width="124.2" height="22" rx="7" ry="7" fill="#475569"></rect><text x="96.1" y="88" fill="#fff" font-size="11.5" font-weight="700" text-anchor="middle" dominant-baseline="central">▢ Serving (online)</text><rect x="300" y="440" width="870" height="120" rx="14" ry="14" fill="#f8fafc" stroke="#64748b" stroke-width="1.6" stroke-dasharray="7 5"></rect><rect x="314" y="417" width="193.2" height="22" rx="7" ry="7" fill="#475569"></rect><text x="410.6" y="428" fill="#fff" font-size="11.5" font-weight="700" text-anchor="middle" dominant-baseline="central">▢ Training (offline · async)</text></g><g><path d="M220,160 L320,160" fill="none" stroke="#55606a" stroke-width="1.9" stroke-linejoin="round" stroke-linecap="round"></path><polygon points="320,160 311.326,163.874 311.326,156.126" fill="#55606a"></polygon><path d="M510,160 L610,160" fill="none" stroke="#55606a" stroke-width="1.9" stroke-linejoin="round" stroke-linecap="round"></path><polygon points="610,160 601.326,163.874 601.326,156.126" fill="#55606a"></polygon><path d="M840,160 L930,160" fill="none" stroke="#55606a" stroke-width="1.9" stroke-linejoin="round" stroke-linecap="round"></path><polygon points="930,160 921.326,163.874 921.326,156.126" fill="#55606a"></polygon><path d="M1045,130 L1045,80 L130,80 L130,130" fill="none" stroke="#55606a" stroke-width="1.9" stroke-linejoin="round" stroke-linecap="round"></path><polygon points="130,130 126.126,121.326 133.874,121.326" fill="#55606a"></polygon><path d="M725,190 L725,320" fill="none" stroke="#55606a" stroke-width="1.9" stroke-linejoin="round" stroke-linecap="round"></path><polygon points="725,320 721.126,311.326 728.874,311.326" fill="#55606a"></polygon><path d="M1045,190 L1045,320" fill="none" stroke="#55606a" stroke-width="1.9" stroke-linejoin="round" stroke-linecap="round"></path><polygon points="1045,320 1041.126,311.326 1048.874,311.326" fill="#55606a"></polygon><path d="M415,190 L415,430 L435,430 L435,470" fill="none" stroke="#aab2bb" stroke-width="1.6" stroke-linejoin="round" stroke-linecap="round" stroke-dasharray="6 5"></path><polygon points="435,470 431.126,461.326 438.874,461.326" fill="#aab2bb"></polygon><path d="M550,500 L620,500" fill="none" stroke="#aab2bb" stroke-width="1.6" stroke-linejoin="round" stroke-linecap="round" stroke-dasharray="6 5"></path><polygon points="620,500 611.326,503.874 611.326,496.126" fill="#aab2bb"></polygon><path d="M850,502 L920,502" fill="none" stroke="#aab2bb" stroke-width="1.6" stroke-linejoin="round" stroke-linecap="round" stroke-dasharray="6 5"></path><polygon points="920,502 911.326,505.874 911.326,498.126" fill="#aab2bb"></polygon><path d="M1035,470 L1035,420 L1205,420 L1205,160 L1160,160" fill="none" stroke="#aab2bb" stroke-width="1.6" stroke-linejoin="round" stroke-linecap="round" stroke-dasharray="6 5"></path><polygon points="1160,160 1168.674,163.874 1168.674,156.126" fill="#aab2bb"></polygon></g><g><rect x="40" y="130" width="180" height="60" rx="9" ry="9" fill="#fff" stroke="#6c757d" stroke-width="1.7" filter="url(#sh)"></rect><path d="M40,156 V139 Q40,130 49,130 H211 Q220,130 220,139 V156 Z" fill="#6c757d"></path><text x="130" y="143.5" fill="#fff" font-weight="700" font-size="12.5" text-anchor="middle" dominant-baseline="central">Client</text><text x="130" y="173" fill="#3c454d" font-size="10.8" text-anchor="middle" dominant-baseline="central">feed request</text><rect x="320" y="130" width="190" height="60" rx="9" ry="9" fill="#fff" stroke="#0F5BB5" stroke-width="1.7" filter="url(#sh)"></rect><path d="M320,156 V139 Q320,130 329,130 H501 Q510,130 510,139 V156 Z" fill="#0078D4"></path><text x="415" y="143.5" fill="#fff" font-weight="700" font-size="12.5" text-anchor="middle" dominant-baseline="central">Feed API</text><text x="415" y="173" fill="#3c454d" font-size="10.8" text-anchor="middle" dominant-baseline="central">orchestration · blending</text><rect x="610" y="130" width="230" height="60" rx="9" ry="9" fill="#fff" stroke="#0F5BB5" stroke-width="1.7" filter="url(#sh)"></rect><path d="M610,156 V139 Q610,130 619,130 H831 Q840,130 840,139 V156 Z" fill="#0078D4"></path><text x="725" y="143.5" fill="#fff" font-weight="700" font-size="12.5" text-anchor="middle" dominant-baseline="central">Candidate Generation</text><text x="725" y="173" fill="#3c454d" font-size="10.8" text-anchor="middle" dominant-baseline="central">ANN · embeddings retrieval</text><rect x="930" y="130" width="230" height="60" rx="9" ry="9" fill="#fff" stroke="#0F5BB5" stroke-width="1.7" filter="url(#sh)"></rect><path d="M930,156 V139 Q930,130 939,130 H1151 Q1160,130 1160,139 V156 Z" fill="#0078D4"></path><text x="1045" y="143.5" fill="#fff" font-weight="700" font-size="12.5" text-anchor="middle" dominant-baseline="central">Ranking Service</text><text x="1045" y="173" fill="#3c454d" font-size="10.8" text-anchor="middle" dominant-baseline="central">ML model · score &amp; sort</text><rect x="610" y="320" width="230" height="64" rx="9" ry="9" fill="#fff" stroke="#0A6E80" stroke-width="1.7" filter="url(#sh)"></rect><path d="M610,346 V329 Q610,320 619,320 H831 Q840,320 840,329 V346 Z" fill="#0C8599"></path><text x="725" y="333.5" fill="#fff" font-weight="700" font-size="12.5" text-anchor="middle" dominant-baseline="central">Embedding / ANN Index</text><text x="725" y="365" fill="#3c454d" font-size="10.8" text-anchor="middle" dominant-baseline="central">item &amp; user vectors</text><rect x="930" y="320" width="230" height="64" rx="9" ry="9" fill="#fff" stroke="#0A6E80" stroke-width="1.7" filter="url(#sh)"></rect><path d="M930,346 V329 Q930,320 939,320 H1151 Q1160,320 1160,329 V346 Z" fill="#0C8599"></path><text x="1045" y="333.5" fill="#fff" font-weight="700" font-size="12.5" text-anchor="middle" dominant-baseline="central">Feature Store</text><text x="1045" y="365" fill="#3c454d" font-size="10.8" text-anchor="middle" dominant-baseline="central">online Redis + offline</text><rect x="320" y="470" width="230" height="60" rx="9" ry="9" fill="#fff" stroke="#C8590B" stroke-width="1.7" filter="url(#sh)"></rect><path d="M320,496 V479 Q320,470 329,470 H541 Q550,470 550,479 V496 Z" fill="#F7630C"></path><text x="435" y="483.5" fill="#fff" font-weight="700" font-size="12.5" text-anchor="middle" dominant-baseline="central">Event Log</text><text x="435" y="513" fill="#3c454d" font-size="10.8" text-anchor="middle" dominant-baseline="central">Kafka · clicks &amp; impressions</text><rect x="620" y="470" width="230" height="64" rx="9" ry="9" fill="#fff" stroke="#1F7A33" stroke-width="1.7" filter="url(#sh)"></rect><path d="M620,496 V479 Q620,470 629,470 H841 Q850,470 850,479 V496 Z" fill="#2f9e44"></path><text x="735" y="483.5" fill="#fff" font-weight="700" font-size="12.5" text-anchor="middle" dominant-baseline="central">Training Pipeline</text><text x="735" y="515" fill="#3c454d" font-size="10.8" text-anchor="middle" dominant-baseline="central">Spark · offline batch</text><rect x="920" y="470" width="230" height="64" rx="9" ry="9" fill="#fff" stroke="#0A6E80" stroke-width="1.7" filter="url(#sh)"></rect><path d="M920,496 V479 Q920,470 929,470 H1141 Q1150,470 1150,479 V496 Z" fill="#0C8599"></path><text x="1035" y="483.5" fill="#fff" font-weight="700" font-size="12.5" text-anchor="middle" dominant-baseline="central">Model Store</text><text x="1035" y="515" fill="#3c454d" font-size="10.8" text-anchor="middle" dominant-baseline="central">versioned artifacts</text></g><g><rect x="235.3" y="150.5" width="69.4" height="18" rx="9" ry="9" fill="#ffffff" stroke="#dde2e7" stroke-width="1"></rect><text x="270" y="160" fill="#27313a" font-size="10.8" font-weight="600" text-anchor="middle" dominant-baseline="central">① request</text><rect x="515.4" y="150.5" width="89.2" height="18" rx="9" ry="9" fill="#ffffff" stroke="#dde2e7" stroke-width="1"></rect><text x="560" y="160" fill="#27313a" font-size="10.8" font-weight="600" text-anchor="middle" dominant-baseline="central">② candidates</text><rect x="860.2" y="150.5" width="49.6" height="18" rx="9" ry="9" fill="#ffffff" stroke="#dde2e7" stroke-width="1"></rect><text x="885" y="160" fill="#27313a" font-size="10.8" font-weight="600" text-anchor="middle" dominant-baseline="central">③ rank</text><rect x="554.1" y="70.5" width="95.8" height="18" rx="9" ry="9" fill="#ffffff" stroke="#dde2e7" stroke-width="1"></rect><text x="602" y="80" fill="#27313a" font-size="10.8" font-weight="600" text-anchor="middle" dominant-baseline="central">④ return feed</text><rect x="687" y="245.5" width="76" height="18" rx="9" ry="9" fill="#ffffff" stroke="#dde2e7" stroke-width="1"></rect><text x="725" y="255" fill="#27313a" font-size="10.8" font-weight="600" text-anchor="middle" dominant-baseline="central">ANN lookup</text><rect x="1013.6" y="245.5" width="62.8" height="18" rx="9" ry="9" fill="#ffffff" stroke="#dde2e7" stroke-width="1"></rect><text x="1045" y="255" fill="#27313a" font-size="10.8" font-weight="600" text-anchor="middle" dominant-baseline="central">features</text><rect x="397" y="440.5" width="76" height="18" rx="9" ry="9" fill="#ffffff" stroke="#dde2e7" stroke-width="1"></rect><text x="435" y="450" fill="#27313a" font-size="10.8" font-weight="600" text-anchor="middle" dominant-baseline="central">log events</text><rect x="556.9" y="490.5" width="56.2" height="18" rx="9" ry="9" fill="#ffffff" stroke="#dde2e7" stroke-width="1"></rect><text x="585" y="500" fill="#27313a" font-size="10.8" font-weight="600" text-anchor="middle" dominant-baseline="central">consume</text><rect x="863.5" y="492.5" width="43" height="18" rx="9" ry="9" fill="#ffffff" stroke="#dde2e7" stroke-width="1"></rect><text x="885" y="502" fill="#27313a" font-size="10.8" font-weight="600" text-anchor="middle" dominant-baseline="central">train</text><rect x="1160.4" y="290.5" width="89.2" height="18" rx="9" ry="9" fill="#ffffff" stroke="#dde2e7" stroke-width="1"></rect><text x="1205" y="300" fill="#27313a" font-size="10.8" font-weight="600" text-anchor="middle" dominant-baseline="central">deploy model</text></g><defs><filter id="sh" x="-20%" y="-20%" width="140%" height="140%"><feDropShadow dx="0" dy="1" stdDeviation="1.1" flood-color="#000" flood-opacity="0.13"></feDropShadow></filter></defs><g class="dgm-legend"><path d="M16,626 L1224,626" stroke="#dde2e7" stroke-width="1" fill="none"></path><rect class="dgm-leg" x="24" y="639" width="13" height="13" rx="3" ry="3" fill="#0078D4"></rect><text x="43" y="645" fill="#27313a" font-size="10.5" font-weight="600" dominant-baseline="central">service</text><rect class="dgm-leg" x="196.57142857142858" y="639" width="13" height="13" rx="3" ry="3" fill="#0C8599"></rect><text x="215.57142857142858" y="645" fill="#27313a" font-size="10.5" font-weight="600" dominant-baseline="central">datastore</text><rect class="dgm-leg" x="369.14285714285717" y="639" width="13" height="13" rx="3" ry="3" fill="#F7630C"></rect><text x="388.14285714285717" y="645" fill="#27313a" font-size="10.5" font-weight="600" dominant-baseline="central">queue</text><rect class="dgm-leg" x="541.7142857142858" y="639" width="13" height="13" rx="3" ry="3" fill="#2f9e44"></rect><text x="560.7142857142858" y="645" fill="#27313a" font-size="10.5" font-weight="600" dominant-baseline="central">external</text><rect class="dgm-leg" x="714.2857142857143" y="639" width="13" height="13" rx="3" ry="3" fill="#4f46e5"></rect><text x="733.2857142857143" y="645" fill="#27313a" font-size="10.5" font-weight="600" dominant-baseline="central">gateway</text><path d="M886.8571428571429,645 L908.8571428571429,645" stroke="#55606a" stroke-width="1.9" fill="none"></path><polygon points="908.8571428571429,645 902.8571428571429,642 902.8571428571429,648" fill="#55606a"></polygon><text x="914.8571428571429" y="645" fill="#27313a" font-size="10.5" font-weight="600" dominant-baseline="central">sync</text><path d="M1059.4285714285716,645 L1081.4285714285716,645" stroke="#aab2bb" stroke-width="1.6" stroke-dasharray="6 5" fill="none"></path><polygon points="1081.4285714285716,645 1075.4285714285716,642 1075.4285714285716,648" fill="#aab2bb"></polygon><text x="1087.4285714285716" y="645" fill="#27313a" font-size="10.5" font-weight="600" dominant-baseline="central">async</text></g></svg>