<?xml version="1.0" encoding="UTF-8"?>
<svg id="diagram" viewBox="0 0 1200 780" xmlns="http://www.w3.org/2000/svg" width="1200" height="780"><rect x="0" y="0" width="1200" height="780" fill="#ffffff"></rect><g><rect x="58" y="230" width="324" height="88" rx="14" ry="14" fill="#f8fafc" stroke="#64748b" stroke-width="1.6" stroke-dasharray="7 5"></rect><rect x="72" y="207" width="166.8" height="22" rx="7" ry="7" fill="#475569"></rect><text x="155.4" y="218" fill="#fff" font-size="11.5" font-weight="700" text-anchor="middle" dominant-baseline="central">▢ Location &amp; Geo Service</text><rect x="410" y="230" width="400" height="88" rx="14" ry="14" fill="#f8fafc" stroke="#64748b" stroke-width="1.6" stroke-dasharray="7 5"></rect><rect x="424" y="207" width="128.4" height="22" rx="7" ry="7" fill="#475569"></rect><text x="488.2" y="218" fill="#fff" font-size="11.5" font-weight="700" text-anchor="middle" dominant-baseline="central">▢ Matching Service</text><rect x="436" y="392" width="348" height="88" rx="14" ry="14" fill="#f8fafc" stroke="#64748b" stroke-width="1.6" stroke-dasharray="7 5"></rect><rect x="450" y="369" width="102.80000000000001" height="22" rx="7" ry="7" fill="#475569"></rect><text x="501.4" y="380" fill="#fff" font-size="11.5" font-weight="700" text-anchor="middle" dominant-baseline="central">▢ Trip Service</text></g><g><path d="M250,96 L300,96 L300,132 L480,132" fill="none" stroke="#55606a" stroke-width="1.9" stroke-linejoin="round" stroke-linecap="round"></path><polygon points="480,132 471.3256550670331,135.87372430406592 471.3256550670331,128.12627569593408" fill="#55606a"></polygon><path d="M480,132 L410,132 L410,96 L250,96" fill="none" stroke="#55606a" stroke-width="1.9" stroke-linejoin="round" stroke-linecap="round"></path><polygon points="250,96 258.6743449329669,92.12627569593408 258.6743449329669,99.87372430406592" fill="#55606a"></polygon><path d="M660,164 L660,236 L220,236 L220,240" fill="none" stroke="#55606a" stroke-width="1.9" stroke-linejoin="round" stroke-linecap="round"></path><polygon points="220,240 216.12627569593408,231.32565506703307 223.87372430406592,231.32565506703307" fill="#55606a"></polygon><path d="M660,164 L660,216 L610,216 L610,240" fill="none" stroke="#55606a" stroke-width="1.9" stroke-linejoin="round" stroke-linecap="round"></path><polygon points="610,240 606.126275695934,231.32565506703307 613.873724304066,231.32565506703307" fill="#55606a"></polygon><path d="M220,304 L220,376" fill="none" stroke="#55606a" stroke-width="1.9" stroke-linejoin="round" stroke-linecap="round"></path><polygon points="220,376 216.12627569593408,367.3256550670331 223.87372430406592,367.3256550670331" fill="#55606a"></polygon><path d="M424,272 L398,272 L398,408 L370,408" fill="none" stroke="#aab2bb" stroke-width="1.6" stroke-linejoin="round" stroke-linecap="round" stroke-dasharray="6 5"></path><polygon points="370,408 378.6743449329669,404.12627569593405 378.6743449329669,411.8737243040659" fill="#aab2bb"></polygon><path d="M796,272 L877,272" fill="none" stroke="#55606a" stroke-width="1.9" stroke-linejoin="round" stroke-linecap="round"></path><polygon points="877,272 868.325655067033,275.87372430406595 868.325655067033,268.12627569593405" fill="#55606a"></polygon><path d="M610,304 L610,398" fill="none" stroke="#55606a" stroke-width="1.9" stroke-linejoin="round" stroke-linecap="round"></path><polygon points="610,398 606.126275695934,389.3256550670331 613.873724304066,389.3256550670331" fill="#55606a"></polygon><path d="M770,430 L877,430" fill="none" stroke="#aab2bb" stroke-width="1.6" stroke-linejoin="round" stroke-linecap="round" stroke-dasharray="6 5"></path><polygon points="877,430 868.325655067033,433.87372430406595 868.325655067033,426.12627569593405" fill="#aab2bb"></polygon><path d="M220,440 L220,506" fill="none" stroke="#aab2bb" stroke-width="1.6" stroke-linejoin="round" stroke-linecap="round" stroke-dasharray="6 5"></path><polygon points="220,506 216.12627569593408,497.3256550670331 223.87372430406592,497.3256550670331" fill="#aab2bb"></polygon><path d="M610,462 L610,535" fill="none" stroke="#55606a" stroke-width="1.9" stroke-linejoin="round" stroke-linecap="round"></path><polygon points="610,535 606.126275695934,526.325655067033 613.873724304066,526.325655067033" fill="#55606a"></polygon><path d="M610,589 L610,653" fill="none" stroke="#55606a" stroke-width="1.9" stroke-linejoin="round" stroke-linecap="round"></path><polygon points="610,653 606.126275695934,644.325655067033 613.873724304066,644.325655067033" fill="#55606a"></polygon></g><g><rect x="50" y="61" width="200" height="70" rx="9" ry="9" fill="#fff" stroke="#6c757d" stroke-width="1.7" filter="url(#sh)"></rect><path d="M50,87 V70 Q50,61 59,61 H241 Q250,61 250,70 V87 Z" fill="#6c757d"></path><text x="150" y="74.5" fill="#fff" font-weight="700" font-size="12.5" text-anchor="middle" dominant-baseline="central">Rider / Driver apps</text><text x="150" y="109" fill="#3c454d" font-size="10.8" text-anchor="middle" dominant-baseline="central">mobile clients</text><rect x="480" y="100" width="360" height="64" rx="9" ry="9" fill="#fff" stroke="#4338ca" stroke-width="1.7" filter="url(#sh)"></rect><path d="M480,126 V109 Q480,100 489,100 H831 Q840,100 840,109 V126 Z" fill="#4f46e5"></path><text x="660" y="113.5" fill="#fff" font-weight="700" font-size="12.5" text-anchor="middle" dominant-baseline="central">API Gateway + WebSocket</text><text x="660" y="145" fill="#3c454d" font-size="10.8" text-anchor="middle" dominant-baseline="central">auth · live updates</text><rect x="70" y="240" width="300" height="64" rx="9" ry="9" fill="#fff" stroke="#0F5BB5" stroke-width="1.7" filter="url(#sh)"></rect><path d="M70,266 V249 Q70,240 79,240 H361 Q370,240 370,249 V266 Z" fill="#0078D4"></path><text x="220" y="253.5" fill="#fff" font-weight="700" font-size="12.5" text-anchor="middle" dominant-baseline="central">Location Service</text><text x="220" y="285" fill="#3c454d" font-size="10.8" text-anchor="middle" dominant-baseline="central">driver pings (~4s) · last-write-wins</text><rect x="424" y="240" width="372" height="64" rx="9" ry="9" fill="#fff" stroke="#0F5BB5" stroke-width="1.7" filter="url(#sh)"></rect><path d="M424,266 V249 Q424,240 433,240 H787 Q796,240 796,249 V266 Z" fill="#0078D4"></path><text x="610" y="253.5" fill="#fff" font-weight="700" font-size="12.5" text-anchor="middle" dominant-baseline="central">Matching / Dispatch</text><text x="610" y="285" fill="#3c454d" font-size="10.8" text-anchor="middle" dominant-baseline="central">find nearby + atomic claim (no double-dispatch)</text><rect x="877" y="240" width="246" height="64" rx="9" ry="9" fill="#fff" stroke="#0F5BB5" stroke-width="1.7" filter="url(#sh)"></rect><path d="M877,266 V249 Q877,240 886,240 H1114 Q1123,240 1123,249 V266 Z" fill="#0078D4"></path><text x="1000" y="253.5" fill="#fff" font-weight="700" font-size="12.5" text-anchor="middle" dominant-baseline="central">ETA / Routing</text><text x="1000" y="285" fill="#3c454d" font-size="10.8" text-anchor="middle" dominant-baseline="central">road graph</text><rect x="70" y="376" width="300" height="64" rx="9" ry="9" fill="#fff" stroke="#0A6E80" stroke-width="1.7" filter="url(#sh)"></rect><path d="M70,402 V385 Q70,376 79,376 H361 Q370,376 370,385 V402 Z" fill="#0C8599"></path><text x="220" y="389.5" fill="#fff" font-weight="700" font-size="12.5" text-anchor="middle" dominant-baseline="central">Geo Index Grid</text><text x="220" y="421" fill="#3c454d" font-size="10.8" text-anchor="middle" dominant-baseline="central">Redis · cell → drivers (in-RAM)</text><rect x="450" y="398" width="320" height="64" rx="9" ry="9" fill="#fff" stroke="#0F5BB5" stroke-width="1.7" filter="url(#sh)"></rect><path d="M450,424 V407 Q450,398 459,398 H761 Q770,398 770,407 V424 Z" fill="#0078D4"></path><text x="610" y="411.5" fill="#fff" font-weight="700" font-size="12.5" text-anchor="middle" dominant-baseline="central">Trip Service</text><text x="610" y="443" fill="#3c454d" font-size="10.8" text-anchor="middle" dominant-baseline="central">trip state machine</text><rect x="877" y="398" width="246" height="64" rx="9" ry="9" fill="#fff" stroke="#0A6E80" stroke-width="1.7" filter="url(#sh)"></rect><path d="M877,424 V407 Q877,398 886,398 H1114 Q1123,398 1123,407 V424 Z" fill="#0C8599"></path><text x="1000" y="411.5" fill="#fff" font-weight="700" font-size="12.5" text-anchor="middle" dominant-baseline="central">Trip DB</text><text x="1000" y="443" fill="#3c454d" font-size="10.8" text-anchor="middle" dominant-baseline="central">Cassandra / Spanner</text><rect x="70" y="506" width="300" height="60" rx="9" ry="9" fill="#fff" stroke="#0F5BB5" stroke-width="1.7" filter="url(#sh)"></rect><path d="M70,532 V515 Q70,506 79,506 H361 Q370,506 370,515 V532 Z" fill="#0078D4"></path><text x="220" y="519.5" fill="#fff" font-weight="700" font-size="12.5" text-anchor="middle" dominant-baseline="central">Surge Pricing</text><text x="220" y="549" fill="#3c454d" font-size="10.8" text-anchor="middle" dominant-baseline="central">supply / demand per cell</text><rect x="390" y="535" width="440" height="54" rx="9" ry="9" fill="#fff" stroke="#C8590B" stroke-width="1.7" filter="url(#sh)"></rect><path d="M390,559.84 V544 Q390,535 399,535 H821 Q830,535 830,544 V559.84 Z" fill="#F7630C"></path><text x="610" y="547.92" fill="#fff" font-weight="700" font-size="12.5" text-anchor="middle" dominant-baseline="central">Apache Kafka</text><text x="610" y="574.4200000000001" fill="#3c454d" font-size="10.8" text-anchor="middle" dominant-baseline="central">trip events · analytics</text><rect x="440" y="653" width="340" height="62" rx="9" ry="9" fill="#fff" stroke="#0F5BB5" stroke-width="1.7" filter="url(#sh)"></rect><path d="M440,679 V662 Q440,653 449,653 H771 Q780,653 780,662 V679 Z" fill="#0078D4"></path><text x="610" y="666.5" fill="#fff" font-weight="700" font-size="12.5" text-anchor="middle" dominant-baseline="central">Payment Service</text><text x="610" y="697" fill="#3c454d" font-size="10.8" text-anchor="middle" dominant-baseline="central">fare · wallet</text></g><g><rect x="256.4" y="105" width="87.19999999999999" height="18" rx="9" ry="9" fill="#ffffff" stroke="#dde2e7" stroke-width="1"></rect><text x="300" y="114.5" fill="#27313a" font-size="10.8" font-weight="600" text-anchor="middle" dominant-baseline="central">connect (WS)</text><rect x="357.25" y="105" width="105.5" height="18" rx="9" ry="9" fill="#ffffff" stroke="#dde2e7" stroke-width="1"></rect><text x="410" y="114.5" fill="#27313a" font-size="10.8" font-weight="600" text-anchor="middle" dominant-baseline="central">⑥ live location</text><rect x="610.3" y="191" width="99.39999999999999" height="18" rx="9" ry="9" fill="#ffffff" stroke="#dde2e7" stroke-width="1"></rect><text x="660" y="200.5" fill="#27313a" font-size="10.8" font-weight="600" text-anchor="middle" dominant-baseline="central">① driver pings</text><rect x="582.25" y="207" width="105.5" height="18" rx="9" ry="9" fill="#ffffff" stroke="#dde2e7" stroke-width="1"></rect><text x="635" y="216.5" fill="#27313a" font-size="10.8" font-weight="600" text-anchor="middle" dominant-baseline="central">② rider request</text><rect x="161.15" y="331" width="117.69999999999999" height="18" rx="9" ry="9" fill="#ffffff" stroke="#dde2e7" stroke-width="1"></rect><text x="220" y="340.5" fill="#27313a" font-size="10.8" font-weight="600" text-anchor="middle" dominant-baseline="central">update grid · LWW</text><rect x="351.35" y="331" width="93.3" height="18" rx="9" ry="9" fill="#ffffff" stroke="#dde2e7" stroke-width="1"></rect><text x="398" y="340.5" fill="#27313a" font-size="10.8" font-weight="600" text-anchor="middle" dominant-baseline="central">③ find nearby</text><rect x="799" y="263" width="75" height="18" rx="9" ry="9" fill="#ffffff" stroke="#dde2e7" stroke-width="1"></rect><text x="836.5" y="272.5" fill="#27313a" font-size="10.8" font-weight="600" text-anchor="middle" dominant-baseline="central">rank · ETA</text><rect x="526.75" y="342" width="166.5" height="18" rx="9" ry="9" fill="#ffffff" stroke="#dde2e7" stroke-width="1"></rect><text x="610" y="351.5" fill="#27313a" font-size="10.8" font-weight="600" text-anchor="middle" dominant-baseline="central">④ atomic claim · dispatch</text><rect x="773.8" y="421" width="99.39999999999999" height="18" rx="9" ry="9" fill="#ffffff" stroke="#dde2e7" stroke-width="1"></rect><text x="823.5" y="430.5" fill="#27313a" font-size="10.8" font-weight="600" text-anchor="middle" dominant-baseline="central">⑤ persist trip</text><rect x="167.25" y="464" width="105.5" height="18" rx="9" ry="9" fill="#ffffff" stroke="#dde2e7" stroke-width="1"></rect><text x="220" y="473.5" fill="#27313a" font-size="10.8" font-weight="600" text-anchor="middle" dominant-baseline="central">supply / demand</text><rect x="569.45" y="489.5" width="81.1" height="18" rx="9" ry="9" fill="#ffffff" stroke="#dde2e7" stroke-width="1"></rect><text x="610" y="499" fill="#27313a" font-size="10.8" font-weight="600" text-anchor="middle" dominant-baseline="central">trip events</text><rect x="563.35" y="612" width="93.3" height="18" rx="9" ry="9" fill="#ffffff" stroke="#dde2e7" stroke-width="1"></rect><text x="610" y="621.5" fill="#27313a" font-size="10.8" font-weight="600" text-anchor="middle" dominant-baseline="central">⑦ settle fare</text></g><defs><filter id="sh" x="-20%" y="-20%" width="140%" height="140%"><feDropShadow dx="0" dy="1" stdDeviation="1.1" flood-color="#000" flood-opacity="0.13"></feDropShadow></filter></defs></svg>