<svg version="1.1" xmlns="http://www.w3.org/2000/svg" viewBox="0 0 1200 864" width="1200" height="864">
  <!-- svg-source:gen-whiteboards.js -->
  <defs><style class="style-fonts">
@font-face{font-family:"Virgil";src:url("https://unpkg.com/@excalidraw/excalidraw@0.17.6/dist//dist/excalidraw-assets/Virgil.woff2");}
</style></defs>
  <rect x="0" y="0" width="1200" height="864" fill="#ffffff"></rect>
  <text x="24" y="26" font-family="Virgil, Segoe UI Emoji" font-size="22px" fill="#1e1e1e" text-anchor="start" dominant-baseline="central" style="white-space:pre">Ride-Hailing (Uber / Lyft) — how you'd draw it live on the whiteboard</text>
  <text x="24" y="58" font-family="Virgil, Segoe UI Emoji" font-size="13px" fill="#868e96" text-anchor="start" dominant-baseline="central" style="white-space:pre">green = client   ·   grey = edge / LB   ·   blue = service   ·   red = datastore   ·   orange = queue / stream   ·   violet = 3rd-party</text>
  <g transform="translate(0 84)"><g transform="translate(58 230)"><path d="M18 0 C113.16 0.25, 208.36 -0.78, 305.63 0.07 C314.95 -0.58, 323.78 7.94, 324 18 C324.69 34.69, 324.58 51.54, 323.95 69.87 C323.45 80.32, 314.91 87.54, 306 88 C210.3 87.84, 116.24 87.66, 17.81 87.79 C8.44 87.32, -0.07 80.66, 0 70 C0.23 53.69, -0.51 36.43, -0.07 17.96 C0.83 8.41, 7.32 0.86, 18 0" stroke="#495057" stroke-width="1.8" fill="none" stroke-linecap="round" stroke-dasharray="8 9"></path></g><g transform="translate(410 230)"><path d="M18 0 C137.82 0.23, 258.28 0.41, 381.69 0.16 C392.1 0.75, 399.03 7.7, 400 18 C400.86 35.78, 399.22 51.72, 399.56 70.26 C399.1 79.52, 391.87 87.14, 382 88 C261.97 88.9, 141.42 87.21, 18.38 88.29 C8.43 88.96, -0.12 79.41, 0 70 C-0.56 53.53, -0.42 35.67, 0.15 18.26 C-0.81 7.7, 8.28 0.37, 18 0" stroke="#495057" stroke-width="1.8" fill="none" stroke-linecap="round" stroke-dasharray="8 9"></path></g><g transform="translate(436 392)"><path d="M18 0 C121.83 -0.19, 223.2 0.67, 329.77 -0.41 C339.38 -0.46, 347.77 8.77, 348 18 C348.03 34.52, 347.29 51.93, 347.99 70.1 C348.36 80.62, 340.43 88.82, 330 88 C227.64 87.48, 124.66 88.62, 18.15 88.48 C8.18 88.08, -0.44 80.78, 0 70 C-0.56 52.32, -0.19 35.44, -0.3 17.74 C-0.35 8.04, 7.63 0.35, 18 0" stroke="#495057" stroke-width="1.8" fill="none" stroke-linecap="round" stroke-dasharray="8 9"></path></g><path d="M250 96 C267.47 95.12, 282.57 96.11, 299.87 95.62 C300.76 108.18, 299.7 120.58, 300.12 131.76 C359.31 130.94, 418.2 132.97, 479.66 132.2" stroke="#1e1e1e" stroke-width="1.6" fill="none" stroke-linecap="round"></path><path d="M480 132 L469.96 136.49 M480 132 L469.96 127.51" stroke="#1e1e1e" stroke-width="1.6" fill="none" stroke-linecap="round"></path><path d="M480 132 C457.87 131.12, 433.37 132.11, 409.87 131.62 C410.76 120.42, 409.7 109.06, 410.12 95.76 C357.11 94.94, 303.8 96.97, 249.66 96.2" stroke="#1e1e1e" stroke-width="1.6" fill="none" stroke-linecap="round"></path><path d="M250 96 L260.04 91.51 M250 96 L260.04 100.49" stroke="#1e1e1e" stroke-width="1.6" fill="none" stroke-linecap="round"></path><path d="M660 164 C660.22 188.18, 660.22 211.39, 659.7 236.4 C514.38 235.56, 368.53 236.64, 220.2 236.26 C220.87 237.84, 219.12 238.84, 219.89 239.8" stroke="#1e1e1e" stroke-width="1.6" fill="none" stroke-linecap="round"></path><path d="M220 240 L215.51 229.96 M220 240 L224.49 229.96" stroke="#1e1e1e" stroke-width="1.6" fill="none" stroke-linecap="round"></path><path d="M660 164 C659.51 181.82, 659.35 198.89, 659.85 216.19 C644.35 216.09, 627.2 216.8, 609.49 216.35 C608.99 223.89, 609.21 231.4, 609.84 239.89" stroke="#1e1e1e" stroke-width="1.6" fill="none" stroke-linecap="round"></path><path d="M610 240 L605.51 229.96 M610 240 L614.49 229.96" stroke="#1e1e1e" stroke-width="1.6" fill="none" stroke-linecap="round"></path><path d="M220 304 C218.96 327.89, 220.28 351.1, 219.67 376.32" stroke="#1e1e1e" stroke-width="1.6" fill="none" stroke-linecap="round"></path><path d="M220 376 L215.51 365.96 M220 376 L224.49 365.96" stroke="#1e1e1e" stroke-width="1.6" fill="none" stroke-linecap="round"></path><path d="M424 272 C416.41 271.45, 407.01 272.77, 397.6 271.96 C398.22 317.84, 398.86 361.09, 397.96 407.61 C387.81 407.26, 379.32 407.95, 370.2 408.03" stroke="#1e1e1e" stroke-width="1.6" fill="none" stroke-linecap="round"></path><path d="M370 408 L380.04 403.51 M370 408 L380.04 412.49" stroke="#1e1e1e" stroke-width="1.6" fill="none" stroke-linecap="round"></path><path d="M796 272 C822.63 271.13, 849.74 272.07, 877.16 271.63" stroke="#1e1e1e" stroke-width="1.6" fill="none" stroke-linecap="round"></path><path d="M877 272 L866.96 276.49 M877 272 L866.96 267.51" stroke="#1e1e1e" stroke-width="1.6" fill="none" stroke-linecap="round"></path><path d="M610 304 C610.54 334.24, 609.74 365.38, 610.41 397.52" stroke="#1e1e1e" stroke-width="1.6" fill="none" stroke-linecap="round"></path><path d="M610 398 L605.51 387.96 M610 398 L614.49 387.96" stroke="#1e1e1e" stroke-width="1.6" fill="none" stroke-linecap="round"></path><path d="M770 430 C806.05 430.82, 839.64 430.24, 877.02 429.61" stroke="#1e1e1e" stroke-width="1.6" fill="none" stroke-linecap="round"></path><path d="M877 430 L866.96 434.49 M877 430 L866.96 425.51" stroke="#1e1e1e" stroke-width="1.6" fill="none" stroke-linecap="round"></path><path d="M220 440 C220.86 462.1, 219.12 484.17, 220 506.07" stroke="#1e1e1e" stroke-width="1.6" fill="none" stroke-linecap="round"></path><path d="M220 506 L215.51 495.96 M220 506 L224.49 495.96" stroke="#1e1e1e" stroke-width="1.6" fill="none" stroke-linecap="round"></path><path d="M610 462 C610.48 486.6, 610.35 510.83, 610.2 534.64" stroke="#1e1e1e" stroke-width="1.6" fill="none" stroke-linecap="round"></path><path d="M610 535 L605.51 524.96 M610 535 L614.49 524.96" stroke="#1e1e1e" stroke-width="1.6" fill="none" stroke-linecap="round"></path><path d="M610 589 C610.73 609.06, 609.04 631.1, 610.45 653.49" stroke="#1e1e1e" stroke-width="1.6" fill="none" stroke-linecap="round"></path><path d="M610 653 L605.51 642.96 M610 653 L614.49 642.96" stroke="#1e1e1e" stroke-width="1.6" fill="none" stroke-linecap="round"></path><g transform="translate(50 61)"><path d="M16 0 C71.89 0.5, 127.37 0.09, 184.03 0.19 C192.36 -0.04, 200.18 6.68, 200 16 C199.98 28.32, 199.87 40.58, 200.03 53.94 C200.39 63.37, 192.72 69.91, 184 70 C128.59 70.53, 72.54 70.33, 16.24 70.09 C6.85 69.65, -0.13 63.31, 0 54 C0.26 41.41, -0.17 28.57, 0.04 16 C-0.51 7.7, 6.84 0.31, 16 0 Z" stroke="none" fill="#b2f2bb"></path><path d="M16 0 C71.89 -0.22, 126.67 1.14, 183.49 0.5 C191.71 -0.64, 199.49 6.34, 200 16 C200.81 28.51, 198.84 42.45, 200.1 54.64 C199.77 61.88, 193.47 69.5, 184 70 C128.54 70.37, 74.32 70.37, 16.05 70.2 C5.86 70.73, 1.21 61.42, 0 54 C0.54 42.69, -1.07 28.53, 0.21 16.01 C-0.2 7.83, 6.7 0.85, 16 0 M16 0 C71.99 -0.35, 127.51 0.96, 183.85 0.54 C192.43 0.02, 198.84 6.66, 200 16 C199.03 27.26, 200.38 40.39, 200.48 54.44 C199.11 62.17, 193.43 69.26, 184 70 C128.42 69.1, 73.8 69.36, 15.67 70.38 C7.26 68.71, 0.41 61.54, 0 54 C0.21 42.09, -0.16 28.02, 0.65 15.59 C0.93 6.48, 6.1 0.77, 16 0" stroke="#2f9e44" stroke-width="1.7" fill="none" stroke-linecap="round"></path></g><text x="150" y="87" font-family="Virgil, Segoe UI Emoji" font-size="15px" fill="#1e1e1e" text-anchor="middle" dominant-baseline="central" style="white-space:pre">Rider / Driver apps</text><text x="150" y="106" font-family="Virgil, Segoe UI Emoji" font-size="12px" fill="#495057" text-anchor="middle" dominant-baseline="central" style="white-space:pre">mobile clients</text><g transform="translate(480 100)"><path d="M16 0 C124.82 -0.38, 232.6 -0.57, 343.81 -0.2 C352.62 0.52, 360.12 7.16, 360 16 C359.55 26.01, 360.12 37.38, 359.87 48.27 C359.77 57.09, 352.27 63.82, 344 64 C235.71 63.52, 127.57 63.7, 15.88 64.15 C7.03 64.25, 0.06 56.42, 0 48 C0.5 37.08, -0.04 26.88, -0.3 15.78 C-0.53 7.77, 7.05 0.03, 16 0 Z" stroke="none" fill="#dee2e6"></path><path d="M16 0 C124.16 1.14, 232.53 -0.67, 343.76 -0.63 C352.33 -0.92, 360.8 7.61, 360 16 C360.36 25.82, 359.15 37.4, 360.65 48.47 C360.62 56.22, 351.99 62.73, 344 64 C235.38 62.93, 128.86 62.74, 15.92 64.32 C7.09 64.72, 0.08 57.29, 0 48 C-1.07 38.35, 0.62 27.33, -0.57 15.88 C-0.17 7.13, 6.8 -0.67, 16 0 M16 0 C125.29 0.56, 233.66 0.2, 343.65 -0.57 C353.42 0.02, 361.21 6.86, 360 16 C360.06 27.63, 361.19 38.1, 359.99 47.7 C359.44 56.56, 352.78 63.74, 344 64 C236.05 64.9, 128.48 63.37, 15.63 63.48 C6.51 63.3, -0.98 56.3, 0 48 C1.02 38.33, -0.38 27.66, -0.35 15.73 C-1.2 6.35, 8.42 0.3, 16 0" stroke="#495057" stroke-width="1.7" fill="none" stroke-linecap="round"></path></g><text x="660" y="123" font-family="Virgil, Segoe UI Emoji" font-size="15px" fill="#1e1e1e" text-anchor="middle" dominant-baseline="central" style="white-space:pre">API Gateway + WebSocket</text><text x="660" y="142" font-family="Virgil, Segoe UI Emoji" font-size="12px" fill="#495057" text-anchor="middle" dominant-baseline="central" style="white-space:pre">auth · live updates</text><g transform="translate(70 240)"><path d="M16 0 C104.35 0.21, 193 -0.03, 284.1 0.17 C292.95 0.28, 299.66 7.57, 300 16 C299.66 26.17, 299.66 36.89, 299.9 48.22 C300.13 56.65, 292.71 63.71, 284 64 C195.88 63.48, 107.35 64.43, 16.12 63.74 C6.68 63.54, 0.37 56.62, 0 48 C-0.43 37.58, -0.05 26.34, 0.29 15.9 C0.58 7.2, 7.21 -0.33, 16 0 Z" stroke="none" fill="#a5d8ff"></path><path d="M16 0 C105.73 -0.2, 192.77 0.72, 283.74 0.13 C293.71 -0.34, 300.4 8.14, 300 16 C300.92 27.18, 299.71 36.12, 300.59 47.72 C300.44 55.87, 291.59 64.74, 284 64 C194.46 63.77, 107.71 63.35, 15.85 63.32 C6.71 64.65, -1.29 57.69, 0 48 C-1.36 36.25, -0.04 27.27, -0.45 15.92 C-0.19 6.79, 8.28 -1.35, 16 0 M16 0 C104.73 -1.08, 192.42 -0.9, 284.18 0.6 C292.07 -1.32, 300.26 8.44, 300 16 C299.8 26.89, 298.92 35.84, 300.28 47.95 C300.66 55.61, 294.05 63.6, 284 64 C194.84 64.27, 106.37 63.57, 16.47 63.8 C5.96 64.44, -1.2 58.05, 0 48 C-0.39 37.05, 0.82 25.61, 0.61 16.6 C-1.05 6.37, 6.38 0.44, 16 0" stroke="#1971c2" stroke-width="1.7" fill="none" stroke-linecap="round"></path></g><text x="220" y="263" font-family="Virgil, Segoe UI Emoji" font-size="15px" fill="#1e1e1e" text-anchor="middle" dominant-baseline="central" style="white-space:pre">Location Service</text><text x="220" y="282" font-family="Virgil, Segoe UI Emoji" font-size="12px" fill="#495057" text-anchor="middle" dominant-baseline="central" style="white-space:pre">driver pings (~4s) · last-write-wins</text><g transform="translate(424 240)"><path d="M16 0 C127.95 -0.18, 240.05 -0.18, 355.9 0.26 C364.76 -0.23, 371.54 7.19, 372 16 C371.46 26.29, 372.54 37.1, 372.09 47.9 C371.57 56.47, 365.24 64.03, 356 64 C243.29 63.55, 131.59 63.53, 16.11 63.99 C6.73 63.47, 0.25 56.75, 0 48 C0.19 37.93, -0.09 26.68, -0.22 16.28 C0.24 7.58, 7.05 0.49, 16 0 Z" stroke="none" fill="#a5d8ff"></path><path d="M16 0 C127.4 0.51, 239.81 0.07, 356.56 -0.41 C364.94 0.64, 371.63 6.25, 372 16 C371.29 27.15, 372.37 36.58, 371.47 48.52 C372.75 57.06, 364.08 64.81, 356 64 C244.63 63.55, 131.43 62.66, 15.34 64.15 C6.73 62.65, 1 55.55, 0 48 C0.5 36.09, 0.12 28.26, -0.63 15.52 C0.93 6.79, 6.47 -0.28, 16 0 M16 0 C128.85 0.96, 241.4 -0.72, 356 -0.7 C364.86 -0.29, 371.31 6.44, 372 16 C373.02 26.49, 371.34 38.38, 371.32 48.57 C370.77 56.28, 364.09 64.75, 356 64 C243.17 64.55, 131.06 63.02, 15.75 63.59 C7.73 64.26, 0.24 57.72, 0 48 C-1.05 36.59, 1.1 25.5, -0.27 15.95 C-0.73 7.09, 6.73 -0.06, 16 0" stroke="#1971c2" stroke-width="1.7" fill="none" stroke-linecap="round"></path></g><text x="610" y="263" font-family="Virgil, Segoe UI Emoji" font-size="15px" fill="#1e1e1e" text-anchor="middle" dominant-baseline="central" style="white-space:pre">Matching / Dispatch</text><text x="610" y="282" font-family="Virgil, Segoe UI Emoji" font-size="12px" fill="#495057" text-anchor="middle" dominant-baseline="central" style="white-space:pre">find nearby + atomic claim (no double-dispatch)</text><g transform="translate(877 240)"><path d="M16 0 C86.62 -0.08, 157.41 0.18, 230.19 0.29 C238.75 0.57, 245.77 7.74, 246 16 C245.83 26.04, 246.57 37.39, 246.18 47.87 C245.55 57.06, 239.11 64.48, 230 64 C159.2 64.37, 88.95 63.43, 15.79 64.04 C6.88 63.99, -0.05 56.99, 0 48 C0.3 37.05, -0.03 26.61, 0.28 15.89 C0.16 6.63, 7.52 -0.58, 16 0 Z" stroke="none" fill="#a5d8ff"></path><path d="M16 0 C87.26 1.14, 157.62 -1.11, 229.63 -0.46 C237.84 -0.79, 246.26 6.45, 246 16 C246.74 26.04, 246.51 36.55, 245.54 48.32 C246.78 58.06, 239.88 63.97, 230 64 C158 64.69, 89.06 65.1, 15.89 63.83 C7.05 63.78, 0.57 57.67, 0 48 C0.17 37.79, 0.59 26.16, -0.25 16.27 C0.21 6.62, 7.2 0.62, 16 0 M16 0 C87.32 -1.26, 156.45 -0.43, 229.51 0.68 C239.1 -0.13, 246.13 6.04, 246 16 C245.54 26.1, 245.09 35.93, 246.6 48.19 C245.12 56.19, 238.9 63.45, 230 64 C158.14 63.71, 88.52 64.83, 15.78 64.45 C6.28 64.98, -0.03 56.1, 0 48 C-0.79 37.43, -0.74 28.05, 0.64 15.62 C-1.09 7.92, 6.61 0.29, 16 0" stroke="#1971c2" stroke-width="1.7" fill="none" stroke-linecap="round"></path></g><text x="1000" y="263" font-family="Virgil, Segoe UI Emoji" font-size="15px" fill="#1e1e1e" text-anchor="middle" dominant-baseline="central" style="white-space:pre">ETA / Routing</text><text x="1000" y="282" font-family="Virgil, Segoe UI Emoji" font-size="12px" fill="#495057" text-anchor="middle" dominant-baseline="central" style="white-space:pre">road graph</text><g transform="translate(70 376)"><path d="M16 0 C104.87 0.2, 192.65 0.29, 283.71 0.22 C292.86 0.39, 299.69 7.12, 300 16 C299.78 26.53, 299.85 36.94, 300.19 48.17 C299.64 57.31, 292.38 64.21, 284 64 C195.13 63.57, 106.81 64.43, 16.1 63.85 C6.65 64.07, 0.37 57.13, 0 48 C0.08 37.15, 0.4 26.44, -0.1 16.12 C0.52 7.09, 7.48 0.05, 16 0 Z" stroke="none" fill="#ffc9c9"></path><path d="M16 0 C104.22 -0.76, 191.65 -1.05, 284.44 0.05 C291.42 0.65, 299.33 7.75, 300 16 C298.79 27.35, 300.7 37.41, 299.94 48.13 C300.54 55.42, 292.31 63.41, 284 64 C194.2 64.84, 107.69 64.64, 15.47 63.44 C6.85 64.94, -0.67 56.52, 0 48 C-0.49 38.05, -0.28 27.29, 0.68 16.06 C-0.5 5.97, 6.5 -1.32, 16 0 M16 0 C103.33 0.1, 193.53 -1.33, 283.33 0.23 C293.45 0.42, 300.89 7.66, 300 16 C299.83 27.11, 300.17 38.42, 299.45 48.54 C300.55 56.7, 293.7 64.18, 284 64 C195.55 63.04, 106.07 65.37, 15.35 63.9 C8.19 62.88, 0.82 57.31, 0 48 C-0.07 38.3, -0.9 25.53, -0.24 16.11 C0.69 7.42, 7.55 -1.07, 16 0" stroke="#e03131" stroke-width="1.7" fill="none" stroke-linecap="round"></path></g><text x="220" y="399" font-family="Virgil, Segoe UI Emoji" font-size="15px" fill="#1e1e1e" text-anchor="middle" dominant-baseline="central" style="white-space:pre">Geo Index Grid</text><text x="220" y="418" font-family="Virgil, Segoe UI Emoji" font-size="12px" fill="#495057" text-anchor="middle" dominant-baseline="central" style="white-space:pre">Redis · cell → drivers (in-RAM)</text><g transform="translate(450 398)"><path d="M16 0 C111.43 0.31, 206.42 0.55, 304.1 -0.15 C313.23 -0.51, 320.26 6.99, 320 16 C319.57 26.39, 319.51 36.98, 320.17 48.12 C319.42 57.02, 312.88 64.46, 304 64 C208.95 63.85, 114.18 64.13, 15.73 63.78 C6.99 64.47, -0.03 56.62, 0 48 C0.24 37.73, -0.05 26.74, 0.2 16.21 C-0.38 6.91, 6.79 -0.28, 16 0 Z" stroke="none" fill="#a5d8ff"></path><path d="M16 0 C111.31 0.58, 206.06 -0.29, 304.27 0.4 C313.11 0.15, 320.52 8.51, 320 16 C319.57 26.67, 319.74 36.02, 320.64 47.59 C321.16 58.1, 312.74 63.77, 304 64 C208.26 64.12, 114.79 63.82, 15.73 64.39 C6.68 63.51, -0.83 56.42, 0 48 C0.19 38.64, 0.9 25.92, 0 15.67 C0.56 8.57, 6.37 -0.27, 16 0 M16 0 C110.53 -0.08, 206.88 -0.05, 304.54 -0.68 C312.74 1.37, 319.86 6.52, 320 16 C319.31 26.5, 321.21 37.6, 319.93 48.23 C318.82 56.35, 312.63 64.76, 304 64 C209.53 65.19, 113.77 63.28, 16.67 64.23 C5.89 65.13, 1.3 58.18, 0 48 C-0.82 38.62, -0.96 26.93, 0.29 15.49 C-0.87 7.72, 8.01 -0.08, 16 0" stroke="#1971c2" stroke-width="1.7" fill="none" stroke-linecap="round"></path></g><text x="610" y="421" font-family="Virgil, Segoe UI Emoji" font-size="15px" fill="#1e1e1e" text-anchor="middle" dominant-baseline="central" style="white-space:pre">Trip Service</text><text x="610" y="440" font-family="Virgil, Segoe UI Emoji" font-size="12px" fill="#495057" text-anchor="middle" dominant-baseline="central" style="white-space:pre">trip state machine</text><g transform="translate(877 398)"><path d="M16 0 C86.63 -0.46, 156.75 0.18, 229.83 0 C238.75 0.24, 245.52 7.43, 246 16 C245.49 26.34, 246.59 37.68, 246.25 47.78 C246.56 56.9, 239.01 64.58, 230 64 C159.37 63.97, 88.67 64.07, 15.93 64.26 C7.54 64.59, -0.49 56.32, 0 48 C0.4 37.28, 0.34 27.19, -0.26 16.09 C-0.4 7.15, 7.59 -0.44, 16 0 Z" stroke="none" fill="#ffc9c9"></path><path d="M16 0 C85.39 -0.18, 156.97 1.32, 230.6 0.68 C237.92 1.27, 246.18 6.78, 246 16 C245.22 27.49, 247.21 36.64, 246.5 48 C245.35 56.14, 238.68 64.81, 230 64 C159.49 63.67, 89.88 64.41, 16.46 63.97 C7.72 62.64, -0.35 58.11, 0 48 C1.22 38.09, -0.63 26.4, -0.13 15.8 C-0.92 6.14, 6.13 -0.46, 16 0 M16 0 C86.57 -0.89, 156.83 -1.27, 230.13 -0.45 C238.1 -0.83, 245.9 8.48, 246 16 C246.11 25.63, 246.71 35.93, 246.5 48.36 C247.26 57.29, 237.84 63.84, 230 64 C159.88 64.49, 88.31 62.65, 15.31 63.58 C7.98 64.21, -0.72 57.13, 0 48 C1.31 37.49, 0.02 25.59, 0.11 16.12 C-0.67 7.48, 7.03 -1.1, 16 0" stroke="#e03131" stroke-width="1.7" fill="none" stroke-linecap="round"></path></g><text x="1000" y="421" font-family="Virgil, Segoe UI Emoji" font-size="15px" fill="#1e1e1e" text-anchor="middle" dominant-baseline="central" style="white-space:pre">Trip DB</text><text x="1000" y="440" font-family="Virgil, Segoe UI Emoji" font-size="12px" fill="#495057" text-anchor="middle" dominant-baseline="central" style="white-space:pre">Cassandra / Spanner</text><g transform="translate(70 506)"><path d="M16 0 C104.6 -0.07, 193.19 -0.1, 283.94 -0.09 C293.14 -0.44, 300.22 7.7, 300 16 C299.76 24.75, 300.04 34.43, 300.06 43.8 C299.68 52.2, 292.34 59.72, 284 60 C195.99 60.48, 106.82 60.43, 15.84 59.99 C7.16 60.16, -0.53 52.42, 0 44 C0.6 34.58, 0.24 25.19, -0.07 16.02 C-0.47 6.9, 6.89 0.02, 16 0 Z" stroke="none" fill="#a5d8ff"></path><path d="M16 0 C105.51 0.32, 194.02 -0.24, 284.54 -0.45 C293.2 0.82, 299.79 7.95, 300 16 C298.95 23.97, 299.08 34.2, 299.49 44.3 C299.31 51.65, 291.48 59.14, 284 60 C195.72 59.62, 106.7 59.99, 16.09 60.58 C7.58 60.08, 0.1 53.19, 0 44 C0.11 36, -0.64 24.23, 0.65 15.87 C-0.03 7.87, 8.52 0.25, 16 0 M16 0 C105.61 0.96, 193.83 -0.43, 284.62 -0.53 C293.39 1.23, 300.96 6.55, 300 16 C299.2 26.54, 300.63 35.43, 299.49 44.38 C298.64 53.34, 292.82 61.21, 284 60 C196.1 59.57, 107.77 61.31, 15.42 60.5 C8.26 59.85, -0.91 52.02, 0 44 C-0.35 34.17, -1.2 25.42, 0.19 15.65 C0.48 5.95, 8.46 1.3, 16 0" stroke="#1971c2" stroke-width="1.7" fill="none" stroke-linecap="round"></path></g><text x="220" y="527" font-family="Virgil, Segoe UI Emoji" font-size="15px" fill="#1e1e1e" text-anchor="middle" dominant-baseline="central" style="white-space:pre">Surge Pricing</text><text x="220" y="546" font-family="Virgil, Segoe UI Emoji" font-size="12px" fill="#495057" text-anchor="middle" dominant-baseline="central" style="white-space:pre">supply / demand per cell</text><g transform="translate(390 535)"><path d="M16 0 C151.11 0.32, 285.14 -0.26, 424.1 0 C432.85 0.42, 439.77 7.42, 440 16 C439.41 23.41, 440.07 31.06, 439.89 37.83 C439.62 46.93, 432.23 54.13, 424 54 C289.35 53.84, 155.19 54.27, 16.14 53.76 C7.05 53.82, -0.02 46.79, 0 38 C0.59 30.39, 0.45 23.98, -0.08 15.72 C-0.42 7.3, 7.58 0.2, 16 0 Z" stroke="none" fill="#ffd8a8"></path><path d="M16 0 C149.36 -0.93, 285.27 1.22, 424.37 -0.2 C433.63 -1.08, 439.53 8.1, 440 16 C441.23 21.92, 438.65 29.73, 440.06 37.44 C440.46 47.57, 433.55 54.4, 424 54 C290.17 53.86, 156.03 54.1, 15.47 53.31 C7.83 52.93, 1 47.52, 0 38 C0.49 31.48, -0.4 24.39, 0.27 16.29 C-0.15 8.5, 7.29 -0.57, 16 0 M16 0 C151.69 -0.16, 284.49 0.02, 423.83 -0.62 C432.78 1.21, 439.59 5.99, 440 16 C440.64 24.35, 441.16 29.92, 439.49 38.69 C439.26 47.17, 433.13 53.71, 424 54 C290.08 52.99, 153.91 52.96, 16.39 54.65 C7.65 55.34, -0.32 45.72, 0 38 C-0.01 31.05, -0.21 22.4, 0.66 15.45 C-0.81 8.1, 5.88 -0.61, 16 0" stroke="#e8590c" stroke-width="1.7" fill="none" stroke-linecap="round"></path></g><text x="610" y="553" font-family="Virgil, Segoe UI Emoji" font-size="15px" fill="#1e1e1e" text-anchor="middle" dominant-baseline="central" style="white-space:pre">Apache Kafka</text><text x="610" y="572" font-family="Virgil, Segoe UI Emoji" font-size="12px" fill="#495057" text-anchor="middle" dominant-baseline="central" style="white-space:pre">trip events · analytics</text><g transform="translate(440 653)"><path d="M16 0 C117.41 -0.57, 219.77 -0.17, 324.08 0.01 C332.87 -0.03, 340.23 6.62, 340 16 C339.41 26.2, 339.87 35.99, 340.24 45.74 C340.16 54.21, 332.32 61.78, 324 62 C221.84 61.67, 120.15 61.67, 16.06 62.07 C6.81 61.96, 0.19 54.84, 0 46 C0 35.89, -0.53 26.3, -0.15 16.03 C-0.54 7.28, 6.92 -0.04, 16 0 Z" stroke="none" fill="#a5d8ff"></path><path d="M16 0 C117.51 -0.3, 219.14 -0.65, 324.5 -0.01 C331.63 0.24, 341.04 6.71, 340 16 C339.95 26.53, 341.15 36.4, 339.78 45.75 C339.93 54.01, 332.34 61.81, 324 62 C221.68 60.75, 122.04 62.26, 16.14 61.63 C6.1 62.22, -0.34 55.5, 0 46 C-0.67 36.93, 0.36 25.52, 0.29 16.33 C1.2 6.7, 6.47 -0.95, 16 0 M16 0 C117.15 0.69, 218.97 -0.64, 324.46 0.01 C334.03 1.2, 340.95 6.54, 340 16 C338.65 26.65, 340.94 36.54, 339.72 46.18 C341.3 54.57, 333.21 62.48, 324 62 C222.84 61.99, 119.89 61.23, 16.41 62.41 C8.15 61.37, 0.12 54.05, 0 46 C-0.18 35.21, -1.26 27.59, -0.46 15.61 C-1.04 7.9, 6.24 1.22, 16 0" stroke="#1971c2" stroke-width="1.7" fill="none" stroke-linecap="round"></path></g><text x="610" y="675" font-family="Virgil, Segoe UI Emoji" font-size="15px" fill="#1e1e1e" text-anchor="middle" dominant-baseline="central" style="white-space:pre">Payment Service</text><text x="610" y="694" font-family="Virgil, Segoe UI Emoji" font-size="12px" fill="#495057" text-anchor="middle" dominant-baseline="central" style="white-space:pre">fare · wallet</text><rect x="71" y="221" width="153" height="18" fill="#ffffff" stroke="none"></rect><text x="76" y="230" font-family="Virgil, Segoe UI Emoji" font-size="12.5px" fill="#495057" text-anchor="start" dominant-baseline="central" style="white-space:pre">Location &amp; Geo Service</text><rect x="423" y="221" width="114" height="18" fill="#ffffff" stroke="none"></rect><text x="428" y="230" font-family="Virgil, Segoe UI Emoji" font-size="12.5px" fill="#495057" text-anchor="start" dominant-baseline="central" style="white-space:pre">Matching Service</text><rect x="449" y="383" width="88" height="18" fill="#ffffff" stroke="none"></rect><text x="454" y="392" font-family="Virgil, Segoe UI Emoji" font-size="12.5px" fill="#495057" text-anchor="start" dominant-baseline="central" style="white-space:pre">Trip Service</text><rect x="260.12" y="105" width="79.76" height="18" rx="6" ry="6" fill="#ffffff" fill-opacity="0.82" stroke="none"></rect><text x="300" y="114" font-family="Virgil, Segoe UI Emoji" font-size="11.5px" fill="#27313a" text-anchor="middle" dominant-baseline="central" style="white-space:pre">connect (WS)</text><rect x="361.15" y="105" width="97.7" height="18" rx="6" ry="6" fill="#ffffff" fill-opacity="0.82" stroke="none"></rect><text x="410" y="114" font-family="Virgil, Segoe UI Emoji" font-size="11.5px" fill="#27313a" text-anchor="middle" dominant-baseline="central" style="white-space:pre">⑥ live location</text><rect x="614.14" y="191" width="91.72" height="18" rx="6" ry="6" fill="#ffffff" fill-opacity="0.82" stroke="none"></rect><text x="660" y="200" font-family="Virgil, Segoe UI Emoji" font-size="11.5px" fill="#27313a" text-anchor="middle" dominant-baseline="central" style="white-space:pre">① driver pings</text><rect x="586.15" y="207" width="97.7" height="18" rx="6" ry="6" fill="#ffffff" fill-opacity="0.82" stroke="none"></rect><text x="635" y="216" font-family="Virgil, Segoe UI Emoji" font-size="11.5px" fill="#27313a" text-anchor="middle" dominant-baseline="central" style="white-space:pre">② rider request</text><rect x="165.17" y="331" width="109.66" height="18" rx="6" ry="6" fill="#ffffff" fill-opacity="0.82" stroke="none"></rect><text x="220" y="340" font-family="Virgil, Segoe UI Emoji" font-size="11.5px" fill="#27313a" text-anchor="middle" dominant-baseline="central" style="white-space:pre">update grid · LWW</text><rect x="355.13" y="331" width="85.74" height="18" rx="6" ry="6" fill="#ffffff" fill-opacity="0.82" stroke="none"></rect><text x="398" y="340" font-family="Virgil, Segoe UI Emoji" font-size="11.5px" fill="#27313a" text-anchor="middle" dominant-baseline="central" style="white-space:pre">③ find nearby</text><rect x="802.6" y="263" width="67.8" height="18" rx="6" ry="6" fill="#ffffff" fill-opacity="0.82" stroke="none"></rect><text x="836.5" y="272" font-family="Virgil, Segoe UI Emoji" font-size="11.5px" fill="#27313a" text-anchor="middle" dominant-baseline="central" style="white-space:pre">rank · ETA</text><rect x="531.25" y="342" width="157.5" height="18" rx="6" ry="6" fill="#ffffff" fill-opacity="0.82" stroke="none"></rect><text x="610" y="351" font-family="Virgil, Segoe UI Emoji" font-size="11.5px" fill="#27313a" text-anchor="middle" dominant-baseline="central" style="white-space:pre">④ atomic claim · dispatch</text><rect x="777.64" y="421" width="91.72" height="18" rx="6" ry="6" fill="#ffffff" fill-opacity="0.82" stroke="none"></rect><text x="823.5" y="430" font-family="Virgil, Segoe UI Emoji" font-size="11.5px" fill="#27313a" text-anchor="middle" dominant-baseline="central" style="white-space:pre">⑤ persist trip</text><rect x="171.15" y="464" width="97.7" height="18" rx="6" ry="6" fill="#ffffff" fill-opacity="0.82" stroke="none"></rect><text x="220" y="473" font-family="Virgil, Segoe UI Emoji" font-size="11.5px" fill="#27313a" text-anchor="middle" dominant-baseline="central" style="white-space:pre">supply / demand</text><rect x="573.11" y="489.5" width="73.78" height="18" rx="6" ry="6" fill="#ffffff" fill-opacity="0.82" stroke="none"></rect><text x="610" y="498.5" font-family="Virgil, Segoe UI Emoji" font-size="11.5px" fill="#27313a" text-anchor="middle" dominant-baseline="central" style="white-space:pre">trip events</text><rect x="567.13" y="612" width="85.74" height="18" rx="6" ry="6" fill="#ffffff" fill-opacity="0.82" stroke="none"></rect><text x="610" y="621" font-family="Virgil, Segoe UI Emoji" font-size="11.5px" fill="#27313a" text-anchor="middle" dominant-baseline="central" style="white-space:pre">⑦ settle fare</text></g>
</svg>
