<?xml version="1.0" encoding="UTF-8"?>
<svg id="diagram" viewBox="0 0 1100 725" xmlns="http://www.w3.org/2000/svg" width="1100" height="725"><rect x="0" y="0" width="1100" height="725" fill="#ffffff"></rect><g><rect x="298" y="166" width="344" height="92" rx="14" ry="14" fill="#f8fafc" stroke="#64748b" stroke-width="1.6" stroke-dasharray="7 5"></rect><rect x="312" y="143" width="83.6" height="22" rx="7" ry="7" fill="#475569"></rect><text x="353.8" y="154" fill="#fff" font-size="11.5" font-weight="700" text-anchor="middle" dominant-baseline="central">▢ Scheduler</text><rect x="298" y="466" width="344" height="92" rx="14" ry="14" fill="#f8fafc" stroke="#64748b" stroke-width="1.6" stroke-dasharray="7 5"></rect><rect x="312" y="443" width="83.6" height="22" rx="7" ry="7" fill="#475569"></rect><text x="353.8" y="454" fill="#fff" font-size="11.5" font-weight="700" text-anchor="middle" dominant-baseline="central">▢ Execution</text></g><g><path d="M470,92 L470,174" fill="none" stroke="#55606a" stroke-width="1.9" stroke-linejoin="round" stroke-linecap="round"></path><polygon points="470,174 466.12627569593405,165.32565506703307 473.8737243040659,165.32565506703307" fill="#55606a"></polygon><path d="M190,210 L300,210" fill="none" stroke="#aab2bb" stroke-width="1.6" stroke-linejoin="round" stroke-linecap="round" stroke-dasharray="6 5"></path><polygon points="300,210 291.3256550670331,213.87372430406592 291.3256550670331,206.12627569593408" fill="#aab2bb"></polygon><path d="M640,210 L725,210 L725,660 L755,660" fill="none" stroke="#aab2bb" stroke-width="1.6" stroke-linejoin="round" stroke-linecap="round" stroke-dasharray="6 5"></path><polygon points="755,660 746.325655067033,663.873724304066 746.325655067033,656.126275695934" fill="#aab2bb"></polygon><path d="M470,246 L470,331" fill="none" stroke="#55606a" stroke-width="1.9" stroke-linejoin="round" stroke-linecap="round"></path><polygon points="470,331 466.12627569593405,322.3256550670331 473.8737243040659,322.3256550670331" fill="#55606a"></polygon><path d="M470,389 L470,474" fill="none" stroke="#55606a" stroke-width="1.9" stroke-linejoin="round" stroke-linecap="round"></path><polygon points="470,474 466.12627569593405,465.3256550670331 473.8737243040659,465.3256550670331" fill="#55606a"></polygon><path d="M470,546 L470,590 L900,590 L900,627" fill="none" stroke="#55606a" stroke-width="1.9" stroke-linejoin="round" stroke-linecap="round"></path><polygon points="900,627 896.126275695934,618.325655067033 903.873724304066,618.325655067033" fill="#55606a"></polygon><path d="M640,510 L755,510" fill="none" stroke="#55606a" stroke-width="1.9" stroke-linejoin="round" stroke-linecap="round"></path><polygon points="755,510 746.325655067033,513.873724304066 746.325655067033,506.12627569593405" fill="#55606a"></polygon></g><g><rect x="310" y="40" width="320" height="52" rx="9" ry="9" fill="#fff" stroke="#6c757d" stroke-width="1.7" filter="url(#sh)"></rect><path d="M310,63.92 V49 Q310,40 319,40 H621 Q630,40 630,49 V63.92 Z" fill="#6c757d"></path><text x="470" y="52.46" fill="#fff" font-weight="700" font-size="12.5" text-anchor="middle" dominant-baseline="central">Producers</text><text x="470" y="77.96000000000001" fill="#3c454d" font-size="10.8" text-anchor="middle" dominant-baseline="central">submit / schedule jobs</text><rect x="10" y="178" width="180" height="64" rx="9" ry="9" fill="#fff" stroke="#0A6E80" stroke-width="1.7" filter="url(#sh)"></rect><path d="M10,204 V187 Q10,178 19,178 H181 Q190,178 190,187 V204 Z" fill="#0C8599"></path><text x="100" y="191.5" fill="#fff" font-weight="700" font-size="12.5" text-anchor="middle" dominant-baseline="central">Coordination</text><text x="100" y="223" fill="#3c454d" font-size="10.8" text-anchor="middle" dominant-baseline="central">ZooKeeper · leader election</text><rect x="300" y="174" width="340" height="72" rx="9" ry="9" fill="#fff" stroke="#0F5BB5" stroke-width="1.7" filter="url(#sh)"></rect><path d="M300,200 V183 Q300,174 309,174 H631 Q640,174 640,183 V200 Z" fill="#0078D4"></path><text x="470" y="187.5" fill="#fff" font-weight="700" font-size="12.5" text-anchor="middle" dominant-baseline="central">Scheduler Service</text><text x="470" y="223" fill="#3c454d" font-size="10.8" text-anchor="middle" dominant-baseline="central">cron · delayed (timing wheel)</text><rect x="250" y="331" width="440" height="58" rx="9" ry="9" fill="#fff" stroke="#C8590B" stroke-width="1.7" filter="url(#sh)"></rect><path d="M250,357 V340 Q250,331 259,331 H681 Q690,331 690,340 V357 Z" fill="#F7630C"></path><text x="470" y="344.5" fill="#fff" font-weight="700" font-size="12.5" text-anchor="middle" dominant-baseline="central">Queue</text><text x="470" y="373" fill="#3c454d" font-size="10.8" text-anchor="middle" dominant-baseline="central">Kafka / SQS · visibility timeout</text><rect x="300" y="474" width="340" height="72" rx="9" ry="9" fill="#fff" stroke="#0F5BB5" stroke-width="1.7" filter="url(#sh)"></rect><path d="M300,500 V483 Q300,474 309,474 H631 Q640,474 640,483 V500 Z" fill="#0078D4"></path><text x="470" y="487.5" fill="#fff" font-weight="700" font-size="12.5" text-anchor="middle" dominant-baseline="central">Worker Pool</text><text x="470" y="523" fill="#3c454d" font-size="10.8" text-anchor="middle" dominant-baseline="central">lease · idempotent · ack</text><rect x="755" y="480" width="290" height="60" rx="9" ry="9" fill="#fff" stroke="#0A6E80" stroke-width="1.7" filter="url(#sh)"></rect><path d="M755,506 V489 Q755,480 764,480 H1036 Q1045,480 1045,489 V506 Z" fill="#0C8599"></path><text x="900" y="493.5" fill="#fff" font-weight="700" font-size="12.5" text-anchor="middle" dominant-baseline="central">DLQ</text><text x="900" y="523" fill="#3c454d" font-size="10.8" text-anchor="middle" dominant-baseline="central">poison jobs · alert</text><rect x="755" y="627" width="290" height="66" rx="9" ry="9" fill="#fff" stroke="#0A6E80" stroke-width="1.7" filter="url(#sh)"></rect><path d="M755,653 V636 Q755,627 764,627 H1036 Q1045,627 1045,636 V653 Z" fill="#0C8599"></path><text x="900" y="640.5" fill="#fff" font-weight="700" font-size="12.5" text-anchor="middle" dominant-baseline="central">Job Store</text><text x="900" y="673" fill="#3c454d" font-size="10.8" text-anchor="middle" dominant-baseline="central">PostgreSQL · run_at index</text></g><g><rect x="432.5" y="124" width="75" height="18" rx="9" ry="9" fill="#ffffff" stroke="#dde2e7" stroke-width="1"></rect><text x="470" y="133.5" fill="#27313a" font-size="10.8" font-weight="600" text-anchor="middle" dominant-baseline="central">① schedule</text><rect x="192.25" y="201" width="105.5" height="18" rx="9" ry="9" fill="#ffffff" stroke="#dde2e7" stroke-width="1"></rect><text x="245" y="210.5" fill="#27313a" font-size="10.8" font-weight="600" text-anchor="middle" dominant-baseline="central">leader election</text><rect x="669.2" y="426" width="111.6" height="18" rx="9" ry="9" fill="#ffffff" stroke="#dde2e7" stroke-width="1"></rect><text x="725" y="435.5" fill="#27313a" font-size="10.8" font-weight="600" text-anchor="middle" dominant-baseline="central">persist · run_at</text><rect x="432.5" y="279.5" width="75" height="18" rx="9" ry="9" fill="#ffffff" stroke="#dde2e7" stroke-width="1"></rect><text x="470" y="289" fill="#27313a" font-size="10.8" font-weight="600" text-anchor="middle" dominant-baseline="central">② due jobs</text><rect x="377.6" y="422.5" width="184.79999999999998" height="18" rx="9" ry="9" fill="#ffffff" stroke="#dde2e7" stroke-width="1"></rect><text x="470" y="432" fill="#27313a" font-size="10.8" font-weight="600" text-anchor="middle" dominant-baseline="central">③ lease (visibility timeout)</text><rect x="641.4" y="581" width="87.19999999999999" height="18" rx="9" ry="9" fill="#ffffff" stroke="#dde2e7" stroke-width="1"></rect><text x="685" y="590.5" fill="#27313a" font-size="10.8" font-weight="600" text-anchor="middle" dominant-baseline="central">④ ack · done</text><rect x="650.85" y="501" width="93.3" height="18" rx="9" ry="9" fill="#ffffff" stroke="#dde2e7" stroke-width="1"></rect><text x="697.5" y="510.5" fill="#27313a" font-size="10.8" font-weight="600" text-anchor="middle" dominant-baseline="central">⑤ retry / DLQ</text></g><defs><filter id="sh" x="-20%" y="-20%" width="140%" height="140%"><feDropShadow dx="0" dy="1" stdDeviation="1.1" flood-color="#000" flood-opacity="0.13"></feDropShadow></filter></defs></svg>