<svg version="1.1" xmlns="http://www.w3.org/2000/svg" viewBox="0 0 1100 809" width="1100" height="809">
  <!-- svg-source:gen-whiteboards.js -->
  <defs><style class="style-fonts">
@font-face{font-family:"Virgil";src:url("https://unpkg.com/@excalidraw/excalidraw@0.17.6/dist//dist/excalidraw-assets/Virgil.woff2");}
</style></defs>
  <rect x="0" y="0" width="1100" height="809" fill="#ffffff"></rect>
  <text x="24" y="26" font-family="Virgil, Segoe UI Emoji" font-size="22px" fill="#1e1e1e" text-anchor="start" dominant-baseline="central" style="white-space:pre">Distributed Job Scheduler / Task Queue — how you'd draw it live on the whiteboard</text>
  <text x="24" y="58" font-family="Virgil, Segoe UI Emoji" font-size="13px" fill="#868e96" text-anchor="start" dominant-baseline="central" style="white-space:pre">green = client   ·   grey = edge / LB   ·   blue = service   ·   red = datastore   ·   orange = queue / stream   ·   violet = 3rd-party</text>
  <g transform="translate(0 84)"><g transform="translate(298 166)"><path d="M18 0 C119.62 -0.37, 221.41 0.56, 325.57 0.4 C336.63 0.08, 344.33 8.77, 344 18 C344.68 37.46, 343.92 55.13, 343.97 73.72 C344.51 84.39, 335.53 91.41, 326 92 C224.98 91.29, 123.57 92.12, 18.43 92.01 C7.39 91.5, 0.46 84.02, 0 74 C-0.27 55.9, -0.31 37.95, 0.41 18.01 C0.66 8.75, 7.52 -0.36, 18 0" stroke="#495057" stroke-width="1.8" fill="none" stroke-linecap="round" stroke-dasharray="8 9"></path></g><g transform="translate(298 466)"><path d="M18 0 C119.21 -0.47, 221.13 -0.66, 326.37 -0.18 C335.04 -0.46, 344.06 7.71, 344 18 C343.41 37.04, 344.52 54.03, 343.74 73.89 C343.91 84.76, 336.06 92.83, 326 92 C225.35 92.88, 123.06 92.75, 17.77 91.67 C7.48 92.06, 0.93 82.95, 0 74 C-0.56 55.38, -0.65 36.06, -0.01 17.55 C-0.54 7.34, 8.89 0.85, 18 0" stroke="#495057" stroke-width="1.8" fill="none" stroke-linecap="round" stroke-dasharray="8 9"></path></g><path d="M470 92 C470.13 120.15, 470.81 147.15, 470.06 174.19" stroke="#1e1e1e" stroke-width="1.6" fill="none" stroke-linecap="round"></path><path d="M470 174 L465.51 163.96 M470 174 L474.49 163.96" stroke="#1e1e1e" stroke-width="1.6" fill="none" stroke-linecap="round"></path><path d="M190 210 C225.77 210.97, 263.7 209.43, 299.75 210.11" stroke="#1e1e1e" stroke-width="1.6" fill="none" stroke-linecap="round"></path><path d="M300 210 L289.96 214.49 M300 210 L289.96 205.51" stroke="#1e1e1e" stroke-width="1.6" fill="none" stroke-linecap="round"></path><path d="M640 210 C668.55 209.1, 695.59 209.58, 725.45 209.64 C726.02 357.9, 724.19 507.38, 724.98 659.54 C734.61 659.88, 744.7 659.49, 755.18 659.68" stroke="#1e1e1e" stroke-width="1.6" fill="none" stroke-linecap="round"></path><path d="M755 660 L744.96 664.49 M755 660 L744.96 655.51" stroke="#1e1e1e" stroke-width="1.6" fill="none" stroke-linecap="round"></path><path d="M470 246 C468.93 274.77, 470.91 302.21, 469.73 331.04" stroke="#1e1e1e" stroke-width="1.6" fill="none" stroke-linecap="round"></path><path d="M470 331 L465.51 320.96 M470 331 L474.49 320.96" stroke="#1e1e1e" stroke-width="1.6" fill="none" stroke-linecap="round"></path><path d="M470 389 C469.35 417.64, 469.72 445.04, 470.19 474.5" stroke="#1e1e1e" stroke-width="1.6" fill="none" stroke-linecap="round"></path><path d="M470 474 L465.51 463.96 M470 474 L474.49 463.96" stroke="#1e1e1e" stroke-width="1.6" fill="none" stroke-linecap="round"></path><path d="M470 546 C470.46 560.84, 470.16 574.82, 469.58 590.29 C611.39 590.49, 754.86 589.89, 900.36 590.1 C900.39 602.62, 899.03 615.39, 900.4 627.02" stroke="#1e1e1e" stroke-width="1.6" fill="none" stroke-linecap="round"></path><path d="M900 627 L895.51 616.96 M900 627 L904.49 616.96" stroke="#1e1e1e" stroke-width="1.6" fill="none" stroke-linecap="round"></path><path d="M640 510 C678.14 511.09, 716.23 510.18, 754.94 510.17" stroke="#1e1e1e" stroke-width="1.6" fill="none" stroke-linecap="round"></path><path d="M755 510 L744.96 514.49 M755 510 L744.96 505.51" stroke="#1e1e1e" stroke-width="1.6" fill="none" stroke-linecap="round"></path><g transform="translate(310 40)"><path d="M16 0 C111.46 -0.55, 205.64 0.08, 303.78 0.05 C312.9 0.23, 319.56 6.76, 320 16 C319.93 22.43, 319.79 28.63, 319.88 36.21 C319.69 44.6, 312.43 52.56, 304 52 C208.53 51.43, 114.47 51.44, 15.96 52.08 C7 52.57, 0.58 45.18, 0 36 C0.25 29.03, -0.48 22.82, -0.24 16.11 C-0.09 7.35, 6.81 0.22, 16 0 Z" stroke="none" fill="#b2f2bb"></path><path d="M16 0 C111.6 0.89, 206.15 -0.12, 304.2 -0.26 C313.8 -0.95, 321.27 7.29, 320 16 C321.15 23.05, 320.89 28.4, 319.75 35.62 C319.01 44.06, 311.51 50.86, 304 52 C210.03 53.12, 113.14 51.74, 15.81 52.62 C6.27 51.35, 1.29 45.95, 0 36 C-0.63 30.63, 0.7 21.46, -0.65 16.16 C-0.56 7.5, 7.2 -1.29, 16 0 M16 0 C111.02 0.91, 207.3 0.29, 303.41 0.69 C312.03 -1.29, 320.87 7.97, 320 16 C319.55 23.38, 319.21 29.64, 319.52 35.66 C319.51 43.51, 312.17 51.48, 304 52 C210.31 52.72, 113.42 52.32, 16.14 51.3 C6.85 51.55, 0.3 44.99, 0 36 C1.19 28.27, -0.66 21.64, -0.57 15.67 C-0.6 7.62, 8.3 -0.5, 16 0" stroke="#2f9e44" stroke-width="1.7" fill="none" stroke-linecap="round"></path></g><text x="470" y="57" font-family="Virgil, Segoe UI Emoji" font-size="15px" fill="#1e1e1e" text-anchor="middle" dominant-baseline="central" style="white-space:pre">Producers</text><text x="470" y="76" font-family="Virgil, Segoe UI Emoji" font-size="12px" fill="#495057" text-anchor="middle" dominant-baseline="central" style="white-space:pre">submit / schedule jobs</text><g transform="translate(10 178)"><path d="M16 0 C64.79 -0.16, 113.79 0.14, 164.03 -0.21 C172.37 -0.1, 180.52 7.68, 180 16 C179.44 26.43, 179.5 37.36, 179.97 47.89 C179.42 57.23, 172.37 63.64, 164 64 C115.73 63.42, 65.92 64.26, 16.18 64.01 C6.96 63.69, -0.15 56.25, 0 48 C-0.44 37.9, -0.38 27.05, 0.14 16.23 C-0.33 7, 7.48 0.54, 16 0 Z" stroke="none" fill="#ffc9c9"></path><path d="M16 0 C66.11 0.64, 112.67 -0.09, 164.58 0.19 C173.72 1.21, 180.86 6.1, 180 16 C180.24 27.85, 180.05 36.23, 180.67 48.35 C179.24 57.45, 171.52 64.7, 164 64 C114.54 64.8, 66.19 63.66, 16.27 64.4 C7.19 62.88, 0.1 57.17, 0 48 C1.36 37.86, -0.78 27.53, 0.5 16.55 C0.19 7.52, 6.23 1.13, 16 0 M16 0 C65.62 0.03, 113.58 1.07, 164.29 0.65 C174.15 1.01, 181.39 5.87, 180 16 C180.24 25.23, 180.74 37.12, 179.63 48.11 C181.02 57.59, 171.52 62.72, 164 64 C115.01 64.26, 65.1 64.29, 15.57 63.36 C7.37 64.48, 0.11 57.71, 0 48 C0.95 38.79, -0.47 27.92, 0.12 15.82 C1.19 7.57, 6.3 -0.27, 16 0" stroke="#e03131" stroke-width="1.7" fill="none" stroke-linecap="round"></path></g><text x="100" y="201" font-family="Virgil, Segoe UI Emoji" font-size="15px" fill="#1e1e1e" text-anchor="middle" dominant-baseline="central" style="white-space:pre">Coordination</text><text x="100" y="220" font-family="Virgil, Segoe UI Emoji" font-size="11.7px" fill="#495057" text-anchor="middle" dominant-baseline="central" style="white-space:pre">ZooKeeper · leader election</text><g transform="translate(300 174)"><path d="M16 0 C117.86 0.15, 219.35 0.24, 323.91 0.29 C332.55 -0.07, 340.38 7.67, 340 16 C339.72 28.62, 339.44 42.14, 340.21 56.3 C340.26 65.37, 333.4 71.59, 324 72 C222.85 72, 120.4 71.74, 15.77 71.96 C7.3 72.53, -0.07 65.02, 0 56 C-0.33 43.37, 0.52 29.52, 0.15 15.7 C-0.35 6.88, 7.74 -0.2, 16 0 Z" stroke="none" fill="#a5d8ff"></path><path d="M16 0 C116.3 0, 219.68 0.87, 323.79 0.38 C333.4 0.95, 338.85 6.64, 340 16 C340.34 28.3, 340.55 43, 339.46 56.65 C339.48 64.22, 333.06 71.93, 324 72 C221.28 72.66, 120.65 71.79, 15.88 71.39 C6.69 71.82, 0.12 63.64, 0 56 C0.41 43.06, 0.59 29.54, 0.05 15.85 C1.12 6.69, 8.15 -0.12, 16 0 M16 0 C116.76 1.24, 219.88 -0.91, 324.19 -0.02 C333.94 -1.02, 340.52 6.52, 340 16 C339.73 30.08, 339.64 42.46, 339.47 55.52 C341.12 64.21, 333.85 71.36, 324 72 C222.6 73.28, 120.81 72.93, 16.29 72.46 C6.48 71.52, 0.09 64.31, 0 56 C0.93 42.66, -0.85 28.81, 0.14 15.36 C-0.83 6.73, 6.51 1.29, 16 0" stroke="#1971c2" stroke-width="1.7" fill="none" stroke-linecap="round"></path></g><text x="470" y="201" font-family="Virgil, Segoe UI Emoji" font-size="15px" fill="#1e1e1e" text-anchor="middle" dominant-baseline="central" style="white-space:pre">Scheduler Service</text><text x="470" y="220" font-family="Virgil, Segoe UI Emoji" font-size="12px" fill="#495057" text-anchor="middle" dominant-baseline="central" style="white-space:pre">cron · delayed (timing wheel)</text><g transform="translate(250 331)"><path d="M16 0 C150.11 -0.48, 284.74 0.52, 423.94 0.27 C432.69 0.03, 440.44 7.17, 440 16 C439.73 24.79, 440.21 33.73, 439.89 41.72 C440.49 50.98, 432.81 57.89, 424 58 C289.73 57.62, 155.12 57.79, 15.85 58 C7.57 57.79, 0.16 51.17, 0 42 C-0.09 33.2, 0.34 24.85, 0.2 15.77 C0.09 7.75, 6.6 0.37, 16 0 Z" stroke="none" fill="#ffd8a8"></path><path d="M16 0 C149.73 -0.17, 285.26 0.72, 423.9 0.52 C432.59 -0.12, 439.54 6.24, 440 16 C438.64 24.36, 439.39 34.23, 439.5 42.38 C439.3 50.15, 433.56 58.04, 424 58 C289.14 57.51, 155.63 59.23, 16.57 58.61 C5.8 58.41, -1.24 50.59, 0 42 C-0.84 32.48, -0.71 25.01, 0.46 16.58 C-0.01 6.02, 7.21 0.82, 16 0 M16 0 C150.54 0.86, 285.63 0.02, 423.32 0.67 C433.83 -0.39, 439.97 7.08, 440 16 C439.82 23.31, 440.23 32.58, 440.57 41.73 C440.55 50.2, 432.29 56.77, 424 58 C289.47 57.87, 153.5 59.18, 16.01 58.09 C8.38 59.18, 0.42 49.43, 0 42 C0.08 32.84, -0.38 25.37, -0.01 15.43 C-0.06 6.58, 7.31 -0.87, 16 0" stroke="#e8590c" stroke-width="1.7" fill="none" stroke-linecap="round"></path></g><text x="470" y="351" font-family="Virgil, Segoe UI Emoji" font-size="15px" fill="#1e1e1e" text-anchor="middle" dominant-baseline="central" style="white-space:pre">Queue</text><text x="470" y="370" font-family="Virgil, Segoe UI Emoji" font-size="12px" fill="#495057" text-anchor="middle" dominant-baseline="central" style="white-space:pre">Kafka / SQS · visibility timeout</text><g transform="translate(300 474)"><path d="M16 0 C117.38 0.38, 219.74 0.43, 323.92 0.11 C333.28 -0.19, 340.41 7.61, 340 16 C340.27 29.03, 339.76 41.89, 339.95 55.82 C340.33 64.29, 333.39 71.87, 324 72 C222.87 71.5, 121.03 72.5, 15.85 72.15 C6.7 71.69, -0.06 64.57, 0 56 C-0.57 43.38, -0.56 30.11, -0.29 16.26 C-0.14 7.75, 7.21 0.41, 16 0 Z" stroke="none" fill="#a5d8ff"></path><path d="M16 0 C117.72 0.28, 220.26 -0.31, 323.74 -0.63 C331.83 -0.28, 339.39 6.42, 340 16 C339.33 29.81, 340.91 43.05, 339.8 56.58 C340.38 63.45, 333.95 72.46, 324 72 C221.55 70.74, 120.16 71.06, 16.14 71.75 C7.22 73.23, -0.08 65.79, 0 56 C-0.17 42.05, -0.33 28.63, 0.57 16.61 C-0.89 5.85, 7.36 1.38, 16 0 M16 0 C117.04 0.43, 219.06 -0.2, 323.6 -0.42 C333.5 -1.31, 340.84 7.43, 340 16 C340.99 30.4, 341.29 42.29, 339.68 55.49 C338.91 66.12, 331.53 72.13, 324 72 C222.34 70.76, 119.67 73.29, 16.16 72.49 C6.65 72.12, 1.13 66.12, 0 56 C-0.51 41.57, -0.99 28.69, -0.18 15.39 C-0.62 8.36, 7.86 0.98, 16 0" stroke="#1971c2" stroke-width="1.7" fill="none" stroke-linecap="round"></path></g><text x="470" y="501" font-family="Virgil, Segoe UI Emoji" font-size="15px" fill="#1e1e1e" text-anchor="middle" dominant-baseline="central" style="white-space:pre">Worker Pool</text><text x="470" y="520" font-family="Virgil, Segoe UI Emoji" font-size="12px" fill="#495057" text-anchor="middle" dominant-baseline="central" style="white-space:pre">lease · idempotent · ack</text><g transform="translate(755 480)"><path d="M16 0 C101.25 -0.39, 186.46 0.58, 274.2 -0.11 C283.26 0.49, 290.49 7.51, 290 16 C289.88 24.78, 289.99 34.21, 289.83 43.79 C290.24 53.33, 282.68 60.5, 274 60 C188.65 59.58, 103.88 60.26, 16.19 60.08 C6.8 60.27, -0.05 52.89, 0 44 C0.03 34.39, 0.4 26.04, -0.02 15.87 C-0.53 7.31, 7.73 0.1, 16 0 Z" stroke="none" fill="#ffc9c9"></path><path d="M16 0 C101.22 1.02, 187.28 0.67, 274.4 0.04 C282.96 0.47, 291.2 8.41, 290 16 C291.19 24.59, 289.37 33.68, 290.68 44.31 C290.19 53.59, 283.6 61.12, 274 60 C189.25 58.86, 103.15 59.64, 15.98 60.51 C7.6 59.85, 0.95 54.08, 0 44 C-1.4 34.17, -1.14 26.58, 0.32 15.61 C0.52 8.09, 6.29 -1.23, 16 0 M16 0 C101.76 -0.48, 187.29 1.38, 273.69 0.33 C284.02 1.07, 290.23 8.52, 290 16 C290.71 24.23, 290.56 33.55, 289.4 43.31 C290.56 53.77, 281.99 60.8, 274 60 C187.84 60.87, 104.78 59.17, 16.67 59.79 C7.7 61.08, 0.2 53.12, 0 44 C0.25 35.01, 0.22 26.42, 0.16 16.15 C-0.5 5.8, 7.36 -0.61, 16 0" stroke="#e03131" stroke-width="1.7" fill="none" stroke-linecap="round"></path></g><text x="900" y="501" font-family="Virgil, Segoe UI Emoji" font-size="15px" fill="#1e1e1e" text-anchor="middle" dominant-baseline="central" style="white-space:pre">DLQ</text><text x="900" y="520" font-family="Virgil, Segoe UI Emoji" font-size="12px" fill="#495057" text-anchor="middle" dominant-baseline="central" style="white-space:pre">poison jobs · alert</text><g transform="translate(755 627)"><path d="M16 0 C101.18 0.17, 186.08 0.57, 274.06 0.15 C282.77 -0.47, 290.41 6.73, 290 16 C289.56 27.31, 289.65 38, 290.12 49.8 C289.43 58.96, 283.19 65.46, 274 66 C189.04 65.85, 103.83 65.68, 15.78 65.74 C6.88 65.9, 0.19 58.74, 0 50 C0.17 38.86, -0.42 27.57, 0.09 16.2 C0.09 7.47, 7.49 0.26, 16 0 Z" stroke="none" fill="#ffc9c9"></path><path d="M16 0 C101.03 0.2, 184.96 -0.5, 273.75 -0.44 C282.96 0.56, 288.86 8.06, 290 16 C290.12 26.73, 289.12 37.91, 290.63 50.57 C290.45 59.8, 283.95 64.83, 274 66 C187.72 65.98, 102.87 67.29, 16.64 66.68 C8.38 64.66, -0.5 59.18, 0 50 C0.45 40.16, 0 26.56, 0.32 15.89 C1.31 6.88, 7.31 0.28, 16 0 M16 0 C101.9 -0.78, 185.92 -0.83, 274.49 0.52 C284.03 1.28, 290.95 5.9, 290 16 C289.36 27.23, 290.12 38.77, 289.9 50.35 C289.18 57.77, 282.56 67.35, 274 66 C188.95 65.05, 104.75 67.29, 16.21 66.52 C6.47 66.91, -0.28 58.2, 0 50 C0.95 37.41, 0.09 27.73, 0.35 16.38 C-0.75 7.43, 7.9 0.14, 16 0" stroke="#e03131" stroke-width="1.7" fill="none" stroke-linecap="round"></path></g><text x="900" y="651" font-family="Virgil, Segoe UI Emoji" font-size="15px" fill="#1e1e1e" text-anchor="middle" dominant-baseline="central" style="white-space:pre">Job Store</text><text x="900" y="670" font-family="Virgil, Segoe UI Emoji" font-size="12px" fill="#495057" text-anchor="middle" dominant-baseline="central" style="white-space:pre">PostgreSQL · run_at index</text><rect x="311" y="157" width="68.5" height="18" fill="#ffffff" stroke="none"></rect><text x="316" y="166" font-family="Virgil, Segoe UI Emoji" font-size="12.5px" fill="#495057" text-anchor="start" dominant-baseline="central" style="white-space:pre">Scheduler</text><rect x="311" y="457" width="68.5" height="18" fill="#ffffff" stroke="none"></rect><text x="316" y="466" font-family="Virgil, Segoe UI Emoji" font-size="12.5px" fill="#495057" text-anchor="start" dominant-baseline="central" style="white-space:pre">Execution</text><rect x="436.1" y="124" width="67.8" height="18" rx="6" ry="6" fill="#ffffff" fill-opacity="0.82" stroke="none"></rect><text x="470" y="133" font-family="Virgil, Segoe UI Emoji" font-size="11.5px" fill="#27313a" text-anchor="middle" dominant-baseline="central" style="white-space:pre">① schedule</text><rect x="196.15" y="201" width="97.7" height="18" rx="6" ry="6" fill="#ffffff" fill-opacity="0.82" stroke="none"></rect><text x="245" y="210" font-family="Virgil, Segoe UI Emoji" font-size="11.5px" fill="#27313a" text-anchor="middle" dominant-baseline="central" style="white-space:pre">leader election</text><rect x="673.16" y="426" width="103.68" height="18" rx="6" ry="6" fill="#ffffff" fill-opacity="0.82" stroke="none"></rect><text x="725" y="435" font-family="Virgil, Segoe UI Emoji" font-size="11.5px" fill="#27313a" text-anchor="middle" dominant-baseline="central" style="white-space:pre">persist · run_at</text><rect x="436.1" y="279.5" width="67.8" height="18" rx="6" ry="6" fill="#ffffff" fill-opacity="0.82" stroke="none"></rect><text x="470" y="288.5" font-family="Virgil, Segoe UI Emoji" font-size="11.5px" fill="#27313a" text-anchor="middle" dominant-baseline="central" style="white-space:pre">② due jobs</text><rect x="391.02" y="422.5" width="157.97" height="18" rx="6" ry="6" fill="#ffffff" fill-opacity="0.82" stroke="none"></rect><text x="470" y="431.5" font-family="Virgil, Segoe UI Emoji" font-size="10.3px" fill="#27313a" text-anchor="middle" dominant-baseline="central" style="white-space:pre">③ lease (visibility timeout)</text><rect x="645.12" y="581" width="79.76" height="18" rx="6" ry="6" fill="#ffffff" fill-opacity="0.82" stroke="none"></rect><text x="685" y="590" font-family="Virgil, Segoe UI Emoji" font-size="11.5px" fill="#27313a" text-anchor="middle" dominant-baseline="central" style="white-space:pre">④ ack · done</text><rect x="654.63" y="501" width="85.74" height="18" rx="6" ry="6" fill="#ffffff" fill-opacity="0.82" stroke="none"></rect><text x="697.5" y="510" font-family="Virgil, Segoe UI Emoji" font-size="11.5px" fill="#27313a" text-anchor="middle" dominant-baseline="central" style="white-space:pre">⑤ retry / DLQ</text></g>
</svg>
