<svg version="1.1" xmlns="http://www.w3.org/2000/svg" viewBox="0 0 1060 844" width="1060" height="844">
  <!-- svg-source:gen-whiteboards.js -->
  <defs><style class="style-fonts">
@font-face{font-family:"Virgil";src:url("https://unpkg.com/@excalidraw/excalidraw@0.17.6/dist//dist/excalidraw-assets/Virgil.woff2");}
</style></defs>
  <rect x="0" y="0" width="1060" height="844" fill="#ffffff"></rect>
  <text x="24" y="26" font-family="Virgil, Segoe UI Emoji" font-size="22px" fill="#1e1e1e" text-anchor="start" dominant-baseline="central" style="white-space:pre">Top-K / Trending / Heavy Hitters — how you'd draw it live on the whiteboard</text>
  <text x="24" y="58" font-family="Virgil, Segoe UI Emoji" font-size="13px" fill="#868e96" text-anchor="start" dominant-baseline="central" style="white-space:pre">green = client   ·   grey = edge / LB   ·   blue = service   ·   red = datastore   ·   orange = queue / stream   ·   violet = 3rd-party</text>
  <g transform="translate(0 84)"><g transform="translate(115 256)"><path d="M18 0 C128.05 0.84, 237.65 0.59, 351.74 0.46 C361.01 0.52, 370.12 7.58, 370 18 C369.08 49.08, 369.97 80.09, 369.82 112.1 C369.19 122.32, 362.21 129.94, 352 130 C241.64 130.88, 132.51 130.64, 18.47 129.84 C7.22 129.66, -0.64 122.6, 0 112 C-0.56 81.81, 0.62 49.9, 0.33 18.29 C0.6 8.96, 8.83 -0.51, 18 0" stroke="#495057" stroke-width="1.8" fill="none" stroke-linecap="round" stroke-dasharray="8 9"></path></g><g transform="translate(592 256)"><path d="M18 0 C118.31 0.37, 218.55 0.73, 321.52 -0.2 C331.11 -0.83, 339.07 7.47, 340 18 C339.91 49.26, 339.93 80.92, 340.32 112.31 C339.74 122.22, 332.69 130.36, 322 130 C221.91 129.19, 121.28 129.77, 18.5 129.55 C7.59 130.26, 0.17 121.5, 0 112 C0.55 80.35, -0.1 50.15, 0.27 18.39 C0.52 8.54, 8.35 0.25, 18 0" stroke="#495057" stroke-width="1.8" fill="none" stroke-linecap="round" stroke-dasharray="8 9"></path></g><path d="M530 84 C530.16 98.7, 530.23 112.76, 530.01 126.76" stroke="#1e1e1e" stroke-width="1.6" fill="none" stroke-linecap="round"></path><path d="M530 127 L525.51 116.96 M530 127 L534.49 116.96" stroke="#1e1e1e" stroke-width="1.6" fill="none" stroke-linecap="round"></path><path d="M530 185 C530.27 214.75, 530.41 244.83, 530.03 274.05 C453.28 272.99, 378.95 273.94, 300.45 273.88 C300.7 279.06, 299.98 284.87, 299.96 290.93" stroke="#1e1e1e" stroke-width="1.6" fill="none" stroke-linecap="round"></path><path d="M300 291 L295.51 280.96 M300 291 L304.49 280.96" stroke="#1e1e1e" stroke-width="1.6" fill="none" stroke-linecap="round"></path><path d="M530 185 C529.31 213.84, 529.14 242.83, 529.6 274.08 C605.48 274.88, 682.9 274.62, 761.74 273.72 C761.71 278.9, 761.86 284.44, 762.44 290.79" stroke="#1e1e1e" stroke-width="1.6" fill="none" stroke-linecap="round"></path><path d="M762 291 L757.51 280.96 M762 291 L766.49 280.96" stroke="#1e1e1e" stroke-width="1.6" fill="none" stroke-linecap="round"></path><path d="M300 369 C299.12 381.97, 300.42 393.84, 300.13 405.7 C375.47 405.44, 452.31 405.82, 529.94 406.48 C530.77 417.93, 530.91 430.59, 529.86 442.65" stroke="#1e1e1e" stroke-width="1.6" fill="none" stroke-linecap="round"></path><path d="M530 443 L525.51 432.96 M530 443 L534.49 432.96" stroke="#1e1e1e" stroke-width="1.6" fill="none" stroke-linecap="round"></path><path d="M762 369 C762.2 380.97, 761.45 393.53, 762.52 406.15 C686.45 405.75, 609.13 405.3, 529.46 406.19 C529.79 418.27, 529.06 429.73, 530.11 442.53" stroke="#1e1e1e" stroke-width="1.6" fill="none" stroke-linecap="round"></path><path d="M530 443 L525.51 432.96 M530 443 L534.49 432.96" stroke="#1e1e1e" stroke-width="1.6" fill="none" stroke-linecap="round"></path><path d="M530 509 C529.98 523.86, 529.93 541.46, 530.08 557.11" stroke="#1e1e1e" stroke-width="1.6" fill="none" stroke-linecap="round"></path><path d="M530 557 L525.51 546.96 M530 557 L534.49 546.96" stroke="#1e1e1e" stroke-width="1.6" fill="none" stroke-linecap="round"></path><path d="M530 623 C529.82 635.49, 530.82 645.44, 530.46 657.65" stroke="#1e1e1e" stroke-width="1.6" fill="none" stroke-linecap="round"></path><path d="M530 658 L525.51 647.96 M530 658 L534.49 647.96" stroke="#1e1e1e" stroke-width="1.6" fill="none" stroke-linecap="round"></path><g transform="translate(330 32)"><path d="M16 0 C137.3 0.42, 258.91 -0.22, 384.02 -0.2 C393.26 -0.02, 400.49 7.38, 400 16 C399.45 22.16, 399.81 29.52, 399.78 35.81 C400.48 45.18, 392.41 52.22, 384 52 C262.17 51.44, 140.82 51.82, 16.2 51.88 C7.14 51.56, -0.16 44.94, 0 36 C-0.16 29.96, 0 22.81, 0.24 15.97 C-0.29 7.17, 7.09 -0.37, 16 0 Z" stroke="none" fill="#b2f2bb"></path><path d="M16 0 C137.71 -0.8, 260.03 1.08, 383.71 0.39 C391.7 0.56, 401.39 8.03, 400 16 C399.75 21.81, 399.08 29.21, 400.23 35.38 C401.11 43.74, 392.25 53.21, 384 52 C261.54 53.02, 141.19 52.68, 16.19 51.4 C6.79 52.8, -1.05 45.77, 0 36 C-0.21 30.58, 0.82 22.22, 0.38 15.42 C0.05 7.54, 8.51 1.15, 16 0 M16 0 C136.98 0.72, 257.66 0.34, 383.6 0.31 C394.01 0.59, 401.36 6.71, 400 16 C399.46 22.29, 401.15 27.98, 399.52 35.39 C399.07 43.91, 393.28 51.59, 384 52 C261.38 50.77, 140.57 50.65, 15.84 52.61 C6.29 51.97, -1.22 44.66, 0 36 C-0.13 30.75, 0.63 24.12, -0.21 15.73 C-1.27 8.05, 7.72 -0.43, 16 0" stroke="#2f9e44" stroke-width="1.7" fill="none" stroke-linecap="round"></path></g><text x="530" y="49" font-family="Virgil, Segoe UI Emoji" font-size="15px" fill="#1e1e1e" text-anchor="middle" dominant-baseline="central" style="white-space:pre">Event Sources</text><text x="530" y="68" font-family="Virgil, Segoe UI Emoji" font-size="12px" fill="#495057" text-anchor="middle" dominant-baseline="central" style="white-space:pre">app servers · clicks · views · plays</text><g transform="translate(300 127)"><path d="M16 0 C156.72 0.52, 298.44 0.38, 444.29 -0.3 C452.83 0.12, 460.08 7.4, 460 16 C459.76 24.96, 460.28 33.39, 460.02 42.01 C460.05 50.24, 453.38 57.86, 444 58 C302.43 58.27, 160.99 57.4, 16.15 58.13 C6.88 58.52, -0.39 51.16, 0 42 C-0.37 33.07, -0.54 24.69, 0.19 16 C-0.49 7.02, 6.61 -0.25, 16 0 Z" stroke="none" fill="#ffd8a8"></path><path d="M16 0 C157.94 -1.21, 299.48 -0.42, 443.53 -0.57 C451.76 -1.07, 460.65 6.91, 460 16 C459.2 25.1, 460.52 34.19, 460.5 42.64 C460.05 49.69, 451.45 58.98, 444 58 C302.36 59.26, 161.94 56.89, 15.32 57.64 C7.57 58.76, -1.34 49.68, 0 42 C0.98 33.56, -0.57 25.71, -0.3 16.33 C-1.05 6.49, 7.48 -0.88, 16 0 M16 0 C157.33 -1.34, 297.3 1.27, 444.11 -0.69 C452.12 1.31, 459.36 5.88, 460 16 C460.95 25.3, 461.32 32.39, 460.07 41.58 C460.91 51.21, 453.36 57.25, 444 58 C303.8 57.48, 162.23 58.89, 16.39 58.27 C6.53 57.05, 0.92 50.68, 0 42 C-0.6 32.54, 0.3 24.34, -0.63 15.55 C-1.21 7.16, 6.98 -1.31, 16 0" stroke="#e8590c" stroke-width="1.7" fill="none" stroke-linecap="round"></path></g><text x="530" y="147" font-family="Virgil, Segoe UI Emoji" font-size="15px" fill="#1e1e1e" text-anchor="middle" dominant-baseline="central" style="white-space:pre">Apache Kafka</text><text x="530" y="166" font-family="Virgil, Segoe UI Emoji" font-size="12px" fill="#495057" text-anchor="middle" dominant-baseline="central" style="white-space:pre">event stream (clicks / views) · partition by key</text><g transform="translate(135 291)"><path d="M16 0 C114.49 -0.59, 213.04 0.56, 314 0.28 C322.92 0.28, 330.37 7.4, 330 16 C330.11 30.7, 329.45 46.65, 330.07 62.27 C330.22 70.61, 322.8 77.88, 314 78 C216.16 77.7, 117.42 77.68, 15.92 77.71 C6.62 78.6, -0.47 70.32, 0 62 C-0.35 46.92, 0.27 31.54, 0.15 15.95 C0.15 6.84, 7.68 0.06, 16 0 Z" stroke="none" fill="#a5d8ff"></path><path d="M16 0 C114.3 -0.92, 212.01 1.12, 314.12 -0.54 C321.67 0.98, 329.08 8.37, 330 16 C330.03 30.35, 330.65 45.12, 330.35 62.66 C330.08 71.2, 323.37 76.72, 314 78 C215.88 78.19, 116.41 78.52, 15.31 77.36 C7.4 78.61, -0.26 70.5, 0 62 C-0.58 47.55, -0.81 31.69, -0.22 16.21 C-1.03 6.72, 5.8 -1.23, 16 0 M16 0 C114.79 -0.3, 211.96 -0.78, 314.34 0.3 C321.87 -0.73, 328.62 8.36, 330 16 C330.88 32.01, 329.89 46.04, 330.5 62.41 C329.02 70.38, 323.32 79.02, 314 78 C215.63 78.5, 117.8 76.91, 15.71 78.13 C6.65 77.75, -1.33 70.43, 0 62 C-0.61 47.8, -0.03 32.58, 0.19 15.95 C-0.85 7.92, 7.83 1.2, 16 0" stroke="#1971c2" stroke-width="1.7" fill="none" stroke-linecap="round"></path></g><text x="300" y="321" font-family="Virgil, Segoe UI Emoji" font-size="15px" fill="#1e1e1e" text-anchor="middle" dominant-baseline="central" style="white-space:pre">Stream Processor</text><text x="300" y="340" font-family="Virgil, Segoe UI Emoji" font-size="12px" fill="#495057" text-anchor="middle" dominant-baseline="central" style="white-space:pre">Flink · Count-Min Sketch + min-heap</text><g transform="translate(612 291)"><path d="M16 0 C104.89 -0.16, 193.37 0.18, 283.85 0.18 C293.2 -0.4, 299.77 6.83, 300 16 C300.2 31.6, 300.14 45.79, 300.06 61.88 C300.48 70.28, 292.95 77.94, 284 78 C195.16 77.7, 106.52 77.9, 16.12 77.76 C6.83 78.42, 0.55 71.2, 0 62 C0.43 46.88, 0.16 31.6, -0.21 15.77 C0.01 7.03, 7.56 -0.03, 16 0 Z" stroke="none" fill="#a5d8ff"></path><path d="M16 0 C104.93 0.2, 191.82 0.05, 284.04 -0.5 C292.44 0.41, 299.37 6.99, 300 16 C298.92 31.48, 300.62 46.8, 299.98 61.73 C301.14 70.28, 293.65 79.26, 284 78 C194.52 78.25, 108.07 78.48, 16.19 78.14 C8.31 76.81, -1.1 69.99, 0 62 C-0.93 46.04, 0.12 30.98, 0.58 15.92 C-1.06 6.84, 8.38 0.49, 16 0 M16 0 C104.3 -0.12, 191.61 -0.45, 284.54 -0.61 C291.82 0.8, 300.81 8.26, 300 16 C299.08 30.65, 299.68 46.84, 300.25 61.95 C300.4 71.56, 292.88 76.7, 284 78 C196.22 78.03, 105.75 76.65, 16.33 77.35 C7.6 77, -0.6 69.92, 0 62 C-0.16 47.69, 1.22 31.66, -0.22 16.37 C1.15 6.29, 6 0.49, 16 0" stroke="#1971c2" stroke-width="1.7" fill="none" stroke-linecap="round"></path></g><text x="762" y="321" font-family="Virgil, Segoe UI Emoji" font-size="15px" fill="#1e1e1e" text-anchor="middle" dominant-baseline="central" style="white-space:pre">Batch Layer</text><text x="762" y="340" font-family="Virgil, Segoe UI Emoji" font-size="12px" fill="#495057" text-anchor="middle" dominant-baseline="central" style="white-space:pre">Spark · exact recount (periodic)</text><g transform="translate(360 443)"><path d="M16 0 C117.23 0.1, 218.89 0.3, 323.83 -0.12 C333.26 0.35, 339.97 6.75, 340 16 C339.65 27.19, 340.03 38.77, 339.94 50.22 C339.7 58.51, 332.98 65.92, 324 66 C222.68 66.34, 121.31 66.59, 16.06 66.13 C7 66.42, 0.35 59.33, 0 50 C-0.18 38.6, -0.09 27.91, 0.17 16.21 C0.22 7.56, 7.14 0.02, 16 0 Z" stroke="none" fill="#ffc9c9"></path><path d="M16 0 C118.07 1.04, 220.48 -0.42, 324.65 0 C333.24 1.09, 338.81 8.28, 340 16 C340.16 26, 340.15 38.02, 340 50.28 C339.4 60.09, 331.9 66.61, 324 66 C223.54 66.37, 119.63 66.26, 16.65 66.1 C7.48 66.84, 1.04 58.21, 0 50 C1.36 37.7, -0.09 26.73, -0.67 16.22 C0.7 6.78, 6.07 -0.89, 16 0 M16 0 C118.42 0.43, 218.92 -1.26, 324.42 0.61 C332.16 -0.06, 341.06 6.76, 340 16 C341.39 28.29, 339.93 37.27, 340.06 49.46 C339.57 57.91, 333.03 65.99, 324 66 C221.58 66.97, 119.41 64.99, 16.32 65.62 C8.43 66.11, 0.12 57.74, 0 50 C-1.27 37.62, 0.53 27.3, 0.18 15.84 C-0.36 5.86, 5.9 1.11, 16 0" stroke="#e03131" stroke-width="1.7" fill="none" stroke-linecap="round"></path></g><text x="530" y="467" font-family="Virgil, Segoe UI Emoji" font-size="15px" fill="#1e1e1e" text-anchor="middle" dominant-baseline="central" style="white-space:pre">Top-K Store</text><text x="530" y="486" font-family="Virgil, Segoe UI Emoji" font-size="12px" fill="#495057" text-anchor="middle" dominant-baseline="central" style="white-space:pre">Redis · per-window top-K</text><g transform="translate(370 557)"><path d="M16 0 C110.69 -0.24, 205.88 0.42, 303.73 0.1 C312.76 -0.2, 319.68 6.83, 320 16 C320.05 26.94, 320.41 38.72, 319.71 49.85 C319.93 59.01, 312.38 65.47, 304 66 C208.48 66.56, 113.57 66.31, 16.02 65.89 C6.75 66.07, 0.49 58.42, 0 50 C0.37 38.96, -0.02 27.87, -0.16 16.26 C0.43 6.61, 6.84 -0.59, 16 0 Z" stroke="none" fill="#a5d8ff"></path><path d="M16 0 C112.12 -0.85, 207.03 0.34, 304 -0.57 C313.8 0.63, 321.23 7.62, 320 16 C321.28 26.31, 318.9 37.56, 320.2 49.35 C319.11 60.2, 313.97 65.57, 304 66 C208.66 66.65, 114.82 64.65, 16.29 66.12 C6.65 65.36, 0.94 58.73, 0 50 C1.01 38.85, 0.62 27.22, -0.31 15.87 C1.32 7.4, 5.99 0.78, 16 0 M16 0 C111.63 -1.34, 205.1 0.36, 303.45 -0.28 C312.03 -0.29, 319.85 5.91, 320 16 C320.05 25.82, 319.1 39.8, 319.59 50.62 C319.35 59.39, 312.67 65.96, 304 66 C209.94 64.98, 113.31 66.9, 15.83 66.36 C7.34 65.97, -0.93 57.65, 0 50 C-0.25 39.2, -0.76 26.88, -0.35 16.07 C-1.21 7.59, 6.53 -0.22, 16 0" stroke="#1971c2" stroke-width="1.7" fill="none" stroke-linecap="round"></path></g><text x="530" y="581" font-family="Virgil, Segoe UI Emoji" font-size="15px" fill="#1e1e1e" text-anchor="middle" dominant-baseline="central" style="white-space:pre">Query API</text><text x="530" y="600" font-family="Virgil, Segoe UI Emoji" font-size="12px" fill="#495057" text-anchor="middle" dominant-baseline="central" style="white-space:pre">serve top-K · merge speed + batch</text><g transform="translate(350 658)"><path d="M16 0 C124.07 -0.32, 232.7 -0.58, 343.98 -0.15 C353.2 -0.35, 359.52 7.33, 360 16 C359.54 22.72, 359.56 29.19, 359.95 35.91 C360.14 44.58, 352.83 51.75, 344 52 C236.29 51.76, 127.08 51.61, 16.25 51.88 C7.4 51.59, -0.15 44.32, 0 36 C-0.47 28.96, -0.06 22.75, 0.08 15.94 C-0.09 7.71, 7.62 0.07, 16 0 Z" stroke="none" fill="#b2f2bb"></path><path d="M16 0 C125.08 -0.77, 231.37 -0.61, 344.11 0.56 C352.22 -0.71, 359.52 7.1, 360 16 C360.18 23.45, 359.88 30.35, 359.99 36.26 C359.99 44.45, 352.31 52.84, 344 52 C237.05 50.95, 128.48 52.65, 15.39 52.15 C7.23 53.29, -0.8 44.66, 0 36 C0.59 30.28, -0.7 23.82, -0.28 16.26 C-0.15 6.04, 5.88 -0.72, 16 0 M16 0 C125.47 0.12, 232.28 -1.2, 344.5 0.57 C352.61 -1.09, 360.6 6.54, 360 16 C360.2 22.41, 358.76 28.86, 360.1 36.37 C359.61 43.67, 352.41 51.77, 344 52 C236.28 51.57, 126.39 51.99, 16.48 52.32 C7.67 51.2, -0.57 45.7, 0 36 C0.36 30.57, 1.32 22.23, 0.61 16.18 C-1.29 7.29, 6.21 0.32, 16 0" stroke="#2f9e44" stroke-width="1.7" fill="none" stroke-linecap="round"></path></g><text x="530" y="675" font-family="Virgil, Segoe UI Emoji" font-size="15px" fill="#1e1e1e" text-anchor="middle" dominant-baseline="central" style="white-space:pre">Clients</text><text x="530" y="694" font-family="Virgil, Segoe UI Emoji" font-size="12px" fill="#495057" text-anchor="middle" dominant-baseline="central" style="white-space:pre">dashboards · /trending consumers</text><rect x="128" y="247" width="81.5" height="18" fill="#ffffff" stroke="none"></rect><text x="133" y="256" font-family="Virgil, Segoe UI Emoji" font-size="12.5px" fill="#495057" text-anchor="start" dominant-baseline="central" style="white-space:pre">Speed Layer</text><rect x="605" y="247" width="81.5" height="18" fill="#ffffff" stroke="none"></rect><text x="610" y="256" font-family="Virgil, Segoe UI Emoji" font-size="12.5px" fill="#495057" text-anchor="start" dominant-baseline="central" style="white-space:pre">Batch Layer</text><rect x="502.08" y="96.5" width="55.84" height="18" rx="6" ry="6" fill="#ffffff" fill-opacity="0.82" stroke="none"></rect><text x="530" y="105.5" font-family="Virgil, Segoe UI Emoji" font-size="11.5px" fill="#27313a" text-anchor="middle" dominant-baseline="central" style="white-space:pre">① events</text><rect x="384.09" y="265" width="61.82" height="18" rx="6" ry="6" fill="#ffffff" fill-opacity="0.82" stroke="none"></rect><text x="415" y="274" font-family="Virgil, Segoe UI Emoji" font-size="11.5px" fill="#27313a" text-anchor="middle" dominant-baseline="central" style="white-space:pre">② consume</text><rect x="606.12" y="265" width="79.76" height="18" rx="6" ry="6" fill="#ffffff" fill-opacity="0.82" stroke="none"></rect><text x="646" y="274" font-family="Virgil, Segoe UI Emoji" font-size="11.5px" fill="#27313a" text-anchor="middle" dominant-baseline="central" style="white-space:pre">③ replay log</text><rect x="375.12" y="397" width="79.76" height="18" rx="6" ry="6" fill="#ffffff" fill-opacity="0.82" stroke="none"></rect><text x="415" y="406" font-family="Virgil, Segoe UI Emoji" font-size="11.5px" fill="#27313a" text-anchor="middle" dominant-baseline="central" style="white-space:pre">write approx</text><rect x="597.15" y="397" width="97.7" height="18" rx="6" ry="6" fill="#ffffff" fill-opacity="0.82" stroke="none"></rect><text x="646" y="406" font-family="Virgil, Segoe UI Emoji" font-size="11.5px" fill="#27313a" text-anchor="middle" dominant-baseline="central" style="white-space:pre">reconcile exact</text><rect x="469.19" y="524" width="121.62" height="18" rx="6" ry="6" fill="#ffffff" fill-opacity="0.82" stroke="none"></rect><text x="530" y="533" font-family="Virgil, Segoe UI Emoji" font-size="11.5px" fill="#27313a" text-anchor="middle" dominant-baseline="central" style="white-space:pre">merge speed + batch</text><rect x="487.13" y="631.5" width="85.74" height="18" rx="6" ry="6" fill="#ffffff" fill-opacity="0.82" stroke="none"></rect><text x="530" y="640.5" font-family="Virgil, Segoe UI Emoji" font-size="11.5px" fill="#27313a" text-anchor="middle" dominant-baseline="central" style="white-space:pre">④ serve top-K</text></g>
</svg>
