<?xml version="1.0" encoding="UTF-8"?>
<svg id="diagram" viewBox="0 0 1060 760" xmlns="http://www.w3.org/2000/svg" width="1060" height="760"><rect x="0" y="0" width="1060" height="760" fill="#ffffff"></rect><g><rect x="115" y="256" width="370" height="130" rx="14" ry="14" fill="#f8fafc" stroke="#64748b" stroke-width="1.6" stroke-dasharray="7 5"></rect><rect x="129" y="233" width="96.4" height="22" rx="7" ry="7" fill="#475569"></rect><text x="177.2" y="244" fill="#fff" font-size="11.5" font-weight="700" text-anchor="middle" dominant-baseline="central">▢ Speed Layer</text><rect x="592" y="256" width="340" height="130" rx="14" ry="14" fill="#f8fafc" stroke="#64748b" stroke-width="1.6" stroke-dasharray="7 5"></rect><rect x="606" y="233" width="96.4" height="22" rx="7" ry="7" fill="#475569"></rect><text x="654.2" y="244" fill="#fff" font-size="11.5" font-weight="700" text-anchor="middle" dominant-baseline="central">▢ Batch Layer</text></g><g><path d="M530,84 L530,127" fill="none" stroke="#55606a" stroke-width="1.9" stroke-linejoin="round" stroke-linecap="round"></path><polygon points="530,127 526.126275695934,118.32565506703307 533.873724304066,118.32565506703307" fill="#55606a"></polygon><path d="M530,185 L530,274 L300,274 L300,291" fill="none" stroke="#55606a" stroke-width="1.9" stroke-linejoin="round" stroke-linecap="round"></path><polygon points="300,291 296.12627569593405,282.3256550670331 303.8737243040659,282.3256550670331" fill="#55606a"></polygon><path d="M530,185 L530,274 L762,274 L762,291" fill="none" stroke="#55606a" stroke-width="1.9" stroke-linejoin="round" stroke-linecap="round"></path><polygon points="762,291 758.126275695934,282.3256550670331 765.873724304066,282.3256550670331" fill="#55606a"></polygon><path d="M300,369 L300,406 L530,406 L530,443" fill="none" stroke="#55606a" stroke-width="1.9" stroke-linejoin="round" stroke-linecap="round"></path><polygon points="530,443 526.126275695934,434.3256550670331 533.873724304066,434.3256550670331" fill="#55606a"></polygon><path d="M762,369 L762,406 L530,406 L530,443" fill="none" stroke="#55606a" stroke-width="1.9" stroke-linejoin="round" stroke-linecap="round"></path><polygon points="530,443 526.126275695934,434.3256550670331 533.873724304066,434.3256550670331" fill="#55606a"></polygon><path d="M530,509 L530,557" fill="none" stroke="#55606a" stroke-width="1.9" stroke-linejoin="round" stroke-linecap="round"></path><polygon points="530,557 526.126275695934,548.325655067033 533.873724304066,548.325655067033" fill="#55606a"></polygon><path d="M530,623 L530,658" fill="none" stroke="#55606a" stroke-width="1.9" stroke-linejoin="round" stroke-linecap="round"></path><polygon points="530,658 526.126275695934,649.325655067033 533.873724304066,649.325655067033" fill="#55606a"></polygon></g><g><rect x="330" y="32" width="400" height="52" rx="9" ry="9" fill="#fff" stroke="#6c757d" stroke-width="1.7" filter="url(#sh)"></rect><path d="M330,55.92 V41 Q330,32 339,32 H721 Q730,32 730,41 V55.92 Z" fill="#6c757d"></path><text x="530" y="44.46" fill="#fff" font-weight="700" font-size="12.5" text-anchor="middle" dominant-baseline="central">Event Sources</text><text x="530" y="69.96000000000001" fill="#3c454d" font-size="10.8" text-anchor="middle" dominant-baseline="central">app servers · clicks · views · plays</text><rect x="300" y="127" width="460" height="58" rx="9" ry="9" fill="#fff" stroke="#C8590B" stroke-width="1.7" filter="url(#sh)"></rect><path d="M300,153 V136 Q300,127 309,127 H751 Q760,127 760,136 V153 Z" fill="#F7630C"></path><text x="530" y="140.5" fill="#fff" font-weight="700" font-size="12.5" text-anchor="middle" dominant-baseline="central">Apache Kafka</text><text x="530" y="169" fill="#3c454d" font-size="10.8" text-anchor="middle" dominant-baseline="central">event stream (clicks / views) · partition by key</text><rect x="135" y="291" width="330" height="78" rx="9" ry="9" fill="#fff" stroke="#0F5BB5" stroke-width="1.7" filter="url(#sh)"></rect><path d="M135,317 V300 Q135,291 144,291 H456 Q465,291 465,300 V317 Z" fill="#0078D4"></path><text x="300" y="304.5" fill="#fff" font-weight="700" font-size="12.5" text-anchor="middle" dominant-baseline="central">Stream Processor</text><text x="300" y="343" fill="#3c454d" font-size="10.8" text-anchor="middle" dominant-baseline="central">Flink · Count-Min Sketch + min-heap</text><rect x="612" y="291" width="300" height="78" rx="9" ry="9" fill="#fff" stroke="#0F5BB5" stroke-width="1.7" filter="url(#sh)"></rect><path d="M612,317 V300 Q612,291 621,291 H903 Q912,291 912,300 V317 Z" fill="#0078D4"></path><text x="762" y="304.5" fill="#fff" font-weight="700" font-size="12.5" text-anchor="middle" dominant-baseline="central">Batch Layer</text><text x="762" y="343" fill="#3c454d" font-size="10.8" text-anchor="middle" dominant-baseline="central">Spark · exact recount (periodic)</text><rect x="360" y="443" width="340" height="66" rx="9" ry="9" fill="#fff" stroke="#0A6E80" stroke-width="1.7" filter="url(#sh)"></rect><path d="M360,469 V452 Q360,443 369,443 H691 Q700,443 700,452 V469 Z" fill="#0C8599"></path><text x="530" y="456.5" fill="#fff" font-weight="700" font-size="12.5" text-anchor="middle" dominant-baseline="central">Top-K Store</text><text x="530" y="489" fill="#3c454d" font-size="10.8" text-anchor="middle" dominant-baseline="central">Redis · per-window top-K</text><rect x="370" y="557" width="320" height="66" rx="9" ry="9" fill="#fff" stroke="#0F5BB5" stroke-width="1.7" filter="url(#sh)"></rect><path d="M370,583 V566 Q370,557 379,557 H681 Q690,557 690,566 V583 Z" fill="#0078D4"></path><text x="530" y="570.5" fill="#fff" font-weight="700" font-size="12.5" text-anchor="middle" dominant-baseline="central">Query API</text><text x="530" y="603" fill="#3c454d" font-size="10.8" text-anchor="middle" dominant-baseline="central">serve top-K · merge speed + batch</text><rect x="350" y="658" width="360" height="52" rx="9" ry="9" fill="#fff" stroke="#6c757d" stroke-width="1.7" filter="url(#sh)"></rect><path d="M350,681.92 V667 Q350,658 359,658 H701 Q710,658 710,667 V681.92 Z" fill="#6c757d"></path><text x="530" y="670.46" fill="#fff" font-weight="700" font-size="12.5" text-anchor="middle" dominant-baseline="central">Clients</text><text x="530" y="695.9599999999999" fill="#3c454d" font-size="10.8" text-anchor="middle" dominant-baseline="central">dashboards · /trending consumers</text></g><g><rect x="498.6" y="96.5" width="62.8" height="18" rx="9" ry="9" fill="#ffffff" stroke="#dde2e7" stroke-width="1"></rect><text x="530" y="106" fill="#27313a" font-size="10.8" font-weight="600" text-anchor="middle" dominant-baseline="central">① events</text><rect x="380.55" y="265" width="68.9" height="18" rx="9" ry="9" fill="#ffffff" stroke="#dde2e7" stroke-width="1"></rect><text x="415" y="274.5" fill="#27313a" font-size="10.8" font-weight="600" text-anchor="middle" dominant-baseline="central">② consume</text><rect x="602.4" y="265" width="87.19999999999999" height="18" rx="9" ry="9" fill="#ffffff" stroke="#dde2e7" stroke-width="1"></rect><text x="646" y="274.5" fill="#27313a" font-size="10.8" font-weight="600" text-anchor="middle" dominant-baseline="central">③ replay log</text><rect x="371.4" y="397" width="87.19999999999999" height="18" rx="9" ry="9" fill="#ffffff" stroke="#dde2e7" stroke-width="1"></rect><text x="415" y="406.5" fill="#27313a" font-size="10.8" font-weight="600" text-anchor="middle" dominant-baseline="central">write approx</text><rect x="593.25" y="397" width="105.5" height="18" rx="9" ry="9" fill="#ffffff" stroke="#dde2e7" stroke-width="1"></rect><text x="646" y="406.5" fill="#27313a" font-size="10.8" font-weight="600" text-anchor="middle" dominant-baseline="central">reconcile exact</text><rect x="465.05" y="524" width="129.89999999999998" height="18" rx="9" ry="9" fill="#ffffff" stroke="#dde2e7" stroke-width="1"></rect><text x="530" y="533.5" fill="#27313a" font-size="10.8" font-weight="600" text-anchor="middle" dominant-baseline="central">merge speed + batch</text><rect x="483.35" y="631.5" width="93.3" height="18" rx="9" ry="9" fill="#ffffff" stroke="#dde2e7" stroke-width="1"></rect><text x="530" y="641" fill="#27313a" font-size="10.8" font-weight="600" text-anchor="middle" dominant-baseline="central">④ serve top-K</text></g><defs><filter id="sh" x="-20%" y="-20%" width="140%" height="140%"><feDropShadow dx="0" dy="1" stdDeviation="1.1" flood-color="#000" flood-opacity="0.13"></feDropShadow></filter></defs></svg>