<?xml version="1.0" encoding="UTF-8"?>
<svg id="diagram" viewBox="0 0 1180 560" xmlns="http://www.w3.org/2000/svg" width="1180" height="560"><rect x="0" y="0" width="1180" height="560" fill="#ffffff"></rect><g><rect x="388" y="172" width="384" height="140" rx="14" ry="14" fill="#f8fafc" stroke="#64748b" stroke-width="1.6" stroke-dasharray="7 5"></rect><rect x="402" y="149" width="90" height="22" rx="7" ry="7" fill="#475569"></rect><text x="447" y="160" fill="#fff" font-size="11.5" font-weight="700" text-anchor="middle" dominant-baseline="central">▢ ID Service</text></g><g><path d="M580,93 L580,201" fill="none" stroke="#55606a" stroke-width="1.9" stroke-linejoin="round" stroke-linecap="round"></path><polygon points="580,201 576.126275695934,192.32565506703307 583.873724304066,192.32565506703307" fill="#55606a"></polygon><path d="M580,283 L580,381" fill="none" stroke="#55606a" stroke-width="1.9" stroke-linejoin="round" stroke-linecap="round"></path><polygon points="580,381 576.126275695934,372.3256550670331 583.873724304066,372.3256550670331" fill="#55606a"></polygon><path d="M246,242 L405,242" fill="none" stroke="#aab2bb" stroke-width="1.6" stroke-linejoin="round" stroke-linecap="round" stroke-dasharray="6 5"></path><polygon points="405,242 396.3256550670331,245.87372430406592 396.3256550670331,238.12627569593408" fill="#aab2bb"></polygon><path d="M934,242 L755,242" fill="none" stroke="#aab2bb" stroke-width="1.6" stroke-linejoin="round" stroke-linecap="round" stroke-dasharray="6 5"></path><polygon points="755,242 763.674344932967,238.12627569593408 763.674344932967,245.87372430406592" fill="#aab2bb"></polygon></g><g><rect x="430" y="39" width="300" height="54" rx="9" ry="9" fill="#fff" stroke="#6c757d" stroke-width="1.7" filter="url(#sh)"></rect><path d="M430,63.84 V48 Q430,39 439,39 H721 Q730,39 730,48 V63.84 Z" fill="#6c757d"></path><text x="580" y="51.92" fill="#fff" font-weight="700" font-size="12.5" text-anchor="middle" dominant-baseline="central">Client services</text><text x="580" y="78.42" fill="#3c454d" font-size="10.8" text-anchor="middle" dominant-baseline="central">request IDs</text><rect x="405" y="201" width="350" height="82" rx="9" ry="9" fill="#fff" stroke="#0F5BB5" stroke-width="1.7" filter="url(#sh)"></rect><path d="M405,227 V210 Q405,201 414,201 H746 Q755,201 755,210 V227 Z" fill="#0078D4"></path><text x="580" y="214.5" fill="#fff" font-weight="700" font-size="12.5" text-anchor="middle" dominant-baseline="central">ID Generation Service</text><text x="580" y="255" fill="#3c454d" font-size="10.8" text-anchor="middle" dominant-baseline="central">nodes · assemble 64-bit</text><rect x="34" y="203" width="212" height="78" rx="9" ry="9" fill="#fff" stroke="#0A6E80" stroke-width="1.7" filter="url(#sh)"></rect><path d="M34,229 V212 Q34,203 43,203 H237 Q246,203 246,212 V229 Z" fill="#0C8599"></path><text x="140" y="216.5" fill="#fff" font-weight="700" font-size="12.5" text-anchor="middle" dominant-baseline="central">Coordination</text><text x="140" y="255" fill="#3c454d" font-size="10.8" text-anchor="middle" dominant-baseline="central">ZooKeeper / etcd · machine-id lease</text><rect x="934" y="203" width="212" height="78" rx="9" ry="9" fill="#fff" stroke="#0A6E80" stroke-width="1.7" filter="url(#sh)"></rect><path d="M934,229 V212 Q934,203 943,203 H1137 Q1146,203 1146,212 V229 Z" fill="#0C8599"></path><text x="1040" y="216.5" fill="#fff" font-weight="700" font-size="12.5" text-anchor="middle" dominant-baseline="central">NTP / Clock</text><text x="1040" y="255" fill="#3c454d" font-size="10.8" text-anchor="middle" dominant-baseline="central">skew handling</text><rect x="290" y="381" width="580" height="78" rx="9" ry="9" fill="#fff" stroke="#0A6E80" stroke-width="1.7" filter="url(#sh)"></rect><path d="M290,407 V390 Q290,381 299,381 H861 Q870,381 870,390 V407 Z" fill="#0C8599"></path><text x="580" y="394.5" fill="#fff" font-weight="700" font-size="12.5" text-anchor="middle" dominant-baseline="central">Snowflake 64-bit ID</text><text x="580" y="433" fill="#3c454d" font-size="10.8" text-anchor="middle" dominant-baseline="central">1 sign · 41 ms timestamp · 10 machine · 12 sequence</text></g><g><rect x="536.4" y="138" width="87.19999999999999" height="18" rx="9" ry="9" fill="#ffffff" stroke="#dde2e7" stroke-width="1"></rect><text x="580" y="147.5" fill="#27313a" font-size="10.8" font-weight="600" text-anchor="middle" dominant-baseline="central">① request id</text><rect x="460.15" y="323" width="239.7" height="18" rx="9" ry="9" fill="#ffffff" stroke="#dde2e7" stroke-width="1"></rect><text x="580" y="332.5" fill="#27313a" font-size="10.8" font-weight="600" text-anchor="middle" dominant-baseline="central">② assemble: time | dc | machine | seq</text><rect x="269.7" y="233" width="111.6" height="18" rx="9" ry="9" fill="#ffffff" stroke="#dde2e7" stroke-width="1"></rect><text x="325.5" y="242.5" fill="#27313a" font-size="10.8" font-weight="600" text-anchor="middle" dominant-baseline="central">machine-id lease</text><rect x="767.35" y="233" width="154.29999999999998" height="18" rx="9" ry="9" fill="#ffffff" stroke="#dde2e7" stroke-width="1"></rect><text x="844.5" y="242.5" fill="#27313a" font-size="10.8" font-weight="600" text-anchor="middle" dominant-baseline="central">③ clock-back / rollover</text></g><defs><filter id="sh" x="-20%" y="-20%" width="140%" height="140%"><feDropShadow dx="0" dy="1" stdDeviation="1.1" flood-color="#000" flood-opacity="0.13"></feDropShadow></filter></defs></svg>