<svg version="1.1" xmlns="http://www.w3.org/2000/svg" viewBox="0 0 1180 644" width="1180" height="644">
  <!-- svg-source:gen-whiteboards.js -->
  <defs><style class="style-fonts">
@font-face{font-family:"Virgil";src:url("https://unpkg.com/@excalidraw/excalidraw@0.17.6/dist//dist/excalidraw-assets/Virgil.woff2");}
</style></defs>
  <rect x="0" y="0" width="1180" height="644" fill="#ffffff"></rect>
  <text x="24" y="26" font-family="Virgil, Segoe UI Emoji" font-size="22px" fill="#1e1e1e" text-anchor="start" dominant-baseline="central" style="white-space:pre">Distributed Unique ID Generator (Snowflake) — how you'd draw it live on the whiteboard</text>
  <text x="24" y="58" font-family="Virgil, Segoe UI Emoji" font-size="13px" fill="#868e96" text-anchor="start" dominant-baseline="central" style="white-space:pre">green = client   ·   grey = edge / LB   ·   blue = service   ·   red = datastore   ·   orange = queue / stream   ·   violet = 3rd-party</text>
  <g transform="translate(0 84)"><g transform="translate(388 172)"><path d="M18 0 C133.47 0.92, 247.53 -0.54, 365.94 -0.3 C376.12 -0.4, 383.33 8.2, 384 18 C383.64 52.07, 384.98 86.34, 383.61 121.71 C384.26 132.36, 375.11 140.76, 366 140 C251.15 140.36, 136.66 139.38, 18.13 140.06 C8.43 139.24, -0.79 132.46, 0 122 C-0.77 88.17, 0.93 54.01, -0.27 17.87 C-0.65 7.29, 8.98 0.38, 18 0" stroke="#495057" stroke-width="1.8" fill="none" stroke-linecap="round" stroke-dasharray="8 9"></path></g><path d="M580 93 C580.81 127.93, 580.84 163.73, 580.51 201.3" stroke="#1e1e1e" stroke-width="1.6" fill="none" stroke-linecap="round"></path><path d="M580 201 L575.51 190.96 M580 201 L584.49 190.96" stroke="#1e1e1e" stroke-width="1.6" fill="none" stroke-linecap="round"></path><path d="M580 283 C579.53 315.22, 579.61 346.59, 579.74 381.07" stroke="#1e1e1e" stroke-width="1.6" fill="none" stroke-linecap="round"></path><path d="M580 381 L575.51 370.96 M580 381 L584.49 370.96" stroke="#1e1e1e" stroke-width="1.6" fill="none" stroke-linecap="round"></path><path d="M246 242 C297.97 242.05, 351.59 241.4, 404.78 242.33" stroke="#1e1e1e" stroke-width="1.6" fill="none" stroke-linecap="round"></path><path d="M405 242 L394.96 246.49 M405 242 L394.96 237.51" stroke="#1e1e1e" stroke-width="1.6" fill="none" stroke-linecap="round"></path><path d="M934 242 C875.36 241.67, 816.66 242.18, 754.91 242.17" stroke="#1e1e1e" stroke-width="1.6" fill="none" stroke-linecap="round"></path><path d="M755 242 L765.04 237.51 M755 242 L765.04 246.49" stroke="#1e1e1e" stroke-width="1.6" fill="none" stroke-linecap="round"></path><g transform="translate(430 39)"><path d="M16 0 C104.97 0.25, 192.81 0.4, 284.05 -0.23 C292.68 0.13, 299.53 7.67, 300 16 C299.73 23.64, 300.19 30.25, 299.71 38.1 C300.31 46.78, 292.89 54.08, 284 54 C196.09 53.74, 106.97 54.02, 16.11 54.27 C7.62 53.43, 0.6 46.98, 0 38 C-0.32 30.8, -0.3 23.7, 0 16.18 C0.39 6.74, 7.77 0.2, 16 0 Z" stroke="none" fill="#b2f2bb"></path><path d="M16 0 C105.37 -0.53, 192.91 -1.13, 283.46 -0.43 C293.48 -0.83, 300.55 7.09, 300 16 C300.9 22.76, 300.72 30.04, 299.47 37.63 C300.63 45.63, 292.99 55.27, 284 54 C194.48 54.08, 106.91 55.08, 15.34 53.52 C8.46 54.4, -0.85 48.17, 0 38 C-0.64 29.53, -0.94 23.71, 0.3 15.67 C-0.11 8.04, 8.22 -1.17, 16 0 M16 0 C105.31 0.78, 193 -1.23, 284.08 -0.37 C293.95 0.43, 300.4 7.11, 300 16 C300.04 24.22, 300.89 30.81, 299.47 37.46 C299.93 46.91, 292.16 54.67, 284 54 C194.55 54.93, 108.05 53.85, 15.73 53.81 C8.48 52.87, -0.34 47.89, 0 38 C-0.41 31.42, 1.06 22.87, -0.09 15.69 C-1.25 8.26, 7.84 -0.49, 16 0" stroke="#2f9e44" stroke-width="1.7" fill="none" stroke-linecap="round"></path></g><text x="580" y="57" font-family="Virgil, Segoe UI Emoji" font-size="15px" fill="#1e1e1e" text-anchor="middle" dominant-baseline="central" style="white-space:pre">Client services</text><text x="580" y="76" font-family="Virgil, Segoe UI Emoji" font-size="12px" fill="#495057" text-anchor="middle" dominant-baseline="central" style="white-space:pre">request IDs</text><g transform="translate(405 201)"><path d="M16 0 C120.99 -0.28, 225.33 0.01, 334.03 0.18 C343.27 -0.41, 350.01 7.65, 350 16 C349.97 32.56, 349.91 49.49, 349.96 65.91 C350.54 75.39, 343.02 82.34, 334 82 C228.5 81.67, 124 81.69, 15.85 82.16 C7.46 82.4, -0.17 74.95, 0 66 C-0.28 49.55, 0.6 32.48, 0.08 15.77 C-0.11 7.34, 7.29 -0.41, 16 0 Z" stroke="none" fill="#a5d8ff"></path><path d="M16 0 C121.22 -0.49, 225.92 -1.23, 333.35 -0.48 C342.44 -0.88, 349.6 7.44, 350 16 C350.03 32.58, 348.78 50.27, 349.86 65.74 C349.38 74.77, 341.7 81.51, 334 82 C228.4 83.22, 123.39 82.14, 16.61 81.96 C6.96 83.32, 0.14 74.52, 0 66 C-1.37 50.39, 1.21 32.1, -0.69 16.68 C-0.26 8.4, 7.93 1.13, 16 0 M16 0 C122.18 1.28, 224.78 -0.17, 334.6 -0.13 C341.9 0.77, 349.22 7.57, 350 16 C349.48 33.8, 349.27 48.5, 350.13 66.29 C350.68 73.81, 342.41 83.36, 334 82 C228.03 81.19, 123.54 81.65, 15.96 82.27 C5.91 82.56, -0.79 74.43, 0 66 C-0.02 49, -1.04 32.79, -0.37 16.06 C0.84 6.21, 6.44 0.03, 16 0" stroke="#1971c2" stroke-width="1.7" fill="none" stroke-linecap="round"></path></g><text x="580" y="233" font-family="Virgil, Segoe UI Emoji" font-size="15px" fill="#1e1e1e" text-anchor="middle" dominant-baseline="central" style="white-space:pre">ID Generation Service</text><text x="580" y="252" font-family="Virgil, Segoe UI Emoji" font-size="12px" fill="#495057" text-anchor="middle" dominant-baseline="central" style="white-space:pre">nodes · assemble 64-bit</text><g transform="translate(34 203)"><path d="M16 0 C75.12 0.05, 135.25 0.52, 195.88 -0.11 C204.33 0.47, 211.82 7.2, 212 16 C212.17 31.4, 211.47 45.84, 212.27 61.83 C211.51 70.23, 204.85 78.02, 196 78 C136.01 78.12, 76.82 78.24, 16.05 77.92 C7.51 77.99, -0.26 70.87, 0 62 C0.33 46.23, 0.15 31.89, -0.27 16.01 C0.01 7.07, 7.7 -0.08, 16 0 Z" stroke="none" fill="#ffc9c9"></path><path d="M16 0 C75.07 0.33, 135.49 -0.03, 196.43 0.05 C205.67 0.49, 212.65 6.22, 212 16 C212.29 30.58, 212.42 47.62, 212.17 61.97 C213.08 69.53, 204.9 77.86, 196 78 C136.72 79.36, 77.18 79.36, 16.05 77.67 C6.49 78.73, 0.83 69.42, 0 62 C0.02 47.36, -0.75 32.67, 0.08 15.83 C0.39 6.14, 7.23 -0.65, 16 0 M16 0 C75.69 0.95, 135.38 0.05, 196.25 -0.47 C204.86 0.43, 211.03 6.65, 212 16 C213.2 30.55, 211.02 45.56, 212.49 61.35 C211.37 71.89, 204.1 77.18, 196 78 C136.86 78.02, 78.54 79.35, 15.3 78.02 C8.5 77.73, -0.07 69.82, 0 62 C-0.05 45.45, -0.97 32.94, 0.09 15.89 C-1.11 8.4, 7.81 1.29, 16 0" stroke="#e03131" stroke-width="1.7" fill="none" stroke-linecap="round"></path></g><text x="140" y="233" font-family="Virgil, Segoe UI Emoji" font-size="15px" fill="#1e1e1e" text-anchor="middle" dominant-baseline="central" style="white-space:pre">Coordination</text><text x="140" y="252" font-family="Virgil, Segoe UI Emoji" font-size="10.8px" fill="#495057" text-anchor="middle" dominant-baseline="central" style="white-space:pre">ZooKeeper / etcd · machine-id lease</text><g transform="translate(934 203)"><path d="M16 0 C75.97 0.09, 134.22 0.08, 195.74 0.13 C205.02 -0.33, 211.57 7.14, 212 16 C212.52 31.09, 212.02 46.22, 212.13 62.17 C211.88 71.23, 204.75 77.62, 196 78 C136.39 78.45, 76.95 77.54, 16 78.23 C6.78 78.22, -0.37 70.81, 0 62 C0.36 46.46, 0.07 32.14, 0.25 15.71 C0.02 7.61, 6.7 0.36, 16 0 Z" stroke="none" fill="#ffc9c9"></path><path d="M16 0 C75.71 -1.18, 133.79 0.09, 195.64 0.44 C203.79 0.43, 211.38 5.87, 212 16 C210.64 32.17, 211.35 46.11, 212.62 61.81 C211.56 70.84, 205.1 78, 196 78 C136.34 77, 76.37 77.74, 16.45 78.56 C5.97 76.74, -0.46 71.26, 0 62 C1.08 46.93, 0.16 33.02, -0.67 15.45 C-0.46 7.55, 8.45 -1.09, 16 0 M16 0 C75.52 1.03, 135.53 -1.13, 195.35 -0.01 C204.33 1.19, 212.69 5.97, 212 16 C211.09 31.1, 212.01 47.18, 212.51 62.11 C212.58 70.75, 205.37 78.66, 196 78 C137.55 78.91, 77.08 77.58, 16.33 77.87 C6.9 78.86, -0.61 70.97, 0 62 C-0.35 45.56, -0.96 32.08, 0.16 16.57 C1.28 7.54, 7.76 -1.36, 16 0" stroke="#e03131" stroke-width="1.7" fill="none" stroke-linecap="round"></path></g><text x="1040" y="233" font-family="Virgil, Segoe UI Emoji" font-size="15px" fill="#1e1e1e" text-anchor="middle" dominant-baseline="central" style="white-space:pre">NTP / Clock</text><text x="1040" y="252" font-family="Virgil, Segoe UI Emoji" font-size="12px" fill="#495057" text-anchor="middle" dominant-baseline="central" style="white-space:pre">skew handling</text><g transform="translate(290 381)"><path d="M16 0 C196.68 0.23, 377.12 0.2, 563.72 -0.12 C573.25 -0.15, 579.44 6.68, 580 16 C580.16 31.77, 580.43 46.05, 580.27 61.99 C579.55 70.74, 572.42 77.6, 564 78 C382.99 78.41, 201.73 78.1, 15.75 77.83 C7.21 78.37, 0.14 70.47, 0 62 C-0.21 46.5, 0.41 31.17, 0.05 15.73 C-0.37 7.67, 6.85 0.38, 16 0 Z" stroke="none" fill="#ffc9c9"></path><path d="M16 0 C197.91 -1.28, 376.29 0.77, 564.5 0.2 C571.63 -1.32, 581.18 6.18, 580 16 C579.76 30.97, 578.97 47.51, 580.27 62.1 C578.63 69.73, 573.02 79.29, 564 78 C382.77 78.83, 201.76 79.2, 16.37 77.85 C7.42 78.89, -0.34 70.03, 0 62 C-0.47 45.52, -1.28 31.72, 0.17 15.76 C0.38 7.48, 6.76 0.54, 16 0 M16 0 C197.57 0.57, 378.92 -1.12, 564.67 0.35 C571.43 0.67, 580.01 7.57, 580 16 C579.03 31.97, 579.31 47.18, 580.43 62.28 C581.16 70.15, 574.01 77.6, 564 78 C382.29 77.01, 202.26 77.39, 15.85 78.18 C7.37 78.51, 0.14 69.77, 0 62 C1.08 48.13, -0.51 32.45, 0.3 16.57 C1.34 6.1, 6.1 -0.39, 16 0" stroke="#e03131" stroke-width="1.7" fill="none" stroke-linecap="round"></path></g><text x="580" y="411" font-family="Virgil, Segoe UI Emoji" font-size="15px" fill="#1e1e1e" text-anchor="middle" dominant-baseline="central" style="white-space:pre">Snowflake 64-bit ID</text><text x="580" y="430" font-family="Virgil, Segoe UI Emoji" font-size="12px" fill="#495057" text-anchor="middle" dominant-baseline="central" style="white-space:pre">1 sign · 41 ms timestamp · 10 machine · 12 sequence</text><rect x="401" y="163" width="75" height="18" fill="#ffffff" stroke="none"></rect><text x="406" y="172" font-family="Virgil, Segoe UI Emoji" font-size="12.5px" fill="#495057" text-anchor="start" dominant-baseline="central" style="white-space:pre">ID Service</text><rect x="540.12" y="138" width="79.76" height="18" rx="6" ry="6" fill="#ffffff" fill-opacity="0.82" stroke="none"></rect><text x="580" y="147" font-family="Virgil, Segoe UI Emoji" font-size="11.5px" fill="#27313a" text-anchor="middle" dominant-baseline="central" style="white-space:pre">① request id</text><rect x="494.23" y="323" width="171.54" height="18" rx="6" ry="6" fill="#ffffff" fill-opacity="0.82" stroke="none"></rect><text x="580" y="332" font-family="Virgil, Segoe UI Emoji" font-size="8.5px" fill="#27313a" text-anchor="middle" dominant-baseline="central" style="white-space:pre">② assemble: time | dc | machine | seq</text><rect x="273.66" y="233" width="103.68" height="18" rx="6" ry="6" fill="#ffffff" fill-opacity="0.82" stroke="none"></rect><text x="325.5" y="242" font-family="Virgil, Segoe UI Emoji" font-size="11.5px" fill="#27313a" text-anchor="middle" dominant-baseline="central" style="white-space:pre">machine-id lease</text><rect x="771.73" y="233" width="145.54" height="18" rx="6" ry="6" fill="#ffffff" fill-opacity="0.82" stroke="none"></rect><text x="844.5" y="242" font-family="Virgil, Segoe UI Emoji" font-size="11.5px" fill="#27313a" text-anchor="middle" dominant-baseline="central" style="white-space:pre">③ clock-back / rollover</text></g>
</svg>
