<svg version="1.1" xmlns="http://www.w3.org/2000/svg" viewBox="0 0 1200 696" width="1200" height="696">
  <!-- svg-source:gen-whiteboards.js -->
  <defs><style class="style-fonts">
@font-face{font-family:"Virgil";src:url("https://unpkg.com/@excalidraw/excalidraw@0.17.6/dist//dist/excalidraw-assets/Virgil.woff2");}
</style></defs>
  <rect x="0" y="0" width="1200" height="696" fill="#ffffff"></rect>
  <text x="24" y="26" font-family="Virgil, Segoe UI Emoji" font-size="22px" fill="#1e1e1e" text-anchor="start" dominant-baseline="central" style="white-space:pre">URL Shortener (TinyURL) — how you'd draw it live on the whiteboard</text>
  <text x="24" y="58" font-family="Virgil, Segoe UI Emoji" font-size="13px" fill="#868e96" text-anchor="start" dominant-baseline="central" style="white-space:pre">green = client   ·   grey = edge / LB   ·   blue = service   ·   red = datastore   ·   orange = queue / stream   ·   violet = 3rd-party</text>
  <g transform="translate(0 84)"><g transform="translate(68 208)"><path d="M18 0 C110.69 -0.85, 203.67 0.77, 297.96 0.05 C307.87 0.51, 316.91 7.46, 316 18 C316.55 102.09, 315.97 187.23, 315.52 273.91 C316.98 284.32, 308.43 291.56, 298 292 C205.92 292.3, 114.02 291.29, 17.82 292.35 C8.87 292.42, -0.6 284, 0 274 C-0.15 189.02, -0.86 105.11, -0.23 18.29 C0.45 8.81, 7.3 -0.34, 18 0" stroke="#495057" stroke-width="1.8" fill="none" stroke-linecap="round" stroke-dasharray="8 9"></path></g><g transform="translate(830 208)"><path d="M18 0 C103.74 0.47, 191.91 -0.22, 280.47 0.2 C289.82 -0.65, 298.15 8.74, 298 18 C298.53 38.93, 297.33 58.93, 297.98 79.73 C298.91 90.89, 290.55 98.65, 280 98 C194.1 97.17, 106.15 97.34, 17.74 98.14 C8.35 97.72, -0.59 89.03, 0 80 C-0.69 60.42, -0.38 38.93, 0.15 18.07 C0.98 9.1, 8.35 0.63, 18 0" stroke="#495057" stroke-width="1.8" fill="none" stroke-linecap="round" stroke-dasharray="8 9"></path></g><path d="M600 76 C599.94 83.78, 599.53 91.06, 600.41 98.82" stroke="#1e1e1e" stroke-width="1.6" fill="none" stroke-linecap="round"></path><path d="M600 99 L595.51 88.96 M600 99 L604.49 88.96" stroke="#1e1e1e" stroke-width="1.6" fill="none" stroke-linecap="round"></path><path d="M600 157 C599.5 177.93, 600.61 198.3, 599.53 219.59 C475.7 219.51, 353.15 220.42, 225.01 220.51 C225.05 224.58, 224.63 227.29, 224.52 232.11" stroke="#1e1e1e" stroke-width="1.6" fill="none" stroke-linecap="round"></path><path d="M225 232 L220.51 221.96 M225 232 L229.49 221.96" stroke="#1e1e1e" stroke-width="1.6" fill="none" stroke-linecap="round"></path><path d="M600 157 C599.99 178.58, 600.87 199.24, 599.55 220.14 C724 220.21, 847.09 219.62, 974.5 220.51 C975.27 224.44, 974.45 227.05, 974.81 231.77" stroke="#1e1e1e" stroke-width="1.6" fill="none" stroke-linecap="round"></path><path d="M975 232 L970.51 221.96 M975 232 L979.49 221.96" stroke="#1e1e1e" stroke-width="1.6" fill="none" stroke-linecap="round"></path><path d="M225 296 C225 336.67, 224.25 376.71, 224.92 417.52" stroke="#1e1e1e" stroke-width="1.6" fill="none" stroke-linecap="round"></path><path d="M225 418 L220.51 407.96 M225 418 L229.49 407.96" stroke="#1e1e1e" stroke-width="1.6" fill="none" stroke-linecap="round"></path><path d="M351 264 C368.35 264.56, 383.61 263.78, 400.86 264.37 C399.54 287.78, 400.7 310.95, 400.07 336.06 C416.37 335.67, 433.14 334.92, 450.48 335.87" stroke="#1e1e1e" stroke-width="1.6" fill="none" stroke-linecap="round"></path><path d="M450 336 L439.96 340.49 M450 336 L439.96 331.51" stroke="#1e1e1e" stroke-width="1.6" fill="none" stroke-linecap="round"></path><path d="M840 264 C825.07 263.35, 810.17 264.4, 795.22 263.45 C794.77 288.53, 795.53 311.89, 795.37 336.13 C779.05 335.38, 765.36 336.38, 750.38 335.61" stroke="#1e1e1e" stroke-width="1.6" fill="none" stroke-linecap="round"></path><path d="M750 336 L760.04 331.51 M750 336 L760.04 340.49" stroke="#1e1e1e" stroke-width="1.6" fill="none" stroke-linecap="round"></path><path d="M975 296 C974.37 327.85, 975.98 360.4, 974.96 394.48 C851.77 394.6, 726.68 396.03, 600.45 394.66 C598.97 404.92, 598.95 414.76, 600.08 425.3" stroke="#1e1e1e" stroke-width="1.6" fill="none" stroke-linecap="round"></path><path d="M600 425 L595.51 414.96 M600 425 L604.49 414.96" stroke="#1e1e1e" stroke-width="1.6" fill="none" stroke-linecap="round"></path><path d="M600 479 C599.84 494.68, 599.58 512.13, 600.16 528.97" stroke="#1e1e1e" stroke-width="1.6" fill="none" stroke-linecap="round"></path><path d="M600 529 L595.51 518.96 M600 529 L604.49 518.96" stroke="#1e1e1e" stroke-width="1.6" fill="none" stroke-linecap="round"></path><g transform="translate(450 28)"><path d="M16 0 C104.12 0.25, 193.31 0.16, 283.94 -0.06 C293.01 0.59, 299.66 7.38, 300 16 C299.49 21.49, 300.2 26.54, 300.01 32.05 C300.3 40.63, 293.34 47.9, 284 48 C195.43 47.96, 106.59 48.6, 16.14 47.85 C6.8 48.51, 0.15 40.36, 0 32 C-0.33 26.85, 0.34 21.76, -0.03 15.79 C-0.3 7.2, 7.29 0.03, 16 0 Z" stroke="none" fill="#b2f2bb"></path><path d="M16 0 C105.7 -1.23, 194.01 0.02, 284.2 0.06 C293.87 -1.31, 298.89 6.63, 300 16 C300.71 21.06, 300.96 25.77, 299.85 32.37 C299.36 41.1, 293.19 46.99, 284 48 C196.54 46.94, 106.37 47.12, 15.62 47.9 C7.97 46.84, 1.04 41, 0 32 C-0.7 26.94, -0.27 21.95, -0.63 15.64 C0.02 5.81, 7.62 -1.03, 16 0 M16 0 C104.3 -0.63, 192.95 -0.28, 283.59 -0.63 C291.79 0.26, 299.98 6.42, 300 16 C299.32 22.45, 300.07 25.31, 300.68 31.7 C299.1 41.69, 293.08 47.03, 284 48 C196.66 49.04, 107.82 47.71, 16 47.81 C6.87 47.88, -0.86 40.53, 0 32 C-1.28 28.05, 0.54 21.04, -0.36 15.91 C-0.54 6.67, 8.39 -0.48, 16 0" stroke="#2f9e44" stroke-width="1.7" fill="none" stroke-linecap="round"></path></g><text x="600" y="43" font-family="Virgil, Segoe UI Emoji" font-size="15px" fill="#1e1e1e" text-anchor="middle" dominant-baseline="central" style="white-space:pre">Clients</text><text x="600" y="62" font-family="Virgil, Segoe UI Emoji" font-size="12px" fill="#495057" text-anchor="middle" dominant-baseline="central" style="white-space:pre">browsers · apps · API</text><g transform="translate(420 99)"><path d="M16 0 C124.41 0.48, 232.89 0.05, 343.77 -0.18 C353.08 -0.13, 360 7.68, 360 16 C360.19 24.95, 359.8 33.12, 359.74 41.97 C359.41 50.46, 352.79 57.91, 344 58 C235.37 57.48, 128.1 57.45, 16 58.04 C6.78 57.88, 0.27 50.61, 0 42 C-0.28 33.97, -0.16 25.1, -0.18 16.22 C0.33 7.55, 7.52 0.4, 16 0 Z" stroke="none" fill="#dee2e6"></path><path d="M16 0 C123.56 -0.06, 232.24 -0.95, 344.21 0.54 C352.83 -0.54, 360.01 5.8, 360 16 C360.25 23.81, 359.83 32.61, 360.48 42.03 C358.74 51.79, 352.59 56.9, 344 58 C235.28 57.12, 127 58.45, 16.03 57.39 C7.54 56.86, -0.77 51.79, 0 42 C-0.61 34.39, -0.43 24.47, 0.09 16.47 C-0.52 8.52, 8.46 -0.7, 16 0 M16 0 C124.9 -0.16, 233.28 -0.14, 344.42 0.39 C352.2 -0.28, 358.68 7.03, 360 16 C359.76 25.01, 361.17 33.88, 359.4 41.49 C360.24 51.08, 353.8 57.94, 344 58 C235.68 56.68, 127.8 58.99, 16.32 57.51 C6.51 59.28, 0.75 50.27, 0 42 C-0.72 32.51, 0.13 23.99, 0.66 15.72 C0.34 6.23, 8.17 -0.15, 16 0" stroke="#495057" stroke-width="1.7" fill="none" stroke-linecap="round"></path></g><text x="600" y="119" font-family="Virgil, Segoe UI Emoji" font-size="15px" fill="#1e1e1e" text-anchor="middle" dominant-baseline="central" style="white-space:pre">API Gateway + CDN</text><text x="600" y="138" font-family="Virgil, Segoe UI Emoji" font-size="12px" fill="#495057" text-anchor="middle" dominant-baseline="central" style="white-space:pre">TLS · cache</text><g transform="translate(99 232)"><path d="M16 0 C88.62 0.03, 161.27 0.07, 235.84 0 C244.36 -0.49, 251.72 6.85, 252 16 C252.25 26.44, 252.19 36.91, 252.21 48.3 C251.45 56.22, 245.4 64, 236 64 C163.19 64.36, 90.21 63.96, 16.22 64.16 C7.01 64.44, 0.25 56.76, 0 48 C0.5 36.92, -0.31 27.15, 0.21 16.04 C0.16 7.45, 7.65 -0.3, 16 0 Z" stroke="none" fill="#a5d8ff"></path><path d="M16 0 C88.71 1.1, 161.15 1.1, 235.32 -0.18 C243.92 -0.49, 250.75 8.35, 252 16 C251.43 26.12, 253.1 37.47, 252.67 47.39 C252.8 56.8, 245.94 63.78, 236 64 C162.51 62.73, 90.72 64.15, 16.08 63.75 C7.69 64.64, -0.25 56.11, 0 48 C0.52 36.71, -1.04 26.45, -0.69 16.16 C0.99 6.52, 7.41 -0.53, 16 0 M16 0 C89.38 -0.88, 162.4 1.09, 235.79 0.49 C246.07 -0.9, 253.14 7.75, 252 16 C252.73 25.43, 252.61 35.75, 251.91 48.26 C252.87 56.71, 244.65 64.46, 236 64 C162.55 62.91, 89.54 62.82, 15.54 63.92 C7.11 65.04, -0.92 57.99, 0 48 C0.74 36.07, -0.79 27.44, 0.26 16.01 C0.31 5.95, 6.76 -1.14, 16 0" stroke="#1971c2" stroke-width="1.7" fill="none" stroke-linecap="round"></path></g><text x="225" y="255" font-family="Virgil, Segoe UI Emoji" font-size="15px" fill="#1e1e1e" text-anchor="middle" dominant-baseline="central" style="white-space:pre">Write Service</text><text x="225" y="274" font-family="Virgil, Segoe UI Emoji" font-size="12px" fill="#495057" text-anchor="middle" dominant-baseline="central" style="white-space:pre">base62(id) / custom alias</text><g transform="translate(840 232)"><path d="M16 0 C94.27 -0.23, 173.28 0.59, 253.86 0.26 C263.14 0.1, 269.81 6.72, 270 16 C269.54 27.12, 269.99 36.93, 269.74 48.14 C269.83 56.88, 262.24 64.6, 254 64 C175.76 63.85, 96.8 64.05, 15.76 63.81 C6.92 64.15, -0.31 56.78, 0 48 C0.3 37.3, 0.07 27.17, 0.2 15.82 C0.01 6.96, 7.62 0.33, 16 0 Z" stroke="none" fill="#a5d8ff"></path><path d="M16 0 C95.18 0.96, 172.83 1.21, 253.88 0.12 C262.01 1.39, 270.26 7.18, 270 16 C271.01 26.03, 269.9 37.36, 270.03 47.69 C270.13 57.99, 262.81 64.79, 254 64 C174.56 63.59, 97.54 63.99, 15.74 64.61 C5.9 65.27, -0.51 57.8, 0 48 C-1.15 37.7, -0.71 27.59, -0.17 16 C0.85 6.55, 7.43 -0.77, 16 0 M16 0 C94.38 1, 173.22 -0.96, 253.7 -0.41 C262.99 -1.29, 270.42 6.31, 270 16 C269.19 25.26, 271.08 36.83, 269.63 48.18 C270.58 56.11, 262.57 65.03, 254 64 C175.74 62.98, 97.16 64.41, 15.84 64.34 C8.29 63.51, -0.31 55.98, 0 48 C1.03 38.21, 0.87 27.88, -0.25 15.98 C0.13 8.01, 6.41 -1.06, 16 0" stroke="#1971c2" stroke-width="1.7" fill="none" stroke-linecap="round"></path></g><text x="975" y="255" font-family="Virgil, Segoe UI Emoji" font-size="15px" fill="#1e1e1e" text-anchor="middle" dominant-baseline="central" style="white-space:pre">Redirect Service</text><text x="975" y="274" font-family="Virgil, Segoe UI Emoji" font-size="12px" fill="#495057" text-anchor="middle" dominant-baseline="central" style="white-space:pre">301 / 302 lookup</text><g transform="translate(450 303)"><path d="M16 0 C104.14 0.29, 192.62 -0.08, 283.76 0.24 C292.75 -0.13, 300.11 7.78, 300 16 C300.26 27.34, 300.44 38.67, 300.21 50.02 C300.01 59.19, 292.78 65.81, 284 66 C196.15 66.59, 107.11 66.57, 15.8 65.95 C7.7 65.62, 0.24 58.34, 0 50 C0.45 38.49, -0.54 27.75, 0.12 15.76 C0.07 7.37, 7.76 -0.12, 16 0 Z" stroke="none" fill="#ffc9c9"></path><path d="M16 0 C104 0.71, 192.16 0.28, 283.56 -0.27 C291.86 -0.85, 299.4 6.05, 300 16 C301.14 26.01, 299.35 37.89, 299.88 49.44 C299.82 59.15, 292.69 64.72, 284 66 C194.82 67.34, 106.75 64.96, 16.17 65.94 C6.02 65.66, -0.05 57.75, 0 50 C0.73 38.28, -0.33 28.19, 0.68 15.58 C0.97 5.91, 6.9 -0.81, 16 0 M16 0 C105.4 -1.39, 191.56 -0.09, 283.81 -0.17 C293.22 -1.09, 300.2 5.9, 300 16 C299.1 26.45, 300.99 39.71, 300.35 50.33 C300.56 59.21, 291.96 65.33, 284 66 C196.38 67.02, 107.24 65.57, 15.55 65.59 C5.91 65.55, 0.07 59.44, 0 50 C0.31 39.64, -1.2 28.09, -0.18 16.15 C-0.04 7.62, 7.72 -0.93, 16 0" stroke="#e03131" stroke-width="1.7" fill="none" stroke-linecap="round"></path></g><text x="600" y="327" font-family="Virgil, Segoe UI Emoji" font-size="15px" fill="#1e1e1e" text-anchor="middle" dominant-baseline="central" style="white-space:pre">KV Store</text><text x="600" y="346" font-family="Virgil, Segoe UI Emoji" font-size="12px" fill="#495057" text-anchor="middle" dominant-baseline="central" style="white-space:pre">Redis (hot) + DynamoDB/Cassandra (cold)</text><g transform="translate(99 418)"><path d="M16 0 C88.56 -0.02, 161.36 0.28, 235.94 0.11 C244.81 0.23, 251.93 6.92, 252 16 C252.17 25.83, 251.48 34.39, 252.23 44.01 C252.12 52.57, 245.2 60.11, 236 60 C163.72 60.48, 90.32 60.09, 16.05 59.81 C7.53 59.7, 0.52 53.01, 0 44 C0.43 34.54, -0.31 25.42, -0.27 15.84 C-0.5 7.72, 7.34 0.38, 16 0 Z" stroke="none" fill="#a5d8ff"></path><path d="M16 0 C89.89 0.78, 161.25 -1.07, 236.66 -0.03 C245.5 0.75, 252.34 7.25, 252 16 C252.47 24.25, 253.36 33.66, 251.77 43.82 C251.8 52.85, 245.45 59.86, 236 60 C163.24 60.62, 91.55 60.89, 16.5 59.95 C6.21 60.84, -1.24 54.03, 0 44 C-0.65 34.73, -0.2 25.44, -0.44 16.29 C0.68 6.02, 6.09 -0.11, 16 0 M16 0 C89.14 1.26, 162.06 0.73, 236.13 -0.03 C244.08 0.22, 252.55 8.06, 252 16 C250.76 26.15, 251.35 34.66, 252 44.6 C252.47 53.52, 245.61 59.79, 236 60 C162.96 60.97, 92.11 58.67, 16.55 60.04 C5.95 60.43, 0.94 52.39, 0 44 C0.63 34.14, -1.29 26.31, -0.56 16.02 C1.26 7.86, 7.4 -1.09, 16 0" stroke="#1971c2" stroke-width="1.7" fill="none" stroke-linecap="round"></path></g><text x="225" y="439" font-family="Virgil, Segoe UI Emoji" font-size="15px" fill="#1e1e1e" text-anchor="middle" dominant-baseline="central" style="white-space:pre">ID Generator</text><text x="225" y="458" font-family="Virgil, Segoe UI Emoji" font-size="12px" fill="#495057" text-anchor="middle" dominant-baseline="central" style="white-space:pre">Snowflake / counter</text><g transform="translate(450 425)"><path d="M16 0 C103.89 0.32, 192.72 -0.22, 284.05 0.1 C292.22 0.54, 300.08 7.5, 300 16 C299.69 22.75, 300.05 30.89, 300.13 38.16 C300.01 46.65, 292.32 53.95, 284 54 C195.63 53.72, 106.58 54.41, 15.97 54.26 C7.04 53.66, 0.08 46.63, 0 38 C0.4 30.69, 0.36 23.14, -0.17 15.93 C-0.46 7.15, 7.01 0.21, 16 0 Z" stroke="none" fill="#ffd8a8"></path><path d="M16 0 C104.76 1.02, 191.87 -0.9, 283.6 0.43 C292.25 -0.38, 299.07 6.55, 300 16 C298.99 23.92, 298.99 31.08, 299.53 37.63 C299.93 47.83, 293.02 55.15, 284 54 C196.47 54.88, 107.9 52.83, 16.1 53.4 C6.25 53.42, 0.94 45.86, 0 38 C-1.16 31.49, -0.85 24.59, -0.35 15.54 C-0.09 7.89, 7.4 -0.57, 16 0 M16 0 C103.24 0.68, 193.96 0.81, 284.13 -0.63 C292.43 1.02, 301.38 7.37, 300 16 C300.13 22.52, 300.34 31.3, 300.02 37.55 C298.89 45.44, 291.44 55.31, 284 54 C194.62 55.01, 107.64 55.38, 15.44 53.47 C6.29 54, -1.19 47.65, 0 38 C0.89 31.53, 0.98 23.62, 0.52 15.93 C-0.61 8.21, 5.8 0.28, 16 0" stroke="#e8590c" stroke-width="1.7" fill="none" stroke-linecap="round"></path></g><text x="600" y="443" font-family="Virgil, Segoe UI Emoji" font-size="15px" fill="#1e1e1e" text-anchor="middle" dominant-baseline="central" style="white-space:pre">Apache Kafka</text><text x="600" y="462" font-family="Virgil, Segoe UI Emoji" font-size="12px" fill="#495057" text-anchor="middle" dominant-baseline="central" style="white-space:pre">click events</text><g transform="translate(460 529)"><path d="M16 0 C97.94 -0.09, 179.37 -0.01, 263.91 0 C272.4 0.49, 279.6 7.3, 280 16 C279.74 24.59, 279.81 33.6, 280.2 41.75 C279.59 51.18, 272.6 58.08, 264 58 C181.56 57.67, 100.57 58.11, 16.21 57.84 C6.96 58.27, -0.15 51, 0 42 C0.22 33.65, -0.53 24.41, 0.11 15.75 C-0.56 6.62, 7.56 -0.12, 16 0 Z" stroke="none" fill="#a5d8ff"></path><path d="M16 0 C99 -0.95, 179.62 -0.45, 263.93 0.17 C272.52 1.22, 280.96 6.73, 280 16 C280.72 23.99, 279.14 34.53, 279.45 42.04 C280.42 50.02, 273.92 56.62, 264 58 C181.34 56.93, 100.5 57.3, 16.37 58.49 C7.54 58.99, 0.63 51.47, 0 42 C0.95 32.21, 0.22 24.4, -0.63 15.52 C-0.8 8.49, 7.15 0.12, 16 0 M16 0 C98.17 0.92, 178.31 1.3, 263.73 -0.43 C273.24 0.86, 280.21 8.07, 280 16 C278.91 23.76, 280.31 33.82, 279.5 41.85 C280.11 51.88, 271.91 59.22, 264 58 C182.94 57.55, 100.88 56.82, 16.35 58.18 C8.36 57.69, -1.07 50.28, 0 42 C-1.33 32.65, -0.1 24.31, 0.5 15.8 C-0.95 7.94, 8.15 1, 16 0" stroke="#1971c2" stroke-width="1.7" fill="none" stroke-linecap="round"></path></g><text x="600" y="549" font-family="Virgil, Segoe UI Emoji" font-size="15px" fill="#1e1e1e" text-anchor="middle" dominant-baseline="central" style="white-space:pre">Analytics</text><text x="600" y="568" font-family="Virgil, Segoe UI Emoji" font-size="12px" fill="#495057" text-anchor="middle" dominant-baseline="central" style="white-space:pre">Flink</text><rect x="81" y="199" width="75" height="18" fill="#ffffff" stroke="none"></rect><text x="86" y="208" font-family="Virgil, Segoe UI Emoji" font-size="12.5px" fill="#495057" text-anchor="start" dominant-baseline="central" style="white-space:pre">Write Path</text><rect x="843" y="199" width="94.5" height="18" fill="#ffffff" stroke="none"></rect><text x="848" y="208" font-family="Virgil, Segoe UI Emoji" font-size="12.5px" fill="#495057" text-anchor="start" dominant-baseline="central" style="white-space:pre">Redirect Path</text><rect x="575.07" y="78.5" width="49.86" height="18" rx="6" ry="6" fill="#ffffff" fill-opacity="0.82" stroke="none"></rect><text x="600" y="87.5" font-family="Virgil, Segoe UI Emoji" font-size="11.5px" fill="#27313a" text-anchor="middle" dominant-baseline="central" style="white-space:pre">request</text><rect x="569.09" y="179.5" width="61.82" height="18" rx="6" ry="6" fill="#ffffff" fill-opacity="0.82" stroke="none"></rect><text x="600" y="188.5" font-family="Virgil, Segoe UI Emoji" font-size="11.5px" fill="#27313a" text-anchor="middle" dominant-baseline="central" style="white-space:pre">① shorten</text><rect x="744.63" y="211" width="85.74" height="18" rx="6" ry="6" fill="#ffffff" fill-opacity="0.82" stroke="none"></rect><text x="787.5" y="220" font-family="Virgil, Segoe UI Emoji" font-size="11.5px" fill="#27313a" text-anchor="middle" dominant-baseline="central" style="white-space:pre">④ GET /{code}</text><rect x="197.08" y="348" width="55.84" height="18" rx="6" ry="6" fill="#ffffff" fill-opacity="0.82" stroke="none"></rect><text x="225" y="357" font-family="Virgil, Segoe UI Emoji" font-size="11.5px" fill="#27313a" text-anchor="middle" dominant-baseline="central" style="white-space:pre">② get id</text><rect x="363.61" y="291" width="73.78" height="18" rx="6" ry="6" fill="#ffffff" fill-opacity="0.82" stroke="none"></rect><text x="400.5" y="300" font-family="Virgil, Segoe UI Emoji" font-size="11.5px" fill="#27313a" text-anchor="middle" dominant-baseline="central" style="white-space:pre">③ store URL</text><rect x="767.08" y="291" width="55.84" height="18" rx="6" ry="6" fill="#ffffff" fill-opacity="0.82" stroke="none"></rect><text x="795" y="300" font-family="Virgil, Segoe UI Emoji" font-size="11.5px" fill="#27313a" text-anchor="middle" dominant-baseline="central" style="white-space:pre">⑤ lookup</text><rect x="744.63" y="386" width="85.74" height="18" rx="6" ry="6" fill="#ffffff" fill-opacity="0.82" stroke="none"></rect><text x="787.5" y="395" font-family="Virgil, Segoe UI Emoji" font-size="11.5px" fill="#27313a" text-anchor="middle" dominant-baseline="central" style="white-space:pre">⑥ click event</text><rect x="575.07" y="495" width="49.86" height="18" rx="6" ry="6" fill="#ffffff" fill-opacity="0.82" stroke="none"></rect><text x="600" y="504" font-family="Virgil, Segoe UI Emoji" font-size="11.5px" fill="#27313a" text-anchor="middle" dominant-baseline="central" style="white-space:pre">consume</text></g>
</svg>
