<?xml version="1.0" encoding="UTF-8"?>
<svg id="diagram" viewBox="0 0 1200 612" xmlns="http://www.w3.org/2000/svg" width="1200" height="612"><rect x="0" y="0" width="1200" height="612" fill="#ffffff"></rect><g><rect x="68" y="208" width="316" height="292" rx="14" ry="14" fill="#f8fafc" stroke="#64748b" stroke-width="1.6" stroke-dasharray="7 5"></rect><rect x="82" y="185" width="90" height="22" rx="7" ry="7" fill="#475569"></rect><text x="127" y="196" fill="#fff" font-size="11.5" font-weight="700" text-anchor="middle" dominant-baseline="central">▢ Write Path</text><rect x="830" y="208" width="298" height="98" rx="14" ry="14" fill="#f8fafc" stroke="#64748b" stroke-width="1.6" stroke-dasharray="7 5"></rect><rect x="844" y="185" width="109.2" height="22" rx="7" ry="7" fill="#475569"></rect><text x="898.6" y="196" fill="#fff" font-size="11.5" font-weight="700" text-anchor="middle" dominant-baseline="central">▢ Redirect Path</text></g><g><path d="M600,76 L600,99" fill="none" stroke="#55606a" stroke-width="1.9" stroke-linejoin="round" stroke-linecap="round"></path><polygon points="600,99 596.126275695934,90.32565506703307 603.873724304066,90.32565506703307" fill="#55606a"></polygon><path d="M600,157 L600,220 L225,220 L225,232" fill="none" stroke="#55606a" stroke-width="1.9" stroke-linejoin="round" stroke-linecap="round"></path><polygon points="225,232 221.12627569593408,223.32565506703307 228.87372430406592,223.32565506703307" fill="#55606a"></polygon><path d="M600,157 L600,220 L975,220 L975,232" fill="none" stroke="#55606a" stroke-width="1.9" stroke-linejoin="round" stroke-linecap="round"></path><polygon points="975,232 971.126275695934,223.32565506703307 978.873724304066,223.32565506703307" fill="#55606a"></polygon><path d="M225,296 L225,418" fill="none" stroke="#55606a" stroke-width="1.9" stroke-linejoin="round" stroke-linecap="round"></path><polygon points="225,418 221.12627569593408,409.3256550670331 228.87372430406592,409.3256550670331" fill="#55606a"></polygon><path d="M351,264 L400.5,264 L400.5,336 L450,336" fill="none" stroke="#55606a" stroke-width="1.9" stroke-linejoin="round" stroke-linecap="round"></path><polygon points="450,336 441.3256550670331,339.87372430406595 441.3256550670331,332.12627569593405" fill="#55606a"></polygon><path d="M840,264 L795,264 L795,336 L750,336" fill="none" stroke="#55606a" stroke-width="1.9" stroke-linejoin="round" stroke-linecap="round"></path><polygon points="750,336 758.674344932967,332.12627569593405 758.674344932967,339.8737243040659" fill="#55606a"></polygon><path d="M975,296 L975,395 L600,395 L600,425" fill="none" stroke="#55606a" stroke-width="1.9" stroke-linejoin="round" stroke-linecap="round"></path><polygon points="600,425 596.126275695934,416.3256550670331 603.873724304066,416.3256550670331" fill="#55606a"></polygon><path d="M600,479 L600,529" fill="none" stroke="#55606a" stroke-width="1.9" stroke-linejoin="round" stroke-linecap="round"></path><polygon points="600,529 596.126275695934,520.325655067033 603.873724304066,520.325655067033" fill="#55606a"></polygon></g><g><rect x="450" y="28" width="300" height="48" rx="9" ry="9" fill="#fff" stroke="#6c757d" stroke-width="1.7" filter="url(#sh)"></rect><path d="M450,50.08 V37 Q450,28 459,28 H741 Q750,28 750,37 V50.08 Z" fill="#6c757d"></path><text x="600" y="39.54" fill="#fff" font-weight="700" font-size="12.5" text-anchor="middle" dominant-baseline="central">Clients</text><text x="600" y="63.04" fill="#3c454d" font-size="10.8" text-anchor="middle" dominant-baseline="central">browsers · apps · API</text><rect x="420" y="99" width="360" height="58" rx="9" ry="9" fill="#fff" stroke="#4338ca" stroke-width="1.7" filter="url(#sh)"></rect><path d="M420,125 V108 Q420,99 429,99 H771 Q780,99 780,108 V125 Z" fill="#4f46e5"></path><text x="600" y="112.5" fill="#fff" font-weight="700" font-size="12.5" text-anchor="middle" dominant-baseline="central">API Gateway + CDN</text><text x="600" y="141" fill="#3c454d" font-size="10.8" text-anchor="middle" dominant-baseline="central">TLS · cache</text><rect x="99" y="232" width="252" height="64" rx="9" ry="9" fill="#fff" stroke="#0F5BB5" stroke-width="1.7" filter="url(#sh)"></rect><path d="M99,258 V241 Q99,232 108,232 H342 Q351,232 351,241 V258 Z" fill="#0078D4"></path><text x="225" y="245.5" fill="#fff" font-weight="700" font-size="12.5" text-anchor="middle" dominant-baseline="central">Write Service</text><text x="225" y="277" fill="#3c454d" font-size="10.8" text-anchor="middle" dominant-baseline="central">base62(id) / custom alias</text><rect x="840" y="232" width="270" height="64" rx="9" ry="9" fill="#fff" stroke="#0F5BB5" stroke-width="1.7" filter="url(#sh)"></rect><path d="M840,258 V241 Q840,232 849,232 H1101 Q1110,232 1110,241 V258 Z" fill="#0078D4"></path><text x="975" y="245.5" fill="#fff" font-weight="700" font-size="12.5" text-anchor="middle" dominant-baseline="central">Redirect Service</text><text x="975" y="277" fill="#3c454d" font-size="10.8" text-anchor="middle" dominant-baseline="central">301 / 302 lookup</text><rect x="450" y="303" width="300" height="66" rx="9" ry="9" fill="#fff" stroke="#0A6E80" stroke-width="1.7" filter="url(#sh)"></rect><path d="M450,329 V312 Q450,303 459,303 H741 Q750,303 750,312 V329 Z" fill="#0C8599"></path><text x="600" y="316.5" fill="#fff" font-weight="700" font-size="12.5" text-anchor="middle" dominant-baseline="central">KV Store</text><text x="600" y="349" fill="#3c454d" font-size="10.8" text-anchor="middle" dominant-baseline="central">Redis (hot) + DynamoDB/Cassandra (cold)</text><rect x="99" y="418" width="252" height="60" rx="9" ry="9" fill="#fff" stroke="#0F5BB5" stroke-width="1.7" filter="url(#sh)"></rect><path d="M99,444 V427 Q99,418 108,418 H342 Q351,418 351,427 V444 Z" fill="#0078D4"></path><text x="225" y="431.5" fill="#fff" font-weight="700" font-size="12.5" text-anchor="middle" dominant-baseline="central">ID Generator</text><text x="225" y="461" fill="#3c454d" font-size="10.8" text-anchor="middle" dominant-baseline="central">Snowflake / counter</text><rect x="450" y="425" width="300" height="54" rx="9" ry="9" fill="#fff" stroke="#C8590B" stroke-width="1.7" filter="url(#sh)"></rect><path d="M450,449.84 V434 Q450,425 459,425 H741 Q750,425 750,434 V449.84 Z" fill="#F7630C"></path><text x="600" y="437.92" fill="#fff" font-weight="700" font-size="12.5" text-anchor="middle" dominant-baseline="central">Apache Kafka</text><text x="600" y="464.41999999999996" fill="#3c454d" font-size="10.8" text-anchor="middle" dominant-baseline="central">click events</text><rect x="460" y="529" width="280" height="58" rx="9" ry="9" fill="#fff" stroke="#0F5BB5" stroke-width="1.7" filter="url(#sh)"></rect><path d="M460,555 V538 Q460,529 469,529 H731 Q740,529 740,538 V555 Z" fill="#0078D4"></path><text x="600" y="542.5" fill="#fff" font-weight="700" font-size="12.5" text-anchor="middle" dominant-baseline="central">Analytics</text><text x="600" y="571" fill="#3c454d" font-size="10.8" text-anchor="middle" dominant-baseline="central">Flink</text></g><g><rect x="571.65" y="78.5" width="56.699999999999996" height="18" rx="9" ry="9" fill="#ffffff" stroke="#dde2e7" stroke-width="1"></rect><text x="600" y="88" fill="#27313a" font-size="10.8" font-weight="600" text-anchor="middle" dominant-baseline="central">request</text><rect x="565.55" y="179.5" width="68.9" height="18" rx="9" ry="9" fill="#ffffff" stroke="#dde2e7" stroke-width="1"></rect><text x="600" y="189" fill="#27313a" font-size="10.8" font-weight="600" text-anchor="middle" dominant-baseline="central">① shorten</text><rect x="740.85" y="211" width="93.3" height="18" rx="9" ry="9" fill="#ffffff" stroke="#dde2e7" stroke-width="1"></rect><text x="787.5" y="220.5" fill="#27313a" font-size="10.8" font-weight="600" text-anchor="middle" dominant-baseline="central">④ GET /{code}</text><rect x="193.6" y="348" width="62.8" height="18" rx="9" ry="9" fill="#ffffff" stroke="#dde2e7" stroke-width="1"></rect><text x="225" y="357.5" fill="#27313a" font-size="10.8" font-weight="600" text-anchor="middle" dominant-baseline="central">② get id</text><rect x="359.95" y="291" width="81.1" height="18" rx="9" ry="9" fill="#ffffff" stroke="#dde2e7" stroke-width="1"></rect><text x="400.5" y="300.5" fill="#27313a" font-size="10.8" font-weight="600" text-anchor="middle" dominant-baseline="central">③ store URL</text><rect x="763.6" y="291" width="62.8" height="18" rx="9" ry="9" fill="#ffffff" stroke="#dde2e7" stroke-width="1"></rect><text x="795" y="300.5" fill="#27313a" font-size="10.8" font-weight="600" text-anchor="middle" dominant-baseline="central">⑤ lookup</text><rect x="740.85" y="386" width="93.3" height="18" rx="9" ry="9" fill="#ffffff" stroke="#dde2e7" stroke-width="1"></rect><text x="787.5" y="395.5" fill="#27313a" font-size="10.8" font-weight="600" text-anchor="middle" dominant-baseline="central">⑥ click event</text><rect x="571.65" y="495" width="56.699999999999996" height="18" rx="9" ry="9" fill="#ffffff" stroke="#dde2e7" stroke-width="1"></rect><text x="600" y="504.5" fill="#27313a" font-size="10.8" font-weight="600" text-anchor="middle" dominant-baseline="central">consume</text></g><defs><filter id="sh" x="-20%" y="-20%" width="140%" height="140%"><feDropShadow dx="0" dy="1" stdDeviation="1.1" flood-color="#000" flood-opacity="0.13"></feDropShadow></filter></defs></svg>