<svg version="1.1" xmlns="http://www.w3.org/2000/svg" viewBox="0 0 1120 944" width="1120" height="944">
  <!-- svg-source:gen-whiteboards.js -->
  <defs><style class="style-fonts">
@font-face{font-family:"Virgil";src:url("https://unpkg.com/@excalidraw/excalidraw@0.17.6/dist//dist/excalidraw-assets/Virgil.woff2");}
</style></defs>
  <rect x="0" y="0" width="1120" height="944" fill="#ffffff"></rect>
  <text x="24" y="26" font-family="Virgil, Segoe UI Emoji" font-size="22px" fill="#1e1e1e" text-anchor="start" dominant-baseline="central" style="white-space:pre">Video Streaming (YouTube / Netflix) — how you'd draw it live on the whiteboard</text>
  <text x="24" y="58" font-family="Virgil, Segoe UI Emoji" font-size="13px" fill="#868e96" text-anchor="start" dominant-baseline="central" style="white-space:pre">green = client   ·   grey = edge / LB   ·   blue = service   ·   red = datastore   ·   orange = queue / stream   ·   violet = 3rd-party</text>
  <g transform="translate(0 84)"><g transform="translate(70 230)"><path d="M18 0 C140.84 0.56, 261.84 -0.06, 388.03 -0.26 C397.08 0.46, 406.56 7.32, 406 18 C406.1 103.62, 405.8 188.87, 406.24 275.6 C406.58 286.67, 397.64 293.41, 388 294 C266.08 293.61, 143.64 294.05, 17.5 293.75 C7.8 293.22, -0.99 285.72, 0 276 C0.87 190.61, -0.58 106.52, -0.46 17.52 C0.94 8.89, 7.71 0.05, 18 0" stroke="#495057" stroke-width="1.8" fill="none" stroke-linecap="round" stroke-dasharray="8 9"></path></g><g transform="translate(282 612)"><path d="M18 0 C125.7 -0.13, 231.63 -0.09, 341.59 -0.22 C351.49 -0.57, 359.89 8.47, 360 18 C359.54 32.95, 360.58 46.76, 360.41 62.15 C360.86 71.86, 351.43 80.71, 342 80 C234.8 80.18, 128.66 79.2, 17.97 80.46 C8.31 79.38, 0.96 71.87, 0 62 C-0.46 48.01, 0.55 32.23, -0.32 17.65 C-0.75 7.53, 7.66 0.53, 18 0" stroke="#495057" stroke-width="1.8" fill="none" stroke-linecap="round" stroke-dasharray="8 9"></path></g><path d="M510 79 C510.47 91.52, 510.15 105.03, 510.5 116.58" stroke="#1e1e1e" stroke-width="1.6" fill="none" stroke-linecap="round"></path><path d="M510 117 L505.51 106.96 M510 117 L514.49 106.96" stroke="#1e1e1e" stroke-width="1.6" fill="none" stroke-linecap="round"></path><path d="M510 175 C509.88 195.43, 510.47 213.72, 510.38 234.52 C429.49 233.19, 348.83 234.21, 265.13 234.1 C264.29 235.07, 264.15 236.95, 264.97 239.16" stroke="#1e1e1e" stroke-width="1.6" fill="none" stroke-linecap="round"></path><path d="M265 239 L260.51 228.96 M265 239 L269.49 228.96" stroke="#1e1e1e" stroke-width="1.6" fill="none" stroke-linecap="round"></path><path d="M410 270 C477.42 270.4, 545.31 269.48, 615.25 269.62 C615.16 266.31, 615.79 262.42, 615.35 257.8 C682.91 258.86, 750.13 257.46, 819.76 258.2" stroke="#1e1e1e" stroke-width="1.6" fill="none" stroke-linecap="round"></path><path d="M820 258 L809.96 262.49 M820 258 L809.96 253.51" stroke="#1e1e1e" stroke-width="1.6" fill="none" stroke-linecap="round"></path><path d="M265 301 C265.5 305.57, 265.56 307.86, 265.15 312.67 C396.16 312.52, 526.03 313.53, 659.91 312.8 C660.39 315.31, 660.67 320.88, 660.54 323.83" stroke="#1e1e1e" stroke-width="1.6" fill="none" stroke-linecap="round"></path><path d="M660 324 L655.51 313.96 M660 324 L664.49 313.96" stroke="#1e1e1e" stroke-width="1.6" fill="none" stroke-linecap="round"></path><path d="M660 380 C659.94 389.43, 659.78 397.19, 660.27 405.79 C533.87 405.77, 405.18 406.57, 274.69 406.12 C275.67 413.73, 275.76 424.03, 275.14 432.21" stroke="#1e1e1e" stroke-width="1.6" fill="none" stroke-linecap="round"></path><path d="M275 432 L270.51 421.96 M275 432 L279.49 421.96" stroke="#1e1e1e" stroke-width="1.6" fill="none" stroke-linecap="round"></path><path d="M467 474 C584.1 473.17, 700.18 473.68, 820.26 473.83" stroke="#1e1e1e" stroke-width="1.6" fill="none" stroke-linecap="round"></path><path d="M820 474 L809.96 478.49 M820 474 L809.96 469.51" stroke="#1e1e1e" stroke-width="1.6" fill="none" stroke-linecap="round"></path><path d="M820 474 C813.46 474.16, 807.78 473.84, 799.58 474.41 C799.11 365.66, 800.98 258.57, 799.78 145.59 C777.83 147.06, 754.86 144.91, 729.62 146.31" stroke="#1e1e1e" stroke-width="1.6" fill="none" stroke-linecap="round"></path><path d="M730 146 L740.04 141.51 M730 146 L740.04 150.49" stroke="#1e1e1e" stroke-width="1.6" fill="none" stroke-linecap="round"></path><path d="M510 175 C510.37 302.08, 508.93 429.22, 510.19 559.53 C494.57 561.02, 476.58 559.68, 459.61 560.19 C459.48 577.16, 459.7 597.07, 459.84 614.75" stroke="#1e1e1e" stroke-width="1.6" fill="none" stroke-linecap="round"></path><path d="M460 615 L455.51 604.96 M460 615 L464.49 604.96" stroke="#1e1e1e" stroke-width="1.6" fill="none" stroke-linecap="round"></path><path d="M630 648 C693.22 648.38, 754.98 648.17, 819.74 648.33" stroke="#1e1e1e" stroke-width="1.6" fill="none" stroke-linecap="round"></path><path d="M820 648 L809.96 652.49 M820 648 L809.96 643.51" stroke="#1e1e1e" stroke-width="1.6" fill="none" stroke-linecap="round"></path><path d="M460 681 C459.4 694.25, 460.63 707.69, 460.2 719.99 C619.55 720.29, 779.59 719.61, 945.23 720.12 C944.24 732.96, 945.03 746.46, 945.36 758.73" stroke="#1e1e1e" stroke-width="1.6" fill="none" stroke-linecap="round"></path><path d="M945 759 L940.51 748.96 M945 759 L949.49 748.96" stroke="#1e1e1e" stroke-width="1.6" fill="none" stroke-linecap="round"></path><g transform="translate(275 29)"><path d="M16 0 C160.78 -0.11, 305.21 0.54, 453.82 0.03 C462.93 -0.37, 470.22 7.77, 470 16 C470.4 21.47, 470.01 27.33, 470.1 34.16 C470.48 42.99, 463.15 50.47, 454 50 C309.62 50.42, 164.41 49.56, 16 50.06 C7.64 49.78, -0.49 43.19, 0 34 C0.22 28.1, -0.18 21.73, -0.26 15.87 C-0.01 7.19, 6.73 -0.11, 16 0 Z" stroke="none" fill="#b2f2bb"></path><path d="M16 0 C159.17 0.39, 304.71 0.1, 454.51 0.34 C463.9 0.21, 471.21 7.38, 470 16 C469.33 22.69, 471.3 26.63, 470.12 34.61 C470.2 44.04, 463.65 50.56, 454 50 C309.81 50.83, 165.82 49.07, 15.86 50.06 C7.16 49.18, -1.08 41.54, 0 34 C0.19 27.2, -0.52 21.41, -0.03 16.14 C1.18 8.07, 6.54 -1.34, 16 0 M16 0 C161.17 0.33, 303.9 1.29, 454.2 0.12 C462.18 0.49, 470.85 6.19, 470 16 C471.32 21.31, 468.85 27.79, 470.28 33.91 C469.48 44.1, 463.85 51.16, 454 50 C310.47 49.07, 164.89 50.91, 15.6 49.5 C8.31 50.33, 0.75 43.02, 0 34 C1.18 28.65, -0.4 21.64, 0.69 15.74 C-0.4 8.05, 7.04 -1.08, 16 0" stroke="#2f9e44" stroke-width="1.7" fill="none" stroke-linecap="round"></path></g><text x="510" y="45" font-family="Virgil, Segoe UI Emoji" font-size="15px" fill="#1e1e1e" text-anchor="middle" dominant-baseline="central" style="white-space:pre">Viewers / Uploaders</text><text x="510" y="64" font-family="Virgil, Segoe UI Emoji" font-size="12px" fill="#495057" text-anchor="middle" dominant-baseline="central" style="white-space:pre">clients · web · mobile · TV</text><g transform="translate(290 117)"><path d="M16 0 C150.83 -0.32, 284.99 -0.24, 424.23 0.27 C433.08 -0.33, 440.59 6.77, 440 16 C439.51 25.06, 440.41 33.41, 439.89 41.92 C440.13 50.24, 433.31 58.45, 424 58 C289.89 58.48, 154.22 57.6, 16.13 58.27 C6.68 57.79, -0.39 50.38, 0 42 C0.23 33.67, 0.48 25.11, 0.15 15.87 C0.58 7.2, 6.87 0.1, 16 0 Z" stroke="none" fill="#dee2e6"></path><path d="M16 0 C150.9 -0.28, 284.99 -0.25, 423.38 0.58 C431.53 -0.46, 439.19 5.83, 440 16 C438.83 23.98, 439.19 32.13, 440.49 42.7 C439.88 51.14, 433.75 58.9, 424 58 C289.46 56.75, 155.55 58.26, 16.5 58.43 C8.03 57.53, -0.42 50.26, 0 42 C1.29 34.11, -1.24 23.63, -0.42 16.44 C0.41 7.6, 6.51 0.35, 16 0 M16 0 C151.47 0.36, 285.87 1, 423.74 0.67 C431.64 -0.29, 439.11 7.41, 440 16 C439.18 24.11, 439.63 33.42, 439.8 42.68 C438.67 51.36, 433.87 57.53, 424 58 C288.8 58.99, 155.62 56.98, 15.52 57.75 C6.26 58.95, 0.68 51.63, 0 42 C0.19 33.11, -0.98 25.84, 0.37 15.89 C-1.39 7.73, 8.23 0.01, 16 0" stroke="#495057" stroke-width="1.7" fill="none" stroke-linecap="round"></path></g><text x="510" y="137" font-family="Virgil, Segoe UI Emoji" font-size="15px" fill="#1e1e1e" text-anchor="middle" dominant-baseline="central" style="white-space:pre">API Gateway + CDN</text><text x="510" y="156" font-family="Virgil, Segoe UI Emoji" font-size="12px" fill="#495057" text-anchor="middle" dominant-baseline="central" style="white-space:pre">edge cache · TLS</text><g transform="translate(120 239)"><path d="M16 0 C100.84 0.12, 186.79 0.33, 274.09 0.2 C282.26 0.27, 289.72 7.55, 290 16 C289.81 25.4, 290.49 35.92, 289.79 46.29 C290.51 54.89, 282.79 62.49, 274 62 C188.99 61.74, 104.06 61.94, 15.71 62.12 C7.29 62.19, -0.42 54.33, 0 46 C-0.48 35.57, 0.37 25.78, -0.23 15.9 C0.35 6.61, 7.39 0.22, 16 0 Z" stroke="none" fill="#a5d8ff"></path><path d="M16 0 C102.25 -1.28, 186.08 -0.69, 273.88 -0.57 C282.44 -0.96, 290.53 6.81, 290 16 C288.71 26.29, 288.68 35, 289.67 46.51 C289.29 55.67, 282.36 62.36, 274 62 C187.51 61.84, 105.05 61.83, 15.75 62.47 C6.57 61.56, 0.13 55.27, 0 46 C-0.55 35.05, -0.88 27.47, -0.24 16.19 C1.05 6.41, 7.7 0.05, 16 0 M16 0 C99.82 -0.33, 186.95 0.67, 274.47 0.07 C283.76 -1.11, 288.63 8.01, 290 16 C290.75 25.8, 290.82 36.37, 289.9 46.18 C290.8 55.2, 282.19 62.13, 274 62 C189.91 61.28, 102.97 61.54, 16.53 62.4 C8.46 62.79, 0.19 55.07, 0 46 C1.25 37.23, 0.97 27.39, 0.33 16.33 C0.2 6.5, 8.27 0.01, 16 0" stroke="#1971c2" stroke-width="1.7" fill="none" stroke-linecap="round"></path></g><text x="265" y="261" font-family="Virgil, Segoe UI Emoji" font-size="15px" fill="#1e1e1e" text-anchor="middle" dominant-baseline="central" style="white-space:pre">Upload Service</text><text x="265" y="280" font-family="Virgil, Segoe UI Emoji" font-size="12px" fill="#495057" text-anchor="middle" dominant-baseline="central" style="white-space:pre">presigned · resumable</text><g transform="translate(820 229)"><path d="M16 0 C87.8 0.32, 160.12 -0.45, 234.09 0.27 C243.24 0.32, 249.57 7.24, 250 16 C249.85 24.68, 250.17 33.68, 250.25 41.75 C249.82 51.2, 243.02 57.83, 234 58 C162.16 58.24, 90.1 57.69, 16.05 57.89 C7.55 57.48, -0.39 51.37, 0 42 C-0.47 33.67, -0.51 24.71, -0.28 15.95 C-0.28 6.61, 7.61 -0.46, 16 0 Z" stroke="none" fill="#ffc9c9"></path><path d="M16 0 C88.44 1.17, 158.51 0.74, 233.66 -0.61 C241.58 1.19, 250.36 6.74, 250 16 C248.77 23.87, 249.15 32.15, 249.89 41.56 C250.82 51.62, 243.02 58.71, 234 58 C162.89 56.63, 90.1 58.78, 15.94 57.71 C5.95 57.96, -1.38 50.02, 0 42 C0.96 34.17, -0.07 25.08, 0.4 16.59 C-0.2 7.46, 7.1 0.52, 16 0 M16 0 C88.32 0.89, 160.79 0.47, 233.74 -0.34 C243.88 1.29, 248.63 8.29, 250 16 C249.61 24.17, 249.09 32.58, 249.8 42.45 C249.18 50.67, 241.77 59.27, 234 58 C163.1 58.75, 90.3 58.36, 16.02 57.38 C8.26 58.55, 0.26 49.76, 0 42 C1.14 32.11, -0.58 25.49, 0.29 16.33 C-1.06 6.9, 7.61 -0.93, 16 0" stroke="#e03131" stroke-width="1.7" fill="none" stroke-linecap="round"></path></g><text x="945" y="249" font-family="Virgil, Segoe UI Emoji" font-size="15px" fill="#1e1e1e" text-anchor="middle" dominant-baseline="central" style="white-space:pre">Source Store</text><text x="945" y="268" font-family="Virgil, Segoe UI Emoji" font-size="12px" fill="#495057" text-anchor="middle" dominant-baseline="central" style="white-space:pre">S3 (raw uploads)</text><g transform="translate(540 324)"><path d="M16 0 C85.21 -0.29, 153.6 0.02, 224.06 -0.21 C233.17 -0.58, 239.9 6.68, 240 16 C239.6 23.71, 240.13 31.73, 239.92 39.73 C240.44 49.25, 232.8 55.6, 224 56 C155.59 55.89, 87.26 56.38, 16.26 56.28 C7.56 56.55, 0.13 48.44, 0 40 C0.05 32.45, -0.37 24.42, 0.29 16.28 C-0.6 6.6, 7.79 -0.17, 16 0 Z" stroke="none" fill="#ffd8a8"></path><path d="M16 0 C84.12 0.57, 153.2 0.15, 224.62 -0.11 C231.91 1.22, 238.67 6.66, 240 16 C239.21 24.65, 240.38 30.81, 239.35 39.36 C240.3 48.27, 233.58 55.75, 224 56 C154.39 55.37, 85.58 56.57, 16.49 55.41 C5.94 56.81, 0.84 49.82, 0 40 C0.64 31.01, -0.81 23.45, -0.21 15.65 C-0.14 8.31, 7.29 0.02, 16 0 M16 0 C84.75 -0.82, 154.03 0.87, 223.58 0.06 C234.16 1.15, 241.11 6.29, 240 16 C240.23 23.86, 239.98 31.18, 240.27 39.37 C240.98 48.07, 233.97 56.59, 224 56 C156.29 55.58, 87.4 57.24, 16.19 55.96 C7.2 56.38, 0.49 48.32, 0 40 C-0.37 30.99, -0.41 22.99, -0.22 16.68 C0.65 6.31, 5.82 1.16, 16 0" stroke="#e8590c" stroke-width="1.7" fill="none" stroke-linecap="round"></path></g><text x="660" y="343" font-family="Virgil, Segoe UI Emoji" font-size="15px" fill="#1e1e1e" text-anchor="middle" dominant-baseline="central" style="white-space:pre">Transcode Queue</text><text x="660" y="362" font-family="Virgil, Segoe UI Emoji" font-size="12px" fill="#495057" text-anchor="middle" dominant-baseline="central" style="white-space:pre">Apache Kafka / SQS</text><g transform="translate(83 432)"><path d="M16 0 C131.66 -0.35, 248.63 0.03, 367.73 -0.02 C376.61 -0.06, 384.11 7.12, 384 16 C384.44 32.56, 384.35 49.93, 384.25 68.28 C383.73 76.47, 376.8 84.33, 368 84 C252.09 83.42, 135.98 83.5, 15.83 83.91 C6.7 83.6, 0.07 76.55, 0 68 C-0.04 51.07, 0.45 33.17, -0.07 15.97 C0.43 7.67, 7.35 0.26, 16 0 Z" stroke="none" fill="#a5d8ff"></path><path d="M16 0 C133.33 -0.54, 248.59 -0.62, 367.79 0.58 C376.03 1.1, 383.69 8.5, 384 16 C382.63 32.34, 383.18 51.2, 383.48 68.32 C384.12 76.98, 376.67 83.8, 368 84 C253.18 82.67, 135.6 83.56, 16.58 84.2 C7.09 83.65, -0.78 76.26, 0 68 C-0.96 49.89, -0.71 34.45, 0.69 15.72 C-1.27 7.04, 6.03 -1.35, 16 0 M16 0 C133.14 -0.82, 248.47 -0.34, 367.74 -0.07 C376.46 1.38, 383.21 6.95, 384 16 C384.22 32.41, 385.06 49.04, 383.57 68.47 C382.7 75.97, 375.97 84.71, 368 84 C250.75 84.12, 134.65 84.75, 16 84.06 C7.84 82.78, 0.72 78.18, 0 68 C-0.23 51.64, -0.61 33.3, -0.42 16.67 C0.75 7.54, 5.91 -1.32, 16 0" stroke="#1971c2" stroke-width="1.7" fill="none" stroke-linecap="round"></path></g><text x="275" y="465" font-family="Virgil, Segoe UI Emoji" font-size="15px" fill="#1e1e1e" text-anchor="middle" dominant-baseline="central" style="white-space:pre">Transcoding Pipeline</text><text x="275" y="484" font-family="Virgil, Segoe UI Emoji" font-size="12px" fill="#495057" text-anchor="middle" dominant-baseline="central" style="white-space:pre">chunk → parallel encode → package (HLS/DASH)</text><g transform="translate(820 442)"><path d="M16 0 C88.2 0.34, 159.3 -0.38, 234.18 0.03 C243.04 -0.51, 250.31 7.37, 250 16 C249.85 26.67, 249.8 37.05, 250.29 47.79 C250.04 57.33, 242.93 64.01, 234 64 C161.98 63.61, 89.9 64.17, 15.92 64.19 C6.81 64.09, 0.19 57.29, 0 48 C0.31 37, -0.56 27.33, -0.01 16.21 C-0.49 6.92, 6.86 0.4, 16 0 Z" stroke="none" fill="#ffc9c9"></path><path d="M16 0 C87.32 0.38, 161 0.21, 234.36 0.03 C242.97 0.01, 250.17 7.37, 250 16 C248.7 25.62, 249.73 38.21, 249.68 48.64 C249.92 55.87, 243.9 64.73, 234 64 C162.05 63.7, 90.78 64.39, 16.28 63.76 C8.45 62.67, 0.88 57.77, 0 48 C-1.28 37.43, 0.33 27.76, -0.09 16.07 C1.2 7.75, 8.26 1.27, 16 0 M16 0 C88.05 -0.01, 158.97 -1.27, 233.89 0.1 C243.05 -1.21, 249.9 5.87, 250 16 C250 27.92, 248.67 38.49, 249.92 48.31 C249.39 58.02, 243.64 63.6, 234 64 C161.22 64.31, 91.31 63.67, 15.79 63.99 C6.4 62.71, -0.5 57.58, 0 48 C1.02 38.68, -0.42 25.59, -0.15 16.14 C1.15 8.16, 8.01 0.98, 16 0" stroke="#e03131" stroke-width="1.7" fill="none" stroke-linecap="round"></path></g><text x="945" y="465" font-family="Virgil, Segoe UI Emoji" font-size="15px" fill="#1e1e1e" text-anchor="middle" dominant-baseline="central" style="white-space:pre">Encoded Origin</text><text x="945" y="484" font-family="Virgil, Segoe UI Emoji" font-size="12px" fill="#495057" text-anchor="middle" dominant-baseline="central" style="white-space:pre">S3 (renditions + manifests)</text><g transform="translate(290 615)"><path d="M16 0 C117.47 0.14, 218.82 0.12, 323.94 0.19 C332.75 0.02, 339.72 6.95, 340 16 C340.1 27.33, 340.36 37.93, 340.26 50.21 C339.5 59.27, 332.7 65.4, 324 66 C222.55 65.4, 121.14 65.93, 15.84 66.13 C7.37 65.52, 0.27 59.2, 0 50 C0.19 38.63, 0.19 28.12, 0.28 15.82 C-0.36 6.68, 7.1 -0.52, 16 0 Z" stroke="none" fill="#a5d8ff"></path><path d="M16 0 C118.9 -0.69, 218.58 -0.72, 323.99 -0.62 C332.15 -1.22, 340.12 6.41, 340 16 C339.4 26.04, 339.29 39.18, 339.45 49.39 C341.35 59.07, 333.46 66.41, 324 66 C223.55 66.79, 120.22 65.73, 16.28 66.51 C8.26 66.16, 0.42 58.69, 0 50 C1.37 39.44, 0.75 26.78, 0.51 16.11 C-0.9 7.13, 7.31 -1.33, 16 0 M16 0 C116.76 0.97, 220.12 1.14, 324.09 -0.1 C333.56 0.25, 340.07 6.07, 340 16 C340.76 26.15, 338.76 39.56, 339.83 50.07 C339.06 58.16, 333.5 65.65, 324 66 C223.24 64.75, 119.36 65.07, 15.51 66.27 C8.22 66.5, -0.4 58.95, 0 50 C-0.41 39.07, -0.48 26.94, 0.65 16.43 C0.21 6.48, 6.99 -0.48, 16 0" stroke="#1971c2" stroke-width="1.7" fill="none" stroke-linecap="round"></path></g><text x="460" y="639" font-family="Virgil, Segoe UI Emoji" font-size="15px" fill="#1e1e1e" text-anchor="middle" dominant-baseline="central" style="white-space:pre">Playback / Manifest Service</text><text x="460" y="658" font-family="Virgil, Segoe UI Emoji" font-size="12px" fill="#495057" text-anchor="middle" dominant-baseline="central" style="white-space:pre">ABR manifest · HLS/DASH</text><g transform="translate(820 619)"><path d="M16 0 C88.47 0.3, 159.46 -0.07, 233.72 -0.18 C243.29 0.13, 249.53 7.4, 250 16 C249.78 24.79, 249.7 33.59, 250.15 42.2 C250.17 50.76, 242.24 58.58, 234 58 C162.35 58.15, 90.51 57.44, 16.22 58.29 C6.83 57.67, 0.15 50.6, 0 42 C-0.52 33.85, 0.07 25, -0.12 15.98 C-0.4 7.67, 6.62 0.09, 16 0 Z" stroke="none" fill="#ffc9c9"></path><path d="M16 0 C87.27 -0.61, 161.09 0.28, 233.45 -0.65 C242.99 0.45, 251.09 6.13, 250 16 C250.82 24, 249.89 34.04, 249.92 42.4 C249.63 52.19, 244.02 59.31, 234 58 C163.12 57.1, 91.13 57.1, 16.06 58.45 C8.1 56.97, 0.84 51.87, 0 42 C-0.91 34.01, 0.71 25, 0.57 16.22 C-0.54 7.33, 8.45 0.78, 16 0 M16 0 C88.45 0.66, 159.5 -0.62, 233.41 0.4 C243.59 -1.05, 250.73 6.11, 250 16 C248.96 25.4, 249.55 34.2, 249.31 41.56 C249.3 49.61, 243.31 59.13, 234 58 C161.14 57.05, 88.8 59.13, 15.38 58.08 C6.37 58.13, 0.23 51.26, 0 42 C1.13 33.27, 0.8 23.83, -0.34 16.04 C-0.7 7.22, 6.95 -0.05, 16 0" stroke="#e03131" stroke-width="1.7" fill="none" stroke-linecap="round"></path></g><text x="945" y="639" font-family="Virgil, Segoe UI Emoji" font-size="15px" fill="#1e1e1e" text-anchor="middle" dominant-baseline="central" style="white-space:pre">Metadata DB</text><text x="945" y="658" font-family="Virgil, Segoe UI Emoji" font-size="12px" fill="#495057" text-anchor="middle" dominant-baseline="central" style="white-space:pre">Vitess / Bigtable</text><g transform="translate(820 759)"><path d="M16 0 C87.85 -0.05, 160.3 0.51, 234.03 0.22 C242.82 -0.25, 250 7.18, 250 16 C250.39 27.62, 249.83 38.99, 250.02 49.91 C250.17 58.62, 242.7 65.89, 234 66 C162.62 65.82, 90.3 66.31, 16.15 66.15 C7.8 65.66, -0.48 58.57, 0 50 C-0.5 38.64, 0.03 27.99, 0.17 15.89 C0.4 7.52, 7.63 0.4, 16 0 Z" stroke="none" fill="#a5d8ff"></path><path d="M16 0 C87.22 1.21, 160.52 -0.93, 233.54 -0.69 C242.98 -0.13, 251.27 8.03, 250 16 C248.8 28.53, 250.66 38.59, 249.32 50.35 C250.28 60.07, 241.8 65.23, 234 66 C161.67 65.88, 90.83 64.96, 16 66.15 C7.59 64.88, 0.88 59.27, 0 50 C-0.67 38.54, -0.36 28.46, 0.39 16.15 C0.15 7.47, 8.31 0.99, 16 0 M16 0 C88.76 -0.56, 160.19 -1, 234.38 0.47 C241.6 -0.86, 251.27 7.42, 250 16 C249.39 26.92, 248.61 37.82, 250.16 49.8 C251.01 59.45, 243.01 65.07, 234 66 C162.12 66.72, 88.92 64.96, 16.22 65.84 C8.2 67.39, -0.93 58.15, 0 50 C-0.9 37.97, 0.22 28.67, -0.55 15.79 C-1.16 7.92, 6.9 -0.64, 16 0" stroke="#1971c2" stroke-width="1.7" fill="none" stroke-linecap="round"></path></g><text x="945" y="783" font-family="Virgil, Segoe UI Emoji" font-size="15px" fill="#1e1e1e" text-anchor="middle" dominant-baseline="central" style="white-space:pre">View Counter</text><text x="945" y="802" font-family="Virgil, Segoe UI Emoji" font-size="12px" fill="#495057" text-anchor="middle" dominant-baseline="central" style="white-space:pre">Apache Kafka + Flink (approx)</text><rect x="83" y="221" width="185.5" height="18" fill="#ffffff" stroke="none"></rect><text x="88" y="230" font-family="Virgil, Segoe UI Emoji" font-size="12.5px" fill="#495057" text-anchor="start" dominant-baseline="central" style="white-space:pre">Ingest &amp; Transcode Pipeline</text><rect x="295" y="603" width="114" height="18" fill="#ffffff" stroke="none"></rect><text x="300" y="612" font-family="Virgil, Segoe UI Emoji" font-size="12.5px" fill="#495057" text-anchor="start" dominant-baseline="central" style="white-space:pre">Playback Service</text><rect x="464.14" y="89" width="91.72" height="18" rx="6" ry="6" fill="#ffffff" fill-opacity="0.82" stroke="none"></rect><text x="510" y="98" font-family="Virgil, Segoe UI Emoji" font-size="11.5px" fill="#27313a" text-anchor="middle" dominant-baseline="central" style="white-space:pre">watch / upload</text><rect x="482.08" y="195.5" width="55.84" height="18" rx="6" ry="6" fill="#ffffff" fill-opacity="0.82" stroke="none"></rect><text x="510" y="204.5" font-family="Virgil, Segoe UI Emoji" font-size="11.5px" fill="#27313a" text-anchor="middle" dominant-baseline="central" style="white-space:pre">① upload</text><rect x="587.08" y="255" width="55.84" height="18" rx="6" ry="6" fill="#ffffff" fill-opacity="0.82" stroke="none"></rect><text x="615" y="264" font-family="Virgil, Segoe UI Emoji" font-size="11.5px" fill="#27313a" text-anchor="middle" dominant-baseline="central" style="white-space:pre">raw → S3</text><rect x="431.59" y="303.5" width="61.82" height="18" rx="6" ry="6" fill="#ffffff" fill-opacity="0.82" stroke="none"></rect><text x="462.5" y="312.5" font-family="Virgil, Segoe UI Emoji" font-size="11.5px" fill="#27313a" text-anchor="middle" dominant-baseline="central" style="white-space:pre">② enqueue</text><rect x="436.59" y="397" width="61.82" height="18" rx="6" ry="6" fill="#ffffff" fill-opacity="0.82" stroke="none"></rect><text x="467.5" y="406" font-family="Virgil, Segoe UI Emoji" font-size="11.5px" fill="#27313a" text-anchor="middle" dominant-baseline="central" style="white-space:pre">③ consume</text><rect x="591.66" y="465" width="103.68" height="18" rx="6" ry="6" fill="#ffffff" fill-opacity="0.82" stroke="none"></rect><text x="643.5" y="474" font-family="Virgil, Segoe UI Emoji" font-size="11.5px" fill="#27313a" text-anchor="middle" dominant-baseline="central" style="white-space:pre">write renditions</text><rect x="739.19" y="301" width="121.62" height="18" rx="6" ry="6" fill="#ffffff" fill-opacity="0.82" stroke="none"></rect><text x="800" y="310" font-family="Virgil, Segoe UI Emoji" font-size="11.5px" fill="#27313a" text-anchor="middle" dominant-baseline="central" style="white-space:pre">④ warm · ⑥ segments</text><rect x="430.17" y="551" width="109.66" height="18" rx="6" ry="6" fill="#ffffff" fill-opacity="0.82" stroke="none"></rect><text x="485" y="560" font-family="Virgil, Segoe UI Emoji" font-size="11.5px" fill="#27313a" text-anchor="middle" dominant-baseline="central" style="white-space:pre">⑤ play (manifest)</text><rect x="691.1" y="639" width="67.8" height="18" rx="6" ry="6" fill="#ffffff" fill-opacity="0.82" stroke="none"></rect><text x="725" y="648" font-family="Virgil, Segoe UI Emoji" font-size="11.5px" fill="#27313a" text-anchor="middle" dominant-baseline="central" style="white-space:pre">video meta</text><rect x="668.6" y="711" width="67.8" height="18" rx="6" ry="6" fill="#ffffff" fill-opacity="0.82" stroke="none"></rect><text x="702.5" y="720" font-family="Virgil, Segoe UI Emoji" font-size="11.5px" fill="#27313a" text-anchor="middle" dominant-baseline="central" style="white-space:pre">view event</text></g>
</svg>
