<?xml version="1.0" encoding="UTF-8"?>
<svg id="diagram" viewBox="0 0 1210 860" xmlns="http://www.w3.org/2000/svg" width="1210" height="860"><rect x="0" y="0" width="1210" height="860" fill="#ffffff"></rect><g><rect x="393" y="205" width="629" height="192" rx="14" ry="14" fill="#f8fafc" stroke="#64748b" stroke-width="1.6" stroke-dasharray="7 5"></rect><rect x="407" y="182" width="186" height="22" rx="7" ry="7" fill="#475569"></rect><text x="500" y="193" fill="#fff" font-size="11.5" font-weight="700" text-anchor="middle" dominant-baseline="central">▢ Signaling Plane (control)</text><rect x="245" y="605" width="945" height="145" rx="14" ry="14" fill="#f8fafc" stroke="#64748b" stroke-width="1.6" stroke-dasharray="7 5"></rect><rect x="259" y="582" width="198.8" height="22" rx="7" ry="7" fill="#475569"></rect><text x="358.4" y="593" fill="#fff" font-size="11.5" font-weight="700" text-anchor="middle" dominant-baseline="central">▢ Media Plane (A/V · UDP/RTP)</text></g><g><path d="M230,410 L330,410 L330,92 L530,92" fill="none" stroke="#55606a" stroke-width="1.9" stroke-linejoin="round" stroke-linecap="round"></path><polygon points="530,92 521.325655067033,95.87372430406592 521.325655067033,88.12627569593408" fill="#55606a"></polygon><path d="M645,121 L645,211 L560,211 L560,217" fill="none" stroke="#55606a" stroke-width="1.9" stroke-linejoin="round" stroke-linecap="round"></path><polygon points="560,217 556.126275695934,208.32565506703307 563.873724304066,208.32565506703307" fill="#55606a"></polygon><path d="M760,92 L765,92 L765,250 L770,250" fill="none" stroke="#55606a" stroke-width="1.9" stroke-linejoin="round" stroke-linecap="round"></path><polygon points="770,250 761.325655067033,253.87372430406592 761.325655067033,246.12627569593408" fill="#55606a"></polygon><path d="M560,283 L560,328" fill="none" stroke="#55606a" stroke-width="1.9" stroke-linejoin="round" stroke-linecap="round"></path><polygon points="560,328 556.126275695934,319.3256550670331 563.873724304066,319.3256550670331" fill="#55606a"></polygon><path d="M885,283 L885,435" fill="none" stroke="#aab2bb" stroke-width="1.6" stroke-linejoin="round" stroke-linecap="round" stroke-dasharray="6 5"></path><polygon points="885,435 881.126275695934,426.3256550670331 888.873724304066,426.3256550670331" fill="#aab2bb"></polygon><path d="M230,410 L247,410 L247,705 L260,705" fill="none" stroke="#55606a" stroke-width="1.9" stroke-linejoin="round" stroke-linecap="round"></path><polygon points="260,705 251.32565506703307,708.873724304066 251.32565506703307,701.126275695934" fill="#55606a"></polygon><path d="M130,458 L130,515 L720,515 L720,617" fill="none" stroke="#55606a" stroke-width="1.9" stroke-linejoin="round" stroke-linecap="round"></path><polygon points="720,617 716.126275695934,608.325655067033 723.873724304066,608.325655067033" fill="#55606a"></polygon><path d="M540,660 L400,660 L400,410 L230,410" fill="none" stroke="#55606a" stroke-width="1.9" stroke-linejoin="round" stroke-linecap="round"></path><polygon points="230,410 238.67434493296693,406.12627569593405 238.67434493296693,413.8737243040659" fill="#55606a"></polygon><path d="M900,660 L975,660" fill="none" stroke="#55606a" stroke-width="1.9" stroke-linejoin="round" stroke-linecap="round"></path><polygon points="975,660 966.325655067033,663.873724304066 966.325655067033,656.126275695934" fill="#55606a"></polygon><path d="M1075,692 L1075,761" fill="none" stroke="#55606a" stroke-width="1.9" stroke-linejoin="round" stroke-linecap="round"></path><polygon points="1075,761 1071.126275695934,752.325655067033 1078.873724304066,752.325655067033" fill="#55606a"></polygon></g><g><rect x="30" y="362" width="200" height="96" rx="9" ry="9" fill="#fff" stroke="#6c757d" stroke-width="1.7" filter="url(#sh)"></rect><path d="M30,388 V371 Q30,362 39,362 H221 Q230,362 230,371 V388 Z" fill="#6c757d"></path><text x="130" y="375.5" fill="#fff" font-weight="700" font-size="12.5" text-anchor="middle" dominant-baseline="central">Participants (WebRTC)</text><text x="130" y="423" fill="#3c454d" font-size="10.8" text-anchor="middle" dominant-baseline="central">browser / app clients</text><rect x="530" y="63" width="230" height="58" rx="9" ry="9" fill="#fff" stroke="#4338ca" stroke-width="1.7" filter="url(#sh)"></rect><path d="M530,89 V72 Q530,63 539,63 H751 Q760,63 760,72 V89 Z" fill="#4f46e5"></path><text x="645" y="76.5" fill="#fff" font-weight="700" font-size="12.5" text-anchor="middle" dominant-baseline="central">API Gateway + LB</text><text x="645" y="105" fill="#3c454d" font-size="10.8" text-anchor="middle" dominant-baseline="central">auth · TLS</text><rect x="415" y="217" width="290" height="66" rx="9" ry="9" fill="#fff" stroke="#0F5BB5" stroke-width="1.7" filter="url(#sh)"></rect><path d="M415,243 V226 Q415,217 424,217 H696 Q705,217 705,226 V243 Z" fill="#0078D4"></path><text x="560" y="230.5" fill="#fff" font-weight="700" font-size="12.5" text-anchor="middle" dominant-baseline="central">Signaling Service</text><text x="560" y="263" fill="#3c454d" font-size="10.8" text-anchor="middle" dominant-baseline="central">WebSocket · SDP offer/answer · ICE</text><rect x="415" y="328" width="290" height="56" rx="9" ry="9" fill="#fff" stroke="#0A6E80" stroke-width="1.7" filter="url(#sh)"></rect><path d="M415,353.76 V337 Q415,328 424,328 H696 Q705,328 705,337 V353.76 Z" fill="#0C8599"></path><text x="560" y="341.38" fill="#fff" font-weight="700" font-size="12.5" text-anchor="middle" dominant-baseline="central">Room Registry</text><text x="560" y="368.88" fill="#3c454d" font-size="10.8" text-anchor="middle" dominant-baseline="central">Redis · room → participants / SFU</text><rect x="770" y="217" width="230" height="66" rx="9" ry="9" fill="#fff" stroke="#0F5BB5" stroke-width="1.7" filter="url(#sh)"></rect><path d="M770,243 V226 Q770,217 779,217 H991 Q1000,217 1000,226 V243 Z" fill="#0078D4"></path><text x="885" y="230.5" fill="#fff" font-weight="700" font-size="12.5" text-anchor="middle" dominant-baseline="central">Meeting Service</text><text x="885" y="263" fill="#3c454d" font-size="10.8" text-anchor="middle" dominant-baseline="central">create · auth · schedule</text><rect x="775" y="435" width="220" height="54" rx="9" ry="9" fill="#fff" stroke="#0A6E80" stroke-width="1.7" filter="url(#sh)"></rect><path d="M775,459.84 V444 Q775,435 784,435 H986 Q995,435 995,444 V459.84 Z" fill="#0C8599"></path><text x="885" y="447.92" fill="#fff" font-weight="700" font-size="12.5" text-anchor="middle" dominant-baseline="central">Meeting DB</text><text x="885" y="474.41999999999996" fill="#3c454d" font-size="10.8" text-anchor="middle" dominant-baseline="central">PostgreSQL</text><rect x="260" y="672" width="220" height="66" rx="9" ry="9" fill="#fff" stroke="#1F7A33" stroke-width="1.7" filter="url(#sh)"></rect><path d="M260,698 V681 Q260,672 269,672 H471 Q480,672 480,681 V698 Z" fill="#2f9e44"></path><text x="370" y="685.5" fill="#fff" font-weight="700" font-size="12.5" text-anchor="middle" dominant-baseline="central">STUN / TURN</text><text x="370" y="718" fill="#3c454d" font-size="10.8" text-anchor="middle" dominant-baseline="central">NAT traversal / relay</text><rect x="540" y="617" width="360" height="86" rx="9" ry="9" fill="#fff" stroke="#0F5BB5" stroke-width="1.7" filter="url(#sh)"></rect><path d="M540,643 V626 Q540,617 549,617 H891 Q900,617 900,626 V643 Z" fill="#0078D4"></path><text x="720" y="630.5" fill="#fff" font-weight="700" font-size="12.5" text-anchor="middle" dominant-baseline="central">SFU Media Server</text><text x="720" y="673" fill="#3c454d" font-size="10.8" text-anchor="middle" dominant-baseline="central">selective forwarding · simulcast (RTP/UDP)</text><rect x="975" y="628" width="200" height="64" rx="9" ry="9" fill="#fff" stroke="#0F5BB5" stroke-width="1.7" filter="url(#sh)"></rect><path d="M975,654 V637 Q975,628 984,628 H1166 Q1175,628 1175,637 V654 Z" fill="#0078D4"></path><text x="1075" y="641.5" fill="#fff" font-weight="700" font-size="12.5" text-anchor="middle" dominant-baseline="central">Recording Service</text><text x="1075" y="673" fill="#3c454d" font-size="10.8" text-anchor="middle" dominant-baseline="central">compose · transcode</text><rect x="975" y="761" width="200" height="54" rx="9" ry="9" fill="#fff" stroke="#0A6E80" stroke-width="1.7" filter="url(#sh)"></rect><path d="M975,785.84 V770 Q975,761 984,761 H1166 Q1175,761 1175,770 V785.84 Z" fill="#0C8599"></path><text x="1075" y="773.92" fill="#fff" font-weight="700" font-size="12.5" text-anchor="middle" dominant-baseline="central">Recording Store</text><text x="1075" y="800.4200000000001" fill="#3c454d" font-size="10.8" text-anchor="middle" dominant-baseline="central">S3</text></g><g><rect x="301.65" y="242" width="56.699999999999996" height="18" rx="9" ry="9" fill="#ffffff" stroke="#dde2e7" stroke-width="1"></rect><text x="330" y="251.5" fill="#27313a" font-size="10.8" font-weight="600" text-anchor="middle" dominant-baseline="central">connect</text><rect x="601.4" y="157" width="87.19999999999999" height="18" rx="9" ry="9" fill="#ffffff" stroke="#dde2e7" stroke-width="1"></rect><text x="645" y="166.5" fill="#27313a" font-size="10.8" font-weight="600" text-anchor="middle" dominant-baseline="central">① join (WSS)</text><rect x="739.7" y="162" width="50.599999999999994" height="18" rx="9" ry="9" fill="#ffffff" stroke="#dde2e7" stroke-width="1"></rect><text x="765" y="171.5" fill="#27313a" font-size="10.8" font-weight="600" text-anchor="middle" dominant-baseline="central">create</text><rect x="488.95" y="296.5" width="142.1" height="18" rx="9" ry="9" fill="#ffffff" stroke="#dde2e7" stroke-width="1"></rect><text x="560" y="306" fill="#27313a" font-size="10.8" font-weight="600" text-anchor="middle" dominant-baseline="central">② SDP/ICE + alloc SFU</text><rect x="856.65" y="350" width="56.699999999999996" height="18" rx="9" ry="9" fill="#ffffff" stroke="#dde2e7" stroke-width="1"></rect><text x="885" y="359.5" fill="#27313a" font-size="10.8" font-weight="600" text-anchor="middle" dominant-baseline="central">persist</text><rect x="194.25" y="548.5" width="105.5" height="18" rx="9" ry="9" fill="#ffffff" stroke="#dde2e7" stroke-width="1"></rect><text x="247" y="558" fill="#27313a" font-size="10.8" font-weight="600" text-anchor="middle" dominant-baseline="central">③ NAT traversal</text><rect x="71.15" y="477.5" width="117.69999999999999" height="18" rx="9" ry="9" fill="#ffffff" stroke="#dde2e7" stroke-width="1"></rect><text x="130" y="487" fill="#27313a" font-size="10.8" font-weight="600" text-anchor="middle" dominant-baseline="central">④ media (RTP/UDP)</text><rect x="344.2" y="526" width="111.6" height="18" rx="9" ry="9" fill="#ffffff" stroke="#dde2e7" stroke-width="1"></rect><text x="400" y="535.5" fill="#27313a" font-size="10.8" font-weight="600" text-anchor="middle" dominant-baseline="central">⑤ forward layers</text><rect x="906.1" y="651" width="62.8" height="18" rx="9" ry="9" fill="#ffffff" stroke="#dde2e7" stroke-width="1"></rect><text x="937.5" y="660.5" fill="#27313a" font-size="10.8" font-weight="600" text-anchor="middle" dominant-baseline="central">⑥ record</text><rect x="1037.5" y="717.5" width="75" height="18" rx="9" ry="9" fill="#ffffff" stroke="#dde2e7" stroke-width="1"></rect><text x="1075" y="727" fill="#27313a" font-size="10.8" font-weight="600" text-anchor="middle" dominant-baseline="central">store (S3)</text></g><defs><filter id="sh" x="-20%" y="-20%" width="140%" height="140%"><feDropShadow dx="0" dy="1" stdDeviation="1.1" flood-color="#000" flood-opacity="0.13"></feDropShadow></filter></defs></svg>