<svg version="1.1" xmlns="http://www.w3.org/2000/svg" viewBox="0 0 1210 944" width="1210" height="944">
  <!-- svg-source:gen-whiteboards.js -->
  <defs><style class="style-fonts">
@font-face{font-family:"Virgil";src:url("https://unpkg.com/@excalidraw/excalidraw@0.17.6/dist//dist/excalidraw-assets/Virgil.woff2");}
</style></defs>
  <rect x="0" y="0" width="1210" height="944" fill="#ffffff"></rect>
  <text x="24" y="26" font-family="Virgil, Segoe UI Emoji" font-size="22px" fill="#1e1e1e" text-anchor="start" dominant-baseline="central" style="white-space:pre">Video Conferencing (Zoom / Google Meet) — how you'd draw it live on the whiteboard</text>
  <text x="24" y="58" font-family="Virgil, Segoe UI Emoji" font-size="13px" fill="#868e96" text-anchor="start" dominant-baseline="central" style="white-space:pre">green = client   ·   grey = edge / LB   ·   blue = service   ·   red = datastore   ·   orange = queue / stream   ·   violet = 3rd-party</text>
  <g transform="translate(0 84)"><g transform="translate(393 205)"><path d="M18 0 C213.5 0, 408.55 0.52, 610.92 0.16 C621.27 -0.77, 629.12 8.74, 629 18 C629.39 69.95, 628.67 121.38, 629.33 173.94 C629.74 183.21, 621.67 191.96, 611 192 C414.68 191.59, 219.08 191.69, 17.98 191.6 C7.23 192.4, -0.86 183.34, 0 174 C-0.5 122.47, -0.52 71.67, 0.12 18.04 C0.47 7.4, 7.31 -0.95, 18 0" stroke="#495057" stroke-width="1.8" fill="none" stroke-linecap="round" stroke-dasharray="8 9"></path></g><g transform="translate(245 605)"><path d="M18 0 C318.83 -0.16, 617.26 -0.36, 927.07 0.4 C936.72 0.57, 945.55 8.07, 945 18 C945.24 53, 944.78 89.76, 945.25 126.62 C945.11 136.44, 937.71 145.71, 927 145 C627.29 145.76, 327.93 144.17, 17.81 144.71 C8.47 144.48, -0.45 137.19, 0 127 C0.65 91.84, 0.31 54.48, 0.1 17.55 C0.34 7.91, 8.89 0.15, 18 0" stroke="#495057" stroke-width="1.8" fill="none" stroke-linecap="round" stroke-dasharray="8 9"></path></g><path d="M230 410 C262.87 410.05, 296.21 411.03, 329.63 409.98 C329.25 304.49, 329.23 200.15, 329.69 92.12 C395.99 92.91, 462.9 92.34, 529.73 92.4" stroke="#1e1e1e" stroke-width="1.6" fill="none" stroke-linecap="round"></path><path d="M530 92 L519.96 96.49 M530 92 L519.96 87.51" stroke="#1e1e1e" stroke-width="1.6" fill="none" stroke-linecap="round"></path><path d="M645 121 C644.01 150.97, 645.51 179.48, 645.12 210.67 C616.42 210.26, 589.72 211.92, 560.03 210.6 C560.79 213.38, 561.02 214.42, 560.13 217.41" stroke="#1e1e1e" stroke-width="1.6" fill="none" stroke-linecap="round"></path><path d="M560 217 L555.51 206.96 M560 217 L564.49 206.96" stroke="#1e1e1e" stroke-width="1.6" fill="none" stroke-linecap="round"></path><path d="M760 92 C762.32 91.18, 764.29 91.47, 765 91.71 C764.54 143.57, 765.65 196.36, 765.42 250.53 C766.95 250.35, 769.28 249.99, 769.68 250.05" stroke="#1e1e1e" stroke-width="1.6" fill="none" stroke-linecap="round"></path><path d="M770 250 L759.96 254.49 M770 250 L759.96 245.51" stroke="#1e1e1e" stroke-width="1.6" fill="none" stroke-linecap="round"></path><path d="M560 283 C559.35 298.28, 559.09 312.28, 560.37 327.46" stroke="#1e1e1e" stroke-width="1.6" fill="none" stroke-linecap="round"></path><path d="M560 328 L555.51 317.96 M560 328 L564.49 317.96" stroke="#1e1e1e" stroke-width="1.6" fill="none" stroke-linecap="round"></path><path d="M885 283 C885.9 332.68, 885.81 383.02, 884.58 434.72" stroke="#1e1e1e" stroke-width="1.6" fill="none" stroke-linecap="round"></path><path d="M885 435 L880.51 424.96 M885 435 L889.49 424.96" stroke="#1e1e1e" stroke-width="1.6" fill="none" stroke-linecap="round"></path><path d="M230 410 C235.08 410.84, 241.16 409.5, 246.69 409.95 C247.02 508.43, 247.75 605.64, 247.33 705.05 C252.35 705.4, 254.88 705.74, 260.32 704.88" stroke="#1e1e1e" stroke-width="1.6" fill="none" stroke-linecap="round"></path><path d="M260 705 L249.96 709.49 M260 705 L249.96 700.51" stroke="#1e1e1e" stroke-width="1.6" fill="none" stroke-linecap="round"></path><path d="M130 458 C130.27 476.37, 130.35 494.83, 129.87 515.02 C325.79 515.67, 520.4 515.25, 720.24 514.61 C720.91 549.09, 719.27 581.85, 720.19 617.27" stroke="#1e1e1e" stroke-width="1.6" fill="none" stroke-linecap="round"></path><path d="M720 617 L715.51 606.96 M720 617 L724.49 606.96" stroke="#1e1e1e" stroke-width="1.6" fill="none" stroke-linecap="round"></path><path d="M540 660 C493.41 660.61, 446.6 661.05, 399.65 660.12 C399.72 577.62, 400.98 496.02, 399.91 410.31 C343.96 410.89, 287.32 410.74, 230.2 409.76" stroke="#1e1e1e" stroke-width="1.6" fill="none" stroke-linecap="round"></path><path d="M230 410 L240.04 405.51 M230 410 L240.04 414.49" stroke="#1e1e1e" stroke-width="1.6" fill="none" stroke-linecap="round"></path><path d="M900 660 C924.7 659.13, 950.07 659.75, 975.39 659.99" stroke="#1e1e1e" stroke-width="1.6" fill="none" stroke-linecap="round"></path><path d="M975 660 L964.96 664.49 M975 660 L964.96 655.51" stroke="#1e1e1e" stroke-width="1.6" fill="none" stroke-linecap="round"></path><path d="M1075 692 C1074.09 714.89, 1074.04 737.75, 1075.4 760.51" stroke="#1e1e1e" stroke-width="1.6" fill="none" stroke-linecap="round"></path><path d="M1075 761 L1070.51 750.96 M1075 761 L1079.49 750.96" stroke="#1e1e1e" stroke-width="1.6" fill="none" stroke-linecap="round"></path><g transform="translate(30 362)"><path d="M16 0 C71.65 0.07, 127.22 0.23, 183.73 -0.3 C192.64 -0.53, 199.7 6.95, 200 16 C199.55 36.65, 199.8 58.73, 199.95 80.14 C199.68 88.39, 193.1 95.81, 184 96 C128.88 96.14, 73.6 95.63, 16.28 96.25 C6.7 96.31, 0.28 89.21, 0 80 C0.42 59.07, 0.24 37.62, -0.02 16.06 C-0.02 6.67, 6.97 0.13, 16 0 Z" stroke="none" fill="#b2f2bb"></path><path d="M16 0 C70.97 1.26, 126.84 0.96, 184.19 -0.56 C191.71 -0.24, 199.73 5.99, 200 16 C201.3 35.95, 200.52 58.38, 199.39 80.54 C201.35 89.82, 193.71 96.98, 184 96 C127.45 97.32, 74.43 96.34, 16.19 95.84 C8.41 95.6, -0.28 88.47, 0 80 C-1.17 58.49, -0.98 36.97, 0.34 15.58 C-0.14 6.07, 6.39 1.19, 16 0 M16 0 C71.87 0.62, 126.63 0.84, 184.11 0.66 C192.78 1.04, 199.86 6.27, 200 16 C201.34 37.86, 200.31 58.95, 200.34 79.36 C198.99 90.16, 193.66 97.16, 184 96 C129.5 95.26, 73.83 96.99, 15.41 95.98 C8.34 95.59, -1.01 89.58, 0 80 C0.08 59.33, 0.58 38.28, -0.54 16.04 C1.05 7.27, 8.06 -0.63, 16 0" stroke="#2f9e44" stroke-width="1.7" fill="none" stroke-linecap="round"></path></g><text x="130" y="401" font-family="Virgil, Segoe UI Emoji" font-size="15px" fill="#1e1e1e" text-anchor="middle" dominant-baseline="central" style="white-space:pre">Participants (WebRTC)</text><text x="130" y="420" font-family="Virgil, Segoe UI Emoji" font-size="12px" fill="#495057" text-anchor="middle" dominant-baseline="central" style="white-space:pre">browser / app clients</text><g transform="translate(530 63)"><path d="M16 0 C81.07 -0.32, 146.19 -0.35, 214.13 0.04 C222.35 0.1, 229.41 6.8, 230 16 C229.75 25.17, 230.35 33.64, 230.03 42.11 C229.94 51.31, 223.12 58.04, 214 58 C148.28 57.54, 83.17 57.88, 15.89 57.93 C7.57 57.68, -0.43 50.28, 0 42 C0.04 33.28, 0.59 25.4, 0.25 15.86 C-0.18 6.72, 7.28 -0.37, 16 0 Z" stroke="none" fill="#dee2e6"></path><path d="M16 0 C81.82 -0.38, 147.97 -0.69, 214.22 0.35 C221.72 -1.05, 228.62 8.51, 230 16 C231.23 24.03, 228.9 33.89, 230.62 41.61 C229.44 50.68, 222.76 59.13, 214 58 C149.94 58.3, 82.13 58.09, 15.85 58.16 C6.33 58.24, 0.52 50.8, 0 42 C-0.29 32.05, -1.3 25.15, 0.58 15.48 C-0.43 6.21, 7.39 0.56, 16 0 M16 0 C81.77 0.03, 148.05 0.69, 213.64 -0.65 C221.53 0.01, 229 7.45, 230 16 C229.37 25.07, 228.82 32.97, 230.66 42.6 C230.92 51.73, 222.29 56.7, 214 58 C147.43 56.86, 82.61 56.82, 16.42 57.87 C8.15 57.77, -0.49 50.81, 0 42 C-1.35 32.36, 0.45 23.65, -0.04 15.4 C0.06 7, 5.88 -1.37, 16 0" stroke="#495057" stroke-width="1.7" fill="none" stroke-linecap="round"></path></g><text x="645" y="83" font-family="Virgil, Segoe UI Emoji" font-size="15px" fill="#1e1e1e" text-anchor="middle" dominant-baseline="central" style="white-space:pre">API Gateway + LB</text><text x="645" y="102" font-family="Virgil, Segoe UI Emoji" font-size="12px" fill="#495057" text-anchor="middle" dominant-baseline="central" style="white-space:pre">auth · TLS</text><g transform="translate(415 217)"><path d="M16 0 C101.38 -0.1, 185.93 -0.46, 273.91 -0.28 C282.93 0.16, 290.24 6.82, 290 16 C290.52 26.8, 290.33 38.36, 290.27 50.12 C289.65 58.47, 282.87 66.02, 274 66 C188.4 66.57, 103.95 65.97, 16.28 65.76 C6.8 65.74, 0.28 59.12, 0 50 C-0.58 38.36, -0.53 27.18, 0.27 15.98 C0.21 7.76, 6.99 -0.08, 16 0 Z" stroke="none" fill="#a5d8ff"></path><path d="M16 0 C101.98 -0.61, 186.5 -0.72, 274.13 -0.68 C283.72 -0.34, 288.86 6.61, 290 16 C288.7 27.26, 288.9 38.48, 290.53 50.52 C290.76 59.19, 282.52 66.58, 274 66 C188.99 66.36, 102.98 65.3, 16.25 66.38 C6.8 65.98, -0.47 60, 0 50 C-0.34 37.67, 1.26 28.12, -0.23 16.67 C0.88 7.97, 7.33 -1, 16 0 M16 0 C100.26 0.43, 185.2 0.56, 274.24 0.23 C281.96 1.35, 289.14 7.5, 290 16 C290.98 27.93, 288.84 38.88, 289.5 49.58 C291.31 59.31, 283.86 67.1, 274 66 C189.87 65.33, 103.72 65.92, 15.92 66.63 C8.44 66.04, -0.95 59.21, 0 50 C-1.36 39.4, 0.23 26.42, -0.62 16.3 C-0.86 7.86, 7.03 0.99, 16 0" stroke="#1971c2" stroke-width="1.7" fill="none" stroke-linecap="round"></path></g><text x="560" y="241" font-family="Virgil, Segoe UI Emoji" font-size="15px" fill="#1e1e1e" text-anchor="middle" dominant-baseline="central" style="white-space:pre">Signaling Service</text><text x="560" y="260" font-family="Virgil, Segoe UI Emoji" font-size="12px" fill="#495057" text-anchor="middle" dominant-baseline="central" style="white-space:pre">WebSocket · SDP offer/answer · ICE</text><g transform="translate(415 328)"><path d="M16 0 C100.69 -0.17, 186.42 0.56, 273.9 0.04 C282.49 -0.18, 289.44 7.16, 290 16 C290.28 24.44, 289.77 32, 289.88 39.78 C290.54 49.12, 282.97 56.45, 274 56 C188.87 56.25, 103.99 55.73, 16 56.28 C6.65 56.17, 0.45 48.87, 0 40 C0.55 31.6, -0.24 24.24, -0.05 15.84 C0.3 7.79, 7.23 -0.58, 16 0 Z" stroke="none" fill="#ffc9c9"></path><path d="M16 0 C99.8 0.12, 187.25 0.11, 274.23 0.17 C282.67 -0.11, 290.13 6.81, 290 16 C289.39 23.87, 290.98 33.1, 290.2 40.52 C290.96 49.86, 281.79 55.52, 274 56 C188.58 55.03, 105.09 54.93, 16.56 55.66 C7.03 55.96, 0.35 50.02, 0 40 C-1.14 31.43, -0.84 24.54, 0.21 16.21 C0.86 5.95, 6.43 1.03, 16 0 M16 0 C101.79 0.11, 186.16 -1.14, 273.91 -0.65 C283.46 -1.24, 289.6 7.91, 290 16 C291.27 24.46, 288.64 31.37, 290.26 39.58 C289.39 47.87, 283.32 56.19, 274 56 C189.38 54.79, 104.94 56.71, 16.32 55.33 C7.03 55.24, 0.09 48.19, 0 40 C-1.2 30.83, 1.38 23.61, -0.58 15.58 C0.54 6.49, 6.03 -1.06, 16 0" stroke="#e03131" stroke-width="1.7" fill="none" stroke-linecap="round"></path></g><text x="560" y="347" font-family="Virgil, Segoe UI Emoji" font-size="15px" fill="#1e1e1e" text-anchor="middle" dominant-baseline="central" style="white-space:pre">Room Registry</text><text x="560" y="366" font-family="Virgil, Segoe UI Emoji" font-size="12px" fill="#495057" text-anchor="middle" dominant-baseline="central" style="white-space:pre">Redis · room → participants / SFU</text><g transform="translate(770 217)"><path d="M16 0 C81.44 -0.43, 146.87 0.4, 213.78 0 C223.34 0.18, 229.64 7.2, 230 16 C230.07 26.88, 230.58 38.83, 230.24 50.14 C230 58.55, 222.82 65.91, 214 66 C148.61 65.96, 82.92 66.33, 15.82 65.85 C7.23 66.54, -0.08 58.48, 0 50 C-0.04 38.23, 0.3 28.02, 0.06 16.14 C-0.38 7.8, 7.02 0.17, 16 0 Z" stroke="none" fill="#a5d8ff"></path><path d="M16 0 C82.18 0.23, 146.34 0.59, 214.25 0.3 C222.12 -0.29, 230.85 8.41, 230 16 C231 27.22, 230.97 37.74, 229.5 50.09 C229.81 59.89, 224.09 66.36, 214 66 C148.95 65.42, 83.45 64.99, 16.39 65.4 C6.65 65.77, 0.02 59.24, 0 50 C1.01 38.04, 0.41 26.95, -0.26 15.61 C0.59 6.7, 7.97 0.31, 16 0 M16 0 C82 0.23, 145.8 1.05, 213.53 -0.01 C223.29 0.02, 229.75 8.54, 230 16 C230.22 26.37, 230.17 38.75, 229.42 50.22 C230.33 58.19, 223.22 64.73, 214 66 C149.11 64.61, 82.77 65.74, 15.87 65.3 C7.74 67.09, -0.53 57.89, 0 50 C0.88 40.13, -1.18 28.41, 0.35 16.55 C1.04 7.8, 7.87 -0.13, 16 0" stroke="#1971c2" stroke-width="1.7" fill="none" stroke-linecap="round"></path></g><text x="885" y="241" font-family="Virgil, Segoe UI Emoji" font-size="15px" fill="#1e1e1e" text-anchor="middle" dominant-baseline="central" style="white-space:pre">Meeting Service</text><text x="885" y="260" font-family="Virgil, Segoe UI Emoji" font-size="12px" fill="#495057" text-anchor="middle" dominant-baseline="central" style="white-space:pre">create · auth · schedule</text><g transform="translate(775 435)"><path d="M16 0 C77.97 -0.01, 139.52 -0.12, 203.81 -0.28 C213.07 -0.08, 219.82 7.68, 220 16 C220.46 22.69, 220.06 30.14, 220.18 38.12 C220.51 47.16, 213.27 54.4, 204 54 C142.5 53.56, 79.95 54.59, 16.03 54.22 C6.77 54.51, 0.09 47.15, 0 38 C-0.47 30.18, 0.52 23.76, 0.16 15.73 C-0.57 7.42, 7.49 0.27, 16 0 Z" stroke="none" fill="#ffc9c9"></path><path d="M16 0 C76.65 -0.23, 141.07 -1.21, 203.34 -0.5 C211.97 1.27, 219.87 6.01, 220 16 C220.72 24.53, 219.34 31.42, 220.65 37.74 C221.34 46.67, 214.15 53.23, 204 54 C141.97 55.21, 79.44 54.17, 16.04 54.28 C7.35 53.47, 0.91 46.48, 0 38 C-0.45 30.26, 0.27 24.56, -0.62 16.29 C-1.1 6.28, 7.02 0.13, 16 0 M16 0 C79.12 0.46, 138.93 0.19, 204.49 0.26 C212.3 -1.21, 220.29 8.17, 220 16 C220.04 22.49, 219.27 29.23, 220.34 37.55 C219.4 47.25, 211.73 53.33, 204 54 C142.9 52.6, 79.83 53.48, 15.98 53.44 C7.91 55.05, 0.71 46.45, 0 38 C-0.43 31.1, 1.11 24.44, 0.17 15.3 C-1.06 6.14, 8.44 0.05, 16 0" stroke="#e03131" stroke-width="1.7" fill="none" stroke-linecap="round"></path></g><text x="885" y="453" font-family="Virgil, Segoe UI Emoji" font-size="15px" fill="#1e1e1e" text-anchor="middle" dominant-baseline="central" style="white-space:pre">Meeting DB</text><text x="885" y="472" font-family="Virgil, Segoe UI Emoji" font-size="12px" fill="#495057" text-anchor="middle" dominant-baseline="central" style="white-space:pre">PostgreSQL</text><g transform="translate(260 672)"><path d="M16 0 C78.28 -0.5, 139.81 -0.41, 204.09 0.21 C212.51 0.51, 219.42 7.03, 220 16 C219.56 27, 219.47 38.55, 220.16 49.75 C219.64 58.4, 213.01 65.78, 204 66 C141.47 66.2, 79.62 65.44, 15.97 65.93 C7.36 66.39, 0.2 58.82, 0 50 C0.14 38.32, 0.04 28.12, 0.09 16.23 C-0.54 7.38, 6.93 0.01, 16 0 Z" stroke="none" fill="#d0bfff"></path><path d="M16 0 C78.51 -0.97, 140.62 1.24, 204.52 -0.41 C211.62 -0.76, 219.98 7.8, 220 16 C221.35 28.48, 218.78 37.85, 220.55 49.88 C220.35 59.63, 213.14 65.35, 204 66 C143.31 67.39, 78.94 65.16, 15.33 65.87 C5.88 66.66, 1.21 59.87, 0 50 C0.58 37.69, 1.25 27.42, 0.55 16.38 C0.17 7.87, 7.64 0.23, 16 0 M16 0 C78.02 -0.31, 139.16 1.08, 204.51 -0.12 C213.68 -0.66, 219.03 6.13, 220 16 C219.82 27.25, 221.19 39.45, 219.33 49.51 C219.76 59.39, 212.34 65.7, 204 66 C141.39 67.24, 78.82 66.33, 15.93 66.12 C7.79 66.08, -0.6 59.86, 0 50 C1.14 37.44, 0.12 27.15, -0.01 16.36 C0.33 6.83, 8.35 1.13, 16 0" stroke="#7048e8" stroke-width="1.7" fill="none" stroke-linecap="round"></path></g><text x="370" y="696" font-family="Virgil, Segoe UI Emoji" font-size="15px" fill="#1e1e1e" text-anchor="middle" dominant-baseline="central" style="white-space:pre">STUN / TURN</text><text x="370" y="715" font-family="Virgil, Segoe UI Emoji" font-size="12px" fill="#495057" text-anchor="middle" dominant-baseline="central" style="white-space:pre">NAT traversal / relay</text><g transform="translate(540 617)"><path d="M16 0 C124.76 0.46, 232.28 -0.28, 344.22 -0.04 C352.24 0.42, 360.54 6.83, 360 16 C359.58 33.71, 360.19 51.78, 359.99 69.79 C359.91 78.45, 352.42 86.59, 344 86 C236.04 86.42, 127.42 85.67, 16.26 85.97 C6.82 85.49, -0.07 79.01, 0 70 C-0.32 51.83, 0.43 34.86, -0.13 15.91 C0.34 7.7, 7.45 0.36, 16 0 Z" stroke="none" fill="#a5d8ff"></path><path d="M16 0 C125.33 -0.1, 232.54 -1.01, 343.34 -0.04 C352.65 1.29, 360.51 6.93, 360 16 C360.18 33.73, 360.42 51.47, 359.81 70.33 C360.56 77.87, 354.09 86.96, 344 86 C235.38 85.49, 127.45 85.62, 16.09 86.19 C7.88 86.78, -0.79 77.41, 0 70 C0.91 51.89, 0.38 33.36, 0.45 16.42 C-0.74 6.86, 7.19 -1.21, 16 0 M16 0 C123.39 -1.33, 231.93 -0.56, 344.27 0.28 C353.99 -0.09, 359.99 8.55, 360 16 C361.35 33.16, 359.87 52.17, 359.44 70.6 C359.2 77.73, 353.15 84.74, 344 86 C236.47 86.27, 126.87 86.98, 16.3 85.3 C8.29 86.57, 1.13 78.33, 0 70 C-0.6 53.43, -0.7 35.44, -0.16 15.56 C0.75 6.26, 6.6 -0.93, 16 0" stroke="#1971c2" stroke-width="1.7" fill="none" stroke-linecap="round"></path></g><text x="720" y="651" font-family="Virgil, Segoe UI Emoji" font-size="15px" fill="#1e1e1e" text-anchor="middle" dominant-baseline="central" style="white-space:pre">SFU Media Server</text><text x="720" y="670" font-family="Virgil, Segoe UI Emoji" font-size="12px" fill="#495057" text-anchor="middle" dominant-baseline="central" style="white-space:pre">selective forwarding · simulcast (RTP/UDP)</text><g transform="translate(975 628)"><path d="M16 0 C70.85 0.3, 127.46 0.24, 183.89 -0.04 C193.17 -0.27, 200.08 7.33, 200 16 C200.11 26.02, 200.6 37.36, 200.1 48.15 C200.47 57.17, 192.91 63.51, 184 64 C128.32 63.69, 73.16 63.42, 15.91 63.76 C7.1 63.73, 0.57 56.6, 0 48 C0.47 37.19, -0.56 27.23, 0.13 16.01 C-0.07 6.91, 7.65 0.31, 16 0 Z" stroke="none" fill="#a5d8ff"></path><path d="M16 0 C71.46 0.76, 125.56 0.19, 184.12 0.64 C191.9 -0.19, 200.36 7.45, 200 16 C201.29 27.45, 200.99 36.56, 199.49 47.36 C200.48 58.19, 193.05 64.27, 184 64 C128.59 63.91, 74.12 63.3, 16.3 63.61 C6.04 64.65, -0.23 56.83, 0 48 C-0.34 36.22, -1.14 27.2, 0.1 16.61 C1.33 7.36, 6.19 -0.56, 16 0 M16 0 C72.63 0.86, 125.71 -1.08, 184.06 -0.36 C192.6 -0.41, 198.7 7.27, 200 16 C198.96 26.76, 200.22 37.86, 200.47 48.06 C201.22 57.86, 191.63 64, 184 64 C129.84 64.99, 73.2 63.99, 16.31 63.49 C7.93 63.82, -1.32 58.11, 0 48 C0.75 38.78, 0.1 26.01, 0.11 15.5 C1.23 6.83, 7.71 -1.05, 16 0" stroke="#1971c2" stroke-width="1.7" fill="none" stroke-linecap="round"></path></g><text x="1075" y="651" font-family="Virgil, Segoe UI Emoji" font-size="15px" fill="#1e1e1e" text-anchor="middle" dominant-baseline="central" style="white-space:pre">Recording Service</text><text x="1075" y="670" font-family="Virgil, Segoe UI Emoji" font-size="12px" fill="#495057" text-anchor="middle" dominant-baseline="central" style="white-space:pre">compose · transcode</text><g transform="translate(975 761)"><path d="M16 0 C71.07 0.16, 127.07 0.47, 184.28 0.22 C192.97 0.3, 199.77 6.91, 200 16 C200.15 23.62, 200.52 30.5, 200.14 37.88 C200.27 47.16, 193.11 53.86, 184 54 C128.33 54.59, 73.13 53.58, 15.87 54.2 C7.68 53.42, 0.27 46.27, 0 38 C0.49 30.21, -0.33 23.1, -0.18 15.79 C-0.44 6.82, 7.6 0, 16 0 Z" stroke="none" fill="#ffc9c9"></path><path d="M16 0 C70.38 -0.5, 127.06 -1.31, 184.2 -0.11 C192.93 0.64, 199.25 6.09, 200 16 C199.5 22.61, 199.13 31.45, 199.89 37.86 C198.83 45.46, 193.82 53.97, 184 54 C129.65 55.02, 74.04 53.86, 15.64 54.59 C8.09 52.63, 1.16 45.83, 0 38 C-1.02 32.05, 0.34 23.84, -0.65 16.03 C1.39 8.25, 7.36 -0.81, 16 0 M16 0 C70.39 0.77, 126.76 -0.32, 183.73 0.3 C191.5 0.27, 201.04 5.96, 200 16 C201.37 22.39, 200.89 31.34, 200.62 38.2 C200.38 46.87, 192.51 55.29, 184 54 C128.11 54.86, 71.76 52.73, 16 54.33 C6.4 53.69, -1.06 47.74, 0 38 C1.08 30.84, 1.32 24.7, -0.46 15.45 C0.29 7.76, 5.84 1.27, 16 0" stroke="#e03131" stroke-width="1.7" fill="none" stroke-linecap="round"></path></g><text x="1075" y="779" font-family="Virgil, Segoe UI Emoji" font-size="15px" fill="#1e1e1e" text-anchor="middle" dominant-baseline="central" style="white-space:pre">Recording Store</text><text x="1075" y="798" font-family="Virgil, Segoe UI Emoji" font-size="12px" fill="#495057" text-anchor="middle" dominant-baseline="central" style="white-space:pre">S3</text><rect x="406" y="196" width="172.5" height="18" fill="#ffffff" stroke="none"></rect><text x="411" y="205" font-family="Virgil, Segoe UI Emoji" font-size="12.5px" fill="#495057" text-anchor="start" dominant-baseline="central" style="white-space:pre">Signaling Plane (control)</text><rect x="258" y="596" width="185.5" height="18" fill="#ffffff" stroke="none"></rect><text x="263" y="605" font-family="Virgil, Segoe UI Emoji" font-size="12.5px" fill="#495057" text-anchor="start" dominant-baseline="central" style="white-space:pre">Media Plane (A/V · UDP/RTP)</text><rect x="305.07" y="242" width="49.86" height="18" rx="6" ry="6" fill="#ffffff" fill-opacity="0.82" stroke="none"></rect><text x="330" y="251" font-family="Virgil, Segoe UI Emoji" font-size="11.5px" fill="#27313a" text-anchor="middle" dominant-baseline="central" style="white-space:pre">connect</text><rect x="605.12" y="157" width="79.76" height="18" rx="6" ry="6" fill="#ffffff" fill-opacity="0.82" stroke="none"></rect><text x="645" y="166" font-family="Virgil, Segoe UI Emoji" font-size="11.5px" fill="#27313a" text-anchor="middle" dominant-baseline="central" style="white-space:pre">① join (WSS)</text><rect x="743.06" y="162" width="43.88" height="18" rx="6" ry="6" fill="#ffffff" fill-opacity="0.82" stroke="none"></rect><text x="765" y="171" font-family="Virgil, Segoe UI Emoji" font-size="11.5px" fill="#27313a" text-anchor="middle" dominant-baseline="central" style="white-space:pre">create</text><rect x="493.21" y="296.5" width="133.58" height="18" rx="6" ry="6" fill="#ffffff" fill-opacity="0.82" stroke="none"></rect><text x="560" y="305.5" font-family="Virgil, Segoe UI Emoji" font-size="11.5px" fill="#27313a" text-anchor="middle" dominant-baseline="central" style="white-space:pre">② SDP/ICE + alloc SFU</text><rect x="860.07" y="350" width="49.86" height="18" rx="6" ry="6" fill="#ffffff" fill-opacity="0.82" stroke="none"></rect><text x="885" y="359" font-family="Virgil, Segoe UI Emoji" font-size="11.5px" fill="#27313a" text-anchor="middle" dominant-baseline="central" style="white-space:pre">persist</text><rect x="198.15" y="548.5" width="97.7" height="18" rx="6" ry="6" fill="#ffffff" fill-opacity="0.82" stroke="none"></rect><text x="247" y="557.5" font-family="Virgil, Segoe UI Emoji" font-size="11.5px" fill="#27313a" text-anchor="middle" dominant-baseline="central" style="white-space:pre">③ NAT traversal</text><rect x="75.17" y="477.5" width="109.66" height="18" rx="6" ry="6" fill="#ffffff" fill-opacity="0.82" stroke="none"></rect><text x="130" y="486.5" font-family="Virgil, Segoe UI Emoji" font-size="11.5px" fill="#27313a" text-anchor="middle" dominant-baseline="central" style="white-space:pre">④ media (RTP/UDP)</text><rect x="348.16" y="526" width="103.68" height="18" rx="6" ry="6" fill="#ffffff" fill-opacity="0.82" stroke="none"></rect><text x="400" y="535" font-family="Virgil, Segoe UI Emoji" font-size="11.5px" fill="#27313a" text-anchor="middle" dominant-baseline="central" style="white-space:pre">⑤ forward layers</text><rect x="909.58" y="651" width="55.84" height="18" rx="6" ry="6" fill="#ffffff" fill-opacity="0.82" stroke="none"></rect><text x="937.5" y="660" font-family="Virgil, Segoe UI Emoji" font-size="11.5px" fill="#27313a" text-anchor="middle" dominant-baseline="central" style="white-space:pre">⑥ record</text><rect x="1041.1" y="717.5" width="67.8" height="18" rx="6" ry="6" fill="#ffffff" fill-opacity="0.82" stroke="none"></rect><text x="1075" y="726.5" font-family="Virgil, Segoe UI Emoji" font-size="11.5px" fill="#27313a" text-anchor="middle" dominant-baseline="central" style="white-space:pre">store (S3)</text></g>
</svg>
