<?xml version="1.0" encoding="UTF-8"?>
<svg id="diagram" viewBox="0 0 1120 860" xmlns="http://www.w3.org/2000/svg" width="1120" height="860"><rect x="0" y="0" width="1120" height="860" fill="#ffffff"></rect><g><rect x="70" y="230" width="406" height="294" rx="14" ry="14" fill="#f8fafc" stroke="#64748b" stroke-width="1.6" stroke-dasharray="7 5"></rect><rect x="84" y="207" width="198.8" height="22" rx="7" ry="7" fill="#475569"></rect><text x="183.4" y="218" fill="#fff" font-size="11.5" font-weight="700" text-anchor="middle" dominant-baseline="central">▢ Ingest &amp; Transcode Pipeline</text><rect x="282" y="612" width="360" height="80" rx="14" ry="14" fill="#f8fafc" stroke="#64748b" stroke-width="1.6" stroke-dasharray="7 5"></rect><rect x="296" y="589" width="128.4" height="22" rx="7" ry="7" fill="#475569"></rect><text x="360.2" y="600" fill="#fff" font-size="11.5" font-weight="700" text-anchor="middle" dominant-baseline="central">▢ Playback Service</text></g><g><path d="M510,79 L510,117" fill="none" stroke="#55606a" stroke-width="1.9" stroke-linejoin="round" stroke-linecap="round"></path><polygon points="510,117 506.12627569593405,108.32565506703307 513.873724304066,108.32565506703307" fill="#55606a"></polygon><path d="M510,175 L510,234 L265,234 L265,239" fill="none" stroke="#55606a" stroke-width="1.9" stroke-linejoin="round" stroke-linecap="round"></path><polygon points="265,239 261.12627569593405,230.32565506703307 268.8737243040659,230.32565506703307" fill="#55606a"></polygon><path d="M410,270 L615,270 L615,258 L820,258" fill="none" stroke="#55606a" stroke-width="1.9" stroke-linejoin="round" stroke-linecap="round"></path><polygon points="820,258 811.325655067033,261.87372430406595 811.325655067033,254.12627569593408" fill="#55606a"></polygon><path d="M265,301 L265,312.5 L660,312.5 L660,324" fill="none" stroke="#55606a" stroke-width="1.9" stroke-linejoin="round" stroke-linecap="round"></path><polygon points="660,324 656.126275695934,315.3256550670331 663.873724304066,315.3256550670331" fill="#55606a"></polygon><path d="M660,380 L660,406 L275,406 L275,432" fill="none" stroke="#55606a" stroke-width="1.9" stroke-linejoin="round" stroke-linecap="round"></path><polygon points="275,432 271.12627569593405,423.3256550670331 278.8737243040659,423.3256550670331" fill="#55606a"></polygon><path d="M467,474 L820,474" fill="none" stroke="#55606a" stroke-width="1.9" stroke-linejoin="round" stroke-linecap="round"></path><polygon points="820,474 811.325655067033,477.87372430406595 811.325655067033,470.12627569593405" fill="#55606a"></polygon><path d="M820,474 L800,474 L800,146 L730,146" fill="none" stroke="#55606a" stroke-width="1.9" stroke-linejoin="round" stroke-linecap="round"></path><polygon points="730,146 738.674344932967,142.12627569593408 738.674344932967,149.87372430406592" fill="#55606a"></polygon><path d="M510,175 L510,560 L460,560 L460,615" fill="none" stroke="#55606a" stroke-width="1.9" stroke-linejoin="round" stroke-linecap="round"></path><polygon points="460,615 456.12627569593405,606.325655067033 463.8737243040659,606.325655067033" fill="#55606a"></polygon><path d="M630,648 L820,648" fill="none" stroke="#aab2bb" stroke-width="1.6" stroke-linejoin="round" stroke-linecap="round" stroke-dasharray="6 5"></path><polygon points="820,648 811.325655067033,651.873724304066 811.325655067033,644.126275695934" fill="#aab2bb"></polygon><path d="M460,681 L460,720 L945,720 L945,759" fill="none" stroke="#55606a" stroke-width="1.9" stroke-linejoin="round" stroke-linecap="round"></path><polygon points="945,759 941.126275695934,750.325655067033 948.873724304066,750.325655067033" fill="#55606a"></polygon></g><g><rect x="275" y="29" width="470" height="50" rx="9" ry="9" fill="#fff" stroke="#6c757d" stroke-width="1.7" filter="url(#sh)"></rect><path d="M275,52 V38 Q275,29 284,29 H736 Q745,29 745,38 V52 Z" fill="#6c757d"></path><text x="510" y="41" fill="#fff" font-weight="700" font-size="12.5" text-anchor="middle" dominant-baseline="central">Viewers / Uploaders</text><text x="510" y="65.5" fill="#3c454d" font-size="10.8" text-anchor="middle" dominant-baseline="central">clients · web · mobile · TV</text><rect x="290" y="117" width="440" height="58" rx="9" ry="9" fill="#fff" stroke="#4338ca" stroke-width="1.7" filter="url(#sh)"></rect><path d="M290,143 V126 Q290,117 299,117 H721 Q730,117 730,126 V143 Z" fill="#4f46e5"></path><text x="510" y="130.5" fill="#fff" font-weight="700" font-size="12.5" text-anchor="middle" dominant-baseline="central">API Gateway + CDN</text><text x="510" y="159" fill="#3c454d" font-size="10.8" text-anchor="middle" dominant-baseline="central">edge cache · TLS</text><rect x="120" y="239" width="290" height="62" rx="9" ry="9" fill="#fff" stroke="#0F5BB5" stroke-width="1.7" filter="url(#sh)"></rect><path d="M120,265 V248 Q120,239 129,239 H401 Q410,239 410,248 V265 Z" fill="#0078D4"></path><text x="265" y="252.5" fill="#fff" font-weight="700" font-size="12.5" text-anchor="middle" dominant-baseline="central">Upload Service</text><text x="265" y="283" fill="#3c454d" font-size="10.8" text-anchor="middle" dominant-baseline="central">presigned · resumable</text><rect x="820" y="229" width="250" height="58" rx="9" ry="9" fill="#fff" stroke="#0A6E80" stroke-width="1.7" filter="url(#sh)"></rect><path d="M820,255 V238 Q820,229 829,229 H1061 Q1070,229 1070,238 V255 Z" fill="#0C8599"></path><text x="945" y="242.5" fill="#fff" font-weight="700" font-size="12.5" text-anchor="middle" dominant-baseline="central">Source Store</text><text x="945" y="271" fill="#3c454d" font-size="10.8" text-anchor="middle" dominant-baseline="central">S3 (raw uploads)</text><rect x="540" y="324" width="240" height="56" rx="9" ry="9" fill="#fff" stroke="#C8590B" stroke-width="1.7" filter="url(#sh)"></rect><path d="M540,349.76 V333 Q540,324 549,324 H771 Q780,324 780,333 V349.76 Z" fill="#F7630C"></path><text x="660" y="337.38" fill="#fff" font-weight="700" font-size="12.5" text-anchor="middle" dominant-baseline="central">Transcode Queue</text><text x="660" y="364.88" fill="#3c454d" font-size="10.8" text-anchor="middle" dominant-baseline="central">Apache Kafka / SQS</text><rect x="83" y="432" width="384" height="84" rx="9" ry="9" fill="#fff" stroke="#0F5BB5" stroke-width="1.7" filter="url(#sh)"></rect><path d="M83,458 V441 Q83,432 92,432 H458 Q467,432 467,441 V458 Z" fill="#0078D4"></path><text x="275" y="445.5" fill="#fff" font-weight="700" font-size="12.5" text-anchor="middle" dominant-baseline="central">Transcoding Pipeline</text><text x="275" y="487" fill="#3c454d" font-size="10.8" text-anchor="middle" dominant-baseline="central">chunk → parallel encode → package (HLS/DASH)</text><rect x="820" y="442" width="250" height="64" rx="9" ry="9" fill="#fff" stroke="#0A6E80" stroke-width="1.7" filter="url(#sh)"></rect><path d="M820,468 V451 Q820,442 829,442 H1061 Q1070,442 1070,451 V468 Z" fill="#0C8599"></path><text x="945" y="455.5" fill="#fff" font-weight="700" font-size="12.5" text-anchor="middle" dominant-baseline="central">Encoded Origin</text><text x="945" y="487" fill="#3c454d" font-size="10.8" text-anchor="middle" dominant-baseline="central">S3 (renditions + manifests)</text><rect x="290" y="615" width="340" height="66" rx="9" ry="9" fill="#fff" stroke="#0F5BB5" stroke-width="1.7" filter="url(#sh)"></rect><path d="M290,641 V624 Q290,615 299,615 H621 Q630,615 630,624 V641 Z" fill="#0078D4"></path><text x="460" y="628.5" fill="#fff" font-weight="700" font-size="12.5" text-anchor="middle" dominant-baseline="central">Playback / Manifest Service</text><text x="460" y="661" fill="#3c454d" font-size="10.8" text-anchor="middle" dominant-baseline="central">ABR manifest · HLS/DASH</text><rect x="820" y="619" width="250" height="58" rx="9" ry="9" fill="#fff" stroke="#0A6E80" stroke-width="1.7" filter="url(#sh)"></rect><path d="M820,645 V628 Q820,619 829,619 H1061 Q1070,619 1070,628 V645 Z" fill="#0C8599"></path><text x="945" y="632.5" fill="#fff" font-weight="700" font-size="12.5" text-anchor="middle" dominant-baseline="central">Metadata DB</text><text x="945" y="661" fill="#3c454d" font-size="10.8" text-anchor="middle" dominant-baseline="central">Vitess / Bigtable</text><rect x="820" y="759" width="250" height="66" rx="9" ry="9" fill="#fff" stroke="#0F5BB5" stroke-width="1.7" filter="url(#sh)"></rect><path d="M820,785 V768 Q820,759 829,759 H1061 Q1070,759 1070,768 V785 Z" fill="#0078D4"></path><text x="945" y="772.5" fill="#fff" font-weight="700" font-size="12.5" text-anchor="middle" dominant-baseline="central">View Counter</text><text x="945" y="805" fill="#3c454d" font-size="10.8" text-anchor="middle" dominant-baseline="central">Apache Kafka + Flink (approx)</text></g><g><rect x="460.3" y="89" width="99.39999999999999" height="18" rx="9" ry="9" fill="#ffffff" stroke="#dde2e7" stroke-width="1"></rect><text x="510" y="98.5" fill="#27313a" font-size="10.8" font-weight="600" text-anchor="middle" dominant-baseline="central">watch / upload</text><rect x="478.6" y="195.5" width="62.8" height="18" rx="9" ry="9" fill="#ffffff" stroke="#dde2e7" stroke-width="1"></rect><text x="510" y="205" fill="#27313a" font-size="10.8" font-weight="600" text-anchor="middle" dominant-baseline="central">① upload</text><rect x="583.6" y="255" width="62.8" height="18" rx="9" ry="9" fill="#ffffff" stroke="#dde2e7" stroke-width="1"></rect><text x="615" y="264.5" fill="#27313a" font-size="10.8" font-weight="600" text-anchor="middle" dominant-baseline="central">raw → S3</text><rect x="428.05" y="303.5" width="68.9" height="18" rx="9" ry="9" fill="#ffffff" stroke="#dde2e7" stroke-width="1"></rect><text x="462.5" y="313" fill="#27313a" font-size="10.8" font-weight="600" text-anchor="middle" dominant-baseline="central">② enqueue</text><rect x="433.05" y="397" width="68.9" height="18" rx="9" ry="9" fill="#ffffff" stroke="#dde2e7" stroke-width="1"></rect><text x="467.5" y="406.5" fill="#27313a" font-size="10.8" font-weight="600" text-anchor="middle" dominant-baseline="central">③ consume</text><rect x="587.7" y="465" width="111.6" height="18" rx="9" ry="9" fill="#ffffff" stroke="#dde2e7" stroke-width="1"></rect><text x="643.5" y="474.5" fill="#27313a" font-size="10.8" font-weight="600" text-anchor="middle" dominant-baseline="central">write renditions</text><rect x="735.05" y="301" width="129.89999999999998" height="18" rx="9" ry="9" fill="#ffffff" stroke="#dde2e7" stroke-width="1"></rect><text x="800" y="310.5" fill="#27313a" font-size="10.8" font-weight="600" text-anchor="middle" dominant-baseline="central">④ warm · ⑥ segments</text><rect x="426.15" y="551" width="117.69999999999999" height="18" rx="9" ry="9" fill="#ffffff" stroke="#dde2e7" stroke-width="1"></rect><text x="485" y="560.5" fill="#27313a" font-size="10.8" font-weight="600" text-anchor="middle" dominant-baseline="central">⑤ play (manifest)</text><rect x="687.5" y="639" width="75" height="18" rx="9" ry="9" fill="#ffffff" stroke="#dde2e7" stroke-width="1"></rect><text x="725" y="648.5" fill="#27313a" font-size="10.8" font-weight="600" text-anchor="middle" dominant-baseline="central">video meta</text><rect x="665" y="711" width="75" height="18" rx="9" ry="9" fill="#ffffff" stroke="#dde2e7" stroke-width="1"></rect><text x="702.5" y="720.5" fill="#27313a" font-size="10.8" font-weight="600" text-anchor="middle" dominant-baseline="central">view event</text></g><defs><filter id="sh" x="-20%" y="-20%" width="140%" height="140%"><feDropShadow dx="0" dy="1" stdDeviation="1.1" flood-color="#000" flood-opacity="0.13"></feDropShadow></filter></defs></svg>